<?xml version="1.0" encoding="UTF-8"?>
<svg id="Layer_1" data-name="Layer 1" xmlns="http://www.w3.org/2000/svg" viewBox="0 0 1000 1000">
  <defs>
    <style>
      .cls-1 {
        fill: #ffb700;
      }

      .cls-2 {
        fill: #1a0061;
      }

      .cls-3 {
        fill: #260e50;
      }

      .cls-4 {
        fill: #fea228;
      }

      .cls-5 {
        fill: #2c007f;
        stroke: #fea228;
        stroke-miterlimit: 10;
        stroke-width: 18px;
      }
    </style>
  </defs>
  <path class="cls-5" d="M571.29,169.19c0,52.02-73.41,242-73.41,242,0,0-73.41-189.98-73.41-242,0-52.02,73.41-94.19,73.41-94.19,0,0,73.41,42.17,73.41,94.19Z"/>
  <path class="cls-5" d="M834.71,432.61c-52.02,0-242,73.41-242,73.41,0,0,189.98,73.41,242,73.41s94.19-73.41,94.19-73.41c0,0-42.17-73.41-94.19-73.41Z"/>
  <path class="cls-5" d="M163.17,577.31c52.02,0,242-73.41,242-73.41,0,0-189.98-73.41-242-73.41s-94.19,73.41-94.19,73.41c0,0,42.17,73.41,94.19,73.41Z"/>
  <path class="cls-5" d="M426.59,840.73c0-52.02,73.41-242,73.41-242,0,0,73.41,189.98,73.41,242s-73.41,94.19-73.41,94.19c0,0-73.41-42.17-73.41-94.19Z"/>
  <g>
    <path class="cls-4" d="M404.18,867.3c66.78-66.78,91.04-184.17,99.68-269.99-8.98.35-17.99-.55-26.78-2.68-16.82-4.08-32.77-12.69-45.9-25.82-13.13-13.13-21.74-29.08-25.82-45.9-2.13-8.78-3.04-17.8-2.68-26.78-85.82,8.64-203.21,32.91-269.99,99.68-114.01,114.01-76.96,348.43-76.96,348.43,0,0,234.43,37.05,348.43-76.96Z"/>
    <path class="cls-3" d="M382.16,842.15c62.82-62.82,86.22-173.18,94.93-247.52-16.82-4.08-32.77-12.69-45.9-25.82-13.13-13.13-21.74-29.08-25.82-45.9-74.34,8.71-184.7,32.11-247.52,94.93-100.89,100.89-76.08,300.39-76.08,300.39,0,0,199.49,24.82,300.39-76.08Z"/>
  </g>
  <path class="cls-1" d="M392.24,810.11s-20.74-25.42-21.61-67.96c-13.88,44.03-50.61,124.65-97.87,141.95,0,0-31.64-33.93-22.41-84.03-5.19,19.19-18.02,40.76-37.1,59.84-36.96,36.96-103.51,30.35-103.51,30.35,0,0-6.61-66.54,30.35-103.51,19.08-19.08,40.65-31.91,59.84-37.1-50.1,9.23-84.03-22.41-84.03-22.41,17.3-47.26,97.92-83.99,141.95-97.87-42.54-.86-67.96-21.61-67.96-21.61,41.66-56.64,223-68.23,223-68.23l13.5,18c.06-.03.09-.05.09-.05l8.02,8.02s-.33.31-.94.9l.04.04c.58-.61.9-.94.9-.94l8.02,8.02s-.02.03-.05.09l18,13.5s-11.59,181.35-68.23,223Z"/>
  <g>
    <path class="cls-4" d="M867.3,404.18c-66.78,66.78-184.17,91.04-269.99,99.68.35-8.98-.55-17.99-2.68-26.78-4.08-16.82-12.69-32.77-25.82-45.9-13.13-13.13-29.08-21.74-45.9-25.82-8.78-2.13-17.8-3.04-26.78-2.68,8.64-85.82,32.91-203.21,99.68-269.99,114.01-114.01,348.43-76.96,348.43-76.96,0,0,37.05,234.43-76.96,348.43Z"/>
    <path class="cls-3" d="M842.15,382.16c-62.82,62.82-173.18,86.22-247.52,94.93-4.08-16.82-12.69-32.77-25.82-45.9-13.13-13.13-29.08-21.74-45.9-25.82,8.71-74.34,32.11-184.7,94.93-247.52,100.89-100.89,300.39-76.08,300.39-76.08,0,0,24.82,199.49-76.08,300.39Z"/>
  </g>
  <path class="cls-1" d="M810.11,392.24s-25.42-20.74-67.96-21.61c44.03-13.88,124.65-50.61,141.95-97.87,0,0-33.93-31.64-84.03-22.41,19.19-5.19,40.76-18.02,59.84-37.1,36.96-36.96,30.35-103.51,30.35-103.51,0,0-66.54-6.61-103.51,30.35-19.08,19.08-31.91,40.65-37.1,59.84,9.23-50.1-22.41-84.03-22.41-84.03-47.26,17.3-83.99,97.92-97.87,141.95-.86-42.54-21.61-67.96-21.61-67.96-56.64,41.66-68.23,223-68.23,223l18,13.5c-.03.06-.05.09-.05.09l8.02,8.02s.31-.33.9-.94l.04.04c-.61.58-.94.9-.94.9l8.02,8.02s.03-.02.09-.05l13.5,18s181.35-11.59,223-68.23Z"/>
  <g>
    <path class="cls-4" d="M132.7,404.18c66.78,66.78,184.17,91.04,269.99,99.68-.35-8.98.55-17.99,2.68-26.78,4.08-16.82,12.69-32.77,25.82-45.9,13.13-13.13,29.08-21.74,45.9-25.82,8.78-2.13,17.8-3.04,26.78-2.68-8.64-85.82-32.91-203.21-99.68-269.99C290.18,18.7,55.75,55.75,55.75,55.75c0,0-37.05,234.43,76.96,348.43Z"/>
    <path class="cls-3" d="M157.85,382.16c62.82,62.82,173.18,86.22,247.52,94.93,4.08-16.82,12.69-32.77,25.82-45.9,13.13-13.13,29.08-21.74,45.9-25.82-8.71-74.34-32.11-184.7-94.93-247.52C281.27,56.96,81.77,81.77,81.77,81.77c0,0-24.82,199.49,76.08,300.39Z"/>
  </g>
  <path class="cls-1" d="M189.89,392.24s25.42-20.74,67.96-21.61c-44.03-13.88-124.65-50.61-141.95-97.87,0,0,33.93-31.64,84.03-22.41-19.19-5.19-40.76-18.02-59.84-37.1-36.96-36.96-30.35-103.51-30.35-103.51,0,0,66.54-6.61,103.51,30.35,19.08,19.08,31.91,40.65,37.1,59.84-9.23-50.1,22.41-84.03,22.41-84.03,47.26,17.3,83.99,97.92,97.87,141.95.86-42.54,21.61-67.96,21.61-67.96,56.64,41.66,68.23,223,68.23,223l-18,13.5c.03.06.05.09.05.09l-8.02,8.02s-.31-.33-.9-.94l-.04.04c.61.58.94.9.94.9l-8.02,8.02s-.03-.02-.09-.05l-13.5,18s-181.35-11.59-223-68.23Z"/>
  <g>
    <path class="cls-4" d="M595.82,867.3c-66.78-66.78-91.04-184.17-99.68-269.99,8.98.35,17.99-.55,26.78-2.68,16.82-4.08,32.77-12.69,45.9-25.82s21.74-29.08,25.82-45.9c2.13-8.78,3.04-17.8,2.68-26.78,85.82,8.64,203.21,32.91,269.99,99.68,114.01,114.01,76.96,348.43,76.96,348.43,0,0-234.43,37.05-348.43-76.96Z"/>
    <path class="cls-3" d="M617.84,842.15c-62.82-62.82-86.22-173.18-94.93-247.52,16.82-4.08,32.77-12.69,45.9-25.82s21.74-29.08,25.82-45.9c74.34,8.71,184.7,32.11,247.52,94.93,100.89,100.89,76.08,300.39,76.08,300.39,0,0-199.49,24.82-300.39-76.08Z"/>
  </g>
  <path class="cls-1" d="M607.76,810.11s20.74-25.42,21.61-67.96c13.88,44.03,50.61,124.65,97.87,141.95,0,0,31.64-33.93,22.41-84.03,5.19,19.19,18.02,40.76,37.1,59.84,36.96,36.96,103.51,30.35,103.51,30.35,0,0,6.61-66.54-30.35-103.51-19.08-19.08-40.65-31.91-59.84-37.1,50.1,9.23,84.03-22.41,84.03-22.41-17.3-47.26-97.92-83.99-141.95-97.87,42.54-.86,67.96-21.61,67.96-21.61-41.66-56.64-223-68.23-223-68.23l-13.5,18c-.06-.03-.09-.05-.09-.05l-8.02,8.02s.33.31.94.9l-.04.04c-.58-.61-.9-.94-.9-.94l-8.02,8.02s.02.03.05.09l-18,13.5s11.59,181.35,68.23,223Z"/>
  <path class="cls-4" d="M568.81,431.19c-38.12-38.12-99.92-38.12-138.04,0-38.12,38.12-38.12,99.92,0,138.04,38.12,38.12,99.92,38.12,138.04,0,38.12-38.12,38.12-99.92,0-138.04ZM483.73,516.27c-8.87-8.87-8.87-23.25,0-32.12,8.87-8.87,23.25-8.87,32.12,0,8.87,8.87,8.87,23.25,0,32.12s-23.25,8.87-32.12,0Z"/>
  <circle class="cls-2" cx="498.73" cy="500.05" r="31.06"/>
</svg>