<?xml version="1.0" encoding="UTF-8"?>
<svg id="Layer_2" data-name="Layer 2" xmlns="http://www.w3.org/2000/svg" viewBox="0 0 1000 1000">
  <defs>
    <style>
      .cls-1 {
        fill: #2c007f;
      }

      .cls-1, .cls-2, .cls-3 {
        stroke-miterlimit: 10;
      }

      .cls-1, .cls-3 {
        stroke: #edad23;
        stroke-width: 7px;
      }

      .cls-2 {
        fill: #ff910b;
        stroke: #ffad00;
        stroke-width: 12px;
      }

      .cls-3 {
        fill: #260e50;
      }
    </style>
  </defs>
  <g>
    <g id="_Radial_Repeat_" data-name="&amp;lt;Radial Repeat&amp;gt;">
      <path class="cls-3" d="M414.25,808.27s39.06,9.69,63.88,11.28c26.71,1.71,57.48-5.48,57.48-5.48l20.46,91.24c10.97,44.62-19.22,86.99-64.51,84.08l-48.46-3.11c-45.29-2.91-66.84-47.27-52.98-92.55l24.13-85.46Z"/>
    </g>
    <g id="_Radial_Repeat_-2" data-name="&amp;lt;Radial Repeat&amp;gt;">
      <path class="cls-3" d="M295.84,747.21s31.74,24.74,53.76,36.29c23.71,12.43,54.74,18.37,54.74,18.37l-18.42,91.67c-8.13,45.22-52.94,71.65-93.14,50.57l-43-22.55c-40.2-21.08-41.83-70.36-10.75-106.1l56.8-68.26Z"/>
    </g>
    <g id="_Radial_Repeat_-3" data-name="&amp;lt;Radial Repeat&amp;gt;">
      <path class="cls-3" d="M212.51,643.25s18.93,35.51,34.36,55.02c16.6,21,42.54,39.05,42.54,39.05l-54.11,76.26c-25.82,38.01-77.51,43.92-105.65,8.32l-30.11-38.09c-28.15-35.61-9.6-81.3,33.33-101.3l79.66-39.25Z"/>
    </g>
    <g id="_Radial_Repeat_-4" data-name="&amp;lt;Radial Repeat&amp;gt;">
      <path class="cls-3" d="M178.66,514.39s2.85,40.14,9.01,64.24c6.62,25.94,22.98,52.97,22.98,52.97l-80.45,47.65c-39.05,24.22-88.67,8.6-99.9-35.37l-12.02-47.05c-11.23-43.98,24.3-78.17,71.65-78.99l88.73-3.46Z"/>
    </g>
    <g id="_Radial_Repeat_-5" data-name="&amp;lt;Radial Repeat&amp;gt;">
      <path class="cls-3" d="M200.16,382.9s-13.72,37.83-17.9,62.35c-4.5,26.39-.55,57.74-.55,57.74l-92.88,10.81c-45.52,6.24-84.5-28.21-76.88-72.95l8.16-47.87c7.63-44.74,53.99-61.53,97.58-43.01l82.47,32.93Z"/>
    </g>
    <g id="_Radial_Repeat_-6" data-name="&amp;lt;Radial Repeat&amp;gt;">
      <path class="cls-3" d="M273.28,271.52s-27.92,28.98-41.71,49.68c-14.84,22.28-23.99,52.52-23.99,52.52l-89.25-27.9c-44.13-12.81-65.73-60.14-40.56-97.91l26.92-40.41c25.16-37.77,74.35-34.25,106.64.4l61.94,63.63Z"/>
    </g>
    <g id="_Radial_Repeat_-7" data-name="&amp;lt;Radial Repeat&amp;gt;">
      <path class="cls-3" d="M385.37,199.51s-37.29,15.12-58.31,28.42c-22.62,14.32-43.28,38.22-43.28,38.22l-70.18-61.79c-35.1-29.65-35.58-81.67,2.77-105.94l41.03-25.97c38.35-24.27,81.85-1.05,97.26,43.74l30.71,83.32Z"/>
    </g>
    <g id="_Radial_Repeat_-8" data-name="&amp;lt;Radial Repeat&amp;gt;">
      <path class="cls-3" d="M517.07,179.32s-40.22-1.36-64.83,2.25c-26.49,3.88-55.09,17.31-55.09,17.31l-38.98-84.99c-20.01-41.36.71-89.08,45.62-95.66l48.05-7.03c44.91-6.57,75.2,32.34,71.06,79.51l-5.84,88.61Z"/>
    </g>
    <g id="_Radial_Repeat_-9" data-name="&amp;lt;Radial Repeat&amp;gt;">
      <path class="cls-3" d="M645.59,214.43s-36.19-17.6-60.13-24.32c-25.77-7.23-57.37-6.59-57.37-6.59l-1.04-93.5c-1.45-45.93,36.89-81.09,80.59-68.83l46.75,13.12c43.7,12.26,55.55,60.13,32.58,101.54l-41.37,78.57Z"/>
    </g>
    <g id="_Radial_Repeat_-10" data-name="&amp;lt;Radial Repeat&amp;gt;">
      <path class="cls-3" d="M748.72,298.8s-25.9-30.8-45.05-46.67c-20.6-17.09-49.73-29.35-49.73-29.35l37.08-85.84c17.35-42.55,66.68-59.08,101.61-30.1l37.37,31c34.94,28.98,26.29,77.52-11.54,106.02l-69.75,54.95Z"/>
    </g>
    <g id="_Radial_Repeat_-11" data-name="&amp;lt;Radial Repeat&amp;gt;">
      <path class="cls-3" d="M808.62,417.8s-11.14-38.67-22.17-60.96c-11.87-23.99-33.49-47.04-33.49-47.04l68.79-63.34c33.16-31.81,84.94-26.85,105.07,13.83l21.54,43.52c20.13,40.68-7.52,81.51-53.66,92.16l-86.08,21.83Z"/>
    </g>
    <g id="_Radial_Repeat_-12" data-name="&amp;lt;Radial Repeat&amp;gt;">
      <path class="cls-3" d="M814.93,550.89s5.55-39.86,4.54-64.7c-1.09-26.75-11.46-56.59-11.46-56.59l88.6-29.89c43.23-15.57,88.52,10.02,90.36,55.37l1.97,48.52c1.84,45.35-40.02,71.41-86.51,62.36l-87.51-15.07Z"/>
    </g>
    <g id="_Radial_Repeat_-13" data-name="&amp;lt;Radial Repeat&amp;gt;">
      <path class="cls-3" d="M766.57,675.04s21.28-34.15,30.47-57.26c9.89-24.88,12.55-56.36,12.55-56.36l93.1,8.74c45.83,3.36,76.79,45.16,60.03,87.34l-17.93,45.12c-16.76,42.18-65.61,48.96-104.39,21.79l-73.82-49.36Z"/>
    </g>
    <g id="_Radial_Repeat_-14" data-name="&amp;lt;Radial Repeat&amp;gt;">
      <path class="cls-3" d="M671.89,768.79s33.34-22.54,51.13-39.92c19.15-18.71,34.39-46.39,34.39-46.39l81.5,45.85c40.5,21.71,51.79,72.49,19.32,104.2l-34.74,33.93c-32.47,31.72-79.85,18.04-104.23-22.56l-47.36-75.12Z"/>
    </g>
    <g id="_Radial_Repeat_-15" data-name="&amp;lt;Radial Repeat&amp;gt;">
      <path class="cls-3" d="M547.27,815.9s39.62-7.03,62.94-15.67c25.1-9.3,50.28-28.39,50.28-28.39l55.8,75.03c28.17,36.3,17.82,87.29-24.74,103.05l-45.53,16.87c-42.56,15.77-80.28-15.99-86.04-63l-12.71-87.89Z"/>
    </g>
  </g>
  <g>
    <path class="cls-1" d="M433.04,681.54s28.93,10.79,56.05,12.32c29.19,1.64,57.08-5.95,57.08-5.95l28.78,98.94c16.24,46.83-20.24,95.17-69.74,92.38l-52.95-2.98c-49.49-2.79-80.32-54.91-58.93-99.62l39.7-95.08Z"/>
    <path class="cls-1" d="M339.13,607.49s17.06,25.74,38.1,42.91c22.65,18.49,49.68,28.74,49.68,28.74l-34.87,96.96c-14.39,47.44-72.32,65.09-110.72,33.75l-41.08-33.53c-38.4-31.34-32.71-91.63,10.89-115.23l88.01-53.59Z"/>
    <path class="cls-1" d="M306.66,492.41s-1.32,30.85,5.6,57.11c7.46,28.27,23.3,52.45,23.3,52.45l-85.2,57.94c-39.52,29.92-96.76,10.16-109.41-37.78l-13.53-51.28c-12.64-47.93,27.4-93.36,76.54-86.83l102.7,8.38Z"/>
    <path class="cls-1" d="M348.04,380.22s-19.21,24.18-29.04,49.5c-10.58,27.25-11.98,56.12-11.98,56.12l-102.99-3.2c-49.56.97-84.25-48.66-66.31-94.87l19.2-49.44c17.94-46.21,77.04-59.42,112.96-25.26l78.16,67.14Z"/>
    <path class="cls-1" d="M447.47,313.77s-29.75,8.27-52.59,22.98c-24.58,15.83-42.68,38.36-42.68,38.36l-81.44-63.13c-40.67-28.34-39.56-88.89,2.12-115.73l44.59-28.71c41.68-26.84,97.26-2.79,106.23,45.96l23.77,100.26Z"/>
    <path class="cls-1" d="M566.97,318.46s-28.93-10.79-56.05-12.32c-29.19-1.64-57.08,5.95-57.08,5.95l-28.78-98.94c-16.24-46.83,20.24-95.17,69.74-92.38l52.95,2.98c49.49,2.79,80.32,54.91,58.93,99.62l-39.7,95.08Z"/>
    <path class="cls-1" d="M660.88,392.49s-17.06-25.74-38.1-42.91c-22.65-18.49-49.68-28.74-49.68-28.74l34.87-96.96c14.39-47.44,72.32-65.09,110.72-33.75l41.08,33.53c38.4,31.34,32.71,91.63-10.89,115.23l-88.01,53.59Z"/>
    <path class="cls-1" d="M693.34,507.59s1.32-30.85-5.6-57.11c-7.46-28.27-23.3-52.45-23.3-52.45l85.2-57.94c39.52-29.92,96.76-10.16,109.41,37.78l13.53,51.28c12.64,47.93-27.4,93.36-76.54,86.83l-102.7-8.38Z"/>
    <path class="cls-1" d="M651.96,619.78s19.21-24.18,29.04-49.5c10.58-27.25,11.98-56.12,11.98-56.12l102.99,3.2c49.56-.97,84.25,48.66,66.31,94.87l-19.2,49.44c-17.94,46.21-77.04,59.42-112.96,25.26l-78.16-67.14Z"/>
    <path class="cls-1" d="M552.53,686.22s29.75-8.27,52.59-22.98c24.58-15.83,42.68-38.36,42.68-38.36l81.44,63.13c40.67,28.34,39.56,88.89-2.12,115.73l-44.59,28.71c-41.68,26.84-97.26,2.79-106.23-45.96l-23.77-100.26Z"/>
  </g>
  <circle class="cls-2" cx="500" cy="500" r="195.21"/>
</svg>