<?xml version="1.0" encoding="UTF-8"?>
<svg id="Layer_1" data-name="Layer 1" xmlns="http://www.w3.org/2000/svg" viewBox="0 0 1000 1000">
  <defs>
    <style>
      .cls-1 {
        fill: #4a1d7a;
      }

      .cls-2 {
        fill: #311463;
      }

      .cls-3 {
        fill: #110c19;
      }

      .cls-4 {
        fill: #ffb10a;
      }

      .cls-5 {
        fill: #18003b;
      }

      .cls-6 {
        fill: #2b024d;
      }

      .cls-7 {
        fill: #ffad14;
      }
    </style>
  </defs>
  <g>
    <g>
      <g>
        <g>
          <path class="cls-7" d="M108.11,105.95c-9.42,9.42-31.91,16.64-41.34,7.21-9.42-9.42-2.21-31.91,7.21-41.34,9.42-9.42,24.7-9.42,34.12,0,9.42,9.42,9.42,24.7,0,34.12Z"/>
          <path class="cls-5" d="M79.43,119.86c-5.98,0-10.9-1.73-14.27-5.09-4.85-4.85-6.29-12.94-4.07-22.78,1.89-8.36,6.21-16.7,11.28-21.77,10.29-10.29,27.04-10.29,37.34,0,10.29,10.29,10.29,27.04,0,37.34-5.07,5.07-13.41,9.39-21.77,11.28-3.01.68-5.87,1.02-8.51,1.02ZM91.04,67.04c-5.6,0-11.19,2.13-15.46,6.39-4.43,4.43-8.38,12.11-10.06,19.56-1.84,8.14-.8,14.91,2.85,18.56,3.65,3.65,10.42,4.69,18.56,2.85,7.46-1.69,15.13-5.64,19.56-10.06,8.52-8.52,8.52-22.39,0-30.91-4.26-4.26-9.86-6.39-15.45-6.39Z"/>
        </g>
        <g>
          <path class="cls-7" d="M49.98,164.07c9.42-9.42,16.64-31.91,7.21-41.34-9.42-9.42-31.91-2.21-41.34,7.21-9.42,9.42-9.42,24.7,0,34.12,9.42,9.42,24.7,9.42,34.12,0Z"/>
          <path class="cls-5" d="M32.92,173.4c-6.76,0-13.52-2.57-18.67-7.72-4.99-4.99-7.73-11.62-7.73-18.67s2.75-13.68,7.73-18.67c5.07-5.07,13.41-9.39,21.77-11.28,9.84-2.22,17.93-.78,22.78,4.07,4.85,4.85,6.29,12.94,4.07,22.78-1.89,8.36-6.21,16.7-11.28,21.77-5.15,5.15-11.91,7.72-18.67,7.72ZM44.46,120.6c-2.29,0-4.79.29-7.43.89-7.46,1.68-15.13,5.64-19.56,10.06-4.13,4.13-6.4,9.62-6.4,15.45s2.27,11.33,6.4,15.46c8.52,8.52,22.39,8.52,30.91,0,4.43-4.43,8.38-12.11,10.06-19.56,1.84-8.14.8-14.91-2.85-18.56-2.47-2.47-6.36-3.74-11.13-3.74Z"/>
        </g>
        <g>
          <path class="cls-7" d="M73.98,164.07c-9.42-9.42-16.64-31.91-7.21-41.34,9.42-9.42,31.91-2.21,41.34,7.21,9.42,9.42,9.42,24.7,0,34.12s-24.7,9.42-34.12,0Z"/>
          <path class="cls-5" d="M91.04,173.4c-6.76,0-13.52-2.57-18.67-7.72s-9.39-13.41-11.28-21.77c-2.22-9.84-.78-17.93,4.07-22.78,4.85-4.85,12.94-6.29,22.78-4.07,8.36,1.89,16.7,6.21,21.77,11.28,4.99,4.99,7.73,11.62,7.73,18.67s-2.75,13.68-7.73,18.67c-5.15,5.15-11.91,7.72-18.67,7.72ZM79.5,120.6c-4.77,0-8.66,1.27-11.13,3.74-3.65,3.65-4.69,10.42-2.85,18.56,1.69,7.46,5.64,15.13,10.06,19.56,8.52,8.52,22.39,8.52,30.91,0,4.13-4.13,6.4-9.62,6.4-15.46s-2.27-11.33-6.4-15.45c-4.43-4.43-12.11-8.38-19.56-10.06-2.64-.6-5.14-.89-7.43-.89Z"/>
        </g>
        <g>
          <path class="cls-7" d="M15.86,105.95c9.42,9.42,31.91,16.64,41.34,7.21,9.42-9.42,2.21-31.91-7.21-41.34-9.42-9.42-24.7-9.42-34.12,0-9.42,9.42-9.42,24.7,0,34.12Z"/>
          <path class="cls-5" d="M44.54,119.86c-2.64,0-5.49-.34-8.51-1.02-8.36-1.89-16.7-6.21-21.77-11.28-10.29-10.29-10.29-27.04,0-37.34,10.29-10.29,27.04-10.29,37.34,0,5.07,5.07,9.39,13.41,11.28,21.77,2.22,9.84.78,17.93-4.07,22.78-3.36,3.36-8.28,5.09-14.27,5.09ZM32.92,67.04c-5.6,0-11.19,2.13-15.45,6.39-8.52,8.52-8.52,22.39,0,30.91,4.43,4.43,12.11,8.38,19.56,10.06,8.14,1.84,14.91.8,18.56-2.85,3.65-3.65,4.69-10.42,2.85-18.56-1.68-7.46-5.64-15.13-10.06-19.56-4.26-4.26-9.86-6.39-15.46-6.39Z"/>
        </g>
      </g>
      <g>
        <polygon class="cls-3" points="89.26 90.67 71.27 117.95 89.26 145.22 61.98 127.23 34.71 145.22 52.7 117.95 34.71 90.67 61.98 108.66 89.26 90.67"/>
        <path class="cls-5" d="M97.25,153.22l-35.27-23.26-35.27,23.26,23.26-35.27-23.26-35.27,35.27,23.26,35.27-23.26-23.26,35.27,23.26,35.27ZM61.98,124.51l19.28,12.72-12.72-19.28,12.72-19.28-19.28,12.72-19.28-12.72,12.72,19.28-12.72,19.28,19.28-12.72Z"/>
      </g>
      <g>
        <circle class="cls-2" cx="61.98" cy="117.95" r="24.13"/>
        <path class="cls-5" d="M61.98,144.01c-6.68,0-13.36-2.54-18.44-7.63-10.17-10.17-10.17-26.71,0-36.88,4.92-4.93,11.47-7.64,18.44-7.64s13.51,2.71,18.44,7.64c10.17,10.17,10.17,26.71,0,36.88h0c-5.08,5.08-11.76,7.63-18.44,7.63ZM61.98,95.77c-5.92,0-11.5,2.31-15.69,6.5-8.65,8.65-8.65,22.72,0,31.37,8.65,8.65,22.72,8.65,31.37,0,8.65-8.65,8.65-22.72,0-31.37-4.19-4.19-9.76-6.5-15.69-6.5Z"/>
      </g>
    </g>
    <g>
      <g>
        <g>
          <path class="cls-7" d="M217.8,105.95c-9.42,9.42-31.91,16.64-41.34,7.21-9.42-9.42-2.21-31.91,7.21-41.34,9.42-9.42,24.7-9.42,34.12,0,9.42,9.42,9.42,24.7,0,34.12Z"/>
          <path class="cls-5" d="M189.12,119.86c-5.98,0-10.9-1.73-14.27-5.09-4.85-4.85-6.29-12.94-4.07-22.78,1.89-8.36,6.21-16.7,11.28-21.77,10.29-10.29,27.04-10.29,37.34,0,10.29,10.29,10.29,27.04,0,37.34-5.07,5.07-13.41,9.39-21.77,11.28-3.01.68-5.87,1.02-8.51,1.02ZM200.74,67.04c-5.6,0-11.19,2.13-15.46,6.39-4.43,4.43-8.38,12.11-10.06,19.56-1.84,8.14-.8,14.91,2.85,18.56,3.65,3.65,10.42,4.69,18.56,2.85,7.46-1.69,15.13-5.64,19.56-10.06,8.52-8.52,8.52-22.39,0-30.91-4.26-4.26-9.86-6.39-15.45-6.39Z"/>
        </g>
        <g>
          <path class="cls-7" d="M159.68,164.07c9.42-9.42,16.64-31.91,7.21-41.34-9.42-9.42-31.91-2.21-41.34,7.21s-9.42,24.7,0,34.12c9.42,9.42,24.7,9.42,34.12,0Z"/>
          <path class="cls-5" d="M142.62,173.4c-6.76,0-13.52-2.57-18.67-7.72-4.99-4.99-7.73-11.62-7.73-18.67s2.75-13.68,7.73-18.67c5.07-5.07,13.41-9.39,21.77-11.28,9.84-2.22,17.93-.78,22.78,4.07,4.85,4.85,6.29,12.94,4.07,22.78-1.89,8.36-6.21,16.7-11.28,21.77-5.15,5.15-11.91,7.72-18.67,7.72ZM154.16,120.6c-2.29,0-4.79.29-7.43.89-7.46,1.68-15.13,5.64-19.56,10.06-4.13,4.13-6.4,9.62-6.4,15.45s2.27,11.33,6.4,15.46c8.52,8.52,22.39,8.52,30.91,0,4.43-4.43,8.38-12.11,10.06-19.56,1.84-8.14.8-14.91-2.85-18.56-2.47-2.47-6.36-3.74-11.13-3.74Z"/>
        </g>
        <g>
          <path class="cls-7" d="M183.68,164.07c-9.42-9.42-16.64-31.91-7.21-41.34,9.42-9.42,31.91-2.21,41.34,7.21s9.42,24.7,0,34.12c-9.42,9.42-24.7,9.42-34.12,0Z"/>
          <path class="cls-5" d="M200.74,173.4c-6.76,0-13.52-2.57-18.67-7.72s-9.39-13.41-11.28-21.77c-2.22-9.84-.78-17.93,4.07-22.78,4.85-4.85,12.94-6.29,22.78-4.07,8.36,1.89,16.7,6.21,21.77,11.28,4.99,4.99,7.73,11.62,7.73,18.67s-2.75,13.68-7.73,18.67c-5.15,5.15-11.91,7.72-18.67,7.72ZM189.2,120.6c-4.77,0-8.66,1.27-11.13,3.74-3.65,3.65-4.69,10.42-2.85,18.56,1.69,7.46,5.64,15.13,10.06,19.56,8.52,8.52,22.39,8.52,30.91,0,4.13-4.13,6.4-9.62,6.4-15.46s-2.27-11.33-6.4-15.45c-4.43-4.43-12.11-8.38-19.56-10.06-2.64-.6-5.14-.89-7.43-.89Z"/>
        </g>
        <g>
          <path class="cls-7" d="M125.56,105.95c9.42,9.42,31.91,16.64,41.34,7.21,9.42-9.42,2.21-31.91-7.21-41.34-9.42-9.42-24.7-9.42-34.12,0-9.42,9.42-9.42,24.7,0,34.12Z"/>
          <path class="cls-5" d="M154.23,119.86c-2.64,0-5.49-.34-8.51-1.02-8.36-1.89-16.7-6.21-21.77-11.28-10.29-10.29-10.29-27.04,0-37.34,10.29-10.29,27.04-10.29,37.34,0,5.07,5.07,9.39,13.41,11.28,21.77,2.22,9.84.78,17.93-4.07,22.78-3.36,3.36-8.28,5.09-14.27,5.09ZM142.62,67.04c-5.6,0-11.19,2.13-15.46,6.39-8.52,8.52-8.52,22.39,0,30.91,4.43,4.43,12.11,8.38,19.56,10.06,8.14,1.84,14.91.8,18.56-2.85,3.65-3.65,4.69-10.42,2.85-18.56-1.68-7.46-5.64-15.13-10.06-19.56-4.26-4.26-9.86-6.39-15.45-6.39Z"/>
        </g>
      </g>
      <g>
        <polygon class="cls-3" points="198.95 90.67 180.96 117.95 198.95 145.22 171.68 127.23 144.4 145.22 162.39 117.95 144.4 90.67 171.68 108.66 198.95 90.67"/>
        <path class="cls-5" d="M206.95,153.22l-35.27-23.26-35.27,23.26,23.26-35.27-23.26-35.27,35.27,23.26,35.27-23.26-23.26,35.27,23.26,35.27ZM171.68,124.51l19.28,12.72-12.72-19.28,12.72-19.28-19.28,12.72-19.28-12.72,12.72,19.28-12.72,19.28,19.28-12.72Z"/>
      </g>
      <g>
        <circle class="cls-2" cx="171.68" cy="117.95" r="24.13"/>
        <path class="cls-5" d="M171.68,144.01c-6.68,0-13.36-2.54-18.44-7.63-10.17-10.17-10.17-26.71,0-36.88,4.92-4.93,11.47-7.64,18.44-7.64s13.51,2.71,18.44,7.64c10.17,10.17,10.17,26.71,0,36.88h0c-5.08,5.08-11.76,7.63-18.44,7.63ZM171.68,95.77c-5.92,0-11.5,2.31-15.69,6.5-8.65,8.65-8.65,22.72,0,31.37,8.65,8.65,22.72,8.65,31.37,0,8.65-8.65,8.65-22.72,0-31.37-4.19-4.19-9.76-6.5-15.69-6.5Z"/>
      </g>
    </g>
    <g>
      <g>
        <g>
          <path class="cls-7" d="M327.49,105.95c-9.42,9.42-31.91,16.64-41.34,7.21-9.42-9.42-2.21-31.91,7.21-41.34s24.7-9.42,34.12,0,9.42,24.7,0,34.12Z"/>
          <path class="cls-5" d="M298.82,119.86c-5.98,0-10.9-1.73-14.27-5.09-4.85-4.85-6.29-12.94-4.07-22.78,1.89-8.36,6.21-16.7,11.28-21.77,10.29-10.29,27.04-10.29,37.34,0,10.29,10.29,10.29,27.04,0,37.34-5.07,5.07-13.41,9.39-21.77,11.28-3.01.68-5.87,1.02-8.51,1.02ZM310.43,67.04c-5.6,0-11.19,2.13-15.46,6.39-4.43,4.43-8.38,12.11-10.06,19.56-1.84,8.14-.8,14.91,2.85,18.56,3.65,3.65,10.42,4.69,18.56,2.85,7.46-1.69,15.13-5.64,19.56-10.06,8.52-8.52,8.52-22.39,0-30.91-4.26-4.26-9.86-6.39-15.45-6.39Z"/>
        </g>
        <g>
          <path class="cls-7" d="M269.37,164.07c9.42-9.42,16.64-31.91,7.21-41.34-9.42-9.42-31.91-2.21-41.34,7.21-9.42,9.42-9.42,24.7,0,34.12,9.42,9.42,24.7,9.42,34.12,0Z"/>
          <path class="cls-5" d="M252.31,173.41c-7.05,0-13.68-2.75-18.67-7.73-4.99-4.99-7.73-11.62-7.73-18.67s2.75-13.68,7.73-18.67c5.07-5.07,13.41-9.39,21.77-11.28,9.84-2.22,17.93-.78,22.78,4.07,4.85,4.85,6.29,12.94,4.07,22.78-1.89,8.36-6.21,16.7-11.28,21.77h0s0,0,0,0c-4.99,4.99-11.62,7.73-18.67,7.73ZM263.85,120.6c-2.29,0-4.79.29-7.43.89-7.46,1.68-15.13,5.64-19.56,10.06-4.13,4.13-6.4,9.62-6.4,15.45s2.27,11.33,6.4,15.46c4.13,4.13,9.62,6.4,15.46,6.4s11.33-2.27,15.45-6.4h0c4.43-4.43,8.38-12.11,10.06-19.56,1.84-8.14.8-14.91-2.85-18.56-2.47-2.47-6.36-3.74-11.13-3.74Z"/>
        </g>
        <g>
          <path class="cls-7" d="M293.37,164.07c-9.42-9.42-16.64-31.91-7.21-41.34s31.91-2.21,41.34,7.21c9.42,9.42,9.42,24.7,0,34.12-9.42,9.42-24.7,9.42-34.12,0Z"/>
          <path class="cls-5" d="M310.43,173.4c-6.76,0-13.52-2.57-18.67-7.72-5.07-5.07-9.39-13.41-11.28-21.77-2.22-9.84-.78-17.93,4.07-22.78,4.85-4.85,12.94-6.29,22.78-4.07,8.36,1.89,16.7,6.21,21.77,11.28,4.99,4.99,7.73,11.62,7.73,18.67s-2.75,13.68-7.73,18.67c-5.15,5.15-11.91,7.72-18.67,7.72ZM298.89,120.6c-4.77,0-8.66,1.27-11.13,3.74-3.65,3.65-4.69,10.42-2.85,18.56,1.69,7.46,5.64,15.13,10.06,19.56,8.52,8.52,22.39,8.52,30.91,0,4.13-4.13,6.4-9.62,6.4-15.46s-2.27-11.33-6.4-15.45c-4.43-4.43-12.11-8.38-19.56-10.06-2.64-.6-5.14-.89-7.43-.89Z"/>
        </g>
        <g>
          <path class="cls-7" d="M235.25,105.95c9.42,9.42,31.91,16.64,41.34,7.21,9.42-9.42,2.21-31.91-7.21-41.34-9.42-9.42-24.7-9.42-34.12,0-9.42,9.42-9.42,24.7,0,34.12Z"/>
          <path class="cls-5" d="M263.93,119.86c-2.64,0-5.49-.34-8.51-1.02-8.36-1.89-16.7-6.21-21.77-11.28-10.29-10.29-10.29-27.04,0-37.34,4.99-4.99,11.62-7.73,18.67-7.73s13.68,2.75,18.67,7.73c5.07,5.07,9.39,13.41,11.28,21.77,2.22,9.84.78,17.93-4.07,22.78-3.36,3.36-8.28,5.09-14.27,5.09ZM252.31,67.03c-5.84,0-11.33,2.27-15.46,6.4-8.52,8.52-8.52,22.39,0,30.91,4.43,4.43,12.11,8.38,19.56,10.06,8.14,1.84,14.91.8,18.56-2.85,3.65-3.65,4.69-10.42,2.85-18.56-1.68-7.46-5.64-15.13-10.06-19.56-4.13-4.13-9.62-6.4-15.45-6.4Z"/>
        </g>
      </g>
      <g>
        <polygon class="cls-3" points="308.65 90.67 290.66 117.95 308.65 145.22 281.37 127.23 254.1 145.22 272.09 117.95 254.1 90.67 281.37 108.66 308.65 90.67"/>
        <path class="cls-5" d="M316.64,153.22l-35.27-23.26-35.27,23.26,23.26-35.27-23.26-35.27,35.27,23.26,35.27-23.26-23.26,35.27,23.26,35.27ZM281.37,124.51l19.28,12.72-12.72-19.28,12.72-19.28-19.28,12.72-19.28-12.72,12.72,19.28-12.72,19.28,19.28-12.72Z"/>
      </g>
      <g>
        <circle class="cls-2" cx="281.37" cy="117.95" r="24.13"/>
        <path class="cls-5" d="M281.37,144.01c-6.68,0-13.36-2.54-18.44-7.63-10.17-10.17-10.17-26.71,0-36.88,4.92-4.93,11.47-7.64,18.44-7.64s13.51,2.71,18.44,7.64c10.17,10.17,10.17,26.71,0,36.88h0c-5.08,5.08-11.76,7.63-18.44,7.63ZM281.37,95.77c-5.92,0-11.5,2.31-15.69,6.5-8.65,8.65-8.65,22.72,0,31.37,8.65,8.65,22.72,8.65,31.37,0,8.65-8.65,8.65-22.72,0-31.37-4.19-4.19-9.76-6.5-15.69-6.5Z"/>
      </g>
    </g>
    <g>
      <g>
        <g>
          <path class="cls-7" d="M437.19,105.95c-9.42,9.42-31.91,16.64-41.34,7.21-9.42-9.42-2.21-31.91,7.21-41.34,9.42-9.42,24.7-9.42,34.12,0,9.42,9.42,9.42,24.7,0,34.12Z"/>
          <path class="cls-5" d="M408.51,119.86c-5.98,0-10.9-1.73-14.27-5.09-4.85-4.85-6.29-12.94-4.07-22.78,1.89-8.36,6.21-16.7,11.28-21.77,10.29-10.29,27.04-10.29,37.34,0,10.29,10.29,10.29,27.04,0,37.34-5.07,5.07-13.41,9.39-21.77,11.28-3.01.68-5.87,1.02-8.51,1.02ZM420.13,67.04c-5.6,0-11.19,2.13-15.46,6.39-4.43,4.43-8.38,12.11-10.06,19.56-1.84,8.14-.8,14.91,2.85,18.56,3.65,3.65,10.42,4.69,18.56,2.85,7.46-1.69,15.13-5.64,19.56-10.06,8.52-8.52,8.52-22.39,0-30.91-4.26-4.26-9.86-6.39-15.45-6.39Z"/>
        </g>
        <g>
          <path class="cls-7" d="M379.07,164.07c9.42-9.42,16.64-31.91,7.21-41.34-9.42-9.42-31.91-2.21-41.34,7.21-9.42,9.42-9.42,24.7,0,34.12,9.42,9.42,24.7,9.42,34.12,0Z"/>
          <path class="cls-5" d="M362.01,173.41c-7.05,0-13.68-2.75-18.67-7.73-4.99-4.99-7.73-11.62-7.73-18.67s2.75-13.68,7.73-18.67c5.07-5.07,13.41-9.39,21.77-11.28,9.84-2.22,17.93-.78,22.78,4.07,4.85,4.85,6.29,12.94,4.07,22.78-1.89,8.36-6.21,16.7-11.28,21.77h0s0,0,0,0c-4.99,4.99-11.62,7.73-18.67,7.73ZM373.55,120.6c-2.29,0-4.79.29-7.43.89-7.46,1.68-15.13,5.64-19.56,10.06-4.13,4.13-6.4,9.62-6.4,15.45s2.27,11.33,6.4,15.46c4.13,4.13,9.62,6.4,15.46,6.4s11.33-2.27,15.45-6.4h0c4.43-4.43,8.38-12.11,10.06-19.56,1.84-8.14.8-14.91-2.85-18.56-2.47-2.47-6.36-3.74-11.13-3.74Z"/>
        </g>
        <g>
          <path class="cls-7" d="M403.07,164.07c-9.42-9.42-16.64-31.91-7.21-41.34,9.42-9.42,31.91-2.21,41.34,7.21,9.42,9.42,9.42,24.7,0,34.12-9.42,9.42-24.7,9.42-34.12,0Z"/>
          <path class="cls-5" d="M420.13,173.4c-6.76,0-13.52-2.57-18.67-7.72s-9.39-13.41-11.28-21.77c-2.22-9.84-.78-17.93,4.07-22.78,4.85-4.85,12.94-6.29,22.78-4.07,8.36,1.89,16.7,6.21,21.77,11.28,4.99,4.99,7.73,11.62,7.73,18.67s-2.75,13.68-7.73,18.67c-5.15,5.15-11.91,7.72-18.67,7.72ZM408.59,120.6c-4.77,0-8.66,1.27-11.13,3.74-3.65,3.65-4.69,10.42-2.85,18.56,1.69,7.46,5.64,15.13,10.06,19.56,8.52,8.52,22.39,8.52,30.91,0,4.13-4.13,6.4-9.62,6.4-15.46s-2.27-11.33-6.4-15.45c-4.43-4.43-12.11-8.38-19.56-10.06-2.64-.6-5.14-.89-7.43-.89Z"/>
        </g>
        <g>
          <path class="cls-7" d="M344.94,105.95c9.42,9.42,31.91,16.64,41.34,7.21,9.42-9.42,2.21-31.91-7.21-41.34-9.42-9.42-24.7-9.42-34.12,0-9.42,9.42-9.42,24.7,0,34.12Z"/>
          <path class="cls-5" d="M373.62,119.86c-2.64,0-5.49-.34-8.51-1.02-8.36-1.89-16.7-6.21-21.77-11.28-10.29-10.29-10.29-27.04,0-37.34,4.99-4.99,11.62-7.73,18.67-7.73s13.68,2.75,18.67,7.73c5.07,5.07,9.39,13.41,11.28,21.77,2.22,9.84.78,17.93-4.07,22.78-3.36,3.36-8.28,5.09-14.27,5.09ZM362.01,67.03c-5.84,0-11.33,2.27-15.46,6.4-8.52,8.52-8.52,22.39,0,30.91,4.43,4.43,12.11,8.38,19.56,10.06,8.14,1.84,14.91.8,18.56-2.85,3.65-3.65,4.69-10.42,2.85-18.56-1.68-7.46-5.64-15.13-10.06-19.56-4.13-4.13-9.62-6.4-15.45-6.4Z"/>
        </g>
      </g>
      <g>
        <polygon class="cls-3" points="418.34 90.67 400.35 117.95 418.34 145.22 391.07 127.23 363.79 145.22 381.78 117.95 363.79 90.67 391.07 108.66 418.34 90.67"/>
        <path class="cls-5" d="M426.33,153.22l-35.27-23.26-35.27,23.26,23.26-35.27-23.26-35.27,35.27,23.26,35.27-23.26-23.26,35.27,23.26,35.27ZM391.07,124.51l19.28,12.72-12.72-19.28,12.72-19.28-19.28,12.72-19.28-12.72,12.72,19.28-12.72,19.28,19.28-12.72Z"/>
      </g>
      <g>
        <circle class="cls-2" cx="391.07" cy="117.95" r="24.13"/>
        <path class="cls-5" d="M391.07,144.01c-6.68,0-13.36-2.54-18.44-7.63-10.17-10.17-10.17-26.71,0-36.88,4.92-4.93,11.47-7.64,18.44-7.64s13.51,2.71,18.44,7.64c10.17,10.17,10.17,26.71,0,36.88h0c-5.08,5.08-11.76,7.63-18.44,7.63ZM391.07,95.77c-5.92,0-11.5,2.31-15.69,6.5-8.65,8.65-8.65,22.72,0,31.37,8.65,8.65,22.72,8.65,31.37,0,8.65-8.65,8.65-22.72,0-31.37-4.19-4.19-9.76-6.5-15.69-6.5Z"/>
      </g>
    </g>
    <g>
      <g>
        <g>
          <path class="cls-7" d="M546.88,105.95c-9.42,9.42-31.91,16.64-41.34,7.21-9.42-9.42-2.21-31.91,7.21-41.34,9.42-9.42,24.7-9.42,34.12,0,9.42,9.42,9.42,24.7,0,34.12Z"/>
          <path class="cls-5" d="M518.21,119.86c-5.98,0-10.9-1.73-14.27-5.09-4.85-4.85-6.29-12.94-4.07-22.78,1.89-8.36,6.21-16.7,11.28-21.77,10.29-10.29,27.04-10.29,37.34,0,10.29,10.29,10.29,27.04,0,37.34-5.07,5.07-13.41,9.39-21.77,11.28-3.01.68-5.87,1.02-8.51,1.02ZM529.82,67.04c-5.6,0-11.19,2.13-15.46,6.39-4.43,4.43-8.38,12.11-10.06,19.56-1.84,8.14-.8,14.91,2.85,18.56,3.65,3.65,10.42,4.69,18.56,2.85,7.46-1.69,15.13-5.64,19.56-10.06,8.52-8.52,8.52-22.39,0-30.91-4.26-4.26-9.86-6.39-15.45-6.39Z"/>
        </g>
        <g>
          <path class="cls-7" d="M488.76,164.07c9.42-9.42,16.64-31.91,7.21-41.34-9.42-9.42-31.91-2.21-41.34,7.21-9.42,9.42-9.42,24.7,0,34.12,9.42,9.42,24.7,9.42,34.12,0Z"/>
          <path class="cls-5" d="M471.7,173.41c-7.05,0-13.68-2.75-18.67-7.73-4.99-4.99-7.73-11.62-7.73-18.67s2.75-13.68,7.73-18.67c5.07-5.07,13.41-9.39,21.77-11.28,9.84-2.22,17.93-.78,22.78,4.07,4.85,4.85,6.29,12.94,4.07,22.78-1.89,8.36-6.21,16.7-11.28,21.77h0s0,0,0,0c-4.99,4.99-11.62,7.73-18.67,7.73ZM483.24,120.6c-2.29,0-4.79.29-7.43.89-7.46,1.68-15.13,5.64-19.56,10.06-4.13,4.13-6.4,9.62-6.4,15.45s2.27,11.33,6.4,15.46c4.13,4.13,9.62,6.4,15.46,6.4s11.33-2.27,15.45-6.4h0c4.43-4.43,8.38-12.11,10.06-19.56,1.84-8.14.8-14.91-2.85-18.56-2.47-2.47-6.36-3.74-11.13-3.74Z"/>
        </g>
        <g>
          <path class="cls-7" d="M512.76,164.07c-9.42-9.42-16.64-31.91-7.21-41.34,9.42-9.42,31.91-2.21,41.34,7.21,9.42,9.42,9.42,24.7,0,34.12-9.42,9.42-24.7,9.42-34.12,0Z"/>
          <path class="cls-5" d="M529.82,173.4c-6.76,0-13.52-2.57-18.67-7.72-5.07-5.07-9.39-13.41-11.28-21.77-2.22-9.84-.78-17.93,4.07-22.78,4.85-4.85,12.94-6.29,22.78-4.07,8.36,1.89,16.7,6.21,21.77,11.28,4.99,4.99,7.73,11.62,7.73,18.67s-2.75,13.68-7.73,18.67c-5.15,5.15-11.91,7.72-18.67,7.72ZM518.28,120.6c-4.77,0-8.66,1.27-11.13,3.74-3.65,3.65-4.69,10.42-2.85,18.56,1.69,7.46,5.64,15.13,10.06,19.56,8.52,8.52,22.39,8.52,30.91,0,4.13-4.13,6.4-9.62,6.4-15.46s-2.27-11.33-6.4-15.45c-4.43-4.43-12.11-8.38-19.56-10.06-2.64-.6-5.14-.89-7.43-.89Z"/>
        </g>
        <g>
          <path class="cls-7" d="M454.64,105.95c9.42,9.42,31.91,16.64,41.34,7.21,9.42-9.42,2.21-31.91-7.21-41.34-9.42-9.42-24.7-9.42-34.12,0-9.42,9.42-9.42,24.7,0,34.12Z"/>
          <path class="cls-5" d="M483.32,119.86c-2.64,0-5.49-.34-8.51-1.02-8.36-1.89-16.7-6.21-21.77-11.28-10.29-10.29-10.29-27.04,0-37.34,4.99-4.99,11.62-7.73,18.67-7.73s13.68,2.75,18.67,7.73c5.07,5.07,9.39,13.41,11.28,21.77,2.22,9.84.78,17.93-4.07,22.78-3.36,3.36-8.28,5.09-14.27,5.09ZM471.7,67.03c-5.84,0-11.33,2.27-15.46,6.4-8.52,8.52-8.52,22.39,0,30.91,4.43,4.43,12.11,8.38,19.56,10.06,8.14,1.84,14.91.8,18.56-2.85,3.65-3.65,4.69-10.42,2.85-18.56-1.68-7.46-5.64-15.13-10.06-19.56-4.13-4.13-9.62-6.4-15.45-6.4Z"/>
        </g>
      </g>
      <g>
        <polygon class="cls-3" points="528.04 90.67 510.05 117.95 528.04 145.22 500.76 127.23 473.49 145.22 491.47 117.95 473.49 90.67 500.76 108.66 528.04 90.67"/>
        <path class="cls-5" d="M536.03,153.22l-35.27-23.26-35.27,23.26,23.26-35.27-23.26-35.27,35.27,23.26,35.27-23.26-23.26,35.27,23.26,35.27ZM500.76,124.51l19.28,12.72-12.72-19.28,12.72-19.28-19.28,12.72-19.28-12.72,12.72,19.28-12.72,19.28,19.28-12.72Z"/>
      </g>
      <g>
        <circle class="cls-2" cx="500.76" cy="117.95" r="24.13"/>
        <path class="cls-5" d="M500.76,144.01c-6.68,0-13.36-2.54-18.44-7.63-10.17-10.17-10.17-26.71,0-36.88,4.92-4.93,11.47-7.64,18.44-7.64s13.51,2.71,18.44,7.64c10.17,10.17,10.17,26.71,0,36.88h0c-5.08,5.08-11.76,7.63-18.44,7.63ZM500.76,95.77c-5.92,0-11.5,2.31-15.69,6.5-8.65,8.65-8.65,22.72,0,31.37,8.65,8.65,22.72,8.65,31.37,0,8.65-8.65,8.65-22.72,0-31.37-4.19-4.19-9.76-6.5-15.69-6.5Z"/>
      </g>
    </g>
    <g>
      <g>
        <g>
          <path class="cls-7" d="M656.58,105.95c-9.42,9.42-31.91,16.64-41.34,7.21-9.42-9.42-2.21-31.91,7.21-41.34s24.7-9.42,34.12,0c9.42,9.42,9.42,24.7,0,34.12Z"/>
          <path class="cls-5" d="M627.9,119.86c-5.98,0-10.9-1.73-14.27-5.09-4.85-4.85-6.29-12.94-4.07-22.78,1.89-8.36,6.21-16.7,11.28-21.77,10.29-10.29,27.04-10.29,37.34,0,10.29,10.29,10.29,27.04,0,37.34-5.07,5.07-13.41,9.39-21.77,11.28-3.01.68-5.87,1.02-8.51,1.02ZM639.52,67.04c-5.6,0-11.19,2.13-15.46,6.39-4.43,4.43-8.38,12.11-10.06,19.56-1.84,8.14-.8,14.91,2.85,18.56,3.65,3.65,10.42,4.69,18.56,2.85,7.46-1.69,15.13-5.64,19.56-10.06,8.52-8.52,8.52-22.39,0-30.91-4.26-4.26-9.86-6.39-15.45-6.39Z"/>
        </g>
        <g>
          <path class="cls-7" d="M598.46,164.07c9.42-9.42,16.64-31.91,7.21-41.34-9.42-9.42-31.91-2.21-41.34,7.21s-9.42,24.7,0,34.12c9.42,9.42,24.7,9.42,34.12,0Z"/>
          <path class="cls-5" d="M581.39,173.41c-7.05,0-13.68-2.75-18.67-7.73-4.99-4.99-7.73-11.62-7.73-18.67s2.75-13.68,7.73-18.67c5.07-5.07,13.41-9.39,21.77-11.28,9.84-2.22,17.93-.78,22.78,4.07,4.85,4.85,6.29,12.94,4.07,22.78-1.89,8.36-6.21,16.7-11.28,21.77h0s0,0,0,0c-4.99,4.99-11.62,7.73-18.67,7.73ZM592.93,120.6c-2.29,0-4.79.29-7.43.89-7.46,1.68-15.13,5.64-19.56,10.06-4.13,4.13-6.4,9.62-6.4,15.45s2.27,11.33,6.4,15.46c4.13,4.13,9.62,6.4,15.46,6.4s11.33-2.27,15.45-6.4h0c4.43-4.43,8.38-12.11,10.06-19.56,1.84-8.14.8-14.91-2.85-18.56-2.47-2.47-6.36-3.74-11.13-3.74Z"/>
        </g>
        <g>
          <path class="cls-7" d="M622.45,164.07c-9.42-9.42-16.64-31.91-7.21-41.34,9.42-9.42,31.91-2.21,41.34,7.21,9.42,9.42,9.42,24.7,0,34.12-9.42,9.42-24.7,9.42-34.12,0Z"/>
          <path class="cls-5" d="M639.52,173.4c-6.76,0-13.52-2.57-18.67-7.72-5.07-5.07-9.39-13.41-11.28-21.77-2.22-9.84-.78-17.93,4.07-22.78,4.85-4.85,12.94-6.29,22.78-4.07,8.36,1.89,16.7,6.21,21.77,11.28,4.99,4.99,7.73,11.62,7.73,18.67s-2.75,13.68-7.73,18.67c-5.15,5.15-11.91,7.72-18.67,7.72ZM627.98,120.6c-4.77,0-8.66,1.27-11.13,3.74-3.65,3.65-4.69,10.42-2.85,18.56,1.69,7.46,5.64,15.13,10.06,19.56,8.52,8.52,22.39,8.52,30.91,0,4.13-4.13,6.4-9.62,6.4-15.46s-2.27-11.33-6.4-15.45c-4.43-4.43-12.11-8.38-19.56-10.06-2.64-.6-5.14-.89-7.43-.89Z"/>
        </g>
        <g>
          <path class="cls-7" d="M564.33,105.95c9.42,9.42,31.91,16.64,41.34,7.21,9.42-9.42,2.21-31.91-7.21-41.34-9.42-9.42-24.7-9.42-34.12,0s-9.42,24.7,0,34.12Z"/>
          <path class="cls-5" d="M593.01,119.86c-2.64,0-5.49-.34-8.51-1.02-8.36-1.89-16.7-6.21-21.77-11.28-10.29-10.29-10.29-27.04,0-37.34,4.99-4.99,11.62-7.73,18.67-7.73s13.68,2.75,18.67,7.73c5.07,5.07,9.39,13.41,11.28,21.77,2.22,9.84.78,17.93-4.07,22.78-3.36,3.36-8.28,5.09-14.27,5.09ZM581.39,67.03c-5.84,0-11.33,2.27-15.46,6.4-8.52,8.52-8.52,22.39,0,30.91,4.43,4.43,12.11,8.38,19.56,10.06,8.14,1.84,14.91.8,18.56-2.85,3.65-3.65,4.69-10.42,2.85-18.56-1.68-7.46-5.64-15.13-10.06-19.56-4.13-4.13-9.62-6.4-15.45-6.4Z"/>
        </g>
      </g>
      <g>
        <polygon class="cls-3" points="637.73 90.67 619.74 117.95 637.73 145.22 610.46 127.23 583.18 145.22 601.17 117.95 583.18 90.67 610.46 108.66 637.73 90.67"/>
        <path class="cls-5" d="M645.72,153.22l-35.27-23.26-35.27,23.26,23.26-35.27-23.26-35.27,35.27,23.26,35.27-23.26-23.26,35.27,23.26,35.27ZM610.46,124.51l19.28,12.72-12.72-19.28,12.72-19.28-19.28,12.72-19.28-12.72,12.72,19.28-12.72,19.28,19.28-12.72Z"/>
      </g>
      <g>
        <circle class="cls-2" cx="610.46" cy="117.95" r="24.13"/>
        <path class="cls-5" d="M610.46,144.01c-6.68,0-13.36-2.54-18.44-7.63-10.17-10.17-10.17-26.71,0-36.88,4.92-4.93,11.47-7.64,18.44-7.64s13.51,2.71,18.44,7.64c10.17,10.17,10.17,26.71,0,36.88h0c-5.08,5.08-11.76,7.63-18.44,7.63ZM610.46,95.77c-5.92,0-11.5,2.31-15.69,6.5-8.65,8.65-8.65,22.72,0,31.37,8.65,8.65,22.72,8.65,31.37,0,8.65-8.65,8.65-22.72,0-31.37-4.19-4.19-9.76-6.5-15.69-6.5Z"/>
      </g>
    </g>
    <g>
      <g>
        <g>
          <path class="cls-7" d="M766.27,105.95c-9.42,9.42-31.91,16.64-41.34,7.21-9.42-9.42-2.21-31.91,7.21-41.34,9.42-9.42,24.7-9.42,34.12,0,9.42,9.42,9.42,24.7,0,34.12Z"/>
          <path class="cls-5" d="M737.6,119.86c-5.98,0-10.9-1.73-14.27-5.09-4.85-4.85-6.29-12.94-4.07-22.78,1.89-8.36,6.21-16.7,11.28-21.77,10.29-10.29,27.04-10.29,37.34,0,10.29,10.29,10.29,27.04,0,37.34-5.07,5.07-13.41,9.39-21.77,11.28-3.01.68-5.87,1.02-8.51,1.02ZM749.21,67.04c-5.6,0-11.19,2.13-15.46,6.39-4.43,4.43-8.38,12.11-10.06,19.56-1.84,8.14-.8,14.91,2.85,18.56,3.65,3.65,10.42,4.69,18.56,2.85,7.46-1.69,15.13-5.64,19.56-10.06,8.52-8.52,8.52-22.39,0-30.91-4.26-4.26-9.86-6.39-15.45-6.39Z"/>
        </g>
        <g>
          <path class="cls-7" d="M708.15,164.07c9.42-9.42,16.64-31.91,7.21-41.34-9.42-9.42-31.91-2.21-41.34,7.21-9.42,9.42-9.42,24.7,0,34.12,9.42,9.42,24.7,9.42,34.12,0Z"/>
          <path class="cls-5" d="M691.09,173.41c-7.05,0-13.68-2.75-18.67-7.73-4.99-4.99-7.73-11.62-7.73-18.67s2.75-13.68,7.73-18.67c5.07-5.07,13.41-9.39,21.77-11.28,9.84-2.22,17.93-.78,22.78,4.07,4.85,4.85,6.29,12.94,4.07,22.78-1.89,8.36-6.21,16.7-11.28,21.77h0s0,0,0,0c-4.99,4.99-11.62,7.73-18.67,7.73ZM702.63,120.6c-2.29,0-4.79.29-7.43.89-7.46,1.68-15.13,5.64-19.56,10.06-4.13,4.13-6.4,9.62-6.4,15.45s2.27,11.33,6.4,15.46c4.13,4.13,9.62,6.4,15.46,6.4s11.33-2.27,15.45-6.4h0c4.43-4.43,8.38-12.11,10.06-19.56,1.84-8.14.8-14.91-2.85-18.56-2.47-2.47-6.36-3.74-11.13-3.74Z"/>
        </g>
        <g>
          <path class="cls-7" d="M732.15,164.07c-9.42-9.42-16.64-31.91-7.21-41.34,9.42-9.42,31.91-2.21,41.34,7.21,9.42,9.42,9.42,24.7,0,34.12-9.42,9.42-24.7,9.42-34.12,0Z"/>
          <path class="cls-5" d="M749.21,173.4c-6.76,0-13.52-2.57-18.67-7.72-5.07-5.07-9.39-13.41-11.28-21.77-2.22-9.84-.78-17.93,4.07-22.78,4.85-4.85,12.94-6.29,22.78-4.07,8.36,1.89,16.7,6.21,21.77,11.28,4.99,4.99,7.73,11.62,7.73,18.67s-2.75,13.68-7.73,18.67c-5.15,5.15-11.91,7.72-18.67,7.72ZM737.67,120.6c-4.77,0-8.66,1.27-11.13,3.74-3.65,3.65-4.69,10.42-2.85,18.56,1.69,7.46,5.64,15.13,10.06,19.56,8.52,8.52,22.39,8.52,30.91,0,4.13-4.13,6.4-9.62,6.4-15.46s-2.27-11.33-6.4-15.45c-4.43-4.43-12.11-8.38-19.56-10.06-2.64-.6-5.14-.89-7.43-.89Z"/>
        </g>
        <g>
          <path class="cls-7" d="M674.03,105.95c9.42,9.42,31.91,16.64,41.34,7.21,9.42-9.42,2.21-31.91-7.21-41.34-9.42-9.42-24.7-9.42-34.12,0-9.42,9.42-9.42,24.7,0,34.12Z"/>
          <path class="cls-5" d="M702.7,119.86c-2.64,0-5.49-.34-8.51-1.02-8.36-1.89-16.7-6.21-21.77-11.28-10.29-10.29-10.29-27.04,0-37.34,4.99-4.99,11.62-7.73,18.67-7.73s13.68,2.75,18.67,7.73c5.07,5.07,9.39,13.41,11.28,21.77,2.22,9.84.78,17.93-4.07,22.78-3.36,3.36-8.28,5.09-14.27,5.09ZM691.09,67.03c-5.84,0-11.33,2.27-15.46,6.4-8.52,8.52-8.52,22.39,0,30.91,4.43,4.43,12.11,8.38,19.56,10.06,8.14,1.84,14.91.8,18.56-2.85,3.65-3.65,4.69-10.42,2.85-18.56-1.68-7.46-5.64-15.13-10.06-19.56-4.13-4.13-9.62-6.4-15.45-6.4Z"/>
        </g>
      </g>
      <g>
        <polygon class="cls-3" points="747.42 90.67 729.44 117.95 747.42 145.22 720.15 127.23 692.87 145.22 710.86 117.95 692.87 90.67 720.15 108.66 747.42 90.67"/>
        <path class="cls-5" d="M755.42,153.22l-35.27-23.26-35.27,23.26,23.26-35.27-23.26-35.27,35.27,23.26,35.27-23.26-23.26,35.27,23.26,35.27ZM720.15,124.51l19.28,12.72-12.72-19.28,12.72-19.28-19.28,12.72-19.28-12.72,12.72,19.28-12.72,19.28,19.28-12.72Z"/>
      </g>
      <g>
        <circle class="cls-2" cx="720.15" cy="117.95" r="24.13"/>
        <path class="cls-5" d="M720.15,144.01c-6.68,0-13.35-2.54-18.44-7.63-10.17-10.17-10.17-26.71,0-36.88,4.92-4.93,11.47-7.64,18.44-7.64s13.51,2.71,18.44,7.64c10.17,10.17,10.17,26.71,0,36.88h0c-5.08,5.08-11.76,7.63-18.44,7.63ZM720.15,95.77c-5.92,0-11.49,2.31-15.68,6.5-8.65,8.65-8.65,22.72,0,31.37,8.65,8.65,22.72,8.65,31.37,0,8.65-8.65,8.65-22.72,0-31.37-4.19-4.19-9.76-6.5-15.69-6.5Z"/>
      </g>
    </g>
    <g>
      <g>
        <g>
          <path class="cls-7" d="M875.97,105.95c-9.42,9.42-31.91,16.64-41.34,7.21-9.42-9.42-2.21-31.91,7.21-41.34s24.7-9.42,34.12,0c9.42,9.42,9.42,24.7,0,34.12Z"/>
          <path class="cls-5" d="M847.29,119.86c-5.98,0-10.9-1.73-14.27-5.09-4.85-4.85-6.29-12.94-4.07-22.78,1.89-8.36,6.21-16.7,11.28-21.77,10.29-10.29,27.04-10.29,37.34,0,10.29,10.29,10.29,27.04,0,37.34-5.07,5.07-13.41,9.39-21.77,11.28-3.01.68-5.87,1.02-8.51,1.02ZM858.9,67.04c-5.6,0-11.19,2.13-15.46,6.39-4.43,4.43-8.38,12.11-10.06,19.56-1.84,8.14-.8,14.91,2.85,18.56,3.65,3.65,10.42,4.69,18.56,2.85,7.46-1.69,15.13-5.64,19.56-10.06,8.52-8.52,8.52-22.39,0-30.91-4.26-4.26-9.86-6.39-15.45-6.39Z"/>
        </g>
        <g>
          <path class="cls-7" d="M817.85,164.07c9.42-9.42,16.64-31.91,7.21-41.34s-31.91-2.21-41.34,7.21c-9.42,9.42-9.42,24.7,0,34.12,9.42,9.42,24.7,9.42,34.12,0Z"/>
          <path class="cls-5" d="M800.78,173.4c-6.76,0-13.52-2.57-18.67-7.72-4.99-4.99-7.73-11.62-7.73-18.67s2.75-13.68,7.73-18.67c5.07-5.07,13.41-9.39,21.77-11.28,9.84-2.22,17.93-.78,22.78,4.07,4.85,4.85,6.29,12.94,4.07,22.78-1.89,8.36-6.21,16.7-11.28,21.77h0c-5.15,5.15-11.91,7.72-18.67,7.72ZM812.32,120.6c-2.29,0-4.79.29-7.43.89-7.46,1.68-15.13,5.64-19.56,10.06-4.13,4.13-6.4,9.62-6.4,15.45s2.27,11.33,6.4,15.46c4.13,4.13,9.62,6.4,15.46,6.4s11.33-2.27,15.46-6.4h0c4.43-4.43,8.38-12.11,10.06-19.56,1.84-8.14.8-14.91-2.85-18.56-2.47-2.47-6.36-3.74-11.13-3.74Z"/>
        </g>
        <g>
          <path class="cls-7" d="M841.84,164.07c-9.42-9.42-16.64-31.91-7.21-41.34,9.42-9.42,31.91-2.21,41.34,7.21s9.42,24.7,0,34.12c-9.42,9.42-24.7,9.42-34.12,0Z"/>
          <path class="cls-5" d="M858.9,173.4c-6.76,0-13.52-2.57-18.67-7.72-5.07-5.07-9.39-13.41-11.28-21.77-2.22-9.84-.78-17.93,4.07-22.78,4.85-4.85,12.94-6.29,22.78-4.07,8.36,1.89,16.7,6.21,21.77,11.28,4.99,4.99,7.73,11.62,7.73,18.67s-2.75,13.68-7.73,18.67c-5.15,5.15-11.91,7.72-18.67,7.72ZM847.36,120.6c-4.77,0-8.66,1.27-11.13,3.74-3.65,3.65-4.69,10.42-2.85,18.56,1.69,7.46,5.64,15.13,10.06,19.56,8.52,8.52,22.39,8.52,30.91,0,4.13-4.13,6.4-9.62,6.4-15.46s-2.27-11.33-6.4-15.45c-4.43-4.43-12.11-8.38-19.56-10.06-2.64-.6-5.14-.89-7.43-.89Z"/>
        </g>
        <g>
          <path class="cls-7" d="M783.72,105.95c9.42,9.42,31.91,16.64,41.34,7.21,9.42-9.42,2.21-31.91-7.21-41.34-9.42-9.42-24.7-9.42-34.12,0s-9.42,24.7,0,34.12Z"/>
          <path class="cls-5" d="M812.4,119.86c-2.64,0-5.49-.34-8.51-1.02-8.36-1.89-16.7-6.21-21.77-11.28-10.29-10.29-10.29-27.04,0-37.34,10.29-10.29,27.04-10.29,37.34,0,5.07,5.07,9.39,13.41,11.28,21.77,2.22,9.84.78,17.93-4.07,22.78-3.36,3.36-8.28,5.09-14.27,5.09ZM800.78,67.04c-5.6,0-11.19,2.13-15.46,6.39-8.52,8.52-8.52,22.39,0,30.91,4.43,4.43,12.11,8.38,19.56,10.06,8.14,1.84,14.91.8,18.56-2.85,3.65-3.65,4.69-10.42,2.85-18.56-1.69-7.46-5.64-15.13-10.06-19.56-4.26-4.26-9.86-6.39-15.46-6.39Z"/>
        </g>
      </g>
      <g>
        <polygon class="cls-3" points="857.12 90.67 839.13 117.95 857.12 145.22 829.84 127.23 802.57 145.22 820.56 117.95 802.57 90.67 829.84 108.66 857.12 90.67"/>
        <path class="cls-5" d="M865.11,153.22l-35.27-23.26-35.27,23.26,23.26-35.27-23.26-35.27,35.27,23.26,35.27-23.26-23.26,35.27,23.26,35.27ZM810.56,98.67l12.72,19.28-12.72,19.28,19.28-12.72,19.28,12.72-12.72-19.28,12.72-19.28-19.28,12.72-19.28-12.72Z"/>
      </g>
      <g>
        <circle class="cls-2" cx="829.84" cy="117.95" r="24.13"/>
        <path class="cls-5" d="M829.84,144.01c-6.68,0-13.35-2.54-18.44-7.63-10.17-10.17-10.17-26.71,0-36.88,4.92-4.93,11.47-7.64,18.44-7.64s13.51,2.71,18.44,7.64c10.17,10.17,10.17,26.71,0,36.88h0c-5.08,5.08-11.76,7.63-18.44,7.63ZM829.84,95.77c-5.92,0-11.49,2.31-15.68,6.5-8.65,8.65-8.65,22.72,0,31.37,8.65,8.65,22.72,8.65,31.37,0,8.65-8.65,8.65-22.72,0-31.37-4.19-4.19-9.76-6.5-15.69-6.5Z"/>
      </g>
    </g>
    <g>
      <g>
        <g>
          <path class="cls-7" d="M985.66,105.95c-9.42,9.42-31.91,16.64-41.34,7.21-9.42-9.42-2.21-31.91,7.21-41.34,9.42-9.42,24.7-9.42,34.12,0,9.42,9.42,9.42,24.7,0,34.12Z"/>
          <path class="cls-5" d="M956.98,119.86c-5.98,0-10.9-1.73-14.27-5.09-4.85-4.85-6.29-12.94-4.07-22.78,1.89-8.36,6.21-16.7,11.28-21.77,10.29-10.29,27.04-10.29,37.34,0,10.29,10.29,10.29,27.04,0,37.34-5.07,5.07-13.41,9.39-21.77,11.28-3.01.68-5.87,1.02-8.51,1.02ZM968.6,67.04c-5.6,0-11.19,2.13-15.46,6.39-4.43,4.43-8.38,12.11-10.06,19.56-1.84,8.14-.8,14.91,2.85,18.56,3.65,3.65,10.42,4.69,18.56,2.85,7.46-1.69,15.13-5.64,19.56-10.06,8.52-8.52,8.52-22.39,0-30.91-4.26-4.26-9.86-6.39-15.45-6.39Z"/>
        </g>
        <g>
          <path class="cls-7" d="M927.54,164.07c9.42-9.42,16.64-31.91,7.21-41.34-9.42-9.42-31.91-2.21-41.34,7.21s-9.42,24.7,0,34.12c9.42,9.42,24.7,9.42,34.12,0Z"/>
          <path class="cls-5" d="M910.48,173.4c-6.76,0-13.52-2.57-18.67-7.72-4.99-4.99-7.73-11.62-7.73-18.67s2.75-13.68,7.73-18.67c5.07-5.07,13.41-9.39,21.77-11.28,9.84-2.22,17.93-.78,22.78,4.07,4.85,4.85,6.29,12.94,4.07,22.78-1.89,8.36-6.21,16.7-11.28,21.77h0c-5.15,5.15-11.91,7.72-18.67,7.72ZM922.02,120.6c-2.29,0-4.79.29-7.43.89-7.46,1.68-15.13,5.64-19.56,10.06-4.13,4.13-6.4,9.62-6.4,15.45s2.27,11.33,6.4,15.46c8.52,8.52,22.39,8.52,30.91,0,4.43-4.43,8.38-12.11,10.06-19.56,1.84-8.14.8-14.91-2.85-18.56-2.47-2.47-6.36-3.74-11.13-3.74Z"/>
        </g>
        <g>
          <path class="cls-7" d="M951.54,164.07c-9.42-9.42-16.64-31.91-7.21-41.34,9.42-9.42,31.91-2.21,41.34,7.21,9.42,9.42,9.42,24.7,0,34.12-9.42,9.42-24.7,9.42-34.12,0Z"/>
          <path class="cls-5" d="M968.6,173.4c-6.76,0-13.52-2.57-18.67-7.72-5.07-5.07-9.39-13.41-11.28-21.77-2.22-9.84-.78-17.93,4.07-22.78,4.85-4.85,12.94-6.29,22.78-4.07,8.36,1.89,16.7,6.21,21.77,11.28,4.99,4.99,7.73,11.62,7.73,18.67s-2.75,13.68-7.73,18.67c-5.15,5.15-11.91,7.72-18.67,7.72ZM957.06,120.6c-4.77,0-8.66,1.27-11.13,3.74-3.65,3.65-4.69,10.42-2.85,18.56,1.69,7.46,5.64,15.13,10.06,19.56,8.52,8.52,22.39,8.52,30.91,0,4.13-4.13,6.4-9.62,6.4-15.46s-2.27-11.33-6.4-15.45c-4.43-4.43-12.11-8.38-19.56-10.06-2.64-.6-5.14-.89-7.43-.89Z"/>
        </g>
        <g>
          <path class="cls-7" d="M893.42,105.95c9.42,9.42,31.91,16.64,41.34,7.21,9.42-9.42,2.21-31.91-7.21-41.34-9.42-9.42-24.7-9.42-34.12,0s-9.42,24.7,0,34.12Z"/>
          <path class="cls-5" d="M922.09,119.86c-2.64,0-5.49-.34-8.51-1.02-8.36-1.89-16.7-6.21-21.77-11.28-10.29-10.29-10.29-27.04,0-37.34,10.29-10.29,27.04-10.29,37.34,0,5.07,5.07,9.39,13.41,11.28,21.77,2.22,9.84.78,17.93-4.07,22.78-3.36,3.36-8.28,5.09-14.27,5.09ZM910.48,67.03c-5.84,0-11.33,2.27-15.46,6.4-8.52,8.52-8.52,22.39,0,30.91,4.43,4.43,12.11,8.38,19.56,10.06,8.14,1.84,14.91.8,18.56-2.85,3.65-3.65,4.69-10.42,2.85-18.56-1.69-7.46-5.64-15.13-10.06-19.56-4.13-4.13-9.62-6.4-15.46-6.4Z"/>
        </g>
      </g>
      <g>
        <polygon class="cls-3" points="966.81 90.67 948.83 117.95 966.81 145.22 939.54 127.23 912.26 145.22 930.25 117.95 912.26 90.67 939.54 108.66 966.81 90.67"/>
        <path class="cls-5" d="M974.81,153.22l-35.27-23.26-35.27,23.26,23.26-35.27-23.26-35.27,35.27,23.26,35.27-23.26-23.26,35.27,23.26,35.27ZM920.26,98.67l12.72,19.28-12.72,19.28,19.28-12.72,19.28,12.72-12.72-19.28,12.72-19.28-19.28,12.72-19.28-12.72Z"/>
      </g>
      <g>
        <circle class="cls-2" cx="939.54" cy="117.95" r="24.13"/>
        <path class="cls-5" d="M939.54,144.01c-6.68,0-13.35-2.54-18.44-7.63-10.17-10.17-10.17-26.71,0-36.88,4.92-4.93,11.47-7.64,18.44-7.64s13.51,2.71,18.44,7.64c10.17,10.17,10.17,26.71,0,36.88h0c-5.08,5.08-11.76,7.63-18.44,7.63ZM939.54,95.77c-5.92,0-11.49,2.31-15.68,6.5-8.65,8.65-8.65,22.72,0,31.37,8.65,8.65,22.72,8.65,31.37,0,8.65-8.65,8.65-22.72,0-31.37-4.19-4.19-9.76-6.5-15.69-6.5Z"/>
      </g>
    </g>
  </g>
  <g>
    <g>
      <g>
        <g>
          <path class="cls-7" d="M108.11,870.05c-9.42,9.42-31.91,16.64-41.34,7.21-9.42-9.42-2.21-31.91,7.21-41.34,9.42-9.42,24.7-9.42,34.12,0,9.42,9.42,9.42,24.7,0,34.12Z"/>
          <path class="cls-5" d="M79.43,883.96c-5.98,0-10.9-1.73-14.27-5.09-4.85-4.85-6.29-12.94-4.07-22.78,1.89-8.36,6.21-16.7,11.28-21.77,10.29-10.29,27.04-10.29,37.34,0,10.29,10.29,10.29,27.04,0,37.34-5.07,5.07-13.41,9.39-21.77,11.28-3.01.68-5.87,1.02-8.51,1.02ZM91.04,831.15c-5.6,0-11.19,2.13-15.46,6.39-4.43,4.43-8.38,12.11-10.06,19.56-1.84,8.14-.8,14.91,2.85,18.56,3.65,3.65,10.42,4.69,18.56,2.85,7.46-1.68,15.13-5.64,19.56-10.06,8.52-8.52,8.52-22.39,0-30.91-4.26-4.26-9.86-6.39-15.45-6.39Z"/>
        </g>
        <g>
          <path class="cls-7" d="M49.98,928.18c9.42-9.42,16.64-31.91,7.21-41.34-9.42-9.42-31.91-2.21-41.34,7.21-9.42,9.42-9.42,24.7,0,34.12,9.42,9.42,24.7,9.42,34.12,0Z"/>
          <path class="cls-5" d="M32.92,937.5c-6.76,0-13.52-2.57-18.67-7.72-10.29-10.29-10.29-27.04,0-37.34,5.07-5.07,13.41-9.39,21.77-11.28,9.84-2.22,17.93-.78,22.78,4.07,4.85,4.85,6.29,12.94,4.07,22.78-1.89,8.36-6.21,16.7-11.28,21.77-5.15,5.15-11.91,7.72-18.67,7.72ZM44.46,884.7c-2.29,0-4.79.29-7.43.89-7.46,1.69-15.13,5.64-19.56,10.06-8.52,8.52-8.52,22.39,0,30.91,8.52,8.52,22.39,8.52,30.91,0,4.43-4.43,8.38-12.11,10.06-19.56,1.84-8.14.8-14.91-2.85-18.56-2.47-2.47-6.36-3.74-11.13-3.74Z"/>
        </g>
        <g>
          <path class="cls-7" d="M73.98,928.18c-9.42-9.42-16.64-31.91-7.21-41.34,9.42-9.42,31.91-2.21,41.34,7.21,9.42,9.42,9.42,24.7,0,34.12-9.42,9.42-24.7,9.42-34.12,0Z"/>
          <path class="cls-5" d="M91.04,937.5c-6.76,0-13.52-2.57-18.67-7.72-5.07-5.07-9.39-13.41-11.28-21.77-2.22-9.84-.78-17.93,4.07-22.78,4.85-4.85,12.94-6.29,22.78-4.07,8.36,1.89,16.7,6.21,21.77,11.28,10.29,10.29,10.29,27.04,0,37.34-5.15,5.15-11.91,7.72-18.67,7.72ZM79.5,884.7c-4.77,0-8.66,1.27-11.13,3.74-3.65,3.65-4.69,10.42-2.85,18.56,1.69,7.46,5.64,15.13,10.06,19.56,8.52,8.52,22.39,8.52,30.91,0,8.52-8.52,8.52-22.39,0-30.91-4.43-4.43-12.11-8.38-19.56-10.06-2.64-.6-5.14-.89-7.43-.89Z"/>
        </g>
        <g>
          <path class="cls-7" d="M15.86,870.05c9.42,9.42,31.91,16.64,41.34,7.21,9.42-9.42,2.21-31.91-7.21-41.34-9.42-9.42-24.7-9.42-34.12,0-9.42,9.42-9.42,24.7,0,34.12Z"/>
          <path class="cls-5" d="M44.54,883.96c-2.64,0-5.49-.34-8.51-1.02-8.36-1.89-16.7-6.21-21.77-11.28-10.29-10.29-10.29-27.04,0-37.34,10.29-10.29,27.04-10.29,37.34,0,5.07,5.07,9.39,13.41,11.28,21.77,2.22,9.84.78,17.93-4.07,22.78-3.36,3.36-8.28,5.09-14.27,5.09ZM32.92,831.15c-5.6,0-11.19,2.13-15.45,6.39-8.52,8.52-8.52,22.39,0,30.91,4.43,4.43,12.11,8.38,19.56,10.06,8.14,1.84,14.91.8,18.56-2.85,3.65-3.65,4.69-10.42,2.85-18.56-1.68-7.46-5.64-15.13-10.06-19.56-4.26-4.26-9.86-6.39-15.46-6.39Z"/>
        </g>
      </g>
      <g>
        <polygon class="cls-3" points="89.26 854.78 71.27 882.05 89.26 909.33 61.98 891.34 34.71 909.33 52.7 882.05 34.71 854.78 61.98 872.77 89.26 854.78"/>
        <path class="cls-5" d="M97.25,917.32l-35.27-23.26-35.27,23.26,23.26-35.27-23.26-35.27,35.27,23.26,35.27-23.26-23.26,35.27,23.26,35.27ZM61.98,888.62l19.28,12.72-12.72-19.28,12.72-19.28-19.28,12.72-19.28-12.72,12.72,19.28-12.72,19.28,19.28-12.72Z"/>
      </g>
      <g>
        <circle class="cls-2" cx="61.98" cy="882.05" r="24.13"/>
        <path class="cls-5" d="M61.98,908.13c-6.97,0-13.51-2.71-18.44-7.64-10.17-10.17-10.17-26.71,0-36.88,10.17-10.17,26.71-10.17,36.88,0,10.17,10.17,10.17,26.71,0,36.88-4.92,4.93-11.47,7.64-18.44,7.64ZM61.98,859.88c-5.68,0-11.36,2.16-15.69,6.49-8.65,8.65-8.65,22.72,0,31.37,4.19,4.19,9.76,6.5,15.69,6.5s11.5-2.31,15.69-6.5c8.65-8.65,8.65-22.72,0-31.37-4.32-4.32-10.01-6.49-15.69-6.49Z"/>
      </g>
    </g>
    <g>
      <g>
        <g>
          <path class="cls-7" d="M217.8,870.05c-9.42,9.42-31.91,16.64-41.34,7.21-9.42-9.42-2.21-31.91,7.21-41.34,9.42-9.42,24.7-9.42,34.12,0,9.42,9.42,9.42,24.7,0,34.12Z"/>
          <path class="cls-5" d="M189.12,883.96c-5.98,0-10.9-1.73-14.27-5.09-4.85-4.85-6.29-12.94-4.07-22.78,1.89-8.36,6.21-16.7,11.28-21.77,10.29-10.29,27.04-10.29,37.34,0,10.29,10.29,10.29,27.04,0,37.34-5.07,5.07-13.41,9.39-21.77,11.28-3.01.68-5.87,1.02-8.51,1.02ZM200.74,831.15c-5.6,0-11.19,2.13-15.46,6.39-4.43,4.43-8.38,12.11-10.06,19.56-1.84,8.14-.8,14.91,2.85,18.56,3.65,3.65,10.42,4.69,18.56,2.85,7.46-1.68,15.13-5.64,19.56-10.06,8.52-8.52,8.52-22.39,0-30.91-4.26-4.26-9.86-6.39-15.45-6.39Z"/>
        </g>
        <g>
          <path class="cls-7" d="M159.68,928.18c9.42-9.42,16.64-31.91,7.21-41.34-9.42-9.42-31.91-2.21-41.34,7.21-9.42,9.42-9.42,24.7,0,34.12s24.7,9.42,34.12,0Z"/>
          <path class="cls-5" d="M142.62,937.5c-6.76,0-13.52-2.57-18.67-7.72-10.29-10.29-10.29-27.04,0-37.34,5.07-5.07,13.41-9.39,21.77-11.28,9.84-2.22,17.93-.78,22.78,4.07,4.85,4.85,6.29,12.94,4.07,22.78-1.89,8.36-6.21,16.7-11.28,21.77-5.15,5.15-11.91,7.72-18.67,7.72ZM154.16,884.7c-2.29,0-4.79.29-7.43.89-7.46,1.69-15.13,5.64-19.56,10.06-4.13,4.13-6.4,9.62-6.4,15.46s2.27,11.33,6.4,15.45c8.52,8.52,22.39,8.52,30.91,0,4.43-4.43,8.38-12.11,10.06-19.56,1.84-8.14.8-14.91-2.85-18.56-2.47-2.47-6.36-3.74-11.13-3.74Z"/>
        </g>
        <g>
          <path class="cls-7" d="M183.68,928.18c-9.42-9.42-16.64-31.91-7.21-41.34,9.42-9.42,31.91-2.21,41.34,7.21,9.42,9.42,9.42,24.7,0,34.12s-24.7,9.42-34.12,0Z"/>
          <path class="cls-5" d="M200.74,937.5c-6.76,0-13.52-2.57-18.67-7.72-5.07-5.07-9.39-13.41-11.28-21.77-2.22-9.84-.78-17.93,4.07-22.78,4.85-4.85,12.94-6.29,22.78-4.07,8.36,1.89,16.7,6.21,21.77,11.28,10.29,10.29,10.29,27.04,0,37.34-5.15,5.15-11.91,7.72-18.67,7.72ZM189.2,884.7c-4.77,0-8.66,1.27-11.13,3.74-3.65,3.65-4.69,10.42-2.85,18.56,1.69,7.46,5.64,15.13,10.06,19.56,8.52,8.52,22.39,8.52,30.91,0,8.52-8.52,8.52-22.39,0-30.91-4.43-4.43-12.11-8.38-19.56-10.06-2.64-.6-5.14-.89-7.43-.89Z"/>
        </g>
        <g>
          <path class="cls-7" d="M125.56,870.05c9.42,9.42,31.91,16.64,41.34,7.21,9.42-9.42,2.21-31.91-7.21-41.34-9.42-9.42-24.7-9.42-34.12,0-9.42,9.42-9.42,24.7,0,34.12Z"/>
          <path class="cls-5" d="M154.23,883.96c-2.64,0-5.49-.34-8.51-1.02-8.36-1.89-16.7-6.21-21.77-11.28-10.29-10.29-10.29-27.04,0-37.34,10.29-10.29,27.04-10.29,37.34,0,5.07,5.07,9.39,13.41,11.28,21.77,2.22,9.84.78,17.93-4.07,22.78-3.36,3.36-8.28,5.09-14.27,5.09ZM142.62,831.15c-5.6,0-11.19,2.13-15.46,6.39-8.52,8.52-8.52,22.39,0,30.91,4.43,4.43,12.11,8.38,19.56,10.06,8.14,1.84,14.91.8,18.56-2.85,3.65-3.65,4.69-10.42,2.85-18.56-1.68-7.46-5.64-15.13-10.06-19.56-4.26-4.26-9.86-6.39-15.45-6.39Z"/>
        </g>
      </g>
      <g>
        <polygon class="cls-3" points="198.95 854.78 180.96 882.05 198.95 909.33 171.68 891.34 144.4 909.33 162.39 882.05 144.4 854.78 171.68 872.77 198.95 854.78"/>
        <path class="cls-5" d="M206.95,917.32l-35.27-23.26-35.27,23.26,23.26-35.27-23.26-35.27,35.27,23.26,35.27-23.26-23.26,35.27,23.26,35.27ZM171.68,888.62l19.28,12.72-12.72-19.28,12.72-19.28-19.28,12.72-19.28-12.72,12.72,19.28-12.72,19.28,19.28-12.72Z"/>
      </g>
      <g>
        <circle class="cls-2" cx="171.68" cy="882.05" r="24.13"/>
        <path class="cls-5" d="M171.68,908.13c-6.97,0-13.51-2.71-18.44-7.64-10.17-10.17-10.17-26.71,0-36.88,10.17-10.17,26.71-10.17,36.88,0,10.17,10.17,10.17,26.71,0,36.88-4.92,4.93-11.47,7.64-18.44,7.64ZM171.68,859.88c-5.68,0-11.36,2.16-15.69,6.49-8.65,8.65-8.65,22.72,0,31.37,4.19,4.19,9.76,6.5,15.69,6.5s11.5-2.31,15.69-6.5c8.65-8.65,8.65-22.72,0-31.37-4.32-4.32-10.01-6.49-15.69-6.49Z"/>
      </g>
    </g>
    <g>
      <g>
        <g>
          <path class="cls-7" d="M327.49,870.05c-9.42,9.42-31.91,16.64-41.34,7.21-9.42-9.42-2.21-31.91,7.21-41.34,9.42-9.42,24.7-9.42,34.12,0,9.42,9.42,9.42,24.7,0,34.12Z"/>
          <path class="cls-5" d="M298.82,883.96c-5.98,0-10.9-1.73-14.27-5.09-4.85-4.85-6.29-12.94-4.07-22.78,1.89-8.36,6.21-16.7,11.28-21.77,10.29-10.29,27.04-10.29,37.34,0,10.29,10.29,10.29,27.04,0,37.34-5.07,5.07-13.41,9.39-21.77,11.28-3.01.68-5.87,1.02-8.51,1.02ZM310.43,831.15c-5.6,0-11.19,2.13-15.46,6.39-4.43,4.43-8.38,12.11-10.06,19.56-1.84,8.14-.8,14.91,2.85,18.56,3.65,3.65,10.42,4.69,18.56,2.85,7.46-1.68,15.13-5.64,19.56-10.06,8.52-8.52,8.52-22.39,0-30.91-4.26-4.26-9.86-6.39-15.45-6.39Z"/>
        </g>
        <g>
          <path class="cls-7" d="M269.37,928.18c9.42-9.42,16.64-31.91,7.21-41.34-9.42-9.42-31.91-2.21-41.34,7.21-9.42,9.42-9.42,24.7,0,34.12,9.42,9.42,24.7,9.42,34.12,0Z"/>
          <path class="cls-5" d="M252.31,937.51c-7.05,0-13.68-2.75-18.67-7.73-10.29-10.29-10.29-27.04,0-37.34,5.07-5.07,13.41-9.39,21.77-11.28,9.84-2.22,17.93-.78,22.78,4.07,4.85,4.85,6.29,12.94,4.07,22.78-1.89,8.36-6.21,16.7-11.28,21.77-4.99,4.99-11.62,7.73-18.67,7.73ZM263.85,884.7c-2.29,0-4.79.29-7.43.89-7.46,1.69-15.13,5.64-19.56,10.06-8.52,8.52-8.52,22.39,0,30.91,4.13,4.13,9.62,6.4,15.46,6.4s11.33-2.27,15.45-6.4h0c4.43-4.43,8.38-12.11,10.06-19.56,1.84-8.14.8-14.91-2.85-18.56-2.47-2.47-6.36-3.74-11.13-3.74Z"/>
        </g>
        <g>
          <path class="cls-7" d="M293.37,928.18c-9.42-9.42-16.64-31.91-7.21-41.34,9.42-9.42,31.91-2.21,41.34,7.21s9.42,24.7,0,34.12c-9.42,9.42-24.7,9.42-34.12,0Z"/>
          <path class="cls-5" d="M310.43,937.5c-6.76,0-13.52-2.57-18.67-7.72-5.07-5.07-9.39-13.41-11.28-21.77-2.22-9.84-.78-17.93,4.07-22.78,4.85-4.85,12.94-6.29,22.78-4.07,8.36,1.89,16.7,6.21,21.77,11.28,10.29,10.29,10.29,27.04,0,37.34-5.15,5.15-11.91,7.72-18.67,7.72ZM298.89,884.7c-4.77,0-8.66,1.27-11.13,3.74-3.65,3.65-4.69,10.42-2.85,18.56,1.69,7.46,5.64,15.13,10.06,19.56,8.52,8.52,22.39,8.52,30.91,0,8.52-8.52,8.52-22.39,0-30.91-4.43-4.43-12.11-8.38-19.56-10.06-2.64-.6-5.14-.89-7.43-.89Z"/>
        </g>
        <g>
          <path class="cls-7" d="M235.25,870.05c9.42,9.42,31.91,16.64,41.34,7.21,9.42-9.42,2.21-31.91-7.21-41.34-9.42-9.42-24.7-9.42-34.12,0-9.42,9.42-9.42,24.7,0,34.12Z"/>
          <path class="cls-5" d="M263.93,883.96c-2.64,0-5.49-.34-8.51-1.02-8.36-1.89-16.7-6.21-21.77-11.28-10.29-10.29-10.29-27.04,0-37.34,4.99-4.99,11.62-7.73,18.67-7.73s13.68,2.75,18.67,7.73c5.07,5.07,9.39,13.41,11.28,21.77,2.22,9.84.78,17.93-4.07,22.78-3.36,3.36-8.28,5.09-14.27,5.09ZM252.31,831.14c-5.84,0-11.33,2.27-15.46,6.4-8.52,8.52-8.52,22.39,0,30.91,4.43,4.43,12.11,8.38,19.56,10.06,8.14,1.84,14.91.8,18.56-2.85,3.65-3.65,4.69-10.42,2.85-18.56-1.68-7.46-5.64-15.13-10.06-19.56-4.13-4.13-9.62-6.4-15.45-6.4Z"/>
        </g>
      </g>
      <g>
        <polygon class="cls-3" points="308.65 854.78 290.66 882.05 308.65 909.33 281.37 891.34 254.1 909.33 272.09 882.05 254.1 854.78 281.37 872.77 308.65 854.78"/>
        <path class="cls-5" d="M316.64,917.32l-35.27-23.26-35.27,23.26,23.26-35.27-23.26-35.27,35.27,23.26,35.27-23.26-23.26,35.27,23.26,35.27ZM281.37,888.62l19.28,12.72-12.72-19.28,12.72-19.28-19.28,12.72-19.28-12.72,12.72,19.28-12.72,19.28,19.28-12.72Z"/>
      </g>
      <g>
        <circle class="cls-2" cx="281.37" cy="882.05" r="24.13"/>
        <path class="cls-5" d="M281.37,908.13c-6.97,0-13.51-2.71-18.44-7.64-10.17-10.17-10.17-26.71,0-36.88,10.17-10.17,26.71-10.17,36.88,0,10.17,10.17,10.17,26.71,0,36.88-4.92,4.93-11.47,7.64-18.44,7.64ZM281.37,859.88c-5.68,0-11.36,2.16-15.69,6.49-8.65,8.65-8.65,22.72,0,31.37,4.19,4.19,9.76,6.5,15.69,6.5s11.5-2.31,15.69-6.5c8.65-8.65,8.65-22.72,0-31.37-4.32-4.32-10.01-6.49-15.69-6.49Z"/>
      </g>
    </g>
    <g>
      <g>
        <g>
          <path class="cls-7" d="M437.19,870.05c-9.42,9.42-31.91,16.64-41.34,7.21s-2.21-31.91,7.21-41.34c9.42-9.42,24.7-9.42,34.12,0,9.42,9.42,9.42,24.7,0,34.12Z"/>
          <path class="cls-5" d="M408.51,883.96c-5.98,0-10.9-1.73-14.27-5.09-4.85-4.85-6.29-12.94-4.07-22.78,1.89-8.36,6.21-16.7,11.28-21.77,10.29-10.29,27.04-10.29,37.34,0,10.29,10.29,10.29,27.04,0,37.34-5.07,5.07-13.41,9.39-21.77,11.28-3.01.68-5.87,1.02-8.51,1.02ZM420.13,831.15c-5.6,0-11.19,2.13-15.46,6.39-4.43,4.43-8.38,12.11-10.06,19.56-1.84,8.14-.8,14.91,2.85,18.56,3.65,3.65,10.42,4.69,18.56,2.85,7.46-1.68,15.13-5.64,19.56-10.06,8.52-8.52,8.52-22.39,0-30.91-4.26-4.26-9.86-6.39-15.45-6.39Z"/>
        </g>
        <g>
          <path class="cls-7" d="M379.07,928.18c9.42-9.42,16.64-31.91,7.21-41.34-9.42-9.42-31.91-2.21-41.34,7.21-9.42,9.42-9.42,24.7,0,34.12,9.42,9.42,24.7,9.42,34.12,0Z"/>
          <path class="cls-5" d="M362.01,937.51c-7.05,0-13.68-2.75-18.67-7.73-10.29-10.29-10.29-27.04,0-37.34,5.07-5.07,13.41-9.39,21.77-11.28,9.84-2.22,17.93-.78,22.78,4.07,4.85,4.85,6.29,12.94,4.07,22.78-1.89,8.36-6.21,16.7-11.28,21.77-4.99,4.99-11.62,7.73-18.67,7.73ZM373.55,884.7c-2.29,0-4.79.29-7.43.89-7.46,1.69-15.13,5.64-19.56,10.06-4.13,4.13-6.4,9.62-6.4,15.46s2.27,11.33,6.4,15.45c4.13,4.13,9.62,6.4,15.46,6.4s11.33-2.27,15.45-6.4h0c4.43-4.43,8.38-12.11,10.06-19.56,1.84-8.14.8-14.91-2.85-18.56-2.47-2.47-6.36-3.74-11.13-3.74Z"/>
        </g>
        <g>
          <path class="cls-7" d="M403.07,928.18c-9.42-9.42-16.64-31.91-7.21-41.34,9.42-9.42,31.91-2.21,41.34,7.21,9.42,9.42,9.42,24.7,0,34.12-9.42,9.42-24.7,9.42-34.12,0Z"/>
          <path class="cls-5" d="M420.13,937.5c-6.76,0-13.52-2.57-18.67-7.72-5.07-5.07-9.39-13.41-11.28-21.77-2.22-9.84-.78-17.93,4.07-22.78,4.85-4.85,12.94-6.29,22.78-4.07,8.36,1.89,16.7,6.21,21.77,11.28,10.29,10.29,10.29,27.04,0,37.34-5.15,5.15-11.91,7.72-18.67,7.72ZM408.59,884.7c-4.77,0-8.66,1.27-11.13,3.74-3.65,3.65-4.69,10.42-2.85,18.56,1.69,7.46,5.64,15.13,10.06,19.56,8.52,8.52,22.39,8.52,30.91,0,8.52-8.52,8.52-22.39,0-30.91-4.43-4.43-12.11-8.38-19.56-10.06-2.64-.6-5.14-.89-7.43-.89Z"/>
        </g>
        <g>
          <path class="cls-7" d="M344.94,870.05c9.42,9.42,31.91,16.64,41.34,7.21,9.42-9.42,2.21-31.91-7.21-41.34-9.42-9.42-24.7-9.42-34.12,0-9.42,9.42-9.42,24.7,0,34.12Z"/>
          <path class="cls-5" d="M373.62,883.96c-2.64,0-5.49-.34-8.51-1.02-8.36-1.89-16.7-6.21-21.77-11.28-10.29-10.29-10.29-27.04,0-37.34,4.99-4.99,11.62-7.73,18.67-7.73s13.68,2.75,18.67,7.73c5.07,5.07,9.39,13.41,11.28,21.77,2.22,9.84.78,17.93-4.07,22.78-3.36,3.36-8.28,5.09-14.27,5.09ZM362.01,831.14c-5.84,0-11.33,2.27-15.46,6.4-8.52,8.52-8.52,22.39,0,30.91,4.43,4.43,12.11,8.38,19.56,10.06,8.14,1.84,14.91.8,18.56-2.85,3.65-3.65,4.69-10.42,2.85-18.56-1.68-7.46-5.64-15.13-10.06-19.56-4.13-4.13-9.62-6.4-15.45-6.4Z"/>
        </g>
      </g>
      <g>
        <polygon class="cls-3" points="418.34 854.78 400.35 882.05 418.34 909.33 391.07 891.34 363.79 909.33 381.78 882.05 363.79 854.78 391.07 872.77 418.34 854.78"/>
        <path class="cls-5" d="M426.33,917.32l-35.27-23.26-35.27,23.26,23.26-35.27-23.26-35.27,35.27,23.26,35.27-23.26-23.26,35.27,23.26,35.27ZM391.07,888.62l19.28,12.72-12.72-19.28,12.72-19.28-19.28,12.72-19.28-12.72,12.72,19.28-12.72,19.28,19.28-12.72Z"/>
      </g>
      <g>
        <circle class="cls-2" cx="391.07" cy="882.05" r="24.13"/>
        <path class="cls-5" d="M391.07,908.13c-6.97,0-13.51-2.71-18.44-7.64-10.17-10.17-10.17-26.71,0-36.88,10.17-10.17,26.71-10.17,36.88,0,10.17,10.17,10.17,26.71,0,36.88-4.92,4.93-11.47,7.64-18.44,7.64ZM391.07,859.88c-5.68,0-11.36,2.16-15.69,6.49-8.65,8.65-8.65,22.72,0,31.37,4.19,4.19,9.76,6.5,15.69,6.5s11.5-2.31,15.69-6.5c8.65-8.65,8.65-22.72,0-31.37-4.32-4.32-10.01-6.49-15.69-6.49Z"/>
      </g>
    </g>
    <g>
      <g>
        <g>
          <path class="cls-7" d="M546.88,870.05c-9.42,9.42-31.91,16.64-41.34,7.21-9.42-9.42-2.21-31.91,7.21-41.34,9.42-9.42,24.7-9.42,34.12,0,9.42,9.42,9.42,24.7,0,34.12Z"/>
          <path class="cls-5" d="M518.21,883.96c-5.98,0-10.9-1.73-14.27-5.09-4.85-4.85-6.29-12.94-4.07-22.78,1.89-8.36,6.21-16.7,11.28-21.77,10.29-10.29,27.04-10.29,37.34,0,10.29,10.29,10.29,27.04,0,37.34-5.07,5.07-13.41,9.39-21.77,11.28-3.01.68-5.87,1.02-8.51,1.02ZM529.82,831.15c-5.6,0-11.19,2.13-15.46,6.39-4.43,4.43-8.38,12.11-10.06,19.56-1.84,8.14-.8,14.91,2.85,18.56,3.65,3.65,10.42,4.69,18.56,2.85,7.46-1.68,15.13-5.64,19.56-10.06,8.52-8.52,8.52-22.39,0-30.91-4.26-4.26-9.86-6.39-15.45-6.39Z"/>
        </g>
        <g>
          <path class="cls-7" d="M488.76,928.18c9.42-9.42,16.64-31.91,7.21-41.34-9.42-9.42-31.91-2.21-41.34,7.21-9.42,9.42-9.42,24.7,0,34.12s24.7,9.42,34.12,0Z"/>
          <path class="cls-5" d="M471.7,937.51c-7.05,0-13.68-2.75-18.67-7.73-10.29-10.29-10.29-27.04,0-37.34,5.07-5.07,13.41-9.39,21.77-11.28,9.84-2.22,17.93-.78,22.78,4.07,4.85,4.85,6.29,12.94,4.07,22.78-1.89,8.36-6.21,16.7-11.28,21.77-4.99,4.99-11.62,7.73-18.67,7.73ZM483.24,884.7c-2.29,0-4.79.29-7.43.89-7.46,1.69-15.13,5.64-19.56,10.06-8.52,8.52-8.52,22.39,0,30.91,4.13,4.13,9.62,6.4,15.46,6.4s11.33-2.27,15.45-6.4h0c4.43-4.43,8.38-12.11,10.06-19.56,1.84-8.14.8-14.91-2.85-18.56-2.47-2.47-6.36-3.74-11.13-3.74Z"/>
        </g>
        <g>
          <path class="cls-7" d="M512.76,928.18c-9.42-9.42-16.64-31.91-7.21-41.34,9.42-9.42,31.91-2.21,41.34,7.21,9.42,9.42,9.42,24.7,0,34.12-9.42,9.42-24.7,9.42-34.12,0Z"/>
          <path class="cls-5" d="M529.82,937.5c-6.76,0-13.52-2.57-18.67-7.72-5.07-5.07-9.39-13.41-11.28-21.77-2.22-9.84-.78-17.93,4.07-22.78,4.85-4.85,12.94-6.29,22.78-4.07,8.36,1.89,16.7,6.21,21.77,11.28,10.29,10.29,10.29,27.04,0,37.34-5.15,5.15-11.91,7.72-18.67,7.72ZM518.28,884.7c-4.77,0-8.66,1.27-11.13,3.74-3.65,3.65-4.69,10.42-2.85,18.56,1.69,7.46,5.64,15.13,10.06,19.56,8.52,8.52,22.39,8.52,30.91,0,8.52-8.52,8.52-22.39,0-30.91-4.43-4.43-12.11-8.38-19.56-10.06-2.64-.6-5.14-.89-7.43-.89Z"/>
        </g>
        <g>
          <path class="cls-7" d="M454.64,870.05c9.42,9.42,31.91,16.64,41.34,7.21s2.21-31.91-7.21-41.34-24.7-9.42-34.12,0c-9.42,9.42-9.42,24.7,0,34.12Z"/>
          <path class="cls-5" d="M483.32,883.96c-2.64,0-5.49-.34-8.51-1.02-8.36-1.89-16.7-6.21-21.77-11.28-10.29-10.29-10.29-27.04,0-37.34,4.99-4.99,11.62-7.73,18.67-7.73s13.68,2.75,18.67,7.73c5.07,5.07,9.39,13.41,11.28,21.77,2.22,9.84.78,17.93-4.07,22.78-3.36,3.36-8.28,5.09-14.27,5.09ZM471.7,831.14c-5.84,0-11.33,2.27-15.46,6.4-8.52,8.52-8.52,22.39,0,30.91,4.43,4.43,12.11,8.38,19.56,10.06,8.14,1.84,14.91.8,18.56-2.85,3.65-3.65,4.69-10.42,2.85-18.56-1.68-7.46-5.64-15.13-10.06-19.56-4.13-4.13-9.62-6.4-15.45-6.4Z"/>
        </g>
      </g>
      <g>
        <polygon class="cls-3" points="528.04 854.78 510.05 882.05 528.04 909.33 500.76 891.34 473.49 909.33 491.47 882.05 473.49 854.78 500.76 872.77 528.04 854.78"/>
        <path class="cls-5" d="M536.03,917.32l-35.27-23.26-35.27,23.26,23.26-35.27-23.26-35.27,35.27,23.26,35.27-23.26-23.26,35.27,23.26,35.27ZM500.76,888.62l19.28,12.72-12.72-19.28,12.72-19.28-19.28,12.72-19.28-12.72,12.72,19.28-12.72,19.28,19.28-12.72Z"/>
      </g>
      <g>
        <circle class="cls-2" cx="500.76" cy="882.05" r="24.13"/>
        <path class="cls-5" d="M500.76,908.13c-6.97,0-13.51-2.71-18.44-7.64-10.17-10.17-10.17-26.71,0-36.88,10.17-10.17,26.71-10.17,36.88,0,10.17,10.17,10.17,26.71,0,36.88-4.92,4.93-11.47,7.64-18.44,7.64ZM500.76,859.88c-5.68,0-11.36,2.16-15.69,6.49-8.65,8.65-8.65,22.72,0,31.37,4.19,4.19,9.76,6.5,15.69,6.5s11.5-2.31,15.69-6.5c8.65-8.65,8.65-22.72,0-31.37-4.32-4.32-10.01-6.49-15.69-6.49Z"/>
      </g>
    </g>
    <g>
      <g>
        <g>
          <path class="cls-7" d="M656.58,870.05c-9.42,9.42-31.91,16.64-41.34,7.21-9.42-9.42-2.21-31.91,7.21-41.34,9.42-9.42,24.7-9.42,34.12,0,9.42,9.42,9.42,24.7,0,34.12Z"/>
          <path class="cls-5" d="M627.9,883.96c-5.98,0-10.9-1.73-14.27-5.09-4.85-4.85-6.29-12.94-4.07-22.78,1.89-8.36,6.21-16.7,11.28-21.77,10.29-10.29,27.04-10.29,37.34,0,10.29,10.29,10.29,27.04,0,37.34-5.07,5.07-13.41,9.39-21.77,11.28-3.01.68-5.87,1.02-8.51,1.02ZM639.52,831.15c-5.6,0-11.19,2.13-15.46,6.39-4.43,4.43-8.38,12.11-10.06,19.56-1.84,8.14-.8,14.91,2.85,18.56s10.42,4.69,18.56,2.85c7.46-1.68,15.13-5.64,19.56-10.06,8.52-8.52,8.52-22.39,0-30.91-4.26-4.26-9.86-6.39-15.45-6.39Z"/>
        </g>
        <g>
          <path class="cls-7" d="M598.46,928.18c9.42-9.42,16.64-31.91,7.21-41.34-9.42-9.42-31.91-2.21-41.34,7.21-9.42,9.42-9.42,24.7,0,34.12,9.42,9.42,24.7,9.42,34.12,0Z"/>
          <path class="cls-5" d="M581.39,937.51c-7.05,0-13.68-2.75-18.67-7.73-10.29-10.29-10.29-27.04,0-37.34,5.07-5.07,13.41-9.39,21.77-11.28,9.84-2.22,17.93-.78,22.78,4.07,4.85,4.85,6.29,12.94,4.07,22.78-1.89,8.36-6.21,16.7-11.28,21.77-4.99,4.99-11.62,7.73-18.67,7.73ZM592.93,884.7c-2.29,0-4.79.29-7.43.89-7.46,1.69-15.13,5.64-19.56,10.06-4.13,4.13-6.4,9.62-6.4,15.46s2.27,11.33,6.4,15.45c4.13,4.13,9.62,6.4,15.46,6.4s11.33-2.27,15.45-6.4h0c4.43-4.43,8.38-12.11,10.06-19.56,1.84-8.14.8-14.91-2.85-18.56-2.47-2.47-6.36-3.74-11.13-3.74Z"/>
        </g>
        <g>
          <path class="cls-7" d="M622.45,928.18c-9.42-9.42-16.64-31.91-7.21-41.34,9.42-9.42,31.91-2.21,41.34,7.21,9.42,9.42,9.42,24.7,0,34.12-9.42,9.42-24.7,9.42-34.12,0Z"/>
          <path class="cls-5" d="M639.52,937.5c-6.76,0-13.52-2.57-18.67-7.72-5.07-5.07-9.39-13.41-11.28-21.77-2.22-9.84-.78-17.93,4.07-22.78,4.85-4.85,12.94-6.29,22.78-4.07,8.36,1.89,16.7,6.21,21.77,11.28,10.29,10.29,10.29,27.04,0,37.34-5.15,5.15-11.91,7.72-18.67,7.72ZM627.98,884.7c-4.77,0-8.66,1.27-11.13,3.74-3.65,3.65-4.69,10.42-2.85,18.56,1.69,7.46,5.64,15.13,10.06,19.56,8.52,8.52,22.39,8.52,30.91,0,8.52-8.52,8.52-22.39,0-30.91-4.43-4.43-12.11-8.38-19.56-10.06-2.64-.6-5.14-.89-7.43-.89Z"/>
        </g>
        <g>
          <path class="cls-7" d="M564.33,870.05c9.42,9.42,31.91,16.64,41.34,7.21,9.42-9.42,2.21-31.91-7.21-41.34-9.42-9.42-24.7-9.42-34.12,0-9.42,9.42-9.42,24.7,0,34.12Z"/>
          <path class="cls-5" d="M593.01,883.96c-2.64,0-5.49-.34-8.51-1.02-8.36-1.89-16.7-6.21-21.77-11.28-10.29-10.29-10.29-27.04,0-37.34,4.99-4.99,11.62-7.73,18.67-7.73s13.68,2.75,18.67,7.73c5.07,5.07,9.39,13.41,11.28,21.77,2.22,9.84.78,17.93-4.07,22.78-3.36,3.36-8.28,5.09-14.27,5.09ZM581.39,831.14c-5.84,0-11.33,2.27-15.46,6.4-8.52,8.52-8.52,22.39,0,30.91,4.43,4.43,12.11,8.38,19.56,10.06,8.14,1.84,14.91.8,18.56-2.85,3.65-3.65,4.69-10.42,2.85-18.56-1.68-7.46-5.64-15.13-10.06-19.56-4.13-4.13-9.62-6.4-15.45-6.4Z"/>
        </g>
      </g>
      <g>
        <polygon class="cls-3" points="637.73 854.78 619.74 882.05 637.73 909.33 610.46 891.34 583.18 909.33 601.17 882.05 583.18 854.78 610.46 872.77 637.73 854.78"/>
        <path class="cls-5" d="M645.72,917.32l-35.27-23.26-35.27,23.26,23.26-35.27-23.26-35.27,35.27,23.26,35.27-23.26-23.26,35.27,23.26,35.27ZM610.46,888.62l19.28,12.72-12.72-19.28,12.72-19.28-19.28,12.72-19.28-12.72,12.72,19.28-12.72,19.28,19.28-12.72Z"/>
      </g>
      <g>
        <circle class="cls-2" cx="610.46" cy="882.05" r="24.13"/>
        <path class="cls-5" d="M610.46,908.13c-6.97,0-13.51-2.71-18.44-7.64-10.17-10.17-10.17-26.71,0-36.88,10.17-10.17,26.71-10.17,36.88,0,10.17,10.17,10.17,26.71,0,36.88-4.92,4.93-11.47,7.64-18.44,7.64ZM610.46,859.88c-5.68,0-11.36,2.16-15.69,6.49-8.65,8.65-8.65,22.72,0,31.37,4.19,4.19,9.76,6.5,15.69,6.5s11.5-2.31,15.69-6.5c8.65-8.65,8.65-22.72,0-31.37-4.32-4.32-10.01-6.49-15.69-6.49Z"/>
      </g>
    </g>
    <g>
      <g>
        <g>
          <path class="cls-7" d="M766.27,870.05c-9.42,9.42-31.91,16.64-41.34,7.21-9.42-9.42-2.21-31.91,7.21-41.34s24.7-9.42,34.12,0c9.42,9.42,9.42,24.7,0,34.12Z"/>
          <path class="cls-5" d="M737.6,883.96c-5.98,0-10.9-1.73-14.27-5.09-4.85-4.85-6.29-12.94-4.07-22.78,1.89-8.36,6.21-16.7,11.28-21.77,10.29-10.29,27.04-10.29,37.34,0,10.29,10.29,10.29,27.04,0,37.34-5.07,5.07-13.41,9.39-21.77,11.28-3.01.68-5.87,1.02-8.51,1.02ZM749.21,831.15c-5.6,0-11.19,2.13-15.46,6.39-4.43,4.43-8.38,12.11-10.06,19.56-1.84,8.14-.8,14.91,2.85,18.56,3.65,3.65,10.42,4.69,18.56,2.85,7.46-1.68,15.13-5.64,19.56-10.06,8.52-8.52,8.52-22.39,0-30.91-4.26-4.26-9.86-6.39-15.45-6.39Z"/>
        </g>
        <g>
          <path class="cls-7" d="M708.15,928.18c9.42-9.42,16.64-31.91,7.21-41.34-9.42-9.42-31.91-2.21-41.34,7.21-9.42,9.42-9.42,24.7,0,34.12s24.7,9.42,34.12,0Z"/>
          <path class="cls-5" d="M691.09,937.51c-7.05,0-13.68-2.75-18.67-7.73-10.29-10.29-10.29-27.04,0-37.34,5.07-5.07,13.41-9.39,21.77-11.28,9.84-2.22,17.93-.78,22.78,4.07,4.85,4.85,6.29,12.94,4.07,22.78-1.89,8.36-6.21,16.7-11.28,21.77-4.99,4.99-11.62,7.73-18.67,7.73ZM702.63,884.7c-2.29,0-4.79.29-7.43.89-7.46,1.69-15.13,5.64-19.56,10.06-8.52,8.52-8.52,22.39,0,30.91,4.13,4.13,9.62,6.4,15.46,6.4s11.33-2.27,15.45-6.4h0c4.43-4.43,8.38-12.11,10.06-19.56,1.84-8.14.8-14.91-2.85-18.56-2.47-2.47-6.36-3.74-11.13-3.74Z"/>
        </g>
        <g>
          <path class="cls-7" d="M732.15,928.18c-9.42-9.42-16.64-31.91-7.21-41.34,9.42-9.42,31.91-2.21,41.34,7.21,9.42,9.42,9.42,24.7,0,34.12-9.42,9.42-24.7,9.42-34.12,0Z"/>
          <path class="cls-5" d="M749.21,937.5c-6.76,0-13.52-2.57-18.67-7.72-5.07-5.07-9.39-13.41-11.28-21.77-2.22-9.84-.78-17.93,4.07-22.78,4.85-4.85,12.94-6.29,22.78-4.07,8.36,1.89,16.7,6.21,21.77,11.28,10.29,10.29,10.29,27.04,0,37.34-5.15,5.15-11.91,7.72-18.67,7.72ZM737.67,884.7c-4.77,0-8.66,1.27-11.13,3.74-3.65,3.65-4.69,10.42-2.85,18.56,1.69,7.46,5.64,15.13,10.06,19.56,8.52,8.52,22.39,8.52,30.91,0,8.52-8.52,8.52-22.39,0-30.91-4.43-4.43-12.11-8.38-19.56-10.06-2.64-.6-5.14-.89-7.43-.89Z"/>
        </g>
        <g>
          <path class="cls-7" d="M674.03,870.05c9.42,9.42,31.91,16.64,41.34,7.21,9.42-9.42,2.21-31.91-7.21-41.34-9.42-9.42-24.7-9.42-34.12,0-9.42,9.42-9.42,24.7,0,34.12Z"/>
          <path class="cls-5" d="M702.7,883.96c-2.64,0-5.49-.34-8.51-1.02-8.36-1.89-16.7-6.21-21.77-11.28-10.29-10.29-10.29-27.04,0-37.34,4.99-4.99,11.62-7.73,18.67-7.73s13.68,2.75,18.67,7.73c5.07,5.07,9.39,13.41,11.28,21.77,2.22,9.84.78,17.93-4.07,22.78-3.36,3.36-8.28,5.09-14.27,5.09ZM691.09,831.14c-5.84,0-11.33,2.27-15.46,6.4-8.52,8.52-8.52,22.39,0,30.91,4.43,4.43,12.11,8.38,19.56,10.06,8.14,1.84,14.91.8,18.56-2.85,3.65-3.65,4.69-10.42,2.85-18.56-1.68-7.46-5.64-15.13-10.06-19.56-4.13-4.13-9.62-6.4-15.45-6.4Z"/>
        </g>
      </g>
      <g>
        <polygon class="cls-3" points="747.42 854.78 729.44 882.05 747.42 909.33 720.15 891.34 692.87 909.33 710.86 882.05 692.87 854.78 720.15 872.77 747.42 854.78"/>
        <path class="cls-5" d="M755.42,917.32l-35.27-23.26-35.27,23.26,23.26-35.27-23.26-35.27,35.27,23.26,35.27-23.26-23.26,35.27,23.26,35.27ZM720.15,888.62l19.28,12.72-12.72-19.28,12.72-19.28-19.28,12.72-19.28-12.72,12.72,19.28-12.72,19.28,19.28-12.72Z"/>
      </g>
      <g>
        <circle class="cls-2" cx="720.15" cy="882.05" r="24.13"/>
        <path class="cls-5" d="M720.15,908.13c-6.97,0-13.51-2.71-18.44-7.64-10.17-10.17-10.17-26.71,0-36.88,10.17-10.17,26.71-10.17,36.88,0,10.17,10.17,10.17,26.71,0,36.88-4.92,4.93-11.47,7.64-18.44,7.64ZM720.15,859.88c-5.68,0-11.36,2.16-15.68,6.49-8.65,8.65-8.65,22.72,0,31.37,4.19,4.19,9.76,6.5,15.68,6.5s11.5-2.31,15.69-6.5c8.65-8.65,8.65-22.72,0-31.37-4.32-4.32-10.01-6.49-15.69-6.49Z"/>
      </g>
    </g>
    <g>
      <g>
        <g>
          <path class="cls-7" d="M875.97,870.05c-9.42,9.42-31.91,16.64-41.34,7.21-9.42-9.42-2.21-31.91,7.21-41.34,9.42-9.42,24.7-9.42,34.12,0,9.42,9.42,9.42,24.7,0,34.12Z"/>
          <path class="cls-5" d="M847.29,883.96c-5.98,0-10.9-1.73-14.27-5.09-4.85-4.85-6.29-12.94-4.07-22.78,1.89-8.36,6.21-16.7,11.28-21.77,10.29-10.29,27.04-10.29,37.34,0,10.29,10.29,10.29,27.04,0,37.34-5.07,5.07-13.41,9.39-21.77,11.28-3.01.68-5.87,1.02-8.51,1.02ZM858.9,831.15c-5.6,0-11.19,2.13-15.46,6.39-4.43,4.43-8.38,12.11-10.06,19.56-1.84,8.14-.8,14.91,2.85,18.56,3.65,3.65,10.42,4.69,18.56,2.85,7.46-1.68,15.13-5.64,19.56-10.06,8.52-8.52,8.52-22.39,0-30.91-4.26-4.26-9.86-6.39-15.45-6.39Z"/>
        </g>
        <g>
          <path class="cls-7" d="M817.85,928.18c9.42-9.42,16.64-31.91,7.21-41.34-9.42-9.42-31.91-2.21-41.34,7.21-9.42,9.42-9.42,24.7,0,34.12,9.42,9.42,24.7,9.42,34.12,0Z"/>
          <path class="cls-5" d="M800.78,937.5c-6.76,0-13.52-2.57-18.67-7.72-10.29-10.29-10.29-27.04,0-37.34,5.07-5.07,13.41-9.39,21.77-11.28,9.84-2.22,17.93-.78,22.78,4.07,4.85,4.85,6.29,12.94,4.07,22.78-1.89,8.36-6.21,16.7-11.28,21.77h0c-5.15,5.15-11.91,7.72-18.67,7.72ZM812.32,884.7c-2.29,0-4.79.29-7.43.89-7.46,1.69-15.13,5.64-19.56,10.06-4.13,4.13-6.4,9.62-6.4,15.46s2.27,11.33,6.4,15.45c8.52,8.52,22.39,8.52,30.91,0h0c4.43-4.43,8.38-12.11,10.06-19.56,1.84-8.14.8-14.91-2.85-18.56-2.47-2.47-6.36-3.74-11.13-3.74Z"/>
        </g>
        <g>
          <path class="cls-7" d="M841.84,928.18c-9.42-9.42-16.64-31.91-7.21-41.34,9.42-9.42,31.91-2.21,41.34,7.21,9.42,9.42,9.42,24.7,0,34.12s-24.7,9.42-34.12,0Z"/>
          <path class="cls-5" d="M858.9,937.5c-6.76,0-13.52-2.57-18.67-7.72-5.07-5.07-9.39-13.41-11.28-21.77-2.22-9.84-.78-17.93,4.07-22.78,4.85-4.85,12.94-6.29,22.78-4.07,8.36,1.89,16.7,6.21,21.77,11.28,10.29,10.29,10.29,27.04,0,37.34-5.15,5.15-11.91,7.72-18.67,7.72ZM847.36,884.7c-4.77,0-8.66,1.27-11.13,3.74-3.65,3.65-4.69,10.42-2.85,18.56,1.69,7.46,5.64,15.13,10.06,19.56,8.52,8.52,22.39,8.52,30.91,0,8.52-8.52,8.52-22.39,0-30.91-4.43-4.43-12.11-8.38-19.56-10.06-2.64-.6-5.14-.89-7.43-.89Z"/>
        </g>
        <g>
          <path class="cls-7" d="M783.72,870.05c9.42,9.42,31.91,16.64,41.34,7.21,9.42-9.42,2.21-31.91-7.21-41.34-9.42-9.42-24.7-9.42-34.12,0-9.42,9.42-9.42,24.7,0,34.12Z"/>
          <path class="cls-5" d="M812.4,883.96c-2.64,0-5.49-.34-8.51-1.02-8.36-1.89-16.7-6.21-21.77-11.28-10.29-10.29-10.29-27.04,0-37.34,10.29-10.29,27.04-10.29,37.34,0,5.07,5.07,9.39,13.41,11.28,21.77,2.22,9.84.78,17.93-4.07,22.78-3.36,3.36-8.28,5.09-14.27,5.09ZM800.78,831.15c-5.6,0-11.19,2.13-15.46,6.39-8.52,8.52-8.52,22.39,0,30.91,4.43,4.43,12.11,8.38,19.56,10.06,8.14,1.84,14.91.8,18.56-2.85,3.65-3.65,4.69-10.42,2.85-18.56-1.69-7.46-5.64-15.13-10.06-19.56-4.26-4.26-9.86-6.39-15.46-6.39Z"/>
        </g>
      </g>
      <g>
        <polygon class="cls-3" points="857.12 854.78 839.13 882.05 857.12 909.33 829.84 891.34 802.57 909.33 820.56 882.05 802.57 854.78 829.84 872.77 857.12 854.78"/>
        <path class="cls-5" d="M865.11,917.32l-35.27-23.26-35.27,23.26,23.26-35.27-23.26-35.27,35.27,23.26,35.27-23.26-23.26,35.27,23.26,35.27ZM810.56,862.77l12.72,19.28-12.72,19.28,19.28-12.72,19.28,12.72-12.72-19.28,12.72-19.28-19.28,12.72-19.28-12.72Z"/>
      </g>
      <g>
        <circle class="cls-2" cx="829.84" cy="882.05" r="24.13"/>
        <path class="cls-5" d="M829.84,908.13c-6.97,0-13.51-2.71-18.44-7.64-10.17-10.17-10.17-26.71,0-36.88s26.71-10.17,36.88,0c10.17,10.17,10.17,26.71,0,36.88-4.92,4.93-11.47,7.64-18.44,7.64ZM829.84,859.88c-5.68,0-11.36,2.16-15.68,6.49-8.65,8.65-8.65,22.72,0,31.37,4.19,4.19,9.76,6.5,15.68,6.5s11.5-2.31,15.69-6.5c8.65-8.65,8.65-22.72,0-31.37-4.32-4.32-10.01-6.49-15.69-6.49Z"/>
      </g>
    </g>
    <g>
      <g>
        <g>
          <path class="cls-7" d="M985.66,870.05c-9.42,9.42-31.91,16.64-41.34,7.21-9.42-9.42-2.21-31.91,7.21-41.34,9.42-9.42,24.7-9.42,34.12,0,9.42,9.42,9.42,24.7,0,34.12Z"/>
          <path class="cls-5" d="M956.98,883.96c-5.98,0-10.9-1.73-14.27-5.09-4.85-4.85-6.29-12.94-4.07-22.78,1.89-8.36,6.21-16.7,11.28-21.77,10.29-10.29,27.04-10.29,37.34,0,10.29,10.29,10.29,27.04,0,37.34-5.07,5.07-13.41,9.39-21.77,11.28-3.01.68-5.87,1.02-8.51,1.02ZM968.6,831.15c-5.6,0-11.19,2.13-15.46,6.39-4.43,4.43-8.38,12.11-10.06,19.56-1.84,8.14-.8,14.91,2.85,18.56s10.42,4.69,18.56,2.85c7.46-1.68,15.13-5.64,19.56-10.06,8.52-8.52,8.52-22.39,0-30.91-4.26-4.26-9.86-6.39-15.45-6.39Z"/>
        </g>
        <g>
          <path class="cls-7" d="M927.54,928.18c9.42-9.42,16.64-31.91,7.21-41.34-9.42-9.42-31.91-2.21-41.34,7.21-9.42,9.42-9.42,24.7,0,34.12,9.42,9.42,24.7,9.42,34.12,0Z"/>
          <path class="cls-5" d="M910.48,937.5c-6.76,0-13.52-2.57-18.67-7.72-10.29-10.29-10.29-27.04,0-37.34,5.07-5.07,13.41-9.39,21.77-11.28,9.84-2.22,17.93-.78,22.78,4.07,4.85,4.85,6.29,12.94,4.07,22.78-1.89,8.36-6.21,16.7-11.28,21.77h0c-5.15,5.15-11.91,7.72-18.67,7.72ZM922.02,884.7c-2.29,0-4.79.29-7.43.89-7.46,1.69-15.13,5.64-19.56,10.06-8.52,8.52-8.52,22.39,0,30.91s22.39,8.52,30.91,0c4.43-4.43,8.38-12.11,10.06-19.56,1.84-8.14.8-14.91-2.85-18.56-2.47-2.47-6.36-3.74-11.13-3.74Z"/>
        </g>
        <g>
          <path class="cls-7" d="M951.54,928.18c-9.42-9.42-16.64-31.91-7.21-41.34,9.42-9.42,31.91-2.21,41.34,7.21,9.42,9.42,9.42,24.7,0,34.12-9.42,9.42-24.7,9.42-34.12,0Z"/>
          <path class="cls-5" d="M968.6,937.5c-6.76,0-13.52-2.57-18.67-7.72-5.07-5.07-9.39-13.41-11.28-21.77-2.22-9.84-.78-17.93,4.07-22.78,4.85-4.85,12.94-6.29,22.78-4.07,8.36,1.89,16.7,6.21,21.77,11.28,10.29,10.29,10.29,27.04,0,37.34-5.15,5.15-11.91,7.72-18.67,7.72ZM957.06,884.7c-4.77,0-8.66,1.27-11.13,3.74-3.65,3.65-4.69,10.42-2.85,18.56,1.69,7.46,5.64,15.13,10.06,19.56,8.52,8.52,22.39,8.52,30.91,0,8.52-8.52,8.52-22.39,0-30.91-4.43-4.43-12.11-8.38-19.56-10.06-2.64-.6-5.14-.89-7.43-.89Z"/>
        </g>
        <g>
          <path class="cls-7" d="M893.42,870.05c9.42,9.42,31.91,16.64,41.34,7.21,9.42-9.42,2.21-31.91-7.21-41.34-9.42-9.42-24.7-9.42-34.12,0-9.42,9.42-9.42,24.7,0,34.12Z"/>
          <path class="cls-5" d="M922.09,883.96c-2.64,0-5.49-.34-8.51-1.02-8.36-1.89-16.7-6.21-21.77-11.28-10.29-10.29-10.29-27.04,0-37.34,10.29-10.29,27.04-10.29,37.34,0,5.07,5.07,9.39,13.41,11.28,21.77,2.22,9.84.78,17.93-4.07,22.78-3.36,3.36-8.28,5.09-14.27,5.09ZM910.48,831.14c-5.84,0-11.33,2.27-15.46,6.4-8.52,8.52-8.52,22.39,0,30.91,4.43,4.43,12.11,8.38,19.56,10.06,8.14,1.84,14.91.8,18.56-2.85,3.65-3.65,4.69-10.42,2.85-18.56-1.69-7.46-5.64-15.13-10.06-19.56-4.13-4.13-9.62-6.4-15.46-6.4Z"/>
        </g>
      </g>
      <g>
        <polygon class="cls-3" points="966.81 854.78 948.83 882.05 966.81 909.33 939.54 891.34 912.26 909.33 930.25 882.05 912.26 854.78 939.54 872.77 966.81 854.78"/>
        <path class="cls-5" d="M974.81,917.32l-35.27-23.26-35.27,23.26,23.26-35.27-23.26-35.27,35.27,23.26,35.27-23.26-23.26,35.27,23.26,35.27ZM920.26,862.77l12.72,19.28-12.72,19.28,19.28-12.72,19.28,12.72-12.72-19.28,12.72-19.28-19.28,12.72-19.28-12.72Z"/>
      </g>
      <g>
        <circle class="cls-2" cx="939.54" cy="882.05" r="24.13"/>
        <path class="cls-5" d="M939.54,908.13c-6.97,0-13.51-2.71-18.44-7.64-10.17-10.17-10.17-26.71,0-36.88,10.17-10.17,26.71-10.17,36.88,0,10.17,10.17,10.17,26.71,0,36.88-4.92,4.93-11.47,7.64-18.44,7.64ZM939.54,859.88c-5.68,0-11.36,2.16-15.68,6.49-8.65,8.65-8.65,22.72,0,31.37,4.19,4.19,9.76,6.5,15.68,6.5s11.5-2.31,15.69-6.5c8.65-8.65,8.65-22.72,0-31.37-4.32-4.32-10.01-6.49-15.69-6.49Z"/>
      </g>
    </g>
  </g>
  <g>
    <g>
      <g>
        <path class="cls-1" d="M261.34,345.49c-24.11,24.11-81.64,42.56-105.75,18.45-24.11-24.11-5.65-81.64,18.45-105.75s63.19-24.11,87.3,0c24.11,24.11,24.11,63.19,0,87.3Z"/>
        <path class="cls-4" d="M188.1,377.49c-13.5,0-25.73-3.51-34.14-11.92-24.99-24.99-6.71-83.84,18.45-109.01,24.97-24.97,65.59-24.97,90.56,0,24.97,24.97,24.97,65.59,0,90.56-16.7,16.7-48.24,30.37-74.87,30.37ZM217.69,242.44c-15.22,0-30.43,5.79-42.02,17.38-11.77,11.77-22.24,32.08-26.69,51.75-2.93,12.95-5.75,36.75,8.23,50.74,13.98,13.98,37.79,11.16,50.74,8.23,19.67-4.45,39.99-14.92,51.75-26.69l1.63,1.63-1.63-1.63c23.17-23.17,23.17-60.87,0-84.04-11.58-11.58-26.8-17.38-42.02-17.38Z"/>
      </g>
      <g>
        <path class="cls-1" d="M112.65,494.17c24.11-24.11,42.56-81.64,18.45-105.75-24.11-24.11-81.64-5.65-105.75,18.45-24.11,24.11-24.11,63.19,0,87.3,24.11,24.11,63.19,24.11,87.3,0Z"/>
        <path class="cls-4" d="M69,514.53c-16.4,0-32.79-6.24-45.28-18.72-24.97-24.97-24.97-65.59,0-90.56,25.17-25.17,84.01-43.45,109.01-18.45,11.52,11.52,14.89,31.06,9.47,55.01-4.7,20.78-15.4,41.47-27.92,54l-1.63-1.63,1.63,1.63c-12.48,12.48-28.88,18.72-45.28,18.72ZM98.84,379.42c-7.58,0-14.77,1.19-20.11,2.4-19.67,4.45-39.99,14.92-51.75,26.69-11.22,11.22-17.4,26.15-17.4,42.02s6.18,30.79,17.4,42.02c11.22,11.22,26.15,17.4,42.02,17.4s30.79-6.18,42.02-17.4c11.77-11.77,22.24-32.08,26.69-51.75,2.93-12.95,5.75-36.75-8.23-50.74-8.22-8.22-19.83-10.63-30.63-10.63Z"/>
      </g>
      <g>
        <path class="cls-1" d="M174.04,494.17c-24.11-24.11-42.56-81.64-18.45-105.75,24.11-24.11,81.64-5.65,105.75,18.45,24.11,24.11,24.11,63.19,0,87.3-24.11,24.11-63.19,24.11-87.3,0Z"/>
        <path class="cls-4" d="M217.69,514.53c-16.4,0-32.79-6.24-45.28-18.72-25.17-25.17-43.45-84.01-18.45-109.01,24.99-24.99,83.84-6.71,109.01,18.45,24.97,24.97,24.97,65.59,0,90.56-12.48,12.48-28.88,18.72-45.28,18.72ZM175.67,492.54c23.17,23.17,60.87,23.17,84.03,0,23.17-23.17,23.17-60.87,0-84.04-11.77-11.77-32.08-22.24-51.75-26.69-12.95-2.93-36.75-5.75-50.74,8.23-13.98,13.98-11.16,37.79-8.23,50.74,4.45,19.67,14.92,39.99,26.69,51.75Z"/>
      </g>
      <g>
        <path class="cls-1" d="M25.35,345.49c24.11,24.11,81.64,42.56,105.75,18.45,24.11-24.11,5.65-81.64-18.45-105.75s-63.19-24.11-87.3,0c-24.11,24.11-24.11,63.19,0,87.3Z"/>
        <path class="cls-4" d="M98.59,377.49c-26.63,0-58.16-13.67-74.87-30.37-24.97-24.97-24.97-65.59,0-90.56,24.97-24.97,65.59-24.97,90.56,0,12.53,12.53,23.23,33.22,27.92,54,5.41,23.95,2.05,43.49-9.47,55.01-8.41,8.41-20.65,11.92-34.14,11.92ZM69,242.42c-15.87,0-30.79,6.18-42.02,17.4-11.22,11.22-17.4,26.15-17.4,42.02s6.18,30.79,17.4,42.02c11.77,11.77,32.08,22.24,51.75,26.69,12.95,2.93,36.75,5.75,50.74-8.23,13.98-13.98,11.16-37.79,8.23-50.74-4.45-19.67-14.92-39.99-26.69-51.75-11.22-11.22-26.15-17.4-42.02-17.4Z"/>
      </g>
    </g>
    <g>
      <polygon class="cls-3" points="213.12 306.41 167.1 376.18 213.12 445.95 143.35 399.94 73.57 445.95 119.59 376.18 73.57 306.41 143.35 352.42 213.12 306.41"/>
      <path class="cls-4" d="M221.23,454.07l-77.88-51.37-77.88,51.37,51.37-77.88-51.37-77.88,77.88,51.37,77.88-51.37-51.37,77.88,51.37,77.88ZM143.35,397.18l61.66,40.67-40.67-61.66,40.67-61.66-61.66,40.67-61.66-40.67,40.67,61.66-40.67,61.66,61.66-40.67Z"/>
    </g>
    <g>
      <circle class="cls-6" cx="143.35" cy="376.18" r="61.73"/>
      <path class="cls-4" d="M143.35,439.85c-16.31,0-32.63-6.21-45.04-18.63-24.84-24.84-24.84-65.25,0-90.09,24.84-24.84,65.25-24.84,90.09,0,12.03,12.03,18.66,28.03,18.66,45.04s-6.63,33.01-18.66,45.05l-1.4-1.4,1.4,1.4c-12.42,12.42-28.73,18.63-45.04,18.63ZM143.35,316.46c-15.3,0-30.6,5.82-42.25,17.47-23.3,23.3-23.3,61.2,0,84.5,23.3,23.3,61.2,23.3,84.5,0,11.29-11.29,17.5-26.29,17.5-42.25s-6.22-30.96-17.5-42.25c-11.65-11.65-26.95-17.47-42.25-17.47Z"/>
    </g>
  </g>
  <g>
    <g>
      <g>
        <path class="cls-1" d="M500.7,603.52c-24.11,24.11-81.64,42.56-105.75,18.45-24.11-24.11-5.65-81.64,18.45-105.75,24.11-24.11,63.19-24.11,87.3,0s24.11,63.19,0,87.3Z"/>
        <path class="cls-4" d="M427.46,635.52c-13.5,0-25.73-3.51-34.14-11.92-11.52-11.52-14.89-31.06-9.47-55.01,4.7-20.78,15.4-41.47,27.92-54,24.97-24.97,65.59-24.97,90.56,0,24.97,24.97,24.97,65.59,0,90.56-16.7,16.7-48.24,30.37-74.87,30.37ZM457.05,500.48c-15.22,0-30.43,5.79-42.02,17.38-11.77,11.77-22.24,32.08-26.69,51.75-2.93,12.95-5.75,36.75,8.23,50.74,13.98,13.98,37.79,11.16,50.74,8.23,19.67-4.45,39.99-14.92,51.75-26.69l1.63,1.63-1.63-1.63c11.22-11.22,17.4-26.15,17.4-42.02s-6.18-30.79-17.4-42.02c-11.58-11.58-26.8-17.38-42.02-17.38Z"/>
      </g>
      <g>
        <path class="cls-1" d="M352.02,752.2c24.11-24.11,42.56-81.64,18.45-105.75-24.11-24.11-81.64-5.65-105.75,18.45-24.11,24.11-24.11,63.19,0,87.3,24.11,24.11,63.19,24.11,87.3,0Z"/>
        <path class="cls-4" d="M308.37,772.56c-16.4,0-32.79-6.24-45.28-18.72-24.97-24.97-24.97-65.59,0-90.56,25.17-25.17,84.01-43.45,109.01-18.45,11.52,11.52,14.89,31.06,9.47,55.01-4.7,20.78-15.4,41.47-27.92,54l-1.63-1.63,1.63,1.63c-12.48,12.48-28.88,18.72-45.28,18.72ZM338.21,637.46c-7.58,0-14.77,1.19-20.11,2.4-19.67,4.45-39.99,14.92-51.75,26.69-23.17,23.17-23.17,60.87,0,84.04,23.17,23.17,60.87,23.17,84.03,0h0c11.77-11.77,22.24-32.08,26.69-51.75,2.93-12.95,5.75-36.75-8.23-50.74-8.22-8.22-19.83-10.63-30.63-10.63Z"/>
      </g>
      <g>
        <path class="cls-1" d="M413.41,752.2c-24.11-24.11-42.56-81.64-18.45-105.75,24.11-24.11,81.64-5.65,105.75,18.45,24.11,24.11,24.11,63.19,0,87.3-24.11,24.11-63.19,24.11-87.3,0Z"/>
        <path class="cls-4" d="M457.05,772.56c-16.4,0-32.79-6.24-45.28-18.72-12.53-12.53-23.23-33.22-27.92-54-5.41-23.95-2.05-43.49,9.47-55.01,24.99-24.99,83.84-6.72,109.01,18.45,24.97,24.97,24.97,65.59,0,90.56-12.48,12.48-28.88,18.72-45.28,18.72ZM427.21,637.46c-10.8,0-22.41,2.41-30.63,10.63-13.98,13.98-11.16,37.79-8.23,50.74,4.45,19.67,14.92,39.99,26.69,51.75h0c23.17,23.17,60.87,23.17,84.03,0,11.22-11.22,17.4-26.15,17.4-42.02s-6.18-30.79-17.4-42.02c-11.77-11.77-32.08-22.24-51.75-26.69-5.34-1.21-12.52-2.4-20.11-2.4Z"/>
      </g>
      <g>
        <path class="cls-1" d="M264.72,603.52c24.11,24.11,81.64,42.56,105.75,18.45,24.11-24.11,5.65-81.64-18.45-105.75s-63.19-24.11-87.3,0c-24.11,24.11-24.11,63.19,0,87.3Z"/>
        <path class="cls-4" d="M337.96,635.52c-26.63,0-58.16-13.67-74.87-30.37-24.97-24.97-24.97-65.59,0-90.56,24.97-24.97,65.59-24.97,90.56,0,12.53,12.53,23.23,33.22,27.92,54,5.41,23.95,2.05,43.49-9.47,55.01-8.41,8.41-20.65,11.92-34.14,11.92ZM266.35,601.89c11.77,11.77,32.08,22.24,51.75,26.69,12.95,2.93,36.75,5.75,50.74-8.23,13.98-13.98,11.16-37.79,8.23-50.74-4.45-19.67-14.92-39.99-26.69-51.75-23.17-23.17-60.87-23.17-84.03,0-23.17,23.17-23.17,60.87,0,84.04Z"/>
      </g>
    </g>
    <g>
      <polygon class="cls-3" points="452.48 564.44 406.47 634.21 452.48 703.99 382.71 657.97 312.94 703.99 358.95 634.21 312.94 564.44 382.71 610.46 452.48 564.44"/>
      <path class="cls-4" d="M460.6,712.1l-77.88-51.37-77.88,51.37,51.37-77.88-51.37-77.88,77.88,51.37,77.88-51.37-51.37,77.88,51.37,77.88ZM321.05,572.55l40.67,61.66-40.67,61.66,61.66-40.67,61.66,40.67-40.67-61.66,40.67-61.66-61.66,40.67-61.66-40.67Z"/>
    </g>
    <g>
      <circle class="cls-6" cx="382.71" cy="634.21" r="61.73"/>
      <path class="cls-4" d="M382.71,697.89c-16.31,0-32.63-6.21-45.04-18.63-24.84-24.84-24.84-65.25,0-90.09,24.84-24.84,65.25-24.84,90.09,0,24.84,24.84,24.84,65.25,0,90.09-12.42,12.42-28.73,18.63-45.04,18.63ZM382.71,574.49c-15.3,0-30.6,5.82-42.25,17.47-23.3,23.3-23.3,61.2,0,84.5,23.3,23.3,61.2,23.3,84.5,0l1.4,1.4-1.4-1.4c23.3-23.3,23.3-61.2,0-84.5-11.65-11.65-26.95-17.47-42.25-17.47Z"/>
    </g>
  </g>
  <g>
    <g>
      <g>
        <path class="cls-1" d="M734.12,345.49c-24.11,24.11-81.64,42.56-105.75,18.45-24.11-24.11-5.65-81.64,18.45-105.75,24.11-24.11,63.19-24.11,87.3,0,24.11,24.11,24.11,63.19,0,87.3Z"/>
        <path class="cls-4" d="M660.88,377.49c-13.5,0-25.73-3.51-34.14-11.92-24.99-24.99-6.71-83.84,18.45-109.01,24.97-24.97,65.59-24.97,90.56,0,24.97,24.97,24.97,65.59,0,90.56-16.7,16.7-48.24,30.37-74.87,30.37ZM690.47,242.44c-15.22,0-30.43,5.79-42.02,17.38-11.77,11.77-22.24,32.08-26.69,51.75-2.93,12.95-5.75,36.75,8.23,50.74,13.98,13.98,37.79,11.16,50.74,8.23,19.67-4.45,39.99-14.92,51.75-26.69l1.63,1.63-1.63-1.63c23.17-23.17,23.17-60.87,0-84.04-11.58-11.58-26.8-17.38-42.02-17.38Z"/>
      </g>
      <g>
        <path class="cls-1" d="M585.43,494.17c24.11-24.11,42.56-81.64,18.45-105.75-24.11-24.11-81.64-5.65-105.75,18.45-24.11,24.11-24.11,63.19,0,87.3,24.11,24.11,63.19,24.11,87.3,0Z"/>
        <path class="cls-4" d="M541.79,514.53c-16.4,0-32.79-6.24-45.28-18.72-24.97-24.97-24.97-65.59,0-90.56,25.17-25.17,84.01-43.45,109.01-18.45,11.52,11.52,14.89,31.06,9.47,55.01-4.7,20.78-15.4,41.47-27.92,54l-1.63-1.63,1.63,1.63c-12.48,12.48-28.88,18.72-45.28,18.72ZM571.63,379.42c-7.58,0-14.77,1.19-20.11,2.4-19.67,4.45-39.99,14.92-51.75,26.69-11.22,11.22-17.4,26.15-17.4,42.02s6.18,30.79,17.4,42.02c11.22,11.22,26.15,17.4,42.02,17.4s30.79-6.18,42.02-17.4c11.77-11.77,22.24-32.08,26.69-51.75,2.93-12.95,5.75-36.75-8.23-50.74-8.22-8.22-19.83-10.63-30.63-10.63Z"/>
      </g>
      <g>
        <path class="cls-1" d="M646.82,494.17c-24.11-24.11-42.56-81.64-18.45-105.75,24.11-24.11,81.64-5.65,105.75,18.45,24.11,24.11,24.11,63.19,0,87.3-24.11,24.11-63.19,24.11-87.3,0Z"/>
        <path class="cls-4" d="M690.47,514.53c-16.4,0-32.79-6.24-45.28-18.72-25.17-25.17-43.45-84.01-18.45-109.01,24.99-24.99,83.84-6.71,109.01,18.45,24.97,24.97,24.97,65.59,0,90.56-12.48,12.48-28.88,18.72-45.28,18.72ZM648.45,492.54c23.17,23.17,60.87,23.17,84.03,0,23.17-23.17,23.17-60.87,0-84.04-11.77-11.77-32.08-22.24-51.75-26.69-12.95-2.93-36.75-5.75-50.74,8.23-13.98,13.98-11.16,37.79-8.23,50.74,4.45,19.67,14.92,39.99,26.69,51.75Z"/>
      </g>
      <g>
        <path class="cls-1" d="M498.14,345.49c24.11,24.11,81.64,42.56,105.75,18.45s5.65-81.64-18.45-105.75c-24.11-24.11-63.19-24.11-87.3,0-24.11,24.11-24.11,63.19,0,87.3Z"/>
        <path class="cls-4" d="M571.38,377.49c-26.63,0-58.16-13.67-74.87-30.37-24.97-24.97-24.97-65.59,0-90.56,24.97-24.97,65.59-24.97,90.56,0,12.53,12.53,23.23,33.22,27.92,54,5.41,23.95,2.05,43.49-9.47,55.01-8.41,8.41-20.65,11.92-34.14,11.92ZM541.79,242.42c-15.87,0-30.79,6.18-42.02,17.4s-17.4,26.15-17.4,42.02,6.18,30.79,17.4,42.02c11.77,11.77,32.08,22.24,51.75,26.69,12.95,2.93,36.75,5.75,50.74-8.23,13.98-13.98,11.16-37.79,8.23-50.74-4.45-19.67-14.92-39.99-26.69-51.75-11.22-11.22-26.15-17.4-42.02-17.4Z"/>
      </g>
    </g>
    <g>
      <polygon class="cls-3" points="685.9 306.41 639.89 376.18 685.9 445.95 616.13 399.94 546.36 445.95 592.37 376.18 546.36 306.41 616.13 352.42 685.9 306.41"/>
      <path class="cls-4" d="M694.01,454.07l-77.88-51.37-77.88,51.37,51.37-77.88-51.37-77.88,77.88,51.37,77.88-51.37-51.37,77.88,51.37,77.88ZM616.13,397.18l61.66,40.67-40.67-61.66,40.67-61.66-61.66,40.67-61.66-40.67,40.67,61.66-40.67,61.66,61.66-40.67Z"/>
    </g>
    <g>
      <circle class="cls-6" cx="616.13" cy="376.18" r="61.73"/>
      <path class="cls-4" d="M616.13,439.85c-16.31,0-32.63-6.21-45.04-18.63-24.84-24.84-24.84-65.25,0-90.09,24.84-24.84,65.25-24.84,90.09,0,12.03,12.03,18.66,28.03,18.66,45.04s-6.63,33.01-18.66,45.05l-1.4-1.4,1.4,1.4c-12.42,12.42-28.73,18.63-45.04,18.63ZM616.13,316.46c-15.3,0-30.6,5.82-42.25,17.47-23.3,23.3-23.3,61.2,0,84.5,23.3,23.3,61.2,23.3,84.5,0,11.29-11.29,17.5-26.29,17.5-42.25s-6.22-30.96-17.5-42.25c-11.65-11.65-26.95-17.47-42.25-17.47Z"/>
    </g>
  </g>
  <g>
    <g>
      <g>
        <path class="cls-1" d="M973.49,603.52c-24.11,24.11-81.64,42.56-105.75,18.45-24.11-24.11-5.65-81.64,18.45-105.75,24.11-24.11,63.19-24.11,87.3,0,24.11,24.11,24.11,63.19,0,87.3Z"/>
        <path class="cls-4" d="M900.25,635.52c-13.5,0-25.73-3.51-34.14-11.92-11.52-11.52-14.89-31.06-9.47-55.01,4.7-20.78,15.4-41.47,27.92-54,24.97-24.97,65.59-24.97,90.56,0,24.97,24.97,24.97,65.59,0,90.56-16.7,16.7-48.24,30.37-74.87,30.37ZM929.84,500.48c-15.22,0-30.43,5.79-42.02,17.38-11.77,11.77-22.24,32.08-26.69,51.75-2.93,12.95-5.75,36.75,8.23,50.74,13.98,13.98,37.79,11.16,50.74,8.23,19.67-4.45,39.99-14.92,51.75-26.69l1.63,1.63-1.63-1.63c11.22-11.22,17.4-26.15,17.4-42.02s-6.18-30.79-17.4-42.02c-11.58-11.58-26.8-17.38-42.02-17.38Z"/>
      </g>
      <g>
        <path class="cls-1" d="M824.8,752.2c24.11-24.11,42.56-81.64,18.45-105.75-24.11-24.11-81.64-5.65-105.75,18.45s-24.11,63.19,0,87.3c24.11,24.11,63.19,24.11,87.3,0Z"/>
        <path class="cls-4" d="M781.15,772.56c-16.4,0-32.79-6.24-45.28-18.72-24.97-24.97-24.97-65.59,0-90.56,25.17-25.17,84.01-43.45,109.01-18.45,11.52,11.52,14.89,31.06,9.47,55.01-4.7,20.78-15.4,41.47-27.92,54l-1.63-1.63,1.63,1.63c-12.48,12.48-28.88,18.72-45.28,18.72ZM810.99,637.46c-7.58,0-14.77,1.19-20.11,2.4-19.67,4.45-39.99,14.92-51.75,26.69-23.17,23.17-23.17,60.87,0,84.04,23.17,23.17,60.87,23.17,84.03,0h0c11.77-11.77,22.24-32.08,26.69-51.75,2.93-12.95,5.75-36.75-8.23-50.74-8.22-8.22-19.83-10.63-30.63-10.63Z"/>
      </g>
      <g>
        <path class="cls-1" d="M886.19,752.2c-24.11-24.11-42.56-81.64-18.45-105.75,24.11-24.11,81.64-5.65,105.75,18.45,24.11,24.11,24.11,63.19,0,87.3-24.11,24.11-63.19,24.11-87.3,0Z"/>
        <path class="cls-4" d="M929.84,772.56c-16.4,0-32.79-6.24-45.28-18.72-12.53-12.53-23.23-33.22-27.92-54-5.41-23.95-2.05-43.49,9.47-55.01,24.99-24.99,83.84-6.72,109.01,18.45,24.97,24.97,24.97,65.59,0,90.56-12.48,12.48-28.88,18.72-45.28,18.72ZM900,637.46c-10.8,0-22.41,2.41-30.63,10.63-13.98,13.98-11.16,37.79-8.23,50.74,4.45,19.67,14.92,39.99,26.69,51.75h0c23.17,23.17,60.87,23.17,84.03,0,11.22-11.22,17.4-26.15,17.4-42.02s-6.18-30.79-17.4-42.02c-11.77-11.77-32.08-22.24-51.75-26.69-5.34-1.21-12.52-2.4-20.11-2.4Z"/>
      </g>
      <g>
        <path class="cls-1" d="M737.5,603.52c24.11,24.11,81.64,42.56,105.75,18.45,24.11-24.11,5.65-81.64-18.45-105.75-24.11-24.11-63.19-24.11-87.3,0-24.11,24.11-24.11,63.19,0,87.3Z"/>
        <path class="cls-4" d="M810.74,635.52c-26.63,0-58.16-13.67-74.87-30.37-24.97-24.97-24.97-65.59,0-90.56,24.97-24.97,65.59-24.97,90.56,0,12.53,12.53,23.23,33.22,27.92,54,5.41,23.95,2.05,43.49-9.47,55.01-8.41,8.41-20.65,11.92-34.14,11.92ZM739.13,601.89c11.77,11.77,32.08,22.24,51.75,26.69,12.95,2.93,36.75,5.75,50.74-8.23,13.98-13.98,11.16-37.79,8.23-50.74-4.45-19.67-14.92-39.99-26.69-51.75-23.17-23.17-60.87-23.17-84.03,0-23.17,23.17-23.17,60.87,0,84.04Z"/>
      </g>
    </g>
    <g>
      <polygon class="cls-3" points="925.27 564.44 879.25 634.21 925.27 703.99 855.49 657.97 785.72 703.99 831.74 634.21 785.72 564.44 855.49 610.46 925.27 564.44"/>
      <path class="cls-4" d="M933.38,712.1l-77.88-51.37-77.88,51.37,51.37-77.88-51.37-77.88,77.88,51.37,77.88-51.37-51.37,77.88,51.37,77.88ZM793.83,572.55l40.67,61.66-40.67,61.66,61.66-40.67,61.66,40.67-40.67-61.66,40.67-61.66-61.66,40.67-61.66-40.67Z"/>
    </g>
    <g>
      <circle class="cls-6" cx="855.49" cy="634.21" r="61.73"/>
      <path class="cls-4" d="M855.49,697.89c-16.31,0-32.63-6.21-45.04-18.63-24.84-24.84-24.84-65.25,0-90.09,24.84-24.84,65.25-24.84,90.09,0,24.84,24.84,24.84,65.25,0,90.09-12.42,12.42-28.73,18.63-45.04,18.63ZM855.49,574.49c-15.3,0-30.6,5.82-42.25,17.47-23.3,23.3-23.3,61.2,0,84.5,23.3,23.3,61.2,23.3,84.5,0l1.4,1.4-1.4-1.4c23.3-23.3,23.3-61.2,0-84.5-11.65-11.65-26.95-17.47-42.25-17.47Z"/>
    </g>
  </g>
</svg>