<?xml version="1.0" encoding="UTF-8"?>
<svg id="Layer_9" data-name="Layer 9" xmlns="http://www.w3.org/2000/svg" viewBox="0 0 1000 1000">
  <defs>
    <style>
      .cls-1 {
        fill: #580399;
      }

      .cls-2 {
        fill: #ffb700;
      }

      .cls-3 {
        fill: #1a0061;
      }

      .cls-4 {
        fill: #260e50;
      }

      .cls-5 {
        fill: #ffb829;
      }

      .cls-6 {
        fill: #ffb708;
      }

      .cls-7 {
        fill: #fea228;
      }

      .cls-8 {
        fill: #262142;
      }

      .cls-9 {
        fill: #2c007f;
        stroke: #fea228;
        stroke-miterlimit: 10;
        stroke-width: 18px;
      }
    </style>
  </defs>
  <g>
    <g>
      <g>
        <g>
          <g>
            <path class="cls-5" d="M893.27,845.59c9.44-9.22,31.96-16.27,41.4-7.06s2.21,31.22-7.22,40.43c-9.44,9.22-24.74,9.22-34.18,0-9.44-9.22-9.44-24.16,0-33.38Z"/>
            <path class="cls-8" d="M883.94,862.27c0-6.89,2.75-13.37,7.74-18.25,5.08-4.96,13.43-9.18,21.8-11.03,9.85-2.17,17.94-.76,22.8,3.98,4.85,4.74,6.3,12.64,4.07,22.26-1.89,8.17-6.22,16.33-11.3,21.29-10.3,10.06-27.07,10.06-37.37,0-4.99-4.87-7.74-11.36-7.74-18.25ZM936.89,850.96c0-4.36-1.13-8.25-3.81-10.87-8.4-8.21-29.45-1.5-38.21,7.06-8.54,8.34-8.54,21.92,0,30.26,8.54,8.34,22.44,8.34,30.98,0,5.96-5.82,11.04-17.18,11.04-26.44Z"/>
          </g>
          <g>
            <path class="cls-5" d="M951.49,788.73c-9.44,9.22-16.66,31.22-7.22,40.43s31.96,2.16,41.4-7.06c9.44-9.22,9.44-24.16,0-33.38-9.44-9.22-24.74-9.22-34.18,0Z"/>
            <path class="cls-8" d="M937.57,816.78c0-2.58.34-5.37,1.02-8.32,1.89-8.17,6.22-16.33,11.3-21.29,4.99-4.87,11.63-7.56,18.68-7.56s13.69,2.68,18.69,7.56c4.99,4.87,7.74,11.36,7.74,18.25s-2.75,13.37-7.74,18.25c-5.08,4.96-13.43,9.18-21.8,11.03-9.85,2.17-17.94.76-22.8-3.98-3.36-3.29-5.09-8.1-5.09-13.94ZM990.47,805.42c0-5.48-2.14-10.96-6.41-15.13-8.54-8.34-22.44-8.34-30.98,0-8.76,8.56-15.63,29.11-7.22,37.32,8.4,8.21,29.45,1.5,38.21-7.06,4.27-4.17,6.41-9.65,6.41-15.13Z"/>
          </g>
          <g>
            <path class="cls-5" d="M927.45,788.73c9.44,9.22,16.66,31.22,7.22,40.43-9.44,9.22-31.96,2.16-41.4-7.06-9.44-9.22-9.44-24.16,0-33.38,9.44-9.22,24.74-9.22,34.18,0Z"/>
            <path class="cls-8" d="M883.94,805.42c0-6.89,2.75-13.37,7.74-18.25,4.99-4.87,11.63-7.56,18.69-7.56s13.69,2.68,18.68,7.56c5.08,4.96,9.4,13.12,11.3,21.29,2.23,9.62.78,17.52-4.07,22.26-4.85,4.74-12.95,6.15-22.8,3.98-8.37-1.85-16.72-6.08-21.8-11.03-4.99-4.87-7.74-11.36-7.74-18.25ZM936.89,816.73c0-9.26-5.08-20.62-11.04-26.44-8.54-8.34-22.44-8.34-30.98,0-8.54,8.34-8.54,21.92,0,30.26,8.76,8.56,29.81,15.26,38.21,7.06,2.69-2.63,3.81-6.52,3.81-10.87Z"/>
          </g>
          <g>
            <path class="cls-5" d="M985.66,845.59c-9.44-9.22-31.96-16.27-41.4-7.06-9.44,9.22-2.21,31.22,7.22,40.43,9.44,9.22,24.74,9.22,34.18,0s9.44-24.16,0-33.38Z"/>
            <path class="cls-8" d="M937.57,850.91c0-5.85,1.73-10.66,5.09-13.94,4.85-4.74,12.95-6.15,22.8-3.98,8.37,1.85,16.72,6.08,21.8,11.03,4.99,4.87,7.74,11.36,7.74,18.25s-2.75,13.37-7.74,18.25c-10.3,10.06-27.07,10.06-37.37,0-5.08-4.96-9.4-13.12-11.3-21.29-.68-2.95-1.02-5.74-1.02-8.32ZM990.47,862.28c0-5.48-2.14-10.96-6.41-15.13-8.76-8.56-29.81-15.26-38.21-7.06-8.4,8.21-1.54,28.76,7.22,37.32,8.54,8.34,22.44,8.34,30.98,0,4.27-4.17,6.41-9.65,6.41-15.13Z"/>
          </g>
        </g>
        <g>
          <polygon class="cls-6" points="912.15 860.53 930.17 833.85 912.15 807.17 939.47 824.76 966.79 807.17 948.77 833.85 966.79 860.53 939.47 842.93 912.15 860.53"/>
          <path class="cls-8" d="M904.21,799.41l35.26,22.71,35.26-22.71-23.26,34.44,23.26,34.44-35.26-22.71-35.26,22.71,23.26-34.44-23.26-34.44ZM932.87,833.85l-12.78,18.92,19.37-12.48,19.37,12.48-12.78-18.92,12.78-18.92-19.37,12.48-19.37-12.48,12.78,18.92Z"/>
        </g>
        <g>
          <path class="cls-1" d="M922.38,817.16c9.44-9.22,24.74-9.22,34.18,0,9.44,9.22,9.44,24.16,0,33.38-9.44,9.22-24.74,9.22-34.18,0-9.44-9.22-9.44-24.16,0-33.38Z"/>
          <path class="cls-8" d="M913.38,833.85c0-6.53,2.54-13.06,7.63-18.03,10.18-9.94,26.74-9.94,36.91,0,10.18,9.94,10.18,26.11,0,36.05-10.18,9.94-26.74,9.94-36.91,0-5.09-4.97-7.63-11.5-7.63-18.03ZM961.69,833.85c0-5.56-2.17-11.12-6.5-15.35-8.67-8.47-22.77-8.47-31.44,0-8.67,8.47-8.67,22.24,0,30.71,8.67,8.47,22.77,8.47,31.44,0,4.33-4.23,6.5-9.79,6.5-15.35Z"/>
        </g>
      </g>
      <g>
        <g>
          <g>
            <path class="cls-5" d="M783.41,845.59c9.44-9.22,31.96-16.27,41.4-7.06,9.44,9.22,2.21,31.22-7.22,40.43-9.44,9.22-24.74,9.22-34.18,0-9.44-9.22-9.44-24.16,0-33.38Z"/>
            <path class="cls-8" d="M774.07,862.27c0-6.89,2.75-13.37,7.74-18.25,5.08-4.96,13.43-9.18,21.8-11.03,9.85-2.17,17.94-.76,22.8,3.98,4.85,4.74,6.3,12.64,4.07,22.26-1.89,8.17-6.22,16.33-11.3,21.29-10.3,10.06-27.07,10.06-37.37,0-4.99-4.87-7.74-11.36-7.74-18.25ZM827.03,850.96c0-4.36-1.13-8.25-3.81-10.87-8.4-8.21-29.45-1.5-38.21,7.06-8.54,8.34-8.54,21.92,0,30.26,8.54,8.34,22.44,8.34,30.98,0,5.96-5.82,11.04-17.18,11.04-26.44Z"/>
          </g>
          <g>
            <path class="cls-5" d="M841.62,788.73c-9.44,9.22-16.66,31.22-7.22,40.43,9.44,9.22,31.96,2.16,41.4-7.06,9.44-9.22,9.44-24.16,0-33.38-9.44-9.22-24.74-9.22-34.18,0Z"/>
            <path class="cls-8" d="M827.71,816.78c0-2.58.34-5.37,1.02-8.32,1.89-8.17,6.22-16.33,11.3-21.29,4.99-4.87,11.63-7.56,18.68-7.56s13.69,2.68,18.69,7.56c4.99,4.87,7.74,11.36,7.74,18.25s-2.75,13.37-7.74,18.25c-5.08,4.96-13.43,9.18-21.8,11.03-9.85,2.17-17.94.76-22.8-3.98-3.36-3.29-5.09-8.1-5.09-13.94ZM880.61,805.42c0-5.48-2.14-10.96-6.41-15.13-8.54-8.34-22.44-8.34-30.98,0-8.76,8.56-15.63,29.11-7.22,37.32,8.4,8.21,29.45,1.5,38.21-7.06,4.27-4.17,6.41-9.65,6.41-15.13Z"/>
          </g>
          <g>
            <path class="cls-5" d="M817.58,788.73c9.44,9.22,16.66,31.22,7.22,40.43-9.44,9.22-31.96,2.16-41.4-7.06-9.44-9.22-9.44-24.16,0-33.38,9.44-9.22,24.74-9.22,34.18,0Z"/>
            <path class="cls-8" d="M774.07,805.42c0-6.89,2.75-13.37,7.74-18.25,4.99-4.87,11.63-7.56,18.69-7.56s13.69,2.68,18.68,7.56c5.08,4.96,9.4,13.12,11.3,21.29,2.23,9.62.78,17.52-4.07,22.26-4.85,4.74-12.95,6.15-22.8,3.98-8.37-1.85-16.72-6.08-21.8-11.03-4.99-4.87-7.74-11.36-7.74-18.25ZM827.03,816.73c0-9.26-5.08-20.62-11.04-26.44-8.54-8.34-22.44-8.34-30.98,0-8.54,8.34-8.54,21.92,0,30.26,8.76,8.56,29.81,15.26,38.21,7.06,2.69-2.63,3.81-6.52,3.81-10.87Z"/>
          </g>
          <g>
            <path class="cls-5" d="M875.8,845.59c-9.44-9.22-31.96-16.27-41.4-7.06-9.44,9.22-2.21,31.22,7.22,40.43,9.44,9.22,24.74,9.22,34.18,0,9.44-9.22,9.44-24.16,0-33.38Z"/>
            <path class="cls-8" d="M827.71,850.91c0-5.85,1.73-10.66,5.09-13.94,4.85-4.74,12.95-6.15,22.8-3.98,8.37,1.85,16.72,6.08,21.8,11.03,4.99,4.87,7.74,11.36,7.74,18.25s-2.75,13.37-7.74,18.25c-10.3,10.06-27.07,10.06-37.37,0-5.08-4.96-9.4-13.12-11.3-21.29-.68-2.95-1.02-5.74-1.02-8.32ZM880.61,862.28c0-5.48-2.14-10.96-6.41-15.13-8.76-8.56-29.81-15.26-38.21-7.06-8.4,8.21-1.54,28.76,7.22,37.32,8.54,8.34,22.44,8.34,30.98,0,4.27-4.17,6.41-9.65,6.41-15.13Z"/>
          </g>
        </g>
        <g>
          <polygon class="cls-6" points="802.28 860.53 820.3 833.85 802.28 807.17 829.6 824.76 856.92 807.17 838.9 833.85 856.92 860.53 829.6 842.93 802.28 860.53"/>
          <path class="cls-8" d="M794.34,799.41l35.26,22.71,35.26-22.71-23.26,34.44,23.26,34.44-35.26-22.71-35.26,22.71,23.26-34.44-23.26-34.44ZM823,833.85l-12.78,18.92,19.37-12.48,19.37,12.48-12.78-18.92,12.78-18.92-19.37,12.48-19.37-12.48,12.78,18.92Z"/>
        </g>
        <g>
          <path class="cls-1" d="M812.51,817.16c9.44-9.22,24.74-9.22,34.18,0,9.44,9.22,9.44,24.16,0,33.38-9.44,9.22-24.74,9.22-34.18,0-9.44-9.22-9.44-24.16,0-33.38Z"/>
          <path class="cls-8" d="M803.51,833.85c0-6.53,2.54-13.06,7.63-18.03,10.18-9.94,26.74-9.94,36.91,0,10.18,9.94,10.18,26.11,0,36.05-10.18,9.94-26.74,9.94-36.91,0-5.09-4.97-7.63-11.5-7.63-18.03ZM851.82,833.85c0-5.56-2.17-11.12-6.5-15.35-8.67-8.47-22.77-8.47-31.44,0-8.67,8.47-8.67,22.24,0,30.71,8.67,8.47,22.77,8.47,31.44,0,4.33-4.23,6.5-9.79,6.5-15.35Z"/>
        </g>
      </g>
      <g>
        <g>
          <g>
            <path class="cls-5" d="M673.54,845.59c9.44-9.22,31.96-16.27,41.4-7.06,9.44,9.22,2.21,31.22-7.22,40.43-9.44,9.22-24.74,9.22-34.18,0-9.44-9.22-9.44-24.16,0-33.38Z"/>
            <path class="cls-8" d="M664.2,862.27c0-6.89,2.75-13.37,7.74-18.25,5.08-4.96,13.43-9.18,21.8-11.03,9.85-2.17,17.94-.76,22.8,3.98,4.85,4.74,6.3,12.64,4.07,22.26-1.89,8.17-6.22,16.33-11.3,21.29-10.3,10.06-27.07,10.06-37.37,0-4.99-4.87-7.74-11.36-7.74-18.25ZM717.16,850.96c0-4.36-1.13-8.25-3.81-10.87-8.4-8.21-29.45-1.5-38.21,7.06-8.54,8.34-8.54,21.92,0,30.26,8.54,8.34,22.44,8.34,30.98,0,5.96-5.82,11.04-17.18,11.04-26.44Z"/>
          </g>
          <g>
            <path class="cls-5" d="M731.75,788.73c-9.44,9.22-16.66,31.22-7.22,40.43,9.44,9.22,31.96,2.16,41.4-7.06,9.44-9.22,9.44-24.16,0-33.38s-24.74-9.22-34.18,0Z"/>
            <path class="cls-8" d="M717.84,816.78c0-2.58.34-5.37,1.02-8.32,1.89-8.17,6.22-16.33,11.3-21.29,4.99-4.87,11.63-7.56,18.68-7.56s13.69,2.68,18.69,7.56c4.99,4.87,7.74,11.36,7.74,18.25s-2.75,13.37-7.74,18.25c-5.08,4.96-13.43,9.18-21.8,11.03-9.85,2.17-17.94.76-22.8-3.98-3.36-3.29-5.09-8.1-5.09-13.94ZM770.74,805.42c0-5.48-2.14-10.96-6.41-15.13-8.54-8.34-22.44-8.34-30.98,0-8.76,8.56-15.63,29.11-7.22,37.32,8.4,8.21,29.45,1.5,38.21-7.06,4.27-4.17,6.41-9.65,6.41-15.13Z"/>
          </g>
          <g>
            <path class="cls-5" d="M707.72,788.73c9.44,9.22,16.66,31.22,7.22,40.43-9.44,9.22-31.96,2.16-41.4-7.06-9.44-9.22-9.44-24.16,0-33.38,9.44-9.22,24.74-9.22,34.18,0Z"/>
            <path class="cls-8" d="M664.2,805.42c0-6.89,2.75-13.37,7.74-18.25,4.99-4.87,11.63-7.56,18.69-7.56s13.69,2.68,18.68,7.56c5.08,4.96,9.4,13.12,11.3,21.29,2.23,9.62.78,17.52-4.07,22.26-4.85,4.74-12.95,6.15-22.8,3.98-8.37-1.85-16.72-6.08-21.8-11.03-4.99-4.87-7.74-11.36-7.74-18.25ZM717.16,816.73c0-9.26-5.08-20.62-11.04-26.44-8.54-8.34-22.44-8.34-30.98,0-8.54,8.34-8.54,21.92,0,30.26,8.76,8.56,29.81,15.26,38.21,7.06,2.69-2.63,3.81-6.52,3.81-10.87Z"/>
          </g>
          <g>
            <path class="cls-5" d="M765.93,845.59c-9.44-9.22-31.96-16.27-41.4-7.06-9.44,9.22-2.21,31.22,7.22,40.43,9.44,9.22,24.74,9.22,34.18,0,9.44-9.22,9.44-24.16,0-33.38Z"/>
            <path class="cls-8" d="M717.84,850.91c0-5.85,1.73-10.66,5.09-13.94,4.85-4.74,12.95-6.15,22.8-3.98,8.37,1.85,16.72,6.08,21.8,11.03,4.99,4.87,7.74,11.36,7.74,18.25s-2.75,13.37-7.74,18.25c-10.3,10.06-27.07,10.06-37.37,0-5.08-4.96-9.4-13.12-11.3-21.29-.68-2.95-1.02-5.74-1.02-8.32ZM770.74,862.28c0-5.48-2.14-10.96-6.41-15.13-8.76-8.56-29.81-15.26-38.21-7.06-8.4,8.21-1.54,28.76,7.22,37.32,8.54,8.34,22.44,8.34,30.98,0,4.27-4.17,6.41-9.65,6.41-15.13Z"/>
          </g>
        </g>
        <g>
          <polygon class="cls-6" points="692.42 860.53 710.43 833.85 692.42 807.17 719.73 824.76 747.05 807.17 729.04 833.85 747.05 860.53 719.73 842.93 692.42 860.53"/>
          <path class="cls-8" d="M684.47,799.41l35.26,22.71,35.26-22.71-23.26,34.44,23.26,34.44-35.26-22.71-35.26,22.71,23.26-34.44-23.26-34.44ZM713.14,833.85l-12.78,18.92,19.37-12.48,19.37,12.48-12.78-18.92,12.78-18.92-19.37,12.48-19.37-12.48,12.78,18.92Z"/>
        </g>
        <g>
          <path class="cls-1" d="M702.65,817.16c9.44-9.22,24.74-9.22,34.18,0,9.44,9.22,9.44,24.16,0,33.38-9.44,9.22-24.74,9.22-34.18,0-9.44-9.22-9.44-24.16,0-33.38Z"/>
          <path class="cls-8" d="M693.64,833.85c0-6.53,2.54-13.06,7.63-18.03,10.18-9.94,26.74-9.94,36.91,0,10.18,9.94,10.18,26.11,0,36.05-10.18,9.94-26.74,9.94-36.91,0-5.09-4.97-7.63-11.5-7.63-18.03ZM741.96,833.85c0-5.56-2.17-11.12-6.5-15.35-8.67-8.47-22.77-8.47-31.44,0-8.67,8.47-8.67,22.24,0,30.71,8.67,8.47,22.77,8.47,31.44,0,4.33-4.23,6.5-9.79,6.5-15.35Z"/>
        </g>
      </g>
      <g>
        <g>
          <g>
            <path class="cls-5" d="M563.67,845.59c9.44-9.22,31.96-16.27,41.4-7.06s2.21,31.22-7.22,40.43c-9.44,9.22-24.74,9.22-34.18,0-9.44-9.22-9.44-24.16,0-33.38Z"/>
            <path class="cls-8" d="M554.34,862.27c0-6.89,2.75-13.37,7.74-18.25,5.08-4.96,13.43-9.18,21.8-11.03,9.85-2.17,17.94-.76,22.8,3.98,4.85,4.74,6.3,12.64,4.07,22.26-1.89,8.17-6.22,16.33-11.3,21.29-10.3,10.06-27.07,10.06-37.37,0-4.99-4.87-7.74-11.36-7.74-18.25ZM607.29,850.96c0-4.36-1.13-8.25-3.81-10.87-8.4-8.21-29.45-1.5-38.21,7.06-8.54,8.34-8.54,21.92,0,30.26,8.54,8.34,22.44,8.34,30.98,0,5.96-5.82,11.04-17.18,11.04-26.44Z"/>
          </g>
          <g>
            <path class="cls-5" d="M621.88,788.73c-9.44,9.22-16.66,31.22-7.22,40.43,9.44,9.22,31.96,2.16,41.4-7.06,9.44-9.22,9.44-24.16,0-33.38-9.44-9.22-24.74-9.22-34.18,0Z"/>
            <path class="cls-8" d="M607.97,816.78c0-2.58.34-5.37,1.02-8.32,1.89-8.17,6.22-16.33,11.3-21.29,4.99-4.87,11.63-7.56,18.68-7.56s13.69,2.68,18.69,7.56c4.99,4.87,7.74,11.36,7.74,18.25s-2.75,13.37-7.74,18.25c-5.08,4.96-13.43,9.18-21.8,11.03-9.85,2.17-17.94.76-22.8-3.98-3.36-3.29-5.09-8.1-5.09-13.94ZM660.87,805.42c0-5.48-2.14-10.96-6.41-15.13-8.54-8.34-22.44-8.34-30.98,0-8.76,8.56-15.63,29.11-7.22,37.32,8.4,8.21,29.45,1.5,38.21-7.06,4.27-4.17,6.41-9.65,6.41-15.13Z"/>
          </g>
          <g>
            <path class="cls-5" d="M597.85,788.73c9.44,9.22,16.66,31.22,7.22,40.43-9.44,9.22-31.96,2.16-41.4-7.06-9.44-9.22-9.44-24.16,0-33.38,9.44-9.22,24.74-9.22,34.18,0Z"/>
            <path class="cls-8" d="M554.34,805.42c0-6.89,2.75-13.37,7.74-18.25,4.99-4.87,11.63-7.56,18.69-7.56s13.69,2.68,18.68,7.56c5.08,4.96,9.4,13.12,11.3,21.29,2.23,9.62.78,17.52-4.07,22.26-4.85,4.74-12.95,6.15-22.8,3.98-8.37-1.85-16.72-6.08-21.8-11.03-4.99-4.87-7.74-11.36-7.74-18.25ZM607.29,816.73c0-9.26-5.08-20.62-11.04-26.44-8.54-8.34-22.44-8.34-30.98,0-8.54,8.34-8.54,21.92,0,30.26,8.76,8.56,29.81,15.26,38.21,7.06,2.69-2.63,3.81-6.52,3.81-10.87Z"/>
          </g>
          <g>
            <path class="cls-5" d="M656.06,845.59c-9.44-9.22-31.96-16.27-41.4-7.06-9.44,9.22-2.21,31.22,7.22,40.43,9.44,9.22,24.74,9.22,34.18,0,9.44-9.22,9.44-24.16,0-33.38Z"/>
            <path class="cls-8" d="M607.97,850.91c0-5.85,1.73-10.66,5.09-13.94,4.85-4.74,12.95-6.15,22.8-3.98,8.37,1.85,16.72,6.08,21.8,11.03,4.99,4.87,7.74,11.36,7.74,18.25s-2.75,13.37-7.74,18.25c-10.3,10.06-27.07,10.06-37.37,0-5.08-4.96-9.4-13.12-11.3-21.29-.68-2.95-1.02-5.74-1.02-8.32ZM660.87,862.28c0-5.48-2.14-10.96-6.41-15.13-8.76-8.56-29.81-15.26-38.21-7.06-8.4,8.21-1.54,28.76,7.22,37.32,8.54,8.34,22.44,8.34,30.98,0,4.27-4.17,6.41-9.65,6.41-15.13Z"/>
          </g>
        </g>
        <g>
          <polygon class="cls-6" points="582.55 860.53 600.57 833.85 582.55 807.17 609.87 824.76 637.18 807.17 619.17 833.85 637.18 860.53 609.87 842.93 582.55 860.53"/>
          <path class="cls-8" d="M574.61,799.41l35.26,22.71,35.26-22.71-23.26,34.44,23.26,34.44-35.26-22.71-35.26,22.71,23.26-34.44-23.26-34.44ZM603.27,833.85l-12.78,18.92,19.37-12.48,19.37,12.48-12.78-18.92,12.78-18.92-19.37,12.48-19.37-12.48,12.78,18.92Z"/>
        </g>
        <g>
          <path class="cls-1" d="M592.78,817.16c9.44-9.22,24.74-9.22,34.18,0,9.44,9.22,9.44,24.16,0,33.38-9.44,9.22-24.74,9.22-34.18,0-9.44-9.22-9.44-24.16,0-33.38Z"/>
          <path class="cls-8" d="M583.78,833.85c0-6.53,2.54-13.06,7.63-18.03,10.18-9.94,26.74-9.94,36.91,0,10.18,9.94,10.18,26.11,0,36.05-10.18,9.94-26.74,9.94-36.91,0-5.09-4.97-7.63-11.5-7.63-18.03ZM632.09,833.85c0-5.56-2.17-11.12-6.5-15.35-8.67-8.47-22.77-8.47-31.44,0-8.67,8.47-8.67,22.24,0,30.71,8.67,8.47,22.77,8.47,31.44,0,4.33-4.23,6.5-9.79,6.5-15.35Z"/>
        </g>
      </g>
      <g>
        <g>
          <g>
            <path class="cls-5" d="M453.8,845.59c9.44-9.22,31.96-16.27,41.4-7.06,9.44,9.22,2.21,31.22-7.22,40.43-9.44,9.22-24.74,9.22-34.18,0-9.44-9.22-9.44-24.16,0-33.38Z"/>
            <path class="cls-8" d="M444.47,862.27c0-6.89,2.75-13.37,7.74-18.25,5.08-4.96,13.43-9.18,21.8-11.03,9.85-2.17,17.94-.76,22.8,3.98,4.85,4.74,6.3,12.64,4.07,22.26-1.89,8.17-6.22,16.33-11.3,21.29-10.3,10.06-27.07,10.06-37.37,0-4.99-4.87-7.74-11.36-7.74-18.25ZM497.42,850.96c0-4.36-1.13-8.25-3.81-10.87-8.4-8.21-29.45-1.5-38.21,7.06-8.54,8.34-8.54,21.92,0,30.26,8.54,8.34,22.44,8.34,30.98,0,5.96-5.82,11.04-17.18,11.04-26.44Z"/>
          </g>
          <g>
            <path class="cls-5" d="M512.02,788.73c-9.44,9.22-16.66,31.22-7.22,40.43,9.44,9.22,31.96,2.16,41.4-7.06,9.44-9.22,9.44-24.16,0-33.38-9.44-9.22-24.74-9.22-34.18,0Z"/>
            <path class="cls-8" d="M498.1,816.78c0-2.58.34-5.37,1.02-8.32,1.89-8.17,6.22-16.33,11.3-21.29,4.99-4.87,11.63-7.56,18.68-7.56s13.69,2.68,18.69,7.56c4.99,4.87,7.74,11.36,7.74,18.25s-2.75,13.37-7.74,18.25c-5.08,4.96-13.43,9.18-21.8,11.03-9.85,2.17-17.94.76-22.8-3.98-3.36-3.29-5.09-8.1-5.09-13.94ZM551.01,805.42c0-5.48-2.14-10.96-6.41-15.13-8.54-8.34-22.44-8.34-30.98,0-8.76,8.56-15.63,29.11-7.22,37.32,8.4,8.21,29.45,1.5,38.21-7.06,4.27-4.17,6.41-9.65,6.41-15.13Z"/>
          </g>
          <g>
            <path class="cls-5" d="M487.98,788.73c9.44,9.22,16.66,31.22,7.22,40.43-9.44,9.22-31.96,2.16-41.4-7.06-9.44-9.22-9.44-24.16,0-33.38,9.44-9.22,24.74-9.22,34.18,0Z"/>
            <path class="cls-8" d="M444.47,805.42c0-6.89,2.75-13.37,7.74-18.25,4.99-4.87,11.63-7.56,18.69-7.56s13.69,2.68,18.68,7.56c5.08,4.96,9.4,13.12,11.3,21.29,2.23,9.62.78,17.52-4.07,22.26-4.85,4.74-12.95,6.15-22.8,3.98-8.37-1.85-16.72-6.08-21.8-11.03-4.99-4.87-7.74-11.36-7.74-18.25ZM497.42,816.73c0-9.26-5.08-20.62-11.04-26.44-8.54-8.34-22.44-8.34-30.98,0-8.54,8.34-8.54,21.92,0,30.26,8.76,8.56,29.81,15.26,38.21,7.06,2.69-2.63,3.81-6.52,3.81-10.87Z"/>
          </g>
          <g>
            <path class="cls-5" d="M546.2,845.59c-9.44-9.22-31.96-16.27-41.4-7.06s-2.21,31.22,7.22,40.43c9.44,9.22,24.74,9.22,34.18,0,9.44-9.22,9.44-24.16,0-33.38Z"/>
            <path class="cls-8" d="M498.1,850.91c0-5.85,1.73-10.66,5.09-13.94,4.85-4.74,12.95-6.15,22.8-3.98,8.37,1.85,16.72,6.08,21.8,11.03,4.99,4.87,7.74,11.36,7.74,18.25s-2.75,13.37-7.74,18.25c-10.3,10.06-27.07,10.06-37.37,0-5.08-4.96-9.4-13.12-11.3-21.29-.68-2.95-1.02-5.74-1.02-8.32ZM551.01,862.28c0-5.48-2.14-10.96-6.41-15.13-8.76-8.56-29.81-15.26-38.21-7.06-8.4,8.21-1.54,28.76,7.22,37.32,8.54,8.34,22.44,8.34,30.98,0,4.27-4.17,6.41-9.65,6.41-15.13Z"/>
          </g>
        </g>
        <g>
          <polygon class="cls-6" points="472.68 860.53 490.7 833.85 472.68 807.17 500 824.76 527.32 807.17 509.3 833.85 527.32 860.53 500 842.93 472.68 860.53"/>
          <path class="cls-8" d="M464.74,799.41l35.26,22.71,35.26-22.71-23.26,34.44,23.26,34.44-35.26-22.71-35.26,22.71,23.26-34.44-23.26-34.44ZM493.4,833.85l-12.78,18.92,19.37-12.48,19.37,12.48-12.78-18.92,12.78-18.92-19.37,12.48-19.37-12.48,12.78,18.92Z"/>
        </g>
        <g>
          <path class="cls-1" d="M482.91,817.16c9.44-9.22,24.74-9.22,34.18,0,9.44,9.22,9.44,24.16,0,33.38-9.44,9.22-24.74,9.22-34.18,0-9.44-9.22-9.44-24.16,0-33.38Z"/>
          <path class="cls-8" d="M473.91,833.85c0-6.53,2.54-13.06,7.63-18.03,10.18-9.94,26.74-9.94,36.91,0,10.18,9.94,10.18,26.11,0,36.05-10.18,9.94-26.74,9.94-36.91,0-5.09-4.97-7.63-11.5-7.63-18.03ZM522.22,833.85c0-5.56-2.17-11.12-6.5-15.35-8.67-8.47-22.77-8.47-31.44,0-8.67,8.47-8.67,22.24,0,30.71,8.67,8.47,22.77,8.47,31.44,0,4.33-4.23,6.5-9.79,6.5-15.35Z"/>
        </g>
      </g>
      <g>
        <g>
          <g>
            <path class="cls-5" d="M343.94,845.59c9.44-9.22,31.96-16.27,41.4-7.06,9.44,9.22,2.21,31.22-7.22,40.43-9.44,9.22-24.74,9.22-34.18,0-9.44-9.22-9.44-24.16,0-33.38Z"/>
            <path class="cls-8" d="M334.6,862.27c0-6.89,2.75-13.37,7.74-18.25,5.08-4.96,13.43-9.18,21.8-11.03,9.85-2.17,17.94-.76,22.8,3.98,4.85,4.74,6.3,12.64,4.07,22.26-1.89,8.17-6.22,16.33-11.3,21.29-10.3,10.06-27.07,10.06-37.37,0-4.99-4.87-7.74-11.36-7.74-18.25ZM387.56,850.96c0-4.36-1.13-8.25-3.81-10.87-8.4-8.21-29.45-1.5-38.21,7.06-8.54,8.34-8.54,21.92,0,30.26,8.54,8.34,22.44,8.34,30.98,0,5.96-5.82,11.04-17.18,11.04-26.44Z"/>
          </g>
          <g>
            <path class="cls-5" d="M402.15,788.73c-9.44,9.22-16.66,31.22-7.22,40.43,9.44,9.22,31.96,2.16,41.4-7.06,9.44-9.22,9.44-24.16,0-33.38s-24.74-9.22-34.18,0Z"/>
            <path class="cls-8" d="M388.24,816.78c0-2.58.34-5.37,1.02-8.32,1.89-8.17,6.22-16.33,11.3-21.29,4.99-4.87,11.63-7.56,18.68-7.56s13.69,2.68,18.69,7.56c4.99,4.87,7.74,11.36,7.74,18.25s-2.75,13.37-7.74,18.25c-5.08,4.96-13.43,9.18-21.8,11.03-9.85,2.17-17.94.76-22.8-3.98-3.36-3.29-5.09-8.1-5.09-13.94ZM441.14,805.42c0-5.48-2.14-10.96-6.41-15.13-8.54-8.34-22.44-8.34-30.98,0-8.76,8.56-15.63,29.11-7.22,37.32,8.4,8.21,29.45,1.5,38.21-7.06,4.27-4.17,6.41-9.65,6.41-15.13Z"/>
          </g>
          <g>
            <path class="cls-5" d="M378.12,788.73c9.44,9.22,16.66,31.22,7.22,40.43-9.44,9.22-31.96,2.16-41.4-7.06-9.44-9.22-9.44-24.16,0-33.38s24.74-9.22,34.18,0Z"/>
            <path class="cls-8" d="M334.6,805.42c0-6.89,2.75-13.37,7.74-18.25,4.99-4.87,11.63-7.56,18.69-7.56s13.69,2.68,18.68,7.56c5.08,4.96,9.4,13.12,11.3,21.29,2.23,9.62.78,17.52-4.07,22.26-4.85,4.74-12.95,6.15-22.8,3.98-8.37-1.85-16.72-6.08-21.8-11.03-4.99-4.87-7.74-11.36-7.74-18.25ZM387.56,816.73c0-9.26-5.08-20.62-11.04-26.44-8.54-8.34-22.44-8.34-30.98,0-8.54,8.34-8.54,21.92,0,30.26,8.76,8.56,29.81,15.26,38.21,7.06,2.69-2.63,3.81-6.52,3.81-10.87Z"/>
          </g>
          <g>
            <path class="cls-5" d="M436.33,845.59c-9.44-9.22-31.96-16.27-41.4-7.06-9.44,9.22-2.21,31.22,7.22,40.43,9.44,9.22,24.74,9.22,34.18,0,9.44-9.22,9.44-24.16,0-33.38Z"/>
            <path class="cls-8" d="M388.24,850.91c0-5.85,1.73-10.66,5.09-13.94,4.85-4.74,12.95-6.15,22.8-3.98,8.37,1.85,16.72,6.08,21.8,11.03,4.99,4.87,7.74,11.36,7.74,18.25s-2.75,13.37-7.74,18.25c-10.3,10.06-27.07,10.06-37.37,0-5.08-4.96-9.4-13.12-11.3-21.29-.68-2.95-1.02-5.74-1.02-8.32ZM441.14,862.28c0-5.48-2.14-10.96-6.41-15.13-8.76-8.56-29.81-15.26-38.21-7.06-8.4,8.21-1.54,28.76,7.22,37.32,8.54,8.34,22.44,8.34,30.98,0,4.27-4.17,6.41-9.65,6.41-15.13Z"/>
          </g>
        </g>
        <g>
          <polygon class="cls-6" points="362.82 860.53 380.83 833.85 362.82 807.17 390.13 824.76 417.45 807.17 399.43 833.85 417.45 860.53 390.13 842.93 362.82 860.53"/>
          <path class="cls-8" d="M354.87,799.41l35.26,22.71,35.26-22.71-23.26,34.44,23.26,34.44-35.26-22.71-35.26,22.71,23.26-34.44-23.26-34.44ZM383.54,833.85l-12.78,18.92,19.37-12.48,19.37,12.48-12.78-18.92,12.78-18.92-19.37,12.48-19.37-12.48,12.78,18.92Z"/>
        </g>
        <g>
          <path class="cls-1" d="M373.04,817.16c9.44-9.22,24.74-9.22,34.18,0s9.44,24.16,0,33.38c-9.44,9.22-24.74,9.22-34.18,0-9.44-9.22-9.44-24.16,0-33.38Z"/>
          <path class="cls-8" d="M364.04,833.85c0-6.53,2.54-13.06,7.63-18.03,10.18-9.94,26.74-9.94,36.91,0,10.18,9.94,10.18,26.11,0,36.05-10.18,9.94-26.74,9.94-36.91,0-5.09-4.97-7.63-11.5-7.63-18.03ZM412.35,833.85c0-5.56-2.17-11.12-6.5-15.35-8.67-8.47-22.77-8.47-31.44,0-8.67,8.47-8.67,22.24,0,30.71,8.67,8.47,22.77,8.47,31.44,0,4.33-4.23,6.5-9.79,6.5-15.35Z"/>
        </g>
      </g>
      <g>
        <g>
          <g>
            <path class="cls-5" d="M234.07,845.59c9.44-9.22,31.96-16.27,41.4-7.06s2.21,31.22-7.22,40.43c-9.44,9.22-24.74,9.22-34.18,0-9.44-9.22-9.44-24.16,0-33.38Z"/>
            <path class="cls-8" d="M224.73,862.27c0-6.89,2.75-13.37,7.74-18.25,5.08-4.96,13.43-9.18,21.8-11.03,9.85-2.17,17.94-.76,22.8,3.98,4.85,4.74,6.3,12.64,4.07,22.26-1.89,8.17-6.22,16.33-11.3,21.29-10.3,10.06-27.07,10.06-37.37,0-4.99-4.87-7.74-11.36-7.74-18.25ZM277.69,850.96c0-4.36-1.13-8.25-3.81-10.87-8.4-8.21-29.45-1.5-38.21,7.06-8.54,8.34-8.54,21.92,0,30.26,8.54,8.34,22.44,8.34,30.98,0,5.96-5.82,11.04-17.18,11.04-26.44Z"/>
          </g>
          <g>
            <path class="cls-5" d="M292.28,788.73c-9.44,9.22-16.66,31.22-7.22,40.43s31.96,2.16,41.4-7.06c9.44-9.22,9.44-24.16,0-33.38-9.44-9.22-24.74-9.22-34.18,0Z"/>
            <path class="cls-8" d="M278.37,816.78c0-2.58.34-5.37,1.02-8.32,1.89-8.17,6.22-16.33,11.3-21.29,4.99-4.87,11.63-7.56,18.68-7.56s13.69,2.68,18.69,7.56c4.99,4.87,7.74,11.36,7.74,18.25s-2.75,13.37-7.74,18.25c-5.08,4.96-13.43,9.18-21.8,11.03-9.85,2.17-17.94.76-22.8-3.98-3.36-3.29-5.09-8.1-5.09-13.94ZM331.27,805.42c0-5.48-2.14-10.96-6.41-15.13-8.54-8.34-22.44-8.34-30.98,0-8.76,8.56-15.63,29.11-7.22,37.32,8.4,8.21,29.45,1.5,38.21-7.06,4.27-4.17,6.41-9.65,6.41-15.13Z"/>
          </g>
          <g>
            <path class="cls-5" d="M268.25,788.73c9.44,9.22,16.66,31.22,7.22,40.43-9.44,9.22-31.96,2.16-41.4-7.06-9.44-9.22-9.44-24.16,0-33.38s24.74-9.22,34.18,0Z"/>
            <path class="cls-8" d="M224.73,805.42c0-6.89,2.75-13.37,7.74-18.25,4.99-4.87,11.63-7.56,18.69-7.56s13.69,2.68,18.68,7.56c5.08,4.96,9.4,13.12,11.3,21.29,2.23,9.62.78,17.52-4.07,22.26-4.85,4.74-12.95,6.15-22.8,3.98-8.37-1.85-16.72-6.08-21.8-11.03-4.99-4.87-7.74-11.36-7.74-18.25ZM277.69,816.73c0-9.26-5.08-20.62-11.04-26.44-8.54-8.34-22.44-8.34-30.98,0-8.54,8.34-8.54,21.92,0,30.26,8.76,8.56,29.81,15.26,38.21,7.06,2.69-2.63,3.81-6.52,3.81-10.87Z"/>
          </g>
          <g>
            <path class="cls-5" d="M326.46,845.59c-9.44-9.22-31.96-16.27-41.4-7.06-9.44,9.22-2.21,31.22,7.22,40.43,9.44,9.22,24.74,9.22,34.18,0s9.44-24.16,0-33.38Z"/>
            <path class="cls-8" d="M278.37,850.91c0-5.85,1.73-10.66,5.09-13.94,4.85-4.74,12.95-6.15,22.8-3.98,8.37,1.85,16.72,6.08,21.8,11.03,4.99,4.87,7.74,11.36,7.74,18.25s-2.75,13.37-7.74,18.25c-10.3,10.06-27.07,10.06-37.37,0-5.08-4.96-9.4-13.12-11.3-21.29-.68-2.95-1.02-5.74-1.02-8.32ZM331.27,862.28c0-5.48-2.14-10.96-6.41-15.13-8.76-8.56-29.81-15.26-38.21-7.06-8.4,8.21-1.54,28.76,7.22,37.32,8.54,8.34,22.44,8.34,30.98,0,4.27-4.17,6.41-9.65,6.41-15.13Z"/>
          </g>
        </g>
        <g>
          <polygon class="cls-6" points="252.95 860.53 270.96 833.85 252.95 807.17 280.27 824.76 307.58 807.17 289.57 833.85 307.58 860.53 280.27 842.93 252.95 860.53"/>
          <path class="cls-8" d="M245,799.41l35.26,22.71,35.26-22.71-23.26,34.44,23.26,34.44-35.26-22.71-35.26,22.71,23.26-34.44-23.26-34.44ZM273.67,833.85l-12.78,18.92,19.37-12.48,19.37,12.48-12.78-18.92,12.78-18.92-19.37,12.48-19.37-12.48,12.78,18.92Z"/>
        </g>
        <g>
          <path class="cls-1" d="M263.18,817.16c9.44-9.22,24.74-9.22,34.18,0,9.44,9.22,9.44,24.16,0,33.38-9.44,9.22-24.74,9.22-34.18,0-9.44-9.22-9.44-24.16,0-33.38Z"/>
          <path class="cls-8" d="M254.17,833.85c0-6.53,2.54-13.06,7.63-18.03,4.93-4.82,11.48-7.47,18.46-7.47s13.53,2.65,18.46,7.47c10.18,9.94,10.18,26.11,0,36.05-4.93,4.82-11.48,7.47-18.46,7.47s-13.53-2.65-18.46-7.47c-5.09-4.97-7.63-11.5-7.63-18.03ZM302.49,833.85c0-5.56-2.17-11.12-6.5-15.35-4.2-4.1-9.78-6.36-15.72-6.36s-11.52,2.26-15.72,6.36c-8.67,8.47-8.67,22.24,0,30.71,4.2,4.1,9.78,6.36,15.72,6.36s11.52-2.26,15.72-6.36c4.33-4.23,6.5-9.79,6.5-15.35Z"/>
        </g>
      </g>
      <g>
        <g>
          <g>
            <path class="cls-5" d="M124.2,845.59c9.44-9.22,31.96-16.27,41.4-7.06,9.44,9.22,2.21,31.22-7.22,40.43-9.44,9.22-24.74,9.22-34.18,0-9.44-9.22-9.44-24.16,0-33.38Z"/>
            <path class="cls-8" d="M114.87,862.27c0-6.89,2.75-13.37,7.74-18.25,5.08-4.96,13.43-9.18,21.8-11.03,9.85-2.17,17.94-.76,22.8,3.98,4.85,4.74,6.3,12.64,4.07,22.26-1.89,8.17-6.22,16.33-11.3,21.29-10.3,10.06-27.07,10.06-37.37,0-4.99-4.87-7.74-11.36-7.74-18.25ZM167.82,850.96c0-4.36-1.13-8.25-3.81-10.87-8.4-8.21-29.45-1.5-38.21,7.06-8.54,8.34-8.54,21.92,0,30.26,8.54,8.34,22.44,8.34,30.98,0,5.96-5.82,11.04-17.18,11.04-26.44Z"/>
          </g>
          <g>
            <path class="cls-5" d="M182.42,788.73c-9.44,9.22-16.66,31.22-7.22,40.43,9.44,9.22,31.96,2.16,41.4-7.06,9.44-9.22,9.44-24.16,0-33.38-9.44-9.22-24.74-9.22-34.18,0Z"/>
            <path class="cls-8" d="M168.5,816.78c0-2.58.34-5.37,1.02-8.32,1.89-8.17,6.22-16.33,11.3-21.29,4.99-4.87,11.63-7.56,18.68-7.56s13.69,2.68,18.69,7.56c4.99,4.87,7.74,11.36,7.74,18.25s-2.75,13.37-7.74,18.25c-5.08,4.96-13.43,9.18-21.8,11.03-9.85,2.17-17.94.76-22.8-3.98-3.36-3.29-5.09-8.1-5.09-13.94ZM221.4,805.42c0-5.48-2.14-10.96-6.41-15.13-8.54-8.34-22.44-8.34-30.98,0-8.76,8.56-15.63,29.11-7.22,37.32,8.4,8.21,29.45,1.5,38.21-7.06,4.27-4.17,6.41-9.65,6.41-15.13Z"/>
          </g>
          <g>
            <path class="cls-5" d="M158.38,788.73c9.44,9.22,16.66,31.22,7.22,40.43-9.44,9.22-31.96,2.16-41.4-7.06-9.44-9.22-9.44-24.16,0-33.38,9.44-9.22,24.74-9.22,34.18,0Z"/>
            <path class="cls-8" d="M114.87,805.42c0-6.89,2.75-13.37,7.74-18.25,4.99-4.87,11.63-7.56,18.69-7.56s13.69,2.68,18.68,7.56c5.08,4.96,9.4,13.12,11.3,21.29,2.23,9.62.78,17.52-4.07,22.26-4.85,4.74-12.95,6.15-22.8,3.98-8.37-1.85-16.72-6.08-21.8-11.03-4.99-4.87-7.74-11.36-7.74-18.25ZM167.82,816.73c0-9.26-5.08-20.62-11.04-26.44-8.54-8.34-22.44-8.34-30.98,0-8.54,8.34-8.54,21.92,0,30.26,8.76,8.56,29.81,15.26,38.21,7.06,2.69-2.63,3.81-6.52,3.81-10.87Z"/>
          </g>
          <g>
            <path class="cls-5" d="M216.59,845.59c-9.44-9.22-31.96-16.27-41.4-7.06s-2.21,31.22,7.22,40.43c9.44,9.22,24.74,9.22,34.18,0,9.44-9.22,9.44-24.16,0-33.38Z"/>
            <path class="cls-8" d="M168.5,850.91c0-5.85,1.73-10.66,5.09-13.94,4.85-4.74,12.95-6.15,22.8-3.98,8.37,1.85,16.72,6.08,21.8,11.03,4.99,4.87,7.74,11.36,7.74,18.25s-2.75,13.37-7.74,18.25c-10.3,10.06-27.07,10.06-37.37,0-5.08-4.96-9.4-13.12-11.3-21.29-.68-2.95-1.02-5.74-1.02-8.32ZM221.4,862.28c0-5.48-2.14-10.96-6.41-15.13-8.76-8.56-29.81-15.26-38.21-7.06-8.4,8.21-1.54,28.76,7.22,37.32,8.54,8.34,22.44,8.34,30.98,0,4.27-4.17,6.41-9.65,6.41-15.13Z"/>
          </g>
        </g>
        <g>
          <polygon class="cls-6" points="143.08 860.53 161.1 833.85 143.08 807.17 170.4 824.76 197.72 807.17 179.7 833.85 197.72 860.53 170.4 842.93 143.08 860.53"/>
          <path class="cls-8" d="M135.14,799.41l35.26,22.71,35.26-22.71-23.26,34.44,23.26,34.44-35.26-22.71-35.26,22.71,23.26-34.44-23.26-34.44ZM163.8,833.85l-12.78,18.92,19.37-12.48,19.37,12.48-12.78-18.92,12.78-18.92-19.37,12.48-19.37-12.48,12.78,18.92Z"/>
        </g>
        <g>
          <path class="cls-1" d="M153.31,817.16c9.44-9.22,24.74-9.22,34.18,0,9.44,9.22,9.44,24.16,0,33.38-9.44,9.22-24.74,9.22-34.18,0-9.44-9.22-9.44-24.16,0-33.38Z"/>
          <path class="cls-8" d="M144.31,833.85c0-6.53,2.54-13.06,7.63-18.03,4.93-4.82,11.48-7.47,18.46-7.47s13.53,2.65,18.46,7.47c10.18,9.94,10.18,26.11,0,36.05-4.93,4.82-11.48,7.47-18.46,7.47s-13.53-2.65-18.46-7.47c-5.09-4.97-7.63-11.5-7.63-18.03ZM192.62,833.85c0-5.56-2.17-11.12-6.5-15.35-4.2-4.1-9.78-6.36-15.72-6.36s-11.52,2.26-15.72,6.36c-8.67,8.47-8.67,22.24,0,30.71,4.2,4.1,9.78,6.36,15.72,6.36s11.52-2.26,15.72-6.36c4.33-4.23,6.5-9.79,6.5-15.35Z"/>
        </g>
      </g>
      <g>
        <g>
          <g>
            <path class="cls-5" d="M14.34,845.59c9.44-9.22,31.96-16.27,41.4-7.06,9.44,9.22,2.21,31.22-7.22,40.43s-24.74,9.22-34.18,0c-9.44-9.22-9.44-24.16,0-33.38Z"/>
            <path class="cls-8" d="M5,862.27c0-6.89,2.75-13.37,7.74-18.25,5.08-4.96,13.43-9.18,21.8-11.03,9.85-2.17,17.94-.76,22.8,3.98,4.85,4.74,6.3,12.64,4.07,22.26-1.89,8.17-6.22,16.33-11.3,21.29-10.3,10.06-27.07,10.06-37.37,0-4.99-4.87-7.74-11.36-7.74-18.25ZM57.96,850.96c0-4.36-1.13-8.25-3.81-10.87-8.4-8.21-29.45-1.5-38.21,7.06-8.54,8.34-8.54,21.92,0,30.26,8.54,8.34,22.44,8.34,30.98,0,5.96-5.82,11.04-17.18,11.04-26.44Z"/>
          </g>
          <g>
            <path class="cls-5" d="M72.55,788.73c-9.44,9.22-16.66,31.22-7.22,40.43,9.44,9.22,31.96,2.16,41.4-7.06,9.44-9.22,9.44-24.16,0-33.38s-24.74-9.22-34.18,0Z"/>
            <path class="cls-8" d="M58.64,816.78c0-2.58.34-5.37,1.02-8.32,1.89-8.17,6.22-16.33,11.3-21.29,4.99-4.87,11.63-7.56,18.68-7.56s13.69,2.68,18.69,7.56c4.99,4.87,7.74,11.36,7.74,18.25s-2.75,13.37-7.74,18.25c-5.08,4.96-13.43,9.18-21.8,11.03-9.85,2.17-17.94.76-22.8-3.98-3.36-3.29-5.09-8.1-5.09-13.94ZM111.54,805.42c0-5.48-2.14-10.96-6.41-15.13-8.54-8.34-22.44-8.34-30.98,0-8.76,8.56-15.63,29.11-7.22,37.32,8.4,8.21,29.45,1.5,38.21-7.06,4.27-4.17,6.41-9.65,6.41-15.13Z"/>
          </g>
          <g>
            <path class="cls-5" d="M48.51,788.73c9.44,9.22,16.66,31.22,7.22,40.43-9.44,9.22-31.96,2.16-41.4-7.06-9.44-9.22-9.44-24.16,0-33.38,9.44-9.22,24.74-9.22,34.18,0Z"/>
            <path class="cls-8" d="M5,805.42c0-6.89,2.75-13.37,7.74-18.25,4.99-4.87,11.63-7.56,18.69-7.56s13.69,2.68,18.68,7.56c5.08,4.96,9.4,13.12,11.3,21.29,2.23,9.62.78,17.52-4.07,22.26-4.85,4.74-12.95,6.15-22.8,3.98-8.37-1.85-16.72-6.08-21.8-11.03-4.99-4.87-7.74-11.36-7.74-18.25ZM57.96,816.73c0-9.26-5.08-20.62-11.04-26.44-8.54-8.34-22.44-8.34-30.98,0-8.54,8.34-8.54,21.92,0,30.26,8.76,8.56,29.81,15.26,38.21,7.06,2.69-2.63,3.81-6.52,3.81-10.87Z"/>
          </g>
          <g>
            <path class="cls-5" d="M106.73,845.59c-9.44-9.22-31.96-16.27-41.4-7.06-9.44,9.22-2.21,31.22,7.22,40.43,9.44,9.22,24.74,9.22,34.18,0,9.44-9.22,9.44-24.16,0-33.38Z"/>
            <path class="cls-8" d="M58.64,850.91c0-5.85,1.73-10.66,5.09-13.94,4.85-4.74,12.95-6.15,22.8-3.98,8.37,1.85,16.72,6.08,21.8,11.03,4.99,4.87,7.74,11.36,7.74,18.25s-2.75,13.37-7.74,18.25c-10.3,10.06-27.07,10.06-37.37,0-5.08-4.96-9.4-13.12-11.3-21.29-.68-2.95-1.02-5.74-1.02-8.32ZM111.54,862.28c0-5.48-2.14-10.96-6.41-15.13-8.76-8.56-29.81-15.26-38.21-7.06-8.4,8.21-1.54,28.76,7.22,37.32,8.54,8.34,22.44,8.34,30.98,0,4.27-4.17,6.41-9.65,6.41-15.13Z"/>
          </g>
        </g>
        <g>
          <polygon class="cls-6" points="33.21 860.53 51.23 833.85 33.21 807.17 60.53 824.76 87.85 807.17 69.83 833.85 87.85 860.53 60.53 842.93 33.21 860.53"/>
          <path class="cls-8" d="M25.27,799.41l35.26,22.71,35.26-22.71-23.26,34.44,23.26,34.44-35.26-22.71-35.26,22.71,23.26-34.44-23.26-34.44ZM53.93,833.85l-12.78,18.92,19.37-12.48,19.37,12.48-12.78-18.92,12.78-18.92-19.37,12.48-19.37-12.48,12.78,18.92Z"/>
        </g>
        <g>
          <path class="cls-1" d="M43.44,817.16c9.44-9.22,24.74-9.22,34.18,0,9.44,9.22,9.44,24.16,0,33.38-9.44,9.22-24.74,9.22-34.18,0-9.44-9.22-9.44-24.16,0-33.38Z"/>
          <path class="cls-8" d="M34.44,833.85c0-6.53,2.54-13.06,7.63-18.03,10.18-9.94,26.74-9.94,36.91,0,10.18,9.94,10.18,26.11,0,36.05-10.18,9.94-26.74,9.94-36.91,0-5.09-4.97-7.63-11.5-7.63-18.03ZM82.75,833.85c0-5.56-2.17-11.12-6.5-15.35-8.67-8.47-22.77-8.47-31.44,0-8.67,8.47-8.67,22.24,0,30.71,8.67,8.47,22.77,8.47,31.44,0,4.33-4.23,6.5-9.79,6.5-15.35Z"/>
        </g>
      </g>
    </g>
    <g>
      <g>
        <g>
          <g>
            <path class="cls-5" d="M893.27,177.89c9.44-9.22,31.96-16.27,41.4-7.05,9.44,9.22,2.21,31.21-7.22,40.43-9.44,9.22-24.74,9.22-34.18,0-9.44-9.22-9.44-24.16,0-33.37Z"/>
            <path class="cls-8" d="M883.94,194.58c0-6.89,2.75-13.37,7.74-18.25,5.08-4.96,13.43-9.18,21.8-11.03,9.85-2.17,17.94-.76,22.8,3.98,4.85,4.74,6.3,12.64,4.07,22.26-1.89,8.17-6.22,16.33-11.3,21.29-4.99,4.87-11.63,7.56-18.68,7.56s-13.69-2.68-18.69-7.56c-4.99-4.87-7.74-11.35-7.74-18.25ZM936.83,183.29c0-4.67-1.28-8.48-3.75-10.9-8.4-8.2-29.45-1.5-38.21,7.05-8.54,8.34-8.54,21.91,0,30.26,8.54,8.34,22.44,8.34,30.98,0,4.44-4.33,8.4-11.85,10.08-19.14.6-2.58.89-5.03.89-7.27Z"/>
          </g>
          <g>
            <path class="cls-5" d="M951.49,121.05c-9.44,9.22-16.66,31.21-7.22,40.43,9.44,9.22,31.96,2.16,41.4-7.05,9.44-9.22,9.44-24.16,0-33.37-9.44-9.22-24.74-9.22-34.18,0Z"/>
            <path class="cls-8" d="M937.57,149.09c0-2.58.34-5.37,1.02-8.32,1.89-8.17,6.22-16.33,11.3-21.29,4.99-4.87,11.63-7.56,18.68-7.56s13.69,2.68,18.69,7.56c4.99,4.87,7.74,11.35,7.74,18.25s-2.75,13.37-7.74,18.25c-5.08,4.96-13.43,9.18-21.8,11.03-9.85,2.17-17.94.76-22.8-3.98-3.36-3.29-5.09-8.09-5.09-13.94ZM990.47,137.73c0-5.48-2.14-10.96-6.41-15.13-8.54-8.34-22.44-8.34-30.98,0-8.76,8.56-15.63,29.11-7.22,37.31,8.4,8.2,29.45,1.5,38.21-7.05,4.27-4.17,6.41-9.65,6.41-15.13Z"/>
          </g>
          <g>
            <path class="cls-5" d="M927.45,121.05c9.44,9.22,16.66,31.21,7.22,40.43-9.44,9.22-31.96,2.16-41.4-7.05-9.44-9.22-9.44-24.16,0-33.37,9.44-9.22,24.74-9.22,34.18,0Z"/>
            <path class="cls-8" d="M883.94,137.73c0-6.89,2.75-13.37,7.74-18.25,4.99-4.87,11.63-7.56,18.69-7.56s13.69,2.68,18.68,7.56c5.08,4.96,9.4,13.11,11.3,21.29,2.23,9.62.78,17.52-4.07,22.26-4.85,4.74-12.95,6.15-22.8,3.98-8.37-1.85-16.72-6.07-21.8-11.03-4.99-4.87-7.74-11.35-7.74-18.25ZM936.89,149.04c0-9.26-5.08-20.62-11.04-26.44-8.54-8.34-22.44-8.34-30.98,0-8.54,8.34-8.54,21.91,0,30.26,8.76,8.56,29.81,15.26,38.21,7.05,2.69-2.63,3.81-6.52,3.81-10.87Z"/>
          </g>
          <g>
            <path class="cls-5" d="M985.66,177.89c-9.44-9.22-31.96-16.27-41.4-7.05-9.44,9.22-2.21,31.21,7.22,40.43,9.44,9.22,24.74,9.22,34.18,0s9.44-24.16,0-33.37Z"/>
            <path class="cls-8" d="M937.57,183.22c0-5.85,1.73-10.66,5.09-13.94,4.85-4.74,12.95-6.15,22.8-3.98,8.37,1.85,16.72,6.07,21.8,11.03,4.99,4.87,7.74,11.35,7.74,18.25s-2.75,13.37-7.74,18.25c-4.99,4.87-11.63,7.56-18.69,7.56s-13.69-2.68-18.68-7.56c-5.08-4.96-9.4-13.11-11.3-21.29-.68-2.95-1.02-5.73-1.02-8.32ZM990.47,194.58c0-5.48-2.14-10.96-6.41-15.13-8.76-8.56-29.81-15.26-38.21-7.05-3.66,3.58-4.7,10.2-2.86,18.17,1.69,7.29,5.65,14.81,10.08,19.14,8.54,8.34,22.44,8.34,30.98,0,4.27-4.17,6.41-9.65,6.41-15.13Z"/>
          </g>
        </g>
        <g>
          <polygon class="cls-6" points="912.15 192.83 930.17 166.16 912.15 139.48 939.47 157.07 966.79 139.48 948.77 166.16 966.79 192.83 939.47 175.24 912.15 192.83"/>
          <path class="cls-8" d="M904.21,131.72l35.26,22.71,35.26-22.71-23.26,34.43,23.26,34.43-35.26-22.71-35.26,22.71,23.26-34.43-23.26-34.43ZM932.87,166.16l-12.78,18.92,19.37-12.48,19.37,12.48-12.78-18.92,12.78-18.92-19.37,12.48-19.37-12.48,12.78,18.92Z"/>
        </g>
        <g>
          <path class="cls-1" d="M922.38,149.47c9.44-9.22,24.74-9.22,34.18,0s9.44,24.16,0,33.37c-9.44,9.22-24.74,9.22-34.18,0-9.44-9.22-9.44-24.16,0-33.37Z"/>
          <path class="cls-8" d="M913.38,166.16c0-6.53,2.54-13.05,7.63-18.02,10.18-9.94,26.74-9.94,36.91,0,10.18,9.94,10.18,26.11,0,36.05-10.18,9.94-26.74,9.94-36.91,0-5.09-4.97-7.63-11.5-7.63-18.02ZM961.69,166.16c0-5.56-2.17-11.12-6.5-15.35-8.67-8.46-22.77-8.46-31.44,0-8.67,8.46-8.67,22.24,0,30.7,8.67,8.46,22.77,8.46,31.44,0,4.33-4.23,6.5-9.79,6.5-15.35Z"/>
        </g>
      </g>
      <g>
        <g>
          <g>
            <path class="cls-5" d="M783.41,177.89c9.44-9.22,31.96-16.27,41.4-7.05,9.44,9.22,2.21,31.21-7.22,40.43-9.44,9.22-24.74,9.22-34.18,0-9.44-9.22-9.44-24.16,0-33.37Z"/>
            <path class="cls-8" d="M774.07,194.58c0-6.89,2.75-13.37,7.74-18.25,5.08-4.96,13.43-9.18,21.8-11.03,9.85-2.17,17.94-.76,22.8,3.98,4.85,4.74,6.3,12.64,4.07,22.26-1.89,8.17-6.22,16.33-11.3,21.29-4.99,4.87-11.63,7.56-18.68,7.56s-13.69-2.68-18.69-7.56c-4.99-4.87-7.74-11.35-7.74-18.25ZM826.96,183.29c0-4.67-1.28-8.48-3.75-10.9-8.4-8.2-29.45-1.5-38.21,7.05-8.54,8.34-8.54,21.91,0,30.26,8.54,8.34,22.44,8.34,30.98,0,4.44-4.33,8.4-11.85,10.08-19.14.6-2.58.89-5.03.89-7.27Z"/>
          </g>
          <g>
            <path class="cls-5" d="M841.62,121.05c-9.44,9.22-16.66,31.21-7.22,40.43,9.44,9.22,31.96,2.16,41.4-7.05,9.44-9.22,9.44-24.16,0-33.37-9.44-9.22-24.74-9.22-34.18,0Z"/>
            <path class="cls-8" d="M827.71,149.09c0-2.58.34-5.37,1.02-8.32,1.89-8.17,6.22-16.33,11.3-21.29,4.99-4.87,11.63-7.56,18.68-7.56s13.69,2.68,18.69,7.56,7.74,11.35,7.74,18.25-2.75,13.37-7.74,18.25c-5.08,4.96-13.43,9.18-21.8,11.03-9.85,2.17-17.94.76-22.8-3.98-3.36-3.29-5.09-8.09-5.09-13.94ZM880.61,137.73c0-5.48-2.14-10.96-6.41-15.13-8.54-8.34-22.44-8.34-30.98,0-8.76,8.56-15.63,29.11-7.22,37.31,8.4,8.2,29.45,1.5,38.21-7.05,4.27-4.17,6.41-9.65,6.41-15.13Z"/>
          </g>
          <g>
            <path class="cls-5" d="M817.58,121.05c9.44,9.22,16.66,31.21,7.22,40.43-9.44,9.22-31.96,2.16-41.4-7.05-9.44-9.22-9.44-24.16,0-33.37,9.44-9.22,24.74-9.22,34.18,0Z"/>
            <path class="cls-8" d="M774.07,137.73c0-6.89,2.75-13.37,7.74-18.25,4.99-4.87,11.63-7.56,18.69-7.56s13.69,2.68,18.68,7.56c5.08,4.96,9.4,13.11,11.3,21.29,2.23,9.62.78,17.52-4.07,22.26-4.85,4.74-12.95,6.15-22.8,3.98-8.37-1.85-16.72-6.07-21.8-11.03-4.99-4.87-7.74-11.35-7.74-18.25ZM827.03,149.04c0-9.26-5.08-20.62-11.04-26.44-8.54-8.34-22.44-8.34-30.98,0-8.54,8.34-8.54,21.91,0,30.26,8.76,8.56,29.81,15.26,38.21,7.05,2.69-2.63,3.81-6.52,3.81-10.87Z"/>
          </g>
          <g>
            <path class="cls-5" d="M875.8,177.89c-9.44-9.22-31.96-16.27-41.4-7.05-9.44,9.22-2.21,31.21,7.22,40.43,9.44,9.22,24.74,9.22,34.18,0,9.44-9.22,9.44-24.16,0-33.37Z"/>
            <path class="cls-8" d="M827.71,183.22c0-5.85,1.73-10.66,5.09-13.94,4.85-4.74,12.95-6.15,22.8-3.98,8.37,1.85,16.72,6.07,21.8,11.03,4.99,4.87,7.74,11.35,7.74,18.25s-2.75,13.37-7.74,18.25c-4.99,4.87-11.63,7.56-18.69,7.56s-13.69-2.68-18.68-7.56c-5.08-4.96-9.4-13.11-11.3-21.29-.68-2.95-1.02-5.73-1.02-8.32ZM880.61,194.58c0-5.48-2.14-10.96-6.41-15.13-8.76-8.56-29.81-15.26-38.21-7.05-3.66,3.58-4.7,10.2-2.86,18.17,1.69,7.29,5.65,14.81,10.08,19.14,8.54,8.34,22.44,8.34,30.98,0,4.27-4.17,6.41-9.65,6.41-15.13Z"/>
          </g>
        </g>
        <g>
          <polygon class="cls-6" points="802.28 192.83 820.3 166.16 802.28 139.48 829.6 157.07 856.92 139.48 838.9 166.16 856.92 192.83 829.6 175.24 802.28 192.83"/>
          <path class="cls-8" d="M794.34,131.72l35.26,22.71,35.26-22.71-23.26,34.43,23.26,34.43-35.26-22.71-35.26,22.71,23.26-34.43-23.26-34.43ZM823,166.16l-12.78,18.92,19.37-12.48,19.37,12.48-12.78-18.92,12.78-18.92-19.37,12.48-19.37-12.48,12.78,18.92Z"/>
        </g>
        <g>
          <path class="cls-1" d="M812.51,149.47c9.44-9.22,24.74-9.22,34.18,0s9.44,24.16,0,33.37-24.74,9.22-34.18,0c-9.44-9.22-9.44-24.16,0-33.37Z"/>
          <path class="cls-8" d="M803.51,166.16c0-6.53,2.54-13.05,7.63-18.02,10.18-9.94,26.74-9.94,36.91,0,10.18,9.94,10.18,26.11,0,36.05-10.18,9.94-26.74,9.94-36.91,0-5.09-4.97-7.63-11.5-7.63-18.02ZM851.82,166.16c0-5.56-2.17-11.12-6.5-15.35-8.67-8.46-22.77-8.46-31.44,0-8.67,8.46-8.67,22.24,0,30.7,8.67,8.46,22.77,8.46,31.44,0,4.33-4.23,6.5-9.79,6.5-15.35Z"/>
        </g>
      </g>
      <g>
        <g>
          <g>
            <path class="cls-5" d="M673.54,177.89c9.44-9.22,31.96-16.27,41.4-7.05,9.44,9.22,2.21,31.21-7.22,40.43-9.44,9.22-24.74,9.22-34.18,0-9.44-9.22-9.44-24.16,0-33.37Z"/>
            <path class="cls-8" d="M664.2,194.58c0-6.89,2.75-13.37,7.74-18.25,5.08-4.96,13.43-9.18,21.8-11.03,9.85-2.17,17.94-.76,22.8,3.98,4.85,4.74,6.3,12.64,4.07,22.26-1.89,8.17-6.22,16.33-11.3,21.29-4.99,4.87-11.63,7.56-18.68,7.56s-13.69-2.68-18.69-7.56c-4.99-4.87-7.74-11.35-7.74-18.25ZM717.1,183.29c0-4.67-1.28-8.48-3.75-10.9-8.4-8.2-29.45-1.5-38.21,7.05-8.54,8.34-8.54,21.91,0,30.26,8.54,8.34,22.44,8.34,30.98,0,4.44-4.33,8.4-11.85,10.08-19.14.6-2.58.89-5.03.89-7.27Z"/>
          </g>
          <g>
            <path class="cls-5" d="M731.75,121.05c-9.44,9.22-16.66,31.21-7.22,40.43,9.44,9.22,31.96,2.16,41.4-7.05,9.44-9.22,9.44-24.16,0-33.37s-24.74-9.22-34.18,0Z"/>
            <path class="cls-8" d="M717.84,149.09c0-2.58.34-5.37,1.02-8.32,1.89-8.17,6.22-16.33,11.3-21.29,4.99-4.87,11.63-7.56,18.68-7.56s13.69,2.68,18.69,7.56,7.74,11.35,7.74,18.25-2.75,13.37-7.74,18.25c-5.08,4.96-13.43,9.18-21.8,11.03-9.85,2.17-17.94.76-22.8-3.98-3.36-3.29-5.09-8.09-5.09-13.94ZM770.74,137.73c0-5.48-2.14-10.96-6.41-15.13-8.54-8.34-22.44-8.34-30.98,0-8.76,8.56-15.63,29.11-7.22,37.31,8.4,8.2,29.45,1.5,38.21-7.05,4.27-4.17,6.41-9.65,6.41-15.13Z"/>
          </g>
          <g>
            <path class="cls-5" d="M707.72,121.05c9.44,9.22,16.66,31.21,7.22,40.43-9.44,9.22-31.96,2.16-41.4-7.05-9.44-9.22-9.44-24.16,0-33.37,9.44-9.22,24.74-9.22,34.18,0Z"/>
            <path class="cls-8" d="M664.2,137.73c0-6.89,2.75-13.37,7.74-18.25,4.99-4.87,11.63-7.56,18.69-7.56s13.69,2.68,18.68,7.56c5.08,4.96,9.4,13.11,11.3,21.29,2.23,9.62.78,17.52-4.07,22.26-4.85,4.74-12.95,6.15-22.8,3.98-8.37-1.85-16.72-6.07-21.8-11.03-4.99-4.87-7.74-11.35-7.74-18.25ZM717.16,149.04c0-9.26-5.08-20.62-11.04-26.44-8.54-8.34-22.44-8.34-30.98,0-8.54,8.34-8.54,21.91,0,30.26,8.76,8.56,29.81,15.26,38.21,7.05,2.69-2.63,3.81-6.52,3.81-10.87Z"/>
          </g>
          <g>
            <path class="cls-5" d="M765.93,177.89c-9.44-9.22-31.96-16.27-41.4-7.05-9.44,9.22-2.21,31.21,7.22,40.43,9.44,9.22,24.74,9.22,34.18,0,9.44-9.22,9.44-24.16,0-33.37Z"/>
            <path class="cls-8" d="M717.84,183.22c0-5.85,1.73-10.66,5.09-13.94,4.85-4.74,12.95-6.15,22.8-3.98,8.37,1.85,16.72,6.07,21.8,11.03,4.99,4.87,7.74,11.35,7.74,18.25s-2.75,13.37-7.74,18.25c-4.99,4.87-11.63,7.56-18.69,7.56s-13.69-2.68-18.68-7.56c-5.08-4.96-9.4-13.11-11.3-21.29-.68-2.95-1.02-5.73-1.02-8.32ZM770.74,194.58c0-5.48-2.14-10.96-6.41-15.13-8.76-8.56-29.81-15.26-38.21-7.05-3.66,3.58-4.7,10.2-2.86,18.17,1.69,7.29,5.65,14.81,10.08,19.14,8.54,8.34,22.44,8.34,30.98,0,4.27-4.17,6.41-9.65,6.41-15.13Z"/>
          </g>
        </g>
        <g>
          <polygon class="cls-6" points="692.42 192.83 710.43 166.16 692.42 139.48 719.73 157.07 747.05 139.48 729.04 166.16 747.05 192.83 719.73 175.24 692.42 192.83"/>
          <path class="cls-8" d="M684.47,131.72l35.26,22.71,35.26-22.71-23.26,34.43,23.26,34.43-35.26-22.71-35.26,22.71,23.26-34.43-23.26-34.43ZM713.14,166.16l-12.78,18.92,19.37-12.48,19.37,12.48-12.78-18.92,12.78-18.92-19.37,12.48-19.37-12.48,12.78,18.92Z"/>
        </g>
        <g>
          <path class="cls-1" d="M702.65,149.47c9.44-9.22,24.74-9.22,34.18,0,9.44,9.22,9.44,24.16,0,33.37-9.44,9.22-24.74,9.22-34.18,0-9.44-9.22-9.44-24.16,0-33.37Z"/>
          <path class="cls-8" d="M693.64,166.16c0-6.53,2.54-13.05,7.63-18.02,10.18-9.94,26.74-9.94,36.91,0,10.18,9.94,10.18,26.11,0,36.05-10.18,9.94-26.74,9.94-36.91,0-5.09-4.97-7.63-11.5-7.63-18.02ZM741.96,166.16c0-5.56-2.17-11.12-6.5-15.35-8.67-8.46-22.77-8.46-31.44,0-8.67,8.46-8.67,22.24,0,30.7,8.67,8.46,22.77,8.46,31.44,0,4.33-4.23,6.5-9.79,6.5-15.35Z"/>
        </g>
      </g>
      <g>
        <g>
          <g>
            <path class="cls-5" d="M563.67,177.89c9.44-9.22,31.96-16.27,41.4-7.05,9.44,9.22,2.21,31.21-7.22,40.43-9.44,9.22-24.74,9.22-34.18,0-9.44-9.22-9.44-24.16,0-33.37Z"/>
            <path class="cls-8" d="M554.34,194.58c0-6.89,2.75-13.37,7.74-18.25,5.08-4.96,13.43-9.18,21.8-11.03,9.85-2.17,17.94-.76,22.8,3.98,4.85,4.74,6.3,12.64,4.07,22.26-1.89,8.17-6.22,16.33-11.3,21.29-4.99,4.87-11.63,7.56-18.68,7.56s-13.69-2.68-18.69-7.56c-4.99-4.87-7.74-11.35-7.74-18.25ZM607.23,183.29c0-4.67-1.28-8.48-3.75-10.9-8.4-8.2-29.45-1.5-38.21,7.05-8.54,8.34-8.54,21.91,0,30.26,8.54,8.34,22.44,8.34,30.98,0,4.44-4.33,8.4-11.85,10.08-19.14.6-2.58.89-5.03.89-7.27Z"/>
          </g>
          <g>
            <path class="cls-5" d="M621.88,121.05c-9.44,9.22-16.66,31.21-7.22,40.43,9.44,9.22,31.96,2.16,41.4-7.05,9.44-9.22,9.44-24.16,0-33.37-9.44-9.22-24.74-9.22-34.18,0Z"/>
            <path class="cls-8" d="M607.97,149.09c0-2.58.34-5.37,1.02-8.32,1.89-8.17,6.22-16.33,11.3-21.29,4.99-4.87,11.63-7.56,18.68-7.56s13.69,2.68,18.69,7.56,7.74,11.35,7.74,18.25-2.75,13.37-7.74,18.25c-5.08,4.96-13.43,9.18-21.8,11.03-9.85,2.17-17.94.76-22.8-3.98-3.36-3.29-5.09-8.09-5.09-13.94ZM660.87,137.73c0-5.48-2.14-10.96-6.41-15.13-8.54-8.34-22.44-8.34-30.98,0-8.76,8.56-15.63,29.11-7.22,37.31,8.4,8.2,29.45,1.5,38.21-7.05,4.27-4.17,6.41-9.65,6.41-15.13Z"/>
          </g>
          <g>
            <path class="cls-5" d="M597.85,121.05c9.44,9.22,16.66,31.21,7.22,40.43-9.44,9.22-31.96,2.16-41.4-7.05-9.44-9.22-9.44-24.16,0-33.37,9.44-9.22,24.74-9.22,34.18,0Z"/>
            <path class="cls-8" d="M554.34,137.73c0-6.89,2.75-13.37,7.74-18.25,4.99-4.87,11.63-7.56,18.69-7.56s13.69,2.68,18.68,7.56c5.08,4.96,9.4,13.11,11.3,21.29,2.23,9.62.78,17.52-4.07,22.26-4.85,4.74-12.95,6.15-22.8,3.98-8.37-1.85-16.72-6.07-21.8-11.03-4.99-4.87-7.74-11.35-7.74-18.25ZM607.29,149.04c0-9.26-5.08-20.62-11.04-26.44-8.54-8.34-22.44-8.34-30.98,0-8.54,8.34-8.54,21.91,0,30.26,8.76,8.56,29.81,15.26,38.21,7.05,2.69-2.63,3.81-6.52,3.81-10.87Z"/>
          </g>
          <g>
            <path class="cls-5" d="M656.06,177.89c-9.44-9.22-31.96-16.27-41.4-7.05-9.44,9.22-2.21,31.21,7.22,40.43,9.44,9.22,24.74,9.22,34.18,0,9.44-9.22,9.44-24.16,0-33.37Z"/>
            <path class="cls-8" d="M607.97,183.22c0-5.85,1.73-10.66,5.09-13.94,4.85-4.74,12.95-6.15,22.8-3.98,8.37,1.85,16.72,6.07,21.8,11.03,4.99,4.87,7.74,11.35,7.74,18.25s-2.75,13.37-7.74,18.25c-4.99,4.87-11.63,7.56-18.69,7.56s-13.69-2.68-18.68-7.56c-5.08-4.96-9.4-13.11-11.3-21.29-.68-2.95-1.02-5.73-1.02-8.32ZM660.87,194.58c0-5.48-2.14-10.96-6.41-15.13-8.76-8.56-29.81-15.26-38.21-7.05-3.66,3.58-4.7,10.2-2.86,18.17,1.69,7.29,5.65,14.81,10.08,19.14,8.54,8.34,22.44,8.34,30.98,0,4.27-4.17,6.41-9.65,6.41-15.13Z"/>
          </g>
        </g>
        <g>
          <polygon class="cls-6" points="582.55 192.83 600.57 166.16 582.55 139.48 609.87 157.07 637.18 139.48 619.17 166.16 637.18 192.83 609.87 175.24 582.55 192.83"/>
          <path class="cls-8" d="M574.61,131.72l35.26,22.71,35.26-22.71-23.26,34.43,23.26,34.43-35.26-22.71-35.26,22.71,23.26-34.43-23.26-34.43ZM603.27,166.16l-12.78,18.92,19.37-12.48,19.37,12.48-12.78-18.92,12.78-18.92-19.37,12.48-19.37-12.48,12.78,18.92Z"/>
        </g>
        <g>
          <path class="cls-1" d="M592.78,149.47c9.44-9.22,24.74-9.22,34.18,0,9.44,9.22,9.44,24.16,0,33.37-9.44,9.22-24.74,9.22-34.18,0s-9.44-24.16,0-33.37Z"/>
          <path class="cls-8" d="M583.78,166.16c0-6.53,2.54-13.05,7.63-18.02,10.18-9.94,26.74-9.94,36.91,0,10.18,9.94,10.18,26.11,0,36.05-10.18,9.94-26.74,9.94-36.91,0-5.09-4.97-7.63-11.5-7.63-18.02ZM632.09,166.16c0-5.56-2.17-11.12-6.5-15.35-8.67-8.46-22.77-8.46-31.44,0-8.67,8.46-8.67,22.24,0,30.7,8.67,8.46,22.77,8.46,31.44,0,4.33-4.23,6.5-9.79,6.5-15.35Z"/>
        </g>
      </g>
      <g>
        <g>
          <g>
            <path class="cls-5" d="M453.8,177.89c9.44-9.22,31.96-16.27,41.4-7.05,9.44,9.22,2.21,31.21-7.22,40.43-9.44,9.22-24.74,9.22-34.18,0-9.44-9.22-9.44-24.16,0-33.37Z"/>
            <path class="cls-8" d="M444.47,194.58c0-6.89,2.75-13.37,7.74-18.25,5.08-4.96,13.43-9.18,21.8-11.03,9.85-2.17,17.94-.76,22.8,3.98,4.85,4.74,6.3,12.64,4.07,22.26-1.89,8.17-6.22,16.33-11.3,21.29-4.99,4.87-11.63,7.56-18.68,7.56s-13.69-2.68-18.69-7.56c-4.99-4.87-7.74-11.35-7.74-18.25ZM497.36,183.29c0-4.67-1.28-8.48-3.75-10.9-8.4-8.2-29.45-1.5-38.21,7.05-8.54,8.34-8.54,21.91,0,30.26,8.54,8.34,22.44,8.34,30.98,0,4.44-4.33,8.4-11.85,10.08-19.14.6-2.58.89-5.03.89-7.27Z"/>
          </g>
          <g>
            <path class="cls-5" d="M512.02,121.05c-9.44,9.22-16.66,31.21-7.22,40.43,9.44,9.22,31.96,2.16,41.4-7.05,9.44-9.22,9.44-24.16,0-33.37-9.44-9.22-24.74-9.22-34.18,0Z"/>
            <path class="cls-8" d="M498.1,149.09c0-2.58.34-5.37,1.02-8.32,1.89-8.17,6.22-16.33,11.3-21.29,4.99-4.87,11.63-7.56,18.68-7.56s13.69,2.68,18.69,7.56,7.74,11.35,7.74,18.25-2.75,13.37-7.74,18.25c-5.08,4.96-13.43,9.18-21.8,11.03-9.85,2.17-17.94.76-22.8-3.98-3.36-3.29-5.09-8.09-5.09-13.94ZM551.01,137.73c0-5.48-2.14-10.96-6.41-15.13-8.54-8.34-22.44-8.34-30.98,0-8.76,8.56-15.63,29.11-7.22,37.31,8.4,8.2,29.45,1.5,38.21-7.05,4.27-4.17,6.41-9.65,6.41-15.13Z"/>
          </g>
          <g>
            <path class="cls-5" d="M487.98,121.05c9.44,9.22,16.66,31.21,7.22,40.43-9.44,9.22-31.96,2.16-41.4-7.05-9.44-9.22-9.44-24.16,0-33.37,9.44-9.22,24.74-9.22,34.18,0Z"/>
            <path class="cls-8" d="M444.47,137.73c0-6.89,2.75-13.37,7.74-18.25s11.63-7.56,18.69-7.56,13.69,2.68,18.68,7.56c5.08,4.96,9.4,13.11,11.3,21.29,2.23,9.62.78,17.52-4.07,22.26-4.85,4.74-12.95,6.15-22.8,3.98-8.37-1.85-16.72-6.07-21.8-11.03-4.99-4.87-7.74-11.35-7.74-18.25ZM497.42,149.04c0-9.26-5.08-20.62-11.04-26.44-8.54-8.34-22.44-8.34-30.98,0-8.54,8.34-8.54,21.91,0,30.26,8.76,8.56,29.81,15.26,38.21,7.05,2.69-2.63,3.81-6.52,3.81-10.87Z"/>
          </g>
          <g>
            <path class="cls-5" d="M546.2,177.89c-9.44-9.22-31.96-16.27-41.4-7.05-9.44,9.22-2.21,31.21,7.22,40.43,9.44,9.22,24.74,9.22,34.18,0,9.44-9.22,9.44-24.16,0-33.37Z"/>
            <path class="cls-8" d="M498.1,183.22c0-5.85,1.73-10.66,5.09-13.94,4.85-4.74,12.95-6.15,22.8-3.98,8.37,1.85,16.72,6.07,21.8,11.03,4.99,4.87,7.74,11.35,7.74,18.25s-2.75,13.37-7.74,18.25c-4.99,4.87-11.63,7.56-18.69,7.56s-13.69-2.68-18.68-7.56c-5.08-4.96-9.4-13.11-11.3-21.29-.68-2.95-1.02-5.73-1.02-8.32ZM551.01,194.58c0-5.48-2.14-10.96-6.41-15.13-8.76-8.56-29.81-15.26-38.21-7.05-3.66,3.58-4.7,10.2-2.86,18.17,1.69,7.29,5.65,14.81,10.08,19.14,8.54,8.34,22.44,8.34,30.98,0,4.27-4.17,6.41-9.65,6.41-15.13Z"/>
          </g>
        </g>
        <g>
          <polygon class="cls-6" points="472.68 192.83 490.7 166.16 472.68 139.48 500 157.07 527.32 139.48 509.3 166.16 527.32 192.83 500 175.24 472.68 192.83"/>
          <path class="cls-8" d="M464.74,131.72l35.26,22.71,35.26-22.71-23.26,34.43,23.26,34.43-35.26-22.71-35.26,22.71,23.26-34.43-23.26-34.43ZM493.4,166.16l-12.78,18.92,19.37-12.48,19.37,12.48-12.78-18.92,12.78-18.92-19.37,12.48-19.37-12.48,12.78,18.92Z"/>
        </g>
        <g>
          <path class="cls-1" d="M482.91,149.47c9.44-9.22,24.74-9.22,34.18,0,9.44,9.22,9.44,24.16,0,33.37s-24.74,9.22-34.18,0-9.44-24.16,0-33.37Z"/>
          <path class="cls-8" d="M473.91,166.16c0-6.53,2.54-13.05,7.63-18.02,10.18-9.94,26.74-9.94,36.91,0,10.18,9.94,10.18,26.11,0,36.05-10.18,9.94-26.74,9.94-36.91,0-5.09-4.97-7.63-11.5-7.63-18.02ZM522.22,166.16c0-5.56-2.17-11.12-6.5-15.35-8.67-8.46-22.77-8.46-31.44,0-8.67,8.46-8.67,22.24,0,30.7,8.67,8.46,22.77,8.46,31.44,0,4.33-4.23,6.5-9.79,6.5-15.35Z"/>
        </g>
      </g>
      <g>
        <g>
          <g>
            <path class="cls-5" d="M343.94,177.89c9.44-9.22,31.96-16.27,41.4-7.05,9.44,9.22,2.21,31.21-7.22,40.43-9.44,9.22-24.74,9.22-34.18,0-9.44-9.22-9.44-24.16,0-33.37Z"/>
            <path class="cls-8" d="M334.6,194.58c0-6.89,2.75-13.37,7.74-18.25,5.08-4.96,13.43-9.18,21.8-11.03,9.85-2.17,17.94-.76,22.8,3.98,4.85,4.74,6.3,12.64,4.07,22.26-1.89,8.17-6.22,16.33-11.3,21.29-4.99,4.87-11.63,7.56-18.68,7.56s-13.69-2.68-18.69-7.56c-4.99-4.87-7.74-11.35-7.74-18.25ZM387.5,183.29c0-4.67-1.28-8.48-3.75-10.9-8.4-8.2-29.45-1.5-38.21,7.05-8.54,8.34-8.54,21.91,0,30.26,8.54,8.34,22.44,8.34,30.98,0,4.44-4.33,8.4-11.85,10.08-19.14.6-2.58.89-5.03.89-7.27Z"/>
          </g>
          <g>
            <path class="cls-5" d="M402.15,121.05c-9.44,9.22-16.66,31.21-7.22,40.43,9.44,9.22,31.96,2.16,41.4-7.05,9.44-9.22,9.44-24.16,0-33.37s-24.74-9.22-34.18,0Z"/>
            <path class="cls-8" d="M388.24,149.09c0-2.58.34-5.37,1.02-8.32,1.89-8.17,6.22-16.33,11.3-21.29,4.99-4.87,11.63-7.56,18.68-7.56s13.69,2.68,18.69,7.56,7.74,11.35,7.74,18.25-2.75,13.37-7.74,18.25c-5.08,4.96-13.43,9.18-21.8,11.03-9.85,2.17-17.94.76-22.8-3.98-3.36-3.29-5.09-8.09-5.09-13.94ZM441.14,137.73c0-5.48-2.14-10.96-6.41-15.13-8.54-8.34-22.44-8.34-30.98,0-8.76,8.56-15.63,29.11-7.22,37.31,8.4,8.2,29.45,1.5,38.21-7.05,4.27-4.17,6.41-9.65,6.41-15.13Z"/>
          </g>
          <g>
            <path class="cls-5" d="M378.12,121.05c9.44,9.22,16.66,31.21,7.22,40.43-9.44,9.22-31.96,2.16-41.4-7.05-9.44-9.22-9.44-24.16,0-33.37s24.74-9.22,34.18,0Z"/>
            <path class="cls-8" d="M334.6,137.73c0-6.89,2.75-13.37,7.74-18.25,4.99-4.87,11.63-7.56,18.69-7.56s13.69,2.68,18.68,7.56c5.08,4.96,9.4,13.11,11.3,21.29,2.23,9.62.78,17.52-4.07,22.26-4.85,4.74-12.95,6.15-22.8,3.98-8.37-1.85-16.72-6.07-21.8-11.03-4.99-4.87-7.74-11.35-7.74-18.25ZM387.56,149.04c0-9.26-5.08-20.62-11.04-26.44-8.54-8.34-22.44-8.34-30.98,0-8.54,8.34-8.54,21.91,0,30.26,8.76,8.56,29.81,15.26,38.21,7.05,2.69-2.63,3.81-6.52,3.81-10.87Z"/>
          </g>
          <g>
            <path class="cls-5" d="M436.33,177.89c-9.44-9.22-31.96-16.27-41.4-7.05-9.44,9.22-2.21,31.21,7.22,40.43,9.44,9.22,24.74,9.22,34.18,0,9.44-9.22,9.44-24.16,0-33.37Z"/>
            <path class="cls-8" d="M388.24,183.22c0-5.85,1.73-10.66,5.09-13.94,4.85-4.74,12.95-6.15,22.8-3.98,8.37,1.85,16.72,6.07,21.8,11.03,4.99,4.87,7.74,11.35,7.74,18.25s-2.75,13.37-7.74,18.25c-4.99,4.87-11.63,7.56-18.69,7.56s-13.69-2.68-18.68-7.56c-5.08-4.96-9.4-13.11-11.3-21.29-.68-2.95-1.02-5.73-1.02-8.32ZM441.14,194.58c0-5.48-2.14-10.96-6.41-15.13-8.76-8.56-29.81-15.26-38.21-7.05-3.66,3.58-4.7,10.2-2.86,18.17,1.69,7.29,5.65,14.81,10.08,19.14,8.54,8.34,22.44,8.34,30.98,0,4.27-4.17,6.41-9.65,6.41-15.13Z"/>
          </g>
        </g>
        <g>
          <polygon class="cls-6" points="362.82 192.83 380.83 166.16 362.82 139.48 390.13 157.07 417.45 139.48 399.43 166.16 417.45 192.83 390.13 175.24 362.82 192.83"/>
          <path class="cls-8" d="M354.87,131.72l35.26,22.71,35.26-22.71-23.26,34.43,23.26,34.43-35.26-22.71-35.26,22.71,23.26-34.43-23.26-34.43ZM383.54,166.16l-12.78,18.92,19.37-12.48,19.37,12.48-12.78-18.92,12.78-18.92-19.37,12.48-19.37-12.48,12.78,18.92Z"/>
        </g>
        <g>
          <path class="cls-1" d="M373.04,149.47c9.44-9.22,24.74-9.22,34.18,0,9.44,9.22,9.44,24.16,0,33.37-9.44,9.22-24.74,9.22-34.18,0s-9.44-24.16,0-33.37Z"/>
          <path class="cls-8" d="M364.04,166.16c0-6.53,2.54-13.05,7.63-18.02,10.18-9.94,26.74-9.94,36.91,0,10.18,9.94,10.18,26.11,0,36.05-10.18,9.94-26.74,9.94-36.91,0-5.09-4.97-7.63-11.5-7.63-18.02ZM412.35,166.16c0-5.56-2.17-11.12-6.5-15.35-8.67-8.46-22.77-8.46-31.44,0-8.67,8.46-8.67,22.24,0,30.7,8.67,8.46,22.77,8.46,31.44,0,4.33-4.23,6.5-9.79,6.5-15.35Z"/>
        </g>
      </g>
      <g>
        <g>
          <g>
            <path class="cls-5" d="M234.07,177.89c9.44-9.22,31.96-16.27,41.4-7.05,9.44,9.22,2.21,31.21-7.22,40.43-9.44,9.22-24.74,9.22-34.18,0-9.44-9.22-9.44-24.16,0-33.37Z"/>
            <path class="cls-8" d="M224.73,194.58c0-6.89,2.75-13.37,7.74-18.25,5.08-4.96,13.43-9.18,21.8-11.03,9.85-2.17,17.94-.76,22.8,3.98,4.85,4.74,6.3,12.64,4.07,22.26-1.89,8.17-6.22,16.33-11.3,21.29-4.99,4.87-11.63,7.56-18.68,7.56s-13.69-2.68-18.69-7.56c-4.99-4.87-7.74-11.35-7.74-18.25ZM277.63,183.29c0-4.67-1.28-8.48-3.75-10.9-8.4-8.2-29.45-1.5-38.21,7.05-8.54,8.34-8.54,21.91,0,30.26,8.54,8.34,22.44,8.34,30.98,0,4.44-4.33,8.4-11.85,10.08-19.14.6-2.58.89-5.03.89-7.27Z"/>
          </g>
          <g>
            <path class="cls-5" d="M292.28,121.05c-9.44,9.22-16.66,31.21-7.22,40.43,9.44,9.22,31.96,2.16,41.4-7.05,9.44-9.22,9.44-24.16,0-33.37-9.44-9.22-24.74-9.22-34.18,0Z"/>
            <path class="cls-8" d="M278.37,149.09c0-2.58.34-5.37,1.02-8.32,1.89-8.17,6.22-16.33,11.3-21.29,4.99-4.87,11.63-7.56,18.68-7.56s13.69,2.68,18.69,7.56c4.99,4.87,7.74,11.35,7.74,18.25s-2.75,13.37-7.74,18.25c-5.08,4.96-13.43,9.18-21.8,11.03-9.85,2.17-17.94.76-22.8-3.98-3.36-3.29-5.09-8.09-5.09-13.94ZM331.27,137.73c0-5.48-2.14-10.96-6.41-15.13-8.54-8.34-22.44-8.34-30.98,0-8.76,8.56-15.63,29.11-7.22,37.31,8.4,8.2,29.45,1.5,38.21-7.05,4.27-4.17,6.41-9.65,6.41-15.13Z"/>
          </g>
          <g>
            <path class="cls-5" d="M268.25,121.05c9.44,9.22,16.66,31.21,7.22,40.43-9.44,9.22-31.96,2.16-41.4-7.05-9.44-9.22-9.44-24.16,0-33.37s24.74-9.22,34.18,0Z"/>
            <path class="cls-8" d="M224.73,137.73c0-6.89,2.75-13.37,7.74-18.25s11.63-7.56,18.69-7.56,13.69,2.68,18.68,7.56c5.08,4.96,9.4,13.11,11.3,21.29,2.23,9.62.78,17.52-4.07,22.26-4.85,4.74-12.95,6.15-22.8,3.98-8.37-1.85-16.72-6.07-21.8-11.03-4.99-4.87-7.74-11.35-7.74-18.25ZM277.69,149.04c0-9.26-5.08-20.62-11.04-26.44-8.54-8.34-22.44-8.34-30.98,0-8.54,8.34-8.54,21.91,0,30.26,8.76,8.56,29.81,15.26,38.21,7.05,2.69-2.63,3.81-6.52,3.81-10.87Z"/>
          </g>
          <g>
            <path class="cls-5" d="M326.46,177.89c-9.44-9.22-31.96-16.27-41.4-7.05-9.44,9.22-2.21,31.21,7.22,40.43,9.44,9.22,24.74,9.22,34.18,0s9.44-24.16,0-33.37Z"/>
            <path class="cls-8" d="M278.37,183.22c0-5.85,1.73-10.66,5.09-13.94,4.85-4.74,12.95-6.15,22.8-3.98,8.37,1.85,16.72,6.07,21.8,11.03,4.99,4.87,7.74,11.35,7.74,18.25s-2.75,13.37-7.74,18.25c-4.99,4.87-11.63,7.56-18.69,7.56s-13.69-2.68-18.68-7.56c-5.08-4.96-9.4-13.11-11.3-21.29-.68-2.95-1.02-5.73-1.02-8.32ZM331.27,194.58c0-5.48-2.14-10.96-6.41-15.13-8.76-8.56-29.81-15.26-38.21-7.05-3.66,3.58-4.71,10.2-2.86,18.17,1.69,7.29,5.65,14.81,10.08,19.14,8.54,8.34,22.44,8.34,30.98,0,4.27-4.17,6.41-9.65,6.41-15.13Z"/>
          </g>
        </g>
        <g>
          <polygon class="cls-6" points="252.95 192.83 270.96 166.16 252.95 139.48 280.27 157.07 307.58 139.48 289.57 166.16 307.58 192.83 280.27 175.24 252.95 192.83"/>
          <path class="cls-8" d="M245,131.72l35.26,22.71,35.26-22.71-23.26,34.43,23.26,34.43-35.26-22.71-35.26,22.71,23.26-34.43-23.26-34.43ZM273.67,166.16l-12.78,18.92,19.37-12.48,19.37,12.48-12.78-18.92,12.78-18.92-19.37,12.48-19.37-12.48,12.78,18.92Z"/>
        </g>
        <g>
          <path class="cls-1" d="M263.18,149.47c9.44-9.22,24.74-9.22,34.18,0s9.44,24.16,0,33.37c-9.44,9.22-24.74,9.22-34.18,0-9.44-9.22-9.44-24.16,0-33.37Z"/>
          <path class="cls-8" d="M254.17,166.16c0-6.53,2.54-13.05,7.63-18.02,4.93-4.81,11.48-7.47,18.46-7.47s13.53,2.65,18.46,7.47c10.18,9.94,10.18,26.11,0,36.05-4.93,4.81-11.48,7.47-18.46,7.47s-13.53-2.65-18.46-7.47c-5.09-4.97-7.63-11.5-7.63-18.02ZM302.49,166.16c0-5.56-2.17-11.12-6.5-15.35-4.2-4.1-9.78-6.36-15.72-6.36s-11.52,2.26-15.72,6.36c-8.67,8.46-8.67,22.24,0,30.7,4.2,4.1,9.78,6.36,15.72,6.36s11.52-2.26,15.72-6.36c4.33-4.23,6.5-9.79,6.5-15.35Z"/>
        </g>
      </g>
      <g>
        <g>
          <g>
            <path class="cls-5" d="M124.2,177.89c9.44-9.22,31.96-16.27,41.4-7.05,9.44,9.22,2.21,31.21-7.22,40.43-9.44,9.22-24.74,9.22-34.18,0-9.44-9.22-9.44-24.16,0-33.37Z"/>
            <path class="cls-8" d="M114.87,194.58c0-6.89,2.75-13.37,7.74-18.25,5.08-4.96,13.43-9.18,21.8-11.03,9.85-2.17,17.94-.76,22.8,3.98,4.85,4.74,6.3,12.64,4.07,22.26-1.89,8.17-6.22,16.33-11.3,21.29-4.99,4.87-11.63,7.56-18.68,7.56s-13.69-2.68-18.69-7.56c-4.99-4.87-7.74-11.35-7.74-18.25ZM167.76,183.29c0-4.67-1.28-8.48-3.75-10.9-8.4-8.2-29.45-1.5-38.21,7.05-8.54,8.34-8.54,21.91,0,30.26,8.54,8.34,22.44,8.34,30.98,0,4.44-4.33,8.4-11.85,10.08-19.14.6-2.58.89-5.03.89-7.27Z"/>
          </g>
          <g>
            <path class="cls-5" d="M182.42,121.05c-9.44,9.22-16.66,31.21-7.22,40.43,9.44,9.22,31.96,2.16,41.4-7.05,9.44-9.22,9.44-24.16,0-33.37-9.44-9.22-24.74-9.22-34.18,0Z"/>
            <path class="cls-8" d="M168.5,149.09c0-2.58.34-5.37,1.02-8.32,1.89-8.17,6.22-16.33,11.3-21.29,4.99-4.87,11.63-7.56,18.68-7.56s13.69,2.68,18.69,7.56c4.99,4.87,7.74,11.35,7.74,18.25s-2.75,13.37-7.74,18.25c-5.08,4.96-13.43,9.18-21.8,11.03-9.85,2.17-17.94.76-22.8-3.98-3.36-3.29-5.09-8.09-5.09-13.94ZM221.4,137.73c0-5.48-2.14-10.96-6.41-15.13-8.54-8.34-22.44-8.34-30.98,0-8.76,8.56-15.63,29.11-7.22,37.31,8.4,8.2,29.45,1.5,38.21-7.05,4.27-4.17,6.41-9.65,6.41-15.13Z"/>
          </g>
          <g>
            <path class="cls-5" d="M158.38,121.05c9.44,9.22,16.66,31.21,7.22,40.43-9.44,9.22-31.96,2.16-41.4-7.05-9.44-9.22-9.44-24.16,0-33.37,9.44-9.22,24.74-9.22,34.18,0Z"/>
            <path class="cls-8" d="M114.87,137.73c0-6.89,2.75-13.37,7.74-18.25s11.63-7.56,18.69-7.56,13.69,2.68,18.68,7.56c5.08,4.96,9.4,13.11,11.3,21.29,2.23,9.62.78,17.52-4.07,22.26-4.85,4.74-12.95,6.15-22.8,3.98-8.37-1.85-16.72-6.07-21.8-11.03-4.99-4.87-7.74-11.35-7.74-18.25ZM167.82,149.04c0-9.26-5.08-20.62-11.04-26.44-8.54-8.34-22.44-8.34-30.98,0-8.54,8.34-8.54,21.91,0,30.26,8.76,8.56,29.81,15.26,38.21,7.05,2.69-2.63,3.81-6.52,3.81-10.87Z"/>
          </g>
          <g>
            <path class="cls-5" d="M216.59,177.89c-9.44-9.22-31.96-16.27-41.4-7.05-9.44,9.22-2.21,31.21,7.22,40.43,9.44,9.22,24.74,9.22,34.18,0,9.44-9.22,9.44-24.16,0-33.37Z"/>
            <path class="cls-8" d="M168.5,183.22c0-5.85,1.73-10.66,5.09-13.94,4.85-4.74,12.95-6.15,22.8-3.98,8.37,1.85,16.72,6.07,21.8,11.03,4.99,4.87,7.74,11.35,7.74,18.25s-2.75,13.37-7.74,18.25c-4.99,4.87-11.63,7.56-18.69,7.56s-13.69-2.68-18.68-7.56c-5.08-4.96-9.4-13.11-11.3-21.29-.68-2.95-1.02-5.73-1.02-8.32ZM221.4,194.58c0-5.48-2.14-10.96-6.41-15.13-8.76-8.56-29.81-15.26-38.21-7.05-3.66,3.58-4.71,10.2-2.86,18.17,1.69,7.29,5.65,14.81,10.08,19.14,8.54,8.34,22.44,8.34,30.98,0,4.27-4.17,6.41-9.65,6.41-15.13Z"/>
          </g>
        </g>
        <g>
          <polygon class="cls-6" points="143.08 192.83 161.1 166.16 143.08 139.48 170.4 157.07 197.72 139.48 179.7 166.16 197.72 192.83 170.4 175.24 143.08 192.83"/>
          <path class="cls-8" d="M135.14,131.72l35.26,22.71,35.26-22.71-23.26,34.43,23.26,34.43-35.26-22.71-35.26,22.71,23.26-34.43-23.26-34.43ZM163.8,166.16l-12.78,18.92,19.37-12.48,19.37,12.48-12.78-18.92,12.78-18.92-19.37,12.48-19.37-12.48,12.78,18.92Z"/>
        </g>
        <g>
          <path class="cls-1" d="M153.31,149.47c9.44-9.22,24.74-9.22,34.18,0,9.44,9.22,9.44,24.16,0,33.37s-24.74,9.22-34.18,0c-9.44-9.22-9.44-24.16,0-33.37Z"/>
          <path class="cls-8" d="M144.31,166.16c0-6.53,2.54-13.05,7.63-18.02,4.93-4.81,11.48-7.47,18.46-7.47s13.53,2.65,18.46,7.47c10.18,9.94,10.18,26.11,0,36.05-4.93,4.81-11.48,7.47-18.46,7.47s-13.53-2.65-18.46-7.47c-5.09-4.97-7.63-11.5-7.63-18.02ZM192.62,166.16c0-5.56-2.17-11.12-6.5-15.35-4.2-4.1-9.78-6.36-15.72-6.36s-11.52,2.26-15.72,6.36c-8.67,8.46-8.67,22.24,0,30.7,4.2,4.1,9.78,6.36,15.72,6.36s11.52-2.26,15.72-6.36c4.33-4.23,6.5-9.79,6.5-15.35Z"/>
        </g>
      </g>
      <g>
        <g>
          <g>
            <path class="cls-5" d="M14.34,177.89c9.44-9.22,31.96-16.27,41.4-7.05,9.44,9.22,2.21,31.21-7.22,40.43s-24.74,9.22-34.18,0c-9.44-9.22-9.44-24.16,0-33.37Z"/>
            <path class="cls-8" d="M5,194.58c0-6.89,2.75-13.37,7.74-18.25,5.08-4.96,13.43-9.18,21.8-11.03,9.85-2.17,17.94-.76,22.8,3.98,4.85,4.74,6.3,12.64,4.07,22.26-1.89,8.17-6.22,16.33-11.3,21.29-4.99,4.87-11.63,7.56-18.68,7.56s-13.69-2.68-18.69-7.56c-4.99-4.87-7.74-11.35-7.74-18.25ZM57.89,183.29c0-4.67-1.28-8.48-3.75-10.9-8.4-8.2-29.45-1.5-38.21,7.05-8.54,8.34-8.54,21.91,0,30.26,8.54,8.34,22.44,8.34,30.98,0,4.44-4.33,8.4-11.85,10.08-19.14.6-2.58.89-5.03.89-7.27Z"/>
          </g>
          <g>
            <path class="cls-5" d="M72.55,121.05c-9.44,9.22-16.66,31.21-7.22,40.43,9.44,9.22,31.96,2.16,41.4-7.05,9.44-9.22,9.44-24.16,0-33.37s-24.74-9.22-34.18,0Z"/>
            <path class="cls-8" d="M58.64,149.09c0-2.58.34-5.37,1.02-8.32,1.89-8.17,6.22-16.33,11.3-21.29,4.99-4.87,11.63-7.56,18.68-7.56s13.69,2.68,18.69,7.56c4.99,4.87,7.74,11.35,7.74,18.25s-2.75,13.37-7.74,18.25c-5.08,4.96-13.43,9.18-21.8,11.03-9.85,2.17-17.94.76-22.8-3.98-3.36-3.29-5.09-8.09-5.09-13.94ZM111.54,137.73c0-5.48-2.14-10.96-6.41-15.13-8.54-8.34-22.44-8.34-30.98,0-8.76,8.56-15.63,29.11-7.22,37.31,8.4,8.2,29.45,1.5,38.21-7.05,4.27-4.17,6.41-9.65,6.41-15.13Z"/>
          </g>
          <g>
            <path class="cls-5" d="M48.51,121.05c9.44,9.22,16.66,31.21,7.22,40.43-9.44,9.22-31.96,2.16-41.4-7.05-9.44-9.22-9.44-24.16,0-33.37,9.44-9.22,24.74-9.22,34.18,0Z"/>
            <path class="cls-8" d="M5,137.73c0-6.89,2.75-13.37,7.74-18.25s11.63-7.56,18.69-7.56,13.69,2.68,18.68,7.56c5.08,4.96,9.4,13.11,11.3,21.29,2.23,9.62.78,17.52-4.07,22.26-4.85,4.74-12.95,6.15-22.8,3.98-8.37-1.85-16.72-6.07-21.8-11.03-4.99-4.87-7.74-11.35-7.74-18.25ZM57.96,149.04c0-9.26-5.08-20.62-11.04-26.44-8.54-8.34-22.44-8.34-30.98,0-8.54,8.34-8.54,21.91,0,30.26,8.76,8.56,29.81,15.26,38.21,7.05,2.69-2.63,3.81-6.52,3.81-10.87Z"/>
          </g>
          <g>
            <path class="cls-5" d="M106.73,177.89c-9.44-9.22-31.96-16.27-41.4-7.05-9.44,9.22-2.21,31.21,7.22,40.43,9.44,9.22,24.74,9.22,34.18,0,9.44-9.22,9.44-24.16,0-33.37Z"/>
            <path class="cls-8" d="M58.64,183.22c0-5.85,1.73-10.66,5.09-13.94,4.85-4.74,12.95-6.15,22.8-3.98,8.37,1.85,16.72,6.07,21.8,11.03,4.99,4.87,7.74,11.35,7.74,18.25s-2.75,13.37-7.74,18.25c-4.99,4.87-11.63,7.56-18.69,7.56s-13.69-2.68-18.68-7.56c-5.08-4.96-9.4-13.11-11.3-21.29-.68-2.95-1.02-5.73-1.02-8.32ZM111.54,194.58c0-5.48-2.14-10.96-6.41-15.13-8.76-8.56-29.81-15.26-38.21-7.05-3.66,3.58-4.7,10.2-2.86,18.17,1.69,7.29,5.65,14.81,10.08,19.14,8.54,8.34,22.44,8.34,30.98,0,4.27-4.17,6.41-9.65,6.41-15.13Z"/>
          </g>
        </g>
        <g>
          <polygon class="cls-6" points="33.21 192.83 51.23 166.16 33.21 139.48 60.53 157.07 87.85 139.48 69.83 166.16 87.85 192.83 60.53 175.24 33.21 192.83"/>
          <path class="cls-8" d="M25.27,131.72l35.26,22.71,35.26-22.71-23.26,34.43,23.26,34.43-35.26-22.71-35.26,22.71,23.26-34.43-23.26-34.43ZM53.93,166.16l-12.78,18.92,19.37-12.48,19.37,12.48-12.78-18.92,12.78-18.92-19.37,12.48-19.37-12.48,12.78,18.92Z"/>
        </g>
        <g>
          <path class="cls-1" d="M43.44,149.47c9.44-9.22,24.74-9.22,34.18,0,9.44,9.22,9.44,24.16,0,33.37-9.44,9.22-24.74,9.22-34.18,0-9.44-9.22-9.44-24.16,0-33.37Z"/>
          <path class="cls-8" d="M34.44,166.16c0-6.53,2.54-13.05,7.63-18.02,10.18-9.94,26.74-9.94,36.91,0,10.18,9.94,10.18,26.11,0,36.05-10.18,9.94-26.74,9.94-36.91,0-5.09-4.97-7.63-11.5-7.63-18.02ZM82.75,166.16c0-5.56-2.17-11.12-6.5-15.35-8.67-8.46-22.77-8.46-31.44,0-8.67,8.46-8.67,22.24,0,30.7,8.67,8.46,22.77,8.46,31.44,0,4.33-4.23,6.5-9.79,6.5-15.35Z"/>
        </g>
      </g>
    </g>
  </g>
  <g>
    <g>
      <path class="cls-9" d="M282.67,324.05c0,27.67-39.04,128.72-39.04,128.72,0,0-39.04-101.05-39.04-128.72s39.04-50.1,39.04-50.1c0,0,39.04,22.43,39.04,50.1Z"/>
      <path class="cls-9" d="M422.78,464.16c-27.67,0-128.72,39.04-128.72,39.04,0,0,101.05,39.04,128.72,39.04s50.1-39.04,50.1-39.04c0,0-22.43-39.04-50.1-39.04Z"/>
      <path class="cls-9" d="M65.6,541.12c27.67,0,128.72-39.04,128.72-39.04,0,0-101.05-39.04-128.72-39.04s-50.1,39.04-50.1,39.04c0,0,22.43,39.04,50.1,39.04Z"/>
      <path class="cls-9" d="M205.71,681.23c0-27.67,39.04-128.72,39.04-128.72,0,0,39.04,101.05,39.04,128.72s-39.04,50.1-39.04,50.1c0,0-39.04-22.43-39.04-50.1Z"/>
      <g>
        <path class="cls-7" d="M193.79,695.36c35.52-35.52,48.42-97.96,53.02-143.6-4.78.19-9.57-.29-14.24-1.43-8.94-2.17-17.43-6.75-24.41-13.73-6.98-6.98-11.56-15.47-13.73-24.41-1.13-4.67-1.61-9.47-1.43-14.24-45.65,4.6-108.09,17.5-143.6,53.02-60.64,60.64-40.93,185.33-40.93,185.33,0,0,124.69,19.71,185.33-40.93Z"/>
        <path class="cls-4" d="M182.07,681.99c33.41-33.41,45.86-92.11,50.49-131.66-8.94-2.17-17.43-6.75-24.41-13.73-6.98-6.98-11.56-15.47-13.73-24.41-39.54,4.63-98.24,17.08-131.66,50.49-53.66,53.66-40.46,159.77-40.46,159.77,0,0,106.11,13.2,159.77-40.46Z"/>
      </g>
      <path class="cls-2" d="M187.43,664.94s-11.03-13.52-11.49-36.15c-7.38,23.42-26.92,66.3-52.06,75.5,0,0-16.83-18.05-11.92-44.69-2.76,10.21-9.59,21.68-19.73,31.83-19.66,19.66-55.05,16.14-55.05,16.14,0,0-3.52-35.39,16.14-55.05,10.15-10.15,21.62-16.97,31.83-19.73-26.65,4.91-44.69-11.92-44.69-11.92,9.2-25.14,52.08-44.67,75.5-52.06-22.63-.46-36.15-11.49-36.15-11.49,22.16-30.13,118.61-36.29,118.61-36.29l7.18,9.57s.05-.03.05-.03l4.26,4.26s-.18.17-.5.48l.02.02c.31-.32.48-.5.48-.5l4.26,4.26s0,.02-.03.05l9.57,7.18s-6.16,96.46-36.29,118.61Z"/>
      <g>
        <path class="cls-7" d="M440.11,449.04c-35.52,35.52-97.96,48.42-143.6,53.02.19-4.78-.29-9.57-1.43-14.24-2.17-8.94-6.75-17.43-13.73-24.41-6.98-6.98-15.47-11.56-24.41-13.73-4.67-1.13-9.47-1.61-14.24-1.43,4.6-45.65,17.5-108.09,53.02-143.6,60.64-60.64,185.33-40.93,185.33-40.93,0,0,19.71,124.69-40.93,185.33Z"/>
        <path class="cls-4" d="M426.74,437.32c-33.41,33.41-92.11,45.86-131.66,50.49-2.17-8.94-6.75-17.43-13.73-24.41-6.98-6.98-15.47-11.56-24.41-13.73,4.63-39.54,17.08-98.24,50.49-131.66,53.66-53.66,159.77-40.46,159.77-40.46,0,0,13.2,106.11-40.46,159.77Z"/>
      </g>
      <path class="cls-2" d="M409.69,442.68s-13.52-11.03-36.15-11.49c23.42-7.38,66.3-26.92,75.5-52.06,0,0-18.05-16.83-44.69-11.92,10.21-2.76,21.68-9.59,31.83-19.73,19.66-19.66,16.14-55.05,16.14-55.05,0,0-35.39-3.52-55.05,16.14-10.15,10.15-16.97,21.62-19.73,31.83,4.91-26.65-11.92-44.69-11.92-44.69-25.14,9.2-44.67,52.08-52.06,75.5-.46-22.63-11.49-36.15-11.49-36.15-30.13,22.16-36.29,118.61-36.29,118.61l9.57,7.18s-.03.05-.03.05l4.26,4.26s.17-.18.48-.5l.02.02c-.32.31-.5.48-.5.48l4.26,4.26s.02,0,.05-.03l7.18,9.57s96.46-6.16,118.61-36.29Z"/>
      <g>
        <path class="cls-7" d="M49.39,449.04c35.52,35.52,97.96,48.42,143.6,53.02-.19-4.78.29-9.57,1.43-14.24,2.17-8.94,6.75-17.43,13.73-24.41,6.98-6.98,15.47-11.56,24.41-13.73,4.67-1.13,9.47-1.61,14.24-1.43-4.6-45.65-17.5-108.09-53.02-143.6-60.64-60.64-185.33-40.93-185.33-40.93,0,0-19.71,124.69,40.93,185.33Z"/>
        <path class="cls-4" d="M62.76,437.32c33.41,33.41,92.11,45.86,131.66,50.49,2.17-8.94,6.75-17.43,13.73-24.41,6.98-6.98,15.47-11.56,24.41-13.73-4.63-39.54-17.08-98.24-50.49-131.66-53.66-53.66-159.77-40.46-159.77-40.46,0,0-13.2,106.11,40.46,159.77Z"/>
      </g>
      <path class="cls-2" d="M79.81,442.68s13.52-11.03,36.15-11.49c-23.42-7.38-66.3-26.92-75.5-52.06,0,0,18.05-16.83,44.69-11.92-10.21-2.76-21.68-9.59-31.83-19.73-19.66-19.66-16.14-55.05-16.14-55.05,0,0,35.39-3.52,55.05,16.14,10.15,10.15,16.97,21.62,19.73,31.83-4.91-26.65,11.92-44.69,11.92-44.69,25.14,9.2,44.67,52.08,52.06,75.5.46-22.63,11.49-36.15,11.49-36.15,30.13,22.16,36.29,118.61,36.29,118.61l-9.57,7.18s.03.05.03.05l-4.26,4.26s-.17-.18-.48-.5l-.02.02c.32.31.5.48.5.48l-4.26,4.26s-.02,0-.05-.03l-7.18,9.57s-96.46-6.16-118.61-36.29Z"/>
      <g>
        <path class="cls-7" d="M295.71,695.36c-35.52-35.52-48.42-97.96-53.02-143.6,4.78.19,9.57-.29,14.24-1.43,8.94-2.17,17.43-6.75,24.41-13.73,6.98-6.98,11.56-15.47,13.73-24.41,1.13-4.67,1.61-9.47,1.43-14.24,45.65,4.6,108.09,17.5,143.6,53.02,60.64,60.64,40.93,185.33,40.93,185.33,0,0-124.69,19.71-185.33-40.93Z"/>
        <path class="cls-4" d="M307.43,681.99c-33.41-33.41-45.86-92.11-50.49-131.66,8.94-2.17,17.43-6.75,24.41-13.73,6.98-6.98,11.56-15.47,13.73-24.41,39.54,4.63,98.24,17.08,131.66,50.49,53.66,53.66,40.46,159.77,40.46,159.77,0,0-106.11,13.2-159.77-40.46Z"/>
      </g>
      <path class="cls-2" d="M302.07,664.94s11.03-13.52,11.49-36.15c7.38,23.42,26.92,66.3,52.06,75.5,0,0,16.83-18.05,11.92-44.69,2.76,10.21,9.59,21.68,19.73,31.83,19.66,19.66,55.05,16.14,55.05,16.14,0,0,3.52-35.39-16.14-55.05-10.15-10.15-21.62-16.97-31.83-19.73,26.65,4.91,44.69-11.92,44.69-11.92-9.2-25.14-52.08-44.67-75.5-52.06,22.63-.46,36.15-11.49,36.15-11.49-22.16-30.13-118.61-36.29-118.61-36.29l-7.18,9.57s-.05-.03-.05-.03l-4.26,4.26s.18.17.5.48l-.02.02c-.31-.32-.48-.5-.48-.5l-4.26,4.26s0,.02.03.05l-9.57,7.18s6.16,96.46,36.29,118.61Z"/>
      <path class="cls-7" d="M281.35,463.4c-20.27-20.27-53.15-20.27-73.42,0-20.27,20.27-20.27,53.15,0,73.42,20.27,20.27,53.15,20.27,73.42,0,20.27-20.27,20.27-53.15,0-73.42ZM236.09,508.66c-4.72-4.72-4.72-12.37,0-17.09,4.72-4.72,12.37-4.72,17.09,0s4.72,12.37,0,17.09c-4.72,4.72-12.37,4.72-17.09,0Z"/>
      <circle class="cls-3" cx="244.08" cy="500.03" r="16.52"/>
    </g>
    <g>
      <path class="cls-9" d="M793.17,324.05c0,27.67-39.04,128.72-39.04,128.72,0,0-39.04-101.05-39.04-128.72,0-27.67,39.04-50.1,39.04-50.1,0,0,39.04,22.43,39.04,50.1Z"/>
      <path class="cls-9" d="M933.28,464.16c-27.67,0-128.72,39.04-128.72,39.04,0,0,101.05,39.04,128.72,39.04s50.1-39.04,50.1-39.04c0,0-22.43-39.04-50.1-39.04Z"/>
      <path class="cls-9" d="M576.09,541.12c27.67,0,128.72-39.04,128.72-39.04,0,0-101.05-39.04-128.72-39.04s-50.1,39.04-50.1,39.04c0,0,22.43,39.04,50.1,39.04Z"/>
      <path class="cls-9" d="M716.21,681.23c0-27.67,39.04-128.72,39.04-128.72,0,0,39.04,101.05,39.04,128.72s-39.04,50.1-39.04,50.1c0,0-39.04-22.43-39.04-50.1Z"/>
      <g>
        <path class="cls-7" d="M704.29,695.36c35.52-35.52,48.42-97.96,53.02-143.6-4.78.19-9.57-.29-14.24-1.43-8.94-2.17-17.43-6.75-24.41-13.73-6.98-6.98-11.56-15.47-13.73-24.41-1.13-4.67-1.61-9.47-1.43-14.24-45.65,4.6-108.09,17.5-143.6,53.02-60.64,60.64-40.93,185.33-40.93,185.33,0,0,124.69,19.71,185.33-40.93Z"/>
        <path class="cls-4" d="M692.57,681.99c33.41-33.41,45.86-92.11,50.49-131.66-8.94-2.17-17.43-6.75-24.41-13.73-6.98-6.98-11.56-15.47-13.73-24.41-39.54,4.63-98.24,17.08-131.66,50.49-53.66,53.66-40.46,159.77-40.46,159.77,0,0,106.11,13.2,159.77-40.46Z"/>
      </g>
      <path class="cls-2" d="M697.93,664.94s-11.03-13.52-11.49-36.15c-7.38,23.42-26.92,66.3-52.06,75.5,0,0-16.83-18.05-11.92-44.69-2.76,10.21-9.59,21.68-19.73,31.83-19.66,19.66-55.05,16.14-55.05,16.14,0,0-3.52-35.39,16.14-55.05,10.15-10.15,21.62-16.97,31.83-19.73-26.65,4.91-44.69-11.92-44.69-11.92,9.2-25.14,52.08-44.67,75.5-52.06-22.63-.46-36.15-11.49-36.15-11.49,22.16-30.13,118.61-36.29,118.61-36.29l7.18,9.57s.05-.03.05-.03l4.26,4.26s-.18.17-.5.48l.02.02c.31-.32.48-.5.48-.5l4.26,4.26s0,.02-.03.05l9.57,7.18s-6.16,96.46-36.29,118.61Z"/>
      <g>
        <path class="cls-7" d="M950.61,449.04c-35.52,35.52-97.96,48.42-143.6,53.02.19-4.78-.29-9.57-1.43-14.24-2.17-8.94-6.75-17.43-13.73-24.41-6.98-6.98-15.47-11.56-24.41-13.73-4.67-1.13-9.47-1.61-14.24-1.43,4.6-45.65,17.5-108.09,53.02-143.6,60.64-60.64,185.33-40.93,185.33-40.93,0,0,19.71,124.69-40.93,185.33Z"/>
        <path class="cls-4" d="M937.24,437.32c-33.41,33.41-92.11,45.86-131.66,50.49-2.17-8.94-6.75-17.43-13.73-24.41-6.98-6.98-15.47-11.56-24.41-13.73,4.63-39.54,17.08-98.24,50.49-131.66,53.66-53.66,159.77-40.46,159.77-40.46,0,0,13.2,106.11-40.46,159.77Z"/>
      </g>
      <path class="cls-2" d="M920.19,442.68s-13.52-11.03-36.15-11.49c23.42-7.38,66.3-26.92,75.5-52.06,0,0-18.05-16.83-44.69-11.92,10.21-2.76,21.68-9.59,31.83-19.73,19.66-19.66,16.14-55.05,16.14-55.05,0,0-35.39-3.52-55.05,16.14-10.15,10.15-16.97,21.62-19.73,31.83,4.91-26.65-11.92-44.69-11.92-44.69-25.14,9.2-44.67,52.08-52.06,75.5-.46-22.63-11.49-36.15-11.49-36.15-30.13,22.16-36.29,118.61-36.29,118.61l9.57,7.18s-.03.05-.03.05l4.26,4.26s.17-.18.48-.5l.02.02c-.32.31-.5.48-.5.48l4.26,4.26s.02,0,.05-.03l7.18,9.57s96.46-6.16,118.61-36.29Z"/>
      <g>
        <path class="cls-7" d="M559.89,449.04c35.52,35.52,97.96,48.42,143.6,53.02-.19-4.78.29-9.57,1.43-14.24,2.17-8.94,6.75-17.43,13.73-24.41,6.98-6.98,15.47-11.56,24.41-13.73,4.67-1.13,9.47-1.61,14.24-1.43-4.6-45.65-17.5-108.09-53.02-143.6-60.64-60.64-185.33-40.93-185.33-40.93,0,0-19.71,124.69,40.93,185.33Z"/>
        <path class="cls-4" d="M573.26,437.32c33.41,33.41,92.11,45.86,131.66,50.49,2.17-8.94,6.75-17.43,13.73-24.41,6.98-6.98,15.47-11.56,24.41-13.73-4.63-39.54-17.08-98.24-50.49-131.66-53.66-53.66-159.77-40.46-159.77-40.46,0,0-13.2,106.11,40.46,159.77Z"/>
      </g>
      <path class="cls-2" d="M590.31,442.68s13.52-11.03,36.15-11.49c-23.42-7.38-66.3-26.92-75.5-52.06,0,0,18.05-16.83,44.69-11.92-10.21-2.76-21.68-9.59-31.83-19.73-19.66-19.66-16.14-55.05-16.14-55.05,0,0,35.39-3.52,55.05,16.14,10.15,10.15,16.97,21.62,19.73,31.83-4.91-26.65,11.92-44.69,11.92-44.69,25.14,9.2,44.67,52.08,52.06,75.5.46-22.63,11.49-36.15,11.49-36.15,30.13,22.16,36.29,118.61,36.29,118.61l-9.57,7.18s.03.05.03.05l-4.26,4.26s-.17-.18-.48-.5l-.02.02c.32.31.5.48.5.48l-4.26,4.26s-.02,0-.05-.03l-7.18,9.57s-96.46-6.16-118.61-36.29Z"/>
      <g>
        <path class="cls-7" d="M806.21,695.36c-35.52-35.52-48.42-97.96-53.02-143.6,4.78.19,9.57-.29,14.24-1.43,8.94-2.17,17.43-6.75,24.41-13.73,6.98-6.98,11.56-15.47,13.73-24.41,1.13-4.67,1.61-9.47,1.43-14.24,45.65,4.6,108.09,17.5,143.6,53.02,60.64,60.64,40.93,185.33,40.93,185.33,0,0-124.69,19.71-185.33-40.93Z"/>
        <path class="cls-4" d="M817.93,681.99c-33.41-33.41-45.86-92.11-50.49-131.66,8.94-2.17,17.43-6.75,24.41-13.73,6.98-6.98,11.56-15.47,13.73-24.41,39.54,4.63,98.24,17.08,131.66,50.49,53.66,53.66,40.46,159.77,40.46,159.77,0,0-106.11,13.2-159.77-40.46Z"/>
      </g>
      <path class="cls-2" d="M812.57,664.94s11.03-13.52,11.49-36.15c7.38,23.42,26.92,66.3,52.06,75.5,0,0,16.83-18.05,11.92-44.69,2.76,10.21,9.59,21.68,19.73,31.83,19.66,19.66,55.05,16.14,55.05,16.14,0,0,3.52-35.39-16.14-55.05-10.15-10.15-21.62-16.97-31.83-19.73,26.65,4.91,44.69-11.92,44.69-11.92-9.2-25.14-52.08-44.67-75.5-52.06,22.63-.46,36.15-11.49,36.15-11.49-22.16-30.13-118.61-36.29-118.61-36.29l-7.18,9.57s-.05-.03-.05-.03l-4.26,4.26s.18.17.5.48l-.02.02c-.31-.32-.48-.5-.48-.5l-4.26,4.26s0,.02.03.05l-9.57,7.18s6.16,96.46,36.29,118.61Z"/>
      <path class="cls-7" d="M791.85,463.4c-20.27-20.27-53.15-20.27-73.42,0-20.27,20.27-20.27,53.15,0,73.42,20.27,20.27,53.15,20.27,73.42,0,20.27-20.27,20.27-53.15,0-73.42ZM746.59,508.66c-4.72-4.72-4.72-12.37,0-17.09,4.72-4.72,12.37-4.72,17.09,0,4.72,4.72,4.72,12.37,0,17.09s-12.37,4.72-17.09,0Z"/>
      <circle class="cls-3" cx="754.57" cy="500.03" r="16.52"/>
    </g>
  </g>
</svg>