<?xml version="1.0" encoding="UTF-8"?>
<svg id="Layer_10" data-name="Layer 10" xmlns="http://www.w3.org/2000/svg" viewBox="0 0 1000 1000">
  <defs>
    <style>
      .cls-1 {
        fill: #ffc82f;
      }

      .cls-2 {
        fill: #00973f;
      }

      .cls-3 {
        fill: #048732;
      }
    </style>
  </defs>
  <g>
    <g>
      <g>
        <path d="M371.26,498.35c0,91.01-41.26,166.96-96.31,185.15-8.13-2.77-16.62-6.38-25.42-10.78-8.79,4.4-17.29,8.01-25.42,10.78-55.11-18.13-96.37-94.14-96.37-185.15,0-3.43.12-6.87.42-10.24,7.47-99.8,121.36-179.07,121.36-179.07,0,0,113.9,79.26,121.31,179.07.3,3.37.42,6.81.42,10.24Z"/>
        <path class="cls-1" d="M274.94,687.53l-1.21-.41c-7.64-2.61-15.77-6.01-24.18-10.14-8.41,4.13-16.54,7.54-24.19,10.14l-1.21.41-1.21-.4c-57.36-18.87-98.99-98.26-98.99-188.77,0-3.54.13-7.09.43-10.57,7.52-100.4,118.28-178.58,122.99-181.86l2.17-1.52,2.17,1.52c4.71,3.28,115.47,81.45,122.93,181.91.3,3.43.42,6.98.42,10.52,0,90.44-41.6,169.83-98.92,188.77l-1.21.4ZM249.54,313.75c-15.7,11.59-110.89,85.39-117.57,174.64-.3,3.31-.41,6.63-.41,9.96,0,86.67,38.84,162.53,92.54,181.13,7.5-2.62,15.47-6.04,23.73-10.16l1.71-.85,1.71.85c8.27,4.13,16.24,7.54,23.72,10.16,53.66-18.67,92.48-94.53,92.48-181.13,0-3.32-.11-6.64-.4-9.9-6.63-89.35-101.8-163.1-117.51-174.69Z"/>
      </g>
      <g>
        <path class="cls-3" d="M172.21,481.27c0-66.37,77.3-120.18,77.3-120.18,0,0,77.3,53.81,77.3,120.18,0,66.37-34.61,120.18-77.3,120.18s-77.3-53.81-77.3-120.18Z"/>
        <path class="cls-1" d="M249.51,605.26c-44.72,0-81.11-55.62-81.11-123.99s75.71-121.07,78.93-123.31l2.18-1.52,2.18,1.52c3.22,2.24,78.93,55.72,78.93,123.31s-36.39,123.99-81.11,123.99ZM249.51,365.81c-12.41,9.31-73.49,58.04-73.49,115.46,0,64.16,32.96,116.37,73.49,116.37s73.49-52.2,73.49-116.37c0-57.42-61.07-106.15-73.49-115.46Z"/>
      </g>
      <g>
        <path d="M370.84,488.12c-7.47,6.26-14.15,14.15-19.58,24.15-51.02,94.8-101.73,89.2-101.73,89.2,0,0-50.77,5.6-101.79-89.2-5.42-10-12.11-17.89-19.58-24.15-41.86-34.93-108.42-16.98-108.42-16.98,0,0,30.48,51.08,39.09,102.15,8.01,47.46,56.25,147.81,165.27,110.22,8.13-2.77,16.62-6.38,25.42-10.78,8.79,4.4,17.29,8.01,25.42,10.78,108.96,37.58,157.2-62.76,165.21-110.22,8.61-51.08,39.09-102.15,39.09-102.15,0,0-66.56-17.95-108.42,16.98Z"/>
        <path class="cls-1" d="M178.4,695.6c-19.7,0-37.98-4.96-54.67-14.87-44.4-26.37-64.04-79.55-68.65-106.81-8.39-49.75-38.3-100.33-38.61-100.83l-2.58-4.32,4.86-1.31c2.78-.77,68.97-18.05,111.86,17.74,8.26,6.93,15.15,15.43,20.48,25.26,48.94,90.94,97.58,87.26,98.05,87.23l.39-.04.42.04c.45.1,49.02,3.72,97.95-87.22,5.33-9.83,12.22-18.33,20.48-25.26h0c42.89-35.81,109.06-18.51,111.85-17.74l4.86,1.31-2.58,4.32c-.31.51-30.22,51.09-38.61,100.83-4.6,27.28-24.24,80.46-68.65,106.83-29.26,17.36-63.43,19.52-101.56,6.37-7.62-2.6-15.76-6-24.17-10.13-8.41,4.13-16.54,7.54-24.19,10.14-16.4,5.65-32.08,8.48-46.95,8.48ZM25.63,473.71c7.65,13.72,29.72,55.96,36.98,98.94,4.39,25.97,23.01,76.58,65.01,101.52,27.28,16.2,59.32,18.12,95.26,5.73,7.86-2.68,16.25-6.24,24.96-10.59l1.71-.85,1.71.85c8.72,4.36,17.11,7.92,24.94,10.58,35.92,12.4,67.95,10.48,95.21-5.71,42-24.94,60.63-75.56,65.02-101.53,7.25-42.97,29.33-85.22,36.98-98.94-15.82-3.19-66.66-10.57-100.09,17.32-7.52,6.32-13.81,14.07-18.67,23.05-49.77,92.5-99.56,91.66-105.08,91.21-5.45.39-55.34,1.33-105.15-91.22-4.86-8.98-11.15-16.74-18.66-23.05-33.43-27.89-84.25-20.5-100.1-17.32Z"/>
      </g>
      <path class="cls-1" d="M249.57,462.9c-13.76,0-17.16,18.37-17.16,18.37,0,0,6.81-5.84,17.07-5.84,11.3,0,17.12,5.84,17.12,5.84,0,0-3.58-18.37-17.03-18.37Z"/>
      <path class="cls-1" d="M249.56,440.52c-11,0-13.72,14.68-13.72,14.68,0,0,5.44-4.67,13.65-4.67,9.03,0,13.69,4.67,13.69,4.67,0,0-2.86-14.68-13.62-14.68Z"/>
    </g>
    <g>
      <g>
        <path d="M872.25,501.65c0-91.01-41.26-166.96-96.31-185.15-8.13,2.77-16.62,6.38-25.42,10.78-8.79-4.4-17.29-8.01-25.42-10.78-55.11,18.13-96.37,94.14-96.37,185.15,0,3.43.12,6.87.42,10.24,7.47,99.8,121.36,179.07,121.36,179.07,0,0,113.9-79.26,121.31-179.07.3-3.37.42-6.81.42-10.24Z"/>
        <path class="cls-1" d="M775.92,312.47l-1.21.41c-7.64,2.61-15.77,6.01-24.18,10.14-8.41-4.13-16.54-7.54-24.19-10.14l-1.21-.41-1.21.4c-57.36,18.87-98.99,98.26-98.99,188.77,0,3.54.13,7.09.43,10.57,7.52,100.4,118.28,178.58,122.99,181.86l2.17,1.52,2.17-1.52c4.71-3.28,115.47-81.45,122.93-181.91.3-3.43.42-6.98.42-10.52,0-90.44-41.6-169.83-98.92-188.77l-1.21-.4ZM750.53,686.25c-15.7-11.59-110.89-85.39-117.57-174.64-.3-3.31-.41-6.63-.41-9.96,0-86.67,38.84-162.53,92.54-181.13,7.5,2.62,15.47,6.04,23.73,10.16l1.71.85,1.71-.85c8.27-4.13,16.24-7.54,23.72-10.16,53.66,18.67,92.48,94.53,92.48,181.13,0,3.32-.11,6.64-.4,9.9-6.63,89.35-101.8,163.1-117.51,174.69Z"/>
      </g>
      <g>
        <path class="cls-3" d="M673.2,518.73c0,66.37,77.3,120.18,77.3,120.18,0,0,77.3-53.81,77.3-120.18,0-66.37-34.61-120.18-77.3-120.18-42.69,0-77.3,53.81-77.3,120.18Z"/>
        <path class="cls-1" d="M750.5,394.74c-44.72,0-81.11,55.62-81.11,123.99s75.71,121.07,78.93,123.31l2.18,1.52,2.18-1.52c3.22-2.24,78.93-55.72,78.93-123.31s-36.39-123.99-81.11-123.99ZM750.5,634.19c-12.41-9.31-73.49-58.04-73.49-115.46,0-64.16,32.96-116.37,73.49-116.37s73.49,52.2,73.49,116.37c0,57.42-61.07,106.15-73.49,115.46Z"/>
      </g>
      <g>
        <path d="M871.83,511.88c-7.47-6.26-14.15-14.15-19.58-24.15-51.02-94.8-101.73-89.2-101.73-89.2,0,0-50.77-5.6-101.79,89.2-5.42,10-12.11,17.89-19.58,24.15-41.86,34.93-108.42,16.98-108.42,16.98,0,0,30.48-51.08,39.09-102.15,8.01-47.46,56.25-147.81,165.27-110.22,8.13,2.77,16.62,6.38,25.42,10.78,8.79-4.4,17.29-8.01,25.42-10.78,108.96-37.58,157.2,62.76,165.21,110.22,8.61,51.08,39.09,102.15,39.09,102.15,0,0-66.56,17.95-108.42-16.98Z"/>
        <path class="cls-1" d="M679.39,304.4c-19.7,0-37.98,4.96-54.67,14.87-44.4,26.37-64.04,79.55-68.65,106.81-8.39,49.75-38.3,100.33-38.61,100.83l-2.58,4.32,4.86,1.31c2.78.77,68.97,18.05,111.86-17.74,8.26-6.93,15.15-15.43,20.48-25.26,48.94-90.94,97.58-87.26,98.05-87.23l.39.04.42-.04c.45-.1,49.02-3.72,97.95,87.22,5.33,9.83,12.22,18.33,20.48,25.26h0c42.89,35.81,109.06,18.51,111.85,17.74l4.86-1.31-2.58-4.32c-.31-.51-30.22-51.09-38.61-100.83-4.6-27.28-24.24-80.46-68.65-106.83-29.26-17.36-63.43-19.52-101.56-6.37-7.62,2.6-15.76,6-24.17,10.13-8.41-4.13-16.54-7.54-24.19-10.14-16.4-5.65-32.08-8.48-46.95-8.48ZM526.61,526.29c7.65-13.72,29.72-55.96,36.98-98.94,4.39-25.97,23.01-76.58,65.01-101.52,27.28-16.2,59.32-18.12,95.26-5.73,7.86,2.68,16.25,6.24,24.96,10.59l1.71.85,1.71-.85c8.72-4.36,17.11-7.92,24.94-10.58,35.92-12.4,67.95-10.48,95.21,5.71,42,24.94,60.63,75.56,65.02,101.53,7.25,42.97,29.33,85.22,36.98,98.94-15.82,3.19-66.66,10.57-100.09-17.32-7.52-6.32-13.81-14.07-18.67-23.05-49.77-92.5-99.56-91.66-105.08-91.21-5.45-.39-55.34-1.33-105.15,91.22-4.86,8.98-11.15,16.74-18.66,23.05-33.43,27.89-84.25,20.5-100.1,17.32Z"/>
      </g>
      <path class="cls-1" d="M750.55,537.1c-13.76,0-17.16-18.37-17.16-18.37,0,0,6.81,5.84,17.07,5.84,11.3,0,17.12-5.84,17.12-5.84,0,0-3.58,18.37-17.03,18.37Z"/>
      <path class="cls-1" d="M750.54,559.48c-11,0-13.72-14.68-13.72-14.68,0,0,5.44,4.67,13.65,4.67,9.03,0,13.69-4.67,13.69-4.67,0,0-2.86,14.68-13.62,14.68Z"/>
    </g>
  </g>
  <g>
    <g>
      <g>
        <g>
          <g>
            <path class="cls-1" d="M893.27,836.58c9.44-9.44,31.96-16.66,41.4-7.22s2.21,31.96-7.22,41.4-24.74,9.44-34.18,0c-9.44-9.44-9.44-24.74,0-34.18Z"/>
            <path d="M883.94,853.67c0-7.06,2.75-13.69,7.74-18.69,5.08-5.08,13.43-9.4,21.8-11.3,9.85-2.23,17.94-.78,22.8,4.07,4.85,4.85,6.3,12.95,4.07,22.8-1.89,8.37-6.22,16.72-11.3,21.8-10.3,10.3-27.07,10.3-37.37,0-4.99-4.99-7.74-11.63-7.74-18.69ZM936.89,842.09c0-4.46-1.13-8.45-3.81-11.13-8.4-8.4-29.45-1.54-38.21,7.22-8.54,8.54-8.54,22.44,0,30.98,8.54,8.54,22.44,8.54,30.98,0,5.96-5.96,11.04-17.6,11.04-27.07Z"/>
          </g>
          <g>
            <path class="cls-1" d="M951.49,778.37c-9.44,9.44-16.66,31.96-7.22,41.4,9.44,9.44,31.96,2.21,41.4-7.22,9.44-9.44,9.44-24.74,0-34.18-9.44-9.44-24.74-9.44-34.18,0Z"/>
            <path d="M937.57,807.09c0-2.65.34-5.5,1.02-8.52,1.89-8.37,6.22-16.72,11.3-21.8,4.99-4.99,11.63-7.74,18.68-7.74s13.69,2.75,18.69,7.74c4.99,4.99,7.74,11.63,7.74,18.69s-2.75,13.69-7.74,18.69c-5.08,5.08-13.43,9.4-21.8,11.3-9.85,2.23-17.94.78-22.8-4.07-3.36-3.36-5.09-8.29-5.09-14.28ZM990.47,795.46c0-5.61-2.14-11.22-6.41-15.49-8.54-8.54-22.44-8.54-30.98,0-8.76,8.76-15.63,29.81-7.22,38.21,8.4,8.4,29.45,1.54,38.21-7.22,4.27-4.27,6.41-9.88,6.41-15.49Z"/>
          </g>
          <g>
            <path class="cls-1" d="M927.45,778.37c9.44,9.44,16.66,31.96,7.22,41.4-9.44,9.44-31.96,2.21-41.4-7.22-9.44-9.44-9.44-24.74,0-34.18,9.44-9.44,24.74-9.44,34.18,0Z"/>
            <path d="M883.94,795.46c0-7.06,2.75-13.69,7.74-18.69,4.99-4.99,11.63-7.74,18.69-7.74s13.69,2.75,18.68,7.74c5.08,5.08,9.4,13.43,11.3,21.8,2.23,9.85.78,17.94-4.07,22.8-4.85,4.85-12.95,6.3-22.8,4.07-8.37-1.89-16.72-6.22-21.8-11.3-4.99-4.99-7.74-11.63-7.74-18.69ZM936.89,807.04c0-9.48-5.08-21.12-11.04-27.07-8.54-8.54-22.44-8.54-30.98,0-8.54,8.54-8.54,22.44,0,30.98,8.76,8.76,29.81,15.63,38.21,7.22,2.69-2.69,3.81-6.67,3.81-11.13Z"/>
          </g>
          <g>
            <path class="cls-1" d="M985.66,836.58c-9.44-9.44-31.96-16.66-41.4-7.22-9.44,9.44-2.21,31.96,7.22,41.4,9.44,9.44,24.74,9.44,34.18,0,9.44-9.44,9.44-24.74,0-34.18Z"/>
            <path d="M937.57,842.04c0-5.99,1.73-10.91,5.09-14.28,4.85-4.85,12.95-6.3,22.8-4.07,8.37,1.89,16.72,6.22,21.8,11.3,4.99,4.99,7.74,11.63,7.74,18.69s-2.75,13.69-7.74,18.69c-10.3,10.3-27.07,10.3-37.37,0-5.08-5.08-9.4-13.43-11.3-21.8-.68-3.02-1.02-5.87-1.02-8.52ZM990.47,853.67c0-5.61-2.14-11.22-6.41-15.49-8.76-8.76-29.81-15.63-38.21-7.22-8.4,8.4-1.54,29.45,7.22,38.21,8.54,8.54,22.44,8.54,30.98,0,4.27-4.27,6.41-9.88,6.41-15.49Z"/>
          </g>
        </g>
        <g>
          <polygon points="912.15 851.88 930.17 824.56 912.15 797.25 939.47 815.26 966.79 797.25 948.77 824.56 966.79 851.88 939.47 833.87 912.15 851.88"/>
          <path d="M904.21,789.3l35.26,23.26,35.26-23.26-23.26,35.26,23.26,35.26-35.26-23.26-35.26,23.26,23.26-35.26-23.26-35.26ZM932.87,824.56l-12.78,19.37,19.37-12.78,19.37,12.78-12.78-19.37,12.78-19.37-19.37,12.78-19.37-12.78,12.78,19.37Z"/>
        </g>
        <g>
          <circle class="cls-2" cx="939.47" cy="824.56" r="24.17"/>
          <path d="M913.38,824.56c0-6.68,2.54-13.37,7.63-18.46,10.18-10.18,26.74-10.18,36.91,0,10.18,10.18,10.18,26.74,0,36.91-10.18,10.18-26.74,10.18-36.91,0-5.09-5.09-7.63-11.77-7.63-18.46ZM961.69,824.56c0-5.69-2.17-11.39-6.5-15.72-8.67-8.67-22.77-8.67-31.44,0-8.67,8.67-8.67,22.77,0,31.44,8.67,8.67,22.77,8.67,31.44,0,4.33-4.33,6.5-10.03,6.5-15.72Z"/>
        </g>
      </g>
      <g>
        <g>
          <g>
            <path class="cls-1" d="M783.41,836.58c9.44-9.44,31.96-16.66,41.4-7.22,9.44,9.44,2.21,31.96-7.22,41.4-9.44,9.44-24.74,9.44-34.18,0-9.44-9.44-9.44-24.74,0-34.18Z"/>
            <path d="M774.07,853.67c0-7.06,2.75-13.69,7.74-18.69,5.08-5.08,13.43-9.4,21.8-11.3,9.85-2.23,17.94-.78,22.8,4.07,4.85,4.85,6.3,12.95,4.07,22.8-1.89,8.37-6.22,16.72-11.3,21.8-10.3,10.3-27.07,10.3-37.37,0-4.99-4.99-7.74-11.63-7.74-18.69ZM827.03,842.09c0-4.46-1.13-8.45-3.81-11.13-8.4-8.4-29.45-1.54-38.21,7.22-8.54,8.54-8.54,22.44,0,30.98,8.54,8.54,22.44,8.54,30.98,0,5.96-5.96,11.04-17.6,11.04-27.07Z"/>
          </g>
          <g>
            <path class="cls-1" d="M841.62,778.37c-9.44,9.44-16.66,31.96-7.22,41.4,9.44,9.44,31.96,2.21,41.4-7.22,9.44-9.44,9.44-24.74,0-34.18-9.44-9.44-24.74-9.44-34.18,0Z"/>
            <path d="M827.71,807.09c0-2.65.34-5.5,1.02-8.52,1.89-8.37,6.22-16.72,11.3-21.8,4.99-4.99,11.63-7.74,18.68-7.74s13.69,2.75,18.69,7.74c4.99,4.99,7.74,11.63,7.74,18.69s-2.75,13.69-7.74,18.69c-5.08,5.08-13.43,9.4-21.8,11.3-9.85,2.23-17.94.78-22.8-4.07-3.36-3.36-5.09-8.29-5.09-14.28ZM880.61,795.46c0-5.61-2.14-11.22-6.41-15.49-8.54-8.54-22.44-8.54-30.98,0-8.76,8.76-15.63,29.81-7.22,38.21,8.4,8.4,29.45,1.54,38.21-7.22,4.27-4.27,6.41-9.88,6.41-15.49Z"/>
          </g>
          <g>
            <path class="cls-1" d="M817.58,778.37c9.44,9.44,16.66,31.96,7.22,41.4-9.44,9.44-31.96,2.21-41.4-7.22-9.44-9.44-9.44-24.74,0-34.18,9.44-9.44,24.74-9.44,34.18,0Z"/>
            <path d="M774.07,795.46c0-7.06,2.75-13.69,7.74-18.69,4.99-4.99,11.63-7.74,18.69-7.74s13.69,2.75,18.68,7.74c5.08,5.08,9.4,13.43,11.3,21.8,2.23,9.85.78,17.94-4.07,22.8-4.85,4.85-12.95,6.3-22.8,4.07-8.37-1.89-16.72-6.22-21.8-11.3-4.99-4.99-7.74-11.63-7.74-18.69ZM827.03,807.04c0-9.48-5.08-21.12-11.04-27.07-8.54-8.54-22.44-8.54-30.98,0-8.54,8.54-8.54,22.44,0,30.98,8.76,8.76,29.81,15.63,38.21,7.22,2.69-2.69,3.81-6.67,3.81-11.13Z"/>
          </g>
          <g>
            <path class="cls-1" d="M875.8,836.58c-9.44-9.44-31.96-16.66-41.4-7.22-9.44,9.44-2.21,31.96,7.22,41.4,9.44,9.44,24.74,9.44,34.18,0,9.44-9.44,9.44-24.74,0-34.18Z"/>
            <path d="M827.71,842.04c0-5.99,1.73-10.91,5.09-14.28,4.85-4.85,12.95-6.3,22.8-4.07,8.37,1.89,16.72,6.22,21.8,11.3,4.99,4.99,7.74,11.63,7.74,18.69s-2.75,13.69-7.74,18.69c-10.3,10.3-27.07,10.3-37.37,0-5.08-5.08-9.4-13.43-11.3-21.8-.68-3.02-1.02-5.87-1.02-8.52ZM880.61,853.67c0-5.61-2.14-11.22-6.41-15.49-8.76-8.76-29.81-15.63-38.21-7.22-8.4,8.4-1.54,29.45,7.22,38.21,8.54,8.54,22.44,8.54,30.98,0,4.27-4.27,6.41-9.88,6.41-15.49Z"/>
          </g>
        </g>
        <g>
          <polygon points="802.28 851.88 820.3 824.56 802.28 797.25 829.6 815.26 856.92 797.25 838.9 824.56 856.92 851.88 829.6 833.87 802.28 851.88"/>
          <path d="M794.34,789.3l35.26,23.26,35.26-23.26-23.26,35.26,23.26,35.26-35.26-23.26-35.26,23.26,23.26-35.26-23.26-35.26ZM823,824.56l-12.78,19.37,19.37-12.78,19.37,12.78-12.78-19.37,12.78-19.37-19.37,12.78-19.37-12.78,12.78,19.37Z"/>
        </g>
        <g>
          <circle class="cls-2" cx="829.6" cy="824.56" r="24.17"/>
          <path d="M803.51,824.56c0-6.68,2.54-13.37,7.63-18.46,10.18-10.18,26.74-10.18,36.91,0,10.18,10.18,10.18,26.74,0,36.91-10.18,10.18-26.74,10.18-36.91,0-5.09-5.09-7.63-11.77-7.63-18.46ZM851.82,824.56c0-5.69-2.17-11.39-6.5-15.72-8.67-8.67-22.77-8.67-31.44,0-8.67,8.67-8.67,22.77,0,31.44,8.67,8.67,22.77,8.67,31.44,0,4.33-4.33,6.5-10.03,6.5-15.72Z"/>
        </g>
      </g>
      <g>
        <g>
          <g>
            <path class="cls-1" d="M673.54,836.58c9.44-9.44,31.96-16.66,41.4-7.22,9.44,9.44,2.21,31.96-7.22,41.4-9.44,9.44-24.74,9.44-34.18,0-9.44-9.44-9.44-24.74,0-34.18Z"/>
            <path d="M664.2,853.67c0-7.06,2.75-13.69,7.74-18.69,5.08-5.08,13.43-9.4,21.8-11.3,9.85-2.23,17.94-.78,22.8,4.07,4.85,4.85,6.3,12.95,4.07,22.8-1.89,8.37-6.22,16.72-11.3,21.8-10.3,10.3-27.07,10.3-37.37,0-4.99-4.99-7.74-11.63-7.74-18.69ZM717.16,842.09c0-4.46-1.13-8.45-3.81-11.13-8.4-8.4-29.45-1.54-38.21,7.22-8.54,8.54-8.54,22.44,0,30.98,8.54,8.54,22.44,8.54,30.98,0,5.96-5.96,11.04-17.6,11.04-27.07Z"/>
          </g>
          <g>
            <path class="cls-1" d="M731.75,778.37c-9.44,9.44-16.66,31.96-7.22,41.4,9.44,9.44,31.96,2.21,41.4-7.22s9.44-24.74,0-34.18c-9.44-9.44-24.74-9.44-34.18,0Z"/>
            <path d="M717.84,807.09c0-2.65.34-5.5,1.02-8.52,1.89-8.37,6.22-16.72,11.3-21.8,4.99-4.99,11.63-7.74,18.68-7.74s13.69,2.75,18.69,7.74c4.99,4.99,7.74,11.63,7.74,18.69s-2.75,13.69-7.74,18.69c-5.08,5.08-13.43,9.4-21.8,11.3-9.85,2.23-17.94.78-22.8-4.07-3.36-3.36-5.09-8.29-5.09-14.28ZM770.74,795.46c0-5.61-2.14-11.22-6.41-15.49-8.54-8.54-22.44-8.54-30.98,0-8.76,8.76-15.63,29.81-7.22,38.21,8.4,8.4,29.45,1.54,38.21-7.22,4.27-4.27,6.41-9.88,6.41-15.49Z"/>
          </g>
          <g>
            <path class="cls-1" d="M707.72,778.37c9.44,9.44,16.66,31.96,7.22,41.4-9.44,9.44-31.96,2.21-41.4-7.22-9.44-9.44-9.44-24.74,0-34.18,9.44-9.44,24.74-9.44,34.18,0Z"/>
            <path d="M664.2,795.46c0-7.06,2.75-13.69,7.74-18.69,4.99-4.99,11.63-7.74,18.69-7.74s13.69,2.75,18.68,7.74c5.08,5.08,9.4,13.43,11.3,21.8,2.23,9.85.78,17.94-4.07,22.8-4.85,4.85-12.95,6.3-22.8,4.07-8.37-1.89-16.72-6.22-21.8-11.3-4.99-4.99-7.74-11.63-7.74-18.69ZM717.16,807.04c0-9.48-5.08-21.12-11.04-27.07-8.54-8.54-22.44-8.54-30.98,0-8.54,8.54-8.54,22.44,0,30.98,8.76,8.76,29.81,15.63,38.21,7.22,2.69-2.69,3.81-6.67,3.81-11.13Z"/>
          </g>
          <g>
            <path class="cls-1" d="M765.93,836.58c-9.44-9.44-31.96-16.66-41.4-7.22-9.44,9.44-2.21,31.96,7.22,41.4,9.44,9.44,24.74,9.44,34.18,0,9.44-9.44,9.44-24.74,0-34.18Z"/>
            <path d="M717.84,842.04c0-5.99,1.73-10.91,5.09-14.28,4.85-4.85,12.95-6.3,22.8-4.07,8.37,1.89,16.72,6.22,21.8,11.3,4.99,4.99,7.74,11.63,7.74,18.69s-2.75,13.69-7.74,18.69c-10.3,10.3-27.07,10.3-37.37,0-5.08-5.08-9.4-13.43-11.3-21.8-.68-3.02-1.02-5.87-1.02-8.52ZM770.74,853.67c0-5.61-2.14-11.22-6.41-15.49-8.76-8.76-29.81-15.63-38.21-7.22-8.4,8.4-1.54,29.45,7.22,38.21,8.54,8.54,22.44,8.54,30.98,0,4.27-4.27,6.41-9.88,6.41-15.49Z"/>
          </g>
        </g>
        <g>
          <polygon points="692.42 851.88 710.43 824.56 692.42 797.25 719.73 815.26 747.05 797.25 729.04 824.56 747.05 851.88 719.73 833.87 692.42 851.88"/>
          <path d="M684.47,789.3l35.26,23.26,35.26-23.26-23.26,35.26,23.26,35.26-35.26-23.26-35.26,23.26,23.26-35.26-23.26-35.26ZM713.14,824.56l-12.78,19.37,19.37-12.78,19.37,12.78-12.78-19.37,12.78-19.37-19.37,12.78-19.37-12.78,12.78,19.37Z"/>
        </g>
        <g>
          <circle class="cls-2" cx="719.73" cy="824.56" r="24.17"/>
          <path d="M693.64,824.56c0-6.68,2.54-13.37,7.63-18.46,10.18-10.18,26.74-10.18,36.91,0,10.18,10.18,10.18,26.74,0,36.91-10.18,10.18-26.74,10.18-36.91,0-5.09-5.09-7.63-11.77-7.63-18.46ZM741.96,824.56c0-5.69-2.17-11.39-6.5-15.72-8.67-8.67-22.77-8.67-31.44,0-8.67,8.67-8.67,22.77,0,31.44,8.67,8.67,22.77,8.67,31.44,0,4.33-4.33,6.5-10.03,6.5-15.72Z"/>
        </g>
      </g>
      <g>
        <g>
          <g>
            <path class="cls-1" d="M563.67,836.58c9.44-9.44,31.96-16.66,41.4-7.22s2.21,31.96-7.22,41.4c-9.44,9.44-24.74,9.44-34.18,0-9.44-9.44-9.44-24.74,0-34.18Z"/>
            <path d="M554.34,853.67c0-7.06,2.75-13.69,7.74-18.69,5.08-5.08,13.43-9.4,21.8-11.3,9.85-2.23,17.94-.78,22.8,4.07,4.85,4.85,6.3,12.95,4.07,22.8-1.89,8.37-6.22,16.72-11.3,21.8-10.3,10.3-27.07,10.3-37.37,0-4.99-4.99-7.74-11.63-7.74-18.69ZM607.29,842.09c0-4.46-1.13-8.45-3.81-11.13-8.4-8.4-29.45-1.54-38.21,7.22-8.54,8.54-8.54,22.44,0,30.98,8.54,8.54,22.44,8.54,30.98,0,5.96-5.96,11.04-17.6,11.04-27.07Z"/>
          </g>
          <g>
            <path class="cls-1" d="M621.88,778.37c-9.44,9.44-16.66,31.96-7.22,41.4,9.44,9.44,31.96,2.21,41.4-7.22,9.44-9.44,9.44-24.74,0-34.18s-24.74-9.44-34.18,0Z"/>
            <path d="M607.97,807.09c0-2.65.34-5.5,1.02-8.52,1.89-8.37,6.22-16.72,11.3-21.8,4.99-4.99,11.63-7.74,18.68-7.74s13.69,2.75,18.69,7.74c4.99,4.99,7.74,11.63,7.74,18.69s-2.75,13.69-7.74,18.69c-5.08,5.08-13.43,9.4-21.8,11.3-9.85,2.23-17.94.78-22.8-4.07-3.36-3.36-5.09-8.29-5.09-14.28ZM660.87,795.46c0-5.61-2.14-11.22-6.41-15.49-8.54-8.54-22.44-8.54-30.98,0s-15.63,29.81-7.22,38.21c8.4,8.4,29.45,1.54,38.21-7.22,4.27-4.27,6.41-9.88,6.41-15.49Z"/>
          </g>
          <g>
            <path class="cls-1" d="M597.85,778.37c9.44,9.44,16.66,31.96,7.22,41.4-9.44,9.44-31.96,2.21-41.4-7.22-9.44-9.44-9.44-24.74,0-34.18,9.44-9.44,24.74-9.44,34.18,0Z"/>
            <path d="M554.34,795.46c0-7.06,2.75-13.69,7.74-18.69,4.99-4.99,11.63-7.74,18.69-7.74s13.69,2.75,18.68,7.74c5.08,5.08,9.4,13.43,11.3,21.8,2.23,9.85.78,17.94-4.07,22.8-4.85,4.85-12.95,6.3-22.8,4.07-8.37-1.89-16.72-6.22-21.8-11.3-4.99-4.99-7.74-11.63-7.74-18.69ZM607.29,807.04c0-9.48-5.08-21.12-11.04-27.07-8.54-8.54-22.44-8.54-30.98,0-8.54,8.54-8.54,22.44,0,30.98,8.76,8.76,29.81,15.63,38.21,7.22,2.69-2.69,3.81-6.67,3.81-11.13Z"/>
          </g>
          <g>
            <path class="cls-1" d="M656.06,836.58c-9.44-9.44-31.96-16.66-41.4-7.22-9.44,9.44-2.21,31.96,7.22,41.4,9.44,9.44,24.74,9.44,34.18,0s9.44-24.74,0-34.18Z"/>
            <path d="M607.97,842.04c0-5.99,1.73-10.91,5.09-14.28,4.85-4.85,12.95-6.3,22.8-4.07,8.37,1.89,16.72,6.22,21.8,11.3,4.99,4.99,7.74,11.63,7.74,18.69s-2.75,13.69-7.74,18.69c-10.3,10.3-27.07,10.3-37.37,0-5.08-5.08-9.4-13.43-11.3-21.8-.68-3.02-1.02-5.87-1.02-8.52ZM660.87,853.67c0-5.61-2.14-11.22-6.41-15.49-8.76-8.76-29.81-15.63-38.21-7.22-8.4,8.4-1.54,29.45,7.22,38.21,8.54,8.54,22.44,8.54,30.98,0,4.27-4.27,6.41-9.88,6.41-15.49Z"/>
          </g>
        </g>
        <g>
          <polygon points="582.55 851.88 600.57 824.56 582.55 797.25 609.87 815.26 637.18 797.25 619.17 824.56 637.18 851.88 609.87 833.87 582.55 851.88"/>
          <path d="M574.61,789.3l35.26,23.26,35.26-23.26-23.26,35.26,23.26,35.26-35.26-23.26-35.26,23.26,23.26-35.26-23.26-35.26ZM603.27,824.56l-12.78,19.37,19.37-12.78,19.37,12.78-12.78-19.37,12.78-19.37-19.37,12.78-19.37-12.78,12.78,19.37Z"/>
        </g>
        <g>
          <circle class="cls-2" cx="609.87" cy="824.56" r="24.17"/>
          <path d="M583.78,824.56c0-6.68,2.54-13.37,7.63-18.46,10.18-10.18,26.74-10.18,36.91,0,10.18,10.18,10.18,26.74,0,36.91-10.18,10.18-26.74,10.18-36.91,0-5.09-5.09-7.63-11.77-7.63-18.46ZM632.09,824.56c0-5.69-2.17-11.39-6.5-15.72-8.67-8.67-22.77-8.67-31.44,0-8.67,8.67-8.67,22.77,0,31.44,8.67,8.67,22.77,8.67,31.44,0,4.33-4.33,6.5-10.03,6.5-15.72Z"/>
        </g>
      </g>
      <g>
        <g>
          <g>
            <path class="cls-1" d="M453.8,836.58c9.44-9.44,31.96-16.66,41.4-7.22s2.21,31.96-7.22,41.4c-9.44,9.44-24.74,9.44-34.18,0s-9.44-24.74,0-34.18Z"/>
            <path d="M444.47,853.67c0-7.06,2.75-13.69,7.74-18.69,5.08-5.08,13.43-9.4,21.8-11.3,9.85-2.23,17.94-.78,22.8,4.07,4.85,4.85,6.3,12.95,4.07,22.8-1.89,8.37-6.22,16.72-11.3,21.8-10.3,10.3-27.07,10.3-37.37,0-4.99-4.99-7.74-11.63-7.74-18.69ZM497.42,842.09c0-4.46-1.13-8.45-3.81-11.13-8.4-8.4-29.45-1.54-38.21,7.22-8.54,8.54-8.54,22.44,0,30.98,8.54,8.54,22.44,8.54,30.98,0,5.96-5.96,11.04-17.6,11.04-27.07Z"/>
          </g>
          <g>
            <path class="cls-1" d="M512.02,778.37c-9.44,9.44-16.66,31.96-7.22,41.4,9.44,9.44,31.96,2.21,41.4-7.22,9.44-9.44,9.44-24.74,0-34.18-9.44-9.44-24.74-9.44-34.18,0Z"/>
            <path d="M498.1,807.09c0-2.65.34-5.5,1.02-8.52,1.89-8.37,6.22-16.72,11.3-21.8,4.99-4.99,11.63-7.74,18.68-7.74s13.69,2.75,18.69,7.74c4.99,4.99,7.74,11.63,7.74,18.69s-2.75,13.69-7.74,18.69c-5.08,5.08-13.43,9.4-21.8,11.3-9.85,2.23-17.94.78-22.8-4.07-3.36-3.36-5.09-8.29-5.09-14.28ZM551.01,795.46c0-5.61-2.14-11.22-6.41-15.49-8.54-8.54-22.44-8.54-30.98,0-8.76,8.76-15.63,29.81-7.22,38.21,8.4,8.4,29.45,1.54,38.21-7.22,4.27-4.27,6.41-9.88,6.41-15.49Z"/>
          </g>
          <g>
            <path class="cls-1" d="M487.98,778.37c9.44,9.44,16.66,31.96,7.22,41.4-9.44,9.44-31.96,2.21-41.4-7.22-9.44-9.44-9.44-24.74,0-34.18s24.74-9.44,34.18,0Z"/>
            <path d="M444.47,795.46c0-7.06,2.75-13.69,7.74-18.69,4.99-4.99,11.63-7.74,18.69-7.74s13.69,2.75,18.68,7.74c5.08,5.08,9.4,13.43,11.3,21.8,2.23,9.85.78,17.94-4.07,22.8-4.85,4.85-12.95,6.3-22.8,4.07-8.37-1.89-16.72-6.22-21.8-11.3-4.99-4.99-7.74-11.63-7.74-18.69ZM497.42,807.04c0-9.48-5.08-21.12-11.04-27.07-8.54-8.54-22.44-8.54-30.98,0-8.54,8.54-8.54,22.44,0,30.98,8.76,8.76,29.81,15.63,38.21,7.22,2.69-2.69,3.81-6.67,3.81-11.13Z"/>
          </g>
          <g>
            <path class="cls-1" d="M546.2,836.58c-9.44-9.44-31.96-16.66-41.4-7.22-9.44,9.44-2.21,31.96,7.22,41.4,9.44,9.44,24.74,9.44,34.18,0,9.44-9.44,9.44-24.74,0-34.18Z"/>
            <path d="M498.1,842.04c0-5.99,1.73-10.91,5.09-14.28,4.85-4.85,12.95-6.3,22.8-4.07,8.37,1.89,16.72,6.22,21.8,11.3,4.99,4.99,7.74,11.63,7.74,18.69s-2.75,13.69-7.74,18.69c-10.3,10.3-27.07,10.3-37.37,0-5.08-5.08-9.4-13.43-11.3-21.8-.68-3.02-1.02-5.87-1.02-8.52ZM551.01,853.67c0-5.61-2.14-11.22-6.41-15.49-8.76-8.76-29.81-15.63-38.21-7.22-8.4,8.4-1.54,29.45,7.22,38.21,8.54,8.54,22.44,8.54,30.98,0,4.27-4.27,6.41-9.88,6.41-15.49Z"/>
          </g>
        </g>
        <g>
          <polygon points="472.68 851.88 490.7 824.56 472.68 797.25 500 815.26 527.32 797.25 509.3 824.56 527.32 851.88 500 833.87 472.68 851.88"/>
          <path d="M464.74,789.3l35.26,23.26,35.26-23.26-23.26,35.26,23.26,35.26-35.26-23.26-35.26,23.26,23.26-35.26-23.26-35.26ZM493.4,824.56l-12.78,19.37,19.37-12.78,19.37,12.78-12.78-19.37,12.78-19.37-19.37,12.78-19.37-12.78,12.78,19.37Z"/>
        </g>
        <g>
          <circle class="cls-2" cx="500" cy="824.56" r="24.17"/>
          <path d="M473.91,824.56c0-6.68,2.54-13.37,7.63-18.46,10.18-10.18,26.74-10.18,36.91,0,10.18,10.18,10.18,26.74,0,36.91-10.18,10.18-26.74,10.18-36.91,0-5.09-5.09-7.63-11.77-7.63-18.46ZM522.22,824.56c0-5.69-2.17-11.39-6.5-15.72-8.67-8.67-22.77-8.67-31.44,0-8.67,8.67-8.67,22.77,0,31.44,8.67,8.67,22.77,8.67,31.44,0,4.33-4.33,6.5-10.03,6.5-15.72Z"/>
        </g>
      </g>
      <g>
        <g>
          <g>
            <path class="cls-1" d="M343.94,836.58c9.44-9.44,31.96-16.66,41.4-7.22,9.44,9.44,2.21,31.96-7.22,41.4-9.44,9.44-24.74,9.44-34.18,0-9.44-9.44-9.44-24.74,0-34.18Z"/>
            <path d="M334.6,853.67c0-7.06,2.75-13.69,7.74-18.69,5.08-5.08,13.43-9.4,21.8-11.3,9.85-2.23,17.94-.78,22.8,4.07,4.85,4.85,6.3,12.95,4.07,22.8-1.89,8.37-6.22,16.72-11.3,21.8-10.3,10.3-27.07,10.3-37.37,0-4.99-4.99-7.74-11.63-7.74-18.69ZM387.56,842.09c0-4.46-1.13-8.45-3.81-11.13-8.4-8.4-29.45-1.54-38.21,7.22-8.54,8.54-8.54,22.44,0,30.98,8.54,8.54,22.44,8.54,30.98,0,5.96-5.96,11.04-17.6,11.04-27.07Z"/>
          </g>
          <g>
            <path class="cls-1" d="M402.15,778.37c-9.44,9.44-16.66,31.96-7.22,41.4,9.44,9.44,31.96,2.21,41.4-7.22s9.44-24.74,0-34.18c-9.44-9.44-24.74-9.44-34.18,0Z"/>
            <path d="M388.24,807.09c0-2.65.34-5.5,1.02-8.52,1.89-8.37,6.22-16.72,11.3-21.8,4.99-4.99,11.63-7.74,18.68-7.74s13.69,2.75,18.69,7.74c4.99,4.99,7.74,11.63,7.74,18.69s-2.75,13.69-7.74,18.69c-5.08,5.08-13.43,9.4-21.8,11.3-9.85,2.23-17.94.78-22.8-4.07-3.36-3.36-5.09-8.29-5.09-14.28ZM441.14,795.46c0-5.61-2.14-11.22-6.41-15.49-8.54-8.54-22.44-8.54-30.98,0-8.76,8.76-15.63,29.81-7.22,38.21,8.4,8.4,29.45,1.54,38.21-7.22,4.27-4.27,6.41-9.88,6.41-15.49Z"/>
          </g>
          <g>
            <path class="cls-1" d="M378.12,778.37c9.44,9.44,16.66,31.96,7.22,41.4-9.44,9.44-31.96,2.21-41.4-7.22s-9.44-24.74,0-34.18c9.44-9.44,24.74-9.44,34.18,0Z"/>
            <path d="M334.6,795.46c0-7.06,2.75-13.69,7.74-18.69,4.99-4.99,11.63-7.74,18.69-7.74s13.69,2.75,18.68,7.74c5.08,5.08,9.4,13.43,11.3,21.8,2.23,9.85.78,17.94-4.07,22.8-4.85,4.85-12.95,6.3-22.8,4.07-8.37-1.89-16.72-6.22-21.8-11.3-4.99-4.99-7.74-11.63-7.74-18.69ZM387.56,807.04c0-9.48-5.08-21.12-11.04-27.07-8.54-8.54-22.44-8.54-30.98,0-8.54,8.54-8.54,22.44,0,30.98,8.76,8.76,29.81,15.63,38.21,7.22,2.69-2.69,3.81-6.67,3.81-11.13Z"/>
          </g>
          <g>
            <path class="cls-1" d="M436.33,836.58c-9.44-9.44-31.96-16.66-41.4-7.22-9.44,9.44-2.21,31.96,7.22,41.4,9.44,9.44,24.74,9.44,34.18,0,9.44-9.44,9.44-24.74,0-34.18Z"/>
            <path d="M388.24,842.04c0-5.99,1.73-10.91,5.09-14.28,4.85-4.85,12.95-6.3,22.8-4.07,8.37,1.89,16.72,6.22,21.8,11.3,4.99,4.99,7.74,11.63,7.74,18.69s-2.75,13.69-7.74,18.69c-10.3,10.3-27.07,10.3-37.37,0-5.08-5.08-9.4-13.43-11.3-21.8-.68-3.02-1.02-5.87-1.02-8.52ZM441.14,853.67c0-5.61-2.14-11.22-6.41-15.49-8.76-8.76-29.81-15.63-38.21-7.22-8.4,8.4-1.54,29.45,7.22,38.21,8.54,8.54,22.44,8.54,30.98,0,4.27-4.27,6.41-9.88,6.41-15.49Z"/>
          </g>
        </g>
        <g>
          <polygon points="362.82 851.88 380.83 824.56 362.82 797.25 390.13 815.26 417.45 797.25 399.43 824.56 417.45 851.88 390.13 833.87 362.82 851.88"/>
          <path d="M354.87,789.3l35.26,23.26,35.26-23.26-23.26,35.26,23.26,35.26-35.26-23.26-35.26,23.26,23.26-35.26-23.26-35.26ZM383.54,824.56l-12.78,19.37,19.37-12.78,19.37,12.78-12.78-19.37,12.78-19.37-19.37,12.78-19.37-12.78,12.78,19.37Z"/>
        </g>
        <g>
          <circle class="cls-2" cx="390.13" cy="824.56" r="24.17"/>
          <path d="M364.04,824.56c0-6.68,2.54-13.37,7.63-18.46,10.18-10.18,26.74-10.18,36.91,0,10.18,10.18,10.18,26.74,0,36.91-10.18,10.18-26.74,10.18-36.91,0-5.09-5.09-7.63-11.77-7.63-18.46ZM412.35,824.56c0-5.69-2.17-11.39-6.5-15.72-8.67-8.67-22.77-8.67-31.44,0-8.67,8.67-8.67,22.77,0,31.44,8.67,8.67,22.77,8.67,31.44,0,4.33-4.33,6.5-10.03,6.5-15.72Z"/>
        </g>
      </g>
      <g>
        <g>
          <g>
            <path class="cls-1" d="M234.07,836.58c9.44-9.44,31.96-16.66,41.4-7.22,9.44,9.44,2.21,31.96-7.22,41.4-9.44,9.44-24.74,9.44-34.18,0-9.44-9.44-9.44-24.74,0-34.18Z"/>
            <path d="M224.73,853.67c0-7.06,2.75-13.69,7.74-18.69,5.08-5.08,13.43-9.4,21.8-11.3,9.85-2.23,17.94-.78,22.8,4.07,4.85,4.85,6.3,12.95,4.07,22.8-1.89,8.37-6.22,16.72-11.3,21.8-10.3,10.3-27.07,10.3-37.37,0-4.99-4.99-7.74-11.63-7.74-18.69ZM277.69,842.09c0-4.46-1.13-8.45-3.81-11.13-8.4-8.4-29.45-1.54-38.21,7.22-8.54,8.54-8.54,22.44,0,30.98,8.54,8.54,22.44,8.54,30.98,0,5.96-5.96,11.04-17.6,11.04-27.07Z"/>
          </g>
          <g>
            <path class="cls-1" d="M292.28,778.37c-9.44,9.44-16.66,31.96-7.22,41.4,9.44,9.44,31.96,2.21,41.4-7.22,9.44-9.44,9.44-24.74,0-34.18-9.44-9.44-24.74-9.44-34.18,0Z"/>
            <path d="M278.37,807.09c0-2.65.34-5.5,1.02-8.52,1.89-8.37,6.22-16.72,11.3-21.8,4.99-4.99,11.63-7.74,18.68-7.74s13.69,2.75,18.69,7.74c4.99,4.99,7.74,11.63,7.74,18.69s-2.75,13.69-7.74,18.69c-5.08,5.08-13.43,9.4-21.8,11.3-9.85,2.23-17.94.78-22.8-4.07-3.36-3.36-5.09-8.29-5.09-14.28ZM331.27,795.46c0-5.61-2.14-11.22-6.41-15.49-8.54-8.54-22.44-8.54-30.98,0-8.76,8.76-15.63,29.81-7.22,38.21,8.4,8.4,29.45,1.54,38.21-7.22,4.27-4.27,6.41-9.88,6.41-15.49Z"/>
          </g>
          <g>
            <path class="cls-1" d="M268.25,778.37c9.44,9.44,16.66,31.96,7.22,41.4-9.44,9.44-31.96,2.21-41.4-7.22-9.44-9.44-9.44-24.74,0-34.18,9.44-9.44,24.74-9.44,34.18,0Z"/>
            <path d="M224.73,795.46c0-7.06,2.75-13.69,7.74-18.69,4.99-4.99,11.63-7.74,18.69-7.74s13.69,2.75,18.68,7.74c5.08,5.08,9.4,13.43,11.3,21.8,2.23,9.85.78,17.94-4.07,22.8-4.85,4.85-12.95,6.3-22.8,4.07-8.37-1.89-16.72-6.22-21.8-11.3-4.99-4.99-7.74-11.63-7.74-18.69ZM277.69,807.04c0-9.48-5.08-21.12-11.04-27.07-8.54-8.54-22.44-8.54-30.98,0-8.54,8.54-8.54,22.44,0,30.98,8.76,8.76,29.81,15.63,38.21,7.22,2.69-2.69,3.81-6.67,3.81-11.13Z"/>
          </g>
          <g>
            <path class="cls-1" d="M326.46,836.58c-9.44-9.44-31.96-16.66-41.4-7.22-9.44,9.44-2.21,31.96,7.22,41.4,9.44,9.44,24.74,9.44,34.18,0,9.44-9.44,9.44-24.74,0-34.18Z"/>
            <path d="M278.37,842.04c0-5.99,1.73-10.91,5.09-14.28,4.85-4.85,12.95-6.3,22.8-4.07,8.37,1.89,16.72,6.22,21.8,11.3,4.99,4.99,7.74,11.63,7.74,18.69s-2.75,13.69-7.74,18.69c-10.3,10.3-27.07,10.3-37.37,0-5.08-5.08-9.4-13.43-11.3-21.8-.68-3.02-1.02-5.87-1.02-8.52ZM331.27,853.67c0-5.61-2.14-11.22-6.41-15.49-8.76-8.76-29.81-15.63-38.21-7.22-8.4,8.4-1.54,29.45,7.22,38.21,8.54,8.54,22.44,8.54,30.98,0,4.27-4.27,6.41-9.88,6.41-15.49Z"/>
          </g>
        </g>
        <g>
          <polygon points="252.95 851.88 270.96 824.56 252.95 797.25 280.27 815.26 307.58 797.25 289.57 824.56 307.58 851.88 280.27 833.87 252.95 851.88"/>
          <path d="M245,789.3l35.26,23.26,35.26-23.26-23.26,35.26,23.26,35.26-35.26-23.26-35.26,23.26,23.26-35.26-23.26-35.26ZM273.67,824.56l-12.78,19.37,19.37-12.78,19.37,12.78-12.78-19.37,12.78-19.37-19.37,12.78-19.37-12.78,12.78,19.37Z"/>
        </g>
        <g>
          <circle class="cls-2" cx="280.27" cy="824.56" r="24.17"/>
          <path d="M254.17,824.56c0-6.68,2.54-13.37,7.63-18.46,4.93-4.93,11.48-7.65,18.46-7.65s13.53,2.72,18.46,7.65c10.18,10.18,10.18,26.74,0,36.91-4.93,4.93-11.48,7.65-18.46,7.65s-13.53-2.72-18.46-7.65c-5.09-5.09-7.63-11.77-7.63-18.46ZM302.49,824.56c0-5.69-2.17-11.39-6.5-15.72-4.2-4.2-9.78-6.51-15.72-6.51s-11.52,2.31-15.72,6.51c-8.67,8.67-8.67,22.77,0,31.44,4.2,4.2,9.78,6.51,15.72,6.51s11.52-2.31,15.72-6.51c4.33-4.33,6.5-10.03,6.5-15.72Z"/>
        </g>
      </g>
      <g>
        <g>
          <g>
            <path class="cls-1" d="M124.2,836.58c9.44-9.44,31.96-16.66,41.4-7.22,9.44,9.44,2.21,31.96-7.22,41.4s-24.74,9.44-34.18,0c-9.44-9.44-9.44-24.74,0-34.18Z"/>
            <path d="M114.87,853.67c0-7.06,2.75-13.69,7.74-18.69,5.08-5.08,13.43-9.4,21.8-11.3,9.85-2.23,17.94-.78,22.8,4.07,4.85,4.85,6.3,12.95,4.07,22.8-1.89,8.37-6.22,16.72-11.3,21.8-10.3,10.3-27.07,10.3-37.37,0-4.99-4.99-7.74-11.63-7.74-18.69ZM167.82,842.09c0-4.46-1.13-8.45-3.81-11.13-8.4-8.4-29.45-1.54-38.21,7.22-8.54,8.54-8.54,22.44,0,30.98,8.54,8.54,22.44,8.54,30.98,0,5.96-5.96,11.04-17.6,11.04-27.07Z"/>
          </g>
          <g>
            <path class="cls-1" d="M182.42,778.37c-9.44,9.44-16.66,31.96-7.22,41.4,9.44,9.44,31.96,2.21,41.4-7.22,9.44-9.44,9.44-24.74,0-34.18-9.44-9.44-24.74-9.44-34.18,0Z"/>
            <path d="M168.5,807.09c0-2.65.34-5.5,1.02-8.52,1.89-8.37,6.22-16.72,11.3-21.8,4.99-4.99,11.63-7.74,18.68-7.74s13.69,2.75,18.69,7.74c4.99,4.99,7.74,11.63,7.74,18.69s-2.75,13.69-7.74,18.69c-5.08,5.08-13.43,9.4-21.8,11.3-9.85,2.23-17.94.78-22.8-4.07-3.36-3.36-5.09-8.29-5.09-14.28ZM221.4,795.46c0-5.61-2.14-11.22-6.41-15.49-8.54-8.54-22.44-8.54-30.98,0-8.76,8.76-15.63,29.81-7.22,38.21,8.4,8.4,29.45,1.54,38.21-7.22,4.27-4.27,6.41-9.88,6.41-15.49Z"/>
          </g>
          <g>
            <path class="cls-1" d="M158.38,778.37c9.44,9.44,16.66,31.96,7.22,41.4s-31.96,2.21-41.4-7.22c-9.44-9.44-9.44-24.74,0-34.18,9.44-9.44,24.74-9.44,34.18,0Z"/>
            <path d="M114.87,795.46c0-7.06,2.75-13.69,7.74-18.69,4.99-4.99,11.63-7.74,18.69-7.74s13.69,2.75,18.68,7.74c5.08,5.08,9.4,13.43,11.3,21.8,2.23,9.85.78,17.94-4.07,22.8-4.85,4.85-12.95,6.3-22.8,4.07-8.37-1.89-16.72-6.22-21.8-11.3-4.99-4.99-7.74-11.63-7.74-18.69ZM167.82,807.04c0-9.48-5.08-21.12-11.04-27.07-8.54-8.54-22.44-8.54-30.98,0-8.54,8.54-8.54,22.44,0,30.98,8.76,8.76,29.81,15.63,38.21,7.22,2.69-2.69,3.81-6.67,3.81-11.13Z"/>
          </g>
          <g>
            <path class="cls-1" d="M216.59,836.58c-9.44-9.44-31.96-16.66-41.4-7.22-9.44,9.44-2.21,31.96,7.22,41.4s24.74,9.44,34.18,0c9.44-9.44,9.44-24.74,0-34.18Z"/>
            <path d="M168.5,842.04c0-5.99,1.73-10.91,5.09-14.28,4.85-4.85,12.95-6.3,22.8-4.07,8.37,1.89,16.72,6.22,21.8,11.3,4.99,4.99,7.74,11.63,7.74,18.69s-2.75,13.69-7.74,18.69c-10.3,10.3-27.07,10.3-37.37,0-5.08-5.08-9.4-13.43-11.3-21.8-.68-3.02-1.02-5.87-1.02-8.52ZM221.4,853.67c0-5.61-2.14-11.22-6.41-15.49-8.76-8.76-29.81-15.63-38.21-7.22-8.4,8.4-1.54,29.45,7.22,38.21,8.54,8.54,22.44,8.54,30.98,0,4.27-4.27,6.41-9.88,6.41-15.49Z"/>
          </g>
        </g>
        <g>
          <polygon points="143.08 851.88 161.1 824.56 143.08 797.25 170.4 815.26 197.72 797.25 179.7 824.56 197.72 851.88 170.4 833.87 143.08 851.88"/>
          <path d="M135.14,789.3l35.26,23.26,35.26-23.26-23.26,35.26,23.26,35.26-35.26-23.26-35.26,23.26,23.26-35.26-23.26-35.26ZM163.8,824.56l-12.78,19.37,19.37-12.78,19.37,12.78-12.78-19.37,12.78-19.37-19.37,12.78-19.37-12.78,12.78,19.37Z"/>
        </g>
        <g>
          <circle class="cls-2" cx="170.4" cy="824.56" r="24.17"/>
          <path d="M144.31,824.56c0-6.68,2.54-13.37,7.63-18.46,4.93-4.93,11.48-7.65,18.46-7.65s13.53,2.72,18.46,7.65c10.18,10.18,10.18,26.74,0,36.91-4.93,4.93-11.48,7.65-18.46,7.65s-13.53-2.72-18.46-7.65c-5.09-5.09-7.63-11.77-7.63-18.46ZM192.62,824.56c0-5.69-2.17-11.39-6.5-15.72-4.2-4.2-9.78-6.51-15.72-6.51s-11.52,2.31-15.72,6.51c-8.67,8.67-8.67,22.77,0,31.44,4.2,4.2,9.78,6.51,15.72,6.51s11.52-2.31,15.72-6.51c4.33-4.33,6.5-10.03,6.5-15.72Z"/>
        </g>
      </g>
      <g>
        <g>
          <g>
            <path class="cls-1" d="M14.34,836.58c9.44-9.44,31.96-16.66,41.4-7.22,9.44,9.44,2.21,31.96-7.22,41.4-9.44,9.44-24.74,9.44-34.18,0-9.44-9.44-9.44-24.74,0-34.18Z"/>
            <path d="M5,853.67c0-7.06,2.75-13.69,7.74-18.69,5.08-5.08,13.43-9.4,21.8-11.3,9.85-2.23,17.94-.78,22.8,4.07,4.85,4.85,6.3,12.95,4.07,22.8-1.89,8.37-6.22,16.72-11.3,21.8-10.3,10.3-27.07,10.3-37.37,0-4.99-4.99-7.74-11.63-7.74-18.69ZM57.96,842.09c0-4.46-1.13-8.45-3.81-11.13-8.4-8.4-29.45-1.54-38.21,7.22-8.54,8.54-8.54,22.44,0,30.98,8.54,8.54,22.44,8.54,30.98,0,5.96-5.96,11.04-17.6,11.04-27.07Z"/>
          </g>
          <g>
            <path class="cls-1" d="M72.55,778.37c-9.44,9.44-16.66,31.96-7.22,41.4,9.44,9.44,31.96,2.21,41.4-7.22s9.44-24.74,0-34.18c-9.44-9.44-24.74-9.44-34.18,0Z"/>
            <path d="M58.64,807.09c0-2.65.34-5.5,1.02-8.52,1.89-8.37,6.22-16.72,11.3-21.8,4.99-4.99,11.63-7.74,18.68-7.74s13.69,2.75,18.69,7.74c4.99,4.99,7.74,11.63,7.74,18.69s-2.75,13.69-7.74,18.69c-5.08,5.08-13.43,9.4-21.8,11.3-9.85,2.23-17.94.78-22.8-4.07-3.36-3.36-5.09-8.29-5.09-14.28ZM111.54,795.46c0-5.61-2.14-11.22-6.41-15.49-8.54-8.54-22.44-8.54-30.98,0-8.76,8.76-15.63,29.81-7.22,38.21,8.4,8.4,29.45,1.54,38.21-7.22,4.27-4.27,6.41-9.88,6.41-15.49Z"/>
          </g>
          <g>
            <path class="cls-1" d="M48.51,778.37c9.44,9.44,16.66,31.96,7.22,41.4-9.44,9.44-31.96,2.21-41.4-7.22-9.44-9.44-9.44-24.74,0-34.18,9.44-9.44,24.74-9.44,34.18,0Z"/>
            <path d="M5,795.46c0-7.06,2.75-13.69,7.74-18.69,4.99-4.99,11.63-7.74,18.69-7.74s13.69,2.75,18.68,7.74c5.08,5.08,9.4,13.43,11.3,21.8,2.23,9.85.78,17.94-4.07,22.8-4.85,4.85-12.95,6.3-22.8,4.07-8.37-1.89-16.72-6.22-21.8-11.3-4.99-4.99-7.74-11.63-7.74-18.69ZM57.96,807.04c0-9.48-5.08-21.12-11.04-27.07-8.54-8.54-22.44-8.54-30.98,0-8.54,8.54-8.54,22.44,0,30.98,8.76,8.76,29.81,15.63,38.21,7.22,2.69-2.69,3.81-6.67,3.81-11.13Z"/>
          </g>
          <g>
            <path class="cls-1" d="M106.73,836.58c-9.44-9.44-31.96-16.66-41.4-7.22-9.44,9.44-2.21,31.96,7.22,41.4,9.44,9.44,24.74,9.44,34.18,0,9.44-9.44,9.44-24.74,0-34.18Z"/>
            <path d="M58.64,842.04c0-5.99,1.73-10.91,5.09-14.28,4.85-4.85,12.95-6.3,22.8-4.07,8.37,1.89,16.72,6.22,21.8,11.3,4.99,4.99,7.74,11.63,7.74,18.69s-2.75,13.69-7.74,18.69c-10.3,10.3-27.07,10.3-37.37,0-5.08-5.08-9.4-13.43-11.3-21.8-.68-3.02-1.02-5.87-1.02-8.52ZM111.54,853.67c0-5.61-2.14-11.22-6.41-15.49-8.76-8.76-29.81-15.63-38.21-7.22-8.4,8.4-1.54,29.45,7.22,38.21,8.54,8.54,22.44,8.54,30.98,0,4.27-4.27,6.41-9.88,6.41-15.49Z"/>
          </g>
        </g>
        <g>
          <polygon points="33.21 851.88 51.23 824.56 33.21 797.25 60.53 815.26 87.85 797.25 69.83 824.56 87.85 851.88 60.53 833.87 33.21 851.88"/>
          <path d="M25.27,789.3l35.26,23.26,35.26-23.26-23.26,35.26,23.26,35.26-35.26-23.26-35.26,23.26,23.26-35.26-23.26-35.26ZM53.93,824.56l-12.78,19.37,19.37-12.78,19.37,12.78-12.78-19.37,12.78-19.37-19.37,12.78-19.37-12.78,12.78,19.37Z"/>
        </g>
        <g>
          <circle class="cls-2" cx="60.53" cy="824.56" r="24.17"/>
          <path d="M34.44,824.56c0-6.68,2.54-13.37,7.63-18.46,10.18-10.18,26.74-10.18,36.91,0,10.18,10.18,10.18,26.74,0,36.91-10.18,10.18-26.74,10.18-36.91,0-5.09-5.09-7.63-11.77-7.63-18.46ZM82.75,824.56c0-5.69-2.17-11.39-6.5-15.72-8.67-8.67-22.77-8.67-31.44,0-8.67,8.67-8.67,22.77,0,31.44,8.67,8.67,22.77,8.67,31.44,0,4.33-4.33,6.5-10.03,6.5-15.72Z"/>
        </g>
      </g>
    </g>
    <g>
      <g>
        <g>
          <g>
            <path class="cls-1" d="M893.27,187.47c9.44-9.44,31.96-16.66,41.4-7.22,9.44,9.44,2.21,31.96-7.22,41.4-9.44,9.44-24.74,9.44-34.18,0-9.44-9.44-9.44-24.74,0-34.18Z"/>
            <path d="M883.94,204.55c0-7.06,2.75-13.69,7.74-18.69,5.08-5.08,13.43-9.4,21.8-11.3,9.85-2.23,17.94-.78,22.8,4.07,4.85,4.85,6.3,12.95,4.07,22.8-1.89,8.37-6.22,16.72-11.3,21.8-4.99,4.99-11.63,7.74-18.68,7.74s-13.69-2.75-18.69-7.74c-4.99-4.99-7.74-11.63-7.74-18.69ZM936.83,193c0-4.79-1.28-8.68-3.75-11.16-8.4-8.4-29.45-1.54-38.21,7.22-8.54,8.54-8.54,22.44,0,30.98,8.54,8.54,22.44,8.54,30.98,0,4.44-4.44,8.4-12.13,10.08-19.6.6-2.65.89-5.15.89-7.45Z"/>
          </g>
          <g>
            <path class="cls-1" d="M951.49,129.25c-9.44,9.44-16.66,31.96-7.22,41.4,9.44,9.44,31.96,2.21,41.4-7.22,9.44-9.44,9.44-24.74,0-34.18-9.44-9.44-24.74-9.44-34.18,0Z"/>
            <path d="M937.57,157.97c0-2.65.34-5.5,1.02-8.52,1.89-8.37,6.22-16.72,11.3-21.8,4.99-4.99,11.63-7.74,18.68-7.74s13.69,2.75,18.69,7.74,7.74,11.63,7.74,18.69-2.75,13.69-7.74,18.69c-5.08,5.08-13.43,9.4-21.8,11.3-9.85,2.23-17.94.78-22.8-4.07-3.36-3.36-5.09-8.29-5.09-14.28ZM990.47,146.34c0-5.61-2.14-11.22-6.41-15.49-8.54-8.54-22.44-8.54-30.98,0-8.76,8.76-15.63,29.81-7.22,38.21,8.4,8.4,29.45,1.54,38.21-7.22,4.27-4.27,6.41-9.88,6.41-15.49Z"/>
          </g>
          <g>
            <path class="cls-1" d="M927.45,129.25c9.44,9.44,16.66,31.96,7.22,41.4-9.44,9.44-31.96,2.21-41.4-7.22-9.44-9.44-9.44-24.74,0-34.18s24.74-9.44,34.18,0Z"/>
            <path d="M883.94,146.34c0-7.06,2.75-13.69,7.74-18.69,4.99-4.99,11.63-7.74,18.69-7.74s13.69,2.75,18.68,7.74c5.08,5.08,9.4,13.43,11.3,21.8,2.23,9.85.78,17.94-4.07,22.8-4.85,4.85-12.95,6.3-22.8,4.07-8.37-1.89-16.72-6.22-21.8-11.3-4.99-4.99-7.74-11.63-7.74-18.69ZM936.89,157.92c0-9.48-5.08-21.12-11.04-27.07-8.54-8.54-22.44-8.54-30.98,0-8.54,8.54-8.54,22.44,0,30.98,8.76,8.76,29.81,15.63,38.21,7.22,2.69-2.69,3.81-6.67,3.81-11.13Z"/>
          </g>
          <g>
            <path class="cls-1" d="M985.66,187.47c-9.44-9.44-31.96-16.66-41.4-7.22-9.44,9.44-2.21,31.96,7.22,41.4,9.44,9.44,24.74,9.44,34.18,0,9.44-9.44,9.44-24.74,0-34.18Z"/>
            <path d="M937.57,192.92c0-5.99,1.73-10.91,5.09-14.28,4.85-4.85,12.95-6.3,22.8-4.07,8.37,1.89,16.72,6.22,21.8,11.3,4.99,4.99,7.74,11.63,7.74,18.69s-2.75,13.69-7.74,18.69c-4.99,4.99-11.63,7.74-18.69,7.74s-13.69-2.75-18.68-7.74c-5.08-5.08-9.4-13.43-11.3-21.8-.68-3.02-1.02-5.87-1.02-8.52ZM990.47,204.55c0-5.61-2.14-11.22-6.41-15.49-8.76-8.76-29.81-15.63-38.21-7.22-3.66,3.66-4.7,10.44-2.86,18.61,1.69,7.47,5.65,15.16,10.08,19.6,8.54,8.54,22.44,8.54,30.98,0,4.27-4.27,6.41-9.88,6.41-15.49Z"/>
          </g>
        </g>
        <g>
          <polygon points="912.15 202.77 930.17 175.45 912.15 148.13 939.47 166.15 966.79 148.13 948.77 175.45 966.79 202.77 939.47 184.75 912.15 202.77"/>
          <path d="M904.21,140.19l35.26,23.26,35.26-23.26-23.26,35.26,23.26,35.26-35.26-23.26-35.26,23.26,23.26-35.26-23.26-35.26ZM932.87,175.45l-12.78,19.37,19.37-12.78,19.37,12.78-12.78-19.37,12.78-19.37-19.37,12.78-19.37-12.78,12.78,19.37Z"/>
        </g>
        <g>
          <circle class="cls-2" cx="939.47" cy="175.45" r="24.17"/>
          <path d="M913.38,175.45c0-6.68,2.54-13.37,7.63-18.46,10.18-10.18,26.74-10.18,36.91,0,10.18,10.18,10.18,26.74,0,36.91-10.18,10.18-26.74,10.18-36.91,0-5.09-5.09-7.63-11.77-7.63-18.46ZM961.69,175.45c0-5.69-2.17-11.39-6.5-15.72-8.67-8.67-22.77-8.67-31.44,0-8.67,8.67-8.67,22.77,0,31.44,8.67,8.67,22.77,8.67,31.44,0,4.33-4.33,6.5-10.03,6.5-15.72Z"/>
        </g>
      </g>
      <g>
        <g>
          <g>
            <path class="cls-1" d="M783.41,187.47c9.44-9.44,31.96-16.66,41.4-7.22,9.44,9.44,2.21,31.96-7.22,41.4-9.44,9.44-24.74,9.44-34.18,0-9.44-9.44-9.44-24.74,0-34.18Z"/>
            <path d="M774.07,204.55c0-7.06,2.75-13.69,7.74-18.69,5.08-5.08,13.43-9.4,21.8-11.3,9.85-2.23,17.94-.78,22.8,4.07,4.85,4.85,6.3,12.95,4.07,22.8-1.89,8.37-6.22,16.72-11.3,21.8-4.99,4.99-11.63,7.74-18.68,7.74s-13.69-2.75-18.69-7.74c-4.99-4.99-7.74-11.63-7.74-18.69ZM826.96,193c0-4.79-1.28-8.68-3.75-11.16-8.4-8.4-29.45-1.54-38.21,7.22-8.54,8.54-8.54,22.44,0,30.98,8.54,8.54,22.44,8.54,30.98,0,4.44-4.44,8.4-12.13,10.08-19.6.6-2.65.89-5.15.89-7.45Z"/>
          </g>
          <g>
            <path class="cls-1" d="M841.62,129.25c-9.44,9.44-16.66,31.96-7.22,41.4,9.44,9.44,31.96,2.21,41.4-7.22,9.44-9.44,9.44-24.74,0-34.18-9.44-9.44-24.74-9.44-34.18,0Z"/>
            <path d="M827.71,157.97c0-2.65.34-5.5,1.02-8.52,1.89-8.37,6.22-16.72,11.3-21.8,4.99-4.99,11.63-7.74,18.68-7.74s13.69,2.75,18.69,7.74,7.74,11.63,7.74,18.69-2.75,13.69-7.74,18.69c-5.08,5.08-13.43,9.4-21.8,11.3-9.85,2.23-17.94.78-22.8-4.07-3.36-3.36-5.09-8.29-5.09-14.28ZM880.61,146.34c0-5.61-2.14-11.22-6.41-15.49-8.54-8.54-22.44-8.54-30.98,0-8.76,8.76-15.63,29.81-7.22,38.21,8.4,8.4,29.45,1.54,38.21-7.22,4.27-4.27,6.41-9.88,6.41-15.49Z"/>
          </g>
          <g>
            <path class="cls-1" d="M817.58,129.25c9.44,9.44,16.66,31.96,7.22,41.4s-31.96,2.21-41.4-7.22c-9.44-9.44-9.44-24.74,0-34.18,9.44-9.44,24.74-9.44,34.18,0Z"/>
            <path d="M774.07,146.34c0-7.06,2.75-13.69,7.74-18.69,4.99-4.99,11.63-7.74,18.69-7.74s13.69,2.75,18.68,7.74c5.08,5.08,9.4,13.43,11.3,21.8,2.23,9.85.78,17.94-4.07,22.8-4.85,4.85-12.95,6.3-22.8,4.07-8.37-1.89-16.72-6.22-21.8-11.3-4.99-4.99-7.74-11.63-7.74-18.69ZM827.03,157.92c0-9.48-5.08-21.12-11.04-27.07-8.54-8.54-22.44-8.54-30.98,0-8.54,8.54-8.54,22.44,0,30.98,8.76,8.76,29.81,15.63,38.21,7.22,2.69-2.69,3.81-6.67,3.81-11.13Z"/>
          </g>
          <g>
            <path class="cls-1" d="M875.8,187.47c-9.44-9.44-31.96-16.66-41.4-7.22-9.44,9.44-2.21,31.96,7.22,41.4,9.44,9.44,24.74,9.44,34.18,0,9.44-9.44,9.44-24.74,0-34.18Z"/>
            <path d="M827.71,192.92c0-5.99,1.73-10.91,5.09-14.28,4.85-4.85,12.95-6.3,22.8-4.07,8.37,1.89,16.72,6.22,21.8,11.3,4.99,4.99,7.74,11.63,7.74,18.69s-2.75,13.69-7.74,18.69c-4.99,4.99-11.63,7.74-18.69,7.74s-13.69-2.75-18.68-7.74c-5.08-5.08-9.4-13.43-11.3-21.8-.68-3.02-1.02-5.87-1.02-8.52ZM880.61,204.55c0-5.61-2.14-11.22-6.41-15.49-8.76-8.76-29.81-15.63-38.21-7.22-3.66,3.66-4.7,10.44-2.86,18.61,1.69,7.47,5.65,15.16,10.08,19.6,8.54,8.54,22.44,8.54,30.98,0,4.27-4.27,6.41-9.88,6.41-15.49Z"/>
          </g>
        </g>
        <g>
          <polygon points="802.28 202.77 820.3 175.45 802.28 148.13 829.6 166.15 856.92 148.13 838.9 175.45 856.92 202.77 829.6 184.75 802.28 202.77"/>
          <path d="M794.34,140.19l35.26,23.26,35.26-23.26-23.26,35.26,23.26,35.26-35.26-23.26-35.26,23.26,23.26-35.26-23.26-35.26ZM823,175.45l-12.78,19.37,19.37-12.78,19.37,12.78-12.78-19.37,12.78-19.37-19.37,12.78-19.37-12.78,12.78,19.37Z"/>
        </g>
        <g>
          <circle class="cls-2" cx="829.6" cy="175.45" r="24.17"/>
          <path d="M803.51,175.45c0-6.68,2.54-13.37,7.63-18.46,10.18-10.18,26.74-10.18,36.91,0,10.18,10.18,10.18,26.74,0,36.91-10.18,10.18-26.74,10.18-36.91,0-5.09-5.09-7.63-11.77-7.63-18.46ZM851.82,175.45c0-5.69-2.17-11.39-6.5-15.72-8.67-8.67-22.77-8.67-31.44,0-8.67,8.67-8.67,22.77,0,31.44,8.67,8.67,22.77,8.67,31.44,0,4.33-4.33,6.5-10.03,6.5-15.72Z"/>
        </g>
      </g>
      <g>
        <g>
          <g>
            <path class="cls-1" d="M673.54,187.47c9.44-9.44,31.96-16.66,41.4-7.22,9.44,9.44,2.21,31.96-7.22,41.4-9.44,9.44-24.74,9.44-34.18,0-9.44-9.44-9.44-24.74,0-34.18Z"/>
            <path d="M664.2,204.55c0-7.06,2.75-13.69,7.74-18.69,5.08-5.08,13.43-9.4,21.8-11.3,9.85-2.23,17.94-.78,22.8,4.07,4.85,4.85,6.3,12.95,4.07,22.8-1.89,8.37-6.22,16.72-11.3,21.8-4.99,4.99-11.63,7.74-18.68,7.74s-13.69-2.75-18.69-7.74-7.74-11.63-7.74-18.69ZM717.1,193c0-4.79-1.28-8.68-3.75-11.16-8.4-8.4-29.45-1.54-38.21,7.22-8.54,8.54-8.54,22.44,0,30.98,8.54,8.54,22.44,8.54,30.98,0,4.44-4.44,8.4-12.13,10.08-19.6.6-2.65.89-5.15.89-7.45Z"/>
          </g>
          <g>
            <path class="cls-1" d="M731.75,129.25c-9.44,9.44-16.66,31.96-7.22,41.4,9.44,9.44,31.96,2.21,41.4-7.22s9.44-24.74,0-34.18c-9.44-9.44-24.74-9.44-34.18,0Z"/>
            <path d="M717.84,157.97c0-2.65.34-5.5,1.02-8.52,1.89-8.37,6.22-16.72,11.3-21.8,4.99-4.99,11.63-7.74,18.68-7.74s13.69,2.75,18.69,7.74c4.99,4.99,7.74,11.63,7.74,18.69s-2.75,13.69-7.74,18.69c-5.08,5.08-13.43,9.4-21.8,11.3-9.85,2.23-17.94.78-22.8-4.07-3.36-3.36-5.09-8.29-5.09-14.28ZM770.74,146.34c0-5.61-2.14-11.22-6.41-15.49-8.54-8.54-22.44-8.54-30.98,0-8.76,8.76-15.63,29.81-7.22,38.21,8.4,8.4,29.45,1.54,38.21-7.22,4.27-4.27,6.41-9.88,6.41-15.49Z"/>
          </g>
          <g>
            <path class="cls-1" d="M707.72,129.25c9.44,9.44,16.66,31.96,7.22,41.4-9.44,9.44-31.96,2.21-41.4-7.22-9.44-9.44-9.44-24.74,0-34.18,9.44-9.44,24.74-9.44,34.18,0Z"/>
            <path d="M664.2,146.34c0-7.06,2.75-13.69,7.74-18.69,4.99-4.99,11.63-7.74,18.69-7.74s13.69,2.75,18.68,7.74c5.08,5.08,9.4,13.43,11.3,21.8,2.23,9.85.78,17.94-4.07,22.8-4.85,4.85-12.95,6.3-22.8,4.07-8.37-1.89-16.72-6.22-21.8-11.3-4.99-4.99-7.74-11.63-7.74-18.69ZM717.16,157.92c0-9.48-5.08-21.12-11.04-27.07-8.54-8.54-22.44-8.54-30.98,0-8.54,8.54-8.54,22.44,0,30.98,8.76,8.76,29.81,15.63,38.21,7.22,2.69-2.69,3.81-6.67,3.81-11.13Z"/>
          </g>
          <g>
            <path class="cls-1" d="M765.93,187.47c-9.44-9.44-31.96-16.66-41.4-7.22-9.44,9.44-2.21,31.96,7.22,41.4,9.44,9.44,24.74,9.44,34.18,0,9.44-9.44,9.44-24.74,0-34.18Z"/>
            <path d="M717.84,192.92c0-5.99,1.73-10.91,5.09-14.28,4.85-4.85,12.95-6.3,22.8-4.07,8.37,1.89,16.72,6.22,21.8,11.3,4.99,4.99,7.74,11.63,7.74,18.69s-2.75,13.69-7.74,18.69-11.63,7.74-18.69,7.74-13.69-2.75-18.68-7.74c-5.08-5.08-9.4-13.43-11.3-21.8-.68-3.02-1.02-5.87-1.02-8.52ZM770.74,204.55c0-5.61-2.14-11.22-6.41-15.49-8.76-8.76-29.81-15.63-38.21-7.22-3.66,3.66-4.7,10.44-2.86,18.61,1.69,7.47,5.65,15.16,10.08,19.6,8.54,8.54,22.44,8.54,30.98,0,4.27-4.27,6.41-9.88,6.41-15.49Z"/>
          </g>
        </g>
        <g>
          <polygon points="692.42 202.77 710.43 175.45 692.42 148.13 719.73 166.15 747.05 148.13 729.04 175.45 747.05 202.77 719.73 184.75 692.42 202.77"/>
          <path d="M684.47,140.19l35.26,23.26,35.26-23.26-23.26,35.26,23.26,35.26-35.26-23.26-35.26,23.26,23.26-35.26-23.26-35.26ZM713.14,175.45l-12.78,19.37,19.37-12.78,19.37,12.78-12.78-19.37,12.78-19.37-19.37,12.78-19.37-12.78,12.78,19.37Z"/>
        </g>
        <g>
          <circle class="cls-2" cx="719.73" cy="175.45" r="24.17"/>
          <path d="M693.64,175.45c0-6.68,2.54-13.37,7.63-18.46,10.18-10.18,26.74-10.18,36.91,0,10.18,10.18,10.18,26.74,0,36.91-10.18,10.18-26.74,10.18-36.91,0-5.09-5.09-7.63-11.77-7.63-18.46ZM741.96,175.45c0-5.69-2.17-11.39-6.5-15.72-8.67-8.67-22.77-8.67-31.44,0-8.67,8.67-8.67,22.77,0,31.44,8.67,8.67,22.77,8.67,31.44,0,4.33-4.33,6.5-10.03,6.5-15.72Z"/>
        </g>
      </g>
      <g>
        <g>
          <g>
            <path class="cls-1" d="M563.67,187.47c9.44-9.44,31.96-16.66,41.4-7.22,9.44,9.44,2.21,31.96-7.22,41.4-9.44,9.44-24.74,9.44-34.18,0-9.44-9.44-9.44-24.74,0-34.18Z"/>
            <path d="M554.34,204.55c0-7.06,2.75-13.69,7.74-18.69,5.08-5.08,13.43-9.4,21.8-11.3,9.85-2.23,17.94-.78,22.8,4.07,4.85,4.85,6.3,12.95,4.07,22.8-1.89,8.37-6.22,16.72-11.3,21.8-4.99,4.99-11.63,7.74-18.68,7.74s-13.69-2.75-18.69-7.74c-4.99-4.99-7.74-11.63-7.74-18.69ZM607.23,193c0-4.79-1.28-8.68-3.75-11.16-8.4-8.4-29.45-1.54-38.21,7.22-8.54,8.54-8.54,22.44,0,30.98,8.54,8.54,22.44,8.54,30.98,0,4.44-4.44,8.4-12.13,10.08-19.6.6-2.65.89-5.15.89-7.45Z"/>
          </g>
          <g>
            <path class="cls-1" d="M621.88,129.25c-9.44,9.44-16.66,31.96-7.22,41.4s31.96,2.21,41.4-7.22c9.44-9.44,9.44-24.74,0-34.18-9.44-9.44-24.74-9.44-34.18,0Z"/>
            <path d="M607.97,157.97c0-2.65.34-5.5,1.02-8.52,1.89-8.37,6.22-16.72,11.3-21.8,4.99-4.99,11.63-7.74,18.68-7.74s13.69,2.75,18.69,7.74c4.99,4.99,7.74,11.63,7.74,18.69s-2.75,13.69-7.74,18.69c-5.08,5.08-13.43,9.4-21.8,11.3-9.85,2.23-17.94.78-22.8-4.07-3.36-3.36-5.09-8.29-5.09-14.28ZM660.87,146.34c0-5.61-2.14-11.22-6.41-15.49-8.54-8.54-22.44-8.54-30.98,0-8.76,8.76-15.63,29.81-7.22,38.21,8.4,8.4,29.45,1.54,38.21-7.22,4.27-4.27,6.41-9.88,6.41-15.49Z"/>
          </g>
          <g>
            <path class="cls-1" d="M597.85,129.25c9.44,9.44,16.66,31.96,7.22,41.4-9.44,9.44-31.96,2.21-41.4-7.22-9.44-9.44-9.44-24.74,0-34.18,9.44-9.44,24.74-9.44,34.18,0Z"/>
            <path d="M554.34,146.34c0-7.06,2.75-13.69,7.74-18.69,4.99-4.99,11.63-7.74,18.69-7.74s13.69,2.75,18.68,7.74c5.08,5.08,9.4,13.43,11.3,21.8,2.23,9.85.78,17.94-4.07,22.8-4.85,4.85-12.95,6.3-22.8,4.07-8.37-1.89-16.72-6.22-21.8-11.3-4.99-4.99-7.74-11.63-7.74-18.69ZM607.29,157.92c0-9.48-5.08-21.12-11.04-27.07-8.54-8.54-22.44-8.54-30.98,0-8.54,8.54-8.54,22.44,0,30.98,8.76,8.76,29.81,15.63,38.21,7.22,2.69-2.69,3.81-6.67,3.81-11.13Z"/>
          </g>
          <g>
            <path class="cls-1" d="M656.06,187.47c-9.44-9.44-31.96-16.66-41.4-7.22-9.44,9.44-2.21,31.96,7.22,41.4,9.44,9.44,24.74,9.44,34.18,0,9.44-9.44,9.44-24.74,0-34.18Z"/>
            <path d="M607.97,192.92c0-5.99,1.73-10.91,5.09-14.28,4.85-4.85,12.95-6.3,22.8-4.07,8.37,1.89,16.72,6.22,21.8,11.3,4.99,4.99,7.74,11.63,7.74,18.69s-2.75,13.69-7.74,18.69-11.63,7.74-18.69,7.74-13.69-2.75-18.68-7.74c-5.08-5.08-9.4-13.43-11.3-21.8-.68-3.02-1.02-5.87-1.02-8.52ZM660.87,204.55c0-5.61-2.14-11.22-6.41-15.49-8.76-8.76-29.81-15.63-38.21-7.22-3.66,3.66-4.7,10.44-2.86,18.61,1.69,7.47,5.65,15.16,10.08,19.6,8.54,8.54,22.44,8.54,30.98,0,4.27-4.27,6.41-9.88,6.41-15.49Z"/>
          </g>
        </g>
        <g>
          <polygon points="582.55 202.77 600.57 175.45 582.55 148.13 609.87 166.15 637.18 148.13 619.17 175.45 637.18 202.77 609.87 184.75 582.55 202.77"/>
          <path d="M574.61,140.19l35.26,23.26,35.26-23.26-23.26,35.26,23.26,35.26-35.26-23.26-35.26,23.26,23.26-35.26-23.26-35.26ZM603.27,175.45l-12.78,19.37,19.37-12.78,19.37,12.78-12.78-19.37,12.78-19.37-19.37,12.78-19.37-12.78,12.78,19.37Z"/>
        </g>
        <g>
          <circle class="cls-2" cx="609.87" cy="175.45" r="24.17"/>
          <path d="M583.78,175.45c0-6.68,2.54-13.37,7.63-18.46,10.18-10.18,26.74-10.18,36.91,0,10.18,10.18,10.18,26.74,0,36.91-10.18,10.18-26.74,10.18-36.91,0-5.09-5.09-7.63-11.77-7.63-18.46ZM632.09,175.45c0-5.69-2.17-11.39-6.5-15.72-8.67-8.67-22.77-8.67-31.44,0-8.67,8.67-8.67,22.77,0,31.44,8.67,8.67,22.77,8.67,31.44,0,4.33-4.33,6.5-10.03,6.5-15.72Z"/>
        </g>
      </g>
      <g>
        <g>
          <g>
            <path class="cls-1" d="M453.8,187.47c9.44-9.44,31.96-16.66,41.4-7.22,9.44,9.44,2.21,31.96-7.22,41.4-9.44,9.44-24.74,9.44-34.18,0-9.44-9.44-9.44-24.74,0-34.18Z"/>
            <path d="M444.47,204.55c0-7.06,2.75-13.69,7.74-18.69,5.08-5.08,13.43-9.4,21.8-11.3,9.85-2.23,17.94-.78,22.8,4.07,4.85,4.85,6.3,12.95,4.07,22.8-1.89,8.37-6.22,16.72-11.3,21.8-4.99,4.99-11.63,7.74-18.68,7.74s-13.69-2.75-18.69-7.74c-4.99-4.99-7.74-11.63-7.74-18.69ZM497.36,193c0-4.79-1.28-8.68-3.75-11.16-8.4-8.4-29.45-1.54-38.21,7.22-8.54,8.54-8.54,22.44,0,30.98,8.54,8.54,22.44,8.54,30.98,0,4.44-4.44,8.4-12.13,10.08-19.6.6-2.65.89-5.15.89-7.45Z"/>
          </g>
          <g>
            <path class="cls-1" d="M512.02,129.25c-9.44,9.44-16.66,31.96-7.22,41.4,9.44,9.44,31.96,2.21,41.4-7.22,9.44-9.44,9.44-24.74,0-34.18-9.44-9.44-24.74-9.44-34.18,0Z"/>
            <path d="M498.1,157.97c0-2.65.34-5.5,1.02-8.52,1.89-8.37,6.22-16.72,11.3-21.8,4.99-4.99,11.63-7.74,18.68-7.74s13.69,2.75,18.69,7.74c4.99,4.99,7.74,11.63,7.74,18.69s-2.75,13.69-7.74,18.69c-5.08,5.08-13.43,9.4-21.8,11.3-9.85,2.23-17.94.78-22.8-4.07-3.36-3.36-5.09-8.29-5.09-14.28ZM551.01,146.34c0-5.61-2.14-11.22-6.41-15.49-8.54-8.54-22.44-8.54-30.98,0-8.76,8.76-15.63,29.81-7.22,38.21,8.4,8.4,29.45,1.54,38.21-7.22,4.27-4.27,6.41-9.88,6.41-15.49Z"/>
          </g>
          <g>
            <path class="cls-1" d="M487.98,129.25c9.44,9.44,16.66,31.96,7.22,41.4-9.44,9.44-31.96,2.21-41.4-7.22-9.44-9.44-9.44-24.74,0-34.18,9.44-9.44,24.74-9.44,34.18,0Z"/>
            <path d="M444.47,146.34c0-7.06,2.75-13.69,7.74-18.69,4.99-4.99,11.63-7.74,18.69-7.74s13.69,2.75,18.68,7.74c5.08,5.08,9.4,13.43,11.3,21.8,2.23,9.85.78,17.94-4.07,22.8-4.85,4.85-12.95,6.3-22.8,4.07-8.37-1.89-16.72-6.22-21.8-11.3-4.99-4.99-7.74-11.63-7.74-18.69ZM497.42,157.92c0-9.48-5.08-21.12-11.04-27.07-8.54-8.54-22.44-8.54-30.98,0-8.54,8.54-8.54,22.44,0,30.98,8.76,8.76,29.81,15.63,38.21,7.22,2.69-2.69,3.81-6.67,3.81-11.13Z"/>
          </g>
          <g>
            <path class="cls-1" d="M546.2,187.47c-9.44-9.44-31.96-16.66-41.4-7.22-9.44,9.44-2.21,31.96,7.22,41.4,9.44,9.44,24.74,9.44,34.18,0,9.44-9.44,9.44-24.74,0-34.18Z"/>
            <path d="M498.1,192.92c0-5.99,1.73-10.91,5.09-14.28,4.85-4.85,12.95-6.3,22.8-4.07,8.37,1.89,16.72,6.22,21.8,11.3,4.99,4.99,7.74,11.63,7.74,18.69s-2.75,13.69-7.74,18.69-11.63,7.74-18.69,7.74-13.69-2.75-18.68-7.74c-5.08-5.08-9.4-13.43-11.3-21.8-.68-3.02-1.02-5.87-1.02-8.52ZM551.01,204.55c0-5.61-2.14-11.22-6.41-15.49-8.76-8.76-29.81-15.63-38.21-7.22-3.66,3.66-4.7,10.44-2.86,18.61,1.69,7.47,5.65,15.16,10.08,19.6,8.54,8.54,22.44,8.54,30.98,0,4.27-4.27,6.41-9.88,6.41-15.49Z"/>
          </g>
        </g>
        <g>
          <polygon points="472.68 202.77 490.7 175.45 472.68 148.13 500 166.15 527.32 148.13 509.3 175.45 527.32 202.77 500 184.75 472.68 202.77"/>
          <path d="M464.74,140.19l35.26,23.26,35.26-23.26-23.26,35.26,23.26,35.26-35.26-23.26-35.26,23.26,23.26-35.26-23.26-35.26ZM493.4,175.45l-12.78,19.37,19.37-12.78,19.37,12.78-12.78-19.37,12.78-19.37-19.37,12.78-19.37-12.78,12.78,19.37Z"/>
        </g>
        <g>
          <circle class="cls-2" cx="500" cy="175.45" r="24.17"/>
          <path d="M473.91,175.45c0-6.68,2.54-13.37,7.63-18.46,10.18-10.18,26.74-10.18,36.91,0s10.18,26.74,0,36.91c-10.18,10.18-26.74,10.18-36.91,0-5.09-5.09-7.63-11.77-7.63-18.46ZM522.22,175.45c0-5.69-2.17-11.39-6.5-15.72-8.67-8.67-22.77-8.67-31.44,0-8.67,8.67-8.67,22.77,0,31.44,8.67,8.67,22.77,8.67,31.44,0,4.33-4.33,6.5-10.03,6.5-15.72Z"/>
        </g>
      </g>
      <g>
        <g>
          <g>
            <path class="cls-1" d="M343.94,187.47c9.44-9.44,31.96-16.66,41.4-7.22,9.44,9.44,2.21,31.96-7.22,41.4s-24.74,9.44-34.18,0c-9.44-9.44-9.44-24.74,0-34.18Z"/>
            <path d="M334.6,204.55c0-7.06,2.75-13.69,7.74-18.69,5.08-5.08,13.43-9.4,21.8-11.3,9.85-2.23,17.94-.78,22.8,4.07,4.85,4.85,6.3,12.95,4.07,22.8-1.89,8.37-6.22,16.72-11.3,21.8-4.99,4.99-11.63,7.74-18.68,7.74s-13.69-2.75-18.69-7.74-7.74-11.63-7.74-18.69ZM387.5,193c0-4.79-1.28-8.68-3.75-11.16-8.4-8.4-29.45-1.54-38.21,7.22-8.54,8.54-8.54,22.44,0,30.98,8.54,8.54,22.44,8.54,30.98,0,4.44-4.44,8.4-12.13,10.08-19.6.6-2.65.89-5.15.89-7.45Z"/>
          </g>
          <g>
            <path class="cls-1" d="M402.15,129.25c-9.44,9.44-16.66,31.96-7.22,41.4,9.44,9.44,31.96,2.21,41.4-7.22s9.44-24.74,0-34.18c-9.44-9.44-24.74-9.44-34.18,0Z"/>
            <path d="M388.24,157.97c0-2.65.34-5.5,1.02-8.52,1.89-8.37,6.22-16.72,11.3-21.8,4.99-4.99,11.63-7.74,18.68-7.74s13.69,2.75,18.69,7.74c4.99,4.99,7.74,11.63,7.74,18.69s-2.75,13.69-7.74,18.69c-5.08,5.08-13.43,9.4-21.8,11.3-9.85,2.23-17.94.78-22.8-4.07-3.36-3.36-5.09-8.29-5.09-14.28ZM441.14,146.34c0-5.61-2.14-11.22-6.41-15.49-8.54-8.54-22.44-8.54-30.98,0-8.76,8.76-15.63,29.81-7.22,38.21,8.4,8.4,29.45,1.54,38.21-7.22,4.27-4.27,6.41-9.88,6.41-15.49Z"/>
          </g>
          <g>
            <path class="cls-1" d="M378.12,129.25c9.44,9.44,16.66,31.96,7.22,41.4-9.44,9.44-31.96,2.21-41.4-7.22s-9.44-24.74,0-34.18c9.44-9.44,24.74-9.44,34.18,0Z"/>
            <path d="M334.6,146.34c0-7.06,2.75-13.69,7.74-18.69,4.99-4.99,11.63-7.74,18.69-7.74s13.69,2.75,18.68,7.74c5.08,5.08,9.4,13.43,11.3,21.8,2.23,9.85.78,17.94-4.07,22.8-4.85,4.85-12.95,6.3-22.8,4.07-8.37-1.89-16.72-6.22-21.8-11.3-4.99-4.99-7.74-11.63-7.74-18.69ZM387.56,157.92c0-9.48-5.08-21.12-11.04-27.07-8.54-8.54-22.44-8.54-30.98,0-8.54,8.54-8.54,22.44,0,30.98,8.76,8.76,29.81,15.63,38.21,7.22,2.69-2.69,3.81-6.67,3.81-11.13Z"/>
          </g>
          <g>
            <path class="cls-1" d="M436.33,187.47c-9.44-9.44-31.96-16.66-41.4-7.22s-2.21,31.96,7.22,41.4c9.44,9.44,24.74,9.44,34.18,0,9.44-9.44,9.44-24.74,0-34.18Z"/>
            <path d="M388.24,192.92c0-5.99,1.73-10.91,5.09-14.28,4.85-4.85,12.95-6.3,22.8-4.07,8.37,1.89,16.72,6.22,21.8,11.3,4.99,4.99,7.74,11.63,7.74,18.69s-2.75,13.69-7.74,18.69-11.63,7.74-18.69,7.74-13.69-2.75-18.68-7.74c-5.08-5.08-9.4-13.43-11.3-21.8-.68-3.02-1.02-5.87-1.02-8.52ZM441.14,204.55c0-5.61-2.14-11.22-6.41-15.49-8.76-8.76-29.81-15.63-38.21-7.22-3.66,3.66-4.7,10.44-2.86,18.61,1.69,7.47,5.65,15.16,10.08,19.6,8.54,8.54,22.44,8.54,30.98,0,4.27-4.27,6.41-9.88,6.41-15.49Z"/>
          </g>
        </g>
        <g>
          <polygon points="362.82 202.77 380.83 175.45 362.82 148.13 390.13 166.15 417.45 148.13 399.43 175.45 417.45 202.77 390.13 184.75 362.82 202.77"/>
          <path d="M354.87,140.19l35.26,23.26,35.26-23.26-23.26,35.26,23.26,35.26-35.26-23.26-35.26,23.26,23.26-35.26-23.26-35.26ZM383.54,175.45l-12.78,19.37,19.37-12.78,19.37,12.78-12.78-19.37,12.78-19.37-19.37,12.78-19.37-12.78,12.78,19.37Z"/>
        </g>
        <g>
          <circle class="cls-2" cx="390.13" cy="175.45" r="24.17"/>
          <path d="M364.04,175.45c0-6.68,2.54-13.37,7.63-18.46,10.18-10.18,26.74-10.18,36.91,0,10.18,10.18,10.18,26.74,0,36.91-10.18,10.18-26.74,10.18-36.91,0-5.09-5.09-7.63-11.77-7.63-18.46ZM412.35,175.45c0-5.69-2.17-11.39-6.5-15.72-8.67-8.67-22.77-8.67-31.44,0-8.67,8.67-8.67,22.77,0,31.44,8.67,8.67,22.77,8.67,31.44,0,4.33-4.33,6.5-10.03,6.5-15.72Z"/>
        </g>
      </g>
      <g>
        <g>
          <g>
            <path class="cls-1" d="M234.07,187.47c9.44-9.44,31.96-16.66,41.4-7.22,9.44,9.44,2.21,31.96-7.22,41.4-9.44,9.44-24.74,9.44-34.18,0-9.44-9.44-9.44-24.74,0-34.18Z"/>
            <path d="M224.73,204.55c0-7.06,2.75-13.69,7.74-18.69,5.08-5.08,13.43-9.4,21.8-11.3,9.85-2.23,17.94-.78,22.8,4.07,4.85,4.85,6.3,12.95,4.07,22.8-1.89,8.37-6.22,16.72-11.3,21.8-4.99,4.99-11.63,7.74-18.68,7.74s-13.69-2.75-18.69-7.74-7.74-11.63-7.74-18.69ZM277.63,193c0-4.79-1.28-8.68-3.75-11.16-8.4-8.4-29.45-1.54-38.21,7.22-8.54,8.54-8.54,22.44,0,30.98,8.54,8.54,22.44,8.54,30.98,0,4.44-4.44,8.4-12.13,10.08-19.6.6-2.65.89-5.15.89-7.45Z"/>
          </g>
          <g>
            <path class="cls-1" d="M292.28,129.25c-9.44,9.44-16.66,31.96-7.22,41.4,9.44,9.44,31.96,2.21,41.4-7.22,9.44-9.44,9.44-24.74,0-34.18-9.44-9.44-24.74-9.44-34.18,0Z"/>
            <path d="M278.37,157.97c0-2.65.34-5.5,1.02-8.52,1.89-8.37,6.22-16.72,11.3-21.8,4.99-4.99,11.63-7.74,18.68-7.74s13.69,2.75,18.69,7.74c4.99,4.99,7.74,11.63,7.74,18.69s-2.75,13.69-7.74,18.69c-5.08,5.08-13.43,9.4-21.8,11.3-9.85,2.23-17.94.78-22.8-4.07-3.36-3.36-5.09-8.29-5.09-14.28ZM331.27,146.34c0-5.61-2.14-11.22-6.41-15.49-8.54-8.54-22.44-8.54-30.98,0-8.76,8.76-15.63,29.81-7.22,38.21,8.4,8.4,29.45,1.54,38.21-7.22,4.27-4.27,6.41-9.88,6.41-15.49Z"/>
          </g>
          <g>
            <path class="cls-1" d="M268.25,129.25c9.44,9.44,16.66,31.96,7.22,41.4s-31.96,2.21-41.4-7.22c-9.44-9.44-9.44-24.74,0-34.18s24.74-9.44,34.18,0Z"/>
            <path d="M224.73,146.34c0-7.06,2.75-13.69,7.74-18.69,4.99-4.99,11.63-7.74,18.69-7.74s13.69,2.75,18.68,7.74c5.08,5.08,9.4,13.43,11.3,21.8,2.23,9.85.78,17.94-4.07,22.8-4.85,4.85-12.95,6.3-22.8,4.07-8.37-1.89-16.72-6.22-21.8-11.3-4.99-4.99-7.74-11.63-7.74-18.69ZM277.69,157.92c0-9.48-5.08-21.12-11.04-27.07-8.54-8.54-22.44-8.54-30.98,0-8.54,8.54-8.54,22.44,0,30.98,8.76,8.76,29.81,15.63,38.21,7.22,2.69-2.69,3.81-6.67,3.81-11.13Z"/>
          </g>
          <g>
            <path class="cls-1" d="M326.46,187.47c-9.44-9.44-31.96-16.66-41.4-7.22-9.44,9.44-2.21,31.96,7.22,41.4,9.44,9.44,24.74,9.44,34.18,0,9.44-9.44,9.44-24.74,0-34.18Z"/>
            <path d="M278.37,192.92c0-5.99,1.73-10.91,5.09-14.28,4.85-4.85,12.95-6.3,22.8-4.07,8.37,1.89,16.72,6.22,21.8,11.3,4.99,4.99,7.74,11.63,7.74,18.69s-2.75,13.69-7.74,18.69-11.63,7.74-18.69,7.74-13.69-2.75-18.68-7.74c-5.08-5.08-9.4-13.43-11.3-21.8-.68-3.02-1.02-5.87-1.02-8.52ZM331.27,204.55c0-5.61-2.14-11.22-6.41-15.49-8.76-8.76-29.81-15.63-38.21-7.22-3.66,3.66-4.71,10.44-2.86,18.61,1.69,7.47,5.65,15.16,10.08,19.6,8.54,8.54,22.44,8.54,30.98,0,4.27-4.27,6.41-9.88,6.41-15.49Z"/>
          </g>
        </g>
        <g>
          <polygon points="252.95 202.77 270.96 175.45 252.95 148.13 280.27 166.15 307.58 148.13 289.57 175.45 307.58 202.77 280.27 184.75 252.95 202.77"/>
          <path d="M245,140.19l35.26,23.26,35.26-23.26-23.26,35.26,23.26,35.26-35.26-23.26-35.26,23.26,23.26-35.26-23.26-35.26ZM273.67,175.45l-12.78,19.37,19.37-12.78,19.37,12.78-12.78-19.37,12.78-19.37-19.37,12.78-19.37-12.78,12.78,19.37Z"/>
        </g>
        <g>
          <circle class="cls-2" cx="280.27" cy="175.45" r="24.17"/>
          <path d="M254.17,175.45c0-6.68,2.54-13.37,7.63-18.46,4.93-4.93,11.48-7.65,18.46-7.65s13.53,2.72,18.46,7.65c10.18,10.18,10.18,26.74,0,36.91-4.93,4.93-11.48,7.65-18.46,7.65s-13.53-2.72-18.46-7.65c-5.09-5.09-7.63-11.77-7.63-18.46ZM302.49,175.45c0-5.69-2.17-11.39-6.5-15.72-4.2-4.2-9.78-6.51-15.72-6.51s-11.52,2.31-15.72,6.51c-8.67,8.67-8.67,22.77,0,31.44,4.2,4.2,9.78,6.51,15.72,6.51s11.52-2.31,15.72-6.51c4.33-4.33,6.5-10.03,6.5-15.72Z"/>
        </g>
      </g>
      <g>
        <g>
          <g>
            <path class="cls-1" d="M124.2,187.47c9.44-9.44,31.96-16.66,41.4-7.22,9.44,9.44,2.21,31.96-7.22,41.4-9.44,9.44-24.74,9.44-34.18,0s-9.44-24.74,0-34.18Z"/>
            <path d="M114.87,204.55c0-7.06,2.75-13.69,7.74-18.69,5.08-5.08,13.43-9.4,21.8-11.3,9.85-2.23,17.94-.78,22.8,4.07,4.85,4.85,6.3,12.95,4.07,22.8-1.89,8.37-6.22,16.72-11.3,21.8-4.99,4.99-11.63,7.74-18.68,7.74s-13.69-2.75-18.69-7.74-7.74-11.63-7.74-18.69ZM167.76,193c0-4.79-1.28-8.68-3.75-11.16-8.4-8.4-29.45-1.54-38.21,7.22-8.54,8.54-8.54,22.44,0,30.98,8.54,8.54,22.44,8.54,30.98,0,4.44-4.44,8.4-12.13,10.08-19.6.6-2.65.89-5.15.89-7.45Z"/>
          </g>
          <g>
            <path class="cls-1" d="M182.42,129.25c-9.44,9.44-16.66,31.96-7.22,41.4,9.44,9.44,31.96,2.21,41.4-7.22,9.44-9.44,9.44-24.74,0-34.18-9.44-9.44-24.74-9.44-34.18,0Z"/>
            <path d="M168.5,157.97c0-2.65.34-5.5,1.02-8.52,1.89-8.37,6.22-16.72,11.3-21.8,4.99-4.99,11.63-7.74,18.68-7.74s13.69,2.75,18.69,7.74c4.99,4.99,7.74,11.63,7.74,18.69s-2.75,13.69-7.74,18.69c-5.08,5.08-13.43,9.4-21.8,11.3-9.85,2.23-17.94.78-22.8-4.07-3.36-3.36-5.09-8.29-5.09-14.28ZM221.4,146.34c0-5.61-2.14-11.22-6.41-15.49-8.54-8.54-22.44-8.54-30.98,0-8.76,8.76-15.63,29.81-7.22,38.21,8.4,8.4,29.45,1.54,38.21-7.22,4.27-4.27,6.41-9.88,6.41-15.49Z"/>
          </g>
          <g>
            <path class="cls-1" d="M158.38,129.25c9.44,9.44,16.66,31.96,7.22,41.4-9.44,9.44-31.96,2.21-41.4-7.22-9.44-9.44-9.44-24.74,0-34.18,9.44-9.44,24.74-9.44,34.18,0Z"/>
            <path d="M114.87,146.34c0-7.06,2.75-13.69,7.74-18.69,4.99-4.99,11.63-7.74,18.69-7.74s13.69,2.75,18.68,7.74c5.08,5.08,9.4,13.43,11.3,21.8,2.23,9.85.78,17.94-4.07,22.8-4.85,4.85-12.95,6.3-22.8,4.07-8.37-1.89-16.72-6.22-21.8-11.3-4.99-4.99-7.74-11.63-7.74-18.69ZM167.82,157.92c0-9.48-5.08-21.12-11.04-27.07-8.54-8.54-22.44-8.54-30.98,0-8.54,8.54-8.54,22.44,0,30.98,8.76,8.76,29.81,15.63,38.21,7.22,2.69-2.69,3.81-6.67,3.81-11.13Z"/>
          </g>
          <g>
            <path class="cls-1" d="M216.59,187.47c-9.44-9.44-31.96-16.66-41.4-7.22-9.44,9.44-2.21,31.96,7.22,41.4,9.44,9.44,24.74,9.44,34.18,0,9.44-9.44,9.44-24.74,0-34.18Z"/>
            <path d="M168.5,192.92c0-5.99,1.73-10.91,5.09-14.28,4.85-4.85,12.95-6.3,22.8-4.07,8.37,1.89,16.72,6.22,21.8,11.3,4.99,4.99,7.74,11.63,7.74,18.69s-2.75,13.69-7.74,18.69c-4.99,4.99-11.63,7.74-18.69,7.74s-13.69-2.75-18.68-7.74c-5.08-5.08-9.4-13.43-11.3-21.8-.68-3.02-1.02-5.87-1.02-8.52ZM221.4,204.55c0-5.61-2.14-11.22-6.41-15.49-8.76-8.76-29.81-15.63-38.21-7.22-3.66,3.66-4.71,10.44-2.86,18.61,1.69,7.47,5.65,15.16,10.08,19.6,8.54,8.54,22.44,8.54,30.98,0,4.27-4.27,6.41-9.88,6.41-15.49Z"/>
          </g>
        </g>
        <g>
          <polygon points="143.08 202.77 161.1 175.45 143.08 148.13 170.4 166.15 197.72 148.13 179.7 175.45 197.72 202.77 170.4 184.75 143.08 202.77"/>
          <path d="M135.14,140.19l35.26,23.26,35.26-23.26-23.26,35.26,23.26,35.26-35.26-23.26-35.26,23.26,23.26-35.26-23.26-35.26ZM163.8,175.45l-12.78,19.37,19.37-12.78,19.37,12.78-12.78-19.37,12.78-19.37-19.37,12.78-19.37-12.78,12.78,19.37Z"/>
        </g>
        <g>
          <circle class="cls-2" cx="170.4" cy="175.45" r="24.17"/>
          <path d="M144.31,175.45c0-6.68,2.54-13.37,7.63-18.46,4.93-4.93,11.48-7.65,18.46-7.65s13.53,2.72,18.46,7.65c10.18,10.18,10.18,26.74,0,36.91-4.93,4.93-11.48,7.65-18.46,7.65s-13.53-2.72-18.46-7.65c-5.09-5.09-7.63-11.77-7.63-18.46ZM192.62,175.45c0-5.69-2.17-11.39-6.5-15.72-4.2-4.2-9.78-6.51-15.72-6.51s-11.52,2.31-15.72,6.51c-8.67,8.67-8.67,22.77,0,31.44,4.2,4.2,9.78,6.51,15.72,6.51s11.52-2.31,15.72-6.51c4.33-4.33,6.5-10.03,6.5-15.72Z"/>
        </g>
      </g>
      <g>
        <g>
          <g>
            <path class="cls-1" d="M14.34,187.47c9.44-9.44,31.96-16.66,41.4-7.22,9.44,9.44,2.21,31.96-7.22,41.4-9.44,9.44-24.74,9.44-34.18,0-9.44-9.44-9.44-24.74,0-34.18Z"/>
            <path d="M5,204.55c0-7.06,2.75-13.69,7.74-18.69,5.08-5.08,13.43-9.4,21.8-11.3,9.85-2.23,17.94-.78,22.8,4.07,4.85,4.85,6.3,12.95,4.07,22.8-1.89,8.37-6.22,16.72-11.3,21.8-4.99,4.99-11.63,7.74-18.68,7.74s-13.69-2.75-18.69-7.74c-4.99-4.99-7.74-11.63-7.74-18.69ZM57.89,193c0-4.79-1.28-8.68-3.75-11.16-8.4-8.4-29.45-1.54-38.21,7.22-8.54,8.54-8.54,22.44,0,30.98,8.54,8.54,22.44,8.54,30.98,0,4.44-4.44,8.4-12.13,10.08-19.6.6-2.65.89-5.15.89-7.45Z"/>
          </g>
          <g>
            <path class="cls-1" d="M72.55,129.25c-9.44,9.44-16.66,31.96-7.22,41.4,9.44,9.44,31.96,2.21,41.4-7.22s9.44-24.74,0-34.18c-9.44-9.44-24.74-9.44-34.18,0Z"/>
            <path d="M58.64,157.97c0-2.65.34-5.5,1.02-8.52,1.89-8.37,6.22-16.72,11.3-21.8,4.99-4.99,11.63-7.74,18.68-7.74s13.69,2.75,18.69,7.74,7.74,11.63,7.74,18.69-2.75,13.69-7.74,18.69c-5.08,5.08-13.43,9.4-21.8,11.3-9.85,2.23-17.94.78-22.8-4.07-3.36-3.36-5.09-8.29-5.09-14.28ZM111.54,146.34c0-5.61-2.14-11.22-6.41-15.49-8.54-8.54-22.44-8.54-30.98,0-8.76,8.76-15.63,29.81-7.22,38.21,8.4,8.4,29.45,1.54,38.21-7.22,4.27-4.27,6.41-9.88,6.41-15.49Z"/>
          </g>
          <g>
            <path class="cls-1" d="M48.51,129.25c9.44,9.44,16.66,31.96,7.22,41.4-9.44,9.44-31.96,2.21-41.4-7.22-9.44-9.44-9.44-24.74,0-34.18,9.44-9.44,24.74-9.44,34.18,0Z"/>
            <path d="M5,146.34c0-7.06,2.75-13.69,7.74-18.69,4.99-4.99,11.63-7.74,18.69-7.74s13.69,2.75,18.68,7.74c5.08,5.08,9.4,13.43,11.3,21.8,2.23,9.85.78,17.94-4.07,22.8-4.85,4.85-12.95,6.3-22.8,4.07-8.37-1.89-16.72-6.22-21.8-11.3-4.99-4.99-7.74-11.63-7.74-18.69ZM57.96,157.92c0-9.48-5.08-21.12-11.04-27.07-8.54-8.54-22.44-8.54-30.98,0-8.54,8.54-8.54,22.44,0,30.98,8.76,8.76,29.81,15.63,38.21,7.22,2.69-2.69,3.81-6.67,3.81-11.13Z"/>
          </g>
          <g>
            <path class="cls-1" d="M106.73,187.47c-9.44-9.44-31.96-16.66-41.4-7.22s-2.21,31.96,7.22,41.4c9.44,9.44,24.74,9.44,34.18,0,9.44-9.44,9.44-24.74,0-34.18Z"/>
            <path d="M58.64,192.92c0-5.99,1.73-10.91,5.09-14.28,4.85-4.85,12.95-6.3,22.8-4.07,8.37,1.89,16.72,6.22,21.8,11.3,4.99,4.99,7.74,11.63,7.74,18.69s-2.75,13.69-7.74,18.69c-4.99,4.99-11.63,7.74-18.69,7.74s-13.69-2.75-18.68-7.74c-5.08-5.08-9.4-13.43-11.3-21.8-.68-3.02-1.02-5.87-1.02-8.52ZM111.54,204.55c0-5.61-2.14-11.22-6.41-15.49-8.76-8.76-29.81-15.63-38.21-7.22-3.66,3.66-4.7,10.44-2.86,18.61,1.69,7.47,5.65,15.16,10.08,19.6,8.54,8.54,22.44,8.54,30.98,0,4.27-4.27,6.41-9.88,6.41-15.49Z"/>
          </g>
        </g>
        <g>
          <polygon points="33.21 202.77 51.23 175.45 33.21 148.13 60.53 166.15 87.85 148.13 69.83 175.45 87.85 202.77 60.53 184.75 33.21 202.77"/>
          <path d="M25.27,140.19l35.26,23.26,35.26-23.26-23.26,35.26,23.26,35.26-35.26-23.26-35.26,23.26,23.26-35.26-23.26-35.26ZM53.93,175.45l-12.78,19.37,19.37-12.78,19.37,12.78-12.78-19.37,12.78-19.37-19.37,12.78-19.37-12.78,12.78,19.37Z"/>
        </g>
        <g>
          <circle class="cls-2" cx="60.53" cy="175.45" r="24.17"/>
          <path d="M34.44,175.45c0-6.68,2.54-13.37,7.63-18.46,10.18-10.18,26.74-10.18,36.91,0,10.18,10.18,10.18,26.74,0,36.91-10.18,10.18-26.74,10.18-36.91,0-5.09-5.09-7.63-11.77-7.63-18.46ZM82.75,175.45c0-5.69-2.17-11.39-6.5-15.72-8.67-8.67-22.77-8.67-31.44,0-8.67,8.67-8.67,22.77,0,31.44,8.67,8.67,22.77,8.67,31.44,0,4.33-4.33,6.5-10.03,6.5-15.72Z"/>
        </g>
      </g>
    </g>
  </g>
</svg>