<?xml version="1.0" encoding="UTF-8"?>
<svg id="Layer_9" data-name="Layer 9" xmlns="http://www.w3.org/2000/svg" viewBox="0 0 1000 1000">
  <defs>
    <style>
      .cls-1 {
        fill: #0dc2ff;
      }

      .cls-2 {
        fill: #fff;
      }

      .cls-3 {
        fill: #ff73b7;
      }

      .cls-4 {
        fill: #d9faff;
      }

      .cls-5 {
        fill: #ff45be;
      }

      .cls-6 {
        fill: #ff6bc3;
      }

      .cls-7 {
        fill: #00b1ff;
        stroke: #ff6bc3;
        stroke-miterlimit: 10;
        stroke-width: 18px;
      }

      .cls-8 {
        fill: #ffd86b;
      }

      .cls-9 {
        fill: #30d7ff;
      }
    </style>
  </defs>
  <g>
    <g>
      <g>
        <g>
          <g>
            <path class="cls-3" d="M895.07,843.79c9.44-9.22,31.96-16.27,41.4-7.06,9.44,9.22,2.21,31.22-7.22,40.43-9.44,9.22-24.74,9.22-34.18,0-9.44-9.22-9.44-24.16,0-33.38Z"/>
            <path class="cls-4" d="M885.74,860.48c0-6.89,2.75-13.37,7.74-18.25,5.08-4.96,13.43-9.18,21.8-11.03,9.85-2.17,17.94-.76,22.8,3.98,4.85,4.74,6.3,12.64,4.07,22.26-1.89,8.17-6.22,16.33-11.3,21.29-10.3,10.06-27.07,10.06-37.37,0-4.99-4.87-7.74-11.36-7.74-18.25ZM938.69,849.16c0-4.36-1.13-8.25-3.81-10.87-8.4-8.21-29.45-1.5-38.21,7.06-8.54,8.34-8.54,21.92,0,30.26,8.54,8.34,22.44,8.34,30.98,0,5.96-5.82,11.04-17.18,11.04-26.44Z"/>
          </g>
          <g>
            <path class="cls-3" d="M953.28,786.93c-9.44,9.22-16.66,31.22-7.22,40.43,9.44,9.22,31.96,2.16,41.4-7.06,9.44-9.22,9.44-24.16,0-33.38-9.44-9.22-24.74-9.22-34.18,0Z"/>
            <path class="cls-4" d="M939.37,814.99c0-2.58.34-5.37,1.02-8.32,1.89-8.17,6.22-16.33,11.3-21.29,4.99-4.87,11.63-7.56,18.68-7.56s13.69,2.68,18.69,7.56c4.99,4.87,7.74,11.36,7.74,18.25s-2.75,13.37-7.74,18.25c-5.08,4.96-13.43,9.18-21.8,11.03-9.85,2.17-17.94.76-22.8-3.98-3.36-3.29-5.09-8.1-5.09-13.94ZM992.27,803.62c0-5.48-2.14-10.96-6.41-15.13-8.54-8.34-22.44-8.34-30.98,0-8.76,8.56-15.63,29.11-7.22,37.32,8.4,8.21,29.45,1.5,38.21-7.06,4.27-4.17,6.41-9.65,6.41-15.13Z"/>
          </g>
          <g>
            <path class="cls-3" d="M929.25,786.93c9.44,9.22,16.66,31.22,7.22,40.43-9.44,9.22-31.96,2.16-41.4-7.06-9.44-9.22-9.44-24.16,0-33.38,9.44-9.22,24.74-9.22,34.18,0Z"/>
            <path class="cls-4" d="M885.74,803.62c0-6.89,2.75-13.37,7.74-18.25,4.99-4.87,11.63-7.56,18.69-7.56s13.69,2.68,18.68,7.56c5.08,4.96,9.4,13.12,11.3,21.29,2.23,9.62.78,17.52-4.07,22.26-4.85,4.74-12.95,6.15-22.8,3.98-8.37-1.85-16.72-6.08-21.8-11.03-4.99-4.87-7.74-11.36-7.74-18.25ZM938.69,814.94c0-9.26-5.08-20.62-11.04-26.44-8.54-8.34-22.44-8.34-30.98,0-8.54,8.34-8.54,21.92,0,30.26,8.76,8.56,29.81,15.26,38.21,7.06,2.69-2.63,3.81-6.52,3.81-10.87Z"/>
          </g>
          <g>
            <path class="cls-3" d="M987.46,843.79c-9.44-9.22-31.96-16.27-41.4-7.06-9.44,9.22-2.21,31.22,7.22,40.43,9.44,9.22,24.74,9.22,34.18,0,9.44-9.22,9.44-24.16,0-33.38Z"/>
            <path class="cls-4" d="M939.37,849.12c0-5.85,1.73-10.66,5.09-13.94,4.85-4.74,12.95-6.15,22.8-3.98,8.37,1.85,16.72,6.08,21.8,11.03,4.99,4.87,7.74,11.36,7.74,18.25s-2.75,13.37-7.74,18.25c-10.3,10.06-27.07,10.06-37.37,0-5.08-4.96-9.4-13.12-11.3-21.29-.68-2.95-1.02-5.74-1.02-8.32ZM992.27,860.48c0-5.48-2.14-10.96-6.41-15.13-8.76-8.56-29.81-15.26-38.21-7.06-8.4,8.21-1.54,28.76,7.22,37.32,8.54,8.34,22.44,8.34,30.98,0,4.27-4.17,6.41-9.65,6.41-15.13Z"/>
          </g>
        </g>
        <g>
          <polygon class="cls-5" points="913.95 858.73 931.97 832.05 913.95 805.37 941.27 822.97 968.58 805.37 950.57 832.05 968.58 858.73 941.27 841.13 913.95 858.73"/>
          <path class="cls-4" d="M906.01,797.61l35.26,22.71,35.26-22.71-23.26,34.44,23.26,34.44-35.26-22.71-35.26,22.71,23.26-34.44-23.26-34.44ZM934.67,832.05l-12.78,18.92,19.37-12.48,19.37,12.48-12.78-18.92,12.78-18.92-19.37,12.48-19.37-12.48,12.78,18.92Z"/>
        </g>
        <g>
          <path class="cls-9" d="M924.18,815.36c9.44-9.22,24.74-9.22,34.18,0s9.44,24.16,0,33.38c-9.44,9.22-24.74,9.22-34.18,0-9.44-9.22-9.44-24.16,0-33.38Z"/>
          <path class="cls-4" d="M915.18,832.05c0-6.53,2.54-13.06,7.63-18.03,10.18-9.94,26.74-9.94,36.91,0,10.18,9.94,10.18,26.11,0,36.05-10.18,9.94-26.74,9.94-36.91,0-5.09-4.97-7.63-11.5-7.63-18.03ZM963.49,832.05c0-5.56-2.17-11.12-6.5-15.35-8.67-8.47-22.77-8.47-31.44,0-8.67,8.47-8.67,22.24,0,30.71,8.67,8.47,22.77,8.47,31.44,0,4.33-4.23,6.5-9.79,6.5-15.35Z"/>
        </g>
      </g>
      <g>
        <g>
          <g>
            <path class="cls-3" d="M785.21,843.79c9.44-9.22,31.96-16.27,41.4-7.06s2.21,31.22-7.22,40.43c-9.44,9.22-24.74,9.22-34.18,0-9.44-9.22-9.44-24.16,0-33.38Z"/>
            <path class="cls-4" d="M775.87,860.48c0-6.89,2.75-13.37,7.74-18.25,5.08-4.96,13.43-9.18,21.8-11.03,9.85-2.17,17.94-.76,22.8,3.98,4.85,4.74,6.3,12.64,4.07,22.26-1.89,8.17-6.22,16.33-11.3,21.29-10.3,10.06-27.07,10.06-37.37,0-4.99-4.87-7.74-11.36-7.74-18.25ZM828.82,849.16c0-4.36-1.13-8.25-3.81-10.87-8.4-8.21-29.45-1.5-38.21,7.06-8.54,8.34-8.54,21.92,0,30.26,8.54,8.34,22.44,8.34,30.98,0,5.96-5.82,11.04-17.18,11.04-26.44Z"/>
          </g>
          <g>
            <path class="cls-3" d="M843.42,786.93c-9.44,9.22-16.66,31.22-7.22,40.43,9.44,9.22,31.96,2.16,41.4-7.06,9.44-9.22,9.44-24.16,0-33.38s-24.74-9.22-34.18,0Z"/>
            <path class="cls-4" d="M829.51,814.99c0-2.58.34-5.37,1.02-8.32,1.89-8.17,6.22-16.33,11.3-21.29,4.99-4.87,11.63-7.56,18.68-7.56s13.69,2.68,18.69,7.56c4.99,4.87,7.74,11.36,7.74,18.25s-2.75,13.37-7.74,18.25c-5.08,4.96-13.43,9.18-21.8,11.03-9.85,2.17-17.94.76-22.8-3.98-3.36-3.29-5.09-8.1-5.09-13.94ZM882.41,803.62c0-5.48-2.14-10.96-6.41-15.13-8.54-8.34-22.44-8.34-30.98,0-8.76,8.56-15.63,29.11-7.22,37.32,8.4,8.21,29.45,1.5,38.21-7.06,4.27-4.17,6.41-9.65,6.41-15.13Z"/>
          </g>
          <g>
            <path class="cls-3" d="M819.38,786.93c9.44,9.22,16.66,31.22,7.22,40.43-9.44,9.22-31.96,2.16-41.4-7.06-9.44-9.22-9.44-24.16,0-33.38,9.44-9.22,24.74-9.22,34.18,0Z"/>
            <path class="cls-4" d="M775.87,803.62c0-6.89,2.75-13.37,7.74-18.25,4.99-4.87,11.63-7.56,18.69-7.56s13.69,2.68,18.68,7.56c5.08,4.96,9.4,13.12,11.3,21.29,2.23,9.62.78,17.52-4.07,22.26-4.85,4.74-12.95,6.15-22.8,3.98-8.37-1.85-16.72-6.08-21.8-11.03-4.99-4.87-7.74-11.36-7.74-18.25ZM828.82,814.94c0-9.26-5.08-20.62-11.04-26.44-8.54-8.34-22.44-8.34-30.98,0-8.54,8.34-8.54,21.92,0,30.26,8.76,8.56,29.81,15.26,38.21,7.06,2.69-2.63,3.81-6.52,3.81-10.87Z"/>
          </g>
          <g>
            <path class="cls-3" d="M877.6,843.79c-9.44-9.22-31.96-16.27-41.4-7.06-9.44,9.22-2.21,31.22,7.22,40.43,9.44,9.22,24.74,9.22,34.18,0,9.44-9.22,9.44-24.16,0-33.38Z"/>
            <path class="cls-4" d="M829.51,849.12c0-5.85,1.73-10.66,5.09-13.94,4.85-4.74,12.95-6.15,22.8-3.98,8.37,1.85,16.72,6.08,21.8,11.03,4.99,4.87,7.74,11.36,7.74,18.25s-2.75,13.37-7.74,18.25c-10.3,10.06-27.07,10.06-37.37,0-5.08-4.96-9.4-13.12-11.3-21.29-.68-2.95-1.02-5.74-1.02-8.32ZM882.41,860.48c0-5.48-2.14-10.96-6.41-15.13-8.76-8.56-29.81-15.26-38.21-7.06-8.4,8.21-1.54,28.76,7.22,37.32,8.54,8.34,22.44,8.34,30.98,0,4.27-4.17,6.41-9.65,6.41-15.13Z"/>
          </g>
        </g>
        <g>
          <polygon class="cls-5" points="804.08 858.73 822.1 832.05 804.08 805.37 831.4 822.97 858.72 805.37 840.7 832.05 858.72 858.73 831.4 841.13 804.08 858.73"/>
          <path class="cls-4" d="M796.14,797.61l35.26,22.71,35.26-22.71-23.26,34.44,23.26,34.44-35.26-22.71-35.26,22.71,23.26-34.44-23.26-34.44ZM824.8,832.05l-12.78,18.92,19.37-12.48,19.37,12.48-12.78-18.92,12.78-18.92-19.37,12.48-19.37-12.48,12.78,18.92Z"/>
        </g>
        <g>
          <path class="cls-9" d="M814.31,815.36c9.44-9.22,24.74-9.22,34.18,0,9.44,9.22,9.44,24.16,0,33.38-9.44,9.22-24.74,9.22-34.18,0-9.44-9.22-9.44-24.16,0-33.38Z"/>
          <path class="cls-4" d="M805.31,832.05c0-6.53,2.54-13.06,7.63-18.03,10.18-9.94,26.74-9.94,36.91,0,10.18,9.94,10.18,26.11,0,36.05-10.18,9.94-26.74,9.94-36.91,0-5.09-4.97-7.63-11.5-7.63-18.03ZM853.62,832.05c0-5.56-2.17-11.12-6.5-15.35-8.67-8.47-22.77-8.47-31.44,0-8.67,8.47-8.67,22.24,0,30.71,8.67,8.47,22.77,8.47,31.44,0,4.33-4.23,6.5-9.79,6.5-15.35Z"/>
        </g>
      </g>
      <g>
        <g>
          <g>
            <path class="cls-3" d="M675.34,843.79c9.44-9.22,31.96-16.27,41.4-7.06,9.44,9.22,2.21,31.22-7.22,40.43-9.44,9.22-24.74,9.22-34.18,0-9.44-9.22-9.44-24.16,0-33.38Z"/>
            <path class="cls-4" d="M666,860.48c0-6.89,2.75-13.37,7.74-18.25,5.08-4.96,13.43-9.18,21.8-11.03,9.85-2.17,17.94-.76,22.8,3.98,4.85,4.74,6.3,12.64,4.07,22.26-1.89,8.17-6.22,16.33-11.3,21.29-10.3,10.06-27.07,10.06-37.37,0-4.99-4.87-7.74-11.36-7.74-18.25ZM718.96,849.16c0-4.36-1.13-8.25-3.81-10.87-8.4-8.21-29.45-1.5-38.21,7.06-8.54,8.34-8.54,21.92,0,30.26,8.54,8.34,22.44,8.34,30.98,0,5.96-5.82,11.04-17.18,11.04-26.44Z"/>
          </g>
          <g>
            <path class="cls-3" d="M733.55,786.93c-9.44,9.22-16.66,31.22-7.22,40.43,9.44,9.22,31.96,2.16,41.4-7.06,9.44-9.22,9.44-24.16,0-33.38s-24.74-9.22-34.18,0Z"/>
            <path class="cls-4" d="M719.64,814.99c0-2.58.34-5.37,1.02-8.32,1.89-8.17,6.22-16.33,11.3-21.29,4.99-4.87,11.63-7.56,18.68-7.56s13.69,2.68,18.69,7.56c4.99,4.87,7.74,11.36,7.74,18.25s-2.75,13.37-7.74,18.25c-5.08,4.96-13.43,9.18-21.8,11.03-9.85,2.17-17.94.76-22.8-3.98-3.36-3.29-5.09-8.1-5.09-13.94ZM772.54,803.62c0-5.48-2.14-10.96-6.41-15.13-8.54-8.34-22.44-8.34-30.98,0-8.76,8.56-15.63,29.11-7.22,37.32,8.4,8.21,29.45,1.5,38.21-7.06,4.27-4.17,6.41-9.65,6.41-15.13Z"/>
          </g>
          <g>
            <path class="cls-3" d="M709.52,786.93c9.44,9.22,16.66,31.22,7.22,40.43-9.44,9.22-31.96,2.16-41.4-7.06-9.44-9.22-9.44-24.16,0-33.38,9.44-9.22,24.74-9.22,34.18,0Z"/>
            <path class="cls-4" d="M666,803.62c0-6.89,2.75-13.37,7.74-18.25,4.99-4.87,11.63-7.56,18.69-7.56s13.69,2.68,18.68,7.56c5.08,4.96,9.4,13.12,11.3,21.29,2.23,9.62.78,17.52-4.07,22.26-4.85,4.74-12.95,6.15-22.8,3.98-8.37-1.85-16.72-6.08-21.8-11.03-4.99-4.87-7.74-11.36-7.74-18.25ZM718.96,814.94c0-9.26-5.08-20.62-11.04-26.44-8.54-8.34-22.44-8.34-30.98,0-8.54,8.34-8.54,21.92,0,30.26,8.76,8.56,29.81,15.26,38.21,7.06,2.69-2.63,3.81-6.52,3.81-10.87Z"/>
          </g>
          <g>
            <path class="cls-3" d="M767.73,843.79c-9.44-9.22-31.96-16.27-41.4-7.06s-2.21,31.22,7.22,40.43c9.44,9.22,24.74,9.22,34.18,0,9.44-9.22,9.44-24.16,0-33.38Z"/>
            <path class="cls-4" d="M719.64,849.12c0-5.85,1.73-10.66,5.09-13.94,4.85-4.74,12.95-6.15,22.8-3.98,8.37,1.85,16.72,6.08,21.8,11.03,4.99,4.87,7.74,11.36,7.74,18.25s-2.75,13.37-7.74,18.25c-10.3,10.06-27.07,10.06-37.37,0-5.08-4.96-9.4-13.12-11.3-21.29-.68-2.95-1.02-5.74-1.02-8.32ZM772.54,860.48c0-5.48-2.14-10.96-6.41-15.13-8.76-8.56-29.81-15.26-38.21-7.06-8.4,8.21-1.54,28.76,7.22,37.32,8.54,8.34,22.44,8.34,30.98,0,4.27-4.17,6.41-9.65,6.41-15.13Z"/>
          </g>
        </g>
        <g>
          <polygon class="cls-5" points="694.22 858.73 712.23 832.05 694.22 805.37 721.53 822.97 748.85 805.37 730.83 832.05 748.85 858.73 721.53 841.13 694.22 858.73"/>
          <path class="cls-4" d="M686.27,797.61l35.26,22.71,35.26-22.71-23.26,34.44,23.26,34.44-35.26-22.71-35.26,22.71,23.26-34.44-23.26-34.44ZM714.94,832.05l-12.78,18.92,19.37-12.48,19.37,12.48-12.78-18.92,12.78-18.92-19.37,12.48-19.37-12.48,12.78,18.92Z"/>
        </g>
        <g>
          <path class="cls-9" d="M704.44,815.36c9.44-9.22,24.74-9.22,34.18,0,9.44,9.22,9.44,24.16,0,33.38-9.44,9.22-24.74,9.22-34.18,0-9.44-9.22-9.44-24.16,0-33.38Z"/>
          <path class="cls-4" d="M695.44,832.05c0-6.53,2.54-13.06,7.63-18.03,10.18-9.94,26.74-9.94,36.91,0,10.18,9.94,10.18,26.11,0,36.05-10.18,9.94-26.74,9.94-36.91,0-5.09-4.97-7.63-11.5-7.63-18.03ZM743.75,832.05c0-5.56-2.17-11.12-6.5-15.35-8.67-8.47-22.77-8.47-31.44,0-8.67,8.47-8.67,22.24,0,30.71,8.67,8.47,22.77,8.47,31.44,0,4.33-4.23,6.5-9.79,6.5-15.35Z"/>
        </g>
      </g>
      <g>
        <g>
          <g>
            <path class="cls-3" d="M565.47,843.79c9.44-9.22,31.96-16.27,41.4-7.06,9.44,9.22,2.21,31.22-7.22,40.43-9.44,9.22-24.74,9.22-34.18,0-9.44-9.22-9.44-24.16,0-33.38Z"/>
            <path class="cls-4" d="M556.13,860.48c0-6.89,2.75-13.37,7.74-18.25,5.08-4.96,13.43-9.18,21.8-11.03,9.85-2.17,17.94-.76,22.8,3.98,4.85,4.74,6.3,12.64,4.07,22.26-1.89,8.17-6.22,16.33-11.3,21.29-10.3,10.06-27.07,10.06-37.37,0-4.99-4.87-7.74-11.36-7.74-18.25ZM609.09,849.16c0-4.36-1.13-8.25-3.81-10.87-8.4-8.21-29.45-1.5-38.21,7.06-8.54,8.34-8.54,21.92,0,30.26,8.54,8.34,22.44,8.34,30.98,0,5.96-5.82,11.04-17.18,11.04-26.44Z"/>
          </g>
          <g>
            <path class="cls-3" d="M623.68,786.93c-9.44,9.22-16.66,31.22-7.22,40.43,9.44,9.22,31.96,2.16,41.4-7.06,9.44-9.22,9.44-24.16,0-33.38-9.44-9.22-24.74-9.22-34.18,0Z"/>
            <path class="cls-4" d="M609.77,814.99c0-2.58.34-5.37,1.02-8.32,1.89-8.17,6.22-16.33,11.3-21.29,4.99-4.87,11.63-7.56,18.68-7.56s13.69,2.68,18.69,7.56c4.99,4.87,7.74,11.36,7.74,18.25s-2.75,13.37-7.74,18.25c-5.08,4.96-13.43,9.18-21.8,11.03-9.85,2.17-17.94.76-22.8-3.98-3.36-3.29-5.09-8.1-5.09-13.94ZM662.67,803.62c0-5.48-2.14-10.96-6.41-15.13-8.54-8.34-22.44-8.34-30.98,0-8.76,8.56-15.63,29.11-7.22,37.32,8.4,8.21,29.45,1.5,38.21-7.06,4.27-4.17,6.41-9.65,6.41-15.13Z"/>
          </g>
          <g>
            <path class="cls-3" d="M599.65,786.93c9.44,9.22,16.66,31.22,7.22,40.43-9.44,9.22-31.96,2.16-41.4-7.06-9.44-9.22-9.44-24.16,0-33.38,9.44-9.22,24.74-9.22,34.18,0Z"/>
            <path class="cls-4" d="M556.13,803.62c0-6.89,2.75-13.37,7.74-18.25,4.99-4.87,11.63-7.56,18.69-7.56s13.69,2.68,18.68,7.56c5.08,4.96,9.4,13.12,11.3,21.29,2.23,9.62.78,17.52-4.07,22.26-4.85,4.74-12.95,6.15-22.8,3.98-8.37-1.85-16.72-6.08-21.8-11.03-4.99-4.87-7.74-11.36-7.74-18.25ZM609.09,814.94c0-9.26-5.08-20.62-11.04-26.44-8.54-8.34-22.44-8.34-30.98,0-8.54,8.34-8.54,21.92,0,30.26,8.76,8.56,29.81,15.26,38.21,7.06,2.69-2.63,3.81-6.52,3.81-10.87Z"/>
          </g>
          <g>
            <path class="cls-3" d="M657.86,843.79c-9.44-9.22-31.96-16.27-41.4-7.06-9.44,9.22-2.21,31.22,7.22,40.43,9.44,9.22,24.74,9.22,34.18,0,9.44-9.22,9.44-24.16,0-33.38Z"/>
            <path class="cls-4" d="M609.77,849.12c0-5.85,1.73-10.66,5.09-13.94,4.85-4.74,12.95-6.15,22.8-3.98,8.37,1.85,16.72,6.08,21.8,11.03,4.99,4.87,7.74,11.36,7.74,18.25s-2.75,13.37-7.74,18.25c-10.3,10.06-27.07,10.06-37.37,0-5.08-4.96-9.4-13.12-11.3-21.29-.68-2.95-1.02-5.74-1.02-8.32ZM662.67,860.48c0-5.48-2.14-10.96-6.41-15.13-8.76-8.56-29.81-15.26-38.21-7.06-8.4,8.21-1.54,28.76,7.22,37.32,8.54,8.34,22.44,8.34,30.98,0,4.27-4.17,6.41-9.65,6.41-15.13Z"/>
          </g>
        </g>
        <g>
          <polygon class="cls-5" points="584.35 858.73 602.36 832.05 584.35 805.37 611.67 822.97 638.98 805.37 620.97 832.05 638.98 858.73 611.67 841.13 584.35 858.73"/>
          <path class="cls-4" d="M576.4,797.61l35.26,22.71,35.26-22.71-23.26,34.44,23.26,34.44-35.26-22.71-35.26,22.71,23.26-34.44-23.26-34.44ZM605.07,832.05l-12.78,18.92,19.37-12.48,19.37,12.48-12.78-18.92,12.78-18.92-19.37,12.48-19.37-12.48,12.78,18.92Z"/>
        </g>
        <g>
          <path class="cls-9" d="M594.58,815.36c9.44-9.22,24.74-9.22,34.18,0,9.44,9.22,9.44,24.16,0,33.38-9.44,9.22-24.74,9.22-34.18,0-9.44-9.22-9.44-24.16,0-33.38Z"/>
          <path class="cls-4" d="M585.58,832.05c0-6.53,2.54-13.06,7.63-18.03,10.18-9.94,26.74-9.94,36.91,0,10.18,9.94,10.18,26.11,0,36.05-10.18,9.94-26.74,9.94-36.91,0-5.09-4.97-7.63-11.5-7.63-18.03ZM633.89,832.05c0-5.56-2.17-11.12-6.5-15.35-8.67-8.47-22.77-8.47-31.44,0-8.67,8.47-8.67,22.24,0,30.71,8.67,8.47,22.77,8.47,31.44,0,4.33-4.23,6.5-9.79,6.5-15.35Z"/>
        </g>
      </g>
      <g>
        <g>
          <g>
            <path class="cls-3" d="M455.6,843.79c9.44-9.22,31.96-16.27,41.4-7.06s2.21,31.22-7.22,40.43c-9.44,9.22-24.74,9.22-34.18,0-9.44-9.22-9.44-24.16,0-33.38Z"/>
            <path class="cls-4" d="M446.27,860.48c0-6.89,2.75-13.37,7.74-18.25,5.08-4.96,13.43-9.18,21.8-11.03,9.85-2.17,17.94-.76,22.8,3.98,4.85,4.74,6.3,12.64,4.07,22.26-1.89,8.17-6.22,16.33-11.3,21.29-10.3,10.06-27.07,10.06-37.37,0-4.99-4.87-7.74-11.36-7.74-18.25ZM499.22,849.16c0-4.36-1.13-8.25-3.81-10.87-8.4-8.21-29.45-1.5-38.21,7.06-8.54,8.34-8.54,21.92,0,30.26,8.54,8.34,22.44,8.34,30.98,0,5.96-5.82,11.04-17.18,11.04-26.44Z"/>
          </g>
          <g>
            <path class="cls-3" d="M513.82,786.93c-9.44,9.22-16.66,31.22-7.22,40.43,9.44,9.22,31.96,2.16,41.4-7.06,9.44-9.22,9.44-24.16,0-33.38-9.44-9.22-24.74-9.22-34.18,0Z"/>
            <path class="cls-4" d="M499.9,814.99c0-2.58.34-5.37,1.02-8.32,1.89-8.17,6.22-16.33,11.3-21.29,4.99-4.87,11.63-7.56,18.68-7.56s13.69,2.68,18.69,7.56c4.99,4.87,7.74,11.36,7.74,18.25s-2.75,13.37-7.74,18.25c-5.08,4.96-13.43,9.18-21.8,11.03-9.85,2.17-17.94.76-22.8-3.98-3.36-3.29-5.09-8.1-5.09-13.94ZM552.8,803.62c0-5.48-2.14-10.96-6.41-15.13-8.54-8.34-22.44-8.34-30.98,0-8.76,8.56-15.63,29.11-7.22,37.32,8.4,8.21,29.45,1.5,38.21-7.06,4.27-4.17,6.41-9.65,6.41-15.13Z"/>
          </g>
          <g>
            <path class="cls-3" d="M489.78,786.93c9.44,9.22,16.66,31.22,7.22,40.43-9.44,9.22-31.96,2.16-41.4-7.06-9.44-9.22-9.44-24.16,0-33.38s24.74-9.22,34.18,0Z"/>
            <path class="cls-4" d="M446.27,803.62c0-6.89,2.75-13.37,7.74-18.25,4.99-4.87,11.63-7.56,18.69-7.56s13.69,2.68,18.68,7.56c5.08,4.96,9.4,13.12,11.3,21.29,2.23,9.62.78,17.52-4.07,22.26-4.85,4.74-12.95,6.15-22.8,3.98-8.37-1.85-16.72-6.08-21.8-11.03-4.99-4.87-7.74-11.36-7.74-18.25ZM499.22,814.94c0-9.26-5.08-20.62-11.04-26.44-8.54-8.34-22.44-8.34-30.98,0-8.54,8.34-8.54,21.92,0,30.26,8.76,8.56,29.81,15.26,38.21,7.06,2.69-2.63,3.81-6.52,3.81-10.87Z"/>
          </g>
          <g>
            <path class="cls-3" d="M547.99,843.79c-9.44-9.22-31.96-16.27-41.4-7.06-9.44,9.22-2.21,31.22,7.22,40.43,9.44,9.22,24.74,9.22,34.18,0,9.44-9.22,9.44-24.16,0-33.38Z"/>
            <path class="cls-4" d="M499.9,849.12c0-5.85,1.73-10.66,5.09-13.94,4.85-4.74,12.95-6.15,22.8-3.98,8.37,1.85,16.72,6.08,21.8,11.03,4.99,4.87,7.74,11.36,7.74,18.25s-2.75,13.37-7.74,18.25c-10.3,10.06-27.07,10.06-37.37,0-5.08-4.96-9.4-13.12-11.3-21.29-.68-2.95-1.02-5.74-1.02-8.32ZM552.8,860.48c0-5.48-2.14-10.96-6.41-15.13-8.76-8.56-29.81-15.26-38.21-7.06-8.4,8.21-1.54,28.76,7.22,37.32,8.54,8.34,22.44,8.34,30.98,0,4.27-4.17,6.41-9.65,6.41-15.13Z"/>
          </g>
        </g>
        <g>
          <polygon class="cls-5" points="474.48 858.73 492.5 832.05 474.48 805.37 501.8 822.97 529.12 805.37 511.1 832.05 529.12 858.73 501.8 841.13 474.48 858.73"/>
          <path class="cls-4" d="M466.54,797.61l35.26,22.71,35.26-22.71-23.26,34.44,23.26,34.44-35.26-22.71-35.26,22.71,23.26-34.44-23.26-34.44ZM495.2,832.05l-12.78,18.92,19.37-12.48,19.37,12.48-12.78-18.92,12.78-18.92-19.37,12.48-19.37-12.48,12.78,18.92Z"/>
        </g>
        <g>
          <path class="cls-9" d="M484.71,815.36c9.44-9.22,24.74-9.22,34.18,0,9.44,9.22,9.44,24.16,0,33.38-9.44,9.22-24.74,9.22-34.18,0-9.44-9.22-9.44-24.16,0-33.38Z"/>
          <path class="cls-4" d="M475.71,832.05c0-6.53,2.54-13.06,7.63-18.03,10.18-9.94,26.74-9.94,36.91,0,10.18,9.94,10.18,26.11,0,36.05-10.18,9.94-26.74,9.94-36.91,0-5.09-4.97-7.63-11.5-7.63-18.03ZM524.02,832.05c0-5.56-2.17-11.12-6.5-15.35-8.67-8.47-22.77-8.47-31.44,0-8.67,8.47-8.67,22.24,0,30.71,8.67,8.47,22.77,8.47,31.44,0,4.33-4.23,6.5-9.79,6.5-15.35Z"/>
        </g>
      </g>
      <g>
        <g>
          <g>
            <path class="cls-3" d="M345.74,843.79c9.44-9.22,31.96-16.27,41.4-7.06s2.21,31.22-7.22,40.43c-9.44,9.22-24.74,9.22-34.18,0-9.44-9.22-9.44-24.16,0-33.38Z"/>
            <path class="cls-4" d="M336.4,860.48c0-6.89,2.75-13.37,7.74-18.25,5.08-4.96,13.43-9.18,21.8-11.03,9.85-2.17,17.94-.76,22.8,3.98,4.85,4.74,6.3,12.64,4.07,22.26-1.89,8.17-6.22,16.33-11.3,21.29-10.3,10.06-27.07,10.06-37.37,0-4.99-4.87-7.74-11.36-7.74-18.25ZM389.36,849.16c0-4.36-1.13-8.25-3.81-10.87-8.4-8.21-29.45-1.5-38.21,7.06-8.54,8.34-8.54,21.92,0,30.26,8.54,8.34,22.44,8.34,30.98,0,5.96-5.82,11.04-17.18,11.04-26.44Z"/>
          </g>
          <g>
            <path class="cls-3" d="M403.95,786.93c-9.44,9.22-16.66,31.22-7.22,40.43,9.44,9.22,31.96,2.16,41.4-7.06,9.44-9.22,9.44-24.16,0-33.38s-24.74-9.22-34.18,0Z"/>
            <path class="cls-4" d="M390.04,814.99c0-2.58.34-5.37,1.02-8.32,1.89-8.17,6.22-16.33,11.3-21.29,4.99-4.87,11.63-7.56,18.68-7.56s13.69,2.68,18.69,7.56c4.99,4.87,7.74,11.36,7.74,18.25s-2.75,13.37-7.74,18.25c-5.08,4.96-13.43,9.18-21.8,11.03-9.85,2.17-17.94.76-22.8-3.98-3.36-3.29-5.09-8.1-5.09-13.94ZM442.94,803.62c0-5.48-2.14-10.96-6.41-15.13-8.54-8.34-22.44-8.34-30.98,0-8.76,8.56-15.63,29.11-7.22,37.32,8.4,8.21,29.45,1.5,38.21-7.06,4.27-4.17,6.41-9.65,6.41-15.13Z"/>
          </g>
          <g>
            <path class="cls-3" d="M379.91,786.93c9.44,9.22,16.66,31.22,7.22,40.43-9.44,9.22-31.96,2.16-41.4-7.06-9.44-9.22-9.44-24.16,0-33.38,9.44-9.22,24.74-9.22,34.18,0Z"/>
            <path class="cls-4" d="M336.4,803.62c0-6.89,2.75-13.37,7.74-18.25,4.99-4.87,11.63-7.56,18.69-7.56s13.69,2.68,18.68,7.56c5.08,4.96,9.4,13.12,11.3,21.29,2.23,9.62.78,17.52-4.07,22.26-4.85,4.74-12.95,6.15-22.8,3.98-8.37-1.85-16.72-6.08-21.8-11.03-4.99-4.87-7.74-11.36-7.74-18.25ZM389.36,814.94c0-9.26-5.08-20.62-11.04-26.44-8.54-8.34-22.44-8.34-30.98,0-8.54,8.34-8.54,21.92,0,30.26,8.76,8.56,29.81,15.26,38.21,7.06,2.69-2.63,3.81-6.52,3.81-10.87Z"/>
          </g>
          <g>
            <path class="cls-3" d="M438.13,843.79c-9.44-9.22-31.96-16.27-41.4-7.06-9.44,9.22-2.21,31.22,7.22,40.43,9.44,9.22,24.74,9.22,34.18,0,9.44-9.22,9.44-24.16,0-33.38Z"/>
            <path class="cls-4" d="M390.04,849.12c0-5.85,1.73-10.66,5.09-13.94,4.85-4.74,12.95-6.15,22.8-3.98,8.37,1.85,16.72,6.08,21.8,11.03,4.99,4.87,7.74,11.36,7.74,18.25s-2.75,13.37-7.74,18.25c-10.3,10.06-27.07,10.06-37.37,0-5.08-4.96-9.4-13.12-11.3-21.29-.68-2.95-1.02-5.74-1.02-8.32ZM442.94,860.48c0-5.48-2.14-10.96-6.41-15.13-8.76-8.56-29.81-15.26-38.21-7.06-8.4,8.21-1.54,28.76,7.22,37.32,8.54,8.34,22.44,8.34,30.98,0,4.27-4.17,6.41-9.65,6.41-15.13Z"/>
          </g>
        </g>
        <g>
          <polygon class="cls-5" points="364.61 858.73 382.63 832.05 364.61 805.37 391.93 822.97 419.25 805.37 401.23 832.05 419.25 858.73 391.93 841.13 364.61 858.73"/>
          <path class="cls-4" d="M356.67,797.61l35.26,22.71,35.26-22.71-23.26,34.44,23.26,34.44-35.26-22.71-35.26,22.71,23.26-34.44-23.26-34.44ZM385.33,832.05l-12.78,18.92,19.37-12.48,19.37,12.48-12.78-18.92,12.78-18.92-19.37,12.48-19.37-12.48,12.78,18.92Z"/>
        </g>
        <g>
          <path class="cls-9" d="M374.84,815.36c9.44-9.22,24.74-9.22,34.18,0,9.44,9.22,9.44,24.16,0,33.38-9.44,9.22-24.74,9.22-34.18,0-9.44-9.22-9.44-24.16,0-33.38Z"/>
          <path class="cls-4" d="M365.84,832.05c0-6.53,2.54-13.06,7.63-18.03,10.18-9.94,26.74-9.94,36.91,0,10.18,9.94,10.18,26.11,0,36.05-10.18,9.94-26.74,9.94-36.91,0-5.09-4.97-7.63-11.5-7.63-18.03ZM414.15,832.05c0-5.56-2.17-11.12-6.5-15.35-8.67-8.47-22.77-8.47-31.44,0-8.67,8.47-8.67,22.24,0,30.71,8.67,8.47,22.77,8.47,31.44,0,4.33-4.23,6.5-9.79,6.5-15.35Z"/>
        </g>
      </g>
      <g>
        <g>
          <g>
            <path class="cls-3" d="M235.87,843.79c9.44-9.22,31.96-16.27,41.4-7.06,9.44,9.22,2.21,31.22-7.22,40.43-9.44,9.22-24.74,9.22-34.18,0-9.44-9.22-9.44-24.16,0-33.38Z"/>
            <path class="cls-4" d="M226.53,860.48c0-6.89,2.75-13.37,7.74-18.25,5.08-4.96,13.43-9.18,21.8-11.03,9.85-2.17,17.94-.76,22.8,3.98,4.85,4.74,6.3,12.64,4.07,22.26-1.89,8.17-6.22,16.33-11.3,21.29-10.3,10.06-27.07,10.06-37.37,0-4.99-4.87-7.74-11.36-7.74-18.25ZM279.49,849.16c0-4.36-1.13-8.25-3.81-10.87-8.4-8.21-29.45-1.5-38.21,7.06-8.54,8.34-8.54,21.92,0,30.26,8.54,8.34,22.44,8.34,30.98,0,5.96-5.82,11.04-17.18,11.04-26.44Z"/>
          </g>
          <g>
            <path class="cls-3" d="M294.08,786.93c-9.44,9.22-16.66,31.22-7.22,40.43,9.44,9.22,31.96,2.16,41.4-7.06,9.44-9.22,9.44-24.16,0-33.38-9.44-9.22-24.74-9.22-34.18,0Z"/>
            <path class="cls-4" d="M280.17,814.99c0-2.58.34-5.37,1.02-8.32,1.89-8.17,6.22-16.33,11.3-21.29,4.99-4.87,11.63-7.56,18.68-7.56s13.69,2.68,18.69,7.56c4.99,4.87,7.74,11.36,7.74,18.25s-2.75,13.37-7.74,18.25c-5.08,4.96-13.43,9.18-21.8,11.03-9.85,2.17-17.94.76-22.8-3.98-3.36-3.29-5.09-8.1-5.09-13.94ZM333.07,803.62c0-5.48-2.14-10.96-6.41-15.13-8.54-8.34-22.44-8.34-30.98,0-8.76,8.56-15.63,29.11-7.22,37.32,8.4,8.21,29.45,1.5,38.21-7.06,4.27-4.17,6.41-9.65,6.41-15.13Z"/>
          </g>
          <g>
            <path class="cls-3" d="M270.05,786.93c9.44,9.22,16.66,31.22,7.22,40.43-9.44,9.22-31.96,2.16-41.4-7.06-9.44-9.22-9.44-24.16,0-33.38,9.44-9.22,24.74-9.22,34.18,0Z"/>
            <path class="cls-4" d="M226.53,803.62c0-6.89,2.75-13.37,7.74-18.25,4.99-4.87,11.63-7.56,18.69-7.56s13.69,2.68,18.68,7.56c5.08,4.96,9.4,13.12,11.3,21.29,2.23,9.62.78,17.52-4.07,22.26-4.85,4.74-12.95,6.15-22.8,3.98-8.37-1.85-16.72-6.08-21.8-11.03-4.99-4.87-7.74-11.36-7.74-18.25ZM279.49,814.94c0-9.26-5.08-20.62-11.04-26.44-8.54-8.34-22.44-8.34-30.98,0-8.54,8.34-8.54,21.92,0,30.26,8.76,8.56,29.81,15.26,38.21,7.06,2.69-2.63,3.81-6.52,3.81-10.87Z"/>
          </g>
          <g>
            <path class="cls-3" d="M328.26,843.79c-9.44-9.22-31.96-16.27-41.4-7.06-9.44,9.22-2.21,31.22,7.22,40.43,9.44,9.22,24.74,9.22,34.18,0,9.44-9.22,9.44-24.16,0-33.38Z"/>
            <path class="cls-4" d="M280.17,849.12c0-5.85,1.73-10.66,5.09-13.94,4.85-4.74,12.95-6.15,22.8-3.98,8.37,1.85,16.72,6.08,21.8,11.03,4.99,4.87,7.74,11.36,7.74,18.25s-2.75,13.37-7.74,18.25c-10.3,10.06-27.07,10.06-37.37,0-5.08-4.96-9.4-13.12-11.3-21.29-.68-2.95-1.02-5.74-1.02-8.32ZM333.07,860.48c0-5.48-2.14-10.96-6.41-15.13-8.76-8.56-29.81-15.26-38.21-7.06-8.4,8.21-1.54,28.76,7.22,37.32,8.54,8.34,22.44,8.34,30.98,0,4.27-4.17,6.41-9.65,6.41-15.13Z"/>
          </g>
        </g>
        <g>
          <polygon class="cls-5" points="254.75 858.73 272.76 832.05 254.75 805.37 282.06 822.97 309.38 805.37 291.37 832.05 309.38 858.73 282.06 841.13 254.75 858.73"/>
          <path class="cls-4" d="M246.8,797.61l35.26,22.71,35.26-22.71-23.26,34.44,23.26,34.44-35.26-22.71-35.26,22.71,23.26-34.44-23.26-34.44ZM275.47,832.05l-12.78,18.92,19.37-12.48,19.37,12.48-12.78-18.92,12.78-18.92-19.37,12.48-19.37-12.48,12.78,18.92Z"/>
        </g>
        <g>
          <path class="cls-9" d="M264.98,815.36c9.44-9.22,24.74-9.22,34.18,0s9.44,24.16,0,33.38c-9.44,9.22-24.74,9.22-34.18,0-9.44-9.22-9.44-24.16,0-33.38Z"/>
          <path class="cls-4" d="M255.97,832.05c0-6.53,2.54-13.06,7.63-18.03,4.93-4.82,11.48-7.47,18.46-7.47s13.53,2.65,18.46,7.47c10.18,9.94,10.18,26.11,0,36.05-4.93,4.82-11.48,7.47-18.46,7.47s-13.53-2.65-18.46-7.47c-5.09-4.97-7.63-11.5-7.63-18.03ZM304.29,832.05c0-5.56-2.17-11.12-6.5-15.35-4.2-4.1-9.78-6.36-15.72-6.36s-11.52,2.26-15.72,6.36c-8.67,8.47-8.67,22.24,0,30.71,4.2,4.1,9.78,6.36,15.72,6.36s11.52-2.26,15.72-6.36c4.33-4.23,6.5-9.79,6.5-15.35Z"/>
        </g>
      </g>
      <g>
        <g>
          <g>
            <path class="cls-3" d="M126,843.79c9.44-9.22,31.96-16.27,41.4-7.06,9.44,9.22,2.21,31.22-7.22,40.43-9.44,9.22-24.74,9.22-34.18,0-9.44-9.22-9.44-24.16,0-33.38Z"/>
            <path class="cls-4" d="M116.67,860.48c0-6.89,2.75-13.37,7.74-18.25,5.08-4.96,13.43-9.18,21.8-11.03,9.85-2.17,17.94-.76,22.8,3.98,4.85,4.74,6.3,12.64,4.07,22.26-1.89,8.17-6.22,16.33-11.3,21.29-10.3,10.06-27.07,10.06-37.37,0-4.99-4.87-7.74-11.36-7.74-18.25ZM169.62,849.16c0-4.36-1.13-8.25-3.81-10.87-8.4-8.21-29.45-1.5-38.21,7.06-8.54,8.34-8.54,21.92,0,30.26,8.54,8.34,22.44,8.34,30.98,0,5.96-5.82,11.04-17.18,11.04-26.44Z"/>
          </g>
          <g>
            <path class="cls-3" d="M184.21,786.93c-9.44,9.22-16.66,31.22-7.22,40.43,9.44,9.22,31.96,2.16,41.4-7.06,9.44-9.22,9.44-24.16,0-33.38s-24.74-9.22-34.18,0Z"/>
            <path class="cls-4" d="M170.3,814.99c0-2.58.34-5.37,1.02-8.32,1.89-8.17,6.22-16.33,11.3-21.29,4.99-4.87,11.63-7.56,18.68-7.56s13.69,2.68,18.69,7.56c4.99,4.87,7.74,11.36,7.74,18.25s-2.75,13.37-7.74,18.25c-5.08,4.96-13.43,9.18-21.8,11.03-9.85,2.17-17.94.76-22.8-3.98-3.36-3.29-5.09-8.1-5.09-13.94ZM223.2,803.62c0-5.48-2.14-10.96-6.41-15.13-8.54-8.34-22.44-8.34-30.98,0-8.76,8.56-15.63,29.11-7.22,37.32,8.4,8.21,29.45,1.5,38.21-7.06,4.27-4.17,6.41-9.65,6.41-15.13Z"/>
          </g>
          <g>
            <path class="cls-3" d="M160.18,786.93c9.44,9.22,16.66,31.22,7.22,40.43-9.44,9.22-31.96,2.16-41.4-7.06-9.44-9.22-9.44-24.16,0-33.38,9.44-9.22,24.74-9.22,34.18,0Z"/>
            <path class="cls-4" d="M116.67,803.62c0-6.89,2.75-13.37,7.74-18.25,4.99-4.87,11.63-7.56,18.69-7.56s13.69,2.68,18.68,7.56c5.08,4.96,9.4,13.12,11.3,21.29,2.23,9.62.78,17.52-4.07,22.26-4.85,4.74-12.95,6.15-22.8,3.98-8.37-1.85-16.72-6.08-21.8-11.03-4.99-4.87-7.74-11.36-7.74-18.25ZM169.62,814.94c0-9.26-5.08-20.62-11.04-26.44-8.54-8.34-22.44-8.34-30.98,0-8.54,8.34-8.54,21.92,0,30.26,8.76,8.56,29.81,15.26,38.21,7.06,2.69-2.63,3.81-6.52,3.81-10.87Z"/>
          </g>
          <g>
            <path class="cls-3" d="M218.39,843.79c-9.44-9.22-31.96-16.27-41.4-7.06-9.44,9.22-2.21,31.22,7.22,40.43,9.44,9.22,24.74,9.22,34.18,0,9.44-9.22,9.44-24.16,0-33.38Z"/>
            <path class="cls-4" d="M170.3,849.12c0-5.85,1.73-10.66,5.09-13.94,4.85-4.74,12.95-6.15,22.8-3.98,8.37,1.85,16.72,6.08,21.8,11.03,4.99,4.87,7.74,11.36,7.74,18.25s-2.75,13.37-7.74,18.25c-10.3,10.06-27.07,10.06-37.37,0-5.08-4.96-9.4-13.12-11.3-21.29-.68-2.95-1.02-5.74-1.02-8.32ZM223.2,860.48c0-5.48-2.14-10.96-6.41-15.13-8.76-8.56-29.81-15.26-38.21-7.06-8.4,8.21-1.54,28.76,7.22,37.32,8.54,8.34,22.44,8.34,30.98,0,4.27-4.17,6.41-9.65,6.41-15.13Z"/>
          </g>
        </g>
        <g>
          <polygon class="cls-5" points="144.88 858.73 162.9 832.05 144.88 805.37 172.2 822.97 199.51 805.37 181.5 832.05 199.51 858.73 172.2 841.13 144.88 858.73"/>
          <path class="cls-4" d="M136.94,797.61l35.26,22.71,35.26-22.71-23.26,34.44,23.26,34.44-35.26-22.71-35.26,22.71,23.26-34.44-23.26-34.44ZM165.6,832.05l-12.78,18.92,19.37-12.48,19.37,12.48-12.78-18.92,12.78-18.92-19.37,12.48-19.37-12.48,12.78,18.92Z"/>
        </g>
        <g>
          <path class="cls-9" d="M155.11,815.36c9.44-9.22,24.74-9.22,34.18,0,9.44,9.22,9.44,24.16,0,33.38-9.44,9.22-24.74,9.22-34.18,0-9.44-9.22-9.44-24.16,0-33.38Z"/>
          <path class="cls-4" d="M146.11,832.05c0-6.53,2.54-13.06,7.63-18.03,4.93-4.82,11.48-7.47,18.46-7.47s13.53,2.65,18.46,7.47c10.18,9.94,10.18,26.11,0,36.05-4.93,4.82-11.48,7.47-18.46,7.47s-13.53-2.65-18.46-7.47c-5.09-4.97-7.63-11.5-7.63-18.03ZM194.42,832.05c0-5.56-2.17-11.12-6.5-15.35-4.2-4.1-9.78-6.36-15.72-6.36s-11.52,2.26-15.72,6.36c-8.67,8.47-8.67,22.24,0,30.71,4.2,4.1,9.78,6.36,15.72,6.36s11.52-2.26,15.72-6.36c4.33-4.23,6.5-9.79,6.5-15.35Z"/>
        </g>
      </g>
      <g>
        <g>
          <g>
            <path class="cls-3" d="M16.14,843.79c9.44-9.22,31.96-16.27,41.4-7.06,9.44,9.22,2.21,31.22-7.22,40.43-9.44,9.22-24.74,9.22-34.18,0-9.44-9.22-9.44-24.16,0-33.38Z"/>
            <path class="cls-4" d="M6.8,860.48c0-6.89,2.75-13.37,7.74-18.25,5.08-4.96,13.43-9.18,21.8-11.03,9.85-2.17,17.94-.76,22.8,3.98,4.85,4.74,6.3,12.64,4.07,22.26-1.89,8.17-6.22,16.33-11.3,21.29-10.3,10.06-27.07,10.06-37.37,0-4.99-4.87-7.74-11.36-7.74-18.25ZM59.75,849.16c0-4.36-1.13-8.25-3.81-10.87-8.4-8.21-29.45-1.5-38.21,7.06-8.54,8.34-8.54,21.92,0,30.26,8.54,8.34,22.44,8.34,30.98,0,5.96-5.82,11.04-17.18,11.04-26.44Z"/>
          </g>
          <g>
            <path class="cls-3" d="M74.35,786.93c-9.44,9.22-16.66,31.22-7.22,40.43,9.44,9.22,31.96,2.16,41.4-7.06,9.44-9.22,9.44-24.16,0-33.38s-24.74-9.22-34.18,0Z"/>
            <path class="cls-4" d="M60.44,814.99c0-2.58.34-5.37,1.02-8.32,1.89-8.17,6.22-16.33,11.3-21.29,4.99-4.87,11.63-7.56,18.68-7.56s13.69,2.68,18.69,7.56c4.99,4.87,7.74,11.36,7.74,18.25s-2.75,13.37-7.74,18.25c-5.08,4.96-13.43,9.18-21.8,11.03-9.85,2.17-17.94.76-22.8-3.98-3.36-3.29-5.09-8.1-5.09-13.94ZM113.34,803.62c0-5.48-2.14-10.96-6.41-15.13-8.54-8.34-22.44-8.34-30.98,0-8.76,8.56-15.63,29.11-7.22,37.32,8.4,8.21,29.45,1.5,38.21-7.06,4.27-4.17,6.41-9.65,6.41-15.13Z"/>
          </g>
          <g>
            <path class="cls-3" d="M50.31,786.93c9.44,9.22,16.66,31.22,7.22,40.43-9.44,9.22-31.96,2.16-41.4-7.06-9.44-9.22-9.44-24.16,0-33.38,9.44-9.22,24.74-9.22,34.18,0Z"/>
            <path class="cls-4" d="M6.8,803.62c0-6.89,2.75-13.37,7.74-18.25,4.99-4.87,11.63-7.56,18.69-7.56s13.69,2.68,18.68,7.56c5.08,4.96,9.4,13.12,11.3,21.29,2.23,9.62.78,17.52-4.07,22.26-4.85,4.74-12.95,6.15-22.8,3.98-8.37-1.85-16.72-6.08-21.8-11.03-4.99-4.87-7.74-11.36-7.74-18.25ZM59.75,814.94c0-9.26-5.08-20.62-11.04-26.44-8.54-8.34-22.44-8.34-30.98,0-8.54,8.34-8.54,21.92,0,30.26,8.76,8.56,29.81,15.26,38.21,7.06,2.69-2.63,3.81-6.52,3.81-10.87Z"/>
          </g>
          <g>
            <path class="cls-3" d="M108.53,843.79c-9.44-9.22-31.96-16.27-41.4-7.06s-2.21,31.22,7.22,40.43c9.44,9.22,24.74,9.22,34.18,0,9.44-9.22,9.44-24.16,0-33.38Z"/>
            <path class="cls-4" d="M60.44,849.12c0-5.85,1.73-10.66,5.09-13.94,4.85-4.74,12.95-6.15,22.8-3.98,8.37,1.85,16.72,6.08,21.8,11.03,4.99,4.87,7.74,11.36,7.74,18.25s-2.75,13.37-7.74,18.25c-10.3,10.06-27.07,10.06-37.37,0-5.08-4.96-9.4-13.12-11.3-21.29-.68-2.95-1.02-5.74-1.02-8.32ZM113.34,860.48c0-5.48-2.14-10.96-6.41-15.13-8.76-8.56-29.81-15.26-38.21-7.06-8.4,8.21-1.54,28.76,7.22,37.32,8.54,8.34,22.44,8.34,30.98,0,4.27-4.17,6.41-9.65,6.41-15.13Z"/>
          </g>
        </g>
        <g>
          <polygon class="cls-5" points="35.01 858.73 53.03 832.05 35.01 805.37 62.33 822.97 89.65 805.37 71.63 832.05 89.65 858.73 62.33 841.13 35.01 858.73"/>
          <path class="cls-4" d="M27.07,797.61l35.26,22.71,35.26-22.71-23.26,34.44,23.26,34.44-35.26-22.71-35.26,22.71,23.26-34.44-23.26-34.44ZM55.73,832.05l-12.78,18.92,19.37-12.48,19.37,12.48-12.78-18.92,12.78-18.92-19.37,12.48-19.37-12.48,12.78,18.92Z"/>
        </g>
        <g>
          <path class="cls-9" d="M45.24,815.36c9.44-9.22,24.74-9.22,34.18,0s9.44,24.16,0,33.38c-9.44,9.22-24.74,9.22-34.18,0-9.44-9.22-9.44-24.16,0-33.38Z"/>
          <path class="cls-4" d="M36.24,832.05c0-6.53,2.54-13.06,7.63-18.03,10.18-9.94,26.74-9.94,36.91,0,10.18,9.94,10.18,26.11,0,36.05-10.18,9.94-26.74,9.94-36.91,0-5.09-4.97-7.63-11.5-7.63-18.03ZM84.55,832.05c0-5.56-2.17-11.12-6.5-15.35-8.67-8.47-22.77-8.47-31.44,0-8.67,8.47-8.67,22.24,0,30.71,8.67,8.47,22.77,8.47,31.44,0,4.33-4.23,6.5-9.79,6.5-15.35Z"/>
        </g>
      </g>
    </g>
    <g>
      <g>
        <g>
          <g>
            <path class="cls-3" d="M895.07,176.09c9.44-9.22,31.96-16.27,41.4-7.05,9.44,9.22,2.21,31.21-7.22,40.43-9.44,9.22-24.74,9.22-34.18,0-9.44-9.22-9.44-24.16,0-33.37Z"/>
            <path class="cls-4" d="M885.74,192.78c0-6.89,2.75-13.37,7.74-18.25,5.08-4.96,13.43-9.18,21.8-11.03,9.85-2.17,17.94-.76,22.8,3.98,4.85,4.74,6.3,12.64,4.07,22.26-1.89,8.17-6.22,16.33-11.3,21.29-4.99,4.87-11.63,7.56-18.68,7.56s-13.69-2.68-18.69-7.56c-4.99-4.87-7.74-11.35-7.74-18.25ZM938.63,181.5c0-4.67-1.28-8.48-3.75-10.9-8.4-8.2-29.45-1.5-38.21,7.05-8.54,8.34-8.54,21.91,0,30.26,8.54,8.34,22.44,8.34,30.98,0,4.44-4.33,8.4-11.85,10.08-19.14.6-2.58.89-5.03.89-7.27Z"/>
          </g>
          <g>
            <path class="cls-3" d="M953.28,119.25c-9.44,9.22-16.66,31.21-7.22,40.43s31.96,2.16,41.4-7.05c9.44-9.22,9.44-24.16,0-33.37-9.44-9.22-24.74-9.22-34.18,0Z"/>
            <path class="cls-4" d="M939.37,147.3c0-2.58.34-5.37,1.02-8.32,1.89-8.17,6.22-16.33,11.3-21.29,4.99-4.87,11.63-7.56,18.68-7.56s13.69,2.68,18.69,7.56,7.74,11.35,7.74,18.25-2.75,13.37-7.74,18.25c-5.08,4.96-13.43,9.18-21.8,11.03-9.85,2.17-17.94.76-22.8-3.98-3.36-3.29-5.09-8.09-5.09-13.94ZM992.27,135.94c0-5.48-2.14-10.96-6.41-15.13-8.54-8.34-22.44-8.34-30.98,0-8.76,8.56-15.63,29.11-7.22,37.31,8.4,8.2,29.45,1.5,38.21-7.05,4.27-4.17,6.41-9.65,6.41-15.13Z"/>
          </g>
          <g>
            <path class="cls-3" d="M929.25,119.25c9.44,9.22,16.66,31.21,7.22,40.43-9.44,9.22-31.96,2.16-41.4-7.05-9.44-9.22-9.44-24.16,0-33.37,9.44-9.22,24.74-9.22,34.18,0Z"/>
            <path class="cls-4" d="M885.74,135.94c0-6.89,2.75-13.37,7.74-18.25s11.63-7.56,18.69-7.56,13.69,2.68,18.68,7.56c5.08,4.96,9.4,13.11,11.3,21.29,2.23,9.62.78,17.52-4.07,22.26-4.85,4.74-12.95,6.15-22.8,3.98-8.37-1.85-16.72-6.07-21.8-11.03-4.99-4.87-7.74-11.35-7.74-18.25ZM938.69,147.25c0-9.26-5.08-20.62-11.04-26.44-8.54-8.34-22.44-8.34-30.98,0-8.54,8.34-8.54,21.91,0,30.26,8.76,8.56,29.81,15.26,38.21,7.05,2.69-2.63,3.81-6.52,3.81-10.87Z"/>
          </g>
          <g>
            <path class="cls-3" d="M987.46,176.09c-9.44-9.22-31.96-16.27-41.4-7.05-9.44,9.22-2.21,31.21,7.22,40.43,9.44,9.22,24.74,9.22,34.18,0,9.44-9.22,9.44-24.16,0-33.37Z"/>
            <path class="cls-4" d="M939.37,181.42c0-5.85,1.73-10.66,5.09-13.94,4.85-4.74,12.95-6.15,22.8-3.98,8.37,1.85,16.72,6.07,21.8,11.03,4.99,4.87,7.74,11.35,7.74,18.25s-2.75,13.37-7.74,18.25c-4.99,4.87-11.63,7.56-18.69,7.56s-13.69-2.68-18.68-7.56c-5.08-4.96-9.4-13.11-11.3-21.29-.68-2.95-1.02-5.73-1.02-8.32ZM992.27,192.78c0-5.48-2.14-10.96-6.41-15.13-8.76-8.56-29.81-15.26-38.21-7.05-3.66,3.58-4.7,10.2-2.86,18.17,1.69,7.29,5.65,14.81,10.08,19.14,8.54,8.34,22.44,8.34,30.98,0,4.27-4.17,6.41-9.65,6.41-15.13Z"/>
          </g>
        </g>
        <g>
          <polygon class="cls-5" points="913.95 191.03 931.97 164.36 913.95 137.68 941.27 155.28 968.58 137.68 950.57 164.36 968.58 191.03 941.27 173.44 913.95 191.03"/>
          <path class="cls-4" d="M906.01,129.92l35.26,22.71,35.26-22.71-23.26,34.43,23.26,34.43-35.26-22.71-35.26,22.71,23.26-34.43-23.26-34.43ZM934.67,164.36l-12.78,18.92,19.37-12.48,19.37,12.48-12.78-18.92,12.78-18.92-19.37,12.48-19.37-12.48,12.78,18.92Z"/>
        </g>
        <g>
          <path class="cls-9" d="M924.18,147.67c9.44-9.22,24.74-9.22,34.18,0,9.44,9.22,9.44,24.16,0,33.37s-24.74,9.22-34.18,0c-9.44-9.22-9.44-24.16,0-33.37Z"/>
          <path class="cls-4" d="M915.18,164.36c0-6.53,2.54-13.05,7.63-18.02,10.18-9.94,26.74-9.94,36.91,0,10.18,9.94,10.18,26.11,0,36.05-10.18,9.94-26.74,9.94-36.91,0-5.09-4.97-7.63-11.5-7.63-18.02ZM963.49,164.36c0-5.56-2.17-11.12-6.5-15.35-8.67-8.46-22.77-8.46-31.44,0-8.67,8.46-8.67,22.24,0,30.7,8.67,8.46,22.77,8.46,31.44,0,4.33-4.23,6.5-9.79,6.5-15.35Z"/>
        </g>
      </g>
      <g>
        <g>
          <g>
            <path class="cls-3" d="M785.21,176.09c9.44-9.22,31.96-16.27,41.4-7.05,9.44,9.22,2.21,31.21-7.22,40.43-9.44,9.22-24.74,9.22-34.18,0-9.44-9.22-9.44-24.16,0-33.37Z"/>
            <path class="cls-4" d="M775.87,192.78c0-6.89,2.75-13.37,7.74-18.25,5.08-4.96,13.43-9.18,21.8-11.03,9.85-2.17,17.94-.76,22.8,3.98,4.85,4.74,6.3,12.64,4.07,22.26-1.89,8.17-6.22,16.33-11.3,21.29-4.99,4.87-11.63,7.56-18.68,7.56s-13.69-2.68-18.69-7.56c-4.99-4.87-7.74-11.35-7.74-18.25ZM828.76,181.5c0-4.67-1.28-8.48-3.75-10.9-8.4-8.2-29.45-1.5-38.21,7.05-8.54,8.34-8.54,21.91,0,30.26,8.54,8.34,22.44,8.34,30.98,0,4.44-4.33,8.4-11.85,10.08-19.14.6-2.58.89-5.03.89-7.27Z"/>
          </g>
          <g>
            <path class="cls-3" d="M843.42,119.25c-9.44,9.22-16.66,31.21-7.22,40.43,9.44,9.22,31.96,2.16,41.4-7.05,9.44-9.22,9.44-24.16,0-33.37s-24.74-9.22-34.18,0Z"/>
            <path class="cls-4" d="M829.51,147.3c0-2.58.34-5.37,1.02-8.32,1.89-8.17,6.22-16.33,11.3-21.29,4.99-4.87,11.63-7.56,18.68-7.56s13.69,2.68,18.69,7.56,7.74,11.35,7.74,18.25-2.75,13.37-7.74,18.25c-5.08,4.96-13.43,9.18-21.8,11.03-9.85,2.17-17.94.76-22.8-3.98-3.36-3.29-5.09-8.09-5.09-13.94ZM882.41,135.94c0-5.48-2.14-10.96-6.41-15.13-8.54-8.34-22.44-8.34-30.98,0-8.76,8.56-15.63,29.11-7.22,37.31,8.4,8.2,29.45,1.5,38.21-7.05,4.27-4.17,6.41-9.65,6.41-15.13Z"/>
          </g>
          <g>
            <path class="cls-3" d="M819.38,119.25c9.44,9.22,16.66,31.21,7.22,40.43-9.44,9.22-31.96,2.16-41.4-7.05-9.44-9.22-9.44-24.16,0-33.37,9.44-9.22,24.74-9.22,34.18,0Z"/>
            <path class="cls-4" d="M775.87,135.94c0-6.89,2.75-13.37,7.74-18.25s11.63-7.56,18.69-7.56,13.69,2.68,18.68,7.56c5.08,4.96,9.4,13.11,11.3,21.29,2.23,9.62.78,17.52-4.07,22.26-4.85,4.74-12.95,6.15-22.8,3.98-8.37-1.85-16.72-6.07-21.8-11.03-4.99-4.87-7.74-11.35-7.74-18.25ZM828.82,147.25c0-9.26-5.08-20.62-11.04-26.44-8.54-8.34-22.44-8.34-30.98,0-8.54,8.34-8.54,21.91,0,30.26,8.76,8.56,29.81,15.26,38.21,7.05,2.69-2.63,3.81-6.52,3.81-10.87Z"/>
          </g>
          <g>
            <path class="cls-3" d="M877.6,176.09c-9.44-9.22-31.96-16.27-41.4-7.05s-2.21,31.21,7.22,40.43c9.44,9.22,24.74,9.22,34.18,0,9.44-9.22,9.44-24.16,0-33.37Z"/>
            <path class="cls-4" d="M829.51,181.42c0-5.85,1.73-10.66,5.09-13.94,4.85-4.74,12.95-6.15,22.8-3.98,8.37,1.85,16.72,6.07,21.8,11.03,4.99,4.87,7.74,11.35,7.74,18.25s-2.75,13.37-7.74,18.25c-4.99,4.87-11.63,7.56-18.69,7.56s-13.69-2.68-18.68-7.56c-5.08-4.96-9.4-13.11-11.3-21.29-.68-2.95-1.02-5.73-1.02-8.32ZM882.41,192.78c0-5.48-2.14-10.96-6.41-15.13-8.76-8.56-29.81-15.26-38.21-7.05-3.66,3.58-4.7,10.2-2.86,18.17,1.69,7.29,5.65,14.81,10.08,19.14,8.54,8.34,22.44,8.34,30.98,0,4.27-4.17,6.41-9.65,6.41-15.13Z"/>
          </g>
        </g>
        <g>
          <polygon class="cls-5" points="804.08 191.03 822.1 164.36 804.08 137.68 831.4 155.28 858.72 137.68 840.7 164.36 858.72 191.03 831.4 173.44 804.08 191.03"/>
          <path class="cls-4" d="M796.14,129.92l35.26,22.71,35.26-22.71-23.26,34.43,23.26,34.43-35.26-22.71-35.26,22.71,23.26-34.43-23.26-34.43ZM824.8,164.36l-12.78,18.92,19.37-12.48,19.37,12.48-12.78-18.92,12.78-18.92-19.37,12.48-19.37-12.48,12.78,18.92Z"/>
        </g>
        <g>
          <path class="cls-9" d="M814.31,147.67c9.44-9.22,24.74-9.22,34.18,0,9.44,9.22,9.44,24.16,0,33.37-9.44,9.22-24.74,9.22-34.18,0s-9.44-24.16,0-33.37Z"/>
          <path class="cls-4" d="M805.31,164.36c0-6.53,2.54-13.05,7.63-18.02,10.18-9.94,26.74-9.94,36.91,0,10.18,9.94,10.18,26.11,0,36.05-10.18,9.94-26.74,9.94-36.91,0-5.09-4.97-7.63-11.5-7.63-18.02ZM853.62,164.36c0-5.56-2.17-11.12-6.5-15.35-8.67-8.46-22.77-8.46-31.44,0-8.67,8.46-8.67,22.24,0,30.7,8.67,8.46,22.77,8.46,31.44,0,4.33-4.23,6.5-9.79,6.5-15.35Z"/>
        </g>
      </g>
      <g>
        <g>
          <g>
            <path class="cls-3" d="M675.34,176.09c9.44-9.22,31.96-16.27,41.4-7.05,9.44,9.22,2.21,31.21-7.22,40.43-9.44,9.22-24.74,9.22-34.18,0-9.44-9.22-9.44-24.16,0-33.37Z"/>
            <path class="cls-4" d="M666,192.78c0-6.89,2.75-13.37,7.74-18.25,5.08-4.96,13.43-9.18,21.8-11.03,9.85-2.17,17.94-.76,22.8,3.98,4.85,4.74,6.3,12.64,4.07,22.26-1.89,8.17-6.22,16.33-11.3,21.29-4.99,4.87-11.63,7.56-18.68,7.56s-13.69-2.68-18.69-7.56c-4.99-4.87-7.74-11.35-7.74-18.25ZM718.9,181.5c0-4.67-1.28-8.48-3.75-10.9-8.4-8.2-29.45-1.5-38.21,7.05-8.54,8.34-8.54,21.91,0,30.26,8.54,8.34,22.44,8.34,30.98,0,4.44-4.33,8.4-11.85,10.08-19.14.6-2.58.89-5.03.89-7.27Z"/>
          </g>
          <g>
            <path class="cls-3" d="M733.55,119.25c-9.44,9.22-16.66,31.21-7.22,40.43,9.44,9.22,31.96,2.16,41.4-7.05s9.44-24.16,0-33.37-24.74-9.22-34.18,0Z"/>
            <path class="cls-4" d="M719.64,147.3c0-2.58.34-5.37,1.02-8.32,1.89-8.17,6.22-16.33,11.3-21.29,4.99-4.87,11.63-7.56,18.68-7.56s13.69,2.68,18.69,7.56,7.74,11.35,7.74,18.25-2.75,13.37-7.74,18.25c-5.08,4.96-13.43,9.18-21.8,11.03-9.85,2.17-17.94.76-22.8-3.98-3.36-3.29-5.09-8.09-5.09-13.94ZM772.54,135.94c0-5.48-2.14-10.96-6.41-15.13-8.54-8.34-22.44-8.34-30.98,0-8.76,8.56-15.63,29.11-7.22,37.31,8.4,8.2,29.45,1.5,38.21-7.05,4.27-4.17,6.41-9.65,6.41-15.13Z"/>
          </g>
          <g>
            <path class="cls-3" d="M709.52,119.25c9.44,9.22,16.66,31.21,7.22,40.43-9.44,9.22-31.96,2.16-41.4-7.05-9.44-9.22-9.44-24.16,0-33.37,9.44-9.22,24.74-9.22,34.18,0Z"/>
            <path class="cls-4" d="M666,135.94c0-6.89,2.75-13.37,7.74-18.25s11.63-7.56,18.69-7.56,13.69,2.68,18.68,7.56c5.08,4.96,9.4,13.11,11.3,21.29,2.23,9.62.78,17.52-4.07,22.26-4.85,4.74-12.95,6.15-22.8,3.98-8.37-1.85-16.72-6.07-21.8-11.03-4.99-4.87-7.74-11.35-7.74-18.25ZM718.96,147.25c0-9.26-5.08-20.62-11.04-26.44-8.54-8.34-22.44-8.34-30.98,0-8.54,8.34-8.54,21.91,0,30.26,8.76,8.56,29.81,15.26,38.21,7.05,2.69-2.63,3.81-6.52,3.81-10.87Z"/>
          </g>
          <g>
            <path class="cls-3" d="M767.73,176.09c-9.44-9.22-31.96-16.27-41.4-7.05-9.44,9.22-2.21,31.21,7.22,40.43,9.44,9.22,24.74,9.22,34.18,0,9.44-9.22,9.44-24.16,0-33.37Z"/>
            <path class="cls-4" d="M719.64,181.42c0-5.85,1.73-10.66,5.09-13.94,4.85-4.74,12.95-6.15,22.8-3.98,8.37,1.85,16.72,6.07,21.8,11.03,4.99,4.87,7.74,11.35,7.74,18.25s-2.75,13.37-7.74,18.25c-4.99,4.87-11.63,7.56-18.69,7.56s-13.69-2.68-18.68-7.56c-5.08-4.96-9.4-13.11-11.3-21.29-.68-2.95-1.02-5.73-1.02-8.32ZM772.54,192.78c0-5.48-2.14-10.96-6.41-15.13-8.76-8.56-29.81-15.26-38.21-7.05-3.66,3.58-4.7,10.2-2.86,18.17,1.69,7.29,5.65,14.81,10.08,19.14,8.54,8.34,22.44,8.34,30.98,0,4.27-4.17,6.41-9.65,6.41-15.13Z"/>
          </g>
        </g>
        <g>
          <polygon class="cls-5" points="694.22 191.03 712.23 164.36 694.22 137.68 721.53 155.28 748.85 137.68 730.83 164.36 748.85 191.03 721.53 173.44 694.22 191.03"/>
          <path class="cls-4" d="M686.27,129.92l35.26,22.71,35.26-22.71-23.26,34.43,23.26,34.43-35.26-22.71-35.26,22.71,23.26-34.43-23.26-34.43ZM714.94,164.36l-12.78,18.92,19.37-12.48,19.37,12.48-12.78-18.92,12.78-18.92-19.37,12.48-19.37-12.48,12.78,18.92Z"/>
        </g>
        <g>
          <path class="cls-9" d="M704.44,147.67c9.44-9.22,24.74-9.22,34.18,0,9.44,9.22,9.44,24.16,0,33.37-9.44,9.22-24.74,9.22-34.18,0-9.44-9.22-9.44-24.16,0-33.37Z"/>
          <path class="cls-4" d="M695.44,164.36c0-6.53,2.54-13.05,7.63-18.02,10.18-9.94,26.74-9.94,36.91,0,10.18,9.94,10.18,26.11,0,36.05-10.18,9.94-26.74,9.94-36.91,0-5.09-4.97-7.63-11.5-7.63-18.02ZM743.75,164.36c0-5.56-2.17-11.12-6.5-15.35-8.67-8.46-22.77-8.46-31.44,0-8.67,8.46-8.67,22.24,0,30.7,8.67,8.46,22.77,8.46,31.44,0,4.33-4.23,6.5-9.79,6.5-15.35Z"/>
        </g>
      </g>
      <g>
        <g>
          <g>
            <path class="cls-3" d="M565.47,176.09c9.44-9.22,31.96-16.27,41.4-7.05,9.44,9.22,2.21,31.21-7.22,40.43-9.44,9.22-24.74,9.22-34.18,0-9.44-9.22-9.44-24.16,0-33.37Z"/>
            <path class="cls-4" d="M556.13,192.78c0-6.89,2.75-13.37,7.74-18.25,5.08-4.96,13.43-9.18,21.8-11.03,9.85-2.17,17.94-.76,22.8,3.98,4.85,4.74,6.3,12.64,4.07,22.26-1.89,8.17-6.22,16.33-11.3,21.29-4.99,4.87-11.63,7.56-18.68,7.56s-13.69-2.68-18.69-7.56c-4.99-4.87-7.74-11.35-7.74-18.25ZM609.03,181.5c0-4.67-1.28-8.48-3.75-10.9-8.4-8.2-29.45-1.5-38.21,7.05-8.54,8.34-8.54,21.91,0,30.26,8.54,8.34,22.44,8.34,30.98,0,4.44-4.33,8.4-11.85,10.08-19.14.6-2.58.89-5.03.89-7.27Z"/>
          </g>
          <g>
            <path class="cls-3" d="M623.68,119.25c-9.44,9.22-16.66,31.21-7.22,40.43,9.44,9.22,31.96,2.16,41.4-7.05,9.44-9.22,9.44-24.16,0-33.37-9.44-9.22-24.74-9.22-34.18,0Z"/>
            <path class="cls-4" d="M609.77,147.3c0-2.58.34-5.37,1.02-8.32,1.89-8.17,6.22-16.33,11.3-21.29,4.99-4.87,11.63-7.56,18.68-7.56s13.69,2.68,18.69,7.56,7.74,11.35,7.74,18.25-2.75,13.37-7.74,18.25c-5.08,4.96-13.43,9.18-21.8,11.03-9.85,2.17-17.94.76-22.8-3.98-3.36-3.29-5.09-8.09-5.09-13.94ZM662.67,135.94c0-5.48-2.14-10.96-6.41-15.13-8.54-8.34-22.44-8.34-30.98,0-8.76,8.56-15.63,29.11-7.22,37.31,8.4,8.2,29.45,1.5,38.21-7.05,4.27-4.17,6.41-9.65,6.41-15.13Z"/>
          </g>
          <g>
            <path class="cls-3" d="M599.65,119.25c9.44,9.22,16.66,31.21,7.22,40.43-9.44,9.22-31.96,2.16-41.4-7.05-9.44-9.22-9.44-24.16,0-33.37,9.44-9.22,24.74-9.22,34.18,0Z"/>
            <path class="cls-4" d="M556.13,135.94c0-6.89,2.75-13.37,7.74-18.25s11.63-7.56,18.69-7.56,13.69,2.68,18.68,7.56c5.08,4.96,9.4,13.11,11.3,21.29,2.23,9.62.78,17.52-4.07,22.26-4.85,4.74-12.95,6.15-22.8,3.98-8.37-1.85-16.72-6.07-21.8-11.03-4.99-4.87-7.74-11.35-7.74-18.25ZM609.09,147.25c0-9.26-5.08-20.62-11.04-26.44-8.54-8.34-22.44-8.34-30.98,0-8.54,8.34-8.54,21.91,0,30.26,8.76,8.56,29.81,15.26,38.21,7.05,2.69-2.63,3.81-6.52,3.81-10.87Z"/>
          </g>
          <g>
            <path class="cls-3" d="M657.86,176.09c-9.44-9.22-31.96-16.27-41.4-7.05-9.44,9.22-2.21,31.21,7.22,40.43,9.44,9.22,24.74,9.22,34.18,0,9.44-9.22,9.44-24.16,0-33.37Z"/>
            <path class="cls-4" d="M609.77,181.42c0-5.85,1.73-10.66,5.09-13.94,4.85-4.74,12.95-6.15,22.8-3.98,8.37,1.85,16.72,6.07,21.8,11.03,4.99,4.87,7.74,11.35,7.74,18.25s-2.75,13.37-7.74,18.25c-4.99,4.87-11.63,7.56-18.69,7.56s-13.69-2.68-18.68-7.56c-5.08-4.96-9.4-13.11-11.3-21.29-.68-2.95-1.02-5.73-1.02-8.32ZM662.67,192.78c0-5.48-2.14-10.96-6.41-15.13-8.76-8.56-29.81-15.26-38.21-7.05-3.66,3.58-4.7,10.2-2.86,18.17,1.69,7.29,5.65,14.81,10.08,19.14,8.54,8.34,22.44,8.34,30.98,0,4.27-4.17,6.41-9.65,6.41-15.13Z"/>
          </g>
        </g>
        <g>
          <polygon class="cls-5" points="584.35 191.03 602.36 164.36 584.35 137.68 611.67 155.28 638.98 137.68 620.97 164.36 638.98 191.03 611.67 173.44 584.35 191.03"/>
          <path class="cls-4" d="M576.4,129.92l35.26,22.71,35.26-22.71-23.26,34.43,23.26,34.43-35.26-22.71-35.26,22.71,23.26-34.43-23.26-34.43ZM605.07,164.36l-12.78,18.92,19.37-12.48,19.37,12.48-12.78-18.92,12.78-18.92-19.37,12.48-19.37-12.48,12.78,18.92Z"/>
        </g>
        <g>
          <path class="cls-9" d="M594.58,147.67c9.44-9.22,24.74-9.22,34.18,0,9.44,9.22,9.44,24.16,0,33.37-9.44,9.22-24.74,9.22-34.18,0-9.44-9.22-9.44-24.16,0-33.37Z"/>
          <path class="cls-4" d="M585.58,164.36c0-6.53,2.54-13.05,7.63-18.02,10.18-9.94,26.74-9.94,36.91,0,10.18,9.94,10.18,26.11,0,36.05-10.18,9.94-26.74,9.94-36.91,0-5.09-4.97-7.63-11.5-7.63-18.02ZM633.89,164.36c0-5.56-2.17-11.12-6.5-15.35-8.67-8.46-22.77-8.46-31.44,0-8.67,8.46-8.67,22.24,0,30.7,8.67,8.46,22.77,8.46,31.44,0,4.33-4.23,6.5-9.79,6.5-15.35Z"/>
        </g>
      </g>
      <g>
        <g>
          <g>
            <path class="cls-3" d="M455.6,176.09c9.44-9.22,31.96-16.27,41.4-7.05,9.44,9.22,2.21,31.21-7.22,40.43-9.44,9.22-24.74,9.22-34.18,0-9.44-9.22-9.44-24.16,0-33.37Z"/>
            <path class="cls-4" d="M446.27,192.78c0-6.89,2.75-13.37,7.74-18.25,5.08-4.96,13.43-9.18,21.8-11.03,9.85-2.17,17.94-.76,22.8,3.98,4.85,4.74,6.3,12.64,4.07,22.26-1.89,8.17-6.22,16.33-11.3,21.29-4.99,4.87-11.63,7.56-18.68,7.56s-13.69-2.68-18.69-7.56c-4.99-4.87-7.74-11.35-7.74-18.25ZM499.16,181.5c0-4.67-1.28-8.48-3.75-10.9-8.4-8.2-29.45-1.5-38.21,7.05-8.54,8.34-8.54,21.91,0,30.26,8.54,8.34,22.44,8.34,30.98,0,4.44-4.33,8.4-11.85,10.08-19.14.6-2.58.89-5.03.89-7.27Z"/>
          </g>
          <g>
            <path class="cls-3" d="M513.82,119.25c-9.44,9.22-16.66,31.21-7.22,40.43s31.96,2.16,41.4-7.05,9.44-24.16,0-33.37c-9.44-9.22-24.74-9.22-34.18,0Z"/>
            <path class="cls-4" d="M499.9,147.3c0-2.58.34-5.37,1.02-8.32,1.89-8.17,6.22-16.33,11.3-21.29,4.99-4.87,11.63-7.56,18.68-7.56s13.69,2.68,18.69,7.56c4.99,4.87,7.74,11.35,7.74,18.25s-2.75,13.37-7.74,18.25c-5.08,4.96-13.43,9.18-21.8,11.03-9.85,2.17-17.94.76-22.8-3.98-3.36-3.29-5.09-8.09-5.09-13.94ZM552.8,135.94c0-5.48-2.14-10.96-6.41-15.13-8.54-8.34-22.44-8.34-30.98,0-8.76,8.56-15.63,29.11-7.22,37.31,8.4,8.2,29.45,1.5,38.21-7.05,4.27-4.17,6.41-9.65,6.41-15.13Z"/>
          </g>
          <g>
            <path class="cls-3" d="M489.78,119.25c9.44,9.22,16.66,31.21,7.22,40.43-9.44,9.22-31.96,2.16-41.4-7.05s-9.44-24.16,0-33.37,24.74-9.22,34.18,0Z"/>
            <path class="cls-4" d="M446.27,135.94c0-6.89,2.75-13.37,7.74-18.25,4.99-4.87,11.63-7.56,18.69-7.56s13.69,2.68,18.68,7.56c5.08,4.96,9.4,13.11,11.3,21.29,2.23,9.62.78,17.52-4.07,22.26-4.85,4.74-12.95,6.15-22.8,3.98-8.37-1.85-16.72-6.07-21.8-11.03-4.99-4.87-7.74-11.35-7.74-18.25ZM499.22,147.25c0-9.26-5.08-20.62-11.04-26.44-8.54-8.34-22.44-8.34-30.98,0-8.54,8.34-8.54,21.91,0,30.26,8.76,8.56,29.81,15.26,38.21,7.05,2.69-2.63,3.81-6.52,3.81-10.87Z"/>
          </g>
          <g>
            <path class="cls-3" d="M547.99,176.09c-9.44-9.22-31.96-16.27-41.4-7.05-9.44,9.22-2.21,31.21,7.22,40.43,9.44,9.22,24.74,9.22,34.18,0,9.44-9.22,9.44-24.16,0-33.37Z"/>
            <path class="cls-4" d="M499.9,181.42c0-5.85,1.73-10.66,5.09-13.94,4.85-4.74,12.95-6.15,22.8-3.98,8.37,1.85,16.72,6.07,21.8,11.03,4.99,4.87,7.74,11.35,7.74,18.25s-2.75,13.37-7.74,18.25c-4.99,4.87-11.63,7.56-18.69,7.56s-13.69-2.68-18.68-7.56c-5.08-4.96-9.4-13.11-11.3-21.29-.68-2.95-1.02-5.73-1.02-8.32ZM552.8,192.78c0-5.48-2.14-10.96-6.41-15.13-8.76-8.56-29.81-15.26-38.21-7.05-3.66,3.58-4.7,10.2-2.86,18.17,1.69,7.29,5.65,14.81,10.08,19.14,8.54,8.34,22.44,8.34,30.98,0,4.27-4.17,6.41-9.65,6.41-15.13Z"/>
          </g>
        </g>
        <g>
          <polygon class="cls-5" points="474.48 191.03 492.5 164.36 474.48 137.68 501.8 155.28 529.12 137.68 511.1 164.36 529.12 191.03 501.8 173.44 474.48 191.03"/>
          <path class="cls-4" d="M466.54,129.92l35.26,22.71,35.26-22.71-23.26,34.43,23.26,34.43-35.26-22.71-35.26,22.71,23.26-34.43-23.26-34.43ZM495.2,164.36l-12.78,18.92,19.37-12.48,19.37,12.48-12.78-18.92,12.78-18.92-19.37,12.48-19.37-12.48,12.78,18.92Z"/>
        </g>
        <g>
          <path class="cls-9" d="M484.71,147.67c9.44-9.22,24.74-9.22,34.18,0,9.44,9.22,9.44,24.16,0,33.37-9.44,9.22-24.74,9.22-34.18,0-9.44-9.22-9.44-24.16,0-33.37Z"/>
          <path class="cls-4" d="M475.71,164.36c0-6.53,2.54-13.05,7.63-18.02,10.18-9.94,26.74-9.94,36.91,0,10.18,9.94,10.18,26.11,0,36.05-10.18,9.94-26.74,9.94-36.91,0-5.09-4.97-7.63-11.5-7.63-18.02ZM524.02,164.36c0-5.56-2.17-11.12-6.5-15.35-8.67-8.46-22.77-8.46-31.44,0-8.67,8.46-8.67,22.24,0,30.7,8.67,8.46,22.77,8.46,31.44,0,4.33-4.23,6.5-9.79,6.5-15.35Z"/>
        </g>
      </g>
      <g>
        <g>
          <g>
            <path class="cls-3" d="M345.74,176.09c9.44-9.22,31.96-16.27,41.4-7.05,9.44,9.22,2.21,31.21-7.22,40.43-9.44,9.22-24.74,9.22-34.18,0-9.44-9.22-9.44-24.16,0-33.37Z"/>
            <path class="cls-4" d="M336.4,192.78c0-6.89,2.75-13.37,7.74-18.25,5.08-4.96,13.43-9.18,21.8-11.03,9.85-2.17,17.94-.76,22.8,3.98,4.85,4.74,6.3,12.64,4.07,22.26-1.89,8.17-6.22,16.33-11.3,21.29-4.99,4.87-11.63,7.56-18.68,7.56s-13.69-2.68-18.69-7.56c-4.99-4.87-7.74-11.35-7.74-18.25ZM389.29,181.5c0-4.67-1.28-8.48-3.75-10.9-8.4-8.2-29.45-1.5-38.21,7.05-8.54,8.34-8.54,21.91,0,30.26,8.54,8.34,22.44,8.34,30.98,0,4.44-4.33,8.4-11.85,10.08-19.14.6-2.58.89-5.03.89-7.27Z"/>
          </g>
          <g>
            <path class="cls-3" d="M403.95,119.25c-9.44,9.22-16.66,31.21-7.22,40.43s31.96,2.16,41.4-7.05c9.44-9.22,9.44-24.16,0-33.37s-24.74-9.22-34.18,0Z"/>
            <path class="cls-4" d="M390.04,147.3c0-2.58.34-5.37,1.02-8.32,1.89-8.17,6.22-16.33,11.3-21.29,4.99-4.87,11.63-7.56,18.68-7.56s13.69,2.68,18.69,7.56c4.99,4.87,7.74,11.35,7.74,18.25s-2.75,13.37-7.74,18.25c-5.08,4.96-13.43,9.18-21.8,11.03-9.85,2.17-17.94.76-22.8-3.98-3.36-3.29-5.09-8.09-5.09-13.94ZM442.94,135.94c0-5.48-2.14-10.96-6.41-15.13-8.54-8.34-22.44-8.34-30.98,0-8.76,8.56-15.63,29.11-7.22,37.31,8.4,8.2,29.45,1.5,38.21-7.05,4.27-4.17,6.41-9.65,6.41-15.13Z"/>
          </g>
          <g>
            <path class="cls-3" d="M379.91,119.25c9.44,9.22,16.66,31.21,7.22,40.43-9.44,9.22-31.96,2.16-41.4-7.05-9.44-9.22-9.44-24.16,0-33.37,9.44-9.22,24.74-9.22,34.18,0Z"/>
            <path class="cls-4" d="M336.4,135.94c0-6.89,2.75-13.37,7.74-18.25,4.99-4.87,11.63-7.56,18.69-7.56s13.69,2.68,18.68,7.56c5.08,4.96,9.4,13.11,11.3,21.29,2.23,9.62.78,17.52-4.07,22.26-4.85,4.74-12.95,6.15-22.8,3.98-8.37-1.85-16.72-6.07-21.8-11.03-4.99-4.87-7.74-11.35-7.74-18.25ZM389.36,147.25c0-9.26-5.08-20.62-11.04-26.44-8.54-8.34-22.44-8.34-30.98,0-8.54,8.34-8.54,21.91,0,30.26,8.76,8.56,29.81,15.26,38.21,7.05,2.69-2.63,3.81-6.52,3.81-10.87Z"/>
          </g>
          <g>
            <path class="cls-3" d="M438.13,176.09c-9.44-9.22-31.96-16.27-41.4-7.05-9.44,9.22-2.21,31.21,7.22,40.43,9.44,9.22,24.74,9.22,34.18,0,9.44-9.22,9.44-24.16,0-33.37Z"/>
            <path class="cls-4" d="M390.04,181.42c0-5.85,1.73-10.66,5.09-13.94,4.85-4.74,12.95-6.15,22.8-3.98,8.37,1.85,16.72,6.07,21.8,11.03,4.99,4.87,7.74,11.35,7.74,18.25s-2.75,13.37-7.74,18.25c-4.99,4.87-11.63,7.56-18.69,7.56s-13.69-2.68-18.68-7.56c-5.08-4.96-9.4-13.11-11.3-21.29-.68-2.95-1.02-5.73-1.02-8.32ZM442.94,192.78c0-5.48-2.14-10.96-6.41-15.13-8.76-8.56-29.81-15.26-38.21-7.05-3.66,3.58-4.7,10.2-2.86,18.17,1.69,7.29,5.65,14.81,10.08,19.14,8.54,8.34,22.44,8.34,30.98,0,4.27-4.17,6.41-9.65,6.41-15.13Z"/>
          </g>
        </g>
        <g>
          <polygon class="cls-5" points="364.61 191.03 382.63 164.36 364.61 137.68 391.93 155.28 419.25 137.68 401.23 164.36 419.25 191.03 391.93 173.44 364.61 191.03"/>
          <path class="cls-4" d="M356.67,129.92l35.26,22.71,35.26-22.71-23.26,34.43,23.26,34.43-35.26-22.71-35.26,22.71,23.26-34.43-23.26-34.43ZM385.33,164.36l-12.78,18.92,19.37-12.48,19.37,12.48-12.78-18.92,12.78-18.92-19.37,12.48-19.37-12.48,12.78,18.92Z"/>
        </g>
        <g>
          <path class="cls-9" d="M374.84,147.67c9.44-9.22,24.74-9.22,34.18,0,9.44,9.22,9.44,24.16,0,33.37-9.44,9.22-24.74,9.22-34.18,0-9.44-9.22-9.44-24.16,0-33.37Z"/>
          <path class="cls-4" d="M365.84,164.36c0-6.53,2.54-13.05,7.63-18.02,10.18-9.94,26.74-9.94,36.91,0,10.18,9.94,10.18,26.11,0,36.05-10.18,9.94-26.74,9.94-36.91,0-5.09-4.97-7.63-11.5-7.63-18.02ZM414.15,164.36c0-5.56-2.17-11.12-6.5-15.35-8.67-8.46-22.77-8.46-31.44,0-8.67,8.46-8.67,22.24,0,30.7,8.67,8.46,22.77,8.46,31.44,0,4.33-4.23,6.5-9.79,6.5-15.35Z"/>
        </g>
      </g>
      <g>
        <g>
          <g>
            <path class="cls-3" d="M235.87,176.09c9.44-9.22,31.96-16.27,41.4-7.05,9.44,9.22,2.21,31.21-7.22,40.43-9.44,9.22-24.74,9.22-34.18,0-9.44-9.22-9.44-24.16,0-33.37Z"/>
            <path class="cls-4" d="M226.53,192.78c0-6.89,2.75-13.37,7.74-18.25,5.08-4.96,13.43-9.18,21.8-11.03,9.85-2.17,17.94-.76,22.8,3.98,4.85,4.74,6.3,12.64,4.07,22.26-1.89,8.17-6.22,16.33-11.3,21.29-4.99,4.87-11.63,7.56-18.68,7.56s-13.69-2.68-18.69-7.56c-4.99-4.87-7.74-11.35-7.74-18.25ZM279.43,181.5c0-4.67-1.28-8.48-3.75-10.9-8.4-8.2-29.45-1.5-38.21,7.05-8.54,8.34-8.54,21.91,0,30.26,8.54,8.34,22.44,8.34,30.98,0,4.44-4.33,8.4-11.85,10.08-19.14.6-2.58.89-5.03.89-7.27Z"/>
          </g>
          <g>
            <path class="cls-3" d="M294.08,119.25c-9.44,9.22-16.66,31.21-7.22,40.43s31.96,2.16,41.4-7.05,9.44-24.16,0-33.37c-9.44-9.22-24.74-9.22-34.18,0Z"/>
            <path class="cls-4" d="M280.17,147.3c0-2.58.34-5.37,1.02-8.32,1.89-8.17,6.22-16.33,11.3-21.29,4.99-4.87,11.63-7.56,18.68-7.56s13.69,2.68,18.69,7.56c4.99,4.87,7.74,11.35,7.74,18.25s-2.75,13.37-7.74,18.25c-5.08,4.96-13.43,9.18-21.8,11.03-9.85,2.17-17.94.76-22.8-3.98-3.36-3.29-5.09-8.09-5.09-13.94ZM333.07,135.94c0-5.48-2.14-10.96-6.41-15.13-8.54-8.34-22.44-8.34-30.98,0-8.76,8.56-15.63,29.11-7.22,37.31,8.4,8.2,29.45,1.5,38.21-7.05,4.27-4.17,6.41-9.65,6.41-15.13Z"/>
          </g>
          <g>
            <path class="cls-3" d="M270.05,119.25c9.44,9.22,16.66,31.21,7.22,40.43-9.44,9.22-31.96,2.16-41.4-7.05-9.44-9.22-9.44-24.16,0-33.37,9.44-9.22,24.74-9.22,34.18,0Z"/>
            <path class="cls-4" d="M226.53,135.94c0-6.89,2.75-13.37,7.74-18.25,4.99-4.87,11.63-7.56,18.69-7.56s13.69,2.68,18.68,7.56c5.08,4.96,9.4,13.11,11.3,21.29,2.23,9.62.78,17.52-4.07,22.26-4.85,4.74-12.95,6.15-22.8,3.98-8.37-1.85-16.72-6.07-21.8-11.03-4.99-4.87-7.74-11.35-7.74-18.25ZM279.49,147.25c0-9.26-5.08-20.62-11.04-26.44-8.54-8.34-22.44-8.34-30.98,0-8.54,8.34-8.54,21.91,0,30.26,8.76,8.56,29.81,15.26,38.21,7.05,2.69-2.63,3.81-6.52,3.81-10.87Z"/>
          </g>
          <g>
            <path class="cls-3" d="M328.26,176.09c-9.44-9.22-31.96-16.27-41.4-7.05-9.44,9.22-2.21,31.21,7.22,40.43,9.44,9.22,24.74,9.22,34.18,0,9.44-9.22,9.44-24.16,0-33.37Z"/>
            <path class="cls-4" d="M280.17,181.42c0-5.85,1.73-10.66,5.09-13.94,4.85-4.74,12.95-6.15,22.8-3.98,8.37,1.85,16.72,6.07,21.8,11.03,4.99,4.87,7.74,11.35,7.74,18.25s-2.75,13.37-7.74,18.25c-4.99,4.87-11.63,7.56-18.69,7.56s-13.69-2.68-18.68-7.56c-5.08-4.96-9.4-13.11-11.3-21.29-.68-2.95-1.02-5.73-1.02-8.32ZM333.07,192.78c0-5.48-2.14-10.96-6.41-15.13-8.76-8.56-29.81-15.26-38.21-7.05-3.66,3.58-4.71,10.2-2.86,18.17,1.69,7.29,5.65,14.81,10.08,19.14,8.54,8.34,22.44,8.34,30.98,0,4.27-4.17,6.41-9.65,6.41-15.13Z"/>
          </g>
        </g>
        <g>
          <polygon class="cls-5" points="254.75 191.03 272.76 164.36 254.75 137.68 282.06 155.28 309.38 137.68 291.37 164.36 309.38 191.03 282.06 173.44 254.75 191.03"/>
          <path class="cls-4" d="M246.8,129.92l35.26,22.71,35.26-22.71-23.26,34.43,23.26,34.43-35.26-22.71-35.26,22.71,23.26-34.43-23.26-34.43ZM275.47,164.36l-12.78,18.92,19.37-12.48,19.37,12.48-12.78-18.92,12.78-18.92-19.37,12.48-19.37-12.48,12.78,18.92Z"/>
        </g>
        <g>
          <path class="cls-9" d="M264.98,147.67c9.44-9.22,24.74-9.22,34.18,0,9.44,9.22,9.44,24.16,0,33.37s-24.74,9.22-34.18,0c-9.44-9.22-9.44-24.16,0-33.37Z"/>
          <path class="cls-4" d="M255.97,164.36c0-6.53,2.54-13.05,7.63-18.02,4.93-4.81,11.48-7.47,18.46-7.47s13.53,2.65,18.46,7.47c10.18,9.94,10.18,26.11,0,36.05-4.93,4.81-11.48,7.47-18.46,7.47s-13.53-2.65-18.46-7.47c-5.09-4.97-7.63-11.5-7.63-18.02ZM304.29,164.36c0-5.56-2.17-11.12-6.5-15.35-4.2-4.1-9.78-6.36-15.72-6.36s-11.52,2.26-15.72,6.36c-8.67,8.46-8.67,22.24,0,30.7,4.2,4.1,9.78,6.36,15.72,6.36s11.52-2.26,15.72-6.36c4.33-4.23,6.5-9.79,6.5-15.35Z"/>
        </g>
      </g>
      <g>
        <g>
          <g>
            <path class="cls-3" d="M126,176.09c9.44-9.22,31.96-16.27,41.4-7.05,9.44,9.22,2.21,31.21-7.22,40.43-9.44,9.22-24.74,9.22-34.18,0-9.44-9.22-9.44-24.16,0-33.37Z"/>
            <path class="cls-4" d="M116.67,192.78c0-6.89,2.75-13.37,7.74-18.25,5.08-4.96,13.43-9.18,21.8-11.03,9.85-2.17,17.94-.76,22.8,3.98,4.85,4.74,6.3,12.64,4.07,22.26-1.89,8.17-6.22,16.33-11.3,21.29-4.99,4.87-11.63,7.56-18.68,7.56s-13.69-2.68-18.69-7.56c-4.99-4.87-7.74-11.35-7.74-18.25ZM169.56,181.5c0-4.67-1.28-8.48-3.75-10.9-8.4-8.2-29.45-1.5-38.21,7.05-8.54,8.34-8.54,21.91,0,30.26,8.54,8.34,22.44,8.34,30.98,0,4.44-4.33,8.4-11.85,10.08-19.14.6-2.58.89-5.03.89-7.27Z"/>
          </g>
          <g>
            <path class="cls-3" d="M184.21,119.25c-9.44,9.22-16.66,31.21-7.22,40.43,9.44,9.22,31.96,2.16,41.4-7.05,9.44-9.22,9.44-24.16,0-33.37s-24.74-9.22-34.18,0Z"/>
            <path class="cls-4" d="M170.3,147.3c0-2.58.34-5.37,1.02-8.32,1.89-8.17,6.22-16.33,11.3-21.29,4.99-4.87,11.63-7.56,18.68-7.56s13.69,2.68,18.69,7.56,7.74,11.35,7.74,18.25-2.75,13.37-7.74,18.25c-5.08,4.96-13.43,9.18-21.8,11.03-9.85,2.17-17.94.76-22.8-3.98-3.36-3.29-5.09-8.09-5.09-13.94ZM223.2,135.94c0-5.48-2.14-10.96-6.41-15.13-8.54-8.34-22.44-8.34-30.98,0-8.76,8.56-15.63,29.11-7.22,37.31,8.4,8.2,29.45,1.5,38.21-7.05,4.27-4.17,6.41-9.65,6.41-15.13Z"/>
          </g>
          <g>
            <path class="cls-3" d="M160.18,119.25c9.44,9.22,16.66,31.21,7.22,40.43-9.44,9.22-31.96,2.16-41.4-7.05-9.44-9.22-9.44-24.16,0-33.37,9.44-9.22,24.74-9.22,34.18,0Z"/>
            <path class="cls-4" d="M116.67,135.94c0-6.89,2.75-13.37,7.74-18.25,4.99-4.87,11.63-7.56,18.69-7.56s13.69,2.68,18.68,7.56c5.08,4.96,9.4,13.11,11.3,21.29,2.23,9.62.78,17.52-4.07,22.26-4.85,4.74-12.95,6.15-22.8,3.98-8.37-1.85-16.72-6.07-21.8-11.03-4.99-4.87-7.74-11.35-7.74-18.25ZM169.62,147.25c0-9.26-5.08-20.62-11.04-26.44-8.54-8.34-22.44-8.34-30.98,0-8.54,8.34-8.54,21.91,0,30.26,8.76,8.56,29.81,15.26,38.21,7.05,2.69-2.63,3.81-6.52,3.81-10.87Z"/>
          </g>
          <g>
            <path class="cls-3" d="M218.39,176.09c-9.44-9.22-31.96-16.27-41.4-7.05-9.44,9.22-2.21,31.21,7.22,40.43,9.44,9.22,24.74,9.22,34.18,0,9.44-9.22,9.44-24.16,0-33.37Z"/>
            <path class="cls-4" d="M170.3,181.42c0-5.85,1.73-10.66,5.09-13.94,4.85-4.74,12.95-6.15,22.8-3.98,8.37,1.85,16.72,6.07,21.8,11.03,4.99,4.87,7.74,11.35,7.74,18.25s-2.75,13.37-7.74,18.25c-4.99,4.87-11.63,7.56-18.69,7.56s-13.69-2.68-18.68-7.56c-5.08-4.96-9.4-13.11-11.3-21.29-.68-2.95-1.02-5.73-1.02-8.32ZM223.2,192.78c0-5.48-2.14-10.96-6.41-15.13-8.76-8.56-29.81-15.26-38.21-7.05-3.66,3.58-4.71,10.2-2.86,18.17,1.69,7.29,5.65,14.81,10.08,19.14,8.54,8.34,22.44,8.34,30.98,0,4.27-4.17,6.41-9.65,6.41-15.13Z"/>
          </g>
        </g>
        <g>
          <polygon class="cls-5" points="144.88 191.03 162.9 164.36 144.88 137.68 172.2 155.28 199.51 137.68 181.5 164.36 199.51 191.03 172.2 173.44 144.88 191.03"/>
          <path class="cls-4" d="M136.94,129.92l35.26,22.71,35.26-22.71-23.26,34.43,23.26,34.43-35.26-22.71-35.26,22.71,23.26-34.43-23.26-34.43ZM165.6,164.36l-12.78,18.92,19.37-12.48,19.37,12.48-12.78-18.92,12.78-18.92-19.37,12.48-19.37-12.48,12.78,18.92Z"/>
        </g>
        <g>
          <path class="cls-9" d="M155.11,147.67c9.44-9.22,24.74-9.22,34.18,0,9.44,9.22,9.44,24.16,0,33.37s-24.74,9.22-34.18,0-9.44-24.16,0-33.37Z"/>
          <path class="cls-4" d="M146.11,164.36c0-6.53,2.54-13.05,7.63-18.02,4.93-4.81,11.48-7.47,18.46-7.47s13.53,2.65,18.46,7.47c10.18,9.94,10.18,26.11,0,36.05-4.93,4.81-11.48,7.47-18.46,7.47s-13.53-2.65-18.46-7.47c-5.09-4.97-7.63-11.5-7.63-18.02ZM194.42,164.36c0-5.56-2.17-11.12-6.5-15.35-4.2-4.1-9.78-6.36-15.72-6.36s-11.52,2.26-15.72,6.36c-8.67,8.46-8.67,22.24,0,30.7,4.2,4.1,9.78,6.36,15.72,6.36s11.52-2.26,15.72-6.36c4.33-4.23,6.5-9.79,6.5-15.35Z"/>
        </g>
      </g>
      <g>
        <g>
          <g>
            <path class="cls-3" d="M16.14,176.09c9.44-9.22,31.96-16.27,41.4-7.05,9.44,9.22,2.21,31.21-7.22,40.43-9.44,9.22-24.74,9.22-34.18,0-9.44-9.22-9.44-24.16,0-33.37Z"/>
            <path class="cls-4" d="M6.8,192.78c0-6.89,2.75-13.37,7.74-18.25,5.08-4.96,13.43-9.18,21.8-11.03,9.85-2.17,17.94-.76,22.8,3.98,4.85,4.74,6.3,12.64,4.07,22.26-1.89,8.17-6.22,16.33-11.3,21.29-4.99,4.87-11.63,7.56-18.68,7.56s-13.69-2.68-18.69-7.56c-4.99-4.87-7.74-11.35-7.74-18.25ZM59.69,181.5c0-4.67-1.28-8.48-3.75-10.9-8.4-8.2-29.45-1.5-38.21,7.05-8.54,8.34-8.54,21.91,0,30.26,8.54,8.34,22.44,8.34,30.98,0,4.44-4.33,8.4-11.85,10.08-19.14.6-2.58.89-5.03.89-7.27Z"/>
          </g>
          <g>
            <path class="cls-3" d="M74.35,119.25c-9.44,9.22-16.66,31.21-7.22,40.43,9.44,9.22,31.96,2.16,41.4-7.05,9.44-9.22,9.44-24.16,0-33.37s-24.74-9.22-34.18,0Z"/>
            <path class="cls-4" d="M60.44,147.3c0-2.58.34-5.37,1.02-8.32,1.89-8.17,6.22-16.33,11.3-21.29,4.99-4.87,11.63-7.56,18.68-7.56s13.69,2.68,18.69,7.56,7.74,11.35,7.74,18.25-2.75,13.37-7.74,18.25c-5.08,4.96-13.43,9.18-21.8,11.03-9.85,2.17-17.94.76-22.8-3.98-3.36-3.29-5.09-8.09-5.09-13.94ZM113.34,135.94c0-5.48-2.14-10.96-6.41-15.13-8.54-8.34-22.44-8.34-30.98,0-8.76,8.56-15.63,29.11-7.22,37.31,8.4,8.2,29.45,1.5,38.21-7.05,4.27-4.17,6.41-9.65,6.41-15.13Z"/>
          </g>
          <g>
            <path class="cls-3" d="M50.31,119.25c9.44,9.22,16.66,31.21,7.22,40.43-9.44,9.22-31.96,2.16-41.4-7.05-9.44-9.22-9.44-24.16,0-33.37,9.44-9.22,24.74-9.22,34.18,0Z"/>
            <path class="cls-4" d="M6.8,135.94c0-6.89,2.75-13.37,7.74-18.25s11.63-7.56,18.69-7.56,13.69,2.68,18.68,7.56c5.08,4.96,9.4,13.11,11.3,21.29,2.23,9.62.78,17.52-4.07,22.26-4.85,4.74-12.95,6.15-22.8,3.98-8.37-1.85-16.72-6.07-21.8-11.03-4.99-4.87-7.74-11.35-7.74-18.25ZM59.75,147.25c0-9.26-5.08-20.62-11.04-26.44-8.54-8.34-22.44-8.34-30.98,0-8.54,8.34-8.54,21.91,0,30.26,8.76,8.56,29.81,15.26,38.21,7.05,2.69-2.63,3.81-6.52,3.81-10.87Z"/>
          </g>
          <g>
            <path class="cls-3" d="M108.53,176.09c-9.44-9.22-31.96-16.27-41.4-7.05-9.44,9.22-2.21,31.21,7.22,40.43,9.44,9.22,24.74,9.22,34.18,0,9.44-9.22,9.44-24.16,0-33.37Z"/>
            <path class="cls-4" d="M60.44,181.42c0-5.85,1.73-10.66,5.09-13.94,4.85-4.74,12.95-6.15,22.8-3.98,8.37,1.85,16.72,6.07,21.8,11.03,4.99,4.87,7.74,11.35,7.74,18.25s-2.75,13.37-7.74,18.25c-4.99,4.87-11.63,7.56-18.69,7.56s-13.69-2.68-18.68-7.56c-5.08-4.96-9.4-13.11-11.3-21.29-.68-2.95-1.02-5.73-1.02-8.32ZM113.34,192.78c0-5.48-2.14-10.96-6.41-15.13-8.76-8.56-29.81-15.26-38.21-7.05-3.66,3.58-4.7,10.2-2.86,18.17,1.69,7.29,5.65,14.81,10.08,19.14,8.54,8.34,22.44,8.34,30.98,0,4.27-4.17,6.41-9.65,6.41-15.13Z"/>
          </g>
        </g>
        <g>
          <polygon class="cls-5" points="35.01 191.03 53.03 164.36 35.01 137.68 62.33 155.28 89.65 137.68 71.63 164.36 89.65 191.03 62.33 173.44 35.01 191.03"/>
          <path class="cls-4" d="M27.07,129.92l35.26,22.71,35.26-22.71-23.26,34.43,23.26,34.43-35.26-22.71-35.26,22.71,23.26-34.43-23.26-34.43ZM55.73,164.36l-12.78,18.92,19.37-12.48,19.37,12.48-12.78-18.92,12.78-18.92-19.37,12.48-19.37-12.48,12.78,18.92Z"/>
        </g>
        <g>
          <path class="cls-9" d="M45.24,147.67c9.44-9.22,24.74-9.22,34.18,0,9.44,9.22,9.44,24.16,0,33.37s-24.74,9.22-34.18,0-9.44-24.16,0-33.37Z"/>
          <path class="cls-4" d="M36.24,164.36c0-6.53,2.54-13.05,7.63-18.02,10.18-9.94,26.74-9.94,36.91,0,10.18,9.94,10.18,26.11,0,36.05-10.18,9.94-26.74,9.94-36.91,0-5.09-4.97-7.63-11.5-7.63-18.02ZM84.55,164.36c0-5.56-2.17-11.12-6.5-15.35-8.67-8.46-22.77-8.46-31.44,0-8.67,8.46-8.67,22.24,0,30.7,8.67,8.46,22.77,8.46,31.44,0,4.33-4.23,6.5-9.79,6.5-15.35Z"/>
        </g>
      </g>
    </g>
  </g>
  <g>
    <g>
      <path class="cls-7" d="M284.47,322.25c0,27.67-39.04,128.72-39.04,128.72,0,0-39.04-101.05-39.04-128.72,0-27.67,39.04-50.1,39.04-50.1,0,0,39.04,22.43,39.04,50.1Z"/>
      <path class="cls-7" d="M424.58,462.36c-27.67,0-128.72,39.04-128.72,39.04,0,0,101.05,39.04,128.72,39.04s50.1-39.04,50.1-39.04c0,0-22.43-39.04-50.1-39.04Z"/>
      <path class="cls-7" d="M67.39,539.32c27.67,0,128.72-39.04,128.72-39.04,0,0-101.05-39.04-128.72-39.04s-50.1,39.04-50.1,39.04c0,0,22.43,39.04,50.1,39.04Z"/>
      <path class="cls-7" d="M207.5,679.43c0-27.67,39.04-128.72,39.04-128.72,0,0,39.04,101.05,39.04,128.72s-39.04,50.1-39.04,50.1c0,0-39.04-22.43-39.04-50.1Z"/>
      <g>
        <path class="cls-6" d="M195.58,693.56c35.52-35.52,48.42-97.96,53.02-143.6-4.78.19-9.57-.29-14.24-1.43-8.94-2.17-17.43-6.75-24.41-13.73-6.98-6.98-11.56-15.47-13.73-24.41-1.13-4.67-1.61-9.47-1.43-14.24-45.65,4.6-108.09,17.5-143.6,53.02-60.64,60.64-40.93,185.33-40.93,185.33,0,0,124.69,19.71,185.33-40.93Z"/>
        <path class="cls-1" d="M183.87,680.19c33.41-33.41,45.86-92.11,50.49-131.66-8.94-2.17-17.43-6.75-24.41-13.73-6.98-6.98-11.56-15.47-13.73-24.41-39.54,4.63-98.24,17.08-131.66,50.49-53.66,53.66-40.46,159.77-40.46,159.77,0,0,106.11,13.2,159.77-40.46Z"/>
      </g>
      <path class="cls-8" d="M189.23,663.14s-11.03-13.52-11.49-36.15c-7.38,23.42-26.92,66.3-52.06,75.5,0,0-16.83-18.05-11.92-44.69-2.76,10.21-9.59,21.68-19.73,31.83-19.66,19.66-55.05,16.14-55.05,16.14,0,0-3.52-35.39,16.14-55.05,10.15-10.15,21.62-16.97,31.83-19.73-26.65,4.91-44.69-11.92-44.69-11.92,9.2-25.14,52.08-44.67,75.5-52.06-22.63-.46-36.15-11.49-36.15-11.49,22.16-30.13,118.61-36.29,118.61-36.29l7.18,9.57s.05-.03.05-.03l4.26,4.26s-.18.17-.5.48l.02.02c.31-.32.48-.5.48-.5l4.26,4.26s0,.02-.03.05l9.57,7.18s-6.16,96.46-36.29,118.61Z"/>
      <g>
        <path class="cls-6" d="M441.91,447.24c-35.52,35.52-97.96,48.42-143.6,53.02.19-4.78-.29-9.57-1.43-14.24-2.17-8.94-6.75-17.43-13.73-24.41-6.98-6.98-15.47-11.56-24.41-13.73-4.67-1.13-9.47-1.61-14.24-1.43,4.6-45.65,17.5-108.09,53.02-143.6,60.64-60.64,185.33-40.93,185.33-40.93,0,0,19.71,124.69-40.93,185.33Z"/>
        <path class="cls-1" d="M428.53,435.52c-33.41,33.41-92.11,45.86-131.66,50.49-2.17-8.94-6.75-17.43-13.73-24.41-6.98-6.98-15.47-11.56-24.41-13.73,4.63-39.54,17.08-98.24,50.49-131.66,53.66-53.66,159.77-40.46,159.77-40.46,0,0,13.2,106.11-40.46,159.77Z"/>
      </g>
      <path class="cls-8" d="M411.49,440.88s-13.52-11.03-36.15-11.49c23.42-7.38,66.3-26.92,75.5-52.06,0,0-18.05-16.83-44.69-11.92,10.21-2.76,21.68-9.59,31.83-19.73,19.66-19.66,16.14-55.05,16.14-55.05,0,0-35.39-3.52-55.05,16.14-10.15,10.15-16.97,21.62-19.73,31.83,4.91-26.65-11.92-44.69-11.92-44.69-25.14,9.2-44.67,52.08-52.06,75.5-.46-22.63-11.49-36.15-11.49-36.15-30.13,22.16-36.29,118.61-36.29,118.61l9.57,7.18s-.03.05-.03.05l4.26,4.26s.17-.18.48-.5l.02.02c-.32.31-.5.48-.5.48l4.26,4.26s.02,0,.05-.03l7.18,9.57s96.46-6.16,118.61-36.29Z"/>
      <g>
        <path class="cls-6" d="M51.19,447.24c35.52,35.52,97.96,48.42,143.6,53.02-.19-4.78.29-9.57,1.43-14.24,2.17-8.94,6.75-17.43,13.73-24.41,6.98-6.98,15.47-11.56,24.41-13.73,4.67-1.13,9.47-1.61,14.24-1.43-4.6-45.65-17.5-108.09-53.02-143.6-60.64-60.64-185.33-40.93-185.33-40.93,0,0-19.71,124.69,40.93,185.33Z"/>
        <path class="cls-1" d="M64.56,435.52c33.41,33.41,92.11,45.86,131.66,50.49,2.17-8.94,6.75-17.43,13.73-24.41,6.98-6.98,15.47-11.56,24.41-13.73-4.63-39.54-17.08-98.24-50.49-131.66-53.66-53.66-159.77-40.46-159.77-40.46,0,0-13.2,106.11,40.46,159.77Z"/>
      </g>
      <path class="cls-8" d="M81.61,440.88s13.52-11.03,36.15-11.49c-23.42-7.38-66.3-26.92-75.5-52.06,0,0,18.05-16.83,44.69-11.92-10.21-2.76-21.68-9.59-31.83-19.73-19.66-19.66-16.14-55.05-16.14-55.05,0,0,35.39-3.52,55.05,16.14,10.15,10.15,16.97,21.62,19.73,31.83-4.91-26.65,11.92-44.69,11.92-44.69,25.14,9.2,44.67,52.08,52.06,75.5.46-22.63,11.49-36.15,11.49-36.15,30.13,22.16,36.29,118.61,36.29,118.61l-9.57,7.18s.03.05.03.05l-4.26,4.26s-.17-.18-.48-.5l-.02.02c.32.31.5.48.5.48l-4.26,4.26s-.02,0-.05-.03l-7.18,9.57s-96.46-6.16-118.61-36.29Z"/>
      <g>
        <path class="cls-6" d="M297.51,693.56c-35.52-35.52-48.42-97.96-53.02-143.6,4.78.19,9.57-.29,14.24-1.43,8.94-2.17,17.43-6.75,24.41-13.73s11.56-15.47,13.73-24.41c1.13-4.67,1.61-9.47,1.43-14.24,45.65,4.6,108.09,17.5,143.6,53.02,60.64,60.64,40.93,185.33,40.93,185.33,0,0-124.69,19.71-185.33-40.93Z"/>
        <path class="cls-1" d="M309.23,680.19c-33.41-33.41-45.86-92.11-50.49-131.66,8.94-2.17,17.43-6.75,24.41-13.73s11.56-15.47,13.73-24.41c39.54,4.63,98.24,17.08,131.66,50.49,53.66,53.66,40.46,159.77,40.46,159.77,0,0-106.11,13.2-159.77-40.46Z"/>
      </g>
      <path class="cls-8" d="M303.87,663.14s11.03-13.52,11.49-36.15c7.38,23.42,26.92,66.3,52.06,75.5,0,0,16.83-18.05,11.92-44.69,2.76,10.21,9.59,21.68,19.73,31.83,19.66,19.66,55.05,16.14,55.05,16.14,0,0,3.52-35.39-16.14-55.05-10.15-10.15-21.62-16.97-31.83-19.73,26.65,4.91,44.69-11.92,44.69-11.92-9.2-25.14-52.08-44.67-75.5-52.06,22.63-.46,36.15-11.49,36.15-11.49-22.16-30.13-118.61-36.29-118.61-36.29l-7.18,9.57s-.05-.03-.05-.03l-4.26,4.26s.18.17.5.48l-.02.02c-.31-.32-.48-.5-.48-.5l-4.26,4.26s0,.02.03.05l-9.57,7.18s6.16,96.46,36.29,118.61Z"/>
      <path class="cls-6" d="M283.15,461.6c-20.27-20.27-53.15-20.27-73.42,0-20.27,20.27-20.27,53.15,0,73.42,20.27,20.27,53.15,20.27,73.42,0,20.27-20.27,20.27-53.15,0-73.42ZM237.89,506.86c-4.72-4.72-4.72-12.37,0-17.09,4.72-4.72,12.37-4.72,17.09,0,4.72,4.72,4.72,12.37,0,17.09-4.72,4.72-12.37,4.72-17.09,0Z"/>
      <circle class="cls-2" cx="245.87" cy="498.23" r="16.52"/>
    </g>
    <g>
      <path class="cls-7" d="M794.97,322.25c0,27.67-39.04,128.72-39.04,128.72,0,0-39.04-101.05-39.04-128.72,0-27.67,39.04-50.1,39.04-50.1,0,0,39.04,22.43,39.04,50.1Z"/>
      <path class="cls-7" d="M935.08,462.36c-27.67,0-128.72,39.04-128.72,39.04,0,0,101.05,39.04,128.72,39.04s50.1-39.04,50.1-39.04c0,0-22.43-39.04-50.1-39.04Z"/>
      <path class="cls-7" d="M577.89,539.32c27.67,0,128.72-39.04,128.72-39.04,0,0-101.05-39.04-128.72-39.04s-50.1,39.04-50.1,39.04c0,0,22.43,39.04,50.1,39.04Z"/>
      <path class="cls-7" d="M718,679.43c0-27.67,39.04-128.72,39.04-128.72,0,0,39.04,101.05,39.04,128.72s-39.04,50.1-39.04,50.1c0,0-39.04-22.43-39.04-50.1Z"/>
      <g>
        <path class="cls-6" d="M706.08,693.56c35.52-35.52,48.42-97.96,53.02-143.6-4.78.19-9.57-.29-14.24-1.43-8.94-2.17-17.43-6.75-24.41-13.73s-11.56-15.47-13.73-24.41c-1.13-4.67-1.61-9.47-1.43-14.24-45.65,4.6-108.09,17.5-143.6,53.02-60.64,60.64-40.93,185.33-40.93,185.33,0,0,124.69,19.71,185.33-40.93Z"/>
        <path class="cls-1" d="M694.37,680.19c33.41-33.41,45.86-92.11,50.49-131.66-8.94-2.17-17.43-6.75-24.41-13.73s-11.56-15.47-13.73-24.41c-39.54,4.63-98.24,17.08-131.66,50.49-53.66,53.66-40.46,159.77-40.46,159.77,0,0,106.11,13.2,159.77-40.46Z"/>
      </g>
      <path class="cls-8" d="M699.73,663.14s-11.03-13.52-11.49-36.15c-7.38,23.42-26.92,66.3-52.06,75.5,0,0-16.83-18.05-11.92-44.69-2.76,10.21-9.59,21.68-19.73,31.83-19.66,19.66-55.05,16.14-55.05,16.14,0,0-3.52-35.39,16.14-55.05,10.15-10.15,21.62-16.97,31.83-19.73-26.65,4.91-44.69-11.92-44.69-11.92,9.2-25.14,52.08-44.67,75.5-52.06-22.63-.46-36.15-11.49-36.15-11.49,22.16-30.13,118.61-36.29,118.61-36.29l7.18,9.57s.05-.03.05-.03l4.26,4.26s-.18.17-.5.48l.02.02c.31-.32.48-.5.48-.5l4.26,4.26s0,.02-.03.05l9.57,7.18s-6.16,96.46-36.29,118.61Z"/>
      <g>
        <path class="cls-6" d="M952.41,447.24c-35.52,35.52-97.96,48.42-143.6,53.02.19-4.78-.29-9.57-1.43-14.24-2.17-8.94-6.75-17.43-13.73-24.41-6.98-6.98-15.47-11.56-24.41-13.73-4.67-1.13-9.47-1.61-14.24-1.43,4.6-45.65,17.5-108.09,53.02-143.6,60.64-60.64,185.33-40.93,185.33-40.93,0,0,19.71,124.69-40.93,185.33Z"/>
        <path class="cls-1" d="M939.03,435.52c-33.41,33.41-92.11,45.86-131.66,50.49-2.17-8.94-6.75-17.43-13.73-24.41-6.98-6.98-15.47-11.56-24.41-13.73,4.63-39.54,17.08-98.24,50.49-131.66,53.66-53.66,159.77-40.46,159.77-40.46,0,0,13.2,106.11-40.46,159.77Z"/>
      </g>
      <path class="cls-8" d="M921.99,440.88s-13.52-11.03-36.15-11.49c23.42-7.38,66.3-26.92,75.5-52.06,0,0-18.05-16.83-44.69-11.92,10.21-2.76,21.68-9.59,31.83-19.73,19.66-19.66,16.14-55.05,16.14-55.05,0,0-35.39-3.52-55.05,16.14-10.15,10.15-16.97,21.62-19.73,31.83,4.91-26.65-11.92-44.69-11.92-44.69-25.14,9.2-44.67,52.08-52.06,75.5-.46-22.63-11.49-36.15-11.49-36.15-30.13,22.16-36.29,118.61-36.29,118.61l9.57,7.18s-.03.05-.03.05l4.26,4.26s.17-.18.48-.5l.02.02c-.32.31-.5.48-.5.48l4.26,4.26s.02,0,.05-.03l7.18,9.57s96.46-6.16,118.61-36.29Z"/>
      <g>
        <path class="cls-6" d="M561.69,447.24c35.52,35.52,97.96,48.42,143.6,53.02-.19-4.78.29-9.57,1.43-14.24,2.17-8.94,6.75-17.43,13.73-24.41,6.98-6.98,15.47-11.56,24.41-13.73,4.67-1.13,9.47-1.61,14.24-1.43-4.6-45.65-17.5-108.09-53.02-143.6-60.64-60.64-185.33-40.93-185.33-40.93,0,0-19.71,124.69,40.93,185.33Z"/>
        <path class="cls-1" d="M575.06,435.52c33.41,33.41,92.11,45.86,131.66,50.49,2.17-8.94,6.75-17.43,13.73-24.41,6.98-6.98,15.47-11.56,24.41-13.73-4.63-39.54-17.08-98.24-50.49-131.66-53.66-53.66-159.77-40.46-159.77-40.46,0,0-13.2,106.11,40.46,159.77Z"/>
      </g>
      <path class="cls-8" d="M592.11,440.88s13.52-11.03,36.15-11.49c-23.42-7.38-66.3-26.92-75.5-52.06,0,0,18.05-16.83,44.69-11.92-10.21-2.76-21.68-9.59-31.83-19.73-19.66-19.66-16.14-55.05-16.14-55.05,0,0,35.39-3.52,55.05,16.14,10.15,10.15,16.97,21.62,19.73,31.83-4.91-26.65,11.92-44.69,11.92-44.69,25.14,9.2,44.67,52.08,52.06,75.5.46-22.63,11.49-36.15,11.49-36.15,30.13,22.16,36.29,118.61,36.29,118.61l-9.57,7.18s.03.05.03.05l-4.26,4.26s-.17-.18-.48-.5l-.02.02c.32.31.5.48.5.48l-4.26,4.26s-.02,0-.05-.03l-7.18,9.57s-96.46-6.16-118.61-36.29Z"/>
      <g>
        <path class="cls-6" d="M808.01,693.56c-35.52-35.52-48.42-97.96-53.02-143.6,4.78.19,9.57-.29,14.24-1.43,8.94-2.17,17.43-6.75,24.41-13.73s11.56-15.47,13.73-24.41c1.13-4.67,1.61-9.47,1.43-14.24,45.65,4.6,108.09,17.5,143.6,53.02,60.64,60.64,40.93,185.33,40.93,185.33,0,0-124.69,19.71-185.33-40.93Z"/>
        <path class="cls-1" d="M819.73,680.19c-33.41-33.41-45.86-92.11-50.49-131.66,8.94-2.17,17.43-6.75,24.41-13.73s11.56-15.47,13.73-24.41c39.54,4.63,98.24,17.08,131.66,50.49,53.66,53.66,40.46,159.77,40.46,159.77,0,0-106.11,13.2-159.77-40.46Z"/>
      </g>
      <path class="cls-8" d="M814.36,663.14s11.03-13.52,11.49-36.15c7.38,23.42,26.92,66.3,52.06,75.5,0,0,16.83-18.05,11.92-44.69,2.76,10.21,9.59,21.68,19.73,31.83,19.66,19.66,55.05,16.14,55.05,16.14,0,0,3.52-35.39-16.14-55.05-10.15-10.15-21.62-16.97-31.83-19.73,26.65,4.91,44.69-11.92,44.69-11.92-9.2-25.14-52.08-44.67-75.5-52.06,22.63-.46,36.15-11.49,36.15-11.49-22.16-30.13-118.61-36.29-118.61-36.29l-7.18,9.57s-.05-.03-.05-.03l-4.26,4.26s.18.17.5.48l-.02.02c-.31-.32-.48-.5-.48-.5l-4.26,4.26s0,.02.03.05l-9.57,7.18s6.16,96.46,36.29,118.61Z"/>
      <path class="cls-6" d="M793.65,461.6c-20.27-20.27-53.15-20.27-73.42,0-20.27,20.27-20.27,53.15,0,73.42,20.27,20.27,53.15,20.27,73.42,0,20.27-20.27,20.27-53.15,0-73.42ZM748.39,506.86c-4.72-4.72-4.72-12.37,0-17.09,4.72-4.72,12.37-4.72,17.09,0,4.72,4.72,4.72,12.37,0,17.09s-12.37,4.72-17.09,0Z"/>
      <circle class="cls-2" cx="756.37" cy="498.23" r="16.52"/>
    </g>
  </g>
</svg>