<?xml version="1.0" encoding="UTF-8"?>
<svg id="Layer_1" data-name="Layer 1" xmlns="http://www.w3.org/2000/svg" viewBox="0 0 1000 1000">
  <defs>
    <style>
      .cls-1 {
        fill: #ffcf06;
      }

      .cls-2 {
        fill: #d1104d;
      }

      .cls-3 {
        fill: #eec519;
      }

      .cls-4 {
        fill: #170724;
      }
    </style>
  </defs>
  <g>
    <g>
      <g id="_Grid_Repeat_" data-name="&amp;lt;Grid Repeat&amp;gt;">
        <g>
          <path class="cls-1" d="M7.56,992.54h47.61s47.61-47.63,47.61-47.63v-47.61s-47.62,0-47.62,0l-47.61,47.62v47.61ZM76.06,924.01l-.24.24.24-.24c0,22.82-18.49,41.32-41.31,41.32l-.49.49.49-.49c0-22.82,18.49-41.32,41.31-41.32Z"/>
          <path class="cls-1" d="M7.52,795.32v47.61s47.63,47.61,47.63,47.61h47.61s0-47.62,0-47.62l-47.62-47.61H7.52ZM76.05,863.82l-.24-.24.24.24c-22.82,0-41.32-18.49-41.32-41.31l-.49-.49.49.49c22.82,0,41.32,18.49,41.32,41.31Z"/>
          <path class="cls-1" d="M204.74,795.29h-47.61s-47.61,47.63-47.61,47.63v47.61s47.62,0,47.62,0l47.61-47.62v-47.61ZM136.23,863.81l.24-.24-.24.24c0-22.82,18.49-41.32,41.31-41.32l.49-.49-.49.49c0,22.82-18.49,41.32-41.31,41.32Z"/>
          <path class="cls-1" d="M204.77,992.5v-47.61s-47.63-47.61-47.63-47.61h-47.61s0,47.62,0,47.62l47.62,47.61h47.61ZM136.24,924l.24.24-.24-.24c22.82,0,41.32,18.49,41.32,41.31l.49.49-.49-.49c-22.82,0-41.32-18.49-41.32-41.31Z"/>
        </g>
      </g>
      <g id="_Grid_Repeat_-2" data-name="&amp;lt;Grid Repeat&amp;gt;">
        <g>
          <path class="cls-1" d="M204.48,992.54h47.61s47.61-47.63,47.61-47.63v-47.61s-47.62,0-47.62,0l-47.61,47.62v47.61ZM272.98,924.01l-.24.24.24-.24c0,22.82-18.49,41.32-41.31,41.32l-.49.49.49-.49c0-22.82,18.49-41.32,41.31-41.32Z"/>
          <path class="cls-1" d="M204.45,795.32v47.61s47.63,47.61,47.63,47.61h47.61s0-47.62,0-47.62l-47.62-47.61h-47.61ZM272.97,863.82l-.24-.24.24.24c-22.82,0-41.32-18.49-41.32-41.31l-.49-.49.49.49c22.82,0,41.32,18.49,41.32,41.31Z"/>
          <path class="cls-1" d="M401.66,795.29h-47.61s-47.61,47.63-47.61,47.63v47.61s47.62,0,47.62,0l47.61-47.62v-47.61ZM333.16,863.81l.24-.24-.24.24c0-22.82,18.49-41.32,41.31-41.32l.49-.49-.49.49c0,22.82-18.49,41.32-41.31,41.32Z"/>
          <path class="cls-1" d="M401.7,992.5v-47.61s-47.63-47.61-47.63-47.61h-47.61s0,47.62,0,47.62l47.62,47.61h47.61ZM333.17,924l.24.24-.24-.24c22.82,0,41.32,18.49,41.32,41.31l.49.49-.49-.49c-22.82,0-41.32-18.49-41.32-41.31Z"/>
        </g>
      </g>
      <g id="_Grid_Repeat_-3" data-name="&amp;lt;Grid Repeat&amp;gt;">
        <g>
          <path class="cls-1" d="M401.41,992.54h47.61s47.61-47.63,47.61-47.63v-47.61s-47.62,0-47.62,0l-47.61,47.62v47.61ZM469.91,924.01l-.24.24.24-.24c0,22.82-18.49,41.32-41.31,41.32l-.49.49.49-.49c0-22.82,18.49-41.32,41.31-41.32Z"/>
          <path class="cls-1" d="M401.37,795.32v47.61s47.63,47.61,47.63,47.61h47.61s0-47.62,0-47.62l-47.62-47.61h-47.61ZM469.9,863.82l-.24-.24.24.24c-22.82,0-41.32-18.49-41.32-41.31l-.49-.49.49.49c22.82,0,41.32,18.49,41.32,41.31Z"/>
          <path class="cls-1" d="M598.59,795.29h-47.61s-47.61,47.63-47.61,47.63v47.61s47.62,0,47.62,0l47.61-47.62v-47.61ZM530.09,863.81l.24-.24-.24.24c0-22.82,18.49-41.32,41.31-41.32l.49-.49-.49.49c0,22.82-18.49,41.32-41.31,41.32Z"/>
          <path class="cls-1" d="M598.63,992.5v-47.61s-47.63-47.61-47.63-47.61h-47.61s0,47.62,0,47.62l47.62,47.61h47.61ZM530.1,924l.24.24-.24-.24c22.82,0,41.32,18.49,41.32,41.31l.49.49-.49-.49c-22.82,0-41.32-18.49-41.32-41.31Z"/>
        </g>
      </g>
      <g id="_Grid_Repeat_-4" data-name="&amp;lt;Grid Repeat&amp;gt;">
        <g>
          <path class="cls-1" d="M598.34,992.54h47.61s47.61-47.63,47.61-47.63v-47.61s-47.62,0-47.62,0l-47.61,47.62v47.61ZM666.84,924.01l-.24.24.24-.24c0,22.82-18.49,41.32-41.31,41.32l-.49.49.49-.49c0-22.82,18.49-41.32,41.31-41.32Z"/>
          <path class="cls-1" d="M598.3,795.32v47.61s47.63,47.61,47.63,47.61h47.61s0-47.62,0-47.62l-47.62-47.61h-47.61ZM666.83,863.82l-.24-.24.24.24c-22.82,0-41.32-18.49-41.32-41.31l-.49-.49.49.49c22.82,0,41.32,18.49,41.32,41.31Z"/>
          <path class="cls-1" d="M795.52,795.29h-47.61s-47.61,47.63-47.61,47.63v47.61s47.62,0,47.62,0l47.61-47.62v-47.61ZM727.02,863.81l.24-.24-.24.24c0-22.82,18.49-41.32,41.31-41.32l.49-.49-.49.49c0,22.82-18.49,41.32-41.31,41.32Z"/>
          <path class="cls-1" d="M795.55,992.5v-47.61s-47.63-47.61-47.63-47.61h-47.61s0,47.62,0,47.62l47.62,47.61h47.61ZM727.03,924l.24.24-.24-.24c22.82,0,41.32,18.49,41.32,41.31l.49.49-.49-.49c-22.82,0-41.32-18.49-41.32-41.31Z"/>
        </g>
      </g>
      <g id="_Grid_Repeat_-5" data-name="&amp;lt;Grid Repeat&amp;gt;">
        <g>
          <path class="cls-1" d="M795.26,992.54h47.61s47.61-47.63,47.61-47.63v-47.61s-47.62,0-47.62,0l-47.61,47.62v47.61ZM863.77,924.01l-.24.24.24-.24c0,22.82-18.49,41.32-41.31,41.32l-.49.49.49-.49c0-22.82,18.49-41.32,41.31-41.32Z"/>
          <path class="cls-1" d="M795.23,795.32v47.61s47.63,47.61,47.63,47.61h47.61s0-47.62,0-47.62l-47.62-47.61h-47.61ZM863.76,863.82l-.24-.24.24.24c-22.82,0-41.32-18.49-41.32-41.31l-.49-.49.49.49c22.82,0,41.32,18.49,41.32,41.31Z"/>
          <path class="cls-1" d="M992.44,795.29h-47.61s-47.61,47.63-47.61,47.63v47.61s47.62,0,47.62,0l47.61-47.62v-47.61ZM923.94,863.81l.24-.24-.24.24c0-22.82,18.49-41.32,41.31-41.32l.49-.49-.49.49c0,22.82-18.49,41.32-41.31,41.32Z"/>
          <path class="cls-1" d="M992.48,992.5v-47.61s-47.63-47.61-47.63-47.61h-47.61s0,47.62,0,47.62l47.62,47.61h47.61ZM923.95,924l.24.24-.24-.24c22.82,0,41.32,18.49,41.32,41.31l.49.49-.49-.49c-22.82,0-41.32-18.49-41.32-41.31Z"/>
        </g>
      </g>
    </g>
    <g>
      <g id="_Grid_Repeat_-6" data-name="&amp;lt;Grid Repeat&amp;gt;">
        <g>
          <path class="cls-1" d="M7.56,204.71h47.61s47.61-47.63,47.61-47.63v-47.61s-47.62,0-47.62,0L7.55,157.1v47.61ZM76.06,136.19l-.24.24.24-.24c0,22.82-18.49,41.32-41.31,41.32l-.49.49.49-.49c0-22.82,18.49-41.32,41.31-41.32Z"/>
          <path class="cls-1" d="M7.52,7.5v47.61s47.63,47.61,47.63,47.61h47.61s0-47.62,0-47.62L55.13,7.49H7.52ZM76.05,76l-.24-.24.24.24c-22.82,0-41.32-18.49-41.32-41.31l-.49-.49.49.49c22.82,0,41.32,18.49,41.32,41.31Z"/>
          <path class="cls-1" d="M204.74,7.46h-47.61s-47.61,47.63-47.61,47.63v47.61s47.62,0,47.62,0l47.61-47.62V7.46ZM136.23,75.99l.24-.24-.24.24c0-22.82,18.49-41.32,41.31-41.32l.49-.49-.49.49c0,22.82-18.49,41.32-41.31,41.32Z"/>
          <path class="cls-1" d="M204.77,204.68v-47.61s-47.63-47.61-47.63-47.61h-47.61s0,47.62,0,47.62l47.62,47.61h47.61ZM136.24,136.18l.24.24-.24-.24c22.82,0,41.32,18.49,41.32,41.31l.49.49-.49-.49c-22.82,0-41.32-18.49-41.32-41.31Z"/>
        </g>
      </g>
      <g id="_Grid_Repeat_-7" data-name="&amp;lt;Grid Repeat&amp;gt;">
        <g>
          <path class="cls-1" d="M204.48,204.71h47.61s47.61-47.63,47.61-47.63v-47.61s-47.62,0-47.62,0l-47.61,47.62v47.61ZM272.98,136.19l-.24.24.24-.24c0,22.82-18.49,41.32-41.31,41.32l-.49.49.49-.49c0-22.82,18.49-41.32,41.31-41.32Z"/>
          <path class="cls-1" d="M204.45,7.5v47.61s47.63,47.61,47.63,47.61h47.61s0-47.62,0-47.62L252.06,7.49h-47.61ZM272.97,76l-.24-.24.24.24c-22.82,0-41.32-18.49-41.32-41.31l-.49-.49.49.49c22.82,0,41.32,18.49,41.32,41.31Z"/>
          <path class="cls-1" d="M401.66,7.46h-47.61s-47.61,47.63-47.61,47.63v47.61s47.62,0,47.62,0l47.61-47.62V7.46ZM333.16,75.99l.24-.24-.24.24c0-22.82,18.49-41.32,41.31-41.32l.49-.49-.49.49c0,22.82-18.49,41.32-41.31,41.32Z"/>
          <path class="cls-1" d="M401.7,204.68v-47.61s-47.63-47.61-47.63-47.61h-47.61s0,47.62,0,47.62l47.62,47.61h47.61ZM333.17,136.18l.24.24-.24-.24c22.82,0,41.32,18.49,41.32,41.31l.49.49-.49-.49c-22.82,0-41.32-18.49-41.32-41.31Z"/>
        </g>
      </g>
      <g id="_Grid_Repeat_-8" data-name="&amp;lt;Grid Repeat&amp;gt;">
        <g>
          <path class="cls-1" d="M401.41,204.71h47.61s47.61-47.63,47.61-47.63v-47.61s-47.62,0-47.62,0l-47.61,47.62v47.61ZM469.91,136.19l-.24.24.24-.24c0,22.82-18.49,41.32-41.31,41.32l-.49.49.49-.49c0-22.82,18.49-41.32,41.31-41.32Z"/>
          <path class="cls-1" d="M401.37,7.5v47.61s47.63,47.61,47.63,47.61h47.61s0-47.62,0-47.62l-47.62-47.61h-47.61ZM469.9,76l-.24-.24.24.24c-22.82,0-41.32-18.49-41.32-41.31l-.49-.49.49.49c22.82,0,41.32,18.49,41.32,41.31Z"/>
          <path class="cls-1" d="M598.59,7.46h-47.61s-47.61,47.63-47.61,47.63v47.61s47.62,0,47.62,0l47.61-47.62V7.46ZM530.09,75.99l.24-.24-.24.24c0-22.82,18.49-41.32,41.31-41.32l.49-.49-.49.49c0,22.82-18.49,41.32-41.31,41.32Z"/>
          <path class="cls-1" d="M598.63,204.68v-47.61s-47.63-47.61-47.63-47.61h-47.61s0,47.62,0,47.62l47.62,47.61h47.61ZM530.1,136.18l.24.24-.24-.24c22.82,0,41.32,18.49,41.32,41.31l.49.49-.49-.49c-22.82,0-41.32-18.49-41.32-41.31Z"/>
        </g>
      </g>
      <g id="_Grid_Repeat_-9" data-name="&amp;lt;Grid Repeat&amp;gt;">
        <g>
          <path class="cls-1" d="M598.34,204.71h47.61s47.61-47.63,47.61-47.63v-47.61s-47.62,0-47.62,0l-47.61,47.62v47.61ZM666.84,136.19l-.24.24.24-.24c0,22.82-18.49,41.32-41.31,41.32l-.49.49.49-.49c0-22.82,18.49-41.32,41.31-41.32Z"/>
          <path class="cls-1" d="M598.3,7.5v47.61s47.63,47.61,47.63,47.61h47.61s0-47.62,0-47.62l-47.62-47.61h-47.61ZM666.83,76l-.24-.24.24.24c-22.82,0-41.32-18.49-41.32-41.31l-.49-.49.49.49c22.82,0,41.32,18.49,41.32,41.31Z"/>
          <path class="cls-1" d="M795.52,7.46h-47.61s-47.61,47.63-47.61,47.63v47.61s47.62,0,47.62,0l47.61-47.62V7.46ZM727.02,75.99l.24-.24-.24.24c0-22.82,18.49-41.32,41.31-41.32l.49-.49-.49.49c0,22.82-18.49,41.32-41.31,41.32Z"/>
          <path class="cls-1" d="M795.55,204.68v-47.61s-47.63-47.61-47.63-47.61h-47.61s0,47.62,0,47.62l47.62,47.61h47.61ZM727.03,136.18l.24.24-.24-.24c22.82,0,41.32,18.49,41.32,41.31l.49.49-.49-.49c-22.82,0-41.32-18.49-41.32-41.31Z"/>
        </g>
      </g>
      <g id="_Grid_Repeat_-10" data-name="&amp;lt;Grid Repeat&amp;gt;">
        <g>
          <path class="cls-1" d="M795.26,204.71h47.61s47.61-47.63,47.61-47.63v-47.61s-47.62,0-47.62,0l-47.61,47.62v47.61ZM863.77,136.19l-.24.24.24-.24c0,22.82-18.49,41.32-41.31,41.32l-.49.49.49-.49c0-22.82,18.49-41.32,41.31-41.32Z"/>
          <path class="cls-1" d="M795.23,7.5v47.61s47.63,47.61,47.63,47.61h47.61s0-47.62,0-47.62l-47.62-47.61h-47.61ZM863.76,76l-.24-.24.24.24c-22.82,0-41.32-18.49-41.32-41.31l-.49-.49.49.49c22.82,0,41.32,18.49,41.32,41.31Z"/>
          <path class="cls-1" d="M992.44,7.46h-47.61s-47.61,47.63-47.61,47.63v47.61s47.62,0,47.62,0l47.61-47.62V7.46ZM923.94,75.99l.24-.24-.24.24c0-22.82,18.49-41.32,41.31-41.32l.49-.49-.49.49c0,22.82-18.49,41.32-41.31,41.32Z"/>
          <path class="cls-1" d="M992.48,204.68v-47.61s-47.63-47.61-47.63-47.61h-47.61s0,47.62,0,47.62l47.62,47.61h47.61ZM923.95,136.18l.24.24-.24-.24c22.82,0,41.32,18.49,41.32,41.31l.49.49-.49-.49c-22.82,0-41.32-18.49-41.32-41.31Z"/>
        </g>
      </g>
    </g>
  </g>
  <g>
    <g>
      <g>
        <path class="cls-4" d="M381.59,529.16c0,95.15-43.14,174.56-100.69,193.58-8.5-2.9-17.38-6.68-26.57-11.27-9.19,4.6-18.07,8.38-26.57,11.27-57.62-18.95-100.76-98.43-100.76-193.58,0-3.59.13-7.18.44-10.7,7.81-104.34,126.89-187.22,126.89-187.22,0,0,119.08,82.87,126.83,187.22.31,3.53.44,7.12.44,10.7Z"/>
        <path class="cls-3" d="M280.88,727.12l-1.32-.45c-8.03-2.74-16.52-6.29-25.23-10.57-8.72,4.27-17.2,7.82-25.23,10.57l-1.32.45-1.32-.44c-60.04-19.74-103.61-102.81-103.61-197.52,0-3.71.13-7.43.46-11.07,7.86-105.05,123.73-186.83,128.66-190.26l2.37-1.65,2.37,1.65c4.93,3.43,120.79,85.21,128.6,190.32.32,3.59.45,7.3.45,11.01,0,94.62-43.55,177.69-103.54,197.52l-1.32.44ZM254.32,336.37c-16.71,12.35-115.78,89.35-122.75,182.4-.31,3.46-.43,6.92-.43,10.39,0,90.51,40.54,169.73,96.58,189.18,7.86-2.75,16.17-6.31,24.73-10.59l1.86-.94,1.86.94c8.55,4.28,16.86,7.84,24.73,10.59,56.01-19.52,96.52-98.74,96.52-189.18,0-3.47-.12-6.93-.42-10.33-6.91-93.1-105.97-170.1-122.69-182.46Z"/>
      </g>
      <g>
        <path class="cls-2" d="M173.47,511.29c0-69.39,80.82-125.65,80.82-125.65,0,0,80.82,56.25,80.82,125.65,0,69.39-36.18,125.65-80.82,125.65-44.63,0-80.82-56.25-80.82-125.65Z"/>
        <path class="cls-3" d="M254.29,641.11c-46.86,0-84.97-58.24-84.97-129.81s79.23-126.71,82.6-129.06l2.38-1.65,2.38,1.65c3.37,2.35,82.6,58.31,82.6,129.06s-38.12,129.81-84.98,129.81ZM254.29,390.8c-13.19,9.91-76.66,60.71-76.66,120.49,0,66.99,34.39,121.49,76.66,121.49s76.66-54.5,76.66-121.49c0-59.79-63.47-110.58-76.66-120.49Z"/>
      </g>
      <g>
        <path class="cls-4" d="M381.15,518.45c-7.81,6.55-14.8,14.8-20.47,25.25-53.34,99.12-106.36,93.26-106.36,93.26,0,0-53.09,5.86-106.42-93.26-5.67-10.45-12.66-18.7-20.47-25.25-43.77-36.52-113.35-17.76-113.35-17.76,0,0,31.86,53.4,40.87,106.8,8.37,49.62,58.81,154.53,172.8,115.24,8.5-2.9,17.38-6.68,26.57-11.27,9.19,4.6,18.07,8.38,26.57,11.27,113.92,39.29,164.36-65.62,172.73-115.24,9.01-53.4,40.87-106.8,40.87-106.8,0,0-69.58-18.77-113.35,17.76Z"/>
        <path class="cls-3" d="M179.94,735.55c-20.62,0-39.76-5.19-57.24-15.57-46.48-27.6-67.03-83.25-71.84-111.79-8.76-51.99-40.02-104.84-40.34-105.36l-2.81-4.72,5.3-1.43c2.92-.8,72.18-18.91,117.1,18.59,8.65,7.25,15.87,16.15,21.46,26.46,51.09,94.95,101.85,91.07,102.34,91.1l.43-.04.46.04c.5.14,51.16,3.83,102.24-91.09,5.6-10.33,12.81-19.22,21.46-26.47h0c44.93-37.49,114.18-19.38,117.1-18.59l5.3,1.43-2.81,4.72c-.32.52-31.57,53.37-40.34,105.36-4.82,28.55-25.38,84.22-71.86,111.81-30.65,18.18-66.42,20.44-106.33,6.66-8.02-2.73-16.5-6.28-25.22-10.56-8.72,4.27-17.2,7.82-25.23,10.57-17.17,5.92-33.59,8.88-49.15,8.88ZM20.49,503.52c8.11,14.56,31.02,58.54,38.56,103.29,4.58,27.12,24.03,79.97,67.89,106.02,28.47,16.9,61.92,18.91,99.45,5.98,8.26-2.82,17.03-6.53,26.07-11.06l1.86-.94,1.86.94c9.04,4.52,17.81,8.24,26.05,11.05,37.49,12.93,70.93,10.94,99.39-5.95,43.86-26.03,63.32-78.9,67.9-106.04,7.54-44.74,30.46-88.73,38.56-103.28-16.8-3.35-69.56-10.85-104.28,18.12-7.84,6.57-14.39,14.66-19.48,24.04-52.07,96.78-104.28,95.94-110.01,95.45-5.81.54-58.02,1.28-110.09-95.46-5.08-9.38-11.64-17.47-19.47-24.03-34.72-28.97-87.47-21.48-104.27-18.12Z"/>
      </g>
      <path class="cls-3" d="M254.35,492.09c-14.39,0-17.94,19.2-17.94,19.2,0,0,7.11-6.11,17.85-6.11,11.81,0,17.9,6.11,17.9,6.11,0,0-3.74-19.2-17.81-19.2Z"/>
      <path class="cls-3" d="M254.34,468.69c-11.5,0-14.34,15.35-14.34,15.35,0,0,5.69-4.88,14.27-4.88,9.45,0,14.31,4.88,14.31,4.88,0,0-2.99-15.35-14.24-15.35Z"/>
    </g>
    <g>
      <g>
        <path class="cls-4" d="M873.01,470.83c0-95.15-43.14-174.56-100.69-193.58-8.5,2.9-17.38,6.68-26.57,11.27-9.19-4.6-18.07-8.38-26.57-11.27-57.62,18.95-100.76,98.43-100.76,193.58,0,3.59.13,7.18.44,10.7,7.81,104.34,126.89,187.22,126.89,187.22,0,0,119.08-82.87,126.83-187.22.31-3.53.44-7.12.44-10.7Z"/>
        <path class="cls-3" d="M745.74,673.82l-2.37-1.65c-4.93-3.43-120.79-85.21-128.66-190.32-.32-3.59-.45-7.3-.45-11.01,0-94.71,43.58-177.78,103.61-197.52l1.32-.44,1.32.45c8.02,2.73,16.5,6.28,25.23,10.57,8.73-4.28,17.21-7.83,25.23-10.57l1.32-.45,1.32.44c60,19.83,103.54,102.89,103.54,197.52,0,3.71-.13,7.43-.46,11.07-7.8,105.05-123.66,186.83-128.59,190.26l-2.37,1.65ZM719.15,281.65c-56.04,19.45-96.58,98.66-96.58,189.18,0,3.47.12,6.93.42,10.33,6.97,93.1,106.04,170.1,122.75,182.46,16.71-12.35,115.77-89.35,122.68-182.4.31-3.46.43-6.92.43-10.39,0-90.44-40.51-169.65-96.52-189.18-7.85,2.75-16.16,6.31-24.73,10.59l-1.86.94-1.86-.94c-8.57-4.28-16.88-7.84-24.73-10.59Z"/>
      </g>
      <g>
        <path class="cls-2" d="M664.89,488.7c0,69.39,80.82,125.65,80.82,125.65,0,0,80.82-56.25,80.82-125.65,0-69.39-36.18-125.65-80.82-125.65-44.63,0-80.82,56.25-80.82,125.65Z"/>
        <path class="cls-3" d="M745.71,619.41l-2.38-1.65c-3.37-2.35-82.6-58.31-82.6-129.06s38.12-129.81,84.97-129.81,84.97,58.24,84.97,129.81-79.23,126.71-82.6,129.06l-2.38,1.65ZM745.71,367.21c-42.27,0-76.66,54.5-76.66,121.49,0,59.79,63.47,110.58,76.66,120.49,13.19-9.91,76.66-60.71,76.66-120.49,0-66.99-34.39-121.49-76.66-121.49Z"/>
      </g>
      <g>
        <path class="cls-4" d="M872.57,481.54c-7.81-6.55-14.8-14.8-20.47-25.25-53.34-99.12-106.36-93.26-106.36-93.26,0,0-53.09-5.86-106.42,93.26-5.67,10.45-12.66,18.7-20.47,25.25-43.77,36.52-113.35,17.76-113.35,17.76,0,0,31.86-53.4,40.87-106.8,8.37-49.62,58.81-154.53,172.8-115.24,8.5,2.9,17.38,6.68,26.57,11.27,9.19-4.6,18.07-8.38,26.57-11.27,113.92-39.29,164.36,65.62,172.73,115.24,9.01,53.4,40.87,106.8,40.87,106.8,0,0-69.58,18.77-113.35-17.76Z"/>
        <path class="cls-3" d="M944.64,508.37c-23.37,0-52.14-4.78-74.73-23.64h0c-8.64-7.24-15.85-16.14-21.45-26.45-51.1-94.96-101.76-91.08-102.28-91.11l-.43.04-.46-.04c-.52-.16-51.24-3.82-102.31,91.09-5.6,10.33-12.81,19.22-21.46,26.47-44.92,37.47-114.18,19.38-117.11,18.59l-5.3-1.43,2.81-4.72c.32-.52,31.58-53.37,40.34-105.36,4.82-28.54,25.37-84.2,71.84-111.79,30.66-18.19,66.47-20.44,106.4-6.68,8.01,2.73,16.49,6.28,25.22,10.56,8.73-4.28,17.21-7.83,25.23-10.57,39.89-13.75,75.66-11.52,106.32,6.68,46.48,27.59,67.03,83.26,71.85,111.8,8.77,51.99,40.02,104.84,40.34,105.36l2.81,4.72-5.3,1.43c-1.45.4-19.28,5.06-42.36,5.06ZM875.23,478.35c34.73,28.99,87.48,21.49,104.28,18.12-8.11-14.56-31.02-58.54-38.56-103.29-4.58-27.13-24.03-79.99-67.9-106.03-28.45-16.89-61.88-18.89-99.38-5.96-8.25,2.81-17.01,6.53-26.07,11.06l-1.86.94-1.86-.94c-9.05-4.52-17.82-8.24-26.05-11.05-37.52-12.94-70.99-10.93-99.46,5.97-43.86,26.04-63.31,78.89-67.89,106.02-7.54,44.75-30.46,88.73-38.57,103.29,16.8,3.36,69.55,10.86,104.28-18.12,7.83-6.57,14.38-14.66,19.47-24.04,52.05-96.73,104.3-95.84,110.08-95.45,5.77-.46,57.94-1.33,110.02,95.46,5.09,9.38,11.64,17.47,19.47,24.03h0Z"/>
      </g>
      <path class="cls-3" d="M745.77,507.9c-14.39,0-17.94-19.2-17.94-19.2,0,0,7.11,6.11,17.85,6.11,11.81,0,17.9-6.11,17.9-6.11,0,0-3.74,19.2-17.81,19.2Z"/>
      <path class="cls-3" d="M745.76,531.3c-11.5,0-14.34-15.35-14.34-15.35,0,0,5.69,4.88,14.27,4.88,9.45,0,14.31-4.88,14.31-4.88,0,0-2.99,15.35-14.24,15.35Z"/>
    </g>
  </g>
</svg>