<?xml version="1.0" encoding="UTF-8"?>
<svg id="Layer_1" data-name="Layer 1" xmlns="http://www.w3.org/2000/svg" viewBox="0 0 1000 1000">
  <defs>
    <style>
      .cls-1 {
        fill: #fdb21a;
      }

      .cls-2 {
        fill: #f8ecdb;
      }

      .cls-3 {
        fill: #631522;
      }

      .cls-4 {
        fill: #931e21;
      }

      .cls-5 {
        fill: #980e0c;
      }

      .cls-6 {
        fill: #ffb600;
      }

      .cls-7 {
        fill: #b77116;
      }

      .cls-8 {
        fill: #ffae2c;
      }
    </style>
  </defs>
  <g>
    <g>
      <path class="cls-6" d="M101.21,580.82c-8.74-14.52-24.44-24.18-42.22-24.18-27.58,0-49.47,22.33-51.49,52.14-.22,2.86-.52,8.57-.52,11.43.35,48.46,48.14,85.09,96.97,70.8,32.98-9.65,54.36-40.68,53.82-76.11-.1-6.33-.91-12.4-2.38-18.26,0,0,16.74,30.75,9.36,50.12-7.38,19.37,5.11,39.91,18.41,44.73,16.84,6.11,47.04,5.86,61.27-16.29,9.98-15.54,9.27-24.88,9.05-28.88-.02-.44.55-.61.76-.23,3.68,6.76,14.59,31.11-9.34,45.79,0,0,29.75,10.75,60.5-5.89,30.37-16.43,15.84-53.22,5.69-61.55-11.23-9.23-23.73-7.81-42.73-6.66-12.1.74-24.53.9-37.89-5.1-2.63-1.18-5.12-2.35-7.39-3.45-3.9-1.89-7.6-4.23-11-6.97-3.38-2.72-6.46-5.84-9.13-9.3-2.66-3.44-4.91-7.21-6.64-11.23-2.17-5.03-3.5-10.43-4.01-15.91-.07-.74-.11-1.48-.11-2.22,0-.15.1-.79.03-.89.52.7,1.12,1.47,1.79,2.32,4.11,5.18,8.67,9.89,13.53,14.21,7.25,6.33,18.76,15.53,28.62,19.7,11.21,4.79,23.09,8.5,35.8,9.66,3.44.39,6.88.54,10.39.54,3.76,0,7.52-.2,11.26-.58,9.19-.94,18.28-2.99,27.01-6.11,8.12-2.9,15.43-6.62,22.36-11.96,2.82-2.17,5.85-5.18,7.84-8.1,2.23-3.27,4.95-6.33,8.67-7.72,7.53-2.81,17.12-.9,23.75,3.49,3.13,2.07,5.77,4.9,7.47,8.33,1.19,2.4,1.82,5.08,2.1,7.75.46,4.3.38,8.55-1.06,12.64-1,2.84-2.52,5.47-4.42,7.76-.99,1.19-2.07,2.34-3.29,3.28,0,0-4.94-10.74-7.97-14.24-4.77-5.51-13.39-8.57-21.13-7.86-18.4,1.67-24.72,15.49-27.16,26.61-3.01,13.71.9,27.98,8.95,39.32,14.66,20.66,36.67,31.63,63.98,28.5,33.4-3.86,60.46-32.14,63.82-66.67,1.94-19.78-3.66-38.55-14.35-52.92,2.02.39,4.04.54,6.13.54,28.47,0,50.37-28.35,40.88-59.25-5.6-18.08-22.49-29.9-40.88-29.9h-.37c15.39-6.57,25.86-23.17,23.69-42.02-1.27-11.51-7.92-21.94-17.26-28.35-11.51-8.03-23.69-8.27-33.78-4.87,5.46-7.34,8.37-16.69,7.47-26.88-1.49-15.68-12.78-29.28-27.58-32.99-9.12-2.24-17.93-.93-25.33,3.01,1.64-5.79,1.49-12.51-1.42-19-3.14-6.95-9.34-12.13-16.52-13.98-16.29-4.09-31.01,8.19-31.69,24.18-17.56-15.6-40.35-24.95-65.24-24.95-3.14,0-6.28-.08-9.34.23,0,0-4.11.31-8.74,1.47-21.45,6.64-40.73,18.46-56.64,33.99l-4.71,4.48c-16.37,17.07-26.45,40.48-26.45,66.36,0,15.37,3.59,29.97,10.01,42.87,2.17,4.25,4.48,8.42,7.17,12.36,2.26,3.31,4.72,6.45,7.36,9.38,20.32,22.63,52.9,36.43,81.42,24.99,15.1-6.06,29.8-16.8,37.67-31.43,6.97-12.96,7.53-31.79,4.54-46.45-.6-2.92-1.49-5.78-2.75-8.47-1.35,1.39-2.91,2.63-4.63,3.63-3.21,2.01-7.02,3.09-11.13,3.09-9.12,0-17.04-5.64-20.48-13.83-.07-.15-.15-.31-.22-.46-1.05-2.7-1.64-5.72-1.64-8.81,0-3.4.67-6.64,2.02-9.58,8.07-17.54,30.42-18.62,45.88-12.28,19.73,8.11,27.05,30.59,30.42,50.44,1.42,8.27,1.79,16.84,1.05,25.41-1.94,23.56-11.43,47.51-29.14,63.11-19.73,17.3-47.98,23.79-73.24,21.32-16.81-1.7-32.66-6.64-47.38-15.22-10.91-6.33-20.63-14.52-28.85-24.1-8.67-9.97-15.77-21.4-20.77-33.99-3.36-8.34-5.83-17.23-7.25-26.5-.97-6.18-1.49-12.59-1.49-19.08,0-4.25.22-8.5.67-12.67,5.31-52.38,43.34-94.63,92.59-104.52-2.84-.31-5.68-.39-8.59-.39-22.72,0-43.94,6.8-61.8,18.54,7.55-9.04,16.44-16.92,26.3-23.25-1.52.97-5.86.5-7.71.72-2.64.32-5.28.72-7.9,1.19-5.18.93-10.3,2.16-15.35,3.68-9.91,2.98-19.51,7.09-28.57,12.21-17.88,10.1-33.61,24.15-45.89,40.95-15.91,21.75-25.88,48.27-28.38,75.42-2.15,23.27.86,47.17,9.31,68.89,3.13,8.04,7.13,15.71,12.07,22.72,3.91,5.58,8.57,10.52,12.7,15.92,4.18,5.47,6.84,11.6,8.58,18.33.58,2.26,1.05,4.56,1.42,6.87.19,1.17.34,2.35.48,3.53l.32,3.5Z"/>
      <path class="cls-7" d="M268.11,697.41c-13.66,0-23.16-3.33-23.85-3.58l-4-1.45,3.65-2.23c17.56-10.77,15.04-27.17,11.42-36.88-.63,5.32-2.75,13-9.24,23.09-15.24,23.72-47.09,23.07-63.57,17.08-7.47-2.71-14.56-9.95-18.52-18.9-4.14-9.34-4.52-19.47-1.08-28.5,3.96-10.39.46-24.53-3.31-34.85.07,1.23.12,2.46.14,3.69.56,36.88-21.64,68.27-55.25,78.1-24.31,7.11-49.72,2.3-69.69-13.19-18.76-14.55-29.62-36.26-29.79-59.56,0-3,.31-8.78.53-11.61,2.08-30.79,25.06-54.02,53.45-54.02,15.4,0,29.62,6.87,39.35,18.7-.34-1.99-.76-3.96-1.24-5.85-1.8-6.95-4.49-12.7-8.22-17.59-1.69-2.21-3.52-4.4-5.28-6.52-2.52-3.02-5.13-6.15-7.46-9.47-4.89-6.93-9.03-14.72-12.31-23.15-8.4-21.6-11.66-45.75-9.44-69.84,2.52-27.38,12.74-54.54,28.77-76.45,12.42-16.97,28.5-31.33,46.52-41.51,9.18-5.19,18.93-9.35,28.97-12.37,5.09-1.53,10.32-2.79,15.56-3.73,2.65-.48,5.35-.89,8.01-1.21.71-.09,1.62-.09,2.65-.09,1.23-.01,3.66,0,4.26-.35l2.08,3.47c-5.91,3.8-11.46,8.14-16.58,12.99,15.83-7.91,33.23-12.05,51.04-12.05,3.56,0,6.27.12,8.8.4l13.13,1.43-12.96,2.6c-48.44,9.73-85.86,51.97-91.01,102.73-.44,4.1-.66,8.29-.66,12.46,0,6.24.5,12.55,1.47,18.75,1.37,8.96,3.77,17.72,7.12,26.04,4.83,12.14,11.7,23.38,20.42,33.41,8.21,9.57,17.75,17.53,28.34,23.69,14.14,8.24,29.82,13.27,46.61,14.97,27.03,2.64,53.87-5.15,71.76-20.85,16.01-14.1,26.39-36.61,28.46-61.73.72-8.34.38-16.71-1.02-24.89-4.52-26.69-14.07-42.69-29.2-48.9-15.57-6.38-36.07-4.6-43.37,11.26-1.21,2.64-1.83,5.57-1.83,8.7,0,2.73.52,5.51,1.5,8.05l.2.41c3.21,7.66,10.54,12.6,18.67,12.6,3.69,0,7.19-.97,10.11-2.8,1.6-.94,3.02-2.05,4.26-3.33l1.97-2.03,1.21,2.59c1.27,2.72,2.24,5.73,2.9,8.94,2.79,13.68,3.01,33.44-4.75,47.87-7.33,13.63-21.42,25.41-38.67,32.34-30.81,12.36-64.17-3.9-83.58-25.5-2.7-3.01-5.23-6.24-7.53-9.6-2.39-3.5-4.71-7.5-7.31-12.58-6.7-13.46-10.24-28.6-10.24-43.83,0-25.53,9.6-49.61,27.03-67.79l4.77-4.54c16.37-15.96,36.23-27.88,57.42-34.44,4.84-1.21,8.99-1.54,9.17-1.55,2.6-.26,5.3-.25,7.92-.24h1.57c23.2,0,45.68,8.15,63.69,23.03,1.23-6.88,4.92-13.07,10.46-17.37,6.59-5.12,15.07-6.88,23.24-4.82,7.82,2.02,14.48,7.67,17.84,15.1,2.32,5.16,3.13,10.84,2.38,16.35,7.23-2.91,15.12-3.43,23.04-1.48,15.55,3.89,27.5,18.19,29.08,34.77.74,8.38-1,16.64-4.94,23.77,10.6-2.14,21.22.1,30.39,6.49,10.04,6.89,16.82,18.04,18.12,29.81,1.88,16.32-5.58,32.14-18.56,40.73,16.68,2.56,30.99,14.51,36.04,30.8,4.61,15.02,2.3,30.63-6.34,42.83-8.46,11.95-22.07,19.08-36.42,19.08-.66,0-1.3-.02-1.93-.05,9.6,14.71,13.89,32.5,12.11,50.59-3.48,35.69-31.05,64.49-65.56,68.49-26.83,3.06-50.19-7.34-65.79-29.32-8.87-12.51-12.26-27.44-9.28-40.98,3.81-17.31,13.53-26.79,28.91-28.19,8.53-.78,17.68,2.65,22.77,8.53,2.28,2.64,5.45,8.85,7.13,12.31.38-.4.76-.83,1.16-1.31,1.8-2.18,3.16-4.57,4.06-7.13,1.15-3.27,1.45-6.99.95-11.72-.29-2.72-.92-5.08-1.9-7.04-1.48-2.98-3.82-5.59-6.78-7.55-6.65-4.4-15.5-5.73-22.02-3.29-2.75,1.03-5.13,3.18-7.73,6.98-1.98,2.9-5.08,6.1-8.28,8.56-6.74,5.19-14.01,9.08-22.89,12.25-8.87,3.16-18.11,5.25-27.46,6.21-3.81.39-7.67.59-11.45.59s-7.3-.18-10.6-.55c-11.45-1.04-23.35-4.25-36.33-9.8-9.97-4.21-21.35-13.21-29.14-20.02-4.25-3.78-8.13-7.74-11.58-11.8.66,4.16,1.8,8.15,3.42,11.89,1.64,3.8,3.79,7.43,6.38,10.79,2.54,3.29,5.5,6.31,8.8,8.97,3.27,2.63,6.84,4.9,10.63,6.73,2.25,1.09,4.73,2.25,7.34,3.43,13.01,5.85,24.92,5.67,36.99,4.93l3.34-.21c17.17-1.08,29.58-1.86,40.73,7.3,6.43,5.28,14.55,21.05,13.09,36.91-1.12,12.19-7.73,21.89-19.1,28.04-13.81,7.47-27.33,9.59-38.21,9.59ZM249.63,691.11c9.03,2.16,31.79,5.58,54.86-6.91,10.28-5.56,16-13.91,17-24.82,1.31-14.24-6.04-28.75-11.62-33.33-9.97-8.2-21.14-7.49-38.03-6.42l-3.35.21c-12.06.73-25,.94-38.79-5.26-2.65-1.19-5.16-2.37-7.44-3.47-4.05-1.96-7.88-4.39-11.38-7.21-3.55-2.86-6.73-6.1-9.46-9.64-2.8-3.63-5.12-7.55-6.9-11.67-2.23-5.15-3.63-10.72-4.17-16.54-.08-.8-.12-1.61-.12-2.42,0-.04,0-.25.03-.48l.02-.25s-.02.56.39,1.1l3.12-2.5c.51.68,1.1,1.44,1.76,2.28,3.83,4.82,8.3,9.52,13.29,13.96,6.19,5.41,18.08,15.13,28.08,19.35,12.62,5.39,24.14,8.5,35.22,9.51,3.2.36,6.53.53,10.21.53s7.38-.19,11.06-.57c9.05-.92,17.98-2.94,26.56-6,8.49-3.03,15.42-6.74,21.82-11.67,2.89-2.22,5.66-5.08,7.41-7.64,1.92-2.81,5.01-6.74,9.61-8.46,7.62-2.84,17.85-1.36,25.49,3.69,3.55,2.34,6.37,5.5,8.16,9.12,1.19,2.4,1.97,5.24,2.31,8.46.57,5.38.2,9.68-1.16,13.56-1.06,3.01-2.66,5.84-4.77,8.38-1.24,1.51-2.43,2.68-3.62,3.59l-1.93,1.48-1.03-2.24c-1.34-2.92-5.33-11.07-7.65-13.75-4.23-4.89-12.25-7.85-19.49-7.19-13.48,1.22-22.03,9.64-25.41,25.03-2.72,12.38.42,26.11,8.62,37.66,14.94,21.06,36.43,30.64,62.17,27.68,32.68-3.78,58.78-31.05,62.07-64.84,1.83-18.63-3.12-36.91-13.95-51.47l-3.14-4.22,5.06.97c1.78.34,3.67.51,5.77.51,13.09,0,25.51-6.51,33.23-17.41,7.89-11.15,9.99-25.42,5.76-39.18-5.2-16.76-21.23-28.47-39-28.47h-10.33l9.2-3.93c15.19-6.48,24.44-22.89,22.48-39.9-1.17-10.6-7.3-20.65-16.39-26.89-9.62-6.72-21.01-8.36-32.08-4.63l-6.06,2.04,3.88-5.22c5.45-7.33,7.89-16.13,7.07-25.45-1.41-14.87-12.14-27.7-26.07-31.19-8.34-2.05-16.62-1.07-23.97,2.84l-4.09,2.18,1.29-4.56c1.64-5.79,1.18-12.03-1.32-17.57-2.86-6.33-8.54-11.14-15.2-12.86-7.01-1.76-14.28-.26-19.93,4.12-5.62,4.36-9.01,10.98-9.31,18.17l-.18,4.2-3.08-2.74c-17.75-15.77-40.46-24.46-63.95-24.46h-1.58c-2.62-.01-5.11-.03-7.57.22-.09,0-4.07.32-8.47,1.42-20.5,6.36-39.82,17.95-55.76,33.49l-4.73,4.5c-16.63,17.35-25.82,40.4-25.82,64.86,0,14.57,3.39,29.08,9.8,41.94,2.51,4.91,4.74,8.77,7.03,12.12,2.19,3.21,4.61,6.3,7.19,9.17,18.5,20.6,50.19,36.15,79.25,24.47,16.41-6.58,29.77-17.71,36.65-30.52,7.24-13.46,6.86-32.67,4.34-45.04-.39-1.93-.92-3.77-1.55-5.5-.92.74-1.9,1.42-2.93,2.02-3.49,2.18-7.7,3.35-12.11,3.35-9.7,0-18.45-5.91-22.29-15.05l-.19-.38c-1.23-3.15-1.84-6.45-1.84-9.7,0-3.74.74-7.25,2.21-10.45,8.33-18.1,31.16-20.37,48.39-13.31,16.51,6.79,26.86,23.79,31.63,51.99,1.46,8.52,1.82,17.26,1.07,25.95-2.16,26.18-13.03,49.68-29.83,64.48-18.69,16.4-46.61,24.55-74.7,21.8-17.35-1.75-33.55-6.96-48.16-15.47-10.98-6.37-20.86-14.62-29.35-24.52-9.02-10.37-16.13-22-21.12-34.57-3.47-8.61-5.95-17.68-7.37-26.95-1.01-6.41-1.52-12.94-1.52-19.4,0-4.32.23-8.66.68-12.9,4.81-47.47,36.91-87.75,80.06-102.48-19.52,1.04-38.37,7.23-54.84,18.06l-11.32,7.44,8.76-10.49c6.02-7.21,12.82-13.64,20.26-19.17-2.57.31-5.17.71-7.73,1.17-5.1.92-10.19,2.14-15.14,3.63-9.76,2.94-19.24,6.99-28.18,12.04-17.53,9.91-33.19,23.88-45.27,40.39-15.59,21.32-25.53,47.74-27.99,74.38-2.16,23.44,1.01,46.93,9.17,67.93,3.16,8.12,7.14,15.62,11.84,22.28,2.24,3.19,4.79,6.25,7.26,9.21,1.8,2.15,3.65,4.37,5.39,6.65,4.08,5.33,7,11.57,8.94,19.07.59,2.28,1.08,4.66,1.46,7.06.19,1.2.35,2.41.49,3.62l1.1,12.15-4.41-7.33c-8.75-14.54-23.91-23.22-40.55-23.22-26.29,0-47.58,21.6-49.52,50.25-.21,2.72-.52,8.45-.52,11.29.16,22,10.44,42.52,28.21,56.31,18.98,14.73,43.14,19.29,66.25,12.53,31.87-9.32,52.92-39.1,52.38-74.11-.09-6.03-.87-12.01-2.32-17.78l-3.8-15.16,7.43,13.65c.7,1.29,17.12,31.83,9.48,51.87-3.05,8-2.69,16.98.99,25.31,3.53,7.98,9.75,14.4,16.24,16.75,15.37,5.58,44.97,6.31,58.98-15.49,9.43-14.68,8.95-23.59,8.74-27.4v-.24c-.07-1.15.63-2.17,1.7-2.5,1.07-.32,2.19.15,2.74,1.15,3.84,7.06,14.14,30.34-6.34,46Z"/>
    </g>
    <g>
      <path class="cls-6" d="M898.79,421.39c8.74,14.52,24.44,24.18,42.22,24.18,27.58,0,49.47-22.33,51.49-52.14.22-2.86.52-8.57.52-11.43-.35-48.46-48.14-85.09-96.97-70.8-32.98,9.65-54.36,40.68-53.82,76.11.1,6.33.91,12.4,2.38,18.26,0,0-16.74-30.75-9.36-50.12,7.38-19.37-5.11-39.91-18.41-44.73-16.84-6.11-47.04-5.86-61.27,16.29-9.98,15.54-9.27,24.88-9.05,28.88.02.44-.55.61-.76.23-3.68-6.76-14.59-31.11,9.34-45.79,0,0-29.75-10.75-60.5,5.89-30.37,16.43-15.84,53.22-5.69,61.55,11.23,9.23,23.73,7.81,42.73,6.66,12.1-.74,24.53-.9,37.89,5.1,2.63,1.18,5.12,2.35,7.39,3.45,3.9,1.89,7.6,4.23,11,6.97,3.38,2.72,6.46,5.84,9.13,9.3,2.66,3.44,4.91,7.21,6.64,11.23,2.17,5.03,3.5,10.43,4.01,15.91.07.74.11,1.48.11,2.22,0,.15-.1.79-.03.89-.52-.7-1.12-1.47-1.79-2.32-4.11-5.18-8.67-9.89-13.53-14.21-7.25-6.33-18.76-15.53-28.62-19.7-11.21-4.79-23.09-8.5-35.8-9.66-3.44-.39-6.88-.54-10.39-.54-3.76,0-7.52.2-11.26.58-9.19.94-18.28,2.99-27.01,6.11-8.12,2.9-15.43,6.62-22.36,11.96-2.82,2.17-5.85,5.18-7.84,8.1-2.23,3.27-4.95,6.33-8.67,7.72-7.53,2.81-17.12.9-23.75-3.49-3.13-2.07-5.77-4.9-7.47-8.33-1.19-2.4-1.82-5.08-2.1-7.75-.46-4.3-.38-8.55,1.06-12.64,1-2.84,2.52-5.47,4.42-7.76.99-1.19,2.07-2.34,3.29-3.28,0,0,4.94,10.74,7.97,14.24,4.77,5.51,13.39,8.57,21.13,7.86,18.4-1.67,24.72-15.49,27.16-26.61,3.01-13.71-.9-27.98-8.95-39.32-14.66-20.66-36.67-31.63-63.98-28.5-33.4,3.86-60.46,32.14-63.82,66.67-1.94,19.78,3.66,38.55,14.35,52.92-2.02-.39-4.04-.54-6.13-.54-28.47,0-50.37,28.35-40.88,59.25,5.6,18.08,22.49,29.9,40.88,29.9h.37c-15.39,6.57-25.86,23.17-23.69,42.02,1.27,11.51,7.92,21.94,17.26,28.35,11.51,8.03,23.69,8.27,33.78,4.87-5.46,7.34-8.37,16.69-7.47,26.88,1.49,15.68,12.78,29.28,27.58,32.99,9.12,2.24,17.93.93,25.33-3.01-1.64,5.79-1.49,12.51,1.42,19,3.14,6.95,9.34,12.13,16.52,13.98,16.29,4.09,31.01-8.19,31.69-24.18,17.56,15.6,40.35,24.95,65.24,24.95,3.14,0,6.28.08,9.34-.23,0,0,4.11-.31,8.74-1.47,21.45-6.64,40.73-18.46,56.64-33.99l4.71-4.48c16.37-17.07,26.45-40.48,26.45-66.36,0-15.37-3.59-29.97-10.01-42.87-2.17-4.25-4.48-8.42-7.17-12.36-2.26-3.31-4.72-6.45-7.36-9.38-20.32-22.63-52.9-36.43-81.42-24.99-15.1,6.06-29.8,16.8-37.67,31.43-6.97,12.96-7.53,31.79-4.54,46.45.6,2.92,1.49,5.78,2.75,8.47,1.35-1.39,2.91-2.63,4.63-3.63,3.21-2.01,7.02-3.09,11.13-3.09,9.12,0,17.04,5.64,20.48,13.83.07.15.15.31.22.46,1.05,2.7,1.64,5.72,1.64,8.81,0,3.4-.67,6.64-2.02,9.58-8.07,17.54-30.42,18.62-45.88,12.28-19.73-8.11-27.05-30.59-30.42-50.44-1.42-8.27-1.79-16.84-1.05-25.41,1.94-23.56,11.43-47.51,29.14-63.11,19.73-17.3,47.98-23.79,73.24-21.32,16.81,1.7,32.66,6.64,47.38,15.22,10.91,6.33,20.63,14.52,28.85,24.1,8.67,9.97,15.77,21.4,20.77,33.99,3.36,8.34,5.83,17.23,7.25,26.5.97,6.18,1.49,12.59,1.49,19.08,0,4.25-.22,8.5-.67,12.67-5.31,52.38-43.34,94.63-92.59,104.52,2.84.31,5.68.39,8.59.39,22.72,0,43.94-6.8,61.8-18.54-7.55,9.04-16.44,16.92-26.3,23.25,1.52-.97,5.86-.5,7.71-.72,2.64-.32,5.28-.72,7.9-1.19,5.18-.93,10.3-2.16,15.35-3.68,9.91-2.98,19.51-7.09,28.57-12.21,17.88-10.1,33.61-24.15,45.89-40.95,15.91-21.75,25.88-48.27,28.38-75.42,2.15-23.27-.86-47.17-9.31-68.89-3.13-8.04-7.13-15.71-12.07-22.72-3.91-5.58-8.57-10.52-12.7-15.92-4.18-5.47-6.84-11.6-8.58-18.33-.58-2.26-1.05-4.56-1.42-6.87-.19-1.17-.34-2.35-.48-3.53l-.32-3.5Z"/>
      <path class="cls-7" d="M810.9,697.05l-2.08-3.47s0,0,0,0h0c5.91-3.8,11.46-8.14,16.58-12.99-15.83,7.91-33.24,12.05-51.04,12.05-3.56,0-6.27-.12-8.8-.4l-13.13-1.43,12.96-2.6c48.44-9.73,85.86-51.97,91.01-102.73.44-4.08.66-8.27.66-12.46,0-6.24-.5-12.55-1.47-18.75-1.37-8.96-3.77-17.72-7.12-26.04-4.83-12.15-11.7-23.39-20.42-33.41-8.21-9.57-17.74-17.53-28.34-23.69-14.14-8.24-29.82-13.27-46.61-14.97-27.04-2.65-53.87,5.15-71.77,20.85-16.01,14.11-26.38,36.61-28.45,61.73-.73,8.34-.38,16.71,1.02,24.89,4.52,26.69,14.07,42.68,29.2,48.91,15.58,6.38,36.07,4.6,43.37-11.26,1.21-2.64,1.83-5.57,1.83-8.7,0-2.72-.52-5.51-1.5-8.05l-.15-.3c-3.26-7.77-10.59-12.71-18.72-12.71-3.69,0-7.19.97-10.11,2.79-1.6.94-3.02,2.05-4.26,3.33l-1.97,2.03-1.21-2.59c-1.27-2.73-2.24-5.73-2.9-8.94-2.79-13.68-3.01-33.44,4.75-47.87,7.33-13.63,21.43-25.41,38.68-32.34,30.81-12.36,64.17,3.9,83.57,25.5,2.7,3.01,5.24,6.24,7.53,9.59,2.4,3.52,4.72,7.51,7.31,12.59,6.7,13.46,10.24,28.6,10.24,43.82,0,25.54-9.6,49.62-27.03,67.79l-4.77,4.54c-16.36,15.96-36.22,27.88-57.41,34.44-4.84,1.21-8.99,1.54-9.17,1.55-2.6.26-5.31.25-7.91.24h-1.57c-23.2,0-45.68-8.15-63.69-23.02-1.23,6.88-4.92,13.07-10.46,17.37-6.59,5.12-15.06,6.88-23.24,4.82-7.82-2.02-14.48-7.66-17.84-15.1-2.32-5.16-3.13-10.84-2.38-16.35-7.24,2.91-15.13,3.43-23.04,1.48-15.55-3.9-27.5-18.19-29.08-34.77-.74-8.38,1-16.64,4.94-23.77-10.6,2.15-21.22-.09-30.39-6.49-10.04-6.89-16.82-18.04-18.12-29.81-1.88-16.32,5.58-32.14,18.56-40.73-16.68-2.56-30.99-14.51-36.04-30.8-4.61-15.01-2.3-30.62,6.34-42.83,8.46-11.95,22.07-19.08,36.42-19.08.66,0,1.3.01,1.93.04-9.6-14.71-13.89-32.49-12.11-50.58,3.48-35.69,31.05-64.5,65.56-68.49,26.8-3.07,50.18,7.34,65.79,29.32,8.87,12.5,12.26,27.44,9.28,40.98-3.81,17.31-13.53,26.79-28.91,28.19-8.52.79-17.68-2.65-22.77-8.53-2.28-2.64-5.45-8.85-7.13-12.31-.38.4-.76.83-1.16,1.31-1.8,2.17-3.17,4.57-4.07,7.13-1.15,3.27-1.45,6.99-.95,11.72.29,2.72.92,5.09,1.89,7.04,1.48,2.98,3.82,5.58,6.78,7.54,6.65,4.4,15.51,5.73,22.02,3.29,2.75-1.03,5.14-3.18,7.74-6.98,1.98-2.89,5.07-6.09,8.27-8.56,6.75-5.19,14.02-9.09,22.89-12.25,8.87-3.17,18.11-5.26,27.46-6.21,3.81-.39,7.67-.59,11.45-.59s7.28.18,10.6.55c11.45,1.04,23.35,4.25,36.34,9.8,9.98,4.22,21.35,13.22,29.14,20.03,4.24,3.78,8.12,7.74,11.58,11.8-.66-4.15-1.8-8.14-3.42-11.89-1.64-3.8-3.79-7.43-6.38-10.79-2.55-3.29-5.51-6.31-8.8-8.97-3.27-2.63-6.84-4.9-10.63-6.73-2.25-1.09-4.73-2.25-7.34-3.43-13.01-5.84-24.92-5.67-36.99-4.94l-3.34.21c-17.16,1.08-29.57,1.86-40.73-7.3-6.43-5.28-14.55-21.05-13.09-36.91,1.12-12.19,7.72-21.89,19.1-28.05,31.14-16.85,60.81-6.45,62.06-6l4,1.45-3.65,2.23c-17.56,10.77-15.04,27.17-11.42,36.88.63-5.32,2.75-13,9.24-23.09,15.25-23.72,47.09-23.07,63.57-17.08,7.47,2.71,14.56,9.95,18.52,18.9,4.13,9.34,4.52,19.47,1.08,28.5-3.96,10.39-.46,24.53,3.31,34.85-.07-1.23-.12-2.46-.14-3.7-.56-36.88,21.64-68.27,55.26-78.1,24.31-7.11,49.72-2.3,69.7,13.2,18.76,14.55,29.62,36.26,29.79,59.56,0,3.03-.31,8.8-.53,11.61-2.08,30.79-25.06,54.02-53.45,54.02-15.4,0-29.62-6.87-39.35-18.7.34,2,.76,3.96,1.24,5.85,1.79,6.95,4.48,12.7,8.22,17.59,1.69,2.21,3.52,4.4,5.28,6.51,2.52,3.02,5.13,6.15,7.47,9.48,4.89,6.93,9.03,14.72,12.31,23.15,8.4,21.61,11.66,45.76,9.44,69.84-2.52,27.39-12.74,54.54-28.77,76.46-12.42,16.97-28.5,31.33-46.52,41.51-9.19,5.19-18.93,9.35-28.97,12.37-5.1,1.54-10.33,2.79-15.56,3.74-2.62.47-5.32.88-8.01,1.21-.72.09-1.6.09-2.65.09-1.21,0-3.65,0-4.25.35ZM846.42,662.9l-8.76,10.49c-6.02,7.21-12.82,13.63-20.26,19.17,2.6-.32,5.2-.71,7.73-1.17,5.08-.92,10.18-2.14,15.14-3.63,9.76-2.94,19.24-6.99,28.18-12.04,17.53-9.91,33.19-23.87,45.27-40.39,15.59-21.32,25.53-47.73,27.99-74.38,2.16-23.44-1.01-46.93-9.17-67.93-3.16-8.12-7.14-15.62-11.84-22.28-2.24-3.19-4.79-6.25-7.26-9.21-1.79-2.15-3.65-4.37-5.39-6.65-4.08-5.34-7.01-11.57-8.94-19.07-.59-2.28-1.08-4.66-1.46-7.06-.19-1.2-.35-2.41-.49-3.62l-1.1-12.15,4.41,7.33c8.75,14.54,23.91,23.22,40.55,23.22,26.29,0,47.58-21.6,49.52-50.25.21-2.7.52-8.42.52-11.29-.16-22-10.44-42.52-28.21-56.31-18.99-14.73-43.13-19.3-66.25-12.54-31.87,9.32-52.92,39.11-52.39,74.11.09,6.03.87,12.01,2.32,17.78l3.8,15.16-7.43-13.65c-.7-1.29-17.12-31.83-9.48-51.87,3.05-8,2.69-16.99-.99-25.31-3.53-7.98-9.75-14.4-16.24-16.75-15.37-5.58-44.97-6.3-58.98,15.49-9.43,14.68-8.95,23.59-8.74,27.4v.23c.07,1.15-.63,2.17-1.7,2.49-1.07.32-2.19-.15-2.74-1.15-3.84-7.06-14.14-30.35,6.34-46-9.03-2.16-31.79-5.58-54.86,6.91-10.28,5.56-16,13.91-17,24.82-1.31,14.24,6.04,28.75,11.62,33.33,9.97,8.19,21.13,7.49,38.03,6.42l3.35-.21c12.07-.74,25.01-.93,38.8,5.27,2.64,1.19,5.16,2.37,7.44,3.47,4.05,1.96,7.88,4.39,11.38,7.21,3.54,2.85,6.72,6.1,9.46,9.64,2.8,3.62,5.12,7.55,6.9,11.67,2.23,5.16,3.63,10.72,4.17,16.54.07.81.12,1.61.12,2.42,0,.04,0,.24-.03.48l-.02.25s.01-.56-.39-1.1l-3.09,2.54s-.03-.03-.04-.05c-.51-.68-1.09-1.43-1.75-2.26-3.83-4.82-8.3-9.52-13.29-13.96-6.18-5.41-18.07-15.12-28.08-19.36-12.62-5.39-24.14-8.5-35.22-9.51-3.21-.36-6.54-.53-10.21-.53s-7.38.19-11.06.57c-9.05.92-17.98,2.94-26.56,6.01-8.48,3.03-15.41,6.73-21.82,11.66-2.89,2.22-5.66,5.08-7.41,7.64-1.92,2.81-5.01,6.74-9.62,8.46-7.61,2.84-17.85,1.36-25.49-3.7-3.55-2.34-6.37-5.5-8.16-9.12-1.19-2.4-1.97-5.24-2.31-8.46-.57-5.37-.2-9.68,1.16-13.56,1.06-3.02,2.67-5.84,4.78-8.38,1.24-1.51,2.43-2.68,3.61-3.59l1.93-1.48,1.03,2.24c1.34,2.92,5.33,11.07,7.65,13.76,4.23,4.89,12.24,7.86,19.49,7.19,13.48-1.22,22.03-9.65,25.41-25.03,2.72-12.39-.42-26.11-8.61-37.66-14.94-21.06-36.46-30.63-62.17-27.68-32.68,3.78-58.78,31.05-62.07,64.84-1.83,18.63,3.12,36.91,13.95,51.47l3.14,4.22-5.06-.97c-1.77-.34-3.66-.51-5.77-.51-13.09,0-25.51,6.51-33.23,17.41-7.89,11.14-9.99,25.42-5.76,39.18,5.2,16.76,21.23,28.47,39,28.47h10.33l-9.21,3.93c-15.19,6.48-24.44,22.88-22.48,39.9,1.17,10.6,7.3,20.65,16.39,26.89,9.62,6.72,21,8.36,32.08,4.63l6.06-2.04-3.88,5.22c-5.37,7.22-7.88,16.26-7.07,25.45,1.42,14.87,12.14,27.7,26.08,31.19,8.33,2.05,16.63,1.07,23.97-2.84l4.09-2.18-1.3,4.57c-1.64,5.79-1.18,12.03,1.32,17.57,2.86,6.33,8.54,11.14,15.2,12.86,7.02,1.76,14.28.26,19.92-4.12,5.62-4.36,9.01-10.99,9.31-18.17l.18-4.19,3.08,2.74c17.75,15.77,40.46,24.46,63.95,24.46h1.58c2.62.01,5.11.03,7.57-.22.09,0,4.07-.32,8.47-1.42,20.51-6.36,39.82-17.95,55.75-33.49l4.73-4.5c16.63-17.35,25.82-40.4,25.82-64.86,0-14.57-3.39-29.08-9.8-41.94-2.5-4.9-4.73-8.75-7.03-12.12-2.19-3.2-4.61-6.29-7.19-9.17-18.49-20.6-50.17-36.15-79.25-24.47-16.41,6.59-29.77,17.71-36.66,30.52-7.24,13.46-6.86,32.68-4.34,45.04.39,1.93.91,3.77,1.55,5.5.92-.74,1.9-1.42,2.92-2.02,3.49-2.18,7.7-3.35,12.11-3.35,9.7,0,18.45,5.91,22.28,15.05l.18.35c1.24,3.18,1.86,6.49,1.86,9.73,0,3.74-.74,7.26-2.21,10.45-8.33,18.1-31.15,20.37-48.39,13.31-16.51-6.79-26.86-23.79-31.63-51.99-1.46-8.53-1.82-17.26-1.07-25.95,2.16-26.18,13.03-49.68,29.83-64.48,18.7-16.4,46.63-24.54,74.7-21.8,17.34,1.75,33.54,6.96,48.16,15.47,10.98,6.38,20.86,14.63,29.35,24.52,9.01,10.36,16.12,22,21.12,34.57,3.47,8.61,5.95,17.68,7.37,26.95,1.01,6.41,1.52,12.94,1.52,19.4,0,4.34-.23,8.68-.68,12.89-4.81,47.47-36.91,87.75-80.06,102.48,19.52-1.04,38.37-7.23,54.85-18.06l11.31-7.44Z"/>
    </g>
  </g>
  <g>
    <g>
      <g>
        <g>
          <polygon class="cls-3" points="252.42 263.85 15.15 6.34 489.69 6.34 252.42 263.85"/>
          <path class="cls-8" d="M492.86,5H11.98l240.44,260.95L492.86,5ZM18.31,7.68h468.21l-234.11,254.08L18.31,7.68Z"/>
        </g>
        <g>
          <g>
            <path class="cls-4" d="M252.97,134.07c-6.08,0-17.97-12.07-17.97-12.07,0,0-10.78,40.34-43.12,48.35,0,0,2.14,22.71,32.44,21.11,0,0-8.88,18.32,14.63,34.19,7.12,4.81,13.46,13,13.46,13,0,0,8.67-8.29,15.03-12.79,6.36-4.5,21.49-19.65,12.89-34.5,0,0,30.78,1.53,32.62-21.02,0,0-27.61-5.16-41.46-48.26,0,0-12.42,11.98-18.52,11.98Z"/>
            <path class="cls-8" d="M234.23,119.19l-.67,2.48c-.1.4-10.96,39.67-42.07,47.37l-1.19.3.1,1.11c.02.23,2.46,22.42,30.94,22.42.3,0,.61,0,.92,0-1.58,5.32-3.86,20.57,15.81,33.85,6.84,4.62,13.07,12.62,13.13,12.7l1.04,1.34,1.25-1.19c.08-.08,8.67-8.27,14.87-12.66,6.47-4.58,21.02-19.3,14.29-34.22,7.52-.21,30.17-2.51,31.77-22.25l.09-1.17-1.27-.24c-.27-.05-26.94-5.62-40.34-47.32l-.73-2.26-1.78,1.72c-4.63,4.47-13.46,11.55-17.43,11.55h0c-3.94,0-12.44-7.13-16.86-11.62l-1.88-1.91ZM252.98,135.41c5.3,0,14-7.3,17.82-10.75,12.56,36.72,34.9,45.12,40.56,46.69-2.58,19.81-29.78,18.72-30.94,18.68l-2.6-.13,1.21,2.09c8.08,13.94-6.28,28.42-12.49,32.82-5.02,3.55-11.33,9.31-13.96,11.77-2.12-2.55-7.15-8.23-12.73-12-22.3-15.06-14.24-32.41-14.16-32.58l.97-2.01-2.42.13c-25.02,1.35-29.86-14.43-30.71-18.8,27.7-7.66,39.35-37.83,42.2-46.64,3.73,3.53,11.99,10.73,17.24,10.73h0Z"/>
          </g>
          <g>
            <path class="cls-4" d="M277.88,114.64c3.11,6,5.79,13.77,9.71,19.37,4.22,6.03,8.61,12.35,14.62,16.97,5.85,4.5,11.73,7.45,19.8,6.71,7.62-.71,12.82-9.1,13.37-15.03,0,0,20-1.6,31.89-27.37,0,0-46.82,14.1-76.39-18.67,0,0-3.93,7.63-12.99,18.01Z"/>
            <path class="cls-8" d="M290.53,94.13l-1,1.94c-.04.07-3.98,7.63-12.81,17.75l-.57.65.39.75c1.09,2.1,2.11,4.4,3.2,6.82,1.97,4.42,4.01,8.99,6.6,12.7l.18.25c4.25,6.06,8.64,12.34,14.73,17.02,5.13,3.95,11.62,7.9,20.9,7.02,8.2-.76,13.5-8.97,14.56-15.18,4.65-.78,21.37-5.14,31.92-28.02l1.25-2.72-3.09.93c-.46.14-46.22,13.41-74.77-18.25l-1.49-1.65ZM279.61,114.83c6.21-7.21,9.92-12.98,11.57-15.79,25.45,26.44,62.61,20.7,73.47,18.3-11.45,22.21-29.22,23.97-29.41,23.99l-1.24.1-.11,1.12c-.5,5.34-5.32,13.18-12.05,13.81-8.18.74-13.79-2.63-18.69-6.39-5.75-4.42-10.02-10.52-14.15-16.41l-.18-.25c-2.45-3.51-4.44-7.96-6.36-12.26-.98-2.18-1.9-4.26-2.88-6.21Z"/>
          </g>
          <g>
            <path class="cls-4" d="M295.3,86.62s21.01,23.52,56.11,21.02c35.1-2.5,29.58-21.02,29.58-21.02,0,0,25.98-2.5,39.8-27.02,13.82-24.52,19.35-27.52,30.4-32.78,0,0-10.23-13.26-61.91-2.5,0,0-4.98,0-16.03-2.5-11.06-2.5-38.97,1-38.42,18.76.55,17.76,23.25,23.3,37.07,17.04,0,0-2,11.59-23.84,6.34-21.84-5.25-29.75-24.67-29.75-24.67,0,0-10.22,27.33-23.01,47.32Z"/>
            <path class="cls-8" d="M424.39,18.78c-8.86,0-20.38,1.11-35.26,4.2-.91-.03-5.88-.28-15.52-2.46-7.87-1.78-23.71-.66-32.98,6.08-5.01,3.65-7.46,8.37-7.29,14.03.23,7.34,4.14,13.43,11.02,17.16,7.19,3.9,16.64,4.74,24.62,2.38-.56.67-1.34,1.36-2.4,1.98-3.9,2.27-10.18,2.45-18.15.53-20.81-5-28.66-23.65-28.74-23.83l-1.45-3.54-1.34,3.58c-.1.27-10.32,27.44-22.89,47.07l-.51.8.64.72c.21.24,21.91,24.07,57.38,21.51,13.92-.99,23.37-4.57,28.1-10.64,3.27-4.19,3.33-8.43,3.07-10.59,5.95-.96,27.18-5.83,39.41-27.53,13.89-24.65,19.2-27.18,29.77-32.2l1.49-.71-.96-1.25c-.32-.41-5.96-7.28-28.01-7.28ZM389.28,25.66l.33-.03c40.87-8.51,55.16-1.92,59.09.87-10.42,5.07-16.22,9.4-29.24,32.49-13.27,23.54-38.39,26.27-38.64,26.3l-1.72.17.45,1.51c.06.2,1.4,5.05-2.39,9.87-4.21,5.36-12.91,8.54-25.87,9.46-30.56,2.13-50.4-16.04-54.18-19.84,9.93-15.76,18.31-35.88,21.37-43.56,3.29,5.87,12.04,18.23,29.2,22.36,8.96,2.16,15.9,1.85,20.59-.92,4.37-2.58,5.06-6.35,5.09-6.51l.44-2.57-2.57,1.16c-7.57,3.43-18,3.03-25.35-.95-4.23-2.29-9.33-6.75-9.58-14.93-.15-4.78,1.93-8.77,6.18-11.86,8.4-6.11,23.3-7.17,30.4-5.56,11.1,2.51,16.18,2.54,16.39,2.54Z"/>
          </g>
          <g>
            <path class="cls-4" d="M228.13,114.64c-3.11,6-5.79,13.77-9.71,19.37-4.22,6.03-8.61,12.35-14.62,16.97-5.85,4.5-11.73,7.45-19.8,6.71-7.62-.71-12.82-9.1-13.37-15.03,0,0-20-1.6-31.89-27.37,0,0,46.82,14.1,76.39-18.67,0,0,3.93,7.63,12.99,18.01Z"/>
            <path class="cls-8" d="M215.49,94.13l-1.5,1.66c-28.56,31.66-74.32,18.39-74.78,18.25l-3.09-.93,1.25,2.72c10.55,22.89,27.27,27.24,31.92,28.02,1.06,6.21,6.36,14.42,14.55,15.18,9.24.86,15.77-3.07,20.91-7.02,6.1-4.68,10.49-10.96,14.73-17.02l.18-.25c2.6-3.71,4.63-8.28,6.6-12.69,1.08-2.43,2.11-4.73,3.2-6.83l.39-.75-.57-.65c-8.86-10.15-12.77-17.68-12.81-17.75l-1-1.94ZM162.33,119.58c15.82,0,36.48-3.89,52.51-20.54,1.66,2.81,5.36,8.58,11.57,15.79-.98,1.95-1.9,4.03-2.88,6.21-1.92,4.3-3.9,8.76-6.35,12.26l-.18.25c-4.13,5.89-8.4,11.99-14.15,16.41-4.9,3.76-10.51,7.15-18.69,6.39-6.72-.62-11.54-8.46-12.05-13.81l-.1-1.12-1.24-.1c-.19-.02-17.96-1.78-29.41-23.99,4.02.89,11.66,2.24,20.96,2.24Z"/>
          </g>
          <g>
            <path class="cls-4" d="M210.72,86.62s-21.01,23.52-56.11,21.02c-35.1-2.5-29.58-21.02-29.58-21.02,0,0-25.98-2.5-39.8-27.02-13.82-24.52-19.35-27.52-30.4-32.78,0,0,10.23-13.26,61.91-2.5,0,0,4.98,0,16.03-2.5,11.06-2.5,38.97,1,38.42,18.76-.55,17.76-23.25,23.3-37.07,17.04,0,0,2,11.59,23.84,6.34,21.84-5.25,29.75-24.67,29.75-24.67,0,0,10.22,27.33,23.01,47.32Z"/>
            <path class="cls-8" d="M81.63,18.78c-22.05,0-27.7,6.87-28.01,7.28l-.96,1.25,1.49.71c10.57,5.02,15.88,7.55,29.77,32.2,12.23,21.7,33.47,26.57,39.41,27.53-.26,2.17-.2,6.4,3.07,10.59,4.73,6.07,14.18,9.65,28.1,10.64,35.48,2.53,57.16-21.27,57.38-21.51l.64-.72-.51-.8c-12.57-19.63-22.79-46.8-22.89-47.07l-1.34-3.58-1.45,3.55c-.08.19-7.94,18.83-28.74,23.83-7.97,1.92-14.24,1.73-18.15-.53-1.06-.62-1.83-1.31-2.4-1.98,7.97,2.36,17.42,1.52,24.61-2.38,6.88-3.73,10.8-9.82,11.02-17.16.18-5.66-2.28-10.38-7.29-14.03-9.26-6.74-25.1-7.86-32.97-6.08-9.64,2.18-14.61,2.43-15.52,2.46-14.88-3.09-26.4-4.2-35.27-4.2ZM57.35,26.52c4.03-2.76,18.57-9.32,59.06-.89l.33.03c.21,0,5.28-.03,16.39-2.54,7.1-1.61,22-.54,30.4,5.56,4.25,3.09,6.33,7.08,6.18,11.86-.25,8.19-5.35,12.64-9.58,14.93-7.35,3.98-17.78,4.38-25.34.95l-2.57-1.16.44,2.57c.03.16.72,3.93,5.09,6.51,4.69,2.77,11.63,3.08,20.59.92,17.16-4.13,25.91-16.49,29.2-22.36,3.05,7.68,11.43,27.8,21.36,43.56-3.79,3.8-23.62,22-54.18,19.84-12.96-.92-21.66-4.11-25.87-9.46-3.79-4.82-2.45-9.67-2.39-9.87l.43-1.51-1.71-.17c-.25-.03-25.37-2.75-38.64-26.3-13-23.07-18.81-27.41-29.2-32.48Z"/>
          </g>
          <g>
            <path class="cls-4" d="M309.74,29.83h-114.63s31.25,92.17,57.32,92.16c26.08,0,57.31-92.16,57.31-92.16Z"/>
            <path class="cls-8" d="M311.75,28.49h-118.65l.59,1.73c1.29,3.8,31.88,93.11,58.74,93.11,0,0,0,0,0,0,26.86,0,57.44-89.31,58.73-93.11l.59-1.73ZM197.12,31.17h110.61c-9.18,26.51-35.26,89.48-55.3,89.48s-46.13-62.98-55.31-89.48Z"/>
          </g>
        </g>
      </g>
      <g>
        <g>
          <polygon class="cls-3" points="746.42 263.85 509.14 6.34 983.69 6.34 746.42 263.85"/>
          <path class="cls-8" d="M986.86,5h-480.88l240.44,260.95L986.86,5ZM512.31,7.68h468.21l-234.11,254.08L512.31,7.68Z"/>
        </g>
        <g>
          <g>
            <path class="cls-4" d="M746.97,134.07c-6.08,0-17.97-12.07-17.97-12.07,0,0-10.78,40.34-43.12,48.35,0,0,2.14,22.71,32.44,21.11,0,0-8.88,18.32,14.63,34.19,7.12,4.81,13.46,13,13.46,13,0,0,8.67-8.29,15.03-12.79,6.36-4.5,21.49-19.65,12.89-34.5,0,0,30.78,1.53,32.62-21.02,0,0-27.61-5.16-41.46-48.26,0,0-12.42,11.98-18.52,11.98Z"/>
            <path class="cls-8" d="M728.23,119.19l-.67,2.48c-.1.4-10.96,39.67-42.07,47.37l-1.19.3.1,1.11c.02.23,2.46,22.42,30.94,22.42.3,0,.61,0,.92,0-1.58,5.32-3.86,20.57,15.81,33.85,6.84,4.62,13.07,12.62,13.13,12.7l1.04,1.34,1.25-1.19c.08-.08,8.67-8.27,14.87-12.66,6.47-4.58,21.02-19.3,14.29-34.22,7.52-.21,30.17-2.51,31.77-22.25l.09-1.17-1.27-.24c-.27-.05-26.94-5.62-40.34-47.32l-.73-2.26-1.78,1.72c-4.63,4.47-13.46,11.55-17.43,11.55h0c-3.94,0-12.44-7.13-16.86-11.62l-1.88-1.91ZM746.97,135.41c5.3,0,14-7.3,17.82-10.75,12.56,36.72,34.9,45.12,40.56,46.69-2.58,19.81-29.78,18.72-30.94,18.68l-2.6-.13,1.21,2.09c8.08,13.94-6.28,28.42-12.49,32.82-5.02,3.55-11.33,9.31-13.96,11.77-2.12-2.55-7.15-8.23-12.73-12-22.3-15.06-14.24-32.41-14.16-32.58l.97-2.01-2.42.13c-25,1.35-29.86-14.43-30.71-18.8,27.7-7.66,39.35-37.83,42.2-46.64,3.73,3.53,11.99,10.73,17.24,10.73h0Z"/>
          </g>
          <g>
            <path class="cls-4" d="M771.88,114.64c3.11,6,5.79,13.77,9.71,19.37,4.22,6.03,8.61,12.35,14.62,16.97,5.85,4.5,11.73,7.45,19.8,6.71,7.62-.71,12.82-9.1,13.37-15.03,0,0,20-1.6,31.89-27.37,0,0-46.82,14.1-76.39-18.67,0,0-3.93,7.63-12.99,18.01Z"/>
            <path class="cls-8" d="M784.53,94.13l-1,1.94c-.04.07-3.98,7.63-12.81,17.75l-.57.65.39.75c1.09,2.11,2.12,4.41,3.2,6.84,1.97,4.41,4,8.97,6.6,12.68l.18.25c4.25,6.06,8.64,12.34,14.73,17.02,5.13,3.95,11.62,7.9,20.9,7.02,8.2-.76,13.5-8.97,14.56-15.18,4.65-.78,21.37-5.14,31.92-28.02l1.25-2.72-3.09.93c-.46.14-46.21,13.41-74.77-18.25l-1.49-1.65ZM773.6,114.83c6.21-7.21,9.92-12.98,11.57-15.79,25.45,26.44,62.61,20.7,73.47,18.3-11.45,22.21-29.22,23.97-29.41,23.99l-1.24.1-.11,1.12c-.5,5.34-5.32,13.18-12.05,13.81-8.16.74-13.79-2.63-18.69-6.39-5.75-4.42-10.02-10.52-14.15-16.41l-.18-.25c-2.45-3.5-4.43-7.95-6.35-12.25-.98-2.19-1.9-4.27-2.88-6.22Z"/>
          </g>
          <g>
            <path class="cls-4" d="M789.29,86.62s21.01,23.52,56.11,21.02c35.1-2.5,29.58-21.02,29.58-21.02,0,0,25.98-2.5,39.8-27.02,13.82-24.52,19.35-27.52,30.4-32.78,0,0-10.23-13.26-61.91-2.5,0,0-4.98,0-16.03-2.5-11.06-2.5-38.97,1-38.42,18.76.55,17.76,23.25,23.3,37.07,17.04,0,0-2,11.59-23.84,6.34-21.84-5.25-29.75-24.67-29.75-24.67,0,0-10.22,27.33-23.01,47.32Z"/>
            <path class="cls-8" d="M918.38,18.78c-8.86,0-20.38,1.11-35.26,4.2-.91-.03-5.88-.28-15.52-2.46-7.88-1.78-23.71-.66-32.98,6.08-5.01,3.65-7.46,8.37-7.29,14.03.23,7.34,4.14,13.43,11.02,17.16,7.19,3.9,16.64,4.74,24.62,2.38-.56.67-1.34,1.36-2.4,1.98-3.9,2.27-10.18,2.45-18.15.53-20.81-5-28.66-23.65-28.74-23.83l-1.45-3.54-1.34,3.58c-.1.27-10.32,27.44-22.89,47.07l-.51.8.64.72c.21.24,21.91,24.07,57.38,21.51,13.92-.99,23.37-4.57,28.1-10.64,3.27-4.19,3.33-8.43,3.07-10.59,5.95-.96,27.18-5.83,39.41-27.53,13.89-24.65,19.2-27.18,29.77-32.2l1.49-.71-.96-1.25c-.32-.41-5.96-7.28-28.01-7.28ZM883.27,25.66l.33-.03c40.87-8.51,55.16-1.92,59.09.87-10.42,5.07-16.22,9.4-29.24,32.49-13.27,23.54-38.39,26.27-38.64,26.3l-1.72.17.45,1.51c.06.2,1.4,5.05-2.39,9.87-4.21,5.36-12.91,8.54-25.87,9.46-30.56,2.13-50.4-16.04-54.18-19.84,9.93-15.76,18.31-35.88,21.37-43.56,3.29,5.87,12.04,18.23,29.2,22.36,8.96,2.16,15.9,1.85,20.59-.92,4.37-2.58,5.06-6.35,5.09-6.51l.44-2.57-2.57,1.16c-7.57,3.43-17.99,3.03-25.35-.95-4.23-2.29-9.33-6.75-9.58-14.93-.15-4.78,1.93-8.77,6.18-11.86,8.4-6.11,23.31-7.17,30.4-5.56,11.1,2.51,16.18,2.54,16.39,2.54Z"/>
          </g>
          <g>
            <path class="cls-4" d="M722.13,114.64c-3.11,6-5.79,13.77-9.71,19.37-4.22,6.03-8.61,12.35-14.62,16.97-5.85,4.5-11.73,7.45-19.8,6.71-7.62-.71-12.82-9.1-13.37-15.03,0,0-20-1.6-31.89-27.37,0,0,46.82,14.1,76.39-18.67,0,0,3.93,7.63,12.99,18.01Z"/>
            <path class="cls-8" d="M709.48,94.13l-1.5,1.66c-28.56,31.66-74.32,18.39-74.78,18.25l-3.09-.93,1.25,2.72c10.55,22.89,27.27,27.24,31.92,28.02,1.06,6.21,6.36,14.42,14.55,15.18,9.26.86,15.77-3.07,20.91-7.02,6.1-4.68,10.49-10.96,14.73-17.02l.18-.25c2.6-3.71,4.63-8.28,6.6-12.69,1.08-2.43,2.11-4.73,3.2-6.83l.39-.75-.57-.65c-8.86-10.15-12.77-17.68-12.81-17.75l-1-1.94ZM656.33,119.58c15.82,0,36.48-3.89,52.5-20.54,1.66,2.81,5.36,8.58,11.57,15.79-.98,1.95-1.9,4.03-2.88,6.21-1.92,4.3-3.9,8.76-6.35,12.26l-.18.25c-4.13,5.89-8.4,11.99-14.15,16.41-4.9,3.76-10.52,7.15-18.69,6.39-6.72-.62-11.54-8.46-12.05-13.81l-.1-1.12-1.24-.1c-.19-.02-17.96-1.78-29.41-23.99,4.02.89,11.66,2.24,20.97,2.24Z"/>
          </g>
          <g>
            <path class="cls-4" d="M704.71,86.62s-21.01,23.52-56.11,21.02c-35.1-2.5-29.58-21.02-29.58-21.02,0,0-25.98-2.5-39.8-27.02-13.82-24.52-19.35-27.52-30.4-32.78,0,0,10.23-13.26,61.91-2.5,0,0,4.98,0,16.03-2.5,11.06-2.5,38.97,1,38.42,18.76-.55,17.76-23.25,23.3-37.07,17.04,0,0,2,11.59,23.84,6.34,21.84-5.25,29.75-24.67,29.75-24.67,0,0,10.22,27.33,23.01,47.32Z"/>
            <path class="cls-8" d="M575.62,18.78c-22.05,0-27.7,6.87-28.01,7.28l-.96,1.25,1.49.71c10.57,5.02,15.88,7.55,29.77,32.2,12.23,21.7,33.47,26.57,39.41,27.53-.26,2.17-.2,6.4,3.07,10.59,4.73,6.07,14.18,9.65,28.1,10.64,35.51,2.53,57.16-21.27,57.38-21.51l.64-.72-.51-.8c-12.57-19.63-22.79-46.8-22.89-47.07l-1.34-3.58-1.45,3.55c-.08.19-7.94,18.83-28.74,23.83-7.97,1.92-14.24,1.73-18.15-.53-1.06-.62-1.83-1.31-2.4-1.98,7.97,2.36,17.42,1.52,24.61-2.38,6.88-3.73,10.8-9.82,11.02-17.16.18-5.66-2.28-10.38-7.29-14.03-9.26-6.74-25.1-7.86-32.97-6.08-9.64,2.18-14.61,2.43-15.52,2.46-14.88-3.09-26.4-4.2-35.27-4.2ZM551.34,26.52c4.03-2.76,18.57-9.32,59.06-.89l.33.03c.21,0,5.28-.03,16.39-2.54,7.09-1.61,22-.54,30.4,5.56,4.25,3.09,6.33,7.08,6.18,11.86-.25,8.19-5.35,12.64-9.58,14.93-7.35,3.98-17.78,4.38-25.34.95l-2.57-1.16.44,2.57c.03.16.72,3.93,5.09,6.51,4.69,2.77,11.63,3.08,20.59.92,17.16-4.13,25.91-16.49,29.2-22.36,3.05,7.68,11.43,27.8,21.37,43.56-3.79,3.8-23.66,22-54.18,19.84-12.96-.92-21.66-4.11-25.87-9.46-3.79-4.82-2.45-9.67-2.39-9.87l.43-1.51-1.71-.17c-.25-.03-25.37-2.75-38.64-26.3-13-23.07-18.81-27.41-29.2-32.48Z"/>
          </g>
          <g>
            <path class="cls-4" d="M803.73,29.83h-114.63s31.25,92.17,57.32,92.16c26.08,0,57.31-92.16,57.31-92.16Z"/>
            <path class="cls-8" d="M805.74,28.49h-118.65l.59,1.73c1.29,3.8,31.88,93.11,58.74,93.11,0,0,0,0,0,0,26.86,0,57.44-89.31,58.73-93.11l.59-1.73ZM691.11,31.17h110.61c-9.18,26.51-35.26,89.48-55.3,89.48s-46.13-62.98-55.31-89.48Z"/>
          </g>
        </g>
      </g>
      <g>
        <g>
          <polygon class="cls-1" points="499.55 9.39 262.28 266.91 736.83 266.91 499.55 9.39"/>
          <path class="cls-5" d="M499.55,7.3l-240.44,260.95h480.88L499.55,7.3ZM265.45,265.56L499.55,11.49l234.11,254.08h-468.21Z"/>
        </g>
        <g>
          <g>
            <path class="cls-2" d="M500.11,139.18c-6.08,0-17.97,12.07-17.97,12.07,0,0-10.78-40.34-43.12-48.35,0,0,2.14-22.71,32.44-21.11,0,0-8.88-18.32,14.63-34.19,7.12-4.81,13.46-13,13.46-13,0,0,8.67,8.29,15.03,12.79,6.36,4.5,21.49,19.65,12.89,34.5,0,0,30.78-1.53,32.62,21.02,0,0-27.61,5.16-41.46,48.26,0,0-12.42-11.98-18.52-11.98Z"/>
            <path class="cls-5" d="M499.38,32.48l-1.04,1.34c-.06.08-6.3,8.08-13.13,12.7-19.67,13.28-17.39,28.53-15.8,33.85-29.36-.46-31.84,22.18-31.86,22.41l-.1,1.11,1.19.3c31.13,7.71,41.96,46.98,42.07,47.37l.67,2.49,1.88-1.91c4.43-4.49,12.92-11.62,16.86-11.63h0c3.97,0,12.8,7.09,17.44,11.56l1.78,1.72.73-2.26c13.4-41.7,40.07-47.27,40.34-47.32l1.26-.24-.09-1.17c-1.61-19.74-24.26-22.04-31.77-22.25,6.72-14.92-7.83-29.63-14.29-34.22-6.2-4.39-14.78-12.58-14.87-12.66l-1.25-1.19ZM473.78,83.26l-.96-2c-.34-.71-8.07-17.57,14.16-32.58,5.58-3.76,10.61-9.45,12.73-12,2.63,2.45,8.95,8.22,13.96,11.77,6.21,4.4,20.57,18.87,12.49,32.82l-1.21,2.09,2.6-.13c1.18-.06,28.36-1.14,30.94,18.68-5.66,1.57-28,9.97-40.56,46.69-3.82-3.45-12.52-10.75-17.82-10.75h0c-5.24,0-13.5,7.2-17.24,10.73-2.85-8.8-14.5-38.98-42.2-46.64.85-4.38,5.75-20.1,30.71-18.8l2.4.13Z"/>
          </g>
          <g>
            <path class="cls-2" d="M525.02,158.6c3.11-6,5.79-13.77,9.71-19.37,4.22-6.03,8.61-12.35,14.62-16.97,5.85-4.5,11.73-7.45,19.8-6.71,7.62.71,12.82,9.1,13.37,15.03,0,0,20,1.6,31.89,27.37,0,0-46.82-14.1-76.39,18.67,0,0-3.93-7.63-12.99-18.01Z"/>
            <path class="cls-5" d="M566.74,114.1c-7.93,0-13.71,3.56-18.36,7.14-6.1,4.69-10.49,10.97-14.75,17.04l-.16.24c-2.6,3.71-4.63,8.28-6.6,12.69-1.08,2.43-2.11,4.73-3.2,6.83l-.39.75.57.65c8.83,10.12,12.77,17.68,12.81,17.75l1,1.94,1.49-1.65c28.56-31.66,74.31-18.38,74.78-18.25l3.09.93-1.25-2.72c-10.55-22.89-27.27-27.24-31.92-28.03-1.06-6.21-6.36-14.42-14.55-15.18-.87-.08-1.72-.12-2.54-.12ZM526.74,158.42c.98-1.95,1.9-4.03,2.88-6.21,1.92-4.3,3.9-8.76,6.35-12.26l.17-.24c4.13-5.9,8.4-12,14.16-16.43,4.89-3.77,10.52-7.14,18.69-6.39,6.72.62,11.54,8.46,12.05,13.8l.1,1.12,1.24.1c.18.02,17.96,1.78,29.41,23.99-10.86-2.4-48.02-8.14-73.47,18.3-1.66-2.81-5.36-8.58-11.57-15.79Z"/>
          </g>
          <g>
            <path class="cls-2" d="M542.43,186.62s21.01-23.52,56.11-21.02c35.1,2.5,29.58,21.02,29.58,21.02,0,0,25.98,2.5,39.8,27.02,13.82,24.52,19.35,27.52,30.4,32.78,0,0-10.23,13.26-61.91,2.5,0,0-4.98,0-16.03,2.5s-38.97-1-38.42-18.76c.55-17.76,23.25-23.3,37.07-17.04,0,0-2-11.59-23.84-6.34-21.84,5.25-29.75,24.67-29.75,24.67,0,0-10.22-27.33-23.01-47.32Z"/>
            <path class="cls-5" d="M593.4,164.08c-32.34,0-51.91,21.47-52.12,21.7l-.64.72.51.8c12.57,19.63,22.79,46.8,22.89,47.07l1.34,3.58,1.45-3.55c.08-.19,7.94-18.83,28.74-23.83,7.96-1.92,14.24-1.73,18.15.53,1.06.62,1.83,1.31,2.4,1.98-7.96-2.36-17.43-1.52-24.61,2.38-6.88,3.73-10.8,9.82-11.02,17.16-.18,5.66,2.28,10.38,7.29,14.03,9.26,6.74,25.1,7.85,32.97,6.08,9.64-2.18,14.61-2.43,15.52-2.46,51.9,10.78,62.84-2.51,63.28-3.08l.96-1.25-1.49-.71c-10.57-5.02-15.88-7.54-29.77-32.2-12.23-21.7-33.47-26.57-39.41-27.53.26-2.17.2-6.4-3.07-10.59-4.73-6.07-14.18-9.65-28.1-10.64-1.79-.13-3.54-.19-5.26-.19ZM544.24,186.78c3.79-3.8,23.64-21.99,54.18-19.84,12.96.92,21.66,4.11,25.87,9.46,3.79,4.82,2.45,9.67,2.39,9.87l-.43,1.51,1.71.17c.25.03,25.37,2.75,38.64,26.3,13,23.07,18.81,27.41,29.2,32.47-4.03,2.76-18.57,9.32-59.06.89l-.33-.03c-.21,0-5.28.03-16.39,2.54-7.09,1.61-22,.55-30.4-5.56-4.25-3.09-6.33-7.08-6.18-11.86.25-8.19,5.35-12.64,9.58-14.93,7.35-3.98,17.78-4.38,25.35-.95l2.57,1.16-.45-2.57c-.03-.16-.73-3.93-5.09-6.51-4.69-2.77-11.62-3.08-20.6-.92-17.16,4.13-25.91,16.49-29.2,22.36-3.05-7.68-11.43-27.8-21.36-43.56Z"/>
          </g>
          <g>
            <path class="cls-2" d="M475.26,158.6c-3.11-6-5.79-13.77-9.71-19.37-4.22-6.03-8.61-12.35-14.62-16.97-5.85-4.5-11.73-7.45-19.8-6.71-7.62.71-12.82,9.1-13.37,15.03,0,0-20,1.6-31.89,27.37,0,0,46.82-14.1,76.39,18.67,0,0,3.93-7.63,12.99-18.01Z"/>
            <path class="cls-5" d="M433.53,114.1c-.82,0-1.67.04-2.54.12-8.2.76-13.5,8.97-14.56,15.18-4.65.78-21.37,5.14-31.92,28.03l-1.25,2.72,3.09-.93c.46-.14,46.21-13.41,74.77,18.25l1.49,1.65,1-1.94c.04-.07,3.98-7.63,12.81-17.75l.57-.65-.39-.75c-1.09-2.1-2.11-4.4-3.2-6.82-1.97-4.42-4.01-8.99-6.6-12.7l-.18-.25c-4.25-6.06-8.64-12.34-14.73-17.02-4.65-3.58-10.43-7.14-18.36-7.14ZM388.5,155.91c11.45-22.21,29.23-23.98,29.41-23.99l1.24-.1.11-1.12c.5-5.34,5.32-13.18,12.05-13.8,8.17-.74,13.79,2.63,18.69,6.39,5.75,4.42,10.02,10.52,14.15,16.41l.18.25c2.45,3.51,4.44,7.96,6.36,12.26.98,2.18,1.9,4.26,2.88,6.21-6.21,7.21-9.92,12.98-11.57,15.79-25.46-26.44-62.62-20.7-73.47-18.3Z"/>
          </g>
          <g>
            <path class="cls-2" d="M457.85,186.62s-21.01-23.52-56.11-21.02-29.58,21.02-29.58,21.02c0,0-25.98,2.5-39.8,27.02-13.82,24.52-19.35,27.52-30.4,32.78,0,0,10.23,13.26,61.91,2.5,0,0,4.98,0,16.03,2.5,11.06,2.5,38.97-1,38.42-18.76-.55-17.76-23.25-23.3-37.07-17.04,0,0,2-11.59,23.84-6.34,21.84,5.25,29.75,24.67,29.75,24.67,0,0,10.22-27.33,23.01-47.32Z"/>
            <path class="cls-5" d="M406.88,164.08c-1.72,0-3.47.06-5.26.19-13.92.99-23.37,4.57-28.1,10.64-3.27,4.19-3.33,8.43-3.07,10.59-5.95.96-27.18,5.83-39.41,27.53-13.89,24.65-19.2,27.18-29.77,32.2l-1.49.71.96,1.25c.44.57,11.38,13.85,63.28,3.08.91.03,5.88.28,15.52,2.46,7.88,1.78,23.72.66,32.98-6.08,5.01-3.65,7.46-8.37,7.29-14.03-.23-7.34-4.14-13.43-11.02-17.16-7.19-3.9-16.64-4.74-24.62-2.38.56-.67,1.34-1.36,2.4-1.98,3.9-2.27,10.18-2.45,18.15-.53,20.81,5,28.66,23.65,28.74,23.83l1.45,3.54,1.34-3.58c.1-.27,10.32-27.44,22.89-47.07l.51-.8-.64-.72c-.2-.23-19.78-21.7-52.12-21.7ZM304.48,246.73c10.39-5.06,16.2-9.41,29.2-32.47,13.27-23.54,38.39-26.27,38.64-26.3l1.72-.17-.45-1.51c-.06-.2-1.4-5.05,2.39-9.87,4.21-5.36,12.91-8.54,25.87-9.46,30.57-2.15,50.4,16.04,54.18,19.84-9.93,15.76-18.31,35.88-21.37,43.56-3.29-5.87-12.04-18.23-29.2-22.36-8.97-2.16-15.9-1.84-20.59.92-4.37,2.58-5.06,6.35-5.09,6.51l-.44,2.57,2.57-1.16c7.57-3.43,17.99-3.03,25.35.95,4.23,2.29,9.33,6.75,9.58,14.93.15,4.78-1.93,8.77-6.18,11.86-8.4,6.11-23.31,7.17-30.4,5.56-11.1-2.51-16.18-2.54-16.39-2.54l-.33.03c-40.45,8.42-55.01,1.89-59.06-.89Z"/>
          </g>
          <g>
            <path class="cls-2" d="M556.87,243.42h-114.63s31.25-92.17,57.32-92.16c26.08,0,57.31,92.16,57.31,92.16Z"/>
            <path class="cls-5" d="M499.56,149.91c-26.86,0-57.45,89.31-58.74,93.11l-.59,1.73h118.65l-.59-1.73c-1.29-3.8-31.86-93.11-58.72-93.11ZM444.25,242.08c9.19-26.51,35.28-89.48,55.31-89.48,20.04,0,46.11,62.98,55.3,89.48h-110.61Z"/>
          </g>
        </g>
      </g>
      <g>
        <g>
          <path class="cls-1" d="M5,9.39v257.53h237.26L5,9.39Z"/>
          <path class="cls-5" d="M5,7.3v4.18l234.09,254.07H5v2.68h240.43L5,7.3Z"/>
        </g>
        <g>
          <g>
            <path class="cls-2" d="M65.52,102.91s-27.59,5.15-41.46,48.26c0,0-12.42-11.99-18.52-11.99-.18,0-.36,0-.53.03V34.18s8.65,8.72,15.03,13.22c6.34,4.48,21.49,19.64,12.89,34.47,0,0,30.79-1.5,32.6,21.03Z"/>
            <path class="cls-5" d="M67,102.8c-1.6-19.74-24.24-22.02-31.77-22.24,6.73-14.92-7.82-29.64-14.28-34.23-6.19-4.37-14.76-12.96-14.85-13.04l-1.1-1.1v4.11l.06-.05c2.61,2.52,8.98,8.61,14.05,12.21,6.22,4.4,20.57,18.86,12.48,32.81l-1.19,2.09,2.58-.13c1.19-.05,28.36-1.13,30.97,18.7-5.69,1.56-28.01,9.95-40.57,46.68-3.82-3.46-12.51-10.76-17.81-10.76h-.03c-.18,0-.36,0-.53.05v2.68c.21-.05.36-.05.53-.05h.03c3.97,0,12.8,7.08,17.43,11.56l1.78,1.72.71-2.25c13.42-41.71,40.07-47.27,40.36-47.32l1.24-.24-.09-1.18Z"/>
          </g>
          <g>
            <path class="cls-2" d="M30.46,158.6c3.11-6,5.79-13.77,9.71-19.37,4.22-6.03,8.61-12.35,14.62-16.97s11.73-7.45,19.8-6.71c7.62.71,12.82,9.1,13.37,15.03,0,0,20,1.6,31.89,27.37,0,0-46.82-14.1-76.39,18.67,0,0-3.93-7.63-12.99-18.01Z"/>
            <path class="cls-5" d="M121.2,157.44c-10.55-22.91-27.26-27.25-31.92-28.03-1.07-6.22-6.37-14.43-14.55-15.18-9.25-.86-15.77,3.06-20.92,7-6.07,4.69-10.49,10.97-14.73,17.03l-.18.24c-2.58,3.73-4.62,8.29-6.58,12.69-1.1,2.44-2.13,4.75-3.2,6.84l-.38.75.56.64c8.83,10.11,12.77,17.68,12.8,17.76l1.01,1.93,1.48-1.66c28.57-31.65,74.33-18.38,74.77-18.24l3.08.94-1.25-2.71ZM43.76,174.21c-1.66-2.82-5.36-8.58-11.59-15.8.98-1.93,1.9-4.02,2.87-6.2,1.93-4.32,3.91-8.77,6.37-12.26l.18-.27c4.12-5.87,8.39-11.99,14.14-16.39,4.89-3.78,10.52-7.16,18.7-6.41,6.7.62,11.53,8.48,12.03,13.82l.12,1.13,1.21.08c.21.03,17.96,1.8,29.43,24.01-10.88-2.41-48.01-8.16-73.47,18.3Z"/>
          </g>
          <g>
            <path class="cls-2" d="M47.87,186.63s21.01-23.52,56.11-21.02c35.1,2.5,29.58,21.02,29.58,21.02,0,0,25.98,2.5,39.8,27.02,13.82,24.52,19.35,27.52,30.4,32.78,0,0-10.23,13.26-61.91,2.5,0,0-4.98,0-16.03,2.5-11.06,2.5-38.97-1-38.42-18.76.55-17.76,23.25-23.3,37.07-17.04,0,0-2-11.59-23.84-6.34-21.84,5.25-29.75,24.67-29.75,24.67,0,0-10.22-27.33-23.01-47.32Z"/>
            <path class="cls-5" d="M204.45,245.25c-10.58-5.04-15.89-7.57-29.78-32.22-12.21-21.7-33.46-26.56-39.41-27.52.27-2.17.21-6.41-3.05-10.6-4.74-6.06-14.2-9.63-28.1-10.62-35.47-2.58-57.17,21.25-57.37,21.49l-.65.72.51.8c12.56,19.64,22.79,46.81,22.91,47.08l1.33,3.57,1.45-3.54c.06-.19,7.94-18.83,28.75-23.82,7.94-1.93,14.23-1.74,18.14.54,1.07.59,1.84,1.31,2.4,1.96-7.97-2.36-17.43-1.5-24.63,2.39-6.87,3.73-10.79,9.82-11.02,17.17-.18,5.66,2.28,10.38,7.29,14.03,9.28,6.73,25.1,7.83,32.98,6.06,9.63-2.17,14.61-2.44,15.53-2.47,14.88,3.09,26.38,4.21,35.27,4.21,22.02,0,27.68-6.87,28-7.27l.95-1.26-1.48-.7ZM142.18,247.61l-.33-.03c-.24,0-5.3.03-16.39,2.55-7.11,1.61-22.02.54-30.41-5.55-4.27-3.11-6.34-7.08-6.19-11.88.27-8.18,5.36-12.63,9.6-14.92,7.35-4,17.75-4.37,25.34-.97l2.58,1.18-.44-2.58c-.03-.16-.74-3.94-5.1-6.52-4.71-2.76-11.62-3.08-20.6-.91-17.16,4.13-25.9,16.5-29.19,22.37-3.05-7.7-11.44-27.82-21.37-43.57,3.76-3.81,23.65-22.02,54.17-19.85,12.95.94,21.67,4.1,25.87,9.47,3.79,4.83,2.46,9.66,2.4,9.87l-.47,1.5,1.75.19c.24,0,25.34,2.68,38.61,26.29,13.04,23.1,18.82,27.42,29.25,32.49-3.94,2.79-18.23,9.39-59.09.86Z"/>
          </g>
          <g>
            <path class="cls-2" d="M5,151.25v92.17h57.32S31.08,151.25,5,151.25Z"/>
            <path class="cls-5" d="M63.74,243.02c-.65-1.88-8.62-25.16-19.8-47.96-11.17-22.8-25.52-45.15-38.94-45.15v2.68c20.03,0,46.11,62.99,55.3,89.49H5v2.68h59.3l-.56-1.74Z"/>
          </g>
        </g>
      </g>
      <g>
        <g>
          <path class="cls-1" d="M993.03,9.39v257.53h-237.26L993.03,9.39Z"/>
          <path class="cls-5" d="M993.03,7.3v4.18l-234.09,254.07h234.09v2.68h-240.43L993.03,7.3Z"/>
        </g>
        <g>
          <g>
            <path class="cls-2" d="M932.51,102.91s27.59,5.15,41.46,48.26c0,0,12.42-11.99,18.52-11.99.18,0,.36,0,.53.03V34.18s-8.65,8.72-15.03,13.22c-6.34,4.48-21.49,19.64-12.89,34.47,0,0-30.79-1.5-32.6,21.03Z"/>
            <path class="cls-5" d="M931.03,102.8c1.6-19.74,24.24-22.02,31.77-22.24-6.73-14.92,7.82-29.64,14.28-34.23,6.19-4.37,14.76-12.96,14.85-13.04l1.1-1.1v4.11l-.06-.05c-2.61,2.52-8.98,8.61-14.05,12.21-6.22,4.4-20.57,18.86-12.48,32.81l1.19,2.09-2.58-.13c-1.19-.05-28.36-1.13-30.97,18.7,5.69,1.56,28.01,9.95,40.57,46.68,3.82-3.46,12.51-10.76,17.81-10.76h.03c.18,0,.36,0,.53.05v2.68c-.21-.05-.36-.05-.53-.05h-.03c-3.97,0-12.8,7.08-17.43,11.56l-1.78,1.72-.71-2.25c-13.42-41.71-40.07-47.27-40.36-47.32l-1.24-.24.09-1.18Z"/>
          </g>
          <g>
            <path class="cls-2" d="M967.57,158.6c-3.11-6-5.79-13.77-9.71-19.37-4.22-6.03-8.61-12.35-14.62-16.97-5.85-4.5-11.73-7.45-19.8-6.71-7.62.71-12.82,9.1-13.37,15.03,0,0-20,1.6-31.89,27.37,0,0,46.82-14.1,76.39,18.67,0,0,3.93-7.63,12.99-18.01Z"/>
            <path class="cls-5" d="M876.83,157.44c10.55-22.91,27.26-27.25,31.92-28.03,1.07-6.22,6.37-14.43,14.55-15.18,9.25-.86,15.77,3.06,20.92,7,6.07,4.69,10.49,10.97,14.73,17.03l.18.24c2.58,3.73,4.62,8.29,6.58,12.69,1.1,2.44,2.13,4.75,3.2,6.84l.38.75-.56.64c-8.83,10.11-12.77,17.68-12.8,17.76l-1.01,1.93-1.48-1.66c-28.57-31.65-74.33-18.38-74.77-18.24l-3.08.94,1.25-2.71ZM954.26,174.21c1.66-2.82,5.36-8.58,11.59-15.8-.98-1.93-1.9-4.02-2.87-6.2-1.93-4.32-3.91-8.77-6.37-12.26l-.18-.27c-4.12-5.87-8.39-11.99-14.14-16.39-4.89-3.78-10.52-7.16-18.7-6.41-6.7.62-11.53,8.48-12.03,13.82l-.12,1.13-1.21.08c-.21.03-17.96,1.8-29.43,24.01,10.88-2.41,48.01-8.16,73.47,18.3Z"/>
          </g>
          <g>
            <path class="cls-2" d="M950.16,186.63s-21.01-23.52-56.11-21.02c-35.1,2.5-29.58,21.02-29.58,21.02,0,0-25.98,2.5-39.8,27.02-13.82,24.52-19.35,27.52-30.4,32.78,0,0,10.23,13.26,61.91,2.5,0,0,4.98,0,16.03,2.5,11.06,2.5,38.97-1,38.42-18.76-.55-17.76-23.25-23.3-37.07-17.04,0,0,2-11.59,23.84-6.34,21.84,5.25,29.75,24.67,29.75,24.67,0,0,10.22-27.33,23.01-47.32Z"/>
            <path class="cls-5" d="M793.58,245.25c10.58-5.04,15.89-7.57,29.78-32.22,12.21-21.7,33.46-26.56,39.41-27.52-.27-2.17-.21-6.41,3.05-10.6,4.74-6.06,14.2-9.63,28.1-10.62,35.47-2.58,57.17,21.25,57.37,21.49l.65.72-.51.8c-12.56,19.64-22.79,46.81-22.91,47.08l-1.33,3.57-1.45-3.54c-.06-.19-7.94-18.83-28.75-23.82-7.94-1.93-14.23-1.74-18.14.54-1.07.59-1.84,1.31-2.4,1.96,7.97-2.36,17.43-1.5,24.63,2.39,6.87,3.73,10.79,9.82,11.02,17.17.18,5.66-2.28,10.38-7.29,14.03-9.28,6.73-25.1,7.83-32.98,6.06-9.63-2.17-14.61-2.44-15.53-2.47-14.88,3.09-26.38,4.21-35.27,4.21-22.02,0-27.68-6.87-28-7.27l-.95-1.26,1.48-.7ZM855.84,247.61l.33-.03c.24,0,5.3.03,16.39,2.55,7.11,1.61,22.02.54,30.41-5.55,4.27-3.11,6.34-7.08,6.19-11.88-.27-8.18-5.36-12.63-9.6-14.92-7.35-4-17.75-4.37-25.34-.97l-2.58,1.18.44-2.58c.03-.16.74-3.94,5.1-6.52,4.71-2.76,11.62-3.08,20.6-.91,17.16,4.13,25.9,16.5,29.19,22.37,3.05-7.7,11.44-27.82,21.37-43.57-3.76-3.81-23.65-22.02-54.17-19.85-12.95.94-21.67,4.1-25.87,9.47-3.79,4.83-2.46,9.66-2.4,9.87l.47,1.5-1.75.19c-.24,0-25.34,2.68-38.61,26.29-13.04,23.1-18.82,27.42-29.25,32.49,3.94,2.79,18.23,9.39,59.09.86Z"/>
          </g>
          <g>
            <path class="cls-2" d="M993.03,151.25v92.17h-57.32s31.24-92.17,57.32-92.17Z"/>
            <path class="cls-5" d="M934.29,243.02c.65-1.88,8.62-25.16,19.8-47.96,11.17-22.8,25.52-45.15,38.94-45.15v2.68c-20.03,0-46.11,62.99-55.3,89.49h55.3v2.68h-59.3l.56-1.74Z"/>
          </g>
        </g>
      </g>
    </g>
    <g>
      <g>
        <g>
          <polygon class="cls-3" points="252.42 736.15 15.15 993.66 489.69 993.66 252.42 736.15"/>
          <path class="cls-8" d="M492.86,995H11.98l240.44-260.95,240.44,260.95ZM18.31,992.32h468.21l-234.11-254.08L18.31,992.32Z"/>
        </g>
        <g>
          <g>
            <path class="cls-4" d="M252.97,865.93c-6.08,0-17.97,12.07-17.97,12.07,0,0-10.78-40.34-43.12-48.35,0,0,2.14-22.71,32.44-21.11,0,0-8.88-18.32,14.63-34.19,7.12-4.81,13.46-13,13.46-13,0,0,8.67,8.29,15.03,12.79,6.36,4.5,21.49,19.65,12.89,34.5,0,0,30.78-1.53,32.62,21.02,0,0-27.61,5.16-41.46,48.26,0,0-12.42-11.98-18.52-11.98Z"/>
            <path class="cls-8" d="M234.23,880.81l-.67-2.48c-.1-.4-10.96-39.67-42.07-47.37l-1.19-.3.1-1.11c.02-.23,2.46-22.42,30.94-22.42.3,0,.61,0,.92,0-1.58-5.32-3.86-20.57,15.81-33.85,6.84-4.62,13.07-12.62,13.13-12.7l1.04-1.34,1.25,1.19c.08.08,8.67,8.27,14.87,12.66,6.47,4.58,21.02,19.3,14.29,34.22,7.52.21,30.17,2.51,31.77,22.25l.09,1.17-1.27.24c-.27.05-26.94,5.62-40.34,47.32l-.73,2.26-1.78-1.72c-4.63-4.47-13.46-11.55-17.43-11.55h0c-3.94,0-12.44,7.13-16.86,11.62l-1.88,1.91ZM252.98,864.59c5.3,0,14,7.3,17.82,10.75,12.56-36.72,34.9-45.12,40.56-46.69-2.58-19.81-29.78-18.72-30.94-18.68l-2.6.13,1.21-2.09c8.08-13.94-6.28-28.42-12.49-32.82-5.02-3.55-11.33-9.31-13.96-11.77-2.12,2.55-7.15,8.23-12.73,12-22.3,15.06-14.24,32.41-14.16,32.58l.97,2.01-2.42-.13c-25.02-1.35-29.86,14.43-30.71,18.8,27.7,7.66,39.35,37.83,42.2,46.64,3.73-3.53,11.99-10.73,17.24-10.73h0Z"/>
          </g>
          <g>
            <path class="cls-4" d="M277.88,885.36c3.11-6,5.79-13.77,9.71-19.37,4.22-6.03,8.61-12.35,14.62-16.97,5.85-4.5,11.73-7.45,19.8-6.71,7.62.71,12.82,9.1,13.37,15.03,0,0,20,1.6,31.89,27.37,0,0-46.82-14.1-76.39,18.67,0,0-3.93-7.63-12.99-18.01Z"/>
            <path class="cls-8" d="M290.53,905.87l-1-1.94c-.04-.07-3.98-7.63-12.81-17.75l-.57-.65.39-.75c1.09-2.1,2.11-4.4,3.2-6.82,1.97-4.42,4.01-8.99,6.6-12.7l.18-.25c4.25-6.06,8.64-12.34,14.73-17.02,5.13-3.95,11.62-7.9,20.9-7.02,8.2.76,13.5,8.97,14.56,15.18,4.65.78,21.37,5.14,31.92,28.02l1.25,2.72-3.09-.93c-.46-.14-46.22-13.41-74.77,18.25l-1.49,1.65ZM279.61,885.17c6.21,7.21,9.92,12.98,11.57,15.79,25.45-26.44,62.61-20.7,73.47-18.3-11.45-22.21-29.22-23.97-29.41-23.99l-1.24-.1-.11-1.12c-.5-5.34-5.32-13.18-12.05-13.81-8.18-.74-13.79,2.63-18.69,6.39-5.75,4.42-10.02,10.52-14.15,16.41l-.18.25c-2.45,3.51-4.44,7.96-6.36,12.26-.98,2.18-1.9,4.26-2.88,6.21Z"/>
          </g>
          <g>
            <path class="cls-4" d="M295.3,913.38s21.01-23.52,56.11-21.02c35.1,2.5,29.58,21.02,29.58,21.02,0,0,25.98,2.5,39.8,27.02,13.82,24.52,19.35,27.52,30.4,32.78,0,0-10.23,13.26-61.91,2.5,0,0-4.98,0-16.03,2.5s-38.97-1-38.42-18.76c.55-17.76,23.25-23.3,37.07-17.04,0,0-2-11.59-23.84-6.34-21.84,5.25-29.75,24.67-29.75,24.67,0,0-10.22-27.33-23.01-47.32Z"/>
            <path class="cls-8" d="M424.39,981.22c-8.86,0-20.38-1.11-35.26-4.2-.91.03-5.88.28-15.52,2.46-7.87,1.78-23.71.66-32.98-6.08-5.01-3.65-7.46-8.37-7.29-14.03.23-7.34,4.14-13.43,11.02-17.16,7.19-3.9,16.64-4.74,24.62-2.38-.56-.67-1.34-1.36-2.4-1.98-3.9-2.27-10.18-2.45-18.15-.53-20.81,5-28.66,23.65-28.74,23.83l-1.45,3.54-1.34-3.58c-.1-.27-10.32-27.44-22.89-47.07l-.51-.8.64-.72c.21-.24,21.91-24.07,57.38-21.51,13.92.99,23.37,4.57,28.1,10.64,3.27,4.19,3.33,8.43,3.07,10.59,5.95.96,27.18,5.83,39.41,27.53,13.89,24.65,19.2,27.18,29.77,32.2l1.49.71-.96,1.25c-.32.41-5.96,7.28-28.01,7.28ZM389.28,974.34l.33.03c40.87,8.51,55.16,1.92,59.09-.87-10.42-5.07-16.22-9.4-29.24-32.49-13.27-23.54-38.39-26.27-38.64-26.3l-1.72-.17.45-1.51c.06-.2,1.4-5.05-2.39-9.87-4.21-5.36-12.91-8.54-25.87-9.46-30.56-2.13-50.4,16.04-54.18,19.84,9.93,15.76,18.31,35.88,21.37,43.56,3.29-5.87,12.04-18.23,29.2-22.36,8.96-2.16,15.9-1.85,20.59.92,4.37,2.58,5.06,6.35,5.09,6.51l.44,2.57-2.57-1.16c-7.57-3.43-18-3.03-25.35.95-4.23,2.29-9.33,6.75-9.58,14.93-.15,4.78,1.93,8.77,6.18,11.86,8.4,6.11,23.3,7.17,30.4,5.56,11.1-2.51,16.18-2.54,16.39-2.54Z"/>
          </g>
          <g>
            <path class="cls-4" d="M228.13,885.36c-3.11-6-5.79-13.77-9.71-19.37-4.22-6.03-8.61-12.35-14.62-16.97-5.85-4.5-11.73-7.45-19.8-6.71-7.62.71-12.82,9.1-13.37,15.03,0,0-20,1.6-31.89,27.37,0,0,46.82-14.1,76.39,18.67,0,0,3.93-7.63,12.99-18.01Z"/>
            <path class="cls-8" d="M215.49,905.87l-1.5-1.66c-28.56-31.66-74.32-18.39-74.78-18.25l-3.09.93,1.25-2.72c10.55-22.89,27.27-27.24,31.92-28.02,1.06-6.21,6.36-14.42,14.55-15.18,9.24-.86,15.77,3.07,20.91,7.02,6.1,4.68,10.49,10.96,14.73,17.02l.18.25c2.6,3.71,4.63,8.28,6.6,12.69,1.08,2.43,2.11,4.73,3.2,6.83l.39.75-.57.65c-8.86,10.15-12.77,17.68-12.81,17.75l-1,1.94ZM162.33,880.42c15.82,0,36.48,3.89,52.51,20.54,1.66-2.81,5.36-8.58,11.57-15.79-.98-1.95-1.9-4.03-2.88-6.21-1.92-4.3-3.9-8.76-6.35-12.26l-.18-.25c-4.13-5.89-8.4-11.99-14.15-16.41-4.9-3.76-10.51-7.15-18.69-6.39-6.72.62-11.54,8.46-12.05,13.81l-.1,1.12-1.24.1c-.19.02-17.96,1.78-29.41,23.99,4.02-.89,11.66-2.24,20.96-2.24Z"/>
          </g>
          <g>
            <path class="cls-4" d="M210.72,913.38s-21.01-23.52-56.11-21.02c-35.1,2.5-29.58,21.02-29.58,21.02,0,0-25.98,2.5-39.8,27.02-13.82,24.52-19.35,27.52-30.4,32.78,0,0,10.23,13.26,61.91,2.5,0,0,4.98,0,16.03,2.5,11.06,2.5,38.97-1,38.42-18.76-.55-17.76-23.25-23.3-37.07-17.04,0,0,2-11.59,23.84-6.34,21.84,5.25,29.75,24.67,29.75,24.67,0,0,10.22-27.33,23.01-47.32Z"/>
            <path class="cls-8" d="M81.63,981.22c-22.05,0-27.7-6.87-28.01-7.28l-.96-1.25,1.49-.71c10.57-5.02,15.88-7.55,29.77-32.2,12.23-21.7,33.47-26.57,39.41-27.53-.26-2.17-.2-6.4,3.07-10.59,4.73-6.07,14.18-9.65,28.1-10.64,35.48-2.53,57.16,21.27,57.38,21.51l.64.72-.51.8c-12.57,19.63-22.79,46.8-22.89,47.07l-1.34,3.58-1.45-3.55c-.08-.19-7.94-18.83-28.74-23.83-7.97-1.92-14.24-1.73-18.15.53-1.06.62-1.83,1.31-2.4,1.98,7.97-2.36,17.42-1.52,24.61,2.38,6.88,3.73,10.8,9.82,11.02,17.16.18,5.66-2.28,10.38-7.29,14.03-9.26,6.74-25.1,7.86-32.97,6.08-9.64-2.18-14.61-2.43-15.52-2.46-14.88,3.09-26.4,4.2-35.27,4.2ZM57.35,973.48c4.03,2.76,18.57,9.32,59.06.89l.33-.03c.21,0,5.28.03,16.39,2.54,7.1,1.61,22,.54,30.4-5.56,4.25-3.09,6.33-7.08,6.18-11.86-.25-8.19-5.35-12.64-9.58-14.93-7.35-3.98-17.78-4.38-25.34-.95l-2.57,1.16.44-2.57c.03-.16.72-3.93,5.09-6.51,4.69-2.77,11.63-3.08,20.59-.92,17.16,4.13,25.91,16.49,29.2,22.36,3.05-7.68,11.43-27.8,21.36-43.56-3.79-3.8-23.62-22-54.18-19.84-12.96.92-21.66,4.11-25.87,9.46-3.79,4.82-2.45,9.67-2.39,9.87l.43,1.51-1.71.17c-.25.03-25.37,2.75-38.64,26.3-13,23.07-18.81,27.41-29.2,32.48Z"/>
          </g>
          <g>
            <path class="cls-4" d="M309.74,970.17h-114.63s31.25-92.17,57.32-92.16c26.08,0,57.31,92.16,57.31,92.16Z"/>
            <path class="cls-8" d="M311.75,971.51h-118.65l.59-1.73c1.29-3.8,31.88-93.11,58.74-93.11,0,0,0,0,0,0,26.86,0,57.44,89.31,58.73,93.11l.59,1.73ZM197.12,968.83h110.61c-9.18-26.51-35.26-89.48-55.3-89.48s-46.13,62.98-55.31,89.48Z"/>
          </g>
        </g>
      </g>
      <g>
        <g>
          <polygon class="cls-3" points="746.42 736.15 509.14 993.66 983.69 993.66 746.42 736.15"/>
          <path class="cls-8" d="M986.86,995h-480.88l240.44-260.95,240.44,260.95ZM512.31,992.32h468.21l-234.11-254.08-234.11,254.08Z"/>
        </g>
        <g>
          <g>
            <path class="cls-4" d="M746.97,865.93c-6.08,0-17.97,12.07-17.97,12.07,0,0-10.78-40.34-43.12-48.35,0,0,2.14-22.71,32.44-21.11,0,0-8.88-18.32,14.63-34.19,7.12-4.81,13.46-13,13.46-13,0,0,8.67,8.29,15.03,12.79,6.36,4.5,21.49,19.65,12.89,34.5,0,0,30.78-1.53,32.62,21.02,0,0-27.61,5.16-41.46,48.26,0,0-12.42-11.98-18.52-11.98Z"/>
            <path class="cls-8" d="M728.23,880.81l-.67-2.48c-.1-.4-10.96-39.67-42.07-47.37l-1.19-.3.1-1.11c.02-.23,2.46-22.42,30.94-22.42.3,0,.61,0,.92,0-1.58-5.32-3.86-20.57,15.81-33.85,6.84-4.62,13.07-12.62,13.13-12.7l1.04-1.34,1.25,1.19c.08.08,8.67,8.27,14.87,12.66,6.47,4.58,21.02,19.3,14.29,34.22,7.52.21,30.17,2.51,31.77,22.25l.09,1.17-1.27.24c-.27.05-26.94,5.62-40.34,47.32l-.73,2.26-1.78-1.72c-4.63-4.47-13.46-11.55-17.43-11.55h0c-3.94,0-12.44,7.13-16.86,11.62l-1.88,1.91ZM746.97,864.59c5.3,0,14,7.3,17.82,10.75,12.56-36.72,34.9-45.12,40.56-46.69-2.58-19.81-29.78-18.72-30.94-18.68l-2.6.13,1.21-2.09c8.08-13.94-6.28-28.42-12.49-32.82-5.02-3.55-11.33-9.31-13.96-11.77-2.12,2.55-7.15,8.23-12.73,12-22.3,15.06-14.24,32.41-14.16,32.58l.97,2.01-2.42-.13c-25-1.35-29.86,14.43-30.71,18.8,27.7,7.66,39.35,37.83,42.2,46.64,3.73-3.53,11.99-10.73,17.24-10.73h0Z"/>
          </g>
          <g>
            <path class="cls-4" d="M771.88,885.36c3.11-6,5.79-13.77,9.71-19.37,4.22-6.03,8.61-12.35,14.62-16.97,5.85-4.5,11.73-7.45,19.8-6.71,7.62.71,12.82,9.1,13.37,15.03,0,0,20,1.6,31.89,27.37,0,0-46.82-14.1-76.39,18.67,0,0-3.93-7.63-12.99-18.01Z"/>
            <path class="cls-8" d="M784.53,905.87l-1-1.94c-.04-.07-3.98-7.63-12.81-17.75l-.57-.65.39-.75c1.09-2.11,2.12-4.41,3.2-6.84,1.97-4.41,4-8.97,6.6-12.68l.18-.25c4.25-6.06,8.64-12.34,14.73-17.02,5.13-3.95,11.62-7.9,20.9-7.02,8.2.76,13.5,8.97,14.56,15.18,4.65.78,21.37,5.14,31.92,28.02l1.25,2.72-3.09-.93c-.46-.14-46.21-13.41-74.77,18.25l-1.49,1.65ZM773.6,885.17c6.21,7.21,9.92,12.98,11.57,15.79,25.45-26.44,62.61-20.7,73.47-18.3-11.45-22.21-29.22-23.97-29.41-23.99l-1.24-.1-.11-1.12c-.5-5.34-5.32-13.18-12.05-13.81-8.16-.74-13.79,2.63-18.69,6.39-5.75,4.42-10.02,10.52-14.15,16.41l-.18.25c-2.45,3.5-4.43,7.95-6.35,12.25-.98,2.19-1.9,4.27-2.88,6.22Z"/>
          </g>
          <g>
            <path class="cls-4" d="M789.29,913.38s21.01-23.52,56.11-21.02c35.1,2.5,29.58,21.02,29.58,21.02,0,0,25.98,2.5,39.8,27.02,13.82,24.52,19.35,27.52,30.4,32.78,0,0-10.23,13.26-61.91,2.5,0,0-4.98,0-16.03,2.5-11.06,2.5-38.97-1-38.42-18.76.55-17.76,23.25-23.3,37.07-17.04,0,0-2-11.59-23.84-6.34-21.84,5.25-29.75,24.67-29.75,24.67,0,0-10.22-27.33-23.01-47.32Z"/>
            <path class="cls-8" d="M918.38,981.22c-8.86,0-20.38-1.11-35.26-4.2-.91.03-5.88.28-15.52,2.46-7.88,1.78-23.71.66-32.98-6.08-5.01-3.65-7.46-8.37-7.29-14.03.23-7.34,4.14-13.43,11.02-17.16,7.19-3.9,16.64-4.74,24.62-2.38-.56-.67-1.34-1.36-2.4-1.98-3.9-2.27-10.18-2.45-18.15-.53-20.81,5-28.66,23.65-28.74,23.83l-1.45,3.54-1.34-3.58c-.1-.27-10.32-27.44-22.89-47.07l-.51-.8.64-.72c.21-.24,21.91-24.07,57.38-21.51,13.92.99,23.37,4.57,28.1,10.64,3.27,4.19,3.33,8.43,3.07,10.59,5.95.96,27.18,5.83,39.41,27.53,13.89,24.65,19.2,27.18,29.77,32.2l1.49.71-.96,1.25c-.32.41-5.96,7.28-28.01,7.28ZM883.27,974.34l.33.03c40.87,8.51,55.16,1.92,59.09-.87-10.42-5.07-16.22-9.4-29.24-32.49-13.27-23.54-38.39-26.27-38.64-26.3l-1.72-.17.45-1.51c.06-.2,1.4-5.05-2.39-9.87-4.21-5.36-12.91-8.54-25.87-9.46-30.56-2.13-50.4,16.04-54.18,19.84,9.93,15.76,18.31,35.88,21.37,43.56,3.29-5.87,12.04-18.23,29.2-22.36,8.96-2.16,15.9-1.85,20.59.92,4.37,2.58,5.06,6.35,5.09,6.51l.44,2.57-2.57-1.16c-7.57-3.43-17.99-3.03-25.35.95-4.23,2.29-9.33,6.75-9.58,14.93-.15,4.78,1.93,8.77,6.18,11.86,8.4,6.11,23.31,7.17,30.4,5.56,11.1-2.51,16.18-2.54,16.39-2.54Z"/>
          </g>
          <g>
            <path class="cls-4" d="M722.13,885.36c-3.11-6-5.79-13.77-9.71-19.37-4.22-6.03-8.61-12.35-14.62-16.97-5.85-4.5-11.73-7.45-19.8-6.71-7.62.71-12.82,9.1-13.37,15.03,0,0-20,1.6-31.89,27.37,0,0,46.82-14.1,76.39,18.67,0,0,3.93-7.63,12.99-18.01Z"/>
            <path class="cls-8" d="M709.48,905.87l-1.5-1.66c-28.56-31.66-74.32-18.39-74.78-18.25l-3.09.93,1.25-2.72c10.55-22.89,27.27-27.24,31.92-28.02,1.06-6.21,6.36-14.42,14.55-15.18,9.26-.86,15.77,3.07,20.91,7.02,6.1,4.68,10.49,10.96,14.73,17.02l.18.25c2.6,3.71,4.63,8.28,6.6,12.69,1.08,2.43,2.11,4.73,3.2,6.83l.39.75-.57.65c-8.86,10.15-12.77,17.68-12.81,17.75l-1,1.94ZM656.33,880.42c15.82,0,36.48,3.89,52.5,20.54,1.66-2.81,5.36-8.58,11.57-15.79-.98-1.95-1.9-4.03-2.88-6.21-1.92-4.3-3.9-8.76-6.35-12.26l-.18-.25c-4.13-5.89-8.4-11.99-14.15-16.41-4.9-3.76-10.52-7.15-18.69-6.39-6.72.62-11.54,8.46-12.05,13.81l-.1,1.12-1.24.1c-.19.02-17.96,1.78-29.41,23.99,4.02-.89,11.66-2.24,20.97-2.24Z"/>
          </g>
          <g>
            <path class="cls-4" d="M704.71,913.38s-21.01-23.52-56.11-21.02c-35.1,2.5-29.58,21.02-29.58,21.02,0,0-25.98,2.5-39.8,27.02-13.82,24.52-19.35,27.52-30.4,32.78,0,0,10.23,13.26,61.91,2.5,0,0,4.98,0,16.03,2.5,11.06,2.5,38.97-1,38.42-18.76-.55-17.76-23.25-23.3-37.07-17.04,0,0,2-11.59,23.84-6.34,21.84,5.25,29.75,24.67,29.75,24.67,0,0,10.22-27.33,23.01-47.32Z"/>
            <path class="cls-8" d="M575.62,981.22c-22.05,0-27.7-6.87-28.01-7.28l-.96-1.25,1.49-.71c10.57-5.02,15.88-7.55,29.77-32.2,12.23-21.7,33.47-26.57,39.41-27.53-.26-2.17-.2-6.4,3.07-10.59,4.73-6.07,14.18-9.65,28.1-10.64,35.51-2.53,57.16,21.27,57.38,21.51l.64.72-.51.8c-12.57,19.63-22.79,46.8-22.89,47.07l-1.34,3.58-1.45-3.55c-.08-.19-7.94-18.83-28.74-23.83-7.97-1.92-14.24-1.73-18.15.53-1.06.62-1.83,1.31-2.4,1.98,7.97-2.36,17.42-1.52,24.61,2.38,6.88,3.73,10.8,9.82,11.02,17.16.18,5.66-2.28,10.38-7.29,14.03-9.26,6.74-25.1,7.86-32.97,6.08-9.64-2.18-14.61-2.43-15.52-2.46-14.88,3.09-26.4,4.2-35.27,4.2ZM551.34,973.48c4.03,2.76,18.57,9.32,59.06.89l.33-.03c.21,0,5.28.03,16.39,2.54,7.09,1.61,22,.54,30.4-5.56,4.25-3.09,6.33-7.08,6.18-11.86-.25-8.19-5.35-12.64-9.58-14.93-7.35-3.98-17.78-4.38-25.34-.95l-2.57,1.16.44-2.57c.03-.16.72-3.93,5.09-6.51,4.69-2.77,11.63-3.08,20.59-.92,17.16,4.13,25.91,16.49,29.2,22.36,3.05-7.68,11.43-27.8,21.37-43.56-3.79-3.8-23.66-22-54.18-19.84-12.96.92-21.66,4.11-25.87,9.46-3.79,4.82-2.45,9.67-2.39,9.87l.43,1.51-1.71.17c-.25.03-25.37,2.75-38.64,26.3-13,23.07-18.81,27.41-29.2,32.48Z"/>
          </g>
          <g>
            <path class="cls-4" d="M803.73,970.17h-114.63s31.25-92.17,57.32-92.16c26.08,0,57.31,92.16,57.31,92.16Z"/>
            <path class="cls-8" d="M805.74,971.51h-118.65l.59-1.73c1.29-3.8,31.88-93.11,58.74-93.11,0,0,0,0,0,0,26.86,0,57.44,89.31,58.73,93.11l.59,1.73ZM691.11,968.83h110.61c-9.18-26.51-35.26-89.48-55.3-89.48s-46.13,62.98-55.31,89.48Z"/>
          </g>
        </g>
      </g>
      <g>
        <g>
          <polygon class="cls-1" points="499.55 990.61 262.28 733.09 736.83 733.09 499.55 990.61"/>
          <path class="cls-5" d="M499.55,992.7l-240.44-260.95h480.88l-240.44,260.95ZM265.45,734.44l234.11,254.08,234.11-254.08h-468.21Z"/>
        </g>
        <g>
          <g>
            <path class="cls-2" d="M500.11,860.82c-6.08,0-17.97-12.07-17.97-12.07,0,0-10.78,40.34-43.12,48.35,0,0,2.14,22.71,32.44,21.11,0,0-8.88,18.32,14.63,34.19,7.12,4.81,13.46,13,13.46,13,0,0,8.67-8.29,15.03-12.79,6.36-4.5,21.49-19.65,12.89-34.5,0,0,30.78,1.53,32.62-21.02,0,0-27.61-5.16-41.46-48.26,0,0-12.42,11.98-18.52,11.98Z"/>
            <path class="cls-5" d="M499.38,967.52l-1.04-1.34c-.06-.08-6.3-8.08-13.13-12.7-19.67-13.28-17.39-28.53-15.8-33.85-29.36.46-31.84-22.18-31.86-22.41l-.1-1.11,1.19-.3c31.13-7.71,41.96-46.98,42.07-47.37l.67-2.49,1.88,1.91c4.43,4.49,12.92,11.62,16.86,11.63h0c3.97,0,12.8-7.09,17.44-11.56l1.78-1.72.73,2.26c13.4,41.7,40.07,47.27,40.34,47.32l1.26.24-.09,1.17c-1.61,19.74-24.26,22.04-31.77,22.25,6.72,14.92-7.83,29.63-14.29,34.22-6.2,4.39-14.78,12.58-14.87,12.66l-1.25,1.19ZM473.78,916.74l-.96,2c-.34.71-8.07,17.57,14.16,32.58,5.58,3.76,10.61,9.45,12.73,12,2.63-2.45,8.95-8.22,13.96-11.77,6.21-4.4,20.57-18.87,12.49-32.82l-1.21-2.09,2.6.13c1.18.06,28.36,1.14,30.94-18.68-5.66-1.57-28-9.97-40.56-46.69-3.82,3.45-12.52,10.75-17.82,10.75h0c-5.24,0-13.5-7.2-17.24-10.73-2.85,8.8-14.5,38.98-42.2,46.64.85,4.38,5.75,20.1,30.71,18.8l2.4-.13Z"/>
          </g>
          <g>
            <path class="cls-2" d="M525.02,841.4c3.11,6,5.79,13.77,9.71,19.37,4.22,6.03,8.61,12.35,14.62,16.97,5.85,4.5,11.73,7.45,19.8,6.71,7.62-.71,12.82-9.1,13.37-15.03,0,0,20-1.6,31.89-27.37,0,0-46.82,14.1-76.39-18.67,0,0-3.93,7.63-12.99,18.01Z"/>
            <path class="cls-5" d="M566.74,885.9c-7.93,0-13.71-3.56-18.36-7.14-6.1-4.69-10.49-10.97-14.75-17.04l-.16-.24c-2.6-3.71-4.63-8.28-6.6-12.69-1.08-2.43-2.11-4.73-3.2-6.83l-.39-.75.57-.65c8.83-10.12,12.77-17.68,12.81-17.75l1-1.94,1.49,1.65c28.56,31.66,74.31,18.38,74.78,18.25l3.09-.93-1.25,2.72c-10.55,22.89-27.27,27.24-31.92,28.03-1.06,6.21-6.36,14.42-14.55,15.18-.87.08-1.72.12-2.54.12ZM526.74,841.58c.98,1.95,1.9,4.03,2.88,6.21,1.92,4.3,3.9,8.76,6.35,12.26l.17.24c4.13,5.9,8.4,12,14.16,16.43,4.89,3.77,10.52,7.14,18.69,6.39,6.72-.62,11.54-8.46,12.05-13.8l.1-1.12,1.24-.1c.18-.02,17.96-1.78,29.41-23.99-10.86,2.4-48.02,8.14-73.47-18.3-1.66,2.81-5.36,8.58-11.57,15.79Z"/>
          </g>
          <g>
            <path class="cls-2" d="M542.43,813.38s21.01,23.52,56.11,21.02c35.1-2.5,29.58-21.02,29.58-21.02,0,0,25.98-2.5,39.8-27.02,13.82-24.52,19.35-27.52,30.4-32.78,0,0-10.23-13.26-61.91-2.5,0,0-4.98,0-16.03-2.5-11.06-2.5-38.97,1-38.42,18.76.55,17.76,23.25,23.3,37.07,17.04,0,0-2,11.59-23.84,6.34-21.84-5.25-29.75-24.67-29.75-24.67,0,0-10.22,27.33-23.01,47.32Z"/>
            <path class="cls-5" d="M593.4,835.92c-32.34,0-51.91-21.47-52.12-21.7l-.64-.72.51-.8c12.57-19.63,22.79-46.8,22.89-47.07l1.34-3.58,1.45,3.55c.08.19,7.94,18.83,28.74,23.83,7.96,1.92,14.24,1.73,18.15-.53,1.06-.62,1.83-1.31,2.4-1.98-7.96,2.36-17.43,1.52-24.61-2.38-6.88-3.73-10.8-9.82-11.02-17.16-.18-5.66,2.28-10.38,7.29-14.03,9.26-6.74,25.1-7.85,32.97-6.08,9.64,2.18,14.61,2.43,15.52,2.46,51.9-10.78,62.84,2.51,63.28,3.08l.96,1.25-1.49.71c-10.57,5.02-15.88,7.54-29.77,32.2-12.23,21.7-33.47,26.57-39.41,27.53.26,2.17.2,6.4-3.07,10.59-4.73,6.07-14.18,9.65-28.1,10.64-1.79.13-3.54.19-5.26.19ZM544.24,813.22c3.79,3.8,23.64,21.99,54.18,19.84,12.96-.92,21.66-4.11,25.87-9.46,3.79-4.82,2.45-9.67,2.39-9.87l-.43-1.51,1.71-.17c.25-.03,25.37-2.75,38.64-26.3,13-23.07,18.81-27.41,29.2-32.47-4.03-2.76-18.57-9.32-59.06-.89l-.33.03c-.21,0-5.28-.03-16.39-2.54-7.09-1.61-22-.55-30.4,5.56-4.25,3.09-6.33,7.08-6.18,11.86.25,8.19,5.35,12.64,9.58,14.93,7.35,3.98,17.78,4.38,25.35.95l2.57-1.16-.45,2.57c-.03.16-.73,3.93-5.09,6.51-4.69,2.77-11.62,3.08-20.6.92-17.16-4.13-25.91-16.49-29.2-22.36-3.05,7.68-11.43,27.8-21.36,43.56Z"/>
          </g>
          <g>
            <path class="cls-2" d="M475.26,841.4c-3.11,6-5.79,13.77-9.71,19.37-4.22,6.03-8.61,12.35-14.62,16.97-5.85,4.5-11.73,7.45-19.8,6.71-7.62-.71-12.82-9.1-13.37-15.03,0,0-20-1.6-31.89-27.37,0,0,46.82,14.1,76.39-18.67,0,0,3.93,7.63,12.99,18.01Z"/>
            <path class="cls-5" d="M433.53,885.9c-.82,0-1.67-.04-2.54-.12-8.2-.76-13.5-8.97-14.56-15.18-4.65-.78-21.37-5.14-31.92-28.03l-1.25-2.72,3.09.93c.46.14,46.21,13.41,74.77-18.25l1.49-1.65,1,1.94c.04.07,3.98,7.63,12.81,17.75l.57.65-.39.75c-1.09,2.1-2.11,4.4-3.2,6.82-1.97,4.42-4.01,8.99-6.6,12.7l-.18.25c-4.25,6.06-8.64,12.34-14.73,17.02-4.65,3.58-10.43,7.14-18.36,7.14ZM388.5,844.09c11.45,22.21,29.23,23.98,29.41,23.99l1.24.1.11,1.12c.5,5.34,5.32,13.18,12.05,13.8,8.17.74,13.79-2.63,18.69-6.39,5.75-4.42,10.02-10.52,14.15-16.41l.18-.25c2.45-3.51,4.44-7.96,6.36-12.26.98-2.18,1.9-4.26,2.88-6.21-6.21-7.21-9.92-12.98-11.57-15.79-25.46,26.44-62.62,20.7-73.47,18.3Z"/>
          </g>
          <g>
            <path class="cls-2" d="M457.85,813.38s-21.01,23.52-56.11,21.02c-35.1-2.5-29.58-21.02-29.58-21.02,0,0-25.98-2.5-39.8-27.02-13.82-24.52-19.35-27.52-30.4-32.78,0,0,10.23-13.26,61.91-2.5,0,0,4.98,0,16.03-2.5,11.06-2.5,38.97,1,38.42,18.76-.55,17.76-23.25,23.3-37.07,17.04,0,0,2,11.59,23.84,6.34,21.84-5.25,29.75-24.67,29.75-24.67,0,0,10.22,27.33,23.01,47.32Z"/>
            <path class="cls-5" d="M406.88,835.92c-1.72,0-3.47-.06-5.26-.19-13.92-.99-23.37-4.57-28.1-10.64-3.27-4.19-3.33-8.43-3.07-10.59-5.95-.96-27.18-5.83-39.41-27.53-13.89-24.65-19.2-27.18-29.77-32.2l-1.49-.71.96-1.25c.44-.57,11.38-13.85,63.28-3.08.91-.03,5.88-.28,15.52-2.46,7.88-1.78,23.72-.66,32.98,6.08,5.01,3.65,7.46,8.37,7.29,14.03-.23,7.34-4.14,13.43-11.02,17.16-7.19,3.9-16.64,4.74-24.62,2.38.56.67,1.34,1.36,2.4,1.98,3.9,2.27,10.18,2.45,18.15.53,20.81-5,28.66-23.65,28.74-23.83l1.45-3.54,1.34,3.58c.1.27,10.32,27.44,22.89,47.07l.51.8-.64.72c-.2.23-19.78,21.7-52.12,21.7ZM304.48,753.27c10.39,5.06,16.2,9.41,29.2,32.47,13.27,23.54,38.39,26.27,38.64,26.3l1.72.17-.45,1.51c-.06.2-1.4,5.05,2.39,9.87,4.21,5.36,12.91,8.54,25.87,9.46,30.57,2.15,50.4-16.04,54.18-19.84-9.93-15.76-18.31-35.88-21.37-43.56-3.29,5.87-12.04,18.23-29.2,22.36-8.97,2.16-15.9,1.84-20.59-.92-4.37-2.58-5.06-6.35-5.09-6.51l-.44-2.57,2.57,1.16c7.57,3.43,17.99,3.03,25.35-.95,4.23-2.29,9.33-6.75,9.58-14.93.15-4.78-1.93-8.77-6.18-11.86-8.4-6.11-23.31-7.17-30.4-5.56-11.1,2.51-16.18,2.54-16.39,2.54l-.33-.03c-40.45-8.42-55.01-1.89-59.06.89Z"/>
          </g>
          <g>
            <path class="cls-2" d="M556.87,756.58h-114.63s31.25,92.17,57.32,92.16c26.08,0,57.31-92.16,57.31-92.16Z"/>
            <path class="cls-5" d="M499.56,850.09c-26.86,0-57.45-89.31-58.74-93.11l-.59-1.73h118.65l-.59,1.73c-1.29,3.8-31.86,93.11-58.72,93.11ZM444.25,757.92c9.19,26.51,35.28,89.48,55.31,89.48,20.04,0,46.11-62.98,55.3-89.48h-110.61Z"/>
          </g>
        </g>
      </g>
      <g>
        <g>
          <path class="cls-1" d="M5,990.61v-257.53h237.26L5,990.61Z"/>
          <path class="cls-5" d="M5,992.7v-4.18l234.09-254.07H5v-2.68h240.43L5,992.7Z"/>
        </g>
        <g>
          <g>
            <path class="cls-2" d="M65.52,897.09s-27.59-5.15-41.46-48.26c0,0-12.42,11.99-18.52,11.99-.18,0-.36,0-.53-.03v105.02s8.65-8.72,15.03-13.22c6.34-4.48,21.49-19.64,12.89-34.47,0,0,30.79,1.5,32.6-21.03Z"/>
            <path class="cls-5" d="M67,897.2c-1.6,19.74-24.24,22.02-31.77,22.24,6.73,14.92-7.82,29.64-14.28,34.23-6.19,4.37-14.76,12.96-14.85,13.04l-1.1,1.1v-4.11l.06.05c2.61-2.52,8.98-8.61,14.05-12.21,6.22-4.4,20.57-18.86,12.48-32.81l-1.19-2.09,2.58.13c1.19.05,28.36,1.13,30.97-18.7-5.69-1.56-28.01-9.95-40.57-46.68-3.82,3.46-12.51,10.76-17.81,10.76h-.03c-.18,0-.36,0-.53-.05v-2.68c.21.05.36.05.53.05h.03c3.97,0,12.8-7.08,17.43-11.56l1.78-1.72.71,2.25c13.42,41.71,40.07,47.27,40.36,47.32l1.24.24-.09,1.18Z"/>
          </g>
          <g>
            <path class="cls-2" d="M30.46,841.4c3.11,6,5.79,13.77,9.71,19.37,4.22,6.03,8.61,12.35,14.62,16.97,5.85,4.5,11.73,7.45,19.8,6.71,7.62-.71,12.82-9.1,13.37-15.03,0,0,20-1.6,31.89-27.37,0,0-46.82,14.1-76.39-18.67,0,0-3.93,7.63-12.99,18.01Z"/>
            <path class="cls-5" d="M121.2,842.56c-10.55,22.91-27.26,27.25-31.92,28.03-1.07,6.22-6.37,14.43-14.55,15.18-9.25.86-15.77-3.06-20.92-7-6.07-4.69-10.49-10.97-14.73-17.03l-.18-.24c-2.58-3.73-4.62-8.29-6.58-12.69-1.1-2.44-2.13-4.75-3.2-6.84l-.38-.75.56-.64c8.83-10.11,12.77-17.68,12.8-17.76l1.01-1.93,1.48,1.66c28.57,31.65,74.33,18.38,74.77,18.24l3.08-.94-1.25,2.71ZM43.76,825.79c-1.66,2.82-5.36,8.58-11.59,15.8.98,1.93,1.9,4.02,2.87,6.2,1.93,4.32,3.91,8.77,6.37,12.26l.18.27c4.12,5.87,8.39,11.99,14.14,16.39,4.89,3.78,10.52,7.16,18.7,6.41,6.7-.62,11.53-8.48,12.03-13.82l.12-1.13,1.21-.08c.21-.03,17.96-1.8,29.43-24.01-10.88,2.41-48.01,8.16-73.47-18.3Z"/>
          </g>
          <g>
            <path class="cls-2" d="M47.87,813.37s21.01,23.52,56.11,21.02c35.1-2.5,29.58-21.02,29.58-21.02,0,0,25.98-2.5,39.8-27.02,13.82-24.52,19.35-27.52,30.4-32.78,0,0-10.23-13.26-61.91-2.5,0,0-4.98,0-16.03-2.5-11.06-2.5-38.97,1-38.42,18.76.55,17.76,23.25,23.3,37.07,17.04,0,0-2,11.59-23.84,6.34-21.84-5.25-29.75-24.67-29.75-24.67,0,0-10.22,27.33-23.01,47.32Z"/>
            <path class="cls-5" d="M204.45,754.75c-10.58,5.04-15.89,7.57-29.78,32.22-12.21,21.7-33.46,26.56-39.41,27.52.27,2.17.21,6.41-3.05,10.6-4.74,6.06-14.2,9.63-28.1,10.62-35.47,2.58-57.17-21.25-57.37-21.49l-.65-.72.51-.8c12.56-19.64,22.79-46.81,22.91-47.08l1.33-3.57,1.45,3.54c.06.19,7.94,18.83,28.75,23.82,7.94,1.93,14.23,1.74,18.14-.54,1.07-.59,1.84-1.31,2.4-1.96-7.97,2.36-17.43,1.5-24.63-2.39-6.87-3.73-10.79-9.82-11.02-17.17-.18-5.66,2.28-10.38,7.29-14.03,9.28-6.73,25.1-7.83,32.98-6.06,9.63,2.17,14.61,2.44,15.53,2.47,14.88-3.09,26.38-4.21,35.27-4.21,22.02,0,27.68,6.87,28,7.27l.95,1.26-1.48.7ZM142.18,752.39l-.33.03c-.24,0-5.3-.03-16.39-2.55-7.11-1.61-22.02-.54-30.41,5.55-4.27,3.11-6.34,7.08-6.19,11.88.27,8.18,5.36,12.63,9.6,14.92,7.35,4,17.75,4.37,25.34.97l2.58-1.18-.44,2.58c-.03.16-.74,3.94-5.1,6.52-4.71,2.76-11.62,3.08-20.6.91-17.16-4.13-25.9-16.5-29.19-22.37-3.05,7.7-11.44,27.82-21.37,43.57,3.76,3.81,23.65,22.02,54.17,19.85,12.95-.94,21.67-4.1,25.87-9.47,3.79-4.83,2.46-9.66,2.4-9.87l-.47-1.5,1.75-.19c.24,0,25.34-2.68,38.61-26.29,13.04-23.1,18.82-27.42,29.25-32.49-3.94-2.79-18.23-9.39-59.09-.86Z"/>
          </g>
          <g>
            <path class="cls-2" d="M5,848.75v-92.17h57.32s-31.24,92.17-57.32,92.17Z"/>
            <path class="cls-5" d="M63.74,756.98c-.65,1.88-8.62,25.16-19.8,47.96-11.17,22.8-25.52,45.15-38.94,45.15v-2.68c20.03,0,46.11-62.99,55.3-89.49H5v-2.68h59.3l-.56,1.74Z"/>
          </g>
        </g>
      </g>
      <g>
        <g>
          <path class="cls-1" d="M993.03,990.61v-257.53h-237.26l237.26,257.53Z"/>
          <path class="cls-5" d="M993.03,992.7v-4.18l-234.09-254.07h234.09v-2.68h-240.43l240.43,260.93Z"/>
        </g>
        <g>
          <g>
            <path class="cls-2" d="M932.51,897.09s27.59-5.15,41.46-48.26c0,0,12.42,11.99,18.52,11.99.18,0,.36,0,.53-.03v105.02s-8.65-8.72-15.03-13.22c-6.34-4.48-21.49-19.64-12.89-34.47,0,0-30.79,1.5-32.6-21.03Z"/>
            <path class="cls-5" d="M931.03,897.2c1.6,19.74,24.24,22.02,31.77,22.24-6.73,14.92,7.82,29.64,14.28,34.23,6.19,4.37,14.76,12.96,14.85,13.04l1.1,1.1v-4.11l-.06.05c-2.61-2.52-8.98-8.61-14.05-12.21-6.22-4.4-20.57-18.86-12.48-32.81l1.19-2.09-2.58.13c-1.19.05-28.36,1.13-30.97-18.7,5.69-1.56,28.01-9.95,40.57-46.68,3.82,3.46,12.51,10.76,17.81,10.76h.03c.18,0,.36,0,.53-.05v-2.68c-.21.05-.36.05-.53.05h-.03c-3.97,0-12.8-7.08-17.43-11.56l-1.78-1.72-.71,2.25c-13.42,41.71-40.07,47.27-40.36,47.32l-1.24.24.09,1.18Z"/>
          </g>
          <g>
            <path class="cls-2" d="M967.57,841.4c-3.11,6-5.79,13.77-9.71,19.37-4.22,6.03-8.61,12.35-14.62,16.97-5.85,4.5-11.73,7.45-19.8,6.71-7.62-.71-12.82-9.1-13.37-15.03,0,0-20-1.6-31.89-27.37,0,0,46.82,14.1,76.39-18.67,0,0,3.93,7.63,12.99,18.01Z"/>
            <path class="cls-5" d="M876.83,842.56c10.55,22.91,27.26,27.25,31.92,28.03,1.07,6.22,6.37,14.43,14.55,15.18,9.25.86,15.77-3.06,20.92-7,6.07-4.69,10.49-10.97,14.73-17.03l.18-.24c2.58-3.73,4.62-8.29,6.58-12.69,1.1-2.44,2.13-4.75,3.2-6.84l.38-.75-.56-.64c-8.83-10.11-12.77-17.68-12.8-17.76l-1.01-1.93-1.48,1.66c-28.57,31.65-74.33,18.38-74.77,18.24l-3.08-.94,1.25,2.71ZM954.26,825.79c1.66,2.82,5.36,8.58,11.59,15.8-.98,1.93-1.9,4.02-2.87,6.2-1.93,4.32-3.91,8.77-6.37,12.26l-.18.27c-4.12,5.87-8.39,11.99-14.14,16.39-4.89,3.78-10.52,7.16-18.7,6.41-6.7-.62-11.53-8.48-12.03-13.82l-.12-1.13-1.21-.08c-.21-.03-17.96-1.8-29.43-24.01,10.88,2.41,48.01,8.16,73.47-18.3Z"/>
          </g>
          <g>
            <path class="cls-2" d="M950.16,813.37s-21.01,23.52-56.11,21.02c-35.1-2.5-29.58-21.02-29.58-21.02,0,0-25.98-2.5-39.8-27.02-13.82-24.52-19.35-27.52-30.4-32.78,0,0,10.23-13.26,61.91-2.5,0,0,4.98,0,16.03-2.5,11.06-2.5,38.97,1,38.42,18.76-.55,17.76-23.25,23.3-37.07,17.04,0,0,2,11.59,23.84,6.34,21.84-5.25,29.75-24.67,29.75-24.67,0,0,10.22,27.33,23.01,47.32Z"/>
            <path class="cls-5" d="M793.58,754.75c10.58,5.04,15.89,7.57,29.78,32.22,12.21,21.7,33.46,26.56,39.41,27.52-.27,2.17-.21,6.41,3.05,10.6,4.74,6.06,14.2,9.63,28.1,10.62,35.47,2.58,57.17-21.25,57.37-21.49l.65-.72-.51-.8c-12.56-19.64-22.79-46.81-22.91-47.08l-1.33-3.57-1.45,3.54c-.06.19-7.94,18.83-28.75,23.82-7.94,1.93-14.23,1.74-18.14-.54-1.07-.59-1.84-1.31-2.4-1.96,7.97,2.36,17.43,1.5,24.63-2.39,6.87-3.73,10.79-9.82,11.02-17.17.18-5.66-2.28-10.38-7.29-14.03-9.28-6.73-25.1-7.83-32.98-6.06-9.63,2.17-14.61,2.44-15.53,2.47-14.88-3.09-26.38-4.21-35.27-4.21-22.02,0-27.68,6.87-28,7.27l-.95,1.26,1.48.7ZM855.84,752.39l.33.03c.24,0,5.3-.03,16.39-2.55,7.11-1.61,22.02-.54,30.41,5.55,4.27,3.11,6.34,7.08,6.19,11.88-.27,8.18-5.36,12.63-9.6,14.92-7.35,4-17.75,4.37-25.34.97l-2.58-1.18.44,2.58c.03.16.74,3.94,5.1,6.52,4.71,2.76,11.62,3.08,20.6.91,17.16-4.13,25.9-16.5,29.19-22.37,3.05,7.7,11.44,27.82,21.37,43.57-3.76,3.81-23.65,22.02-54.17,19.85-12.95-.94-21.67-4.1-25.87-9.47-3.79-4.83-2.46-9.66-2.4-9.87l.47-1.5-1.75-.19c-.24,0-25.34-2.68-38.61-26.29-13.04-23.1-18.82-27.42-29.25-32.49,3.94-2.79,18.23-9.39,59.09-.86Z"/>
          </g>
          <g>
            <path class="cls-2" d="M993.03,848.75v-92.17h-57.32s31.24,92.17,57.32,92.17Z"/>
            <path class="cls-5" d="M934.29,756.98c.65,1.88,8.62,25.16,19.8,47.96,11.17,22.8,25.52,45.15,38.94,45.15v-2.68c-20.03,0-46.11-62.99-55.3-89.49h55.3v-2.68h-59.3l.56,1.74Z"/>
          </g>
        </g>
      </g>
    </g>
  </g>
</svg>