<?xml version="1.0" encoding="UTF-8"?>
<svg id="Layer_1" data-name="Layer 1" xmlns="http://www.w3.org/2000/svg" viewBox="0 0 1000 1000">
  <defs>
    <style>
      .cls-1 {
        fill: #924d66;
      }

      .cls-1, .cls-2 {
        stroke-width: 7px;
      }

      .cls-1, .cls-2, .cls-3 {
        stroke: #edad23;
        stroke-miterlimit: 10;
      }

      .cls-2 {
        fill: #481e7a;
      }

      .cls-3 {
        fill: #0b022b;
        stroke-width: 6px;
      }
    </style>
  </defs>
  <g>
    <g>
      <path class="cls-2" d="M260.09,589.67c-24.29,23.9-81.95,41.89-105.86,17.6-23.9-24.29-5-81.66,19.29-105.56,24.29-23.9,63.36-23.59,87.26.7s23.59,63.36-.7,87.26Z"/>
      <path class="cls-2" d="M110.27,737.11c24.29-23.9,43.2-81.27,19.29-105.56-23.9-24.29-81.57-6.3-105.86,17.6-24.29,23.9-24.6,62.97-.7,87.26,23.9,24.29,62.97,24.6,87.26.7Z"/>
      <path class="cls-2" d="M171.64,737.6c-23.9-24.29-41.89-81.95-17.6-105.86,24.29-23.9,81.66-5,105.56,19.29,23.9,24.29,23.59,63.36-.7,87.26-24.29,23.9-63.36,23.59-87.26-.7Z"/>
      <path class="cls-2" d="M24.2,587.78c23.9,24.29,81.27,43.2,105.56,19.29,24.29-23.9,6.3-81.57-17.6-105.86-23.9-24.29-62.97-24.6-87.26-.7-24.29,23.9-24.6,62.97-.7,87.26Z"/>
    </g>
    <polygon class="cls-1" points="212.2 550.22 165.65 619.6 211.09 689.72 141.71 643.16 71.59 688.6 118.15 619.22 72.71 549.1 142.09 595.66 212.2 550.22"/>
    <circle class="cls-3" cx="141.9" cy="619.41" r="61.71"/>
  </g>
  <g>
    <g>
      <path class="cls-2" d="M260.09,114.48c-24.29,23.9-81.95,41.89-105.86,17.6-23.9-24.29-5-81.66,19.29-105.56s63.36-23.59,87.26.7,23.59,63.36-.7,87.26Z"/>
      <path class="cls-2" d="M110.27,261.92c24.29-23.9,43.2-81.27,19.29-105.56-23.9-24.29-81.57-6.3-105.86,17.6-24.29,23.9-24.6,62.97-.7,87.26,23.9,24.29,62.97,24.6,87.26.7Z"/>
      <path class="cls-2" d="M171.64,262.41c-23.9-24.29-41.89-81.95-17.6-105.86,24.29-23.9,81.66-5,105.56,19.29,23.9,24.29,23.59,63.36-.7,87.26-24.29,23.9-63.36,23.59-87.26-.7Z"/>
      <path class="cls-2" d="M24.2,112.59c23.9,24.29,81.27,43.2,105.56,19.29,24.29-23.9,6.3-81.57-17.6-105.86C88.25,1.74,49.19,1.42,24.9,25.33.61,49.23.29,88.3,24.2,112.59Z"/>
    </g>
    <polygon class="cls-1" points="212.2 75.03 165.65 144.41 211.09 214.52 141.71 167.97 71.59 213.41 118.15 144.03 72.71 73.91 142.09 120.47 212.2 75.03"/>
    <circle class="cls-3" cx="141.9" cy="144.22" r="61.71"/>
  </g>
  <g>
    <g>
      <path class="cls-2" d="M500.88,349.85c-24.29,23.9-81.95,41.89-105.86,17.6-23.9-24.29-5-81.66,19.29-105.56,24.29-23.9,63.36-23.59,87.26.7s23.59,63.36-.7,87.26Z"/>
      <path class="cls-2" d="M351.06,497.29c24.29-23.9,43.2-81.27,19.29-105.56-23.9-24.29-81.57-6.3-105.86,17.6-24.29,23.9-24.6,62.97-.7,87.26,23.9,24.29,62.97,24.6,87.26.7Z"/>
      <path class="cls-2" d="M412.43,497.78c-23.9-24.29-41.89-81.95-17.6-105.86,24.29-23.9,81.66-5,105.56,19.29s23.59,63.36-.7,87.26c-24.29,23.9-63.36,23.59-87.26-.7Z"/>
      <path class="cls-2" d="M264.99,347.96c23.9,24.29,81.27,43.2,105.56,19.29s6.3-81.57-17.6-105.86c-23.9-24.29-62.97-24.6-87.26-.7-24.29,23.9-24.6,62.97-.7,87.26Z"/>
    </g>
    <polygon class="cls-1" points="453 310.4 406.44 379.78 451.88 449.9 382.5 403.34 312.39 448.78 358.94 379.4 313.5 309.28 382.88 355.84 453 310.4"/>
    <circle class="cls-3" cx="382.69" cy="379.59" r="61.71"/>
  </g>
  <g>
    <g>
      <path class="cls-2" d="M738.66,114.48c-24.29,23.9-81.95,41.89-105.86,17.6-23.9-24.29-5-81.66,19.29-105.56,24.29-23.9,63.36-23.59,87.26.7,23.9,24.29,23.59,63.36-.7,87.26Z"/>
      <path class="cls-2" d="M588.84,261.92c24.29-23.9,43.2-81.27,19.29-105.56-23.9-24.29-81.57-6.3-105.86,17.6-24.29,23.9-24.6,62.97-.7,87.26s62.97,24.6,87.26.7Z"/>
      <path class="cls-2" d="M650.21,262.41c-23.9-24.29-41.89-81.95-17.6-105.86,24.29-23.9,81.66-5,105.56,19.29,23.9,24.29,23.59,63.36-.7,87.26s-63.36,23.59-87.26-.7Z"/>
      <path class="cls-2" d="M502.77,112.59c23.9,24.29,81.27,43.2,105.56,19.29,24.29-23.9,6.3-81.57-17.6-105.86-23.9-24.29-62.97-24.6-87.26-.7-24.29,23.9-24.6,62.97-.7,87.26Z"/>
    </g>
    <polygon class="cls-1" points="690.78 75.03 644.22 144.41 689.66 214.52 620.28 167.97 550.17 213.41 596.72 144.03 551.28 73.91 620.66 120.47 690.78 75.03"/>
    <circle class="cls-3" cx="620.47" cy="144.22" r="61.71"/>
  </g>
  <g>
    <g>
      <path class="cls-2" d="M738.66,589.67c-24.29,23.9-81.95,41.89-105.86,17.6-23.9-24.29-5-81.66,19.29-105.56,24.29-23.9,63.36-23.59,87.26.7s23.59,63.36-.7,87.26Z"/>
      <path class="cls-2" d="M588.84,737.11c24.29-23.9,43.2-81.27,19.29-105.56-23.9-24.29-81.57-6.3-105.86,17.6-24.29,23.9-24.6,62.97-.7,87.26,23.9,24.29,62.97,24.6,87.26.7Z"/>
      <path class="cls-2" d="M650.21,737.6c-23.9-24.29-41.89-81.95-17.6-105.86,24.29-23.9,81.66-5,105.56,19.29,23.9,24.29,23.59,63.36-.7,87.26s-63.36,23.59-87.26-.7Z"/>
      <path class="cls-2" d="M502.77,587.78c23.9,24.29,81.27,43.2,105.56,19.29s6.3-81.57-17.6-105.86c-23.9-24.29-62.97-24.6-87.26-.7-24.29,23.9-24.6,62.97-.7,87.26Z"/>
    </g>
    <polygon class="cls-1" points="690.78 550.22 644.22 619.6 689.66 689.72 620.28 643.16 550.17 688.6 596.72 619.22 551.28 549.1 620.66 595.66 690.78 550.22"/>
    <circle class="cls-3" cx="620.47" cy="619.41" r="61.71"/>
  </g>
  <g>
    <g>
      <path class="cls-2" d="M978.58,828.45c-24.29,23.9-81.95,41.89-105.86,17.6-23.9-24.29-5-81.66,19.29-105.56,24.29-23.9,63.36-23.59,87.26.7,23.9,24.29,23.59,63.36-.7,87.26Z"/>
      <path class="cls-2" d="M828.76,975.89c24.29-23.9,43.2-81.27,19.29-105.56-23.9-24.29-81.57-6.3-105.86,17.6-24.29,23.9-24.6,62.97-.7,87.26,23.9,24.29,62.97,24.6,87.26.7Z"/>
      <path class="cls-2" d="M890.12,976.38c-23.9-24.29-41.89-81.95-17.6-105.86,24.29-23.9,81.66-5,105.56,19.29s23.59,63.36-.7,87.26c-24.29,23.9-63.36,23.59-87.26-.7Z"/>
      <path class="cls-2" d="M742.68,826.56c23.9,24.29,81.27,43.2,105.56,19.29,24.29-23.9,6.3-81.57-17.6-105.86-23.9-24.29-62.97-24.6-87.26-.7s-24.6,62.97-.7,87.26Z"/>
    </g>
    <polygon class="cls-1" points="930.69 789 884.13 858.38 929.57 928.5 860.19 881.94 790.08 927.38 836.64 858 791.19 787.89 860.57 834.44 930.69 789"/>
    <circle class="cls-3" cx="860.38" cy="858.19" r="61.71"/>
  </g>
  <g>
    <g>
      <path class="cls-2" d="M500.88,824.68c-24.29,23.9-81.95,41.89-105.86,17.6-23.9-24.29-5-81.66,19.29-105.56,24.29-23.9,63.36-23.59,87.26.7,23.9,24.29,23.59,63.36-.7,87.26Z"/>
      <path class="cls-2" d="M351.06,972.12c24.29-23.9,43.2-81.27,19.29-105.56-23.9-24.29-81.57-6.3-105.86,17.6s-24.6,62.97-.7,87.26c23.9,24.29,62.97,24.6,87.26.7Z"/>
      <path class="cls-2" d="M412.43,972.61c-23.9-24.29-41.89-81.95-17.6-105.86,24.29-23.9,81.66-5,105.56,19.29,23.9,24.29,23.59,63.36-.7,87.26-24.29,23.9-63.36,23.59-87.26-.7Z"/>
      <path class="cls-2" d="M264.99,822.79c23.9,24.29,81.27,43.2,105.56,19.29,24.29-23.9,6.3-81.57-17.6-105.86-23.9-24.29-62.97-24.6-87.26-.7-24.29,23.9-24.6,62.97-.7,87.26Z"/>
    </g>
    <polygon class="cls-1" points="453 785.23 406.44 854.6 451.88 924.72 382.5 878.16 312.39 923.6 358.94 854.22 313.5 784.11 382.88 830.67 453 785.23"/>
    <circle class="cls-3" cx="382.69" cy="854.41" r="61.71"/>
  </g>
  <g>
    <g>
      <path class="cls-2" d="M978.58,349.85c-24.29,23.9-81.95,41.89-105.86,17.6-23.9-24.29-5-81.66,19.29-105.56,24.29-23.9,63.36-23.59,87.26.7,23.9,24.29,23.59,63.36-.7,87.26Z"/>
      <path class="cls-2" d="M828.76,497.29c24.29-23.9,43.2-81.27,19.29-105.56-23.9-24.29-81.57-6.3-105.86,17.6-24.29,23.9-24.6,62.97-.7,87.26,23.9,24.29,62.97,24.6,87.26.7Z"/>
      <path class="cls-2" d="M890.12,497.78c-23.9-24.29-41.89-81.95-17.6-105.86,24.29-23.9,81.66-5,105.56,19.29s23.59,63.36-.7,87.26c-24.29,23.9-63.36,23.59-87.26-.7Z"/>
      <path class="cls-2" d="M742.68,347.96c23.9,24.29,81.27,43.2,105.56,19.29,24.29-23.9,6.3-81.57-17.6-105.86s-62.97-24.6-87.26-.7c-24.29,23.9-24.6,62.97-.7,87.26Z"/>
    </g>
    <polygon class="cls-1" points="930.69 310.4 884.13 379.78 929.57 449.9 860.19 403.34 790.08 448.78 836.64 379.4 791.19 309.28 860.57 355.84 930.69 310.4"/>
    <circle class="cls-3" cx="860.38" cy="379.59" r="61.71"/>
  </g>
</svg>