<?xml version="1.0" encoding="UTF-8"?>
<svg id="Layer_10" data-name="Layer 10" xmlns="http://www.w3.org/2000/svg" viewBox="0 0 1000 1000">
  <defs>
    <style>
      .cls-1 {
        fill: #a80707;
      }

      .cls-2 {
        fill: #fb0;
      }

      .cls-3 {
        fill: #850018;
      }
    </style>
  </defs>
  <g>
    <g>
      <g>
        <path class="cls-2" d="M792.17,529.2c-.26-.67-.52-1.29-.78-1.87.25.63.51,1.25.78,1.87Z"/>
        <path class="cls-2" d="M792.17,529.2c-.26-.67-.52-1.29-.78-1.87.25.63.51,1.25.78,1.87Z"/>
        <g>
          <path class="cls-2" d="M506.49,466.88c3.84,11.41,12.42,20.43,25.49,26.8,34.35,16.75,64.17,6.18,79.98-3.96-2.86,5.53-5.74,13.15-8.11,24.6-3.92,18.96,6.3,35.38,12.41,45.2,1.85,2.98,3.61,5.8,3.99,7.2,2.21,8.03.2,14.86.18,14.92l-1.04,3.32,3.27,1.2c.42.15,10.54,3.71,29.95-2.26,9.4-2.89,20.93-10.67,31.37-21.26-2.31,5.09-4.45,10.51-6.04,16.11-2.8,9.9-6.48,29.14.35,46.74,5.35,13.77,15.43,24.57,25.17,35.01l2.55,2.73c12.96,13.97,27,27.67,41.75,40.73l2.28,2.02,2.67-2.09c15.71-12.35,30.56-24.01,43.85-37.66,27.14-27.9,37.29-61.45,27.13-89.74-1.19-3.31-2.64-6.57-4.25-9.79,9.26,8.52,19.02,14.7,27.18,17.21,19.41,5.97,29.53,2.41,29.95,2.26l3.24-1.2-1-3.3c-.02-.07-2.04-6.9.18-14.93.38-1.4,2.14-4.22,4-7.2,6.11-9.82,16.33-26.25,12.4-45.2-2.37-11.45-5.25-19.08-8.11-24.6,15.82,10.14,45.63,20.71,79.98,3.96,13.07-6.37,21.64-15.39,25.49-26.8,6.4-19-2.75-37.54-3.15-38.32l-1.83-3.64-3.42,2.21c-7.35,4.76-14.04,6.08-20.46,4.02-16.93-5.44-27.66-32.83-32.83-45.99-1.07-2.74-1.92-4.9-2.6-6.27-.22-.45-.52-1.12-.91-1.98-27.18-59.62-64.29-77.26-90.64-81.56-5.61-.92-10.9-1.33-15.88-1.33-45.88,0-65.4,35.36-68.34,41.27-.83-.03-1.67-.05-2.51-.05-1.21,0-2.41.03-3.61.1-2.84-5.74-22.34-41.32-68.36-41.32-4.98,0-10.27.41-15.88,1.33-26.35,4.3-63.46,21.94-90.64,81.56-.39.86-.7,1.53-.91,1.98-.68,1.37-1.53,3.54-2.6,6.27-5.16,13.16-15.89,40.54-32.83,45.99-6.41,2.06-13.11.74-20.46-4.02l-3.42-2.21-1.83,3.64c-.39.78-9.55,19.32-3.15,38.32ZM650.46,576.9c-5.25,1.62-9.68,2.45-13.3,2.84,7.71-4.14,18.06-11.4,20.26-21.32,1.36-6.15-.47-12.28-5.46-18.27,2.21-2.41,5.21-6.37,7.18-11.72,2.66-7.25,2.08-14.55-1.55-19.52-3.14-4.31-8.29-6.53-14.53-6.3-4.3.17-7.18,1.88-9.25,4.04.93-5.81,4.81-13.03,15.79-20.08,21-13.49,25.2-46.6,27.22-62.51.33-2.59.61-4.82.88-6.18.39-1.99-.9-3.9-2.88-4.29-.24-.05-.47-.07-.71-.07-1.71,0-3.24,1.21-3.58,2.95-.31,1.6-.6,3.83-.95,6.67-1.88,14.81-5.79,45.64-23.92,57.29-18.29,11.74-19.93,24.93-19.27,31.75.24,2.52,2.07,4.57,4.55,5.09,2.5.53,5.01-.62,6.25-2.84,1.85-3.3,3.35-4.39,6.17-4.51,3.81-.16,6.62.95,8.33,3.3,2.19,3,2.41,7.75.59,12.7-2.61,7.1-7.62,11.17-7.66,11.2l-3.24,2.55,2.91,2.91c5.04,5.04,7.01,9.71,6,14.25-1.92,8.73-14.57,15.87-21.7,18.98.1-3.13-.16-6.94-1.28-11.04-.67-2.42-2.42-5.23-4.84-9.12-5.89-9.46-14.79-23.76-11.46-39.86,4.07-19.68,9.45-26.69,13.76-32.33.74-.96,1.44-1.87,2.09-2.79.59-.82,1.47-2.05,2.56-3.56,18.33-25.39,23.48-33.75,24.44-37.53,1.84-3.13,3.33-5.97,4.28-8.34,1.14-2.84,2.37-6.62,3.8-10.98,5.77-17.62,14.89-45.49,31.56-53.71-6.53,10.33-10.31,22.57-10.31,35.68s3.46,24.27,9.48,34.32c.01.02.02.04.04.06.07.11.13.22.2.34.02.02.03.05.04.07,0,.01.01.02.02.03.09.13.18.25.29.36.32.35,2.58,2.88,5.3,7.47,0,0,0,.01.01.02,0,0,0,0,0,0,7.23,12.21,17.67,38.97,3.28,77.68-.71,1.92-1.5,3.8-2.36,5.66h0c-.09.19-.17.38-.26.57,0,0,0,.01,0,.02-11.73,24.98-35.45,44-48.75,48.08ZM711.37,658.25l-2.56-2.75c-9.27-9.93-18.86-20.2-23.7-32.66-4.43-11.4-4.48-26.75-.14-42.1,2.69-9.5,7.21-18.64,11.24-26.45l1.36-2.62c3.34-6.41,6.8-13.04,8.53-20.34h0c.94-2.05,1.81-4.11,2.58-6.19,10.63-28.62,8.55-51.31,3.59-67.09,4.67,2.66,27.3,17.98,13.95,59.35-7.38,22.88-14.32,34.02-19.39,42.15-5.75,9.23-9.22,14.79-5.74,27.61l.08.28c1.67,5.91,6.92,10.27,13.07,10.84,2.6.24,7.3,1.1,9.59,4.12,1.41,1.86,1.8,4.39,1.18,7.75-.67,3.63-2.36,4.88-3.57,5.5-5.44,2.8-15.69-.82-19.17-2.45l-6.81-3.18,1.7,7.31c.14.63,3.75,15.31,22.55,19.15,13.98,2.86,18.16,18.55,19.21,31.2.16,1.93.3,3.91.44,5.88.36,5.07.7,9.86,1.32,14.07-10.23-9.56-20.05-19.41-29.3-29.38ZM754.1,673.03c-.6,8.31-1.32,18.5-3.73,22.25.17.27.35.51.55.71-.2.16-.39.31-.59.46-.17-.15-.34-.3-.51-.46.19-.2.37-.44.55-.71-2.41-3.75-3.14-13.94-3.73-22.25-.14-2-.29-4.01-.45-5.97-1.77-21.41-10.66-34.81-25.03-37.75-5.86-1.2-9.75-3.7-12.3-6.23,5.03,1.13,11.08,1.55,15.91-.93,2.75-1.41,6.27-4.41,7.43-10.69,1-5.4.14-9.95-2.54-13.49-3.78-4.99-10.1-6.55-14.74-6.98-3.16-.3-5.85-2.53-6.76-5.76-2.64-9.74-.59-13.03,4.89-21.83,4.97-7.98,12.49-20.04,20.15-43.77,8.26-25.59,3.75-42.68-2.89-53.41,6.28,1.95,12.96,3.01,19.88,3.01s13.94-1.11,20.36-3.17c-6.69,10.71-11.28,27.85-2.98,53.56,7.66,23.73,15.17,35.79,20.14,43.77,5.49,8.8,7.54,12.09,4.91,21.78l-.07.26c-.85,3.03-3.55,5.25-6.7,5.55-4.64.43-10.96,1.99-14.74,6.98-2.68,3.54-3.54,8.08-2.54,13.49,1.16,6.27,4.68,9.27,7.43,10.68,4.83,2.47,10.88,2.06,15.91.93-2.56,2.54-6.44,5.03-12.3,6.23-14.37,2.94-23.26,16.34-25.04,37.75-.16,1.96-.3,3.97-.44,5.97ZM791.31,661.12c-9.73,10-20.05,18.69-31.45,27.79.75-4.52,1.13-9.77,1.53-15.36.14-1.97.28-3.95.44-5.88,1.05-12.65,5.23-28.34,19.21-31.2,18.8-3.84,22.4-18.53,22.55-19.15l1.69-7.31-6.8,3.18c-3.49,1.63-13.73,5.25-19.17,2.45-1.21-.62-2.9-1.87-3.58-5.5-.62-3.35-.23-5.88,1.18-7.75,2.29-3.02,6.99-3.88,9.59-4.12,6.15-.58,11.39-4.93,13.04-10.75l.11-.37c3.47-12.82,0-18.39-5.74-27.61-5.07-8.13-12.01-19.27-19.4-42.15-12.03-37.25,5.14-53.39,12.08-58.17-4.69,15.72-6.42,37.99,3.94,65.91.25.67.51,1.34.78,2.02.03.06.05.12.08.18.26.58.52,1.21.78,1.87,0,0,0,.01,0,.02.57,1.46,1.13,3.11,1.71,4.81,1.21,3.56,2.47,7.23,4.01,9.95,1.76,3.11,3.68,6.28,5.62,9.49,5.03,8.32,10.22,16.92,13.3,25.48,13.62,37.94-16.07,72.49-25.49,82.18ZM888.22,515.8c3.33,16.09-5.57,30.39-11.46,39.86-2.42,3.89-4.17,6.7-4.83,9.12-1.13,4.1-1.38,7.91-1.28,11.04-7.13-3.1-19.76-10.23-21.7-18.98-1.01-4.55.95-9.22,6-14.26l2.91-2.91-3.24-2.55c-.05-.04-5.07-4.12-7.66-11.2-1.82-4.95-1.6-9.7.59-12.7,1.71-2.34,4.51-3.49,8.33-3.3,2.82.11,4.31,1.21,6.17,4.51,1.25,2.23,3.76,3.36,6.25,2.84,2.48-.52,4.31-2.57,4.55-5.09.66-6.82-.97-20.01-19.27-31.75-18.13-11.64-22.04-42.47-23.92-57.28-.36-2.83-.65-5.08-.96-6.67-.34-1.74-1.87-2.95-3.58-2.95-.23,0-.47.03-.71.07-1.99.39-3.27,2.31-2.88,4.29.27,1.35.55,3.59.88,6.18,2.02,15.92,6.22,49.03,27.22,62.51,10.99,7.06,14.86,14.27,15.79,20.09-2.07-2.16-4.95-3.87-9.25-4.05-6.22-.25-11.38,1.99-14.53,6.3-3.63,4.97-4.2,12.27-1.55,19.52,1.96,5.34,4.97,9.31,7.18,11.72-4.99,5.99-6.82,12.12-5.46,18.27,2.2,9.92,12.56,17.19,20.26,21.33-3.62-.39-8.06-1.23-13.31-2.84-13.71-4.21-38.5-24.29-49.81-50.42-.02-.06-.05-.11-.07-.16-.26-.59-.51-1.18-.74-1.78-.01,0-.01-.01-.01-.02-.26-.64-.51-1.29-.75-1.93-13.19-35.49-5.51-60.93,1.44-74.33,0,0,0-.01,0-.01,11.36-12.01,18.34-28.21,18.34-46,0-12.72-3.56-24.62-9.74-34.76,15.6,9.2,24.3,35.77,29.87,52.79,1.43,4.37,2.67,8.14,3.8,10.98.95,2.37,2.43,5.22,4.28,8.35h0c.97,3.79,6.12,12.17,24.43,37.53,1.09,1.51,1.97,2.73,2.56,3.56.65.91,1.35,1.83,2.09,2.79,4.31,5.64,9.69,12.65,13.76,32.33ZM986.18,440.89c1.55,6.29,2.54,15.07-.39,23.71-3.21,9.46-10.53,17.04-21.75,22.51-38.98,19.03-72.21-1.15-80.77-9.72-1.49-1.5-3.35-3.52-5.37-5.86-8.82-10.19-19.59-24.6-25.8-34.95-.04-.06-.07-.12-.1-.18-.02-.02-.03-.04-.04-.06-1.81-3.04-3.22-5.71-4.07-7.81-1.05-2.62-2.25-6.29-3.64-10.54-7.08-21.62-18.8-57.44-44.55-60.84-.11-.02-.22-.03-.33-.05-2.11-2.55-7.34-7.93-17.42-13.37.09-.11.17-.22.26-.33,12.64-15.95,36.11-24.12,55.47-18.76,16.79,4.64,28.05,26.44,29.02,33.8-6.06-.97-13.95,2.41-19.26,8.51-6.39,7.34-7.52,16.35-3.09,24.74,2.96,5.61,7.19,9.13,12.55,10.46,6.26,1.56,12.84-.26,18.01-2.59-2.93,10.61-1.13,17.59,5.6,23.07,6.56,5.35,14.58,5.57,22.35.9-.68,7.1-.12,17.26,8.89,25.47,10.22,9.3,21.55,13.61,33.68,12.8,18.65-1.24,34.03-14.24,40.75-20.91ZM835.72,302.57c24.59,4.01,59.33,20.69,85.17,77.37.43.95.77,1.68,1.01,2.17.54,1.1,1.38,3.25,2.35,5.72,5.57,14.21,17.16,43.78,37.39,50.28,2.67.86,5.39,1.29,8.15,1.29,2.9,0,5.84-.47,8.82-1.43-6.86,6.25-19.37,15.59-33.67,16.54-10.06.67-19.59-3.01-28.27-10.91-8.5-7.73-6.9-17.81-5.94-23.84.18-1.11.32-2.05.39-2.79.16-1.79-.78-3.45-2.4-4.23-1.63-.78-3.52-.47-4.82.78-3.94,3.8-11.61,9.3-18.78,3.45-3.96-3.23-6.99-7.41-.52-22.93.7-1.67.22-3.57-1.19-4.71-1.39-1.13-3.32-1.21-4.81-.2-2.74,1.87-12.28,7.84-19.95,5.93-3.3-.82-5.87-3.04-7.84-6.78-4.03-7.62-.39-13.62,2.14-16.52,4.26-4.89,10.31-7.01,13.3-5.91,3.06,1.12,5.05-.23,5.76-.86,2.06-1.82,2.54-4.93,1.47-9.53-2.46-10.62-14.92-32.62-33.86-37.86-4.75-1.31-9.66-1.94-14.6-1.94-18.96,0-38.24,9.25-49.56,24.54-.07.09-.14.18-.2.27-1.91-.85-3.95-1.68-6.13-2.5,0,0-.02,0-.02,0-2.53-.94-5.24-1.85-8.15-2.71,6.23-10.83,27.83-40.35,74.77-32.69ZM742.77,345.47c2.42-.31,4.89-.47,7.4-.47,31.57,0,57.26,25.68,57.26,57.25,0,18.51-8.83,34.99-22.5,45.46-.17.14-.35.27-.53.4-9.68,7.43-21.79,11.85-34.94,11.85-31.72,0-57.44-25.72-57.44-57.44,0-29.43,22.14-53.69,50.66-57.04.02,0,.05-.01.07-.01ZM513.05,440.89c6.72,6.67,22.1,19.67,40.75,20.91,12.14.8,23.47-3.5,33.68-12.8,9.02-8.21,9.57-18.36,8.89-25.47,7.77,4.67,15.79,4.45,22.35-.9,6.73-5.49,8.53-12.46,5.6-23.07,5.17,2.32,11.74,4.14,18.01,2.59,5.36-1.33,9.59-4.84,12.55-10.46,4.43-8.38,3.3-17.4-3.09-24.74-5.3-6.09-13.19-9.47-19.26-8.51.97-7.36,12.22-29.16,29.02-33.81,19.5-5.38,43.15,2.93,55.74,19.1,2.03-1.1,4.25-2.2,6.69-3.27-11.29-15.46-30.7-24.81-49.77-24.81-4.93,0-9.85.63-14.6,1.94-18.95,5.24-31.4,27.24-33.86,37.86-1.06,4.59-.58,7.71,1.47,9.53.71.63,2.69,1.96,5.76.86,2.98-1.1,9.05,1.03,13.3,5.91,2.53,2.9,6.17,8.9,2.14,16.52-1.97,3.74-4.54,5.96-7.84,6.78-7.67,1.91-17.2-4.06-19.95-5.93-1.49-1.01-3.42-.93-4.81.21-1.4,1.14-1.88,3.04-1.18,4.71,6.47,15.5,3.44,19.68-.52,22.92-7.17,5.85-14.84.35-18.78-3.45-1.3-1.25-3.19-1.55-4.81-.78-1.62.78-2.57,2.43-2.41,4.23.07.74.21,1.69.38,2.79.96,6.03,2.56,16.11-5.94,23.84-8.68,7.9-18.18,11.57-28.24,10.91-14.26-.93-26.79-10.27-33.68-16.54,5.79,1.85,11.47,1.9,16.95.14,20.23-6.5,31.82-36.07,37.39-50.28.97-2.47,1.81-4.62,2.35-5.72.24-.49.58-1.22,1.01-2.17,25.85-56.68,60.58-73.36,85.17-77.37,46.95-7.68,68.54,21.85,74.77,32.69-5.42,1.6-10.16,3.37-14.3,5.21.02.03.04.06.06.09-2.29.97-4.52,2.07-6.67,3.29-.02-.04-.05-.07-.08-.1-10.08,5.44-15.31,10.82-17.42,13.37-25.98,3.13-37.78,39.16-44.89,60.88-1.39,4.25-2.59,7.91-3.64,10.54-.84,2.11-2.26,4.79-4.08,7.83-.04.06-.07.12-.11.18-6.21,10.34-16.99,24.77-25.82,34.98-2.04,2.35-3.89,4.38-5.37,5.86-8.57,8.56-41.79,28.74-80.77,9.72-11.22-5.47-18.54-13.05-21.75-22.51-2.93-8.65-1.94-17.43-.39-23.71Z"/>
          <path d="M760.95,335.26c6.23-10.83,27.83-40.35,74.77-32.69,24.59,4.01,59.33,20.69,85.17,77.37.43.95.77,1.68,1.01,2.17.54,1.1,1.38,3.25,2.35,5.72,5.57,14.21,17.16,43.78,37.39,50.28,2.67.86,5.39,1.29,8.15,1.29,2.9,0,5.84-.47,8.82-1.43-6.86,6.25-19.37,15.59-33.67,16.54-10.06.67-19.59-3.01-28.27-10.91-8.5-7.73-6.9-17.81-5.94-23.84.18-1.11.32-2.05.39-2.79.16-1.79-.78-3.45-2.4-4.23-1.63-.78-3.52-.47-4.82.78-3.94,3.8-11.61,9.3-18.78,3.45-3.96-3.23-6.99-7.41-.52-22.93.7-1.67.22-3.57-1.19-4.71-1.39-1.13-3.32-1.21-4.81-.2-2.74,1.87-12.28,7.84-19.95,5.93-3.3-.82-5.87-3.04-7.84-6.78-4.03-7.62-.39-13.62,2.14-16.52,4.26-4.89,10.31-7.01,13.3-5.91,3.06,1.12,5.05-.23,5.76-.86,2.06-1.82,2.54-4.93,1.47-9.53-2.46-10.62-14.92-32.62-33.86-37.86-4.75-1.31-9.66-1.94-14.6-1.94-18.96,0-38.24,9.25-49.56,24.54-.07.09-.14.18-.2.27-1.91-.85-3.95-1.68-6.13-2.5,0,0-.02,0-.02,0-2.53-.94-5.24-1.85-8.15-2.71Z"/>
          <path d="M520.63,437.98c5.79,1.85,11.47,1.9,16.95.14,20.23-6.5,31.82-36.07,37.39-50.28.97-2.47,1.81-4.62,2.35-5.72.24-.49.58-1.22,1.01-2.17,25.85-56.68,60.58-73.36,85.17-77.37,46.95-7.68,68.54,21.85,74.77,32.69-5.42,1.6-10.16,3.37-14.3,5.21-11.29-15.46-30.7-24.81-49.77-24.81-4.93,0-9.85.63-14.6,1.94-18.95,5.24-31.4,27.24-33.86,37.86-1.06,4.59-.58,7.71,1.47,9.53.71.63,2.69,1.96,5.76.86,2.98-1.1,9.05,1.03,13.3,5.91,2.53,2.9,6.17,8.9,2.14,16.52-1.97,3.74-4.54,5.96-7.84,6.78-7.67,1.91-17.2-4.06-19.95-5.93-1.49-1.01-3.42-.93-4.81.21-1.4,1.14-1.88,3.04-1.18,4.71,6.47,15.5,3.44,19.68-.52,22.92-7.17,5.85-14.84.35-18.78-3.45-1.3-1.25-3.19-1.55-4.81-.78-1.62.78-2.57,2.43-2.41,4.23.07.74.21,1.69.38,2.79.96,6.03,2.56,16.11-5.94,23.84-8.68,7.9-18.18,11.57-28.24,10.91-14.26-.93-26.79-10.27-33.68-16.54Z"/>
          <path d="M733.19,519.64c8.26-25.59,3.75-42.68-2.89-53.41,6.28,1.95,12.96,3.01,19.88,3.01s13.94-1.11,20.36-3.17c-6.69,10.71-11.28,27.85-2.98,53.56,7.66,23.73,15.17,35.79,20.14,43.77,5.49,8.8,7.54,12.09,4.91,21.78l-.07.26c-.85,3.03-3.55,5.25-6.7,5.55-4.64.43-10.96,1.99-14.74,6.98-2.68,3.54-3.54,8.08-2.54,13.49,1.16,6.27,4.68,9.27,7.43,10.68,4.83,2.47,10.88,2.06,15.91.93-2.56,2.54-6.44,5.03-12.3,6.23-14.37,2.94-23.26,16.34-25.04,37.75-.16,1.96-.3,3.97-.44,5.97-.6,8.31-1.32,18.5-3.73,22.25-2.41-3.75-3.14-13.94-3.73-22.25-.14-2-.29-4.01-.45-5.97-1.77-21.41-10.66-34.81-25.03-37.75-5.86-1.2-9.75-3.7-12.3-6.23,5.03,1.13,11.08,1.55,15.91-.93,2.75-1.41,6.27-4.41,7.43-10.69,1-5.4.14-9.95-2.54-13.49-3.78-4.99-10.1-6.55-14.74-6.98-3.16-.3-5.85-2.53-6.76-5.76-2.64-9.74-.59-13.03,4.89-21.83,4.97-7.98,12.49-20.04,20.15-43.77Z"/>
          <path d="M759.86,688.91c.75-4.52,1.13-9.77,1.53-15.36.14-1.97.28-3.95.44-5.88,1.05-12.65,5.23-28.34,19.21-31.2,18.8-3.84,22.4-18.53,22.55-19.15l1.69-7.31-6.8,3.18c-3.49,1.63-13.73,5.25-19.17,2.45-1.21-.62-2.9-1.87-3.58-5.5-.62-3.35-.23-5.88,1.18-7.75,2.29-3.02,6.99-3.88,9.59-4.12,6.15-.58,11.39-4.93,13.04-10.75l.11-.37c3.47-12.82,0-18.39-5.74-27.61-5.07-8.13-12.01-19.27-19.4-42.15-12.03-37.25,5.14-53.39,12.08-58.17-4.69,15.72-6.42,37.99,3.94,65.91.25.67.51,1.34.78,2.02.03.06.05.12.08.18.25.63.51,1.25.78,1.87,0,0,0,.01,0,.02.57,1.46,1.13,3.11,1.71,4.81,1.21,3.56,2.47,7.23,4.01,9.95,1.76,3.11,3.68,6.28,5.62,9.49,5.03,8.32,10.22,16.92,13.3,25.48,13.62,37.94-16.07,72.49-25.49,82.18-9.73,10-20.05,18.69-31.45,27.79Z"/>
          <path d="M684.97,580.73c2.69-9.5,7.21-18.64,11.24-26.45l1.36-2.62c3.34-6.41,6.8-13.04,8.53-20.34h0c.94-2.05,1.81-4.11,2.58-6.19,10.63-28.62,8.55-51.31,3.59-67.09,4.67,2.66,27.3,17.98,13.95,59.35-7.38,22.88-14.32,34.02-19.39,42.15-5.75,9.23-9.22,14.79-5.74,27.61l.08.28c1.67,5.91,6.92,10.27,13.07,10.84,2.6.24,7.3,1.1,9.59,4.12,1.41,1.86,1.8,4.39,1.18,7.75-.67,3.63-2.36,4.88-3.57,5.5-5.44,2.8-15.69-.82-19.17-2.45l-6.81-3.18,1.7,7.31c.14.63,3.75,15.31,22.55,19.15,13.98,2.86,18.16,18.55,19.21,31.2.16,1.93.3,3.91.44,5.88.36,5.07.7,9.86,1.32,14.07-10.23-9.56-20.05-19.41-29.3-29.38l-2.56-2.75c-9.27-9.93-18.86-20.2-23.7-32.66-4.43-11.4-4.48-26.75-.14-42.1Z"/>
          <path d="M513.05,440.89c6.72,6.67,22.1,19.67,40.75,20.91,12.14.8,23.47-3.5,33.68-12.8,9.02-8.21,9.57-18.36,8.89-25.47,7.77,4.67,15.79,4.45,22.35-.9,6.73-5.49,8.53-12.46,5.6-23.07,5.17,2.32,11.74,4.14,18.01,2.59,5.36-1.33,9.59-4.84,12.55-10.46,4.43-8.38,3.3-17.4-3.09-24.74-5.3-6.09-13.19-9.47-19.26-8.51.97-7.36,12.22-29.16,29.02-33.81,19.5-5.38,43.15,2.93,55.74,19.1-10.08,5.44-15.31,10.82-17.42,13.37-25.98,3.13-37.78,39.16-44.89,60.88-1.39,4.25-2.59,7.91-3.64,10.54-.84,2.11-2.26,4.79-4.08,7.83-.04.06-.07.12-.11.18-6.21,10.34-16.99,24.77-25.82,34.98-2.04,2.35-3.89,4.38-5.37,5.86-8.57,8.56-41.79,28.74-80.77,9.72-11.22-5.47-18.54-13.05-21.75-22.51-2.93-8.65-1.94-17.43-.39-23.71Z"/>
          <path d="M611.01,515.8c4.07-19.68,9.45-26.69,13.76-32.33.74-.96,1.44-1.87,2.09-2.79.59-.82,1.47-2.05,2.56-3.56,18.33-25.39,23.48-33.75,24.44-37.53,1.84-3.13,3.33-5.97,4.28-8.34,1.14-2.84,2.37-6.62,3.8-10.98,5.77-17.62,14.89-45.49,31.56-53.71-6.53,10.33-10.31,22.57-10.31,35.68s3.46,24.27,9.48,34.32c.01.02.02.04.04.06.07.11.13.22.2.34.02.02.03.05.04.07,0,.01.01.02.02.03.09.13.18.25.29.36.32.35,2.58,2.88,5.3,7.47,0,0,0,.01.01.02,0,0,0,0,0,0,7.23,12.21,17.67,38.97,3.28,77.68-.71,1.92-1.5,3.8-2.36,5.66h0c-.09.19-.17.38-.26.57,0,0,0,.01,0,.02-11.73,24.98-35.45,44-48.75,48.08-5.25,1.62-9.68,2.45-13.3,2.84,7.71-4.14,18.06-11.4,20.26-21.32,1.36-6.15-.47-12.28-5.46-18.27,2.21-2.41,5.21-6.37,7.18-11.72,2.66-7.25,2.08-14.55-1.55-19.52-3.14-4.31-8.29-6.53-14.53-6.3-4.3.17-7.18,1.88-9.25,4.04.93-5.81,4.81-13.03,15.79-20.08,21-13.49,25.2-46.6,27.22-62.51.33-2.59.61-4.82.88-6.18.39-1.99-.9-3.9-2.88-4.29-.24-.05-.47-.07-.71-.07-1.71,0-3.24,1.21-3.58,2.95-.31,1.6-.6,3.83-.95,6.67-1.88,14.81-5.79,45.64-23.92,57.29-18.29,11.74-19.93,24.93-19.27,31.75.24,2.52,2.07,4.57,4.55,5.09,2.5.53,5.01-.62,6.25-2.84,1.85-3.3,3.35-4.39,6.17-4.51,3.81-.16,6.62.95,8.33,3.3,2.19,3,2.41,7.75.59,12.7-2.61,7.1-7.62,11.17-7.66,11.2l-3.24,2.55,2.91,2.91c5.04,5.04,7.01,9.71,6,14.25-1.92,8.73-14.57,15.87-21.7,18.98.1-3.13-.16-6.94-1.28-11.04-.67-2.42-2.42-5.23-4.84-9.12-5.89-9.46-14.79-23.76-11.46-39.86Z"/>
          <path d="M798.83,448.25s0-.01,0-.01c11.36-12.01,18.34-28.21,18.34-46,0-12.72-3.56-24.62-9.74-34.76,15.6,9.2,24.3,35.77,29.87,52.79,1.43,4.37,2.67,8.14,3.8,10.98.95,2.37,2.43,5.22,4.28,8.35h0c.97,3.79,6.12,12.17,24.43,37.53,1.09,1.51,1.97,2.73,2.56,3.56.65.91,1.35,1.83,2.09,2.79,4.31,5.64,9.69,12.65,13.76,32.33,3.33,16.09-5.57,30.39-11.46,39.86-2.42,3.89-4.17,6.7-4.83,9.12-1.13,4.1-1.38,7.91-1.28,11.04-7.13-3.1-19.76-10.23-21.7-18.98-1.01-4.55.95-9.22,6-14.26l2.91-2.91-3.24-2.55c-.05-.04-5.07-4.12-7.66-11.2-1.82-4.95-1.6-9.7.59-12.7,1.71-2.34,4.51-3.49,8.33-3.3,2.82.11,4.31,1.21,6.17,4.51,1.25,2.23,3.76,3.36,6.25,2.84,2.48-.52,4.31-2.57,4.55-5.09.66-6.82-.97-20.01-19.27-31.75-18.13-11.64-22.04-42.47-23.92-57.28-.36-2.83-.65-5.08-.96-6.67-.34-1.74-1.87-2.95-3.58-2.95-.23,0-.47.03-.71.07-1.99.39-3.27,2.31-2.88,4.29.27,1.35.55,3.59.88,6.18,2.02,15.92,6.22,49.03,27.22,62.51,10.99,7.06,14.86,14.27,15.79,20.09-2.07-2.16-4.95-3.87-9.25-4.05-6.22-.25-11.38,1.99-14.53,6.3-3.63,4.97-4.2,12.27-1.55,19.52,1.96,5.34,4.97,9.31,7.18,11.72-4.99,5.99-6.82,12.12-5.46,18.27,2.2,9.92,12.56,17.19,20.26,21.33-3.62-.39-8.06-1.23-13.31-2.84-13.71-4.21-38.5-24.29-49.81-50.42-.02-.06-.05-.11-.07-.16-.26-.59-.51-1.18-.74-1.78-.01,0-.01-.01-.01-.02-.26-.64-.51-1.29-.75-1.93-13.19-35.49-5.51-60.93,1.44-74.33Z"/>
          <path d="M782.2,343.41c12.64-15.95,36.11-24.12,55.47-18.76,16.79,4.64,28.05,26.44,29.02,33.8-6.06-.97-13.95,2.41-19.26,8.51-6.39,7.34-7.52,16.35-3.09,24.74,2.96,5.61,7.19,9.13,12.55,10.46,6.26,1.56,12.84-.26,18.01-2.59-2.93,10.61-1.13,17.59,5.6,23.07,6.56,5.35,14.58,5.57,22.35.9-.68,7.1-.12,17.26,8.89,25.47,10.22,9.3,21.55,13.61,33.68,12.8,18.65-1.24,34.03-14.24,40.75-20.91,1.55,6.29,2.54,15.07-.39,23.71-3.21,9.46-10.53,17.04-21.75,22.51-38.98,19.03-72.21-1.15-80.77-9.72-1.49-1.5-3.35-3.52-5.37-5.86-8.82-10.19-19.59-24.6-25.8-34.95-.04-.06-.07-.12-.1-.18-.02-.02-.03-.04-.04-.06-1.81-3.04-3.22-5.71-4.07-7.81-1.05-2.62-2.25-6.29-3.64-10.54-7.08-21.62-18.8-57.44-44.55-60.84-5.01-5.5-10.91-10.16-17.49-13.75Z"/>
        </g>
      </g>
      <path class="cls-1" d="M690.6,402.31c0-30.31,22.8-55.29,52.18-58.74.02,0,.05-.01.07-.01,2.26-.27,4.57-.4,6.9-.4,32.67,0,59.15,26.48,59.15,59.15,0,18.89-8.85,35.7-22.63,46.53-.18.14-.36.28-.54.42-9.97,7.66-22.44,12.2-35.98,12.2-32.67,0-59.15-26.49-59.15-59.15Z"/>
    </g>
    <g>
      <g>
        <path d="M363.94,498.35c0,91.01-41.26,166.96-96.31,185.15-8.13-2.77-16.62-6.38-25.42-10.78-8.79,4.4-17.29,8.01-25.42,10.78-55.11-18.13-96.37-94.14-96.37-185.15,0-3.43.12-6.87.42-10.24,7.47-99.8,121.36-179.07,121.36-179.07,0,0,113.9,79.26,121.31,179.07.3,3.37.42,6.81.42,10.24Z"/>
        <path class="cls-2" d="M267.61,687.53l-1.21-.41c-7.64-2.61-15.77-6.01-24.18-10.14-8.41,4.13-16.54,7.54-24.19,10.14l-1.21.41-1.21-.4c-57.36-18.87-98.99-98.26-98.99-188.77,0-3.54.13-7.09.43-10.57,7.52-100.4,118.28-178.58,122.99-181.86l2.17-1.52,2.17,1.52c4.71,3.28,115.47,81.45,122.93,181.91.3,3.43.42,6.98.42,10.52,0,90.44-41.6,169.83-98.92,188.77l-1.21.4ZM242.21,313.75c-15.7,11.59-110.89,85.39-117.57,174.64-.3,3.31-.41,6.63-.41,9.96,0,86.67,38.84,162.53,92.54,181.13,7.5-2.62,15.47-6.04,23.73-10.16l1.71-.85,1.71.85c8.27,4.13,16.24,7.54,23.72,10.16,53.66-18.67,92.48-94.53,92.48-181.13,0-3.32-.11-6.64-.4-9.9-6.63-89.35-101.8-163.1-117.51-174.69Z"/>
      </g>
      <g>
        <path class="cls-1" d="M164.88,481.27c0-66.37,77.3-120.18,77.3-120.18,0,0,77.3,53.81,77.3,120.18,0,66.37-34.61,120.18-77.3,120.18-42.69,0-77.3-53.81-77.3-120.18Z"/>
        <path class="cls-2" d="M242.18,605.26c-44.72,0-81.11-55.62-81.11-123.99s75.71-121.07,78.93-123.31l2.18-1.52,2.18,1.52c3.22,2.24,78.93,55.72,78.93,123.31s-36.39,123.99-81.11,123.99ZM242.18,365.81c-12.41,9.31-73.49,58.04-73.49,115.46,0,64.16,32.96,116.37,73.49,116.37s73.49-52.2,73.49-116.37c0-57.42-61.07-106.15-73.49-115.46Z"/>
      </g>
      <g>
        <path d="M363.52,488.12c-7.47,6.26-14.15,14.15-19.58,24.15-51.02,94.8-101.73,89.2-101.73,89.2,0,0-50.77,5.6-101.79-89.2-5.42-10-12.11-17.89-19.58-24.15-41.86-34.93-108.42-16.98-108.42-16.98,0,0,30.48,51.08,39.09,102.15,8.01,47.46,56.25,147.81,165.27,110.22,8.13-2.77,16.62-6.38,25.42-10.78,8.79,4.4,17.29,8.01,25.42,10.78,108.96,37.58,157.2-62.76,165.21-110.22,8.61-51.08,39.09-102.15,39.09-102.15,0,0-66.56-17.95-108.42,16.98Z"/>
        <path class="cls-2" d="M171.07,695.6c-19.7,0-37.98-4.96-54.67-14.87-44.4-26.37-64.04-79.55-68.65-106.81-8.39-49.75-38.3-100.33-38.61-100.83l-2.58-4.32,4.86-1.31c2.78-.77,68.97-18.05,111.86,17.74,8.26,6.93,15.15,15.43,20.48,25.26,48.94,90.94,97.58,87.26,98.05,87.23l.39-.04.42.04c.45.1,49.02,3.72,97.95-87.22,5.33-9.83,12.22-18.33,20.48-25.26h0c42.89-35.81,109.06-18.51,111.85-17.74l4.86,1.31-2.58,4.32c-.31.51-30.22,51.09-38.61,100.83-4.6,27.28-24.24,80.46-68.65,106.83-29.26,17.36-63.43,19.52-101.56,6.37-7.62-2.6-15.76-6-24.17-10.13-8.41,4.13-16.54,7.54-24.19,10.14-16.4,5.65-32.08,8.48-46.95,8.48ZM18.3,473.71c7.65,13.72,29.72,55.96,36.98,98.94,4.39,25.97,23.01,76.58,65.01,101.52,27.28,16.2,59.32,18.12,95.26,5.73,7.86-2.68,16.25-6.24,24.96-10.59l1.71-.85,1.71.85c8.72,4.36,17.11,7.92,24.94,10.58,35.92,12.4,67.95,10.48,95.21-5.71,42-24.94,60.63-75.56,65.02-101.53,7.25-42.97,29.33-85.22,36.98-98.94-15.82-3.19-66.66-10.57-100.09,17.32-7.52,6.32-13.81,14.07-18.67,23.05-49.77,92.5-99.56,91.66-105.08,91.21-5.45.39-55.34,1.33-105.15-91.22-4.86-8.98-11.15-16.74-18.66-23.05-33.43-27.89-84.25-20.5-100.1-17.32Z"/>
      </g>
      <path class="cls-2" d="M242.24,462.9c-13.76,0-17.16,18.37-17.16,18.37,0,0,6.81-5.84,17.07-5.84,11.3,0,17.12,5.84,17.12,5.84,0,0-3.58-18.37-17.03-18.37Z"/>
      <path class="cls-2" d="M242.23,440.52c-11,0-13.72,14.68-13.72,14.68,0,0,5.44-4.67,13.65-4.67,9.03,0,13.69,4.67,13.69,4.67,0,0-2.86-14.68-13.62-14.68Z"/>
    </g>
  </g>
  <g>
    <g>
      <g>
        <g>
          <g>
            <path class="cls-2" d="M893.27,836.58c9.44-9.44,31.96-16.66,41.4-7.22,9.44,9.44,2.21,31.96-7.22,41.4-9.44,9.44-24.74,9.44-34.18,0-9.44-9.44-9.44-24.74,0-34.18Z"/>
            <path d="M883.94,853.67c0-7.06,2.75-13.69,7.74-18.69,5.08-5.08,13.43-9.4,21.8-11.3,9.85-2.23,17.94-.78,22.8,4.07,4.85,4.85,6.3,12.95,4.07,22.8-1.89,8.37-6.22,16.72-11.3,21.8-10.3,10.3-27.07,10.3-37.37,0-4.99-4.99-7.74-11.63-7.74-18.69ZM936.89,842.09c0-4.46-1.13-8.45-3.81-11.13-8.4-8.4-29.45-1.54-38.21,7.22-8.54,8.54-8.54,22.44,0,30.98,8.54,8.54,22.44,8.54,30.98,0,5.96-5.96,11.04-17.6,11.04-27.07Z"/>
          </g>
          <g>
            <path class="cls-2" d="M951.49,778.37c-9.44,9.44-16.66,31.96-7.22,41.4,9.44,9.44,31.96,2.21,41.4-7.22s9.44-24.74,0-34.18c-9.44-9.44-24.74-9.44-34.18,0Z"/>
            <path d="M937.57,807.09c0-2.65.34-5.5,1.02-8.52,1.89-8.37,6.22-16.72,11.3-21.8,4.99-4.99,11.63-7.74,18.68-7.74s13.69,2.75,18.69,7.74c4.99,4.99,7.74,11.63,7.74,18.69s-2.75,13.69-7.74,18.69c-5.08,5.08-13.43,9.4-21.8,11.3-9.85,2.23-17.94.78-22.8-4.07-3.36-3.36-5.09-8.29-5.09-14.28ZM990.47,795.46c0-5.61-2.14-11.22-6.41-15.49-8.54-8.54-22.44-8.54-30.98,0-8.76,8.76-15.63,29.81-7.22,38.21,8.4,8.4,29.45,1.54,38.21-7.22,4.27-4.27,6.41-9.88,6.41-15.49Z"/>
          </g>
          <g>
            <path class="cls-2" d="M927.45,778.37c9.44,9.44,16.66,31.96,7.22,41.4-9.44,9.44-31.96,2.21-41.4-7.22-9.44-9.44-9.44-24.74,0-34.18,9.44-9.44,24.74-9.44,34.18,0Z"/>
            <path d="M883.94,795.46c0-7.06,2.75-13.69,7.74-18.69,4.99-4.99,11.63-7.74,18.69-7.74s13.69,2.75,18.68,7.74c5.08,5.08,9.4,13.43,11.3,21.8,2.23,9.85.78,17.94-4.07,22.8-4.85,4.85-12.95,6.3-22.8,4.07-8.37-1.89-16.72-6.22-21.8-11.3-4.99-4.99-7.74-11.63-7.74-18.69ZM936.89,807.04c0-9.48-5.08-21.12-11.04-27.07-8.54-8.54-22.44-8.54-30.98,0-8.54,8.54-8.54,22.44,0,30.98,8.76,8.76,29.81,15.63,38.21,7.22,2.69-2.69,3.81-6.67,3.81-11.13Z"/>
          </g>
          <g>
            <path class="cls-2" d="M985.66,836.58c-9.44-9.44-31.96-16.66-41.4-7.22-9.44,9.44-2.21,31.96,7.22,41.4,9.44,9.44,24.74,9.44,34.18,0,9.44-9.44,9.44-24.74,0-34.18Z"/>
            <path d="M937.57,842.04c0-5.99,1.73-10.91,5.09-14.28,4.85-4.85,12.95-6.3,22.8-4.07,8.37,1.89,16.72,6.22,21.8,11.3,4.99,4.99,7.74,11.63,7.74,18.69s-2.75,13.69-7.74,18.69c-10.3,10.3-27.07,10.3-37.37,0-5.08-5.08-9.4-13.43-11.3-21.8-.68-3.02-1.02-5.87-1.02-8.52ZM990.47,853.67c0-5.61-2.14-11.22-6.41-15.49-8.76-8.76-29.81-15.63-38.21-7.22-8.4,8.4-1.54,29.45,7.22,38.21,8.54,8.54,22.44,8.54,30.98,0,4.27-4.27,6.41-9.88,6.41-15.49Z"/>
          </g>
        </g>
        <g>
          <polygon points="912.15 851.88 930.17 824.56 912.15 797.25 939.47 815.26 966.79 797.25 948.77 824.56 966.79 851.88 939.47 833.87 912.15 851.88"/>
          <path d="M904.21,789.3l35.26,23.26,35.26-23.26-23.26,35.26,23.26,35.26-35.26-23.26-35.26,23.26,23.26-35.26-23.26-35.26ZM932.87,824.56l-12.78,19.37,19.37-12.78,19.37,12.78-12.78-19.37,12.78-19.37-19.37,12.78-19.37-12.78,12.78,19.37Z"/>
        </g>
        <g>
          <circle class="cls-3" cx="939.47" cy="824.56" r="24.17"/>
          <path d="M913.38,824.56c0-6.68,2.54-13.37,7.63-18.46,10.18-10.18,26.74-10.18,36.91,0,10.18,10.18,10.18,26.74,0,36.91-10.18,10.18-26.74,10.18-36.91,0-5.09-5.09-7.63-11.77-7.63-18.46ZM961.69,824.56c0-5.69-2.17-11.39-6.5-15.72-8.67-8.67-22.77-8.67-31.44,0-8.67,8.67-8.67,22.77,0,31.44,8.67,8.67,22.77,8.67,31.44,0,4.33-4.33,6.5-10.03,6.5-15.72Z"/>
        </g>
      </g>
      <g>
        <g>
          <g>
            <path class="cls-2" d="M783.41,836.58c9.44-9.44,31.96-16.66,41.4-7.22,9.44,9.44,2.21,31.96-7.22,41.4-9.44,9.44-24.74,9.44-34.18,0-9.44-9.44-9.44-24.74,0-34.18Z"/>
            <path d="M774.07,853.67c0-7.06,2.75-13.69,7.74-18.69,5.08-5.08,13.43-9.4,21.8-11.3,9.85-2.23,17.94-.78,22.8,4.07,4.85,4.85,6.3,12.95,4.07,22.8-1.89,8.37-6.22,16.72-11.3,21.8-10.3,10.3-27.07,10.3-37.37,0-4.99-4.99-7.74-11.63-7.74-18.69ZM827.03,842.09c0-4.46-1.13-8.45-3.81-11.13-8.4-8.4-29.45-1.54-38.21,7.22-8.54,8.54-8.54,22.44,0,30.98,8.54,8.54,22.44,8.54,30.98,0,5.96-5.96,11.04-17.6,11.04-27.07Z"/>
          </g>
          <g>
            <path class="cls-2" d="M841.62,778.37c-9.44,9.44-16.66,31.96-7.22,41.4,9.44,9.44,31.96,2.21,41.4-7.22s9.44-24.74,0-34.18c-9.44-9.44-24.74-9.44-34.18,0Z"/>
            <path d="M827.71,807.09c0-2.65.34-5.5,1.02-8.52,1.89-8.37,6.22-16.72,11.3-21.8,4.99-4.99,11.63-7.74,18.68-7.74s13.69,2.75,18.69,7.74c4.99,4.99,7.74,11.63,7.74,18.69s-2.75,13.69-7.74,18.69c-5.08,5.08-13.43,9.4-21.8,11.3-9.85,2.23-17.94.78-22.8-4.07-3.36-3.36-5.09-8.29-5.09-14.28ZM880.61,795.46c0-5.61-2.14-11.22-6.41-15.49-8.54-8.54-22.44-8.54-30.98,0-8.76,8.76-15.63,29.81-7.22,38.21,8.4,8.4,29.45,1.54,38.21-7.22,4.27-4.27,6.41-9.88,6.41-15.49Z"/>
          </g>
          <g>
            <path class="cls-2" d="M817.58,778.37c9.44,9.44,16.66,31.96,7.22,41.4-9.44,9.44-31.96,2.21-41.4-7.22-9.44-9.44-9.44-24.74,0-34.18,9.44-9.44,24.74-9.44,34.18,0Z"/>
            <path d="M774.07,795.46c0-7.06,2.75-13.69,7.74-18.69,4.99-4.99,11.63-7.74,18.69-7.74s13.69,2.75,18.68,7.74c5.08,5.08,9.4,13.43,11.3,21.8,2.23,9.85.78,17.94-4.07,22.8-4.85,4.85-12.95,6.3-22.8,4.07-8.37-1.89-16.72-6.22-21.8-11.3-4.99-4.99-7.74-11.63-7.74-18.69ZM827.03,807.04c0-9.48-5.08-21.12-11.04-27.07-8.54-8.54-22.44-8.54-30.98,0-8.54,8.54-8.54,22.44,0,30.98,8.76,8.76,29.81,15.63,38.21,7.22,2.69-2.69,3.81-6.67,3.81-11.13Z"/>
          </g>
          <g>
            <path class="cls-2" d="M875.8,836.58c-9.44-9.44-31.96-16.66-41.4-7.22s-2.21,31.96,7.22,41.4c9.44,9.44,24.74,9.44,34.18,0,9.44-9.44,9.44-24.74,0-34.18Z"/>
            <path d="M827.71,842.04c0-5.99,1.73-10.91,5.09-14.28,4.85-4.85,12.95-6.3,22.8-4.07,8.37,1.89,16.72,6.22,21.8,11.3,4.99,4.99,7.74,11.63,7.74,18.69s-2.75,13.69-7.74,18.69c-10.3,10.3-27.07,10.3-37.37,0-5.08-5.08-9.4-13.43-11.3-21.8-.68-3.02-1.02-5.87-1.02-8.52ZM880.61,853.67c0-5.61-2.14-11.22-6.41-15.49-8.76-8.76-29.81-15.63-38.21-7.22-8.4,8.4-1.54,29.45,7.22,38.21,8.54,8.54,22.44,8.54,30.98,0,4.27-4.27,6.41-9.88,6.41-15.49Z"/>
          </g>
        </g>
        <g>
          <polygon points="802.28 851.88 820.3 824.56 802.28 797.25 829.6 815.26 856.92 797.25 838.9 824.56 856.92 851.88 829.6 833.87 802.28 851.88"/>
          <path d="M794.34,789.3l35.26,23.26,35.26-23.26-23.26,35.26,23.26,35.26-35.26-23.26-35.26,23.26,23.26-35.26-23.26-35.26ZM823,824.56l-12.78,19.37,19.37-12.78,19.37,12.78-12.78-19.37,12.78-19.37-19.37,12.78-19.37-12.78,12.78,19.37Z"/>
        </g>
        <g>
          <circle class="cls-3" cx="829.6" cy="824.56" r="24.17"/>
          <path d="M803.51,824.56c0-6.68,2.54-13.37,7.63-18.46,10.18-10.18,26.74-10.18,36.91,0,10.18,10.18,10.18,26.74,0,36.91-10.18,10.18-26.74,10.18-36.91,0-5.09-5.09-7.63-11.77-7.63-18.46ZM851.82,824.56c0-5.69-2.17-11.39-6.5-15.72-8.67-8.67-22.77-8.67-31.44,0-8.67,8.67-8.67,22.77,0,31.44,8.67,8.67,22.77,8.67,31.44,0,4.33-4.33,6.5-10.03,6.5-15.72Z"/>
        </g>
      </g>
      <g>
        <g>
          <g>
            <path class="cls-2" d="M673.54,836.58c9.44-9.44,31.96-16.66,41.4-7.22s2.21,31.96-7.22,41.4c-9.44,9.44-24.74,9.44-34.18,0-9.44-9.44-9.44-24.74,0-34.18Z"/>
            <path d="M664.2,853.67c0-7.06,2.75-13.69,7.74-18.69,5.08-5.08,13.43-9.4,21.8-11.3,9.85-2.23,17.94-.78,22.8,4.07,4.85,4.85,6.3,12.95,4.07,22.8-1.89,8.37-6.22,16.72-11.3,21.8-10.3,10.3-27.07,10.3-37.37,0-4.99-4.99-7.74-11.63-7.74-18.69ZM717.16,842.09c0-4.46-1.13-8.45-3.81-11.13-8.4-8.4-29.45-1.54-38.21,7.22-8.54,8.54-8.54,22.44,0,30.98,8.54,8.54,22.44,8.54,30.98,0,5.96-5.96,11.04-17.6,11.04-27.07Z"/>
          </g>
          <g>
            <path class="cls-2" d="M731.75,778.37c-9.44,9.44-16.66,31.96-7.22,41.4s31.96,2.21,41.4-7.22c9.44-9.44,9.44-24.74,0-34.18-9.44-9.44-24.74-9.44-34.18,0Z"/>
            <path d="M717.84,807.09c0-2.65.34-5.5,1.02-8.52,1.89-8.37,6.22-16.72,11.3-21.8,4.99-4.99,11.63-7.74,18.68-7.74s13.69,2.75,18.69,7.74c4.99,4.99,7.74,11.63,7.74,18.69s-2.75,13.69-7.74,18.69c-5.08,5.08-13.43,9.4-21.8,11.3-9.85,2.23-17.94.78-22.8-4.07-3.36-3.36-5.09-8.29-5.09-14.28ZM770.74,795.46c0-5.61-2.14-11.22-6.41-15.49-8.54-8.54-22.44-8.54-30.98,0-8.76,8.76-15.63,29.81-7.22,38.21,8.4,8.4,29.45,1.54,38.21-7.22,4.27-4.27,6.41-9.88,6.41-15.49Z"/>
          </g>
          <g>
            <path class="cls-2" d="M707.72,778.37c9.44,9.44,16.66,31.96,7.22,41.4-9.44,9.44-31.96,2.21-41.4-7.22s-9.44-24.74,0-34.18c9.44-9.44,24.74-9.44,34.18,0Z"/>
            <path d="M664.2,795.46c0-7.06,2.75-13.69,7.74-18.69,4.99-4.99,11.63-7.74,18.69-7.74s13.69,2.75,18.68,7.74c5.08,5.08,9.4,13.43,11.3,21.8,2.23,9.85.78,17.94-4.07,22.8-4.85,4.85-12.95,6.3-22.8,4.07-8.37-1.89-16.72-6.22-21.8-11.3-4.99-4.99-7.74-11.63-7.74-18.69ZM717.16,807.04c0-9.48-5.08-21.12-11.04-27.07-8.54-8.54-22.44-8.54-30.98,0-8.54,8.54-8.54,22.44,0,30.98,8.76,8.76,29.81,15.63,38.21,7.22,2.69-2.69,3.81-6.67,3.81-11.13Z"/>
          </g>
          <g>
            <path class="cls-2" d="M765.93,836.58c-9.44-9.44-31.96-16.66-41.4-7.22-9.44,9.44-2.21,31.96,7.22,41.4,9.44,9.44,24.74,9.44,34.18,0,9.44-9.44,9.44-24.74,0-34.18Z"/>
            <path d="M717.84,842.04c0-5.99,1.73-10.91,5.09-14.28,4.85-4.85,12.95-6.3,22.8-4.07,8.37,1.89,16.72,6.22,21.8,11.3,4.99,4.99,7.74,11.63,7.74,18.69s-2.75,13.69-7.74,18.69c-10.3,10.3-27.07,10.3-37.37,0-5.08-5.08-9.4-13.43-11.3-21.8-.68-3.02-1.02-5.87-1.02-8.52ZM770.74,853.67c0-5.61-2.14-11.22-6.41-15.49-8.76-8.76-29.81-15.63-38.21-7.22-8.4,8.4-1.54,29.45,7.22,38.21,8.54,8.54,22.44,8.54,30.98,0,4.27-4.27,6.41-9.88,6.41-15.49Z"/>
          </g>
        </g>
        <g>
          <polygon points="692.42 851.88 710.43 824.56 692.42 797.25 719.73 815.26 747.05 797.25 729.04 824.56 747.05 851.88 719.73 833.87 692.42 851.88"/>
          <path d="M684.47,789.3l35.26,23.26,35.26-23.26-23.26,35.26,23.26,35.26-35.26-23.26-35.26,23.26,23.26-35.26-23.26-35.26ZM713.14,824.56l-12.78,19.37,19.37-12.78,19.37,12.78-12.78-19.37,12.78-19.37-19.37,12.78-19.37-12.78,12.78,19.37Z"/>
        </g>
        <g>
          <circle class="cls-3" cx="719.73" cy="824.56" r="24.17"/>
          <path d="M693.64,824.56c0-6.68,2.54-13.37,7.63-18.46,10.18-10.18,26.74-10.18,36.91,0,10.18,10.18,10.18,26.74,0,36.91-10.18,10.18-26.74,10.18-36.91,0-5.09-5.09-7.63-11.77-7.63-18.46ZM741.96,824.56c0-5.69-2.17-11.39-6.5-15.72-8.67-8.67-22.77-8.67-31.44,0-8.67,8.67-8.67,22.77,0,31.44,8.67,8.67,22.77,8.67,31.44,0,4.33-4.33,6.5-10.03,6.5-15.72Z"/>
        </g>
      </g>
      <g>
        <g>
          <g>
            <path class="cls-2" d="M563.67,836.58c9.44-9.44,31.96-16.66,41.4-7.22,9.44,9.44,2.21,31.96-7.22,41.4-9.44,9.44-24.74,9.44-34.18,0-9.44-9.44-9.44-24.74,0-34.18Z"/>
            <path d="M554.34,853.67c0-7.06,2.75-13.69,7.74-18.69,5.08-5.08,13.43-9.4,21.8-11.3,9.85-2.23,17.94-.78,22.8,4.07,4.85,4.85,6.3,12.95,4.07,22.8-1.89,8.37-6.22,16.72-11.3,21.8-10.3,10.3-27.07,10.3-37.37,0-4.99-4.99-7.74-11.63-7.74-18.69ZM607.29,842.09c0-4.46-1.13-8.45-3.81-11.13-8.4-8.4-29.45-1.54-38.21,7.22-8.54,8.54-8.54,22.44,0,30.98,8.54,8.54,22.44,8.54,30.98,0,5.96-5.96,11.04-17.6,11.04-27.07Z"/>
          </g>
          <g>
            <path class="cls-2" d="M621.88,778.37c-9.44,9.44-16.66,31.96-7.22,41.4,9.44,9.44,31.96,2.21,41.4-7.22,9.44-9.44,9.44-24.74,0-34.18-9.44-9.44-24.74-9.44-34.18,0Z"/>
            <path d="M607.97,807.09c0-2.65.34-5.5,1.02-8.52,1.89-8.37,6.22-16.72,11.3-21.8,4.99-4.99,11.63-7.74,18.68-7.74s13.69,2.75,18.69,7.74c4.99,4.99,7.74,11.63,7.74,18.69s-2.75,13.69-7.74,18.69c-5.08,5.08-13.43,9.4-21.8,11.3-9.85,2.23-17.94.78-22.8-4.07-3.36-3.36-5.09-8.29-5.09-14.28ZM660.87,795.46c0-5.61-2.14-11.22-6.41-15.49-8.54-8.54-22.44-8.54-30.98,0-8.76,8.76-15.63,29.81-7.22,38.21,8.4,8.4,29.45,1.54,38.21-7.22,4.27-4.27,6.41-9.88,6.41-15.49Z"/>
          </g>
          <g>
            <path class="cls-2" d="M597.85,778.37c9.44,9.44,16.66,31.96,7.22,41.4-9.44,9.44-31.96,2.21-41.4-7.22-9.44-9.44-9.44-24.74,0-34.18,9.44-9.44,24.74-9.44,34.18,0Z"/>
            <path d="M554.34,795.46c0-7.06,2.75-13.69,7.74-18.69,4.99-4.99,11.63-7.74,18.69-7.74s13.69,2.75,18.68,7.74c5.08,5.08,9.4,13.43,11.3,21.8,2.23,9.85.78,17.94-4.07,22.8-4.85,4.85-12.95,6.3-22.8,4.07-8.37-1.89-16.72-6.22-21.8-11.3-4.99-4.99-7.74-11.63-7.74-18.69ZM607.29,807.04c0-9.48-5.08-21.12-11.04-27.07-8.54-8.54-22.44-8.54-30.98,0-8.54,8.54-8.54,22.44,0,30.98,8.76,8.76,29.81,15.63,38.21,7.22,2.69-2.69,3.81-6.67,3.81-11.13Z"/>
          </g>
          <g>
            <path class="cls-2" d="M656.06,836.58c-9.44-9.44-31.96-16.66-41.4-7.22-9.44,9.44-2.21,31.96,7.22,41.4,9.44,9.44,24.74,9.44,34.18,0,9.44-9.44,9.44-24.74,0-34.18Z"/>
            <path d="M607.97,842.04c0-5.99,1.73-10.91,5.09-14.28,4.85-4.85,12.95-6.3,22.8-4.07,8.37,1.89,16.72,6.22,21.8,11.3,4.99,4.99,7.74,11.63,7.74,18.69s-2.75,13.69-7.74,18.69c-10.3,10.3-27.07,10.3-37.37,0-5.08-5.08-9.4-13.43-11.3-21.8-.68-3.02-1.02-5.87-1.02-8.52ZM660.87,853.67c0-5.61-2.14-11.22-6.41-15.49-8.76-8.76-29.81-15.63-38.21-7.22-8.4,8.4-1.54,29.45,7.22,38.21,8.54,8.54,22.44,8.54,30.98,0,4.27-4.27,6.41-9.88,6.41-15.49Z"/>
          </g>
        </g>
        <g>
          <polygon points="582.55 851.88 600.57 824.56 582.55 797.25 609.87 815.26 637.18 797.25 619.17 824.56 637.18 851.88 609.87 833.87 582.55 851.88"/>
          <path d="M574.61,789.3l35.26,23.26,35.26-23.26-23.26,35.26,23.26,35.26-35.26-23.26-35.26,23.26,23.26-35.26-23.26-35.26ZM603.27,824.56l-12.78,19.37,19.37-12.78,19.37,12.78-12.78-19.37,12.78-19.37-19.37,12.78-19.37-12.78,12.78,19.37Z"/>
        </g>
        <g>
          <circle class="cls-3" cx="609.87" cy="824.56" r="24.17"/>
          <path d="M583.78,824.56c0-6.68,2.54-13.37,7.63-18.46,10.18-10.18,26.74-10.18,36.91,0,10.18,10.18,10.18,26.74,0,36.91-10.18,10.18-26.74,10.18-36.91,0-5.09-5.09-7.63-11.77-7.63-18.46ZM632.09,824.56c0-5.69-2.17-11.39-6.5-15.72-8.67-8.67-22.77-8.67-31.44,0-8.67,8.67-8.67,22.77,0,31.44,8.67,8.67,22.77,8.67,31.44,0,4.33-4.33,6.5-10.03,6.5-15.72Z"/>
        </g>
      </g>
      <g>
        <g>
          <g>
            <path class="cls-2" d="M453.8,836.58c9.44-9.44,31.96-16.66,41.4-7.22,9.44,9.44,2.21,31.96-7.22,41.4-9.44,9.44-24.74,9.44-34.18,0-9.44-9.44-9.44-24.74,0-34.18Z"/>
            <path d="M444.47,853.67c0-7.06,2.75-13.69,7.74-18.69,5.08-5.08,13.43-9.4,21.8-11.3,9.85-2.23,17.94-.78,22.8,4.07,4.85,4.85,6.3,12.95,4.07,22.8-1.89,8.37-6.22,16.72-11.3,21.8-10.3,10.3-27.07,10.3-37.37,0-4.99-4.99-7.74-11.63-7.74-18.69ZM497.42,842.09c0-4.46-1.13-8.45-3.81-11.13-8.4-8.4-29.45-1.54-38.21,7.22-8.54,8.54-8.54,22.44,0,30.98,8.54,8.54,22.44,8.54,30.98,0,5.96-5.96,11.04-17.6,11.04-27.07Z"/>
          </g>
          <g>
            <path class="cls-2" d="M512.02,778.37c-9.44,9.44-16.66,31.96-7.22,41.4,9.44,9.44,31.96,2.21,41.4-7.22,9.44-9.44,9.44-24.74,0-34.18-9.44-9.44-24.74-9.44-34.18,0Z"/>
            <path d="M498.1,807.09c0-2.65.34-5.5,1.02-8.52,1.89-8.37,6.22-16.72,11.3-21.8,4.99-4.99,11.63-7.74,18.68-7.74s13.69,2.75,18.69,7.74c4.99,4.99,7.74,11.63,7.74,18.69s-2.75,13.69-7.74,18.69c-5.08,5.08-13.43,9.4-21.8,11.3-9.85,2.23-17.94.78-22.8-4.07-3.36-3.36-5.09-8.29-5.09-14.28ZM551.01,795.46c0-5.61-2.14-11.22-6.41-15.49-8.54-8.54-22.44-8.54-30.98,0-8.76,8.76-15.63,29.81-7.22,38.21,8.4,8.4,29.45,1.54,38.21-7.22,4.27-4.27,6.41-9.88,6.41-15.49Z"/>
          </g>
          <g>
            <path class="cls-2" d="M487.98,778.37c9.44,9.44,16.66,31.96,7.22,41.4-9.44,9.44-31.96,2.21-41.4-7.22-9.44-9.44-9.44-24.74,0-34.18,9.44-9.44,24.74-9.44,34.18,0Z"/>
            <path d="M444.47,795.46c0-7.06,2.75-13.69,7.74-18.69,4.99-4.99,11.63-7.74,18.69-7.74s13.69,2.75,18.68,7.74c5.08,5.08,9.4,13.43,11.3,21.8,2.23,9.85.78,17.94-4.07,22.8-4.85,4.85-12.95,6.3-22.8,4.07-8.37-1.89-16.72-6.22-21.8-11.3-4.99-4.99-7.74-11.63-7.74-18.69ZM497.42,807.04c0-9.48-5.08-21.12-11.04-27.07-8.54-8.54-22.44-8.54-30.98,0-8.54,8.54-8.54,22.44,0,30.98,8.76,8.76,29.81,15.63,38.21,7.22,2.69-2.69,3.81-6.67,3.81-11.13Z"/>
          </g>
          <g>
            <path class="cls-2" d="M546.2,836.58c-9.44-9.44-31.96-16.66-41.4-7.22s-2.21,31.96,7.22,41.4c9.44,9.44,24.74,9.44,34.18,0,9.44-9.44,9.44-24.74,0-34.18Z"/>
            <path d="M498.1,842.04c0-5.99,1.73-10.91,5.09-14.28,4.85-4.85,12.95-6.3,22.8-4.07,8.37,1.89,16.72,6.22,21.8,11.3,4.99,4.99,7.74,11.63,7.74,18.69s-2.75,13.69-7.74,18.69c-10.3,10.3-27.07,10.3-37.37,0-5.08-5.08-9.4-13.43-11.3-21.8-.68-3.02-1.02-5.87-1.02-8.52ZM551.01,853.67c0-5.61-2.14-11.22-6.41-15.49-8.76-8.76-29.81-15.63-38.21-7.22-8.4,8.4-1.54,29.45,7.22,38.21,8.54,8.54,22.44,8.54,30.98,0,4.27-4.27,6.41-9.88,6.41-15.49Z"/>
          </g>
        </g>
        <g>
          <polygon points="472.68 851.88 490.7 824.56 472.68 797.25 500 815.26 527.32 797.25 509.3 824.56 527.32 851.88 500 833.87 472.68 851.88"/>
          <path d="M464.74,789.3l35.26,23.26,35.26-23.26-23.26,35.26,23.26,35.26-35.26-23.26-35.26,23.26,23.26-35.26-23.26-35.26ZM493.4,824.56l-12.78,19.37,19.37-12.78,19.37,12.78-12.78-19.37,12.78-19.37-19.37,12.78-19.37-12.78,12.78,19.37Z"/>
        </g>
        <g>
          <circle class="cls-3" cx="500" cy="824.56" r="24.17"/>
          <path d="M473.91,824.56c0-6.68,2.54-13.37,7.63-18.46,10.18-10.18,26.74-10.18,36.91,0,10.18,10.18,10.18,26.74,0,36.91-10.18,10.18-26.74,10.18-36.91,0-5.09-5.09-7.63-11.77-7.63-18.46ZM522.22,824.56c0-5.69-2.17-11.39-6.5-15.72-8.67-8.67-22.77-8.67-31.44,0-8.67,8.67-8.67,22.77,0,31.44,8.67,8.67,22.77,8.67,31.44,0,4.33-4.33,6.5-10.03,6.5-15.72Z"/>
        </g>
      </g>
      <g>
        <g>
          <g>
            <path class="cls-2" d="M343.94,836.58c9.44-9.44,31.96-16.66,41.4-7.22,9.44,9.44,2.21,31.96-7.22,41.4-9.44,9.44-24.74,9.44-34.18,0-9.44-9.44-9.44-24.74,0-34.18Z"/>
            <path d="M334.6,853.67c0-7.06,2.75-13.69,7.74-18.69,5.08-5.08,13.43-9.4,21.8-11.3,9.85-2.23,17.94-.78,22.8,4.07,4.85,4.85,6.3,12.95,4.07,22.8-1.89,8.37-6.22,16.72-11.3,21.8-10.3,10.3-27.07,10.3-37.37,0-4.99-4.99-7.74-11.63-7.74-18.69ZM387.56,842.09c0-4.46-1.13-8.45-3.81-11.13-8.4-8.4-29.45-1.54-38.21,7.22-8.54,8.54-8.54,22.44,0,30.98,8.54,8.54,22.44,8.54,30.98,0,5.96-5.96,11.04-17.6,11.04-27.07Z"/>
          </g>
          <g>
            <path class="cls-2" d="M402.15,778.37c-9.44,9.44-16.66,31.96-7.22,41.4,9.44,9.44,31.96,2.21,41.4-7.22,9.44-9.44,9.44-24.74,0-34.18-9.44-9.44-24.74-9.44-34.18,0Z"/>
            <path d="M388.24,807.09c0-2.65.34-5.5,1.02-8.52,1.89-8.37,6.22-16.72,11.3-21.8,4.99-4.99,11.63-7.74,18.68-7.74s13.69,2.75,18.69,7.74c4.99,4.99,7.74,11.63,7.74,18.69s-2.75,13.69-7.74,18.69c-5.08,5.08-13.43,9.4-21.8,11.3-9.85,2.23-17.94.78-22.8-4.07-3.36-3.36-5.09-8.29-5.09-14.28ZM441.14,795.46c0-5.61-2.14-11.22-6.41-15.49-8.54-8.54-22.44-8.54-30.98,0-8.76,8.76-15.63,29.81-7.22,38.21,8.4,8.4,29.45,1.54,38.21-7.22,4.27-4.27,6.41-9.88,6.41-15.49Z"/>
          </g>
          <g>
            <path class="cls-2" d="M378.12,778.37c9.44,9.44,16.66,31.96,7.22,41.4s-31.96,2.21-41.4-7.22c-9.44-9.44-9.44-24.74,0-34.18,9.44-9.44,24.74-9.44,34.18,0Z"/>
            <path d="M334.6,795.46c0-7.06,2.75-13.69,7.74-18.69,4.99-4.99,11.63-7.74,18.69-7.74s13.69,2.75,18.68,7.74c5.08,5.08,9.4,13.43,11.3,21.8,2.23,9.85.78,17.94-4.07,22.8-4.85,4.85-12.95,6.3-22.8,4.07-8.37-1.89-16.72-6.22-21.8-11.3-4.99-4.99-7.74-11.63-7.74-18.69ZM387.56,807.04c0-9.48-5.08-21.12-11.04-27.07-8.54-8.54-22.44-8.54-30.98,0-8.54,8.54-8.54,22.44,0,30.98,8.76,8.76,29.81,15.63,38.21,7.22,2.69-2.69,3.81-6.67,3.81-11.13Z"/>
          </g>
          <g>
            <path class="cls-2" d="M436.33,836.58c-9.44-9.44-31.96-16.66-41.4-7.22-9.44,9.44-2.21,31.96,7.22,41.4,9.44,9.44,24.74,9.44,34.18,0,9.44-9.44,9.44-24.74,0-34.18Z"/>
            <path d="M388.24,842.04c0-5.99,1.73-10.91,5.09-14.28,4.85-4.85,12.95-6.3,22.8-4.07,8.37,1.89,16.72,6.22,21.8,11.3,4.99,4.99,7.74,11.63,7.74,18.69s-2.75,13.69-7.74,18.69c-10.3,10.3-27.07,10.3-37.37,0-5.08-5.08-9.4-13.43-11.3-21.8-.68-3.02-1.02-5.87-1.02-8.52ZM441.14,853.67c0-5.61-2.14-11.22-6.41-15.49-8.76-8.76-29.81-15.63-38.21-7.22-8.4,8.4-1.54,29.45,7.22,38.21,8.54,8.54,22.44,8.54,30.98,0,4.27-4.27,6.41-9.88,6.41-15.49Z"/>
          </g>
        </g>
        <g>
          <polygon points="362.82 851.88 380.83 824.56 362.82 797.25 390.13 815.26 417.45 797.25 399.43 824.56 417.45 851.88 390.13 833.87 362.82 851.88"/>
          <path d="M354.87,789.3l35.26,23.26,35.26-23.26-23.26,35.26,23.26,35.26-35.26-23.26-35.26,23.26,23.26-35.26-23.26-35.26ZM383.54,824.56l-12.78,19.37,19.37-12.78,19.37,12.78-12.78-19.37,12.78-19.37-19.37,12.78-19.37-12.78,12.78,19.37Z"/>
        </g>
        <g>
          <circle class="cls-3" cx="390.13" cy="824.56" r="24.17"/>
          <path d="M364.04,824.56c0-6.68,2.54-13.37,7.63-18.46,10.18-10.18,26.74-10.18,36.91,0,10.18,10.18,10.18,26.74,0,36.91-10.18,10.18-26.74,10.18-36.91,0-5.09-5.09-7.63-11.77-7.63-18.46ZM412.35,824.56c0-5.69-2.17-11.39-6.5-15.72-8.67-8.67-22.77-8.67-31.44,0-8.67,8.67-8.67,22.77,0,31.44,8.67,8.67,22.77,8.67,31.44,0,4.33-4.33,6.5-10.03,6.5-15.72Z"/>
        </g>
      </g>
      <g>
        <g>
          <g>
            <path class="cls-2" d="M234.07,836.58c9.44-9.44,31.96-16.66,41.4-7.22,9.44,9.44,2.21,31.96-7.22,41.4-9.44,9.44-24.74,9.44-34.18,0-9.44-9.44-9.44-24.74,0-34.18Z"/>
            <path d="M224.73,853.67c0-7.06,2.75-13.69,7.74-18.69,5.08-5.08,13.43-9.4,21.8-11.3,9.85-2.23,17.94-.78,22.8,4.07,4.85,4.85,6.3,12.95,4.07,22.8-1.89,8.37-6.22,16.72-11.3,21.8-10.3,10.3-27.07,10.3-37.37,0-4.99-4.99-7.74-11.63-7.74-18.69ZM277.69,842.09c0-4.46-1.13-8.45-3.81-11.13-8.4-8.4-29.45-1.54-38.21,7.22-8.54,8.54-8.54,22.44,0,30.98,8.54,8.54,22.44,8.54,30.98,0,5.96-5.96,11.04-17.6,11.04-27.07Z"/>
          </g>
          <g>
            <path class="cls-2" d="M292.28,778.37c-9.44,9.44-16.66,31.96-7.22,41.4,9.44,9.44,31.96,2.21,41.4-7.22,9.44-9.44,9.44-24.74,0-34.18-9.44-9.44-24.74-9.44-34.18,0Z"/>
            <path d="M278.37,807.09c0-2.65.34-5.5,1.02-8.52,1.89-8.37,6.22-16.72,11.3-21.8,4.99-4.99,11.63-7.74,18.68-7.74s13.69,2.75,18.69,7.74c4.99,4.99,7.74,11.63,7.74,18.69s-2.75,13.69-7.74,18.69c-5.08,5.08-13.43,9.4-21.8,11.3-9.85,2.23-17.94.78-22.8-4.07-3.36-3.36-5.09-8.29-5.09-14.28ZM331.27,795.46c0-5.61-2.14-11.22-6.41-15.49-8.54-8.54-22.44-8.54-30.98,0-8.76,8.76-15.63,29.81-7.22,38.21,8.4,8.4,29.45,1.54,38.21-7.22,4.27-4.27,6.41-9.88,6.41-15.49Z"/>
          </g>
          <g>
            <path class="cls-2" d="M268.25,778.37c9.44,9.44,16.66,31.96,7.22,41.4-9.44,9.44-31.96,2.21-41.4-7.22-9.44-9.44-9.44-24.74,0-34.18,9.44-9.44,24.74-9.44,34.18,0Z"/>
            <path d="M224.73,795.46c0-7.06,2.75-13.69,7.74-18.69,4.99-4.99,11.63-7.74,18.69-7.74s13.69,2.75,18.68,7.74c5.08,5.08,9.4,13.43,11.3,21.8,2.23,9.85.78,17.94-4.07,22.8-4.85,4.85-12.95,6.3-22.8,4.07-8.37-1.89-16.72-6.22-21.8-11.3-4.99-4.99-7.74-11.63-7.74-18.69ZM277.69,807.04c0-9.48-5.08-21.12-11.04-27.07-8.54-8.54-22.44-8.54-30.98,0-8.54,8.54-8.54,22.44,0,30.98,8.76,8.76,29.81,15.63,38.21,7.22,2.69-2.69,3.81-6.67,3.81-11.13Z"/>
          </g>
          <g>
            <path class="cls-2" d="M326.46,836.58c-9.44-9.44-31.96-16.66-41.4-7.22-9.44,9.44-2.21,31.96,7.22,41.4,9.44,9.44,24.74,9.44,34.18,0,9.44-9.44,9.44-24.74,0-34.18Z"/>
            <path d="M278.37,842.04c0-5.99,1.73-10.91,5.09-14.28,4.85-4.85,12.95-6.3,22.8-4.07,8.37,1.89,16.72,6.22,21.8,11.3,4.99,4.99,7.74,11.63,7.74,18.69s-2.75,13.69-7.74,18.69c-10.3,10.3-27.07,10.3-37.37,0-5.08-5.08-9.4-13.43-11.3-21.8-.68-3.02-1.02-5.87-1.02-8.52ZM331.27,853.67c0-5.61-2.14-11.22-6.41-15.49-8.76-8.76-29.81-15.63-38.21-7.22-8.4,8.4-1.54,29.45,7.22,38.21,8.54,8.54,22.44,8.54,30.98,0,4.27-4.27,6.41-9.88,6.41-15.49Z"/>
          </g>
        </g>
        <g>
          <polygon points="252.95 851.88 270.96 824.56 252.95 797.25 280.27 815.26 307.58 797.25 289.57 824.56 307.58 851.88 280.27 833.87 252.95 851.88"/>
          <path d="M245,789.3l35.26,23.26,35.26-23.26-23.26,35.26,23.26,35.26-35.26-23.26-35.26,23.26,23.26-35.26-23.26-35.26ZM273.67,824.56l-12.78,19.37,19.37-12.78,19.37,12.78-12.78-19.37,12.78-19.37-19.37,12.78-19.37-12.78,12.78,19.37Z"/>
        </g>
        <g>
          <circle class="cls-3" cx="280.27" cy="824.56" r="24.17"/>
          <path d="M254.17,824.56c0-6.68,2.54-13.37,7.63-18.46,4.93-4.93,11.48-7.65,18.46-7.65s13.53,2.72,18.46,7.65c10.18,10.18,10.18,26.74,0,36.91-4.93,4.93-11.48,7.65-18.46,7.65s-13.53-2.72-18.46-7.65c-5.09-5.09-7.63-11.77-7.63-18.46ZM302.49,824.56c0-5.69-2.17-11.39-6.5-15.72-4.2-4.2-9.78-6.51-15.72-6.51s-11.52,2.31-15.72,6.51c-8.67,8.67-8.67,22.77,0,31.44,4.2,4.2,9.78,6.51,15.72,6.51s11.52-2.31,15.72-6.51c4.33-4.33,6.5-10.03,6.5-15.72Z"/>
        </g>
      </g>
      <g>
        <g>
          <g>
            <path class="cls-2" d="M124.2,836.58c9.44-9.44,31.96-16.66,41.4-7.22,9.44,9.44,2.21,31.96-7.22,41.4-9.44,9.44-24.74,9.44-34.18,0-9.44-9.44-9.44-24.74,0-34.18Z"/>
            <path d="M114.87,853.67c0-7.06,2.75-13.69,7.74-18.69,5.08-5.08,13.43-9.4,21.8-11.3,9.85-2.23,17.94-.78,22.8,4.07,4.85,4.85,6.3,12.95,4.07,22.8-1.89,8.37-6.22,16.72-11.3,21.8-10.3,10.3-27.07,10.3-37.37,0-4.99-4.99-7.74-11.63-7.74-18.69ZM167.82,842.09c0-4.46-1.13-8.45-3.81-11.13-8.4-8.4-29.45-1.54-38.21,7.22-8.54,8.54-8.54,22.44,0,30.98,8.54,8.54,22.44,8.54,30.98,0,5.96-5.96,11.04-17.6,11.04-27.07Z"/>
          </g>
          <g>
            <path class="cls-2" d="M182.42,778.37c-9.44,9.44-16.66,31.96-7.22,41.4,9.44,9.44,31.96,2.21,41.4-7.22s9.44-24.74,0-34.18c-9.44-9.44-24.74-9.44-34.18,0Z"/>
            <path d="M168.5,807.09c0-2.65.34-5.5,1.02-8.52,1.89-8.37,6.22-16.72,11.3-21.8,4.99-4.99,11.63-7.74,18.68-7.74s13.69,2.75,18.69,7.74c4.99,4.99,7.74,11.63,7.74,18.69s-2.75,13.69-7.74,18.69c-5.08,5.08-13.43,9.4-21.8,11.3-9.85,2.23-17.94.78-22.8-4.07-3.36-3.36-5.09-8.29-5.09-14.28ZM221.4,795.46c0-5.61-2.14-11.22-6.41-15.49-8.54-8.54-22.44-8.54-30.98,0-8.76,8.76-15.63,29.81-7.22,38.21,8.4,8.4,29.45,1.54,38.21-7.22,4.27-4.27,6.41-9.88,6.41-15.49Z"/>
          </g>
          <g>
            <path class="cls-2" d="M158.38,778.37c9.44,9.44,16.66,31.96,7.22,41.4-9.44,9.44-31.96,2.21-41.4-7.22-9.44-9.44-9.44-24.74,0-34.18,9.44-9.44,24.74-9.44,34.18,0Z"/>
            <path d="M114.87,795.46c0-7.06,2.75-13.69,7.74-18.69,4.99-4.99,11.63-7.74,18.69-7.74s13.69,2.75,18.68,7.74c5.08,5.08,9.4,13.43,11.3,21.8,2.23,9.85.78,17.94-4.07,22.8-4.85,4.85-12.95,6.3-22.8,4.07-8.37-1.89-16.72-6.22-21.8-11.3-4.99-4.99-7.74-11.63-7.74-18.69ZM167.82,807.04c0-9.48-5.08-21.12-11.04-27.07-8.54-8.54-22.44-8.54-30.98,0-8.54,8.54-8.54,22.44,0,30.98,8.76,8.76,29.81,15.63,38.21,7.22,2.69-2.69,3.81-6.67,3.81-11.13Z"/>
          </g>
          <g>
            <path class="cls-2" d="M216.59,836.58c-9.44-9.44-31.96-16.66-41.4-7.22s-2.21,31.96,7.22,41.4c9.44,9.44,24.74,9.44,34.18,0,9.44-9.44,9.44-24.74,0-34.18Z"/>
            <path d="M168.5,842.04c0-5.99,1.73-10.91,5.09-14.28,4.85-4.85,12.95-6.3,22.8-4.07,8.37,1.89,16.72,6.22,21.8,11.3,4.99,4.99,7.74,11.63,7.74,18.69s-2.75,13.69-7.74,18.69c-10.3,10.3-27.07,10.3-37.37,0-5.08-5.08-9.4-13.43-11.3-21.8-.68-3.02-1.02-5.87-1.02-8.52ZM221.4,853.67c0-5.61-2.14-11.22-6.41-15.49-8.76-8.76-29.81-15.63-38.21-7.22-8.4,8.4-1.54,29.45,7.22,38.21,8.54,8.54,22.44,8.54,30.98,0,4.27-4.27,6.41-9.88,6.41-15.49Z"/>
          </g>
        </g>
        <g>
          <polygon points="143.08 851.88 161.1 824.56 143.08 797.25 170.4 815.26 197.72 797.25 179.7 824.56 197.72 851.88 170.4 833.87 143.08 851.88"/>
          <path d="M135.14,789.3l35.26,23.26,35.26-23.26-23.26,35.26,23.26,35.26-35.26-23.26-35.26,23.26,23.26-35.26-23.26-35.26ZM163.8,824.56l-12.78,19.37,19.37-12.78,19.37,12.78-12.78-19.37,12.78-19.37-19.37,12.78-19.37-12.78,12.78,19.37Z"/>
        </g>
        <g>
          <circle class="cls-3" cx="170.4" cy="824.56" r="24.17"/>
          <path d="M144.31,824.56c0-6.68,2.54-13.37,7.63-18.46,4.93-4.93,11.48-7.65,18.46-7.65s13.53,2.72,18.46,7.65c10.18,10.18,10.18,26.74,0,36.91-4.93,4.93-11.48,7.65-18.46,7.65s-13.53-2.72-18.46-7.65c-5.09-5.09-7.63-11.77-7.63-18.46ZM192.62,824.56c0-5.69-2.17-11.39-6.5-15.72-4.2-4.2-9.78-6.51-15.72-6.51s-11.52,2.31-15.72,6.51c-8.67,8.67-8.67,22.77,0,31.44,4.2,4.2,9.78,6.51,15.72,6.51s11.52-2.31,15.72-6.51c4.33-4.33,6.5-10.03,6.5-15.72Z"/>
        </g>
      </g>
      <g>
        <g>
          <g>
            <path class="cls-2" d="M14.34,836.58c9.44-9.44,31.96-16.66,41.4-7.22s2.21,31.96-7.22,41.4c-9.44,9.44-24.74,9.44-34.18,0-9.44-9.44-9.44-24.74,0-34.18Z"/>
            <path d="M5,853.67c0-7.06,2.75-13.69,7.74-18.69,5.08-5.08,13.43-9.4,21.8-11.3,9.85-2.23,17.94-.78,22.8,4.07,4.85,4.85,6.3,12.95,4.07,22.8-1.89,8.37-6.22,16.72-11.3,21.8-10.3,10.3-27.07,10.3-37.37,0-4.99-4.99-7.74-11.63-7.74-18.69ZM57.96,842.09c0-4.46-1.13-8.45-3.81-11.13-8.4-8.4-29.45-1.54-38.21,7.22-8.54,8.54-8.54,22.44,0,30.98,8.54,8.54,22.44,8.54,30.98,0,5.96-5.96,11.04-17.6,11.04-27.07Z"/>
          </g>
          <g>
            <path class="cls-2" d="M72.55,778.37c-9.44,9.44-16.66,31.96-7.22,41.4,9.44,9.44,31.96,2.21,41.4-7.22,9.44-9.44,9.44-24.74,0-34.18-9.44-9.44-24.74-9.44-34.18,0Z"/>
            <path d="M58.64,807.09c0-2.65.34-5.5,1.02-8.52,1.89-8.37,6.22-16.72,11.3-21.8,4.99-4.99,11.63-7.74,18.68-7.74s13.69,2.75,18.69,7.74c4.99,4.99,7.74,11.63,7.74,18.69s-2.75,13.69-7.74,18.69c-5.08,5.08-13.43,9.4-21.8,11.3-9.85,2.23-17.94.78-22.8-4.07-3.36-3.36-5.09-8.29-5.09-14.28ZM111.54,795.46c0-5.61-2.14-11.22-6.41-15.49-8.54-8.54-22.44-8.54-30.98,0-8.76,8.76-15.63,29.81-7.22,38.21,8.4,8.4,29.45,1.54,38.21-7.22,4.27-4.27,6.41-9.88,6.41-15.49Z"/>
          </g>
          <g>
            <path class="cls-2" d="M48.51,778.37c9.44,9.44,16.66,31.96,7.22,41.4-9.44,9.44-31.96,2.21-41.4-7.22-9.44-9.44-9.44-24.74,0-34.18,9.44-9.44,24.74-9.44,34.18,0Z"/>
            <path d="M5,795.46c0-7.06,2.75-13.69,7.74-18.69,4.99-4.99,11.63-7.74,18.69-7.74s13.69,2.75,18.68,7.74c5.08,5.08,9.4,13.43,11.3,21.8,2.23,9.85.78,17.94-4.07,22.8-4.85,4.85-12.95,6.3-22.8,4.07-8.37-1.89-16.72-6.22-21.8-11.3-4.99-4.99-7.74-11.63-7.74-18.69ZM57.96,807.04c0-9.48-5.08-21.12-11.04-27.07-8.54-8.54-22.44-8.54-30.98,0-8.54,8.54-8.54,22.44,0,30.98,8.76,8.76,29.81,15.63,38.21,7.22,2.69-2.69,3.81-6.67,3.81-11.13Z"/>
          </g>
          <g>
            <path class="cls-2" d="M106.73,836.58c-9.44-9.44-31.96-16.66-41.4-7.22-9.44,9.44-2.21,31.96,7.22,41.4,9.44,9.44,24.74,9.44,34.18,0,9.44-9.44,9.44-24.74,0-34.18Z"/>
            <path d="M58.64,842.04c0-5.99,1.73-10.91,5.09-14.28,4.85-4.85,12.95-6.3,22.8-4.07,8.37,1.89,16.72,6.22,21.8,11.3,4.99,4.99,7.74,11.63,7.74,18.69s-2.75,13.69-7.74,18.69c-10.3,10.3-27.07,10.3-37.37,0-5.08-5.08-9.4-13.43-11.3-21.8-.68-3.02-1.02-5.87-1.02-8.52ZM111.54,853.67c0-5.61-2.14-11.22-6.41-15.49-8.76-8.76-29.81-15.63-38.21-7.22-8.4,8.4-1.54,29.45,7.22,38.21,8.54,8.54,22.44,8.54,30.98,0,4.27-4.27,6.41-9.88,6.41-15.49Z"/>
          </g>
        </g>
        <g>
          <polygon points="33.21 851.88 51.23 824.56 33.21 797.25 60.53 815.26 87.85 797.25 69.83 824.56 87.85 851.88 60.53 833.87 33.21 851.88"/>
          <path d="M25.27,789.3l35.26,23.26,35.26-23.26-23.26,35.26,23.26,35.26-35.26-23.26-35.26,23.26,23.26-35.26-23.26-35.26ZM53.93,824.56l-12.78,19.37,19.37-12.78,19.37,12.78-12.78-19.37,12.78-19.37-19.37,12.78-19.37-12.78,12.78,19.37Z"/>
        </g>
        <g>
          <circle class="cls-3" cx="60.53" cy="824.56" r="24.17"/>
          <path d="M34.44,824.56c0-6.68,2.54-13.37,7.63-18.46,10.18-10.18,26.74-10.18,36.91,0,10.18,10.18,10.18,26.74,0,36.91-10.18,10.18-26.74,10.18-36.91,0-5.09-5.09-7.63-11.77-7.63-18.46ZM82.75,824.56c0-5.69-2.17-11.39-6.5-15.72-8.67-8.67-22.77-8.67-31.44,0-8.67,8.67-8.67,22.77,0,31.44,8.67,8.67,22.77,8.67,31.44,0,4.33-4.33,6.5-10.03,6.5-15.72Z"/>
        </g>
      </g>
    </g>
    <g>
      <g>
        <g>
          <g>
            <path class="cls-2" d="M893.27,187.47c9.44-9.44,31.96-16.66,41.4-7.22,9.44,9.44,2.21,31.96-7.22,41.4-9.44,9.44-24.74,9.44-34.18,0-9.44-9.44-9.44-24.74,0-34.18Z"/>
            <path d="M883.94,204.55c0-7.06,2.75-13.69,7.74-18.69,5.08-5.08,13.43-9.4,21.8-11.3,9.85-2.23,17.94-.78,22.8,4.07,4.85,4.85,6.3,12.95,4.07,22.8-1.89,8.37-6.22,16.72-11.3,21.8-4.99,4.99-11.63,7.74-18.68,7.74s-13.69-2.75-18.69-7.74c-4.99-4.99-7.74-11.63-7.74-18.69ZM936.83,193c0-4.79-1.28-8.68-3.75-11.16-8.4-8.4-29.45-1.54-38.21,7.22-8.54,8.54-8.54,22.44,0,30.98,8.54,8.54,22.44,8.54,30.98,0,4.44-4.44,8.4-12.13,10.08-19.6.6-2.65.89-5.15.89-7.45Z"/>
          </g>
          <g>
            <path class="cls-2" d="M951.49,129.25c-9.44,9.44-16.66,31.96-7.22,41.4,9.44,9.44,31.96,2.21,41.4-7.22,9.44-9.44,9.44-24.74,0-34.18-9.44-9.44-24.74-9.44-34.18,0Z"/>
            <path d="M937.57,157.97c0-2.65.34-5.5,1.02-8.52,1.89-8.37,6.22-16.72,11.3-21.8,4.99-4.99,11.63-7.74,18.68-7.74s13.69,2.75,18.69,7.74,7.74,11.63,7.74,18.69-2.75,13.69-7.74,18.69c-5.08,5.08-13.43,9.4-21.8,11.3-9.85,2.23-17.94.78-22.8-4.07-3.36-3.36-5.09-8.29-5.09-14.28ZM990.47,146.34c0-5.61-2.14-11.22-6.41-15.49-8.54-8.54-22.44-8.54-30.98,0-8.76,8.76-15.63,29.81-7.22,38.21,8.4,8.4,29.45,1.54,38.21-7.22,4.27-4.27,6.41-9.88,6.41-15.49Z"/>
          </g>
          <g>
            <path class="cls-2" d="M927.45,129.25c9.44,9.44,16.66,31.96,7.22,41.4-9.44,9.44-31.96,2.21-41.4-7.22-9.44-9.44-9.44-24.74,0-34.18,9.44-9.44,24.74-9.44,34.18,0Z"/>
            <path d="M883.94,146.34c0-7.06,2.75-13.69,7.74-18.69,4.99-4.99,11.63-7.74,18.69-7.74s13.69,2.75,18.68,7.74c5.08,5.08,9.4,13.43,11.3,21.8,2.23,9.85.78,17.94-4.07,22.8-4.85,4.85-12.95,6.3-22.8,4.07-8.37-1.89-16.72-6.22-21.8-11.3-4.99-4.99-7.74-11.63-7.74-18.69ZM936.89,157.92c0-9.48-5.08-21.12-11.04-27.07-8.54-8.54-22.44-8.54-30.98,0-8.54,8.54-8.54,22.44,0,30.98,8.76,8.76,29.81,15.63,38.21,7.22,2.69-2.69,3.81-6.67,3.81-11.13Z"/>
          </g>
          <g>
            <path class="cls-2" d="M985.66,187.47c-9.44-9.44-31.96-16.66-41.4-7.22-9.44,9.44-2.21,31.96,7.22,41.4,9.44,9.44,24.74,9.44,34.18,0,9.44-9.44,9.44-24.74,0-34.18Z"/>
            <path d="M937.57,192.92c0-5.99,1.73-10.91,5.09-14.28,4.85-4.85,12.95-6.3,22.8-4.07,8.37,1.89,16.72,6.22,21.8,11.3,4.99,4.99,7.74,11.63,7.74,18.69s-2.75,13.69-7.74,18.69-11.63,7.74-18.69,7.74-13.69-2.75-18.68-7.74c-5.08-5.08-9.4-13.43-11.3-21.8-.68-3.02-1.02-5.87-1.02-8.52ZM990.47,204.55c0-5.61-2.14-11.22-6.41-15.49-8.76-8.76-29.81-15.63-38.21-7.22-3.66,3.66-4.7,10.44-2.86,18.61,1.69,7.47,5.65,15.16,10.08,19.6,8.54,8.54,22.44,8.54,30.98,0,4.27-4.27,6.41-9.88,6.41-15.49Z"/>
          </g>
        </g>
        <g>
          <polygon points="912.15 202.77 930.17 175.45 912.15 148.13 939.47 166.15 966.79 148.13 948.77 175.45 966.79 202.77 939.47 184.75 912.15 202.77"/>
          <path d="M904.21,140.19l35.26,23.26,35.26-23.26-23.26,35.26,23.26,35.26-35.26-23.26-35.26,23.26,23.26-35.26-23.26-35.26ZM932.87,175.45l-12.78,19.37,19.37-12.78,19.37,12.78-12.78-19.37,12.78-19.37-19.37,12.78-19.37-12.78,12.78,19.37Z"/>
        </g>
        <g>
          <circle class="cls-3" cx="939.47" cy="175.45" r="24.17"/>
          <path d="M913.38,175.45c0-6.68,2.54-13.37,7.63-18.46,10.18-10.18,26.74-10.18,36.91,0,10.18,10.18,10.18,26.74,0,36.91-10.18,10.18-26.74,10.18-36.91,0-5.09-5.09-7.63-11.77-7.63-18.46ZM961.69,175.45c0-5.69-2.17-11.39-6.5-15.72-8.67-8.67-22.77-8.67-31.44,0-8.67,8.67-8.67,22.77,0,31.44,8.67,8.67,22.77,8.67,31.44,0,4.33-4.33,6.5-10.03,6.5-15.72Z"/>
        </g>
      </g>
      <g>
        <g>
          <g>
            <path class="cls-2" d="M783.41,187.47c9.44-9.44,31.96-16.66,41.4-7.22,9.44,9.44,2.21,31.96-7.22,41.4-9.44,9.44-24.74,9.44-34.18,0-9.44-9.44-9.44-24.74,0-34.18Z"/>
            <path d="M774.07,204.55c0-7.06,2.75-13.69,7.74-18.69,5.08-5.08,13.43-9.4,21.8-11.3,9.85-2.23,17.94-.78,22.8,4.07,4.85,4.85,6.3,12.95,4.07,22.8-1.89,8.37-6.22,16.72-11.3,21.8-4.99,4.99-11.63,7.74-18.68,7.74s-13.69-2.75-18.69-7.74c-4.99-4.99-7.74-11.63-7.74-18.69ZM826.96,193c0-4.79-1.28-8.68-3.75-11.16-8.4-8.4-29.45-1.54-38.21,7.22-8.54,8.54-8.54,22.44,0,30.98,8.54,8.54,22.44,8.54,30.98,0,4.44-4.44,8.4-12.13,10.08-19.6.6-2.65.89-5.15.89-7.45Z"/>
          </g>
          <g>
            <path class="cls-2" d="M841.62,129.25c-9.44,9.44-16.66,31.96-7.22,41.4,9.44,9.44,31.96,2.21,41.4-7.22,9.44-9.44,9.44-24.74,0-34.18-9.44-9.44-24.74-9.44-34.18,0Z"/>
            <path d="M827.71,157.97c0-2.65.34-5.5,1.02-8.52,1.89-8.37,6.22-16.72,11.3-21.8,4.99-4.99,11.63-7.74,18.68-7.74s13.69,2.75,18.69,7.74,7.74,11.63,7.74,18.69-2.75,13.69-7.74,18.69c-5.08,5.08-13.43,9.4-21.8,11.3-9.85,2.23-17.94.78-22.8-4.07-3.36-3.36-5.09-8.29-5.09-14.28ZM880.61,146.34c0-5.61-2.14-11.22-6.41-15.49-8.54-8.54-22.44-8.54-30.98,0-8.76,8.76-15.63,29.81-7.22,38.21,8.4,8.4,29.45,1.54,38.21-7.22,4.27-4.27,6.41-9.88,6.41-15.49Z"/>
          </g>
          <g>
            <path class="cls-2" d="M817.58,129.25c9.44,9.44,16.66,31.96,7.22,41.4-9.44,9.44-31.96,2.21-41.4-7.22-9.44-9.44-9.44-24.74,0-34.18,9.44-9.44,24.74-9.44,34.18,0Z"/>
            <path d="M774.07,146.34c0-7.06,2.75-13.69,7.74-18.69,4.99-4.99,11.63-7.74,18.69-7.74s13.69,2.75,18.68,7.74c5.08,5.08,9.4,13.43,11.3,21.8,2.23,9.85.78,17.94-4.07,22.8-4.85,4.85-12.95,6.3-22.8,4.07-8.37-1.89-16.72-6.22-21.8-11.3-4.99-4.99-7.74-11.63-7.74-18.69ZM827.03,157.92c0-9.48-5.08-21.12-11.04-27.07-8.54-8.54-22.44-8.54-30.98,0-8.54,8.54-8.54,22.44,0,30.98,8.76,8.76,29.81,15.63,38.21,7.22,2.69-2.69,3.81-6.67,3.81-11.13Z"/>
          </g>
          <g>
            <path class="cls-2" d="M875.8,187.47c-9.44-9.44-31.96-16.66-41.4-7.22-9.44,9.44-2.21,31.96,7.22,41.4,9.44,9.44,24.74,9.44,34.18,0,9.44-9.44,9.44-24.74,0-34.18Z"/>
            <path d="M827.71,192.92c0-5.99,1.73-10.91,5.09-14.28,4.85-4.85,12.95-6.3,22.8-4.07,8.37,1.89,16.72,6.22,21.8,11.3,4.99,4.99,7.74,11.63,7.74,18.69s-2.75,13.69-7.74,18.69-11.63,7.74-18.69,7.74-13.69-2.75-18.68-7.74c-5.08-5.08-9.4-13.43-11.3-21.8-.68-3.02-1.02-5.87-1.02-8.52ZM880.61,204.55c0-5.61-2.14-11.22-6.41-15.49-8.76-8.76-29.81-15.63-38.21-7.22-3.66,3.66-4.7,10.44-2.86,18.61,1.69,7.47,5.65,15.16,10.08,19.6,8.54,8.54,22.44,8.54,30.98,0,4.27-4.27,6.41-9.88,6.41-15.49Z"/>
          </g>
        </g>
        <g>
          <polygon points="802.28 202.77 820.3 175.45 802.28 148.13 829.6 166.15 856.92 148.13 838.9 175.45 856.92 202.77 829.6 184.75 802.28 202.77"/>
          <path d="M794.34,140.19l35.26,23.26,35.26-23.26-23.26,35.26,23.26,35.26-35.26-23.26-35.26,23.26,23.26-35.26-23.26-35.26ZM823,175.45l-12.78,19.37,19.37-12.78,19.37,12.78-12.78-19.37,12.78-19.37-19.37,12.78-19.37-12.78,12.78,19.37Z"/>
        </g>
        <g>
          <circle class="cls-3" cx="829.6" cy="175.45" r="24.17"/>
          <path d="M803.51,175.45c0-6.68,2.54-13.37,7.63-18.46,10.18-10.18,26.74-10.18,36.91,0,10.18,10.18,10.18,26.74,0,36.91-10.18,10.18-26.74,10.18-36.91,0-5.09-5.09-7.63-11.77-7.63-18.46ZM851.82,175.45c0-5.69-2.17-11.39-6.5-15.72-8.67-8.67-22.77-8.67-31.44,0-8.67,8.67-8.67,22.77,0,31.44,8.67,8.67,22.77,8.67,31.44,0,4.33-4.33,6.5-10.03,6.5-15.72Z"/>
        </g>
      </g>
      <g>
        <g>
          <g>
            <path class="cls-2" d="M673.54,187.47c9.44-9.44,31.96-16.66,41.4-7.22,9.44,9.44,2.21,31.96-7.22,41.4-9.44,9.44-24.74,9.44-34.18,0-9.44-9.44-9.44-24.74,0-34.18Z"/>
            <path d="M664.2,204.55c0-7.06,2.75-13.69,7.74-18.69,5.08-5.08,13.43-9.4,21.8-11.3,9.85-2.23,17.94-.78,22.8,4.07,4.85,4.85,6.3,12.95,4.07,22.8-1.89,8.37-6.22,16.72-11.3,21.8-4.99,4.99-11.63,7.74-18.68,7.74s-13.69-2.75-18.69-7.74c-4.99-4.99-7.74-11.63-7.74-18.69ZM717.1,193c0-4.79-1.28-8.68-3.75-11.16-8.4-8.4-29.45-1.54-38.21,7.22-8.54,8.54-8.54,22.44,0,30.98,8.54,8.54,22.44,8.54,30.98,0,4.44-4.44,8.4-12.13,10.08-19.6.6-2.65.89-5.15.89-7.45Z"/>
          </g>
          <g>
            <path class="cls-2" d="M731.75,129.25c-9.44,9.44-16.66,31.96-7.22,41.4,9.44,9.44,31.96,2.21,41.4-7.22,9.44-9.44,9.44-24.74,0-34.18s-24.74-9.44-34.18,0Z"/>
            <path d="M717.84,157.97c0-2.65.34-5.5,1.02-8.52,1.89-8.37,6.22-16.72,11.3-21.8,4.99-4.99,11.63-7.74,18.68-7.74s13.69,2.75,18.69,7.74c4.99,4.99,7.74,11.63,7.74,18.69s-2.75,13.69-7.74,18.69c-5.08,5.08-13.43,9.4-21.8,11.3-9.85,2.23-17.94.78-22.8-4.07-3.36-3.36-5.09-8.29-5.09-14.28ZM770.74,146.34c0-5.61-2.14-11.22-6.41-15.49-8.54-8.54-22.44-8.54-30.98,0-8.76,8.76-15.63,29.81-7.22,38.21,8.4,8.4,29.45,1.54,38.21-7.22,4.27-4.27,6.41-9.88,6.41-15.49Z"/>
          </g>
          <g>
            <path class="cls-2" d="M707.72,129.25c9.44,9.44,16.66,31.96,7.22,41.4-9.44,9.44-31.96,2.21-41.4-7.22-9.44-9.44-9.44-24.74,0-34.18,9.44-9.44,24.74-9.44,34.18,0Z"/>
            <path d="M664.2,146.34c0-7.06,2.75-13.69,7.74-18.69,4.99-4.99,11.63-7.74,18.69-7.74s13.69,2.75,18.68,7.74c5.08,5.08,9.4,13.43,11.3,21.8,2.23,9.85.78,17.94-4.07,22.8-4.85,4.85-12.95,6.3-22.8,4.07-8.37-1.89-16.72-6.22-21.8-11.3-4.99-4.99-7.74-11.63-7.74-18.69ZM717.16,157.92c0-9.48-5.08-21.12-11.04-27.07-8.54-8.54-22.44-8.54-30.98,0-8.54,8.54-8.54,22.44,0,30.98,8.76,8.76,29.81,15.63,38.21,7.22,2.69-2.69,3.81-6.67,3.81-11.13Z"/>
          </g>
          <g>
            <path class="cls-2" d="M765.93,187.47c-9.44-9.44-31.96-16.66-41.4-7.22-9.44,9.44-2.21,31.96,7.22,41.4,9.44,9.44,24.74,9.44,34.18,0,9.44-9.44,9.44-24.74,0-34.18Z"/>
            <path d="M717.84,192.92c0-5.99,1.73-10.91,5.09-14.28,4.85-4.85,12.95-6.3,22.8-4.07,8.37,1.89,16.72,6.22,21.8,11.3,4.99,4.99,7.74,11.63,7.74,18.69s-2.75,13.69-7.74,18.69c-4.99,4.99-11.63,7.74-18.69,7.74s-13.69-2.75-18.68-7.74c-5.08-5.08-9.4-13.43-11.3-21.8-.68-3.02-1.02-5.87-1.02-8.52ZM770.74,204.55c0-5.61-2.14-11.22-6.41-15.49-8.76-8.76-29.81-15.63-38.21-7.22-3.66,3.66-4.7,10.44-2.86,18.61,1.69,7.47,5.65,15.16,10.08,19.6,8.54,8.54,22.44,8.54,30.98,0,4.27-4.27,6.41-9.88,6.41-15.49Z"/>
          </g>
        </g>
        <g>
          <polygon points="692.42 202.77 710.43 175.45 692.42 148.13 719.73 166.15 747.05 148.13 729.04 175.45 747.05 202.77 719.73 184.75 692.42 202.77"/>
          <path d="M684.47,140.19l35.26,23.26,35.26-23.26-23.26,35.26,23.26,35.26-35.26-23.26-35.26,23.26,23.26-35.26-23.26-35.26ZM713.14,175.45l-12.78,19.37,19.37-12.78,19.37,12.78-12.78-19.37,12.78-19.37-19.37,12.78-19.37-12.78,12.78,19.37Z"/>
        </g>
        <g>
          <circle class="cls-3" cx="719.73" cy="175.45" r="24.17"/>
          <path d="M693.64,175.45c0-6.68,2.54-13.37,7.63-18.46,10.18-10.18,26.74-10.18,36.91,0,10.18,10.18,10.18,26.74,0,36.91-10.18,10.18-26.74,10.18-36.91,0-5.09-5.09-7.63-11.77-7.63-18.46ZM741.96,175.45c0-5.69-2.17-11.39-6.5-15.72-8.67-8.67-22.77-8.67-31.44,0-8.67,8.67-8.67,22.77,0,31.44,8.67,8.67,22.77,8.67,31.44,0,4.33-4.33,6.5-10.03,6.5-15.72Z"/>
        </g>
      </g>
      <g>
        <g>
          <g>
            <path class="cls-2" d="M563.67,187.47c9.44-9.44,31.96-16.66,41.4-7.22,9.44,9.44,2.21,31.96-7.22,41.4-9.44,9.44-24.74,9.44-34.18,0-9.44-9.44-9.44-24.74,0-34.18Z"/>
            <path d="M554.34,204.55c0-7.06,2.75-13.69,7.74-18.69,5.08-5.08,13.43-9.4,21.8-11.3,9.85-2.23,17.94-.78,22.8,4.07,4.85,4.85,6.3,12.95,4.07,22.8-1.89,8.37-6.22,16.72-11.3,21.8-4.99,4.99-11.63,7.74-18.68,7.74s-13.69-2.75-18.69-7.74c-4.99-4.99-7.74-11.63-7.74-18.69ZM607.23,193c0-4.79-1.28-8.68-3.75-11.16-8.4-8.4-29.45-1.54-38.21,7.22-8.54,8.54-8.54,22.44,0,30.98,8.54,8.54,22.44,8.54,30.98,0,4.44-4.44,8.4-12.13,10.08-19.6.6-2.65.89-5.15.89-7.45Z"/>
          </g>
          <g>
            <path class="cls-2" d="M621.88,129.25c-9.44,9.44-16.66,31.96-7.22,41.4,9.44,9.44,31.96,2.21,41.4-7.22,9.44-9.44,9.44-24.74,0-34.18-9.44-9.44-24.74-9.44-34.18,0Z"/>
            <path d="M607.97,157.97c0-2.65.34-5.5,1.02-8.52,1.89-8.37,6.22-16.72,11.3-21.8,4.99-4.99,11.63-7.74,18.68-7.74s13.69,2.75,18.69,7.74c4.99,4.99,7.74,11.63,7.74,18.69s-2.75,13.69-7.74,18.69c-5.08,5.08-13.43,9.4-21.8,11.3-9.85,2.23-17.94.78-22.8-4.07-3.36-3.36-5.09-8.29-5.09-14.28ZM660.87,146.34c0-5.61-2.14-11.22-6.41-15.49-8.54-8.54-22.44-8.54-30.98,0-8.76,8.76-15.63,29.81-7.22,38.21,8.4,8.4,29.45,1.54,38.21-7.22,4.27-4.27,6.41-9.88,6.41-15.49Z"/>
          </g>
          <g>
            <path class="cls-2" d="M597.85,129.25c9.44,9.44,16.66,31.96,7.22,41.4-9.44,9.44-31.96,2.21-41.4-7.22-9.44-9.44-9.44-24.74,0-34.18,9.44-9.44,24.74-9.44,34.18,0Z"/>
            <path d="M554.34,146.34c0-7.06,2.75-13.69,7.74-18.69,4.99-4.99,11.63-7.74,18.69-7.74s13.69,2.75,18.68,7.74c5.08,5.08,9.4,13.43,11.3,21.8,2.23,9.85.78,17.94-4.07,22.8-4.85,4.85-12.95,6.3-22.8,4.07-8.37-1.89-16.72-6.22-21.8-11.3-4.99-4.99-7.74-11.63-7.74-18.69ZM607.29,157.92c0-9.48-5.08-21.12-11.04-27.07-8.54-8.54-22.44-8.54-30.98,0-8.54,8.54-8.54,22.44,0,30.98,8.76,8.76,29.81,15.63,38.21,7.22,2.69-2.69,3.81-6.67,3.81-11.13Z"/>
          </g>
          <g>
            <path class="cls-2" d="M656.06,187.47c-9.44-9.44-31.96-16.66-41.4-7.22-9.44,9.44-2.21,31.96,7.22,41.4,9.44,9.44,24.74,9.44,34.18,0,9.44-9.44,9.44-24.74,0-34.18Z"/>
            <path d="M607.97,192.92c0-5.99,1.73-10.91,5.09-14.28,4.85-4.85,12.95-6.3,22.8-4.07,8.37,1.89,16.72,6.22,21.8,11.3,4.99,4.99,7.74,11.63,7.74,18.69s-2.75,13.69-7.74,18.69c-4.99,4.99-11.63,7.74-18.69,7.74s-13.69-2.75-18.68-7.74c-5.08-5.08-9.4-13.43-11.3-21.8-.68-3.02-1.02-5.87-1.02-8.52ZM660.87,204.55c0-5.61-2.14-11.22-6.41-15.49-8.76-8.76-29.81-15.63-38.21-7.22-3.66,3.66-4.7,10.44-2.86,18.61,1.69,7.47,5.65,15.16,10.08,19.6,8.54,8.54,22.44,8.54,30.98,0,4.27-4.27,6.41-9.88,6.41-15.49Z"/>
          </g>
        </g>
        <g>
          <polygon points="582.55 202.77 600.57 175.45 582.55 148.13 609.87 166.15 637.18 148.13 619.17 175.45 637.18 202.77 609.87 184.75 582.55 202.77"/>
          <path d="M574.61,140.19l35.26,23.26,35.26-23.26-23.26,35.26,23.26,35.26-35.26-23.26-35.26,23.26,23.26-35.26-23.26-35.26ZM603.27,175.45l-12.78,19.37,19.37-12.78,19.37,12.78-12.78-19.37,12.78-19.37-19.37,12.78-19.37-12.78,12.78,19.37Z"/>
        </g>
        <g>
          <circle class="cls-3" cx="609.87" cy="175.45" r="24.17"/>
          <path d="M583.78,175.45c0-6.68,2.54-13.37,7.63-18.46,10.18-10.18,26.74-10.18,36.91,0,10.18,10.18,10.18,26.74,0,36.91-10.18,10.18-26.74,10.18-36.91,0-5.09-5.09-7.63-11.77-7.63-18.46ZM632.09,175.45c0-5.69-2.17-11.39-6.5-15.72-8.67-8.67-22.77-8.67-31.44,0-8.67,8.67-8.67,22.77,0,31.44,8.67,8.67,22.77,8.67,31.44,0,4.33-4.33,6.5-10.03,6.5-15.72Z"/>
        </g>
      </g>
      <g>
        <g>
          <g>
            <path class="cls-2" d="M453.8,187.47c9.44-9.44,31.96-16.66,41.4-7.22,9.44,9.44,2.21,31.96-7.22,41.4-9.44,9.44-24.74,9.44-34.18,0-9.44-9.44-9.44-24.74,0-34.18Z"/>
            <path d="M444.47,204.55c0-7.06,2.75-13.69,7.74-18.69,5.08-5.08,13.43-9.4,21.8-11.3,9.85-2.23,17.94-.78,22.8,4.07,4.85,4.85,6.3,12.95,4.07,22.8-1.89,8.37-6.22,16.72-11.3,21.8-4.99,4.99-11.63,7.74-18.68,7.74s-13.69-2.75-18.69-7.74c-4.99-4.99-7.74-11.63-7.74-18.69ZM497.36,193c0-4.79-1.28-8.68-3.75-11.16-8.4-8.4-29.45-1.54-38.21,7.22-8.54,8.54-8.54,22.44,0,30.98,8.54,8.54,22.44,8.54,30.98,0,4.44-4.44,8.4-12.13,10.08-19.6.6-2.65.89-5.15.89-7.45Z"/>
          </g>
          <g>
            <path class="cls-2" d="M512.02,129.25c-9.44,9.44-16.66,31.96-7.22,41.4,9.44,9.44,31.96,2.21,41.4-7.22,9.44-9.44,9.44-24.74,0-34.18-9.44-9.44-24.74-9.44-34.18,0Z"/>
            <path d="M498.1,157.97c0-2.65.34-5.5,1.02-8.52,1.89-8.37,6.22-16.72,11.3-21.8,4.99-4.99,11.63-7.74,18.68-7.74s13.69,2.75,18.69,7.74c4.99,4.99,7.74,11.63,7.74,18.69s-2.75,13.69-7.74,18.69c-5.08,5.08-13.43,9.4-21.8,11.3-9.85,2.23-17.94.78-22.8-4.07-3.36-3.36-5.09-8.29-5.09-14.28ZM551.01,146.34c0-5.61-2.14-11.22-6.41-15.49-8.54-8.54-22.44-8.54-30.98,0-8.76,8.76-15.63,29.81-7.22,38.21,8.4,8.4,29.45,1.54,38.21-7.22,4.27-4.27,6.41-9.88,6.41-15.49Z"/>
          </g>
          <g>
            <path class="cls-2" d="M487.98,129.25c9.44,9.44,16.66,31.96,7.22,41.4-9.44,9.44-31.96,2.21-41.4-7.22-9.44-9.44-9.44-24.74,0-34.18,9.44-9.44,24.74-9.44,34.18,0Z"/>
            <path d="M444.47,146.34c0-7.06,2.75-13.69,7.74-18.69,4.99-4.99,11.63-7.74,18.69-7.74s13.69,2.75,18.68,7.74c5.08,5.08,9.4,13.43,11.3,21.8,2.23,9.85.78,17.94-4.07,22.8-4.85,4.85-12.95,6.3-22.8,4.07-8.37-1.89-16.72-6.22-21.8-11.3-4.99-4.99-7.74-11.63-7.74-18.69ZM497.42,157.92c0-9.48-5.08-21.12-11.04-27.07-8.54-8.54-22.44-8.54-30.98,0-8.54,8.54-8.54,22.44,0,30.98,8.76,8.76,29.81,15.63,38.21,7.22,2.69-2.69,3.81-6.67,3.81-11.13Z"/>
          </g>
          <g>
            <path class="cls-2" d="M546.2,187.47c-9.44-9.44-31.96-16.66-41.4-7.22-9.44,9.44-2.21,31.96,7.22,41.4,9.44,9.44,24.74,9.44,34.18,0,9.44-9.44,9.44-24.74,0-34.18Z"/>
            <path d="M498.1,192.92c0-5.99,1.73-10.91,5.09-14.28,4.85-4.85,12.95-6.3,22.8-4.07,8.37,1.89,16.72,6.22,21.8,11.3,4.99,4.99,7.74,11.63,7.74,18.69s-2.75,13.69-7.74,18.69c-4.99,4.99-11.63,7.74-18.69,7.74s-13.69-2.75-18.68-7.74c-5.08-5.08-9.4-13.43-11.3-21.8-.68-3.02-1.02-5.87-1.02-8.52ZM551.01,204.55c0-5.61-2.14-11.22-6.41-15.49-8.76-8.76-29.81-15.63-38.21-7.22-3.66,3.66-4.7,10.44-2.86,18.61,1.69,7.47,5.65,15.16,10.08,19.6,8.54,8.54,22.44,8.54,30.98,0,4.27-4.27,6.41-9.88,6.41-15.49Z"/>
          </g>
        </g>
        <g>
          <polygon points="472.68 202.77 490.7 175.45 472.68 148.13 500 166.15 527.32 148.13 509.3 175.45 527.32 202.77 500 184.75 472.68 202.77"/>
          <path d="M464.74,140.19l35.26,23.26,35.26-23.26-23.26,35.26,23.26,35.26-35.26-23.26-35.26,23.26,23.26-35.26-23.26-35.26ZM493.4,175.45l-12.78,19.37,19.37-12.78,19.37,12.78-12.78-19.37,12.78-19.37-19.37,12.78-19.37-12.78,12.78,19.37Z"/>
        </g>
        <g>
          <circle class="cls-3" cx="500" cy="175.45" r="24.17"/>
          <path d="M473.91,175.45c0-6.68,2.54-13.37,7.63-18.46,10.18-10.18,26.74-10.18,36.91,0,10.18,10.18,10.18,26.74,0,36.91-10.18,10.18-26.74,10.18-36.91,0-5.09-5.09-7.63-11.77-7.63-18.46ZM522.22,175.45c0-5.69-2.17-11.39-6.5-15.72-8.67-8.67-22.77-8.67-31.44,0-8.67,8.67-8.67,22.77,0,31.44,8.67,8.67,22.77,8.67,31.44,0,4.33-4.33,6.5-10.03,6.5-15.72Z"/>
        </g>
      </g>
      <g>
        <g>
          <g>
            <path class="cls-2" d="M343.94,187.47c9.44-9.44,31.96-16.66,41.4-7.22,9.44,9.44,2.21,31.96-7.22,41.4-9.44,9.44-24.74,9.44-34.18,0-9.44-9.44-9.44-24.74,0-34.18Z"/>
            <path d="M334.6,204.55c0-7.06,2.75-13.69,7.74-18.69,5.08-5.08,13.43-9.4,21.8-11.3,9.85-2.23,17.94-.78,22.8,4.07,4.85,4.85,6.3,12.95,4.07,22.8-1.89,8.37-6.22,16.72-11.3,21.8-4.99,4.99-11.63,7.74-18.68,7.74s-13.69-2.75-18.69-7.74c-4.99-4.99-7.74-11.63-7.74-18.69ZM387.5,193c0-4.79-1.28-8.68-3.75-11.16-8.4-8.4-29.45-1.54-38.21,7.22-8.54,8.54-8.54,22.44,0,30.98,8.54,8.54,22.44,8.54,30.98,0,4.44-4.44,8.4-12.13,10.08-19.6.6-2.65.89-5.15.89-7.45Z"/>
          </g>
          <g>
            <path class="cls-2" d="M402.15,129.25c-9.44,9.44-16.66,31.96-7.22,41.4,9.44,9.44,31.96,2.21,41.4-7.22,9.44-9.44,9.44-24.74,0-34.18s-24.74-9.44-34.18,0Z"/>
            <path d="M388.24,157.97c0-2.65.34-5.5,1.02-8.52,1.89-8.37,6.22-16.72,11.3-21.8,4.99-4.99,11.63-7.74,18.68-7.74s13.69,2.75,18.69,7.74c4.99,4.99,7.74,11.63,7.74,18.69s-2.75,13.69-7.74,18.69c-5.08,5.08-13.43,9.4-21.8,11.3-9.85,2.23-17.94.78-22.8-4.07-3.36-3.36-5.09-8.29-5.09-14.28ZM441.14,146.34c0-5.61-2.14-11.22-6.41-15.49-8.54-8.54-22.44-8.54-30.98,0-8.76,8.76-15.63,29.81-7.22,38.21,8.4,8.4,29.45,1.54,38.21-7.22,4.27-4.27,6.41-9.88,6.41-15.49Z"/>
          </g>
          <g>
            <path class="cls-2" d="M378.12,129.25c9.44,9.44,16.66,31.96,7.22,41.4-9.44,9.44-31.96,2.21-41.4-7.22-9.44-9.44-9.44-24.74,0-34.18s24.74-9.44,34.18,0Z"/>
            <path d="M334.6,146.34c0-7.06,2.75-13.69,7.74-18.69,4.99-4.99,11.63-7.74,18.69-7.74s13.69,2.75,18.68,7.74c5.08,5.08,9.4,13.43,11.3,21.8,2.23,9.85.78,17.94-4.07,22.8-4.85,4.85-12.95,6.3-22.8,4.07-8.37-1.89-16.72-6.22-21.8-11.3-4.99-4.99-7.74-11.63-7.74-18.69ZM387.56,157.92c0-9.48-5.08-21.12-11.04-27.07-8.54-8.54-22.44-8.54-30.98,0-8.54,8.54-8.54,22.44,0,30.98,8.76,8.76,29.81,15.63,38.21,7.22,2.69-2.69,3.81-6.67,3.81-11.13Z"/>
          </g>
          <g>
            <path class="cls-2" d="M436.33,187.47c-9.44-9.44-31.96-16.66-41.4-7.22-9.44,9.44-2.21,31.96,7.22,41.4,9.44,9.44,24.74,9.44,34.18,0,9.44-9.44,9.44-24.74,0-34.18Z"/>
            <path d="M388.24,192.92c0-5.99,1.73-10.91,5.09-14.28,4.85-4.85,12.95-6.3,22.8-4.07,8.37,1.89,16.72,6.22,21.8,11.3,4.99,4.99,7.74,11.63,7.74,18.69s-2.75,13.69-7.74,18.69c-4.99,4.99-11.63,7.74-18.69,7.74s-13.69-2.75-18.68-7.74c-5.08-5.08-9.4-13.43-11.3-21.8-.68-3.02-1.02-5.87-1.02-8.52ZM441.14,204.55c0-5.61-2.14-11.22-6.41-15.49-8.76-8.76-29.81-15.63-38.21-7.22-3.66,3.66-4.7,10.44-2.86,18.61,1.69,7.47,5.65,15.16,10.08,19.6,8.54,8.54,22.44,8.54,30.98,0,4.27-4.27,6.41-9.88,6.41-15.49Z"/>
          </g>
        </g>
        <g>
          <polygon points="362.82 202.77 380.83 175.45 362.82 148.13 390.13 166.15 417.45 148.13 399.43 175.45 417.45 202.77 390.13 184.75 362.82 202.77"/>
          <path d="M354.87,140.19l35.26,23.26,35.26-23.26-23.26,35.26,23.26,35.26-35.26-23.26-35.26,23.26,23.26-35.26-23.26-35.26ZM383.54,175.45l-12.78,19.37,19.37-12.78,19.37,12.78-12.78-19.37,12.78-19.37-19.37,12.78-19.37-12.78,12.78,19.37Z"/>
        </g>
        <g>
          <circle class="cls-3" cx="390.13" cy="175.45" r="24.17"/>
          <path d="M364.04,175.45c0-6.68,2.54-13.37,7.63-18.46,10.18-10.18,26.74-10.18,36.91,0,10.18,10.18,10.18,26.74,0,36.91-10.18,10.18-26.74,10.18-36.91,0-5.09-5.09-7.63-11.77-7.63-18.46ZM412.35,175.45c0-5.69-2.17-11.39-6.5-15.72-8.67-8.67-22.77-8.67-31.44,0-8.67,8.67-8.67,22.77,0,31.44,8.67,8.67,22.77,8.67,31.44,0,4.33-4.33,6.5-10.03,6.5-15.72Z"/>
        </g>
      </g>
      <g>
        <g>
          <g>
            <path class="cls-2" d="M234.07,187.47c9.44-9.44,31.96-16.66,41.4-7.22,9.44,9.44,2.21,31.96-7.22,41.4-9.44,9.44-24.74,9.44-34.18,0-9.44-9.44-9.44-24.74,0-34.18Z"/>
            <path d="M224.73,204.55c0-7.06,2.75-13.69,7.74-18.69,5.08-5.08,13.43-9.4,21.8-11.3,9.85-2.23,17.94-.78,22.8,4.07,4.85,4.85,6.3,12.95,4.07,22.8-1.89,8.37-6.22,16.72-11.3,21.8-4.99,4.99-11.63,7.74-18.68,7.74s-13.69-2.75-18.69-7.74c-4.99-4.99-7.74-11.63-7.74-18.69ZM277.63,193c0-4.79-1.28-8.68-3.75-11.16-8.4-8.4-29.45-1.54-38.21,7.22-8.54,8.54-8.54,22.44,0,30.98,8.54,8.54,22.44,8.54,30.98,0,4.44-4.44,8.4-12.13,10.08-19.6.6-2.65.89-5.15.89-7.45Z"/>
          </g>
          <g>
            <path class="cls-2" d="M292.28,129.25c-9.44,9.44-16.66,31.96-7.22,41.4,9.44,9.44,31.96,2.21,41.4-7.22,9.44-9.44,9.44-24.74,0-34.18-9.44-9.44-24.74-9.44-34.18,0Z"/>
            <path d="M278.37,157.97c0-2.65.34-5.5,1.02-8.52,1.89-8.37,6.22-16.72,11.3-21.8,4.99-4.99,11.63-7.74,18.68-7.74s13.69,2.75,18.69,7.74c4.99,4.99,7.74,11.63,7.74,18.69s-2.75,13.69-7.74,18.69c-5.08,5.08-13.43,9.4-21.8,11.3-9.85,2.23-17.94.78-22.8-4.07-3.36-3.36-5.09-8.29-5.09-14.28ZM331.27,146.34c0-5.61-2.14-11.22-6.41-15.49-8.54-8.54-22.44-8.54-30.98,0-8.76,8.76-15.63,29.81-7.22,38.21,8.4,8.4,29.45,1.54,38.21-7.22,4.27-4.27,6.41-9.88,6.41-15.49Z"/>
          </g>
          <g>
            <path class="cls-2" d="M268.25,129.25c9.44,9.44,16.66,31.96,7.22,41.4-9.44,9.44-31.96,2.21-41.4-7.22-9.44-9.44-9.44-24.74,0-34.18,9.44-9.44,24.74-9.44,34.18,0Z"/>
            <path d="M224.73,146.34c0-7.06,2.75-13.69,7.74-18.69,4.99-4.99,11.63-7.74,18.69-7.74s13.69,2.75,18.68,7.74c5.08,5.08,9.4,13.43,11.3,21.8,2.23,9.85.78,17.94-4.07,22.8-4.85,4.85-12.95,6.3-22.8,4.07-8.37-1.89-16.72-6.22-21.8-11.3-4.99-4.99-7.74-11.63-7.74-18.69ZM277.69,157.92c0-9.48-5.08-21.12-11.04-27.07-8.54-8.54-22.44-8.54-30.98,0-8.54,8.54-8.54,22.44,0,30.98,8.76,8.76,29.81,15.63,38.21,7.22,2.69-2.69,3.81-6.67,3.81-11.13Z"/>
          </g>
          <g>
            <path class="cls-2" d="M326.46,187.47c-9.44-9.44-31.96-16.66-41.4-7.22-9.44,9.44-2.21,31.96,7.22,41.4,9.44,9.44,24.74,9.44,34.18,0,9.44-9.44,9.44-24.74,0-34.18Z"/>
            <path d="M278.37,192.92c0-5.99,1.73-10.91,5.09-14.28,4.85-4.85,12.95-6.3,22.8-4.07,8.37,1.89,16.72,6.22,21.8,11.3,4.99,4.99,7.74,11.63,7.74,18.69s-2.75,13.69-7.74,18.69c-4.99,4.99-11.63,7.74-18.69,7.74s-13.69-2.75-18.68-7.74c-5.08-5.08-9.4-13.43-11.3-21.8-.68-3.02-1.02-5.87-1.02-8.52ZM331.27,204.55c0-5.61-2.14-11.22-6.41-15.49-8.76-8.76-29.81-15.63-38.21-7.22-3.66,3.66-4.71,10.44-2.86,18.61,1.69,7.47,5.65,15.16,10.08,19.6,8.54,8.54,22.44,8.54,30.98,0,4.27-4.27,6.41-9.88,6.41-15.49Z"/>
          </g>
        </g>
        <g>
          <polygon points="252.95 202.77 270.96 175.45 252.95 148.13 280.27 166.15 307.58 148.13 289.57 175.45 307.58 202.77 280.27 184.75 252.95 202.77"/>
          <path d="M245,140.19l35.26,23.26,35.26-23.26-23.26,35.26,23.26,35.26-35.26-23.26-35.26,23.26,23.26-35.26-23.26-35.26ZM273.67,175.45l-12.78,19.37,19.37-12.78,19.37,12.78-12.78-19.37,12.78-19.37-19.37,12.78-19.37-12.78,12.78,19.37Z"/>
        </g>
        <g>
          <circle class="cls-3" cx="280.27" cy="175.45" r="24.17"/>
          <path d="M254.17,175.45c0-6.68,2.54-13.37,7.63-18.46,4.93-4.93,11.48-7.65,18.46-7.65s13.53,2.72,18.46,7.65c10.18,10.18,10.18,26.74,0,36.91-4.93,4.93-11.48,7.65-18.46,7.65s-13.53-2.72-18.46-7.65c-5.09-5.09-7.63-11.77-7.63-18.46ZM302.49,175.45c0-5.69-2.17-11.39-6.5-15.72-4.2-4.2-9.78-6.51-15.72-6.51s-11.52,2.31-15.72,6.51c-8.67,8.67-8.67,22.77,0,31.44,4.2,4.2,9.78,6.51,15.72,6.51s11.52-2.31,15.72-6.51c4.33-4.33,6.5-10.03,6.5-15.72Z"/>
        </g>
      </g>
      <g>
        <g>
          <g>
            <path class="cls-2" d="M124.2,187.47c9.44-9.44,31.96-16.66,41.4-7.22,9.44,9.44,2.21,31.96-7.22,41.4-9.44,9.44-24.74,9.44-34.18,0-9.44-9.44-9.44-24.74,0-34.18Z"/>
            <path d="M114.87,204.55c0-7.06,2.75-13.69,7.74-18.69,5.08-5.08,13.43-9.4,21.8-11.3,9.85-2.23,17.94-.78,22.8,4.07,4.85,4.85,6.3,12.95,4.07,22.8-1.89,8.37-6.22,16.72-11.3,21.8-4.99,4.99-11.63,7.74-18.68,7.74s-13.69-2.75-18.69-7.74c-4.99-4.99-7.74-11.63-7.74-18.69ZM167.76,193c0-4.79-1.28-8.68-3.75-11.16-8.4-8.4-29.45-1.54-38.21,7.22-8.54,8.54-8.54,22.44,0,30.98,8.54,8.54,22.44,8.54,30.98,0,4.44-4.44,8.4-12.13,10.08-19.6.6-2.65.89-5.15.89-7.45Z"/>
          </g>
          <g>
            <path class="cls-2" d="M182.42,129.25c-9.44,9.44-16.66,31.96-7.22,41.4,9.44,9.44,31.96,2.21,41.4-7.22,9.44-9.44,9.44-24.74,0-34.18-9.44-9.44-24.74-9.44-34.18,0Z"/>
            <path d="M168.5,157.97c0-2.65.34-5.5,1.02-8.52,1.89-8.37,6.22-16.72,11.3-21.8,4.99-4.99,11.63-7.74,18.68-7.74s13.69,2.75,18.69,7.74c4.99,4.99,7.74,11.63,7.74,18.69s-2.75,13.69-7.74,18.69c-5.08,5.08-13.43,9.4-21.8,11.3-9.85,2.23-17.94.78-22.8-4.07-3.36-3.36-5.09-8.29-5.09-14.28ZM221.4,146.34c0-5.61-2.14-11.22-6.41-15.49-8.54-8.54-22.44-8.54-30.98,0-8.76,8.76-15.63,29.81-7.22,38.21,8.4,8.4,29.45,1.54,38.21-7.22,4.27-4.27,6.41-9.88,6.41-15.49Z"/>
          </g>
          <g>
            <path class="cls-2" d="M158.38,129.25c9.44,9.44,16.66,31.96,7.22,41.4-9.44,9.44-31.96,2.21-41.4-7.22-9.44-9.44-9.44-24.74,0-34.18,9.44-9.44,24.74-9.44,34.18,0Z"/>
            <path d="M114.87,146.34c0-7.06,2.75-13.69,7.74-18.69,4.99-4.99,11.63-7.74,18.69-7.74s13.69,2.75,18.68,7.74c5.08,5.08,9.4,13.43,11.3,21.8,2.23,9.85.78,17.94-4.07,22.8-4.85,4.85-12.95,6.3-22.8,4.07-8.37-1.89-16.72-6.22-21.8-11.3-4.99-4.99-7.74-11.63-7.74-18.69ZM167.82,157.92c0-9.48-5.08-21.12-11.04-27.07-8.54-8.54-22.44-8.54-30.98,0-8.54,8.54-8.54,22.44,0,30.98,8.76,8.76,29.81,15.63,38.21,7.22,2.69-2.69,3.81-6.67,3.81-11.13Z"/>
          </g>
          <g>
            <path class="cls-2" d="M216.59,187.47c-9.44-9.44-31.96-16.66-41.4-7.22-9.44,9.44-2.21,31.96,7.22,41.4,9.44,9.44,24.74,9.44,34.18,0,9.44-9.44,9.44-24.74,0-34.18Z"/>
            <path d="M168.5,192.92c0-5.99,1.73-10.91,5.09-14.28,4.85-4.85,12.95-6.3,22.8-4.07,8.37,1.89,16.72,6.22,21.8,11.3,4.99,4.99,7.74,11.63,7.74,18.69s-2.75,13.69-7.74,18.69c-4.99,4.99-11.63,7.74-18.69,7.74s-13.69-2.75-18.68-7.74c-5.08-5.08-9.4-13.43-11.3-21.8-.68-3.02-1.02-5.87-1.02-8.52ZM221.4,204.55c0-5.61-2.14-11.22-6.41-15.49-8.76-8.76-29.81-15.63-38.21-7.22-3.66,3.66-4.71,10.44-2.86,18.61,1.69,7.47,5.65,15.16,10.08,19.6,8.54,8.54,22.44,8.54,30.98,0,4.27-4.27,6.41-9.88,6.41-15.49Z"/>
          </g>
        </g>
        <g>
          <polygon points="143.08 202.77 161.1 175.45 143.08 148.13 170.4 166.15 197.72 148.13 179.7 175.45 197.72 202.77 170.4 184.75 143.08 202.77"/>
          <path d="M135.14,140.19l35.26,23.26,35.26-23.26-23.26,35.26,23.26,35.26-35.26-23.26-35.26,23.26,23.26-35.26-23.26-35.26ZM163.8,175.45l-12.78,19.37,19.37-12.78,19.37,12.78-12.78-19.37,12.78-19.37-19.37,12.78-19.37-12.78,12.78,19.37Z"/>
        </g>
        <g>
          <circle class="cls-3" cx="170.4" cy="175.45" r="24.17"/>
          <path d="M144.31,175.45c0-6.68,2.54-13.37,7.63-18.46,4.93-4.93,11.48-7.65,18.46-7.65s13.53,2.72,18.46,7.65c10.18,10.18,10.18,26.74,0,36.91-4.93,4.93-11.48,7.65-18.46,7.65s-13.53-2.72-18.46-7.65c-5.09-5.09-7.63-11.77-7.63-18.46ZM192.62,175.45c0-5.69-2.17-11.39-6.5-15.72-4.2-4.2-9.78-6.51-15.72-6.51s-11.52,2.31-15.72,6.51c-8.67,8.67-8.67,22.77,0,31.44,4.2,4.2,9.78,6.51,15.72,6.51s11.52-2.31,15.72-6.51c4.33-4.33,6.5-10.03,6.5-15.72Z"/>
        </g>
      </g>
      <g>
        <g>
          <g>
            <path class="cls-2" d="M14.34,187.47c9.44-9.44,31.96-16.66,41.4-7.22,9.44,9.44,2.21,31.96-7.22,41.4-9.44,9.44-24.74,9.44-34.18,0-9.44-9.44-9.44-24.74,0-34.18Z"/>
            <path d="M5,204.55c0-7.06,2.75-13.69,7.74-18.69,5.08-5.08,13.43-9.4,21.8-11.3,9.85-2.23,17.94-.78,22.8,4.07,4.85,4.85,6.3,12.95,4.07,22.8-1.89,8.37-6.22,16.72-11.3,21.8-4.99,4.99-11.63,7.74-18.68,7.74s-13.69-2.75-18.69-7.74c-4.99-4.99-7.74-11.63-7.74-18.69ZM57.89,193c0-4.79-1.28-8.68-3.75-11.16-8.4-8.4-29.45-1.54-38.21,7.22-8.54,8.54-8.54,22.44,0,30.98,8.54,8.54,22.44,8.54,30.98,0,4.44-4.44,8.4-12.13,10.08-19.6.6-2.65.89-5.15.89-7.45Z"/>
          </g>
          <g>
            <path class="cls-2" d="M72.55,129.25c-9.44,9.44-16.66,31.96-7.22,41.4,9.44,9.44,31.96,2.21,41.4-7.22,9.44-9.44,9.44-24.74,0-34.18s-24.74-9.44-34.18,0Z"/>
            <path d="M58.64,157.97c0-2.65.34-5.5,1.02-8.52,1.89-8.37,6.22-16.72,11.3-21.8,4.99-4.99,11.63-7.74,18.68-7.74s13.69,2.75,18.69,7.74,7.74,11.63,7.74,18.69-2.75,13.69-7.74,18.69c-5.08,5.08-13.43,9.4-21.8,11.3-9.85,2.23-17.94.78-22.8-4.07-3.36-3.36-5.09-8.29-5.09-14.28ZM111.54,146.34c0-5.61-2.14-11.22-6.41-15.49-8.54-8.54-22.44-8.54-30.98,0-8.76,8.76-15.63,29.81-7.22,38.21,8.4,8.4,29.45,1.54,38.21-7.22,4.27-4.27,6.41-9.88,6.41-15.49Z"/>
          </g>
          <g>
            <path class="cls-2" d="M48.51,129.25c9.44,9.44,16.66,31.96,7.22,41.4-9.44,9.44-31.96,2.21-41.4-7.22-9.44-9.44-9.44-24.74,0-34.18,9.44-9.44,24.74-9.44,34.18,0Z"/>
            <path d="M5,146.34c0-7.06,2.75-13.69,7.74-18.69,4.99-4.99,11.63-7.74,18.69-7.74s13.69,2.75,18.68,7.74c5.08,5.08,9.4,13.43,11.3,21.8,2.23,9.85.78,17.94-4.07,22.8-4.85,4.85-12.95,6.3-22.8,4.07-8.37-1.89-16.72-6.22-21.8-11.3-4.99-4.99-7.74-11.63-7.74-18.69ZM57.96,157.92c0-9.48-5.08-21.12-11.04-27.07-8.54-8.54-22.44-8.54-30.98,0-8.54,8.54-8.54,22.44,0,30.98,8.76,8.76,29.81,15.63,38.21,7.22,2.69-2.69,3.81-6.67,3.81-11.13Z"/>
          </g>
          <g>
            <path class="cls-2" d="M106.73,187.47c-9.44-9.44-31.96-16.66-41.4-7.22-9.44,9.44-2.21,31.96,7.22,41.4,9.44,9.44,24.74,9.44,34.18,0,9.44-9.44,9.44-24.74,0-34.18Z"/>
            <path d="M58.64,192.92c0-5.99,1.73-10.91,5.09-14.28,4.85-4.85,12.95-6.3,22.8-4.07,8.37,1.89,16.72,6.22,21.8,11.3,4.99,4.99,7.74,11.63,7.74,18.69s-2.75,13.69-7.74,18.69-11.63,7.74-18.69,7.74-13.69-2.75-18.68-7.74c-5.08-5.08-9.4-13.43-11.3-21.8-.68-3.02-1.02-5.87-1.02-8.52ZM111.54,204.55c0-5.61-2.14-11.22-6.41-15.49-8.76-8.76-29.81-15.63-38.21-7.22-3.66,3.66-4.7,10.44-2.86,18.61,1.69,7.47,5.65,15.16,10.08,19.6,8.54,8.54,22.44,8.54,30.98,0,4.27-4.27,6.41-9.88,6.41-15.49Z"/>
          </g>
        </g>
        <g>
          <polygon points="33.21 202.77 51.23 175.45 33.21 148.13 60.53 166.15 87.85 148.13 69.83 175.45 87.85 202.77 60.53 184.75 33.21 202.77"/>
          <path d="M25.27,140.19l35.26,23.26,35.26-23.26-23.26,35.26,23.26,35.26-35.26-23.26-35.26,23.26,23.26-35.26-23.26-35.26ZM53.93,175.45l-12.78,19.37,19.37-12.78,19.37,12.78-12.78-19.37,12.78-19.37-19.37,12.78-19.37-12.78,12.78,19.37Z"/>
        </g>
        <g>
          <circle class="cls-3" cx="60.53" cy="175.45" r="24.17"/>
          <path d="M34.44,175.45c0-6.68,2.54-13.37,7.63-18.46,10.18-10.18,26.74-10.18,36.91,0,10.18,10.18,10.18,26.74,0,36.91-10.18,10.18-26.74,10.18-36.91,0-5.09-5.09-7.63-11.77-7.63-18.46ZM82.75,175.45c0-5.69-2.17-11.39-6.5-15.72-8.67-8.67-22.77-8.67-31.44,0-8.67,8.67-8.67,22.77,0,31.44,8.67,8.67,22.77,8.67,31.44,0,4.33-4.33,6.5-10.03,6.5-15.72Z"/>
        </g>
      </g>
    </g>
  </g>
</svg>