<?xml version="1.0" encoding="UTF-8"?>
<svg id="Layer_9" data-name="Layer 9" xmlns="http://www.w3.org/2000/svg" viewBox="0 0 1000 1000">
  <defs>
    <style>
      .cls-1 {
        fill: #4a1d7a;
      }

      .cls-2 {
        fill: #311463;
      }

      .cls-3 {
        fill: #110c19;
      }

      .cls-4 {
        fill: #ffb10a;
      }

      .cls-5 {
        fill: #18003b;
      }

      .cls-6 {
        fill: #2b024d;
      }

      .cls-7 {
        fill: #ffad14;
      }
    </style>
  </defs>
  <g>
    <g>
      <g>
        <g>
          <g>
            <path class="cls-7" d="M893.27,870.49c9.44-9.22,31.96-16.27,41.4-7.06,9.44,9.22,2.21,31.22-7.22,40.43s-24.74,9.22-34.18,0c-9.44-9.22-9.44-24.16,0-33.38Z"/>
            <path class="cls-5" d="M883.94,887.18c0-6.89,2.75-13.37,7.74-18.25,5.08-4.96,13.43-9.18,21.8-11.03,9.85-2.17,17.94-.76,22.8,3.98,4.85,4.74,6.3,12.64,4.07,22.26-1.89,8.17-6.22,16.33-11.3,21.29-10.3,10.06-27.07,10.06-37.37,0-4.99-4.87-7.74-11.36-7.74-18.25ZM936.89,875.87c0-4.36-1.13-8.25-3.81-10.87-8.4-8.21-29.45-1.5-38.21,7.06-8.54,8.34-8.54,21.92,0,30.26,8.54,8.34,22.44,8.34,30.98,0,5.96-5.82,11.04-17.18,11.04-26.44Z"/>
          </g>
          <g>
            <path class="cls-7" d="M951.49,813.64c-9.44,9.22-16.66,31.22-7.22,40.43s31.96,2.16,41.4-7.06c9.44-9.22,9.44-24.16,0-33.38-9.44-9.22-24.74-9.22-34.18,0Z"/>
            <path class="cls-5" d="M937.57,841.69c0-2.58.34-5.37,1.02-8.32,1.89-8.17,6.22-16.33,11.3-21.29,4.99-4.87,11.63-7.56,18.68-7.56s13.69,2.68,18.69,7.56c4.99,4.87,7.74,11.36,7.74,18.25s-2.75,13.37-7.74,18.25c-5.08,4.96-13.43,9.18-21.8,11.03-9.85,2.17-17.94.76-22.8-3.98-3.36-3.29-5.09-8.1-5.09-13.94ZM990.47,830.33c0-5.48-2.14-10.96-6.41-15.13-8.54-8.34-22.44-8.34-30.98,0-8.76,8.56-15.63,29.11-7.22,37.32,8.4,8.21,29.45,1.5,38.21-7.06,4.27-4.17,6.41-9.65,6.41-15.13Z"/>
          </g>
          <g>
            <path class="cls-7" d="M927.45,813.64c9.44,9.22,16.66,31.22,7.22,40.43-9.44,9.22-31.96,2.16-41.4-7.06-9.44-9.22-9.44-24.16,0-33.38,9.44-9.22,24.74-9.22,34.18,0Z"/>
            <path class="cls-5" d="M883.94,830.33c0-6.89,2.75-13.37,7.74-18.25,4.99-4.87,11.63-7.56,18.69-7.56s13.69,2.68,18.68,7.56c5.08,4.96,9.4,13.12,11.3,21.29,2.23,9.62.78,17.52-4.07,22.26-4.85,4.74-12.95,6.15-22.8,3.98-8.37-1.85-16.72-6.08-21.8-11.03-4.99-4.87-7.74-11.36-7.74-18.25ZM936.89,841.64c0-9.26-5.08-20.62-11.04-26.44-8.54-8.34-22.44-8.34-30.98,0-8.54,8.34-8.54,21.92,0,30.26,8.76,8.56,29.81,15.26,38.21,7.06,2.69-2.63,3.81-6.52,3.81-10.87Z"/>
          </g>
          <g>
            <path class="cls-7" d="M985.66,870.49c-9.44-9.22-31.96-16.27-41.4-7.06-9.44,9.22-2.21,31.22,7.22,40.43,9.44,9.22,24.74,9.22,34.18,0,9.44-9.22,9.44-24.16,0-33.38Z"/>
            <path class="cls-5" d="M937.57,875.82c0-5.85,1.73-10.66,5.09-13.94,4.85-4.74,12.95-6.15,22.8-3.98,8.37,1.85,16.72,6.08,21.8,11.03,4.99,4.87,7.74,11.36,7.74,18.25s-2.75,13.37-7.74,18.25c-10.3,10.06-27.07,10.06-37.37,0-5.08-4.96-9.4-13.12-11.3-21.29-.68-2.95-1.02-5.74-1.02-8.32ZM990.47,887.18c0-5.48-2.14-10.96-6.41-15.13-8.76-8.56-29.81-15.26-38.21-7.06-8.4,8.21-1.54,28.76,7.22,37.32,8.54,8.34,22.44,8.34,30.98,0,4.27-4.17,6.41-9.65,6.41-15.13Z"/>
          </g>
        </g>
        <g>
          <polygon class="cls-3" points="912.15 885.43 930.17 858.75 912.15 832.07 939.47 849.67 966.79 832.07 948.77 858.75 966.79 885.43 939.47 867.84 912.15 885.43"/>
          <path class="cls-5" d="M904.21,824.31l35.26,22.71,35.26-22.71-23.26,34.44,23.26,34.44-35.26-22.71-35.26,22.71,23.26-34.44-23.26-34.44ZM932.87,858.75l-12.78,18.92,19.37-12.48,19.37,12.48-12.78-18.92,12.78-18.92-19.37,12.48-19.37-12.48,12.78,18.92Z"/>
        </g>
        <g>
          <path class="cls-2" d="M922.38,842.06c9.44-9.22,24.74-9.22,34.18,0s9.44,24.16,0,33.38-24.74,9.22-34.18,0c-9.44-9.22-9.44-24.16,0-33.38Z"/>
          <path class="cls-5" d="M913.38,858.75c0-6.53,2.54-13.06,7.63-18.03,10.18-9.94,26.74-9.94,36.91,0,10.18,9.94,10.18,26.11,0,36.05-10.18,9.94-26.74,9.94-36.91,0-5.09-4.97-7.63-11.5-7.63-18.03ZM961.69,858.75c0-5.56-2.17-11.12-6.5-15.35-8.67-8.47-22.77-8.47-31.44,0-8.67,8.47-8.67,22.24,0,30.71,8.67,8.47,22.77,8.47,31.44,0,4.33-4.23,6.5-9.79,6.5-15.35Z"/>
        </g>
      </g>
      <g>
        <g>
          <g>
            <path class="cls-7" d="M783.41,870.49c9.44-9.22,31.96-16.27,41.4-7.06,9.44,9.22,2.21,31.22-7.22,40.43-9.44,9.22-24.74,9.22-34.18,0-9.44-9.22-9.44-24.16,0-33.38Z"/>
            <path class="cls-5" d="M774.07,887.18c0-6.89,2.75-13.37,7.74-18.25,5.08-4.96,13.43-9.18,21.8-11.03,9.85-2.17,17.94-.76,22.8,3.98,4.85,4.74,6.3,12.64,4.07,22.26-1.89,8.17-6.22,16.33-11.3,21.29-10.3,10.06-27.07,10.06-37.37,0-4.99-4.87-7.74-11.36-7.74-18.25ZM827.03,875.87c0-4.36-1.13-8.25-3.81-10.87-8.4-8.21-29.45-1.5-38.21,7.06-8.54,8.34-8.54,21.92,0,30.26,8.54,8.34,22.44,8.34,30.98,0,5.96-5.82,11.04-17.18,11.04-26.44Z"/>
          </g>
          <g>
            <path class="cls-7" d="M841.62,813.64c-9.44,9.22-16.66,31.22-7.22,40.43,9.44,9.22,31.96,2.16,41.4-7.06,9.44-9.22,9.44-24.16,0-33.38-9.44-9.22-24.74-9.22-34.18,0Z"/>
            <path class="cls-5" d="M827.71,841.69c0-2.58.34-5.37,1.02-8.32,1.89-8.17,6.22-16.33,11.3-21.29,4.99-4.87,11.63-7.56,18.68-7.56s13.69,2.68,18.69,7.56c4.99,4.87,7.74,11.36,7.74,18.25s-2.75,13.37-7.74,18.25c-5.08,4.96-13.43,9.18-21.8,11.03-9.85,2.17-17.94.76-22.8-3.98-3.36-3.29-5.09-8.1-5.09-13.94ZM880.61,830.33c0-5.48-2.14-10.96-6.41-15.13-8.54-8.34-22.44-8.34-30.98,0-8.76,8.56-15.63,29.11-7.22,37.32,8.4,8.21,29.45,1.5,38.21-7.06,4.27-4.17,6.41-9.65,6.41-15.13Z"/>
          </g>
          <g>
            <path class="cls-7" d="M817.58,813.64c9.44,9.22,16.66,31.22,7.22,40.43s-31.96,2.16-41.4-7.06c-9.44-9.22-9.44-24.16,0-33.38,9.44-9.22,24.74-9.22,34.18,0Z"/>
            <path class="cls-5" d="M774.07,830.33c0-6.89,2.75-13.37,7.74-18.25,4.99-4.87,11.63-7.56,18.69-7.56s13.69,2.68,18.68,7.56c5.08,4.96,9.4,13.12,11.3,21.29,2.23,9.62.78,17.52-4.07,22.26-4.85,4.74-12.95,6.15-22.8,3.98-8.37-1.85-16.72-6.08-21.8-11.03-4.99-4.87-7.74-11.36-7.74-18.25ZM827.03,841.64c0-9.26-5.08-20.62-11.04-26.44-8.54-8.34-22.44-8.34-30.98,0-8.54,8.34-8.54,21.92,0,30.26,8.76,8.56,29.81,15.26,38.21,7.06,2.69-2.63,3.81-6.52,3.81-10.87Z"/>
          </g>
          <g>
            <path class="cls-7" d="M875.8,870.49c-9.44-9.22-31.96-16.27-41.4-7.06-9.44,9.22-2.21,31.22,7.22,40.43s24.74,9.22,34.18,0c9.44-9.22,9.44-24.16,0-33.38Z"/>
            <path class="cls-5" d="M827.71,875.82c0-5.85,1.73-10.66,5.09-13.94,4.85-4.74,12.95-6.15,22.8-3.98,8.37,1.85,16.72,6.08,21.8,11.03,4.99,4.87,7.74,11.36,7.74,18.25s-2.75,13.37-7.74,18.25c-10.3,10.06-27.07,10.06-37.37,0-5.08-4.96-9.4-13.12-11.3-21.29-.68-2.95-1.02-5.74-1.02-8.32ZM880.61,887.18c0-5.48-2.14-10.96-6.41-15.13-8.76-8.56-29.81-15.26-38.21-7.06-8.4,8.21-1.54,28.76,7.22,37.32,8.54,8.34,22.44,8.34,30.98,0,4.27-4.17,6.41-9.65,6.41-15.13Z"/>
          </g>
        </g>
        <g>
          <polygon class="cls-3" points="802.28 885.43 820.3 858.75 802.28 832.07 829.6 849.67 856.92 832.07 838.9 858.75 856.92 885.43 829.6 867.84 802.28 885.43"/>
          <path class="cls-5" d="M794.34,824.31l35.26,22.71,35.26-22.71-23.26,34.44,23.26,34.44-35.26-22.71-35.26,22.71,23.26-34.44-23.26-34.44ZM823,858.75l-12.78,18.92,19.37-12.48,19.37,12.48-12.78-18.92,12.78-18.92-19.37,12.48-19.37-12.48,12.78,18.92Z"/>
        </g>
        <g>
          <path class="cls-2" d="M812.51,842.06c9.44-9.22,24.74-9.22,34.18,0s9.44,24.16,0,33.38c-9.44,9.22-24.74,9.22-34.18,0s-9.44-24.16,0-33.38Z"/>
          <path class="cls-5" d="M803.51,858.75c0-6.53,2.54-13.06,7.63-18.03,10.18-9.94,26.74-9.94,36.91,0,10.18,9.94,10.18,26.11,0,36.05-10.18,9.94-26.74,9.94-36.91,0-5.09-4.97-7.63-11.5-7.63-18.03ZM851.82,858.75c0-5.56-2.17-11.12-6.5-15.35-8.67-8.47-22.77-8.47-31.44,0-8.67,8.47-8.67,22.24,0,30.71,8.67,8.47,22.77,8.47,31.44,0,4.33-4.23,6.5-9.79,6.5-15.35Z"/>
        </g>
      </g>
      <g>
        <g>
          <g>
            <path class="cls-7" d="M673.54,870.49c9.44-9.22,31.96-16.27,41.4-7.06,9.44,9.22,2.21,31.22-7.22,40.43-9.44,9.22-24.74,9.22-34.18,0s-9.44-24.16,0-33.38Z"/>
            <path class="cls-5" d="M664.2,887.18c0-6.89,2.75-13.37,7.74-18.25,5.08-4.96,13.43-9.18,21.8-11.03,9.85-2.17,17.94-.76,22.8,3.98,4.85,4.74,6.3,12.64,4.07,22.26-1.89,8.17-6.22,16.33-11.3,21.29-10.3,10.06-27.07,10.06-37.37,0-4.99-4.87-7.74-11.36-7.74-18.25ZM717.16,875.87c0-4.36-1.13-8.25-3.81-10.87-8.4-8.21-29.45-1.5-38.21,7.06-8.54,8.34-8.54,21.92,0,30.26,8.54,8.34,22.44,8.34,30.98,0,5.96-5.82,11.04-17.18,11.04-26.44Z"/>
          </g>
          <g>
            <path class="cls-7" d="M731.75,813.64c-9.44,9.22-16.66,31.22-7.22,40.43s31.96,2.16,41.4-7.06,9.44-24.16,0-33.38-24.74-9.22-34.18,0Z"/>
            <path class="cls-5" d="M717.84,841.69c0-2.58.34-5.37,1.02-8.32,1.89-8.17,6.22-16.33,11.3-21.29,4.99-4.87,11.63-7.56,18.68-7.56s13.69,2.68,18.69,7.56c4.99,4.87,7.74,11.36,7.74,18.25s-2.75,13.37-7.74,18.25c-5.08,4.96-13.43,9.18-21.8,11.03-9.85,2.17-17.94.76-22.8-3.98-3.36-3.29-5.09-8.1-5.09-13.94ZM770.74,830.33c0-5.48-2.14-10.96-6.41-15.13-8.54-8.34-22.44-8.34-30.98,0-8.76,8.56-15.63,29.11-7.22,37.32,8.4,8.21,29.45,1.5,38.21-7.06,4.27-4.17,6.41-9.65,6.41-15.13Z"/>
          </g>
          <g>
            <path class="cls-7" d="M707.72,813.64c9.44,9.22,16.66,31.22,7.22,40.43-9.44,9.22-31.96,2.16-41.4-7.06s-9.44-24.16,0-33.38,24.74-9.22,34.18,0Z"/>
            <path class="cls-5" d="M664.2,830.33c0-6.89,2.75-13.37,7.74-18.25,4.99-4.87,11.63-7.56,18.69-7.56s13.69,2.68,18.68,7.56c5.08,4.96,9.4,13.12,11.3,21.29,2.23,9.62.78,17.52-4.07,22.26-4.85,4.74-12.95,6.15-22.8,3.98-8.37-1.85-16.72-6.08-21.8-11.03-4.99-4.87-7.74-11.36-7.74-18.25ZM717.16,841.64c0-9.26-5.08-20.62-11.04-26.44-8.54-8.34-22.44-8.34-30.98,0-8.54,8.34-8.54,21.92,0,30.26,8.76,8.56,29.81,15.26,38.21,7.06,2.69-2.63,3.81-6.52,3.81-10.87Z"/>
          </g>
          <g>
            <path class="cls-7" d="M765.93,870.49c-9.44-9.22-31.96-16.27-41.4-7.06-9.44,9.22-2.21,31.22,7.22,40.43s24.74,9.22,34.18,0,9.44-24.16,0-33.38Z"/>
            <path class="cls-5" d="M717.84,875.82c0-5.85,1.73-10.66,5.09-13.94,4.85-4.74,12.95-6.15,22.8-3.98,8.37,1.85,16.72,6.08,21.8,11.03,4.99,4.87,7.74,11.36,7.74,18.25s-2.75,13.37-7.74,18.25c-10.3,10.06-27.07,10.06-37.37,0-5.08-4.96-9.4-13.12-11.3-21.29-.68-2.95-1.02-5.74-1.02-8.32ZM770.74,887.18c0-5.48-2.14-10.96-6.41-15.13-8.76-8.56-29.81-15.26-38.21-7.06-8.4,8.21-1.54,28.76,7.22,37.32,8.54,8.34,22.44,8.34,30.98,0,4.27-4.17,6.41-9.65,6.41-15.13Z"/>
          </g>
        </g>
        <g>
          <polygon class="cls-3" points="692.42 885.43 710.43 858.75 692.42 832.07 719.73 849.67 747.05 832.07 729.04 858.75 747.05 885.43 719.73 867.84 692.42 885.43"/>
          <path class="cls-5" d="M684.47,824.32l35.26,22.71,35.26-22.71-23.26,34.44,23.26,34.44-35.26-22.71-35.26,22.71,23.26-34.44-23.26-34.44ZM713.14,858.75l-12.78,18.92,19.37-12.48,19.37,12.48-12.78-18.92,12.78-18.92-19.37,12.48-19.37-12.48,12.78,18.92Z"/>
        </g>
        <g>
          <path class="cls-2" d="M702.65,842.06c9.44-9.22,24.74-9.22,34.18,0,9.44,9.22,9.44,24.16,0,33.38-9.44,9.22-24.74,9.22-34.18,0s-9.44-24.16,0-33.38Z"/>
          <path class="cls-5" d="M693.64,858.75c0-6.53,2.54-13.06,7.63-18.03,10.18-9.94,26.74-9.94,36.91,0,10.18,9.94,10.18,26.11,0,36.05-10.18,9.94-26.74,9.94-36.91,0-5.09-4.97-7.63-11.5-7.63-18.03ZM741.96,858.75c0-5.56-2.17-11.12-6.5-15.35-8.67-8.47-22.77-8.47-31.44,0-8.67,8.47-8.67,22.24,0,30.71,8.67,8.47,22.77,8.47,31.44,0,4.33-4.23,6.5-9.79,6.5-15.35Z"/>
        </g>
      </g>
      <g>
        <g>
          <g>
            <path class="cls-7" d="M563.67,870.49c9.44-9.22,31.96-16.27,41.4-7.06,9.44,9.22,2.21,31.22-7.22,40.43-9.44,9.22-24.74,9.22-34.18,0-9.44-9.22-9.44-24.16,0-33.38Z"/>
            <path class="cls-5" d="M554.34,887.18c0-6.89,2.75-13.37,7.74-18.25,5.08-4.96,13.43-9.18,21.8-11.03,9.85-2.17,17.94-.76,22.8,3.98,4.85,4.74,6.3,12.64,4.07,22.26-1.89,8.17-6.22,16.33-11.3,21.29-10.3,10.06-27.07,10.06-37.37,0-4.99-4.87-7.74-11.36-7.74-18.25ZM607.29,875.87c0-4.36-1.13-8.25-3.81-10.87-8.4-8.21-29.45-1.5-38.21,7.06-8.54,8.34-8.54,21.92,0,30.26,8.54,8.34,22.44,8.34,30.98,0,5.96-5.82,11.04-17.18,11.04-26.44Z"/>
          </g>
          <g>
            <path class="cls-7" d="M621.88,813.64c-9.44,9.22-16.66,31.22-7.22,40.43s31.96,2.16,41.4-7.06c9.44-9.22,9.44-24.16,0-33.38-9.44-9.22-24.74-9.22-34.18,0Z"/>
            <path class="cls-5" d="M607.97,841.69c0-2.58.34-5.37,1.02-8.32,1.89-8.17,6.22-16.33,11.3-21.29,4.99-4.87,11.63-7.56,18.68-7.56s13.69,2.68,18.69,7.56c4.99,4.87,7.74,11.36,7.74,18.25s-2.75,13.37-7.74,18.25c-5.08,4.96-13.43,9.18-21.8,11.03-9.85,2.17-17.94.76-22.8-3.98-3.36-3.29-5.09-8.1-5.09-13.94ZM660.87,830.33c0-5.48-2.14-10.96-6.41-15.13-8.54-8.34-22.44-8.34-30.98,0-8.76,8.56-15.63,29.11-7.22,37.32,8.4,8.21,29.45,1.5,38.21-7.06,4.27-4.17,6.41-9.65,6.41-15.13Z"/>
          </g>
          <g>
            <path class="cls-7" d="M597.85,813.64c9.44,9.22,16.66,31.22,7.22,40.43-9.44,9.22-31.96,2.16-41.4-7.06s-9.44-24.16,0-33.38,24.74-9.22,34.18,0Z"/>
            <path class="cls-5" d="M554.34,830.33c0-6.89,2.75-13.37,7.74-18.25,4.99-4.87,11.63-7.56,18.69-7.56s13.69,2.68,18.68,7.56c5.08,4.96,9.4,13.12,11.3,21.29,2.23,9.62.78,17.52-4.07,22.26-4.85,4.74-12.95,6.15-22.8,3.98-8.37-1.85-16.72-6.08-21.8-11.03-4.99-4.87-7.74-11.36-7.74-18.25ZM607.29,841.64c0-9.26-5.08-20.62-11.04-26.44-8.54-8.34-22.44-8.34-30.98,0-8.54,8.34-8.54,21.92,0,30.26,8.76,8.56,29.81,15.26,38.21,7.06,2.69-2.63,3.81-6.52,3.81-10.87Z"/>
          </g>
          <g>
            <path class="cls-7" d="M656.06,870.49c-9.44-9.22-31.96-16.27-41.4-7.06-9.44,9.22-2.21,31.22,7.22,40.43s24.74,9.22,34.18,0c9.44-9.22,9.44-24.16,0-33.38Z"/>
            <path class="cls-5" d="M607.97,875.82c0-5.85,1.73-10.66,5.09-13.94,4.85-4.74,12.95-6.15,22.8-3.98,8.37,1.85,16.72,6.08,21.8,11.03,4.99,4.87,7.74,11.36,7.74,18.25s-2.75,13.37-7.74,18.25c-10.3,10.06-27.07,10.06-37.37,0-5.08-4.96-9.4-13.12-11.3-21.29-.68-2.95-1.02-5.74-1.02-8.32ZM660.87,887.18c0-5.48-2.14-10.96-6.41-15.13-8.76-8.56-29.81-15.26-38.21-7.06-8.4,8.21-1.54,28.76,7.22,37.32,8.54,8.34,22.44,8.34,30.98,0,4.27-4.17,6.41-9.65,6.41-15.13Z"/>
          </g>
        </g>
        <g>
          <polygon class="cls-3" points="582.55 885.43 600.57 858.75 582.55 832.07 609.87 849.67 637.18 832.07 619.17 858.75 637.18 885.43 609.87 867.84 582.55 885.43"/>
          <path class="cls-5" d="M574.61,824.32l35.26,22.71,35.26-22.71-23.26,34.44,23.26,34.44-35.26-22.71-35.26,22.71,23.26-34.44-23.26-34.44ZM603.27,858.75l-12.78,18.92,19.37-12.48,19.37,12.48-12.78-18.92,12.78-18.92-19.37,12.48-19.37-12.48,12.78,18.92Z"/>
        </g>
        <g>
          <path class="cls-2" d="M592.78,842.06c9.44-9.22,24.74-9.22,34.18,0,9.44,9.22,9.44,24.16,0,33.38-9.44,9.22-24.74,9.22-34.18,0-9.44-9.22-9.44-24.16,0-33.38Z"/>
          <path class="cls-5" d="M583.78,858.75c0-6.53,2.54-13.06,7.63-18.03,10.18-9.94,26.74-9.94,36.91,0,10.18,9.94,10.18,26.11,0,36.05-10.18,9.94-26.74,9.94-36.91,0-5.09-4.97-7.63-11.5-7.63-18.03ZM632.09,858.75c0-5.56-2.17-11.12-6.5-15.35-8.67-8.47-22.77-8.47-31.44,0-8.67,8.47-8.67,22.24,0,30.71,8.67,8.47,22.77,8.47,31.44,0,4.33-4.23,6.5-9.79,6.5-15.35Z"/>
        </g>
      </g>
      <g>
        <g>
          <g>
            <path class="cls-7" d="M453.8,870.49c9.44-9.22,31.96-16.27,41.4-7.06,9.44,9.22,2.21,31.22-7.22,40.43s-24.74,9.22-34.18,0-9.44-24.16,0-33.38Z"/>
            <path class="cls-5" d="M444.47,887.18c0-6.89,2.75-13.37,7.74-18.25,5.08-4.96,13.43-9.18,21.8-11.03,9.85-2.17,17.94-.76,22.8,3.98,4.85,4.74,6.3,12.64,4.07,22.26-1.89,8.17-6.22,16.33-11.3,21.29-10.3,10.06-27.07,10.06-37.37,0-4.99-4.87-7.74-11.36-7.74-18.25ZM497.42,875.87c0-4.36-1.13-8.25-3.81-10.87-8.4-8.21-29.45-1.5-38.21,7.06-8.54,8.34-8.54,21.92,0,30.26,8.54,8.34,22.44,8.34,30.98,0,5.96-5.82,11.04-17.18,11.04-26.44Z"/>
          </g>
          <g>
            <path class="cls-7" d="M512.02,813.64c-9.44,9.22-16.66,31.22-7.22,40.43,9.44,9.22,31.96,2.16,41.4-7.06s9.44-24.16,0-33.38-24.74-9.22-34.18,0Z"/>
            <path class="cls-5" d="M498.1,841.69c0-2.58.34-5.37,1.02-8.32,1.89-8.17,6.22-16.33,11.3-21.29,4.99-4.87,11.63-7.56,18.68-7.56s13.69,2.68,18.69,7.56c4.99,4.87,7.74,11.36,7.74,18.25s-2.75,13.37-7.74,18.25c-5.08,4.96-13.43,9.18-21.8,11.03-9.85,2.17-17.94.76-22.8-3.98-3.36-3.29-5.09-8.1-5.09-13.94ZM551.01,830.33c0-5.48-2.14-10.96-6.41-15.13-8.54-8.34-22.44-8.34-30.98,0-8.76,8.56-15.63,29.11-7.22,37.32,8.4,8.21,29.45,1.5,38.21-7.06,4.27-4.17,6.41-9.65,6.41-15.13Z"/>
          </g>
          <g>
            <path class="cls-7" d="M487.98,813.64c9.44,9.22,16.66,31.22,7.22,40.43-9.44,9.22-31.96,2.16-41.4-7.06s-9.44-24.16,0-33.38,24.74-9.22,34.18,0Z"/>
            <path class="cls-5" d="M444.47,830.33c0-6.89,2.75-13.37,7.74-18.25,4.99-4.87,11.63-7.56,18.69-7.56s13.69,2.68,18.68,7.56c5.08,4.96,9.4,13.12,11.3,21.29,2.23,9.62.78,17.52-4.07,22.26-4.85,4.74-12.95,6.15-22.8,3.98-8.37-1.85-16.72-6.08-21.8-11.03-4.99-4.87-7.74-11.36-7.74-18.25ZM497.42,841.64c0-9.26-5.08-20.62-11.04-26.44-8.54-8.34-22.44-8.34-30.98,0-8.54,8.34-8.54,21.92,0,30.26,8.76,8.56,29.81,15.26,38.21,7.06,2.69-2.63,3.81-6.52,3.81-10.87Z"/>
          </g>
          <g>
            <path class="cls-7" d="M546.2,870.49c-9.44-9.22-31.96-16.27-41.4-7.06-9.44,9.22-2.21,31.22,7.22,40.43s24.74,9.22,34.18,0c9.44-9.22,9.44-24.16,0-33.38Z"/>
            <path class="cls-5" d="M498.1,875.82c0-5.85,1.73-10.66,5.09-13.94,4.85-4.74,12.95-6.15,22.8-3.98,8.37,1.85,16.72,6.08,21.8,11.03,4.99,4.87,7.74,11.36,7.74,18.25s-2.75,13.37-7.74,18.25c-10.3,10.06-27.07,10.06-37.37,0-5.08-4.96-9.4-13.12-11.3-21.29-.68-2.95-1.02-5.74-1.02-8.32ZM551.01,887.18c0-5.48-2.14-10.96-6.41-15.13-8.76-8.56-29.81-15.26-38.21-7.06-8.4,8.21-1.54,28.76,7.22,37.32,8.54,8.34,22.44,8.34,30.98,0,4.27-4.17,6.41-9.65,6.41-15.13Z"/>
          </g>
        </g>
        <g>
          <polygon class="cls-3" points="472.68 885.43 490.7 858.75 472.68 832.07 500 849.67 527.32 832.07 509.3 858.75 527.32 885.43 500 867.84 472.68 885.43"/>
          <path class="cls-5" d="M464.74,824.32l35.26,22.71,35.26-22.71-23.26,34.44,23.26,34.44-35.26-22.71-35.26,22.71,23.26-34.44-23.26-34.44ZM493.4,858.75l-12.78,18.92,19.37-12.48,19.37,12.48-12.78-18.92,12.78-18.92-19.37,12.48-19.37-12.48,12.78,18.92Z"/>
        </g>
        <g>
          <path class="cls-2" d="M482.91,842.06c9.44-9.22,24.74-9.22,34.18,0,9.44,9.22,9.44,24.16,0,33.38s-24.74,9.22-34.18,0c-9.44-9.22-9.44-24.16,0-33.38Z"/>
          <path class="cls-5" d="M473.91,858.75c0-6.53,2.54-13.06,7.63-18.03,10.18-9.94,26.74-9.94,36.91,0,10.18,9.94,10.18,26.11,0,36.05-10.18,9.94-26.74,9.94-36.91,0-5.09-4.97-7.63-11.5-7.63-18.03ZM522.22,858.75c0-5.56-2.17-11.12-6.5-15.35-8.67-8.47-22.77-8.47-31.44,0-8.67,8.47-8.67,22.24,0,30.71,8.67,8.47,22.77,8.47,31.44,0,4.33-4.23,6.5-9.79,6.5-15.35Z"/>
        </g>
      </g>
      <g>
        <g>
          <g>
            <path class="cls-7" d="M343.94,870.49c9.44-9.22,31.96-16.27,41.4-7.06,9.44,9.22,2.21,31.22-7.22,40.43-9.44,9.22-24.74,9.22-34.18,0-9.44-9.22-9.44-24.16,0-33.38Z"/>
            <path class="cls-5" d="M334.6,887.18c0-6.89,2.75-13.37,7.74-18.25,5.08-4.96,13.43-9.18,21.8-11.03,9.85-2.17,17.94-.76,22.8,3.98,4.85,4.74,6.3,12.64,4.07,22.26-1.89,8.17-6.22,16.33-11.3,21.29-10.3,10.06-27.07,10.06-37.37,0-4.99-4.87-7.74-11.36-7.74-18.25ZM387.56,875.87c0-4.36-1.13-8.25-3.81-10.87-8.4-8.21-29.45-1.5-38.21,7.06-8.54,8.34-8.54,21.92,0,30.26,8.54,8.34,22.44,8.34,30.98,0,5.96-5.82,11.04-17.18,11.04-26.44Z"/>
          </g>
          <g>
            <path class="cls-7" d="M402.15,813.64c-9.44,9.22-16.66,31.22-7.22,40.43s31.96,2.16,41.4-7.06,9.44-24.16,0-33.38-24.74-9.22-34.18,0Z"/>
            <path class="cls-5" d="M388.24,841.69c0-2.58.34-5.37,1.02-8.32,1.89-8.17,6.22-16.33,11.3-21.29,4.99-4.87,11.63-7.56,18.68-7.56s13.69,2.68,18.69,7.56c4.99,4.87,7.74,11.36,7.74,18.25s-2.75,13.37-7.74,18.25c-5.08,4.96-13.43,9.18-21.8,11.03-9.85,2.17-17.94.76-22.8-3.98-3.36-3.29-5.09-8.1-5.09-13.94ZM441.14,830.33c0-5.48-2.14-10.96-6.41-15.13-8.54-8.34-22.44-8.34-30.98,0-8.76,8.56-15.63,29.11-7.22,37.32,8.4,8.21,29.45,1.5,38.21-7.06,4.27-4.17,6.41-9.65,6.41-15.13Z"/>
          </g>
          <g>
            <path class="cls-7" d="M378.12,813.64c9.44,9.22,16.66,31.22,7.22,40.43-9.44,9.22-31.96,2.16-41.4-7.06-9.44-9.22-9.44-24.16,0-33.38,9.44-9.22,24.74-9.22,34.18,0Z"/>
            <path class="cls-5" d="M334.6,830.33c0-6.89,2.75-13.37,7.74-18.25,4.99-4.87,11.63-7.56,18.69-7.56s13.69,2.68,18.68,7.56c5.08,4.96,9.4,13.12,11.3,21.29,2.23,9.62.78,17.52-4.07,22.26-4.85,4.74-12.95,6.15-22.8,3.98-8.37-1.85-16.72-6.08-21.8-11.03-4.99-4.87-7.74-11.36-7.74-18.25ZM387.56,841.64c0-9.26-5.08-20.62-11.04-26.44-8.54-8.34-22.44-8.34-30.98,0-8.54,8.34-8.54,21.92,0,30.26,8.76,8.56,29.81,15.26,38.21,7.06,2.69-2.63,3.81-6.52,3.81-10.87Z"/>
          </g>
          <g>
            <path class="cls-7" d="M436.33,870.49c-9.44-9.22-31.96-16.27-41.4-7.06-9.44,9.22-2.21,31.22,7.22,40.43,9.44,9.22,24.74,9.22,34.18,0s9.44-24.16,0-33.38Z"/>
            <path class="cls-5" d="M388.24,875.82c0-5.85,1.73-10.66,5.09-13.94,4.85-4.74,12.95-6.15,22.8-3.98,8.37,1.85,16.72,6.08,21.8,11.03,4.99,4.87,7.74,11.36,7.74,18.25s-2.75,13.37-7.74,18.25c-10.3,10.06-27.07,10.06-37.37,0-5.08-4.96-9.4-13.12-11.3-21.29-.68-2.95-1.02-5.74-1.02-8.32ZM441.14,887.18c0-5.48-2.14-10.96-6.41-15.13-8.76-8.56-29.81-15.26-38.21-7.06-8.4,8.21-1.54,28.76,7.22,37.32,8.54,8.34,22.44,8.34,30.98,0,4.27-4.17,6.41-9.65,6.41-15.13Z"/>
          </g>
        </g>
        <g>
          <polygon class="cls-3" points="362.82 885.43 380.83 858.75 362.82 832.07 390.13 849.67 417.45 832.07 399.43 858.75 417.45 885.43 390.13 867.84 362.82 885.43"/>
          <path class="cls-5" d="M354.87,824.32l35.26,22.71,35.26-22.71-23.26,34.44,23.26,34.44-35.26-22.71-35.26,22.71,23.26-34.44-23.26-34.44ZM383.54,858.75l-12.78,18.92,19.37-12.48,19.37,12.48-12.78-18.92,12.78-18.92-19.37,12.48-19.37-12.48,12.78,18.92Z"/>
        </g>
        <g>
          <path class="cls-2" d="M373.04,842.06c9.44-9.22,24.74-9.22,34.18,0,9.44,9.22,9.44,24.16,0,33.38-9.44,9.22-24.74,9.22-34.18,0s-9.44-24.16,0-33.38Z"/>
          <path class="cls-5" d="M364.04,858.75c0-6.53,2.54-13.06,7.63-18.03,10.18-9.94,26.74-9.94,36.91,0,10.18,9.94,10.18,26.11,0,36.05-10.18,9.94-26.74,9.94-36.91,0-5.09-4.97-7.63-11.5-7.63-18.03ZM412.35,858.75c0-5.56-2.17-11.12-6.5-15.35-8.67-8.47-22.77-8.47-31.44,0-8.67,8.47-8.67,22.24,0,30.71,8.67,8.47,22.77,8.47,31.44,0,4.33-4.23,6.5-9.79,6.5-15.35Z"/>
        </g>
      </g>
      <g>
        <g>
          <g>
            <path class="cls-7" d="M234.07,870.49c9.44-9.22,31.96-16.27,41.4-7.06,9.44,9.22,2.21,31.22-7.22,40.43s-24.74,9.22-34.18,0-9.44-24.16,0-33.38Z"/>
            <path class="cls-5" d="M224.73,887.18c0-6.89,2.75-13.37,7.74-18.25,5.08-4.96,13.43-9.18,21.8-11.03,9.85-2.17,17.94-.76,22.8,3.98,4.85,4.74,6.3,12.64,4.07,22.26-1.89,8.17-6.22,16.33-11.3,21.29-10.3,10.06-27.07,10.06-37.37,0-4.99-4.87-7.74-11.36-7.74-18.25ZM277.69,875.87c0-4.36-1.13-8.25-3.81-10.87-8.4-8.21-29.45-1.5-38.21,7.06-8.54,8.34-8.54,21.92,0,30.26,8.54,8.34,22.44,8.34,30.98,0,5.96-5.82,11.04-17.18,11.04-26.44Z"/>
          </g>
          <g>
            <path class="cls-7" d="M292.28,813.64c-9.44,9.22-16.66,31.22-7.22,40.43,9.44,9.22,31.96,2.16,41.4-7.06,9.44-9.22,9.44-24.16,0-33.38-9.44-9.22-24.74-9.22-34.18,0Z"/>
            <path class="cls-5" d="M278.37,841.69c0-2.58.34-5.37,1.02-8.32,1.89-8.17,6.22-16.33,11.3-21.29,4.99-4.87,11.63-7.56,18.68-7.56s13.69,2.68,18.69,7.56c4.99,4.87,7.74,11.36,7.74,18.25s-2.75,13.37-7.74,18.25c-5.08,4.96-13.43,9.18-21.8,11.03-9.85,2.17-17.94.76-22.8-3.98-3.36-3.29-5.09-8.1-5.09-13.94ZM331.27,830.33c0-5.48-2.14-10.96-6.41-15.13-8.54-8.34-22.44-8.34-30.98,0-8.76,8.56-15.63,29.11-7.22,37.32,8.4,8.21,29.45,1.5,38.21-7.06,4.27-4.17,6.41-9.65,6.41-15.13Z"/>
          </g>
          <g>
            <path class="cls-7" d="M268.25,813.64c9.44,9.22,16.66,31.22,7.22,40.43-9.44,9.22-31.96,2.16-41.4-7.06-9.44-9.22-9.44-24.16,0-33.38,9.44-9.22,24.74-9.22,34.18,0Z"/>
            <path class="cls-5" d="M224.73,830.33c0-6.89,2.75-13.37,7.74-18.25,4.99-4.87,11.63-7.56,18.69-7.56s13.69,2.68,18.68,7.56c5.08,4.96,9.4,13.12,11.3,21.29,2.23,9.62.78,17.52-4.07,22.26-4.85,4.74-12.95,6.15-22.8,3.98-8.37-1.85-16.72-6.08-21.8-11.03-4.99-4.87-7.74-11.36-7.74-18.25ZM277.69,841.64c0-9.26-5.08-20.62-11.04-26.44-8.54-8.34-22.44-8.34-30.98,0-8.54,8.34-8.54,21.92,0,30.26,8.76,8.56,29.81,15.26,38.21,7.06,2.69-2.63,3.81-6.52,3.81-10.87Z"/>
          </g>
          <g>
            <path class="cls-7" d="M326.46,870.49c-9.44-9.22-31.96-16.27-41.4-7.06-9.44,9.22-2.21,31.22,7.22,40.43s24.74,9.22,34.18,0,9.44-24.16,0-33.38Z"/>
            <path class="cls-5" d="M278.37,875.82c0-5.85,1.73-10.66,5.09-13.94,4.85-4.74,12.95-6.15,22.8-3.98,8.37,1.85,16.72,6.08,21.8,11.03,4.99,4.87,7.74,11.36,7.74,18.25s-2.75,13.37-7.74,18.25c-10.3,10.06-27.07,10.06-37.37,0-5.08-4.96-9.4-13.12-11.3-21.29-.68-2.95-1.02-5.74-1.02-8.32ZM331.27,887.18c0-5.48-2.14-10.96-6.41-15.13-8.76-8.56-29.81-15.26-38.21-7.06-8.4,8.21-1.54,28.76,7.22,37.32,8.54,8.34,22.44,8.34,30.98,0,4.27-4.17,6.41-9.65,6.41-15.13Z"/>
          </g>
        </g>
        <g>
          <polygon class="cls-3" points="252.95 885.43 270.96 858.75 252.95 832.07 280.27 849.67 307.58 832.07 289.57 858.75 307.58 885.43 280.27 867.84 252.95 885.43"/>
          <path class="cls-5" d="M245,824.32l35.26,22.71,35.26-22.71-23.26,34.44,23.26,34.44-35.26-22.71-35.26,22.71,23.26-34.44-23.26-34.44ZM273.67,858.75l-12.78,18.92,19.37-12.48,19.37,12.48-12.78-18.92,12.78-18.92-19.37,12.48-19.37-12.48,12.78,18.92Z"/>
        </g>
        <g>
          <path class="cls-2" d="M263.18,842.06c9.44-9.22,24.74-9.22,34.18,0,9.44,9.22,9.44,24.16,0,33.38s-24.74,9.22-34.18,0c-9.44-9.22-9.44-24.16,0-33.38Z"/>
          <path class="cls-5" d="M254.17,858.75c0-6.53,2.54-13.06,7.63-18.03,4.93-4.82,11.48-7.47,18.46-7.47s13.53,2.65,18.46,7.47c10.18,9.94,10.18,26.11,0,36.05-4.93,4.82-11.48,7.47-18.46,7.47s-13.53-2.65-18.46-7.47c-5.09-4.97-7.63-11.5-7.63-18.03ZM302.49,858.75c0-5.56-2.17-11.12-6.5-15.35-4.2-4.1-9.78-6.36-15.72-6.36s-11.52,2.26-15.72,6.36c-8.67,8.47-8.67,22.24,0,30.71,4.2,4.1,9.78,6.36,15.72,6.36s11.52-2.26,15.72-6.36c4.33-4.23,6.5-9.79,6.5-15.35Z"/>
        </g>
      </g>
      <g>
        <g>
          <g>
            <path class="cls-7" d="M124.2,870.49c9.44-9.22,31.96-16.27,41.4-7.06,9.44,9.22,2.21,31.22-7.22,40.43s-24.74,9.22-34.18,0c-9.44-9.22-9.44-24.16,0-33.38Z"/>
            <path class="cls-5" d="M114.87,887.18c0-6.89,2.75-13.37,7.74-18.25,5.08-4.96,13.43-9.18,21.8-11.03,9.85-2.17,17.94-.76,22.8,3.98,4.85,4.74,6.3,12.64,4.07,22.26-1.89,8.17-6.22,16.33-11.3,21.29-10.3,10.06-27.07,10.06-37.37,0-4.99-4.87-7.74-11.36-7.74-18.25ZM167.82,875.87c0-4.36-1.13-8.25-3.81-10.87-8.4-8.21-29.45-1.5-38.21,7.06-8.54,8.34-8.54,21.92,0,30.26,8.54,8.34,22.44,8.34,30.98,0,5.96-5.82,11.04-17.18,11.04-26.44Z"/>
          </g>
          <g>
            <path class="cls-7" d="M182.42,813.64c-9.44,9.22-16.66,31.22-7.22,40.43s31.96,2.16,41.4-7.06,9.44-24.16,0-33.38-24.74-9.22-34.18,0Z"/>
            <path class="cls-5" d="M168.5,841.69c0-2.58.34-5.37,1.02-8.32,1.89-8.17,6.22-16.33,11.3-21.29,4.99-4.87,11.63-7.56,18.68-7.56s13.69,2.68,18.69,7.56c4.99,4.87,7.74,11.36,7.74,18.25s-2.75,13.37-7.74,18.25c-5.08,4.96-13.43,9.18-21.8,11.03-9.85,2.17-17.94.76-22.8-3.98-3.36-3.29-5.09-8.1-5.09-13.94ZM221.4,830.33c0-5.48-2.14-10.96-6.41-15.13-8.54-8.34-22.44-8.34-30.98,0-8.76,8.56-15.63,29.11-7.22,37.32,8.4,8.21,29.45,1.5,38.21-7.06,4.27-4.17,6.41-9.65,6.41-15.13Z"/>
          </g>
          <g>
            <path class="cls-7" d="M158.38,813.64c9.44,9.22,16.66,31.22,7.22,40.43s-31.96,2.16-41.4-7.06-9.44-24.16,0-33.38,24.74-9.22,34.18,0Z"/>
            <path class="cls-5" d="M114.87,830.33c0-6.89,2.75-13.37,7.74-18.25,4.99-4.87,11.63-7.56,18.69-7.56s13.69,2.68,18.68,7.56c5.08,4.96,9.4,13.12,11.3,21.29,2.23,9.62.78,17.52-4.07,22.26-4.85,4.74-12.95,6.15-22.8,3.98-8.37-1.85-16.72-6.08-21.8-11.03-4.99-4.87-7.74-11.36-7.74-18.25ZM167.82,841.64c0-9.26-5.08-20.62-11.04-26.44-8.54-8.34-22.44-8.34-30.98,0-8.54,8.34-8.54,21.92,0,30.26,8.76,8.56,29.81,15.26,38.21,7.06,2.69-2.63,3.81-6.52,3.81-10.87Z"/>
          </g>
          <g>
            <path class="cls-7" d="M216.59,870.49c-9.44-9.22-31.96-16.27-41.4-7.06-9.44,9.22-2.21,31.22,7.22,40.43,9.44,9.22,24.74,9.22,34.18,0,9.44-9.22,9.44-24.16,0-33.38Z"/>
            <path class="cls-5" d="M168.5,875.82c0-5.85,1.73-10.66,5.09-13.94,4.85-4.74,12.95-6.15,22.8-3.98,8.37,1.85,16.72,6.08,21.8,11.03,4.99,4.87,7.74,11.36,7.74,18.25s-2.75,13.37-7.74,18.25c-10.3,10.06-27.07,10.06-37.37,0-5.08-4.96-9.4-13.12-11.3-21.29-.68-2.95-1.02-5.74-1.02-8.32ZM221.4,887.18c0-5.48-2.14-10.96-6.41-15.13-8.76-8.56-29.81-15.26-38.21-7.06-8.4,8.21-1.54,28.76,7.22,37.32,8.54,8.34,22.44,8.34,30.98,0,4.27-4.17,6.41-9.65,6.41-15.13Z"/>
          </g>
        </g>
        <g>
          <polygon class="cls-3" points="143.08 885.43 161.1 858.75 143.08 832.07 170.4 849.67 197.72 832.07 179.7 858.75 197.72 885.43 170.4 867.84 143.08 885.43"/>
          <path class="cls-5" d="M135.14,824.32l35.26,22.71,35.26-22.71-23.26,34.44,23.26,34.44-35.26-22.71-35.26,22.71,23.26-34.44-23.26-34.44ZM163.8,858.75l-12.78,18.92,19.37-12.48,19.37,12.48-12.78-18.92,12.78-18.92-19.37,12.48-19.37-12.48,12.78,18.92Z"/>
        </g>
        <g>
          <path class="cls-2" d="M153.31,842.06c9.44-9.22,24.74-9.22,34.18,0,9.44,9.22,9.44,24.16,0,33.38s-24.74,9.22-34.18,0-9.44-24.16,0-33.38Z"/>
          <path class="cls-5" d="M144.31,858.75c0-6.53,2.54-13.06,7.63-18.03,4.93-4.82,11.48-7.47,18.46-7.47s13.53,2.65,18.46,7.47c10.18,9.94,10.18,26.11,0,36.05-4.93,4.82-11.48,7.47-18.46,7.47s-13.53-2.65-18.46-7.47c-5.09-4.97-7.63-11.5-7.63-18.03ZM192.62,858.75c0-5.56-2.17-11.12-6.5-15.35-4.2-4.1-9.78-6.36-15.72-6.36s-11.52,2.26-15.72,6.36c-8.67,8.47-8.67,22.24,0,30.71,4.2,4.1,9.78,6.36,15.72,6.36s11.52-2.26,15.72-6.36c4.33-4.23,6.5-9.79,6.5-15.35Z"/>
        </g>
      </g>
      <g>
        <g>
          <g>
            <path class="cls-7" d="M14.34,870.49c9.44-9.22,31.96-16.27,41.4-7.06,9.44,9.22,2.21,31.22-7.22,40.43-9.44,9.22-24.74,9.22-34.18,0s-9.44-24.16,0-33.38Z"/>
            <path class="cls-5" d="M5,887.18c0-6.89,2.75-13.37,7.74-18.25,5.08-4.96,13.43-9.18,21.8-11.03,9.85-2.17,17.94-.76,22.8,3.98,4.85,4.74,6.3,12.64,4.07,22.26-1.89,8.17-6.22,16.33-11.3,21.29-10.3,10.06-27.07,10.06-37.37,0-4.99-4.87-7.74-11.36-7.74-18.25ZM57.96,875.87c0-4.36-1.13-8.25-3.81-10.87-8.4-8.21-29.45-1.5-38.21,7.06-8.54,8.34-8.54,21.92,0,30.26,8.54,8.34,22.44,8.34,30.98,0,5.96-5.82,11.04-17.18,11.04-26.44Z"/>
          </g>
          <g>
            <path class="cls-7" d="M72.55,813.64c-9.44,9.22-16.66,31.22-7.22,40.43,9.44,9.22,31.96,2.16,41.4-7.06,9.44-9.22,9.44-24.16,0-33.38s-24.74-9.22-34.18,0Z"/>
            <path class="cls-5" d="M58.64,841.69c0-2.58.34-5.37,1.02-8.32,1.89-8.17,6.22-16.33,11.3-21.29,4.99-4.87,11.63-7.56,18.68-7.56s13.69,2.68,18.69,7.56c4.99,4.87,7.74,11.36,7.74,18.25s-2.75,13.37-7.74,18.25c-5.08,4.96-13.43,9.18-21.8,11.03-9.85,2.17-17.94.76-22.8-3.98-3.36-3.29-5.09-8.1-5.09-13.94ZM111.54,830.33c0-5.48-2.14-10.96-6.41-15.13-8.54-8.34-22.44-8.34-30.98,0-8.76,8.56-15.63,29.11-7.22,37.32,8.4,8.21,29.45,1.5,38.21-7.06,4.27-4.17,6.41-9.65,6.41-15.13Z"/>
          </g>
          <g>
            <path class="cls-7" d="M48.51,813.64c9.44,9.22,16.66,31.22,7.22,40.43-9.44,9.22-31.96,2.16-41.4-7.06s-9.44-24.16,0-33.38,24.74-9.22,34.18,0Z"/>
            <path class="cls-5" d="M5,830.33c0-6.89,2.75-13.37,7.74-18.25,4.99-4.87,11.63-7.56,18.69-7.56s13.69,2.68,18.68,7.56c5.08,4.96,9.4,13.12,11.3,21.29,2.23,9.62.78,17.52-4.07,22.26-4.85,4.74-12.95,6.15-22.8,3.98-8.37-1.85-16.72-6.08-21.8-11.03-4.99-4.87-7.74-11.36-7.74-18.25ZM57.96,841.64c0-9.26-5.08-20.62-11.04-26.44-8.54-8.34-22.44-8.34-30.98,0-8.54,8.34-8.54,21.92,0,30.26,8.76,8.56,29.81,15.26,38.21,7.06,2.69-2.63,3.81-6.52,3.81-10.87Z"/>
          </g>
          <g>
            <path class="cls-7" d="M106.73,870.49c-9.44-9.22-31.96-16.27-41.4-7.06-9.44,9.22-2.21,31.22,7.22,40.43s24.74,9.22,34.18,0c9.44-9.22,9.44-24.16,0-33.38Z"/>
            <path class="cls-5" d="M58.64,875.82c0-5.85,1.73-10.66,5.09-13.94,4.85-4.74,12.95-6.15,22.8-3.98,8.37,1.85,16.72,6.08,21.8,11.03,4.99,4.87,7.74,11.36,7.74,18.25s-2.75,13.37-7.74,18.25c-10.3,10.06-27.07,10.06-37.37,0-5.08-4.96-9.4-13.12-11.3-21.29-.68-2.95-1.02-5.74-1.02-8.32ZM111.54,887.18c0-5.48-2.14-10.96-6.41-15.13-8.76-8.56-29.81-15.26-38.21-7.06-8.4,8.21-1.54,28.76,7.22,37.32,8.54,8.34,22.44,8.34,30.98,0,4.27-4.17,6.41-9.65,6.41-15.13Z"/>
          </g>
        </g>
        <g>
          <polygon class="cls-3" points="33.21 885.43 51.23 858.75 33.21 832.07 60.53 849.67 87.85 832.07 69.83 858.75 87.85 885.43 60.53 867.84 33.21 885.43"/>
          <path class="cls-5" d="M25.27,824.32l35.26,22.71,35.26-22.71-23.26,34.44,23.26,34.44-35.26-22.71-35.26,22.71,23.26-34.44-23.26-34.44ZM53.93,858.75l-12.78,18.92,19.37-12.48,19.37,12.48-12.78-18.92,12.78-18.92-19.37,12.48-19.37-12.48,12.78,18.92Z"/>
        </g>
        <g>
          <path class="cls-2" d="M43.44,842.06c9.44-9.22,24.74-9.22,34.18,0,9.44,9.22,9.44,24.16,0,33.38-9.44,9.22-24.74,9.22-34.18,0s-9.44-24.16,0-33.38Z"/>
          <path class="cls-5" d="M34.44,858.75c0-6.53,2.54-13.06,7.63-18.03,10.18-9.94,26.74-9.94,36.91,0,10.18,9.94,10.18,26.11,0,36.05-10.18,9.94-26.74,9.94-36.91,0-5.09-4.97-7.63-11.5-7.63-18.03ZM82.75,858.75c0-5.56-2.17-11.12-6.5-15.35-8.67-8.47-22.77-8.47-31.44,0-8.67,8.47-8.67,22.24,0,30.71,8.67,8.47,22.77,8.47,31.44,0,4.33-4.23,6.5-9.79,6.5-15.35Z"/>
        </g>
      </g>
    </g>
    <g>
      <g>
        <g>
          <g>
            <path class="cls-7" d="M893.27,152.99c9.44-9.22,31.96-16.27,41.4-7.05,9.44,9.22,2.21,31.21-7.22,40.43s-24.74,9.22-34.18,0c-9.44-9.22-9.44-24.16,0-33.37Z"/>
            <path class="cls-5" d="M883.94,169.68c0-6.89,2.75-13.37,7.74-18.25,5.08-4.96,13.43-9.18,21.8-11.03,9.85-2.17,17.94-.76,22.8,3.98,4.85,4.74,6.3,12.64,4.07,22.26-1.89,8.17-6.22,16.33-11.3,21.29-4.99,4.87-11.63,7.56-18.68,7.56s-13.69-2.68-18.69-7.56c-4.99-4.87-7.74-11.35-7.74-18.25ZM936.83,158.39c0-4.67-1.28-8.48-3.75-10.9-8.4-8.2-29.45-1.5-38.21,7.05-8.54,8.34-8.54,21.91,0,30.26,8.54,8.34,22.44,8.34,30.98,0,4.44-4.33,8.4-11.85,10.08-19.14.6-2.58.89-5.03.89-7.27Z"/>
          </g>
          <g>
            <path class="cls-7" d="M951.49,96.14c-9.44,9.22-16.66,31.21-7.22,40.43,9.44,9.22,31.96,2.16,41.4-7.05,9.44-9.22,9.44-24.16,0-33.37-9.44-9.22-24.74-9.22-34.18,0Z"/>
            <path class="cls-5" d="M937.57,124.19c0-2.58.34-5.37,1.02-8.32,1.89-8.17,6.22-16.33,11.3-21.29,4.99-4.87,11.63-7.56,18.68-7.56s13.69,2.68,18.69,7.56c4.99,4.87,7.74,11.35,7.74,18.25s-2.75,13.37-7.74,18.25c-5.08,4.96-13.43,9.18-21.8,11.03-9.85,2.17-17.94.76-22.8-3.98-3.36-3.29-5.09-8.09-5.09-13.94ZM990.47,112.83c0-5.48-2.14-10.96-6.41-15.13-8.54-8.34-22.44-8.34-30.98,0-8.76,8.56-15.63,29.11-7.22,37.31,8.4,8.2,29.45,1.5,38.21-7.05,4.27-4.17,6.41-9.65,6.41-15.13Z"/>
          </g>
          <g>
            <path class="cls-7" d="M927.45,96.14c9.44,9.22,16.66,31.21,7.22,40.43-9.44,9.22-31.96,2.16-41.4-7.05-9.44-9.22-9.44-24.16,0-33.37,9.44-9.22,24.74-9.22,34.18,0Z"/>
            <path class="cls-5" d="M883.94,112.83c0-6.89,2.75-13.37,7.74-18.25,4.99-4.87,11.63-7.56,18.69-7.56s13.69,2.68,18.68,7.56c5.08,4.96,9.4,13.11,11.3,21.29,2.23,9.62.78,17.52-4.07,22.26-4.85,4.74-12.95,6.15-22.8,3.98-8.37-1.85-16.72-6.07-21.8-11.03-4.99-4.87-7.74-11.35-7.74-18.25ZM936.89,124.14c0-9.26-5.08-20.62-11.04-26.44-8.54-8.34-22.44-8.34-30.98,0-8.54,8.34-8.54,21.91,0,30.26,8.76,8.56,29.81,15.26,38.21,7.05,2.69-2.63,3.81-6.52,3.81-10.87Z"/>
          </g>
          <g>
            <path class="cls-7" d="M985.66,152.99c-9.44-9.22-31.96-16.27-41.4-7.05s-2.21,31.21,7.22,40.43c9.44,9.22,24.74,9.22,34.18,0,9.44-9.22,9.44-24.16,0-33.37Z"/>
            <path class="cls-5" d="M937.57,158.32c0-5.85,1.73-10.66,5.09-13.94,4.85-4.74,12.95-6.15,22.8-3.98,8.37,1.85,16.72,6.07,21.8,11.03,4.99,4.87,7.74,11.35,7.74,18.25s-2.75,13.37-7.74,18.25c-4.99,4.87-11.63,7.56-18.69,7.56s-13.69-2.68-18.68-7.56c-5.08-4.96-9.4-13.11-11.3-21.29-.68-2.95-1.02-5.73-1.02-8.32ZM990.47,169.68c0-5.48-2.14-10.96-6.41-15.13-8.76-8.56-29.81-15.26-38.21-7.05-3.66,3.58-4.7,10.2-2.86,18.17,1.69,7.29,5.65,14.81,10.08,19.14,8.54,8.34,22.44,8.34,30.98,0,4.27-4.17,6.41-9.65,6.41-15.13Z"/>
          </g>
        </g>
        <g>
          <polygon class="cls-3" points="912.15 167.93 930.17 141.25 912.15 114.58 939.47 132.17 966.79 114.58 948.77 141.25 966.79 167.93 939.47 150.34 912.15 167.93"/>
          <path class="cls-5" d="M904.21,106.82l35.26,22.71,35.26-22.71-23.26,34.43,23.26,34.43-35.26-22.71-35.26,22.71,23.26-34.43-23.26-34.43ZM932.87,141.25l-12.78,18.92,19.37-12.48,19.37,12.48-12.78-18.92,12.78-18.92-19.37,12.48-19.37-12.48,12.78,18.92Z"/>
        </g>
        <g>
          <path class="cls-2" d="M922.38,124.57c9.44-9.22,24.74-9.22,34.18,0s9.44,24.16,0,33.37c-9.44,9.22-24.74,9.22-34.18,0-9.44-9.22-9.44-24.16,0-33.37Z"/>
          <path class="cls-5" d="M913.38,141.25c0-6.53,2.54-13.05,7.63-18.02,10.18-9.94,26.74-9.94,36.91,0,10.18,9.94,10.18,26.11,0,36.05-10.18,9.94-26.74,9.94-36.91,0-5.09-4.97-7.63-11.5-7.63-18.02ZM961.69,141.25c0-5.56-2.17-11.12-6.5-15.35-8.67-8.46-22.77-8.46-31.44,0-8.67,8.46-8.67,22.24,0,30.7,8.67,8.46,22.77,8.46,31.44,0,4.33-4.23,6.5-9.79,6.5-15.35Z"/>
        </g>
      </g>
      <g>
        <g>
          <g>
            <path class="cls-7" d="M783.41,152.99c9.44-9.22,31.96-16.27,41.4-7.05,9.44,9.22,2.21,31.21-7.22,40.43-9.44,9.22-24.74,9.22-34.18,0-9.44-9.22-9.44-24.16,0-33.37Z"/>
            <path class="cls-5" d="M774.07,169.68c0-6.89,2.75-13.37,7.74-18.25,5.08-4.96,13.43-9.18,21.8-11.03,9.85-2.17,17.94-.76,22.8,3.98,4.85,4.74,6.3,12.64,4.07,22.26-1.89,8.17-6.22,16.33-11.3,21.29-4.99,4.87-11.63,7.56-18.68,7.56s-13.69-2.68-18.69-7.56c-4.99-4.87-7.74-11.35-7.74-18.25ZM826.96,158.39c0-4.67-1.28-8.48-3.75-10.9-8.4-8.2-29.45-1.5-38.21,7.05-8.54,8.34-8.54,21.91,0,30.26,8.54,8.34,22.44,8.34,30.98,0,4.44-4.33,8.4-11.85,10.08-19.14.6-2.58.89-5.03.89-7.27Z"/>
          </g>
          <g>
            <path class="cls-7" d="M841.62,96.14c-9.44,9.22-16.66,31.21-7.22,40.43,9.44,9.22,31.96,2.16,41.4-7.05,9.44-9.22,9.44-24.16,0-33.37-9.44-9.22-24.74-9.22-34.18,0Z"/>
            <path class="cls-5" d="M827.71,124.19c0-2.58.34-5.37,1.02-8.32,1.89-8.17,6.22-16.33,11.3-21.29,4.99-4.87,11.63-7.56,18.68-7.56s13.69,2.68,18.69,7.56c4.99,4.87,7.74,11.35,7.74,18.25s-2.75,13.37-7.74,18.25c-5.08,4.96-13.43,9.18-21.8,11.03-9.85,2.17-17.94.76-22.8-3.98-3.36-3.29-5.09-8.09-5.09-13.94ZM880.61,112.83c0-5.48-2.14-10.96-6.41-15.13-8.54-8.34-22.44-8.34-30.98,0-8.76,8.56-15.63,29.11-7.22,37.31,8.4,8.2,29.45,1.5,38.21-7.05,4.27-4.17,6.41-9.65,6.41-15.13Z"/>
          </g>
          <g>
            <path class="cls-7" d="M817.58,96.14c9.44,9.22,16.66,31.21,7.22,40.43-9.44,9.22-31.96,2.16-41.4-7.05-9.44-9.22-9.44-24.16,0-33.37,9.44-9.22,24.74-9.22,34.18,0Z"/>
            <path class="cls-5" d="M774.07,112.83c0-6.89,2.75-13.37,7.74-18.25,4.99-4.87,11.63-7.56,18.69-7.56s13.69,2.68,18.68,7.56c5.08,4.96,9.4,13.11,11.3,21.29,2.23,9.62.78,17.52-4.07,22.26-4.85,4.74-12.95,6.15-22.8,3.98-8.37-1.85-16.72-6.07-21.8-11.03-4.99-4.87-7.74-11.35-7.74-18.25ZM827.03,124.14c0-9.26-5.08-20.62-11.04-26.44-8.54-8.34-22.44-8.34-30.98,0-8.54,8.34-8.54,21.91,0,30.26,8.76,8.56,29.81,15.26,38.21,7.05,2.69-2.63,3.81-6.52,3.81-10.87Z"/>
          </g>
          <g>
            <path class="cls-7" d="M875.8,152.99c-9.44-9.22-31.96-16.27-41.4-7.05-9.44,9.22-2.21,31.21,7.22,40.43s24.74,9.22,34.18,0c9.44-9.22,9.44-24.16,0-33.37Z"/>
            <path class="cls-5" d="M827.71,158.32c0-5.85,1.73-10.66,5.09-13.94,4.85-4.74,12.95-6.15,22.8-3.98,8.37,1.85,16.72,6.07,21.8,11.03,4.99,4.87,7.74,11.35,7.74,18.25s-2.75,13.37-7.74,18.25c-4.99,4.87-11.63,7.56-18.69,7.56s-13.69-2.68-18.68-7.56c-5.08-4.96-9.4-13.11-11.3-21.29-.68-2.95-1.02-5.73-1.02-8.32ZM880.61,169.68c0-5.48-2.14-10.96-6.41-15.13-8.76-8.56-29.81-15.26-38.21-7.05-3.66,3.58-4.7,10.2-2.86,18.17,1.69,7.29,5.65,14.81,10.08,19.14,8.54,8.34,22.44,8.34,30.98,0,4.27-4.17,6.41-9.65,6.41-15.13Z"/>
          </g>
        </g>
        <g>
          <polygon class="cls-3" points="802.28 167.93 820.3 141.25 802.28 114.58 829.6 132.17 856.92 114.58 838.9 141.25 856.92 167.93 829.6 150.34 802.28 167.93"/>
          <path class="cls-5" d="M794.34,106.82l35.26,22.71,35.26-22.71-23.26,34.43,23.26,34.43-35.26-22.71-35.26,22.71,23.26-34.43-23.26-34.43ZM823,141.25l-12.78,18.92,19.37-12.48,19.37,12.48-12.78-18.92,12.78-18.92-19.37,12.48-19.37-12.48,12.78,18.92Z"/>
        </g>
        <g>
          <path class="cls-2" d="M812.51,124.57c9.44-9.22,24.74-9.22,34.18,0s9.44,24.16,0,33.37c-9.44,9.22-24.74,9.22-34.18,0-9.44-9.22-9.44-24.16,0-33.37Z"/>
          <path class="cls-5" d="M803.51,141.25c0-6.53,2.54-13.05,7.63-18.02,10.18-9.94,26.74-9.94,36.91,0,10.18,9.94,10.18,26.11,0,36.05-10.18,9.94-26.74,9.94-36.91,0-5.09-4.97-7.63-11.5-7.63-18.02ZM851.82,141.25c0-5.56-2.17-11.12-6.5-15.35-8.67-8.46-22.77-8.46-31.44,0-8.67,8.46-8.67,22.24,0,30.7,8.67,8.46,22.77,8.46,31.44,0,4.33-4.23,6.5-9.79,6.5-15.35Z"/>
        </g>
      </g>
      <g>
        <g>
          <g>
            <path class="cls-7" d="M673.54,152.99c9.44-9.22,31.96-16.27,41.4-7.05s2.21,31.21-7.22,40.43c-9.44,9.22-24.74,9.22-34.18,0s-9.44-24.16,0-33.37Z"/>
            <path class="cls-5" d="M664.2,169.68c0-6.89,2.75-13.37,7.74-18.25,5.08-4.96,13.43-9.18,21.8-11.03,9.85-2.17,17.94-.76,22.8,3.98,4.85,4.74,6.3,12.64,4.07,22.26-1.89,8.17-6.22,16.33-11.3,21.29-4.99,4.87-11.63,7.56-18.68,7.56s-13.69-2.68-18.69-7.56c-4.99-4.87-7.74-11.35-7.74-18.25ZM717.1,158.39c0-4.67-1.28-8.48-3.75-10.9-8.4-8.2-29.45-1.5-38.21,7.05-8.54,8.34-8.54,21.91,0,30.26,8.54,8.34,22.44,8.34,30.98,0,4.44-4.33,8.4-11.85,10.08-19.14.6-2.58.89-5.03.89-7.27Z"/>
          </g>
          <g>
            <path class="cls-7" d="M731.75,96.14c-9.44,9.22-16.66,31.21-7.22,40.43,9.44,9.22,31.96,2.16,41.4-7.05s9.44-24.16,0-33.37-24.74-9.22-34.18,0Z"/>
            <path class="cls-5" d="M717.84,124.19c0-2.58.34-5.37,1.02-8.32,1.89-8.17,6.22-16.33,11.3-21.29,4.99-4.87,11.63-7.56,18.68-7.56s13.69,2.68,18.69,7.56c4.99,4.87,7.74,11.35,7.74,18.25s-2.75,13.37-7.74,18.25c-5.08,4.96-13.43,9.18-21.8,11.03-9.85,2.17-17.94.76-22.8-3.98-3.36-3.29-5.09-8.09-5.09-13.94ZM770.74,112.83c0-5.48-2.14-10.96-6.41-15.13-8.54-8.34-22.44-8.34-30.98,0-8.76,8.56-15.63,29.11-7.22,37.31,8.4,8.2,29.45,1.5,38.21-7.05,4.27-4.17,6.41-9.65,6.41-15.13Z"/>
          </g>
          <g>
            <path class="cls-7" d="M707.72,96.14c9.44,9.22,16.66,31.21,7.22,40.43-9.44,9.22-31.96,2.16-41.4-7.05s-9.44-24.16,0-33.37,24.74-9.22,34.18,0Z"/>
            <path class="cls-5" d="M664.2,112.83c0-6.89,2.75-13.37,7.74-18.25,4.99-4.87,11.63-7.56,18.69-7.56s13.69,2.68,18.68,7.56c5.08,4.96,9.4,13.11,11.3,21.29,2.23,9.62.78,17.52-4.07,22.26-4.85,4.74-12.95,6.15-22.8,3.98-8.37-1.85-16.72-6.07-21.8-11.03-4.99-4.87-7.74-11.35-7.74-18.25ZM717.16,124.14c0-9.26-5.08-20.62-11.04-26.44-8.54-8.34-22.44-8.34-30.98,0-8.54,8.34-8.54,21.91,0,30.26,8.76,8.56,29.81,15.26,38.21,7.05,2.69-2.63,3.81-6.52,3.81-10.87Z"/>
          </g>
          <g>
            <path class="cls-7" d="M765.93,152.99c-9.44-9.22-31.96-16.27-41.4-7.05s-2.21,31.21,7.22,40.43,24.74,9.22,34.18,0,9.44-24.16,0-33.37Z"/>
            <path class="cls-5" d="M717.84,158.32c0-5.85,1.73-10.66,5.09-13.94,4.85-4.74,12.95-6.15,22.8-3.98,8.37,1.85,16.72,6.07,21.8,11.03,4.99,4.87,7.74,11.35,7.74,18.25s-2.75,13.37-7.74,18.25c-4.99,4.87-11.63,7.56-18.69,7.56s-13.69-2.68-18.68-7.56c-5.08-4.96-9.4-13.11-11.3-21.29-.68-2.95-1.02-5.73-1.02-8.32ZM770.74,169.68c0-5.48-2.14-10.96-6.41-15.13-8.76-8.56-29.81-15.26-38.21-7.05-3.66,3.58-4.7,10.2-2.86,18.17,1.69,7.29,5.65,14.81,10.08,19.14,8.54,8.34,22.44,8.34,30.98,0,4.27-4.17,6.41-9.65,6.41-15.13Z"/>
          </g>
        </g>
        <g>
          <polygon class="cls-3" points="692.42 167.93 710.43 141.25 692.42 114.58 719.73 132.17 747.05 114.58 729.04 141.25 747.05 167.93 719.73 150.34 692.42 167.93"/>
          <path class="cls-5" d="M684.47,106.82l35.26,22.71,35.26-22.71-23.26,34.43,23.26,34.43-35.26-22.71-35.26,22.71,23.26-34.43-23.26-34.43ZM713.14,141.25l-12.78,18.92,19.37-12.48,19.37,12.48-12.78-18.92,12.78-18.92-19.37,12.48-19.37-12.48,12.78,18.92Z"/>
        </g>
        <g>
          <path class="cls-2" d="M702.65,124.57c9.44-9.22,24.74-9.22,34.18,0,9.44,9.22,9.44,24.16,0,33.37-9.44,9.22-24.74,9.22-34.18,0-9.44-9.22-9.44-24.16,0-33.37Z"/>
          <path class="cls-5" d="M693.64,141.25c0-6.53,2.54-13.05,7.63-18.02,10.18-9.94,26.74-9.94,36.91,0,10.18,9.94,10.18,26.11,0,36.05-10.18,9.94-26.74,9.94-36.91,0-5.09-4.97-7.63-11.5-7.63-18.02ZM741.96,141.25c0-5.56-2.17-11.12-6.5-15.35-8.67-8.46-22.77-8.46-31.44,0-8.67,8.46-8.67,22.24,0,30.7,8.67,8.46,22.77,8.46,31.44,0,4.33-4.23,6.5-9.79,6.5-15.35Z"/>
        </g>
      </g>
      <g>
        <g>
          <g>
            <path class="cls-7" d="M563.67,152.99c9.44-9.22,31.96-16.27,41.4-7.05s2.21,31.21-7.22,40.43c-9.44,9.22-24.74,9.22-34.18,0-9.44-9.22-9.44-24.16,0-33.37Z"/>
            <path class="cls-5" d="M554.34,169.68c0-6.89,2.75-13.37,7.74-18.25,5.08-4.96,13.43-9.18,21.8-11.03,9.85-2.17,17.94-.76,22.8,3.98,4.85,4.74,6.3,12.64,4.07,22.26-1.89,8.17-6.22,16.33-11.3,21.29-4.99,4.87-11.63,7.56-18.68,7.56s-13.69-2.68-18.69-7.56c-4.99-4.87-7.74-11.35-7.74-18.25ZM607.23,158.39c0-4.67-1.28-8.48-3.75-10.9-8.4-8.2-29.45-1.5-38.21,7.05-8.54,8.34-8.54,21.91,0,30.26,8.54,8.34,22.44,8.34,30.98,0,4.44-4.33,8.4-11.85,10.08-19.14.6-2.58.89-5.03.89-7.27Z"/>
          </g>
          <g>
            <path class="cls-7" d="M621.88,96.14c-9.44,9.22-16.66,31.21-7.22,40.43,9.44,9.22,31.96,2.16,41.4-7.05,9.44-9.22,9.44-24.16,0-33.37-9.44-9.22-24.74-9.22-34.18,0Z"/>
            <path class="cls-5" d="M607.97,124.19c0-2.58.34-5.37,1.02-8.32,1.89-8.17,6.22-16.33,11.3-21.29,4.99-4.87,11.63-7.56,18.68-7.56s13.69,2.68,18.69,7.56c4.99,4.87,7.74,11.35,7.74,18.25s-2.75,13.37-7.74,18.25c-5.08,4.96-13.43,9.18-21.8,11.03-9.85,2.17-17.94.76-22.8-3.98-3.36-3.29-5.09-8.09-5.09-13.94ZM660.87,112.83c0-5.48-2.14-10.96-6.41-15.13-8.54-8.34-22.44-8.34-30.98,0-8.76,8.56-15.63,29.11-7.22,37.31,8.4,8.2,29.45,1.5,38.21-7.05,4.27-4.17,6.41-9.65,6.41-15.13Z"/>
          </g>
          <g>
            <path class="cls-7" d="M597.85,96.14c9.44,9.22,16.66,31.21,7.22,40.43-9.44,9.22-31.96,2.16-41.4-7.05s-9.44-24.16,0-33.37,24.74-9.22,34.18,0Z"/>
            <path class="cls-5" d="M554.34,112.83c0-6.89,2.75-13.37,7.74-18.25,4.99-4.87,11.63-7.56,18.69-7.56s13.69,2.68,18.68,7.56c5.08,4.96,9.4,13.11,11.3,21.29,2.23,9.62.78,17.52-4.07,22.26-4.85,4.74-12.95,6.15-22.8,3.98-8.37-1.85-16.72-6.07-21.8-11.03-4.99-4.87-7.74-11.35-7.74-18.25ZM607.29,124.14c0-9.26-5.08-20.62-11.04-26.44-8.54-8.34-22.44-8.34-30.98,0-8.54,8.34-8.54,21.91,0,30.26,8.76,8.56,29.81,15.26,38.21,7.05,2.69-2.63,3.81-6.52,3.81-10.87Z"/>
          </g>
          <g>
            <path class="cls-7" d="M656.06,152.99c-9.44-9.22-31.96-16.27-41.4-7.05s-2.21,31.21,7.22,40.43,24.74,9.22,34.18,0c9.44-9.22,9.44-24.16,0-33.37Z"/>
            <path class="cls-5" d="M607.97,158.32c0-5.85,1.73-10.66,5.09-13.94,4.85-4.74,12.95-6.15,22.8-3.98,8.37,1.85,16.72,6.07,21.8,11.03,4.99,4.87,7.74,11.35,7.74,18.25s-2.75,13.37-7.74,18.25c-4.99,4.87-11.63,7.56-18.69,7.56s-13.69-2.68-18.68-7.56c-5.08-4.96-9.4-13.11-11.3-21.29-.68-2.95-1.02-5.73-1.02-8.32ZM660.87,169.68c0-5.48-2.14-10.96-6.41-15.13-8.76-8.56-29.81-15.26-38.21-7.05-3.66,3.58-4.7,10.2-2.86,18.17,1.69,7.29,5.65,14.81,10.08,19.14,8.54,8.34,22.44,8.34,30.98,0,4.27-4.17,6.41-9.65,6.41-15.13Z"/>
          </g>
        </g>
        <g>
          <polygon class="cls-3" points="582.55 167.93 600.57 141.25 582.55 114.58 609.87 132.17 637.18 114.58 619.17 141.25 637.18 167.93 609.87 150.34 582.55 167.93"/>
          <path class="cls-5" d="M574.61,106.82l35.26,22.71,35.26-22.71-23.26,34.43,23.26,34.43-35.26-22.71-35.26,22.71,23.26-34.43-23.26-34.43ZM603.27,141.25l-12.78,18.92,19.37-12.48,19.37,12.48-12.78-18.92,12.78-18.92-19.37,12.48-19.37-12.48,12.78,18.92Z"/>
        </g>
        <g>
          <path class="cls-2" d="M592.78,124.57c9.44-9.22,24.74-9.22,34.18,0,9.44,9.22,9.44,24.16,0,33.37-9.44,9.22-24.74,9.22-34.18,0-9.44-9.22-9.44-24.16,0-33.37Z"/>
          <path class="cls-5" d="M583.78,141.25c0-6.53,2.54-13.05,7.63-18.02,10.18-9.94,26.74-9.94,36.91,0s10.18,26.11,0,36.05c-10.18,9.94-26.74,9.94-36.91,0-5.09-4.97-7.63-11.5-7.63-18.02ZM632.09,141.25c0-5.56-2.17-11.12-6.5-15.35-8.67-8.46-22.77-8.46-31.44,0-8.67,8.46-8.67,22.24,0,30.7,8.67,8.46,22.77,8.46,31.44,0,4.33-4.23,6.5-9.79,6.5-15.35Z"/>
        </g>
      </g>
      <g>
        <g>
          <g>
            <path class="cls-7" d="M453.8,152.99c9.44-9.22,31.96-16.27,41.4-7.05,9.44,9.22,2.21,31.21-7.22,40.43s-24.74,9.22-34.18,0-9.44-24.16,0-33.37Z"/>
            <path class="cls-5" d="M444.47,169.68c0-6.89,2.75-13.37,7.74-18.25,5.08-4.96,13.43-9.18,21.8-11.03,9.85-2.17,17.94-.76,22.8,3.98,4.85,4.74,6.3,12.64,4.07,22.26-1.89,8.17-6.22,16.33-11.3,21.29-4.99,4.87-11.63,7.56-18.68,7.56s-13.69-2.68-18.69-7.56c-4.99-4.87-7.74-11.35-7.74-18.25ZM497.36,158.39c0-4.67-1.28-8.48-3.75-10.9-8.4-8.2-29.45-1.5-38.21,7.05-8.54,8.34-8.54,21.91,0,30.26,8.54,8.34,22.44,8.34,30.98,0,4.44-4.33,8.4-11.85,10.08-19.14.6-2.58.89-5.03.89-7.27Z"/>
          </g>
          <g>
            <path class="cls-7" d="M512.02,96.14c-9.44,9.22-16.66,31.21-7.22,40.43,9.44,9.22,31.96,2.16,41.4-7.05s9.44-24.16,0-33.37-24.74-9.22-34.18,0Z"/>
            <path class="cls-5" d="M498.1,124.19c0-2.58.34-5.37,1.02-8.32,1.89-8.17,6.22-16.33,11.3-21.29,4.99-4.87,11.63-7.56,18.68-7.56s13.69,2.68,18.69,7.56c4.99,4.87,7.74,11.35,7.74,18.25s-2.75,13.37-7.74,18.25c-5.08,4.96-13.43,9.18-21.8,11.03-9.85,2.17-17.94.76-22.8-3.98-3.36-3.29-5.09-8.09-5.09-13.94ZM551.01,112.83c0-5.48-2.14-10.96-6.41-15.13-8.54-8.34-22.44-8.34-30.98,0-8.76,8.56-15.63,29.11-7.22,37.31,8.4,8.2,29.45,1.5,38.21-7.05,4.27-4.17,6.41-9.65,6.41-15.13Z"/>
          </g>
          <g>
            <path class="cls-7" d="M487.98,96.14c9.44,9.22,16.66,31.21,7.22,40.43-9.44,9.22-31.96,2.16-41.4-7.05s-9.44-24.16,0-33.37,24.74-9.22,34.18,0Z"/>
            <path class="cls-5" d="M444.47,112.83c0-6.89,2.75-13.37,7.74-18.25,4.99-4.87,11.63-7.56,18.69-7.56s13.69,2.68,18.68,7.56c5.08,4.96,9.4,13.11,11.3,21.29,2.23,9.62.78,17.52-4.07,22.26-4.85,4.74-12.95,6.15-22.8,3.98-8.37-1.85-16.72-6.07-21.8-11.03-4.99-4.87-7.74-11.35-7.74-18.25ZM497.42,124.14c0-9.26-5.08-20.62-11.04-26.44-8.54-8.34-22.44-8.34-30.98,0-8.54,8.34-8.54,21.91,0,30.26,8.76,8.56,29.81,15.26,38.21,7.05,2.69-2.63,3.81-6.52,3.81-10.87Z"/>
          </g>
          <g>
            <path class="cls-7" d="M546.2,152.99c-9.44-9.22-31.96-16.27-41.4-7.05-9.44,9.22-2.21,31.21,7.22,40.43s24.74,9.22,34.18,0c9.44-9.22,9.44-24.16,0-33.37Z"/>
            <path class="cls-5" d="M498.1,158.32c0-5.85,1.73-10.66,5.09-13.94,4.85-4.74,12.95-6.15,22.8-3.98,8.37,1.85,16.72,6.07,21.8,11.03,4.99,4.87,7.74,11.35,7.74,18.25s-2.75,13.37-7.74,18.25c-4.99,4.87-11.63,7.56-18.69,7.56s-13.69-2.68-18.68-7.56c-5.08-4.96-9.4-13.11-11.3-21.29-.68-2.95-1.02-5.73-1.02-8.32ZM551.01,169.68c0-5.48-2.14-10.96-6.41-15.13-8.76-8.56-29.81-15.26-38.21-7.05-3.66,3.58-4.7,10.2-2.86,18.17,1.69,7.29,5.65,14.81,10.08,19.14,8.54,8.34,22.44,8.34,30.98,0,4.27-4.17,6.41-9.65,6.41-15.13Z"/>
          </g>
        </g>
        <g>
          <polygon class="cls-3" points="472.68 167.93 490.7 141.25 472.68 114.58 500 132.17 527.32 114.58 509.3 141.25 527.32 167.93 500 150.34 472.68 167.93"/>
          <path class="cls-5" d="M464.74,106.82l35.26,22.71,35.26-22.71-23.26,34.43,23.26,34.43-35.26-22.71-35.26,22.71,23.26-34.43-23.26-34.43ZM493.4,141.25l-12.78,18.92,19.37-12.48,19.37,12.48-12.78-18.92,12.78-18.92-19.37,12.48-19.37-12.48,12.78,18.92Z"/>
        </g>
        <g>
          <path class="cls-2" d="M482.91,124.57c9.44-9.22,24.74-9.22,34.18,0,9.44,9.22,9.44,24.16,0,33.37-9.44,9.22-24.74,9.22-34.18,0-9.44-9.22-9.44-24.16,0-33.37Z"/>
          <path class="cls-5" d="M473.91,141.25c0-6.53,2.54-13.05,7.63-18.02,10.18-9.94,26.74-9.94,36.91,0s10.18,26.11,0,36.05c-10.18,9.94-26.74,9.94-36.91,0-5.09-4.97-7.63-11.5-7.63-18.02ZM522.22,141.25c0-5.56-2.17-11.12-6.5-15.35-8.67-8.46-22.77-8.46-31.44,0-8.67,8.46-8.67,22.24,0,30.7,8.67,8.46,22.77,8.46,31.44,0,4.33-4.23,6.5-9.79,6.5-15.35Z"/>
        </g>
      </g>
      <g>
        <g>
          <g>
            <path class="cls-7" d="M343.94,152.99c9.44-9.22,31.96-16.27,41.4-7.05,9.44,9.22,2.21,31.21-7.22,40.43-9.44,9.22-24.74,9.22-34.18,0-9.44-9.22-9.44-24.16,0-33.37Z"/>
            <path class="cls-5" d="M334.6,169.68c0-6.89,2.75-13.37,7.74-18.25,5.08-4.96,13.43-9.18,21.8-11.03,9.85-2.17,17.94-.76,22.8,3.98,4.85,4.74,6.3,12.64,4.07,22.26-1.89,8.17-6.22,16.33-11.3,21.29-4.99,4.87-11.63,7.56-18.68,7.56s-13.69-2.68-18.69-7.56c-4.99-4.87-7.74-11.35-7.74-18.25ZM387.5,158.39c0-4.67-1.28-8.48-3.75-10.9-8.4-8.2-29.45-1.5-38.21,7.05-8.54,8.34-8.54,21.91,0,30.26,8.54,8.34,22.44,8.34,30.98,0,4.44-4.33,8.4-11.85,10.08-19.14.6-2.58.89-5.03.89-7.27Z"/>
          </g>
          <g>
            <path class="cls-7" d="M402.15,96.14c-9.44,9.22-16.66,31.21-7.22,40.43,9.44,9.22,31.96,2.16,41.4-7.05s9.44-24.16,0-33.37-24.74-9.22-34.18,0Z"/>
            <path class="cls-5" d="M388.24,124.19c0-2.58.34-5.37,1.02-8.32,1.89-8.17,6.22-16.33,11.3-21.29,4.99-4.87,11.63-7.56,18.68-7.56s13.69,2.68,18.69,7.56c4.99,4.87,7.74,11.35,7.74,18.25s-2.75,13.37-7.74,18.25c-5.08,4.96-13.43,9.18-21.8,11.03-9.85,2.17-17.94.76-22.8-3.98-3.36-3.29-5.09-8.09-5.09-13.94ZM441.14,112.83c0-5.48-2.14-10.96-6.41-15.13-8.54-8.34-22.44-8.34-30.98,0-8.76,8.56-15.63,29.11-7.22,37.31,8.4,8.2,29.45,1.5,38.21-7.05,4.27-4.17,6.41-9.65,6.41-15.13Z"/>
          </g>
          <g>
            <path class="cls-7" d="M378.12,96.14c9.44,9.22,16.66,31.21,7.22,40.43-9.44,9.22-31.96,2.16-41.4-7.05-9.44-9.22-9.44-24.16,0-33.37,9.44-9.22,24.74-9.22,34.18,0Z"/>
            <path class="cls-5" d="M334.6,112.83c0-6.89,2.75-13.37,7.74-18.25,4.99-4.87,11.63-7.56,18.69-7.56s13.69,2.68,18.68,7.56c5.08,4.96,9.4,13.11,11.3,21.29,2.23,9.62.78,17.52-4.07,22.26-4.85,4.74-12.95,6.15-22.8,3.98-8.37-1.85-16.72-6.07-21.8-11.03-4.99-4.87-7.74-11.35-7.74-18.25ZM387.56,124.14c0-9.26-5.08-20.62-11.04-26.44-8.54-8.34-22.44-8.34-30.98,0-8.54,8.34-8.54,21.91,0,30.26,8.76,8.56,29.81,15.26,38.21,7.05,2.69-2.63,3.81-6.52,3.81-10.87Z"/>
          </g>
          <g>
            <path class="cls-7" d="M436.33,152.99c-9.44-9.22-31.96-16.27-41.4-7.05s-2.21,31.21,7.22,40.43c9.44,9.22,24.74,9.22,34.18,0s9.44-24.16,0-33.37Z"/>
            <path class="cls-5" d="M388.24,158.32c0-5.85,1.73-10.66,5.09-13.94,4.85-4.74,12.95-6.15,22.8-3.98,8.37,1.85,16.72,6.07,21.8,11.03,4.99,4.87,7.74,11.35,7.74,18.25s-2.75,13.37-7.74,18.25c-4.99,4.87-11.63,7.56-18.69,7.56s-13.69-2.68-18.68-7.56c-5.08-4.96-9.4-13.11-11.3-21.29-.68-2.95-1.02-5.73-1.02-8.32ZM441.14,169.68c0-5.48-2.14-10.96-6.41-15.13-8.76-8.56-29.81-15.26-38.21-7.05-3.66,3.58-4.7,10.2-2.86,18.17,1.69,7.29,5.65,14.81,10.08,19.14,8.54,8.34,22.44,8.34,30.98,0,4.27-4.17,6.41-9.65,6.41-15.13Z"/>
          </g>
        </g>
        <g>
          <polygon class="cls-3" points="362.82 167.93 380.83 141.25 362.82 114.58 390.13 132.17 417.45 114.58 399.43 141.25 417.45 167.93 390.13 150.34 362.82 167.93"/>
          <path class="cls-5" d="M354.87,106.82l35.26,22.71,35.26-22.71-23.26,34.43,23.26,34.43-35.26-22.71-35.26,22.71,23.26-34.43-23.26-34.43ZM383.54,141.25l-12.78,18.92,19.37-12.48,19.37,12.48-12.78-18.92,12.78-18.92-19.37,12.48-19.37-12.48,12.78,18.92Z"/>
        </g>
        <g>
          <path class="cls-2" d="M373.04,124.57c9.44-9.22,24.74-9.22,34.18,0,9.44,9.22,9.44,24.16,0,33.37-9.44,9.22-24.74,9.22-34.18,0-9.44-9.22-9.44-24.16,0-33.37Z"/>
          <path class="cls-5" d="M364.04,141.25c0-6.53,2.54-13.05,7.63-18.02,10.18-9.94,26.74-9.94,36.91,0,10.18,9.94,10.18,26.11,0,36.05-10.18,9.94-26.74,9.94-36.91,0-5.09-4.97-7.63-11.5-7.63-18.02ZM412.35,141.25c0-5.56-2.17-11.12-6.5-15.35-8.67-8.46-22.77-8.46-31.44,0-8.67,8.46-8.67,22.24,0,30.7,8.67,8.46,22.77,8.46,31.44,0,4.33-4.23,6.5-9.79,6.5-15.35Z"/>
        </g>
      </g>
      <g>
        <g>
          <g>
            <path class="cls-7" d="M234.07,152.99c9.44-9.22,31.96-16.27,41.4-7.05,9.44,9.22,2.21,31.21-7.22,40.43s-24.74,9.22-34.18,0-9.44-24.16,0-33.37Z"/>
            <path class="cls-5" d="M224.73,169.68c0-6.89,2.75-13.37,7.74-18.25,5.08-4.96,13.43-9.18,21.8-11.03,9.85-2.17,17.94-.76,22.8,3.98,4.85,4.74,6.3,12.64,4.07,22.26-1.89,8.17-6.22,16.33-11.3,21.29-4.99,4.87-11.63,7.56-18.68,7.56s-13.69-2.68-18.69-7.56c-4.99-4.87-7.74-11.35-7.74-18.25ZM277.63,158.39c0-4.67-1.28-8.48-3.75-10.9-8.4-8.2-29.45-1.5-38.21,7.05-8.54,8.34-8.54,21.91,0,30.26,8.54,8.34,22.44,8.34,30.98,0,4.44-4.33,8.4-11.85,10.08-19.14.6-2.58.89-5.03.89-7.27Z"/>
          </g>
          <g>
            <path class="cls-7" d="M292.28,96.14c-9.44,9.22-16.66,31.21-7.22,40.43,9.44,9.22,31.96,2.16,41.4-7.05,9.44-9.22,9.44-24.16,0-33.37-9.44-9.22-24.74-9.22-34.18,0Z"/>
            <path class="cls-5" d="M278.37,124.19c0-2.58.34-5.37,1.02-8.32,1.89-8.17,6.22-16.33,11.3-21.29,4.99-4.87,11.63-7.56,18.68-7.56s13.69,2.68,18.69,7.56c4.99,4.87,7.74,11.35,7.74,18.25s-2.75,13.37-7.74,18.25c-5.08,4.96-13.43,9.18-21.8,11.03-9.85,2.17-17.94.76-22.8-3.98-3.36-3.29-5.09-8.09-5.09-13.94ZM331.27,112.83c0-5.48-2.14-10.96-6.41-15.13-8.54-8.34-22.44-8.34-30.98,0-8.76,8.56-15.63,29.11-7.22,37.31,8.4,8.2,29.45,1.5,38.21-7.05,4.27-4.17,6.41-9.65,6.41-15.13Z"/>
          </g>
          <g>
            <path class="cls-7" d="M268.25,96.14c9.44,9.22,16.66,31.21,7.22,40.43-9.44,9.22-31.96,2.16-41.4-7.05-9.44-9.22-9.44-24.16,0-33.37,9.44-9.22,24.74-9.22,34.18,0Z"/>
            <path class="cls-5" d="M224.73,112.83c0-6.89,2.75-13.37,7.74-18.25,4.99-4.87,11.63-7.56,18.69-7.56s13.69,2.68,18.68,7.56c5.08,4.96,9.4,13.11,11.3,21.29,2.23,9.62.78,17.52-4.07,22.26-4.85,4.74-12.95,6.15-22.8,3.98-8.37-1.85-16.72-6.07-21.8-11.03-4.99-4.87-7.74-11.35-7.74-18.25ZM277.69,124.14c0-9.26-5.08-20.62-11.04-26.44-8.54-8.34-22.44-8.34-30.98,0-8.54,8.34-8.54,21.91,0,30.26,8.76,8.56,29.81,15.26,38.21,7.05,2.69-2.63,3.81-6.52,3.81-10.87Z"/>
          </g>
          <g>
            <path class="cls-7" d="M326.46,152.99c-9.44-9.22-31.96-16.27-41.4-7.05-9.44,9.22-2.21,31.21,7.22,40.43s24.74,9.22,34.18,0,9.44-24.16,0-33.37Z"/>
            <path class="cls-5" d="M278.37,158.32c0-5.85,1.73-10.66,5.09-13.94,4.85-4.74,12.95-6.15,22.8-3.98,8.37,1.85,16.72,6.07,21.8,11.03,4.99,4.87,7.74,11.35,7.74,18.25s-2.75,13.37-7.74,18.25c-4.99,4.87-11.63,7.56-18.69,7.56s-13.69-2.68-18.68-7.56c-5.08-4.96-9.4-13.11-11.3-21.29-.68-2.95-1.02-5.73-1.02-8.32ZM331.27,169.68c0-5.48-2.14-10.96-6.41-15.13-8.76-8.56-29.81-15.26-38.21-7.05-3.66,3.58-4.71,10.2-2.86,18.17,1.69,7.29,5.65,14.81,10.08,19.14,8.54,8.34,22.44,8.34,30.98,0,4.27-4.17,6.41-9.65,6.41-15.13Z"/>
          </g>
        </g>
        <g>
          <polygon class="cls-3" points="252.95 167.93 270.96 141.25 252.95 114.58 280.27 132.17 307.58 114.58 289.57 141.25 307.58 167.93 280.27 150.34 252.95 167.93"/>
          <path class="cls-5" d="M245,106.82l35.26,22.71,35.26-22.71-23.26,34.43,23.26,34.43-35.26-22.71-35.26,22.71,23.26-34.43-23.26-34.43ZM273.67,141.25l-12.78,18.92,19.37-12.48,19.37,12.48-12.78-18.92,12.78-18.92-19.37,12.48-19.37-12.48,12.78,18.92Z"/>
        </g>
        <g>
          <path class="cls-2" d="M263.18,124.57c9.44-9.22,24.74-9.22,34.18,0,9.44,9.22,9.44,24.16,0,33.37-9.44,9.22-24.74,9.22-34.18,0-9.44-9.22-9.44-24.16,0-33.37Z"/>
          <path class="cls-5" d="M254.17,141.25c0-6.53,2.54-13.05,7.63-18.02,4.93-4.81,11.48-7.47,18.46-7.47s13.53,2.65,18.46,7.47c10.18,9.94,10.18,26.11,0,36.05-4.93,4.81-11.48,7.47-18.46,7.47s-13.53-2.65-18.46-7.47c-5.09-4.97-7.63-11.5-7.63-18.02ZM302.49,141.25c0-5.56-2.17-11.12-6.5-15.35-4.2-4.1-9.78-6.36-15.72-6.36s-11.52,2.26-15.72,6.36c-8.67,8.46-8.67,22.24,0,30.7,4.2,4.1,9.78,6.36,15.72,6.36s11.52-2.26,15.72-6.36c4.33-4.23,6.5-9.79,6.5-15.35Z"/>
        </g>
      </g>
      <g>
        <g>
          <g>
            <path class="cls-7" d="M124.2,152.99c9.44-9.22,31.96-16.27,41.4-7.05s2.21,31.21-7.22,40.43-24.74,9.22-34.18,0c-9.44-9.22-9.44-24.16,0-33.37Z"/>
            <path class="cls-5" d="M114.87,169.68c0-6.89,2.75-13.37,7.74-18.25,5.08-4.96,13.43-9.18,21.8-11.03,9.85-2.17,17.94-.76,22.8,3.98,4.85,4.74,6.3,12.64,4.07,22.26-1.89,8.17-6.22,16.33-11.3,21.29-4.99,4.87-11.63,7.56-18.68,7.56s-13.69-2.68-18.69-7.56c-4.99-4.87-7.74-11.35-7.74-18.25ZM167.76,158.39c0-4.67-1.28-8.48-3.75-10.9-8.4-8.2-29.45-1.5-38.21,7.05-8.54,8.34-8.54,21.91,0,30.26,8.54,8.34,22.44,8.34,30.98,0,4.44-4.33,8.4-11.85,10.08-19.14.6-2.58.89-5.03.89-7.27Z"/>
          </g>
          <g>
            <path class="cls-7" d="M182.42,96.14c-9.44,9.22-16.66,31.21-7.22,40.43,9.44,9.22,31.96,2.16,41.4-7.05s9.44-24.16,0-33.37-24.74-9.22-34.18,0Z"/>
            <path class="cls-5" d="M168.5,124.19c0-2.58.34-5.37,1.02-8.32,1.89-8.17,6.22-16.33,11.3-21.29,4.99-4.87,11.63-7.56,18.68-7.56s13.69,2.68,18.69,7.56c4.99,4.87,7.74,11.35,7.74,18.25s-2.75,13.37-7.74,18.25c-5.08,4.96-13.43,9.18-21.8,11.03-9.85,2.17-17.94.76-22.8-3.98-3.36-3.29-5.09-8.09-5.09-13.94ZM221.4,112.83c0-5.48-2.14-10.96-6.41-15.13-8.54-8.34-22.44-8.34-30.98,0-8.76,8.56-15.63,29.11-7.22,37.31,8.4,8.2,29.45,1.5,38.21-7.05,4.27-4.17,6.41-9.65,6.41-15.13Z"/>
          </g>
          <g>
            <path class="cls-7" d="M158.38,96.14c9.44,9.22,16.66,31.21,7.22,40.43-9.44,9.22-31.96,2.16-41.4-7.05s-9.44-24.16,0-33.37,24.74-9.22,34.18,0Z"/>
            <path class="cls-5" d="M114.87,112.83c0-6.89,2.75-13.37,7.74-18.25,4.99-4.87,11.63-7.56,18.69-7.56s13.69,2.68,18.68,7.56c5.08,4.96,9.4,13.11,11.3,21.29,2.23,9.62.78,17.52-4.07,22.26-4.85,4.74-12.95,6.15-22.8,3.98-8.37-1.85-16.72-6.07-21.8-11.03-4.99-4.87-7.74-11.35-7.74-18.25ZM167.82,124.14c0-9.26-5.08-20.62-11.04-26.44-8.54-8.34-22.44-8.34-30.98,0-8.54,8.34-8.54,21.91,0,30.26,8.76,8.56,29.81,15.26,38.21,7.05,2.69-2.63,3.81-6.52,3.81-10.87Z"/>
          </g>
          <g>
            <path class="cls-7" d="M216.59,152.99c-9.44-9.22-31.96-16.27-41.4-7.05s-2.21,31.21,7.22,40.43c9.44,9.22,24.74,9.22,34.18,0,9.44-9.22,9.44-24.16,0-33.37Z"/>
            <path class="cls-5" d="M168.5,158.32c0-5.85,1.73-10.66,5.09-13.94,4.85-4.74,12.95-6.15,22.8-3.98,8.37,1.85,16.72,6.07,21.8,11.03,4.99,4.87,7.74,11.35,7.74,18.25s-2.75,13.37-7.74,18.25c-4.99,4.87-11.63,7.56-18.69,7.56s-13.69-2.68-18.68-7.56c-5.08-4.96-9.4-13.11-11.3-21.29-.68-2.95-1.02-5.73-1.02-8.32ZM221.4,169.68c0-5.48-2.14-10.96-6.41-15.13-8.76-8.56-29.81-15.26-38.21-7.05-3.66,3.58-4.71,10.2-2.86,18.17,1.69,7.29,5.65,14.81,10.08,19.14,8.54,8.34,22.44,8.34,30.98,0,4.27-4.17,6.41-9.65,6.41-15.13Z"/>
          </g>
        </g>
        <g>
          <polygon class="cls-3" points="143.08 167.93 161.1 141.25 143.08 114.58 170.4 132.17 197.72 114.58 179.7 141.25 197.72 167.93 170.4 150.34 143.08 167.93"/>
          <path class="cls-5" d="M135.14,106.82l35.26,22.71,35.26-22.71-23.26,34.43,23.26,34.43-35.26-22.71-35.26,22.71,23.26-34.43-23.26-34.43ZM163.8,141.25l-12.78,18.92,19.37-12.48,19.37,12.48-12.78-18.92,12.78-18.92-19.37,12.48-19.37-12.48,12.78,18.92Z"/>
        </g>
        <g>
          <path class="cls-2" d="M153.31,124.57c9.44-9.22,24.74-9.22,34.18,0,9.44,9.22,9.44,24.16,0,33.37-9.44,9.22-24.74,9.22-34.18,0-9.44-9.22-9.44-24.16,0-33.37Z"/>
          <path class="cls-5" d="M144.31,141.25c0-6.53,2.54-13.05,7.63-18.02,4.93-4.81,11.48-7.47,18.46-7.47s13.53,2.65,18.46,7.47c10.18,9.94,10.18,26.11,0,36.05-4.93,4.81-11.48,7.47-18.46,7.47s-13.53-2.65-18.46-7.47c-5.09-4.97-7.63-11.5-7.63-18.02ZM192.62,141.25c0-5.56-2.17-11.12-6.5-15.35-4.2-4.1-9.78-6.36-15.72-6.36s-11.52,2.26-15.72,6.36c-8.67,8.46-8.67,22.24,0,30.7,4.2,4.1,9.78,6.36,15.72,6.36s11.52-2.26,15.72-6.36c4.33-4.23,6.5-9.79,6.5-15.35Z"/>
        </g>
      </g>
      <g>
        <g>
          <g>
            <path class="cls-7" d="M14.34,152.99c9.44-9.22,31.96-16.27,41.4-7.05,9.44,9.22,2.21,31.21-7.22,40.43s-24.74,9.22-34.18,0-9.44-24.16,0-33.37Z"/>
            <path class="cls-5" d="M5,169.68c0-6.89,2.75-13.37,7.74-18.25,5.08-4.96,13.43-9.18,21.8-11.03,9.85-2.17,17.94-.76,22.8,3.98,4.85,4.74,6.3,12.64,4.07,22.26-1.89,8.17-6.22,16.33-11.3,21.29-4.99,4.87-11.63,7.56-18.68,7.56s-13.69-2.68-18.69-7.56c-4.99-4.87-7.74-11.35-7.74-18.25ZM57.89,158.39c0-4.67-1.28-8.48-3.75-10.9-8.4-8.2-29.45-1.5-38.21,7.05-8.54,8.34-8.54,21.91,0,30.26,8.54,8.34,22.44,8.34,30.98,0,4.44-4.33,8.4-11.85,10.08-19.14.6-2.58.89-5.03.89-7.27Z"/>
          </g>
          <g>
            <path class="cls-7" d="M72.55,96.14c-9.44,9.22-16.66,31.21-7.22,40.43,9.44,9.22,31.96,2.16,41.4-7.05,9.44-9.22,9.44-24.16,0-33.37s-24.74-9.22-34.18,0Z"/>
            <path class="cls-5" d="M58.64,124.19c0-2.58.34-5.37,1.02-8.32,1.89-8.17,6.22-16.33,11.3-21.29,4.99-4.87,11.63-7.56,18.68-7.56s13.69,2.68,18.69,7.56c4.99,4.87,7.74,11.35,7.74,18.25s-2.75,13.37-7.74,18.25c-5.08,4.96-13.43,9.18-21.8,11.03-9.85,2.17-17.94.76-22.8-3.98-3.36-3.29-5.09-8.09-5.09-13.94ZM111.54,112.83c0-5.48-2.14-10.96-6.41-15.13-8.54-8.34-22.44-8.34-30.98,0-8.76,8.56-15.63,29.11-7.22,37.31,8.4,8.2,29.45,1.5,38.21-7.05,4.27-4.17,6.41-9.65,6.41-15.13Z"/>
          </g>
          <g>
            <path class="cls-7" d="M48.51,96.14c9.44,9.22,16.66,31.21,7.22,40.43-9.44,9.22-31.96,2.16-41.4-7.05s-9.44-24.16,0-33.37,24.74-9.22,34.18,0Z"/>
            <path class="cls-5" d="M5,112.83c0-6.89,2.75-13.37,7.74-18.25,4.99-4.87,11.63-7.56,18.69-7.56s13.69,2.68,18.68,7.56c5.08,4.96,9.4,13.11,11.3,21.29,2.23,9.62.78,17.52-4.07,22.26-4.85,4.74-12.95,6.15-22.8,3.98-8.37-1.85-16.72-6.07-21.8-11.03-4.99-4.87-7.74-11.35-7.74-18.25ZM57.96,124.14c0-9.26-5.08-20.62-11.04-26.44-8.54-8.34-22.44-8.34-30.98,0-8.54,8.34-8.54,21.91,0,30.26,8.76,8.56,29.81,15.26,38.21,7.05,2.69-2.63,3.81-6.52,3.81-10.87Z"/>
          </g>
          <g>
            <path class="cls-7" d="M106.73,152.99c-9.44-9.22-31.96-16.27-41.4-7.05s-2.21,31.21,7.22,40.43,24.74,9.22,34.18,0c9.44-9.22,9.44-24.16,0-33.37Z"/>
            <path class="cls-5" d="M58.64,158.32c0-5.85,1.73-10.66,5.09-13.94,4.85-4.74,12.95-6.15,22.8-3.98,8.37,1.85,16.72,6.07,21.8,11.03,4.99,4.87,7.74,11.35,7.74,18.25s-2.75,13.37-7.74,18.25c-4.99,4.87-11.63,7.56-18.69,7.56s-13.69-2.68-18.68-7.56c-5.08-4.96-9.4-13.11-11.3-21.29-.68-2.95-1.02-5.73-1.02-8.32ZM111.54,169.68c0-5.48-2.14-10.96-6.41-15.13-8.76-8.56-29.81-15.26-38.21-7.05-3.66,3.58-4.7,10.2-2.86,18.17,1.69,7.29,5.65,14.81,10.08,19.14,8.54,8.34,22.44,8.34,30.98,0,4.27-4.17,6.41-9.65,6.41-15.13Z"/>
          </g>
        </g>
        <g>
          <polygon class="cls-3" points="33.21 167.93 51.23 141.25 33.21 114.58 60.53 132.17 87.85 114.58 69.83 141.25 87.85 167.93 60.53 150.34 33.21 167.93"/>
          <path class="cls-5" d="M25.27,106.82l35.26,22.71,35.26-22.71-23.26,34.43,23.26,34.43-35.26-22.71-35.26,22.71,23.26-34.43-23.26-34.43ZM53.93,141.25l-12.78,18.92,19.37-12.48,19.37,12.48-12.78-18.92,12.78-18.92-19.37,12.48-19.37-12.48,12.78,18.92Z"/>
        </g>
        <g>
          <path class="cls-2" d="M43.44,124.57c9.44-9.22,24.74-9.22,34.18,0s9.44,24.16,0,33.37c-9.44,9.22-24.74,9.22-34.18,0-9.44-9.22-9.44-24.16,0-33.37Z"/>
          <path class="cls-5" d="M34.44,141.25c0-6.53,2.54-13.05,7.63-18.02,10.18-9.94,26.74-9.94,36.91,0,10.18,9.94,10.18,26.11,0,36.05-10.18,9.94-26.74,9.94-36.91,0-5.09-4.97-7.63-11.5-7.63-18.02ZM82.75,141.25c0-5.56-2.17-11.12-6.5-15.35-8.67-8.46-22.77-8.46-31.44,0-8.67,8.46-8.67,22.24,0,30.7,8.67,8.46,22.77,8.46,31.44,0,4.33-4.23,6.5-9.79,6.5-15.35Z"/>
        </g>
      </g>
    </g>
  </g>
  <g>
    <g>
      <g>
        <g>
          <path class="cls-1" d="M533.91,553.24c42.94-42.94,145.41-75.8,188.35-32.87,42.94,42.94,10.07,145.42-32.87,188.35-42.94,42.94-112.55,42.94-155.48,0-42.94-42.94-42.94-112.55,0-155.48Z"/>
          <path class="cls-4" d="M664.35,496.24c24.04,0,45.83,6.25,60.81,21.23,44.52,44.52,11.96,149.33-32.87,194.16-44.47,44.47-116.82,44.47-161.29,0-44.47-44.47-44.47-116.82,0-161.29,29.75-29.75,85.92-54.09,133.35-54.09ZM611.65,736.77c27.1,0,54.21-10.32,74.84-30.95,20.96-20.96,39.61-57.14,47.53-92.18,5.21-23.06,10.24-65.46-14.67-90.37-24.9-24.9-67.31-19.88-90.37-14.67-35.04,7.92-71.22,26.58-92.18,47.53l-2.9-2.9,2.9,2.9c-41.27,41.27-41.27,108.41,0,149.68,20.63,20.63,47.74,30.95,74.84,30.95Z"/>
        </g>
        <g>
          <path class="cls-1" d="M798.74,288.41c-42.94,42.94-75.8,145.42-32.87,188.35,42.94,42.94,145.41,10.07,188.35-32.87,42.94-42.94,42.94-112.55,0-155.48-42.94-42.94-112.55-42.94-155.48,0Z"/>
          <path class="cls-4" d="M876.48,252.15c29.21,0,58.41,11.12,80.65,33.35,44.47,44.47,44.47,116.82,0,161.29-44.83,44.83-149.64,77.38-194.16,32.87-20.52-20.52-26.51-55.32-16.87-97.98,8.36-37.01,27.42-73.86,49.74-96.17l2.9,2.9-2.9-2.9c22.23-22.23,51.44-33.35,80.65-33.35ZM823.33,492.79c13.51,0,26.3-2.12,35.81-4.27,35.04-7.92,71.22-26.58,92.18-47.53,19.99-19.99,31-46.57,31-74.84s-11.01-54.85-31-74.84c-19.99-19.99-46.57-31-74.84-31s-54.85,11.01-74.84,31c-20.96,20.96-39.61,57.14-47.53,92.18-5.21,23.06-10.24,65.46,14.67,90.37,14.63,14.63,35.31,18.93,54.55,18.93Z"/>
        </g>
        <g>
          <path class="cls-1" d="M689.39,288.41c42.94,42.94,75.8,145.42,32.87,188.35-42.94,42.94-145.41,10.07-188.35-32.87-42.94-42.94-42.94-112.55,0-155.48,42.94-42.94,112.55-42.94,155.48,0Z"/>
          <path class="cls-4" d="M611.65,252.15c29.21,0,58.41,11.12,80.65,33.35,44.83,44.82,77.38,149.64,32.87,194.16-44.52,44.52-149.33,11.96-194.16-32.87-44.47-44.47-44.47-116.82,0-161.29,22.23-22.23,51.44-33.35,80.65-33.35ZM686.49,291.31c-41.27-41.27-108.41-41.27-149.68,0-41.27,41.27-41.27,108.41,0,149.68,20.96,20.96,57.14,39.61,92.18,47.53,23.06,5.21,65.46,10.23,90.37-14.67,24.9-24.9,19.88-67.31,14.67-90.37-7.92-35.04-26.58-71.22-47.53-92.18Z"/>
        </g>
        <g>
          <path class="cls-1" d="M954.22,553.24c-42.94-42.94-145.41-75.8-188.35-32.87-42.94,42.94-10.07,145.42,32.87,188.35,42.94,42.94,112.55,42.94,155.48,0,42.94-42.94,42.94-112.55,0-155.48Z"/>
          <path class="cls-4" d="M823.77,496.24c47.43,0,103.6,24.34,133.35,54.09,44.47,44.47,44.47,116.82,0,161.29-44.47,44.47-116.82,44.47-161.29,0-22.31-22.31-41.37-59.17-49.74-96.17-9.64-42.66-3.65-77.46,16.87-97.98,14.97-14.97,36.77-21.23,60.81-21.23ZM876.48,736.82c28.27,0,54.85-11.01,74.84-31,19.99-19.99,31-46.57,31-74.84s-11.01-54.85-31-74.84c-20.96-20.96-57.14-39.61-92.18-47.53-23.06-5.21-65.46-10.23-90.37,14.67-24.9,24.9-19.88,67.31-14.67,90.37,7.92,35.04,26.58,71.22,47.53,92.18,19.99,19.99,46.57,31,74.84,31Z"/>
        </g>
      </g>
      <g>
        <polygon class="cls-3" points="619.79 622.84 701.75 498.56 619.79 374.29 744.06 456.25 868.34 374.29 786.38 498.56 868.34 622.84 744.06 540.88 619.79 622.84"/>
        <path class="cls-4" d="M605.34,359.84l138.72,91.49,138.72-91.49-91.49,138.72,91.49,138.72-138.72-91.49-138.72,91.49,91.49-138.72-91.49-138.72ZM744.06,461.17l-109.83-72.43,72.43,109.83-72.43,109.83,109.83-72.43,109.83,72.43-72.43-109.83,72.43-109.83-109.83,72.43Z"/>
      </g>
      <g>
        <circle class="cls-6" cx="744.06" cy="498.56" r="109.94"/>
        <path class="cls-4" d="M744.06,385.15c29.06,0,58.11,11.06,80.23,33.18,44.24,44.24,44.24,116.22,0,160.46-44.24,44.24-116.22,44.24-160.46,0-21.43-21.43-33.23-49.92-33.23-80.23s11.8-58.8,33.23-80.23l2.49,2.49-2.49-2.49c22.12-22.12,51.18-33.18,80.23-33.18ZM744.06,604.94c27.25,0,54.51-10.37,75.25-31.12,41.5-41.5,41.5-109.01,0-150.51-41.49-41.49-109.01-41.49-150.51,0-20.1,20.1-31.17,46.83-31.17,75.25s11.07,55.15,31.17,75.25c20.75,20.75,48,31.12,75.25,31.12Z"/>
      </g>
    </g>
    <g>
      <g>
        <g>
          <path class="cls-1" d="M41.25,553.24c42.94-42.94,145.41-75.8,188.35-32.87,42.94,42.94,10.07,145.42-32.87,188.35-42.94,42.94-112.55,42.94-155.48,0-42.94-42.94-42.94-112.55,0-155.48Z"/>
          <path class="cls-4" d="M171.7,496.24c24.04,0,45.83,6.25,60.81,21.23,44.52,44.52,11.96,149.33-32.87,194.16-44.47,44.47-116.82,44.47-161.29,0-44.47-44.47-44.47-116.82,0-161.29,29.75-29.75,85.92-54.09,133.35-54.09ZM119,736.77c27.1,0,54.21-10.32,74.84-30.95,20.96-20.96,39.61-57.14,47.53-92.18,5.21-23.06,10.24-65.46-14.67-90.37-24.9-24.9-67.31-19.88-90.37-14.67-35.04,7.92-71.22,26.58-92.18,47.53l-2.9-2.9,2.9,2.9c-41.27,41.27-41.27,108.41,0,149.68,20.63,20.63,47.74,30.95,74.84,30.95Z"/>
        </g>
        <g>
          <path class="cls-1" d="M306.08,288.41c-42.94,42.94-75.8,145.42-32.87,188.35,42.94,42.94,145.41,10.07,188.35-32.87,42.94-42.94,42.94-112.55,0-155.48-42.94-42.94-112.55-42.94-155.48,0Z"/>
          <path class="cls-4" d="M383.83,252.15c29.21,0,58.41,11.12,80.65,33.35,44.47,44.47,44.47,116.82,0,161.29-44.83,44.83-149.64,77.38-194.16,32.87-20.52-20.52-26.51-55.32-16.87-97.98,8.36-37.01,27.42-73.86,49.74-96.17l2.9,2.9-2.9-2.9c22.23-22.23,51.44-33.35,80.65-33.35ZM330.67,492.79c13.51,0,26.3-2.12,35.81-4.27,35.04-7.92,71.22-26.58,92.18-47.53,19.99-19.99,31-46.57,31-74.84s-11.01-54.85-31-74.84-46.57-31-74.84-31-54.85,11.01-74.84,31c-20.96,20.96-39.61,57.14-47.53,92.18-5.21,23.06-10.24,65.46,14.67,90.37,14.63,14.63,35.31,18.93,54.55,18.93Z"/>
        </g>
        <g>
          <path class="cls-1" d="M196.74,288.41c42.94,42.94,75.8,145.42,32.87,188.35-42.94,42.94-145.41,10.07-188.35-32.87-42.94-42.94-42.94-112.55,0-155.48,42.94-42.94,112.55-42.94,155.48,0Z"/>
          <path class="cls-4" d="M119,252.15c29.21,0,58.41,11.12,80.65,33.35,44.83,44.82,77.38,149.64,32.87,194.16-44.52,44.52-149.33,11.96-194.16-32.87-44.47-44.47-44.47-116.82,0-161.29,22.23-22.23,51.44-33.35,80.65-33.35ZM193.84,291.31c-41.27-41.27-108.41-41.27-149.68,0-41.27,41.27-41.27,108.41,0,149.68,20.96,20.96,57.14,39.61,92.18,47.53,23.06,5.21,65.46,10.23,90.37-14.67,24.9-24.9,19.88-67.31,14.67-90.37-7.92-35.04-26.58-71.22-47.53-92.18Z"/>
        </g>
        <g>
          <path class="cls-1" d="M461.57,553.24c-42.94-42.94-145.41-75.8-188.35-32.87-42.94,42.94-10.07,145.42,32.87,188.35,42.94,42.94,112.55,42.94,155.48,0,42.94-42.94,42.94-112.55,0-155.48Z"/>
          <path class="cls-4" d="M331.12,496.24c47.43,0,103.6,24.34,133.35,54.09,44.47,44.47,44.47,116.82,0,161.29-44.47,44.47-116.82,44.47-161.29,0-22.31-22.31-41.37-59.17-49.74-96.17-9.64-42.66-3.65-77.46,16.87-97.98,14.97-14.97,36.77-21.23,60.81-21.23ZM383.83,736.82c28.27,0,54.85-11.01,74.84-31,19.99-19.99,31-46.57,31-74.84s-11.01-54.85-31-74.84c-20.96-20.96-57.14-39.61-92.18-47.53-23.06-5.21-65.46-10.23-90.37,14.67-24.9,24.9-19.88,67.31-14.67,90.37,7.92,35.04,26.58,71.22,47.53,92.18,19.99,19.99,46.57,31,74.84,31Z"/>
        </g>
      </g>
      <g>
        <polygon class="cls-3" points="127.13 622.84 209.1 498.56 127.13 374.29 251.41 456.25 375.69 374.29 293.73 498.56 375.69 622.84 251.41 540.88 127.13 622.84"/>
        <path class="cls-4" d="M112.69,359.84l138.72,91.49,138.72-91.49-91.49,138.72,91.49,138.72-138.72-91.49-138.72,91.49,91.49-138.72-91.49-138.72ZM251.41,461.17l-109.83-72.43,72.43,109.83-72.43,109.83,109.83-72.43,109.83,72.43-72.43-109.83,72.43-109.83-109.83,72.43Z"/>
      </g>
      <g>
        <circle class="cls-6" cx="251.41" cy="498.56" r="109.94"/>
        <path class="cls-4" d="M251.41,385.15c29.06,0,58.11,11.06,80.23,33.18,44.24,44.24,44.24,116.22,0,160.46-44.24,44.24-116.22,44.24-160.46,0-21.43-21.43-33.23-49.92-33.23-80.23s11.8-58.8,33.23-80.23l2.49,2.49-2.49-2.49c22.12-22.12,51.18-33.18,80.23-33.18ZM251.41,604.94c27.25,0,54.51-10.37,75.25-31.12,41.5-41.5,41.5-109.01,0-150.51-41.49-41.49-109.01-41.49-150.51,0-20.1,20.1-31.17,46.83-31.17,75.25s11.07,55.15,31.17,75.25c20.75,20.75,48,31.12,75.25,31.12Z"/>
      </g>
    </g>
  </g>
</svg>