<?xml version="1.0" encoding="UTF-8"?>
<svg id="Layer_10" data-name="Layer 10" xmlns="http://www.w3.org/2000/svg" viewBox="0 0 1000 1000">
  <defs>
    <style>
      .cls-1 {
        fill: #190c2b;
      }

      .cls-1, .cls-2, .cls-3 {
        stroke-miterlimit: 10;
      }

      .cls-1, .cls-3 {
        stroke: #f2b818;
      }

      .cls-4, .cls-2 {
        fill: #311463;
      }

      .cls-5 {
        fill: #110c19;
      }

      .cls-2 {
        stroke: #e8aa21;
        stroke-width: 3px;
      }

      .cls-3 {
        fill: #f2b818;
      }

      .cls-6 {
        fill: #080503;
      }

      .cls-7 {
        fill: #18003b;
      }

      .cls-8 {
        fill: #c98f2c;
      }

      .cls-9 {
        fill: #ffad14;
      }
    </style>
  </defs>
  <g>
    <g id="_Radial_Repeat_" data-name="&amp;lt;Radial Repeat&amp;gt;">
      <g>
        <path class="cls-1" d="M746.2,498.06l-117.32.09-117.21,117.39.09,117.32,117.3-.09,117.24-117.39-.09-117.32ZM595.53,595.92c22.66-22.66,53.96-36.66,88.51-36.66,0,69.12-56.03,125.15-125.17,125.15,0-34.55,14-65.86,36.66-88.49Z"/>
        <path class="cls-3" d="M748.38,495.86l-120.39.09-117.87,118.04-.65.65.09,120.39,120.41-.09,117.87-118.02.63-.65-.09-120.41ZM513.93,730.66l-.09-114.21,115.95-116.1,114.21-.09.09,114.21-115.95,116.11-114.21.09Z"/>
      </g>
    </g>
    <g id="_Radial_Repeat_-2" data-name="&amp;lt;Radial Repeat&amp;gt;">
      <g>
        <path class="cls-1" d="M746.11,368.93l-117.41-117.24-117.3.09.09,117.3,117.39,117.24,117.3-.09-.07-117.3ZM558.87,299.51h.02c69.12,0,125.15,56.03,125.15,125.15-69.12,0-125.17-56.03-125.17-125.15Z"/>
        <path class="cls-3" d="M748.29,368.02l-118.04-117.87-.63-.65-120.41.09.09,120.41,118.04,117.87.63.65,120.41-.09-.09-120.41ZM513.6,253.98l114.21-.09,116.1,115.93.09,114.21-114.21.09-116.13-115.93-.07-114.21Z"/>
      </g>
    </g>
    <g id="_Radial_Repeat_-3" data-name="&amp;lt;Radial Repeat&amp;gt;">
      <g>
        <path class="cls-1" d="M992.48,251.43l-117.32.09-117.21,117.39.07,117.32,117.32-.09,117.21-117.39-.07-117.32ZM856.07,336.16c22.63-22.66,53.94-36.66,88.49-36.66,0,69.12-56.03,125.15-125.15,125.15,0-34.57,14-65.84,36.66-88.49Z"/>
        <path class="cls-3" d="M994.65,249.24l-120.41.09-117.87,118.04-.63.65.09,120.39,120.41-.09,117.87-118.02.63-.65-.09-120.41ZM760.2,484.03l-.09-114.21,115.95-116.1,114.21-.09.09,114.21-115.95,116.11-114.21.09Z"/>
      </g>
    </g>
    <g id="_Radial_Repeat_-4" data-name="&amp;lt;Radial Repeat&amp;gt;">
      <g>
        <path class="cls-1" d="M992.74,615.18l-117.41-117.21-117.3.09.09,117.3,117.39,117.24,117.3-.09-.07-117.32ZM819.41,559.26c34.55,0,65.86,14,88.49,36.66,22.66,22.63,36.66,53.94,36.66,88.49-69.12,0-125.15-56.03-125.15-125.15Z"/>
        <path class="cls-3" d="M994.91,614.29l-118.04-117.87-.63-.65-120.41.09.09,120.41,118.04,117.87.63.63,120.41-.09-.09-120.39ZM760.23,500.23l114.21-.07,116.1,115.93.09,114.21-114.21.09-116.13-115.95-.07-114.21Z"/>
      </g>
    </g>
  </g>
  <g>
    <g>
      <g>
        <g>
          <path class="cls-9" d="M880.35,878.5c10.61-10.61,35.94-18.74,46.56-8.12,10.61,10.61,2.49,35.94-8.12,46.56-10.61,10.61-27.82,10.61-38.43,0-10.61-10.61-10.61-27.82,0-38.43Z"/>
          <path class="cls-7" d="M869.85,897.72c0-7.94,3.09-15.4,8.7-21.01,5.71-5.71,15.1-10.58,24.51-12.7,11.07-2.5,20.18-.88,25.63,4.58,5.46,5.46,7.08,14.56,4.58,25.63-2.13,9.41-6.99,18.81-12.7,24.51-11.59,11.59-30.44,11.59-42.02,0-5.61-5.61-8.7-13.08-8.7-21.01ZM929.4,884.69c0-5.02-1.27-9.5-4.29-12.52-9.45-9.45-33.11-1.73-42.97,8.12-9.61,9.61-9.61,25.24,0,34.84,9.61,9.61,25.24,9.61,34.84,0,6.7-6.7,12.41-19.79,12.41-30.45Z"/>
        </g>
        <g>
          <path class="cls-9" d="M945.81,813.04c-10.61,10.61-18.74,35.94-8.12,46.56s35.94,2.49,46.56-8.12,10.61-27.82,0-38.43c-10.61-10.61-27.82-10.61-38.43,0Z"/>
          <path class="cls-7" d="M930.16,845.33c0-2.98.38-6.18,1.15-9.58,2.13-9.41,6.99-18.81,12.7-24.51,5.61-5.61,13.07-8.7,21.01-8.7s15.4,3.09,21.01,8.7c5.61,5.61,8.7,13.08,8.7,21.01s-3.09,15.4-8.7,21.01c-5.71,5.71-15.1,10.58-24.51,12.7-11.07,2.5-20.18.88-25.63-4.58-3.78-3.78-5.73-9.32-5.73-16.06ZM989.65,832.25c0-6.31-2.4-12.62-7.2-17.42-9.61-9.61-25.24-9.61-34.84,0-9.85,9.85-17.57,33.52-8.12,42.97,9.45,9.45,33.11,1.73,42.97-8.12,4.8-4.8,7.2-11.11,7.2-17.42Z"/>
        </g>
        <g>
          <path class="cls-9" d="M918.78,813.04c10.61,10.61,18.74,35.94,8.12,46.56s-35.94,2.49-46.56-8.12c-10.61-10.61-10.61-27.82,0-38.43,10.61-10.61,27.82-10.61,38.43,0Z"/>
          <path class="cls-7" d="M869.85,832.25c0-7.94,3.09-15.4,8.7-21.01,5.61-5.61,13.07-8.7,21.01-8.7s15.4,3.09,21.01,8.7c5.71,5.71,10.58,15.1,12.7,24.51,2.5,11.07.88,20.18-4.58,25.63-5.46,5.46-14.56,7.08-25.63,4.58-9.41-2.13-18.81-7-24.51-12.7-5.61-5.61-8.7-13.08-8.7-21.01ZM929.4,845.28c0-10.66-5.71-23.75-12.41-30.45-9.61-9.61-25.24-9.61-34.84,0-9.61,9.61-9.61,25.24,0,34.84,9.86,9.85,33.52,17.57,42.97,8.12,3.02-3.02,4.29-7.5,4.29-12.52Z"/>
        </g>
        <g>
          <path class="cls-9" d="M984.24,878.5c-10.61-10.61-35.94-18.74-46.56-8.12-10.61,10.61-2.49,35.94,8.12,46.56,10.61,10.61,27.82,10.61,38.43,0s10.61-27.82,0-38.43Z"/>
          <path class="cls-7" d="M930.16,884.63c0-6.73,1.94-12.27,5.73-16.06,5.46-5.46,14.56-7.08,25.63-4.58,9.41,2.13,18.81,7,24.51,12.7,5.61,5.61,8.7,13.08,8.7,21.01s-3.09,15.4-8.7,21.01c-11.59,11.59-30.44,11.59-42.02,0-5.71-5.71-10.58-15.1-12.7-24.51-.77-3.39-1.15-6.6-1.15-9.58ZM989.65,897.72c0-6.31-2.4-12.62-7.2-17.42-9.86-9.85-33.52-17.57-42.97-8.12-9.45,9.45-1.73,33.11,8.12,42.97,9.61,9.61,25.24,9.61,34.84,0,4.8-4.8,7.2-11.11,7.2-17.42Z"/>
        </g>
      </g>
      <g>
        <polygon class="cls-5" points="901.57 895.7 921.83 864.98 901.57 834.26 932.29 854.52 963.01 834.26 942.75 864.98 963.01 895.7 932.29 875.44 901.57 895.7"/>
        <path class="cls-7" d="M892.64,825.33l39.65,26.15,39.65-26.15-26.15,39.65,26.15,39.65-39.65-26.15-39.65,26.15,26.15-39.65-26.15-39.65ZM924.88,864.98l-14.37,21.79,21.79-14.37,21.79,14.37-14.37-21.79,14.37-21.79-21.79,14.37-21.79-14.37,14.37,21.79Z"/>
      </g>
      <g>
        <circle class="cls-4" cx="932.29" cy="864.98" r="27.18"/>
        <path class="cls-7" d="M902.95,864.98c0-7.52,2.86-15.03,8.58-20.76,11.44-11.44,30.07-11.44,41.51,0,11.44,11.44,11.44,30.07,0,41.51-11.44,11.44-30.07,11.44-41.51,0-5.72-5.72-8.58-13.24-8.58-20.76ZM957.28,864.98c0-6.4-2.44-12.8-7.31-17.68-9.75-9.75-25.61-9.75-35.36,0-9.75,9.75-9.75,25.61,0,35.36,9.75,9.75,25.61,9.75,35.36,0,4.87-4.87,7.31-11.28,7.31-17.68Z"/>
      </g>
    </g>
    <g>
      <g>
        <g>
          <path class="cls-9" d="M756.8,878.5c10.61-10.61,35.94-18.74,46.56-8.12,10.61,10.61,2.49,35.94-8.12,46.56s-27.82,10.61-38.43,0c-10.61-10.61-10.61-27.82,0-38.43Z"/>
          <path class="cls-7" d="M746.3,897.72c0-7.94,3.09-15.4,8.7-21.01,5.71-5.71,15.1-10.58,24.51-12.7,11.07-2.5,20.18-.88,25.63,4.58,5.46,5.46,7.08,14.56,4.58,25.63-2.13,9.41-6.99,18.81-12.7,24.51-11.59,11.59-30.44,11.59-42.02,0-5.61-5.61-8.7-13.08-8.7-21.01ZM805.85,884.69c0-5.02-1.27-9.5-4.29-12.52-9.45-9.45-33.11-1.73-42.97,8.12-9.61,9.61-9.61,25.24,0,34.84,9.61,9.61,25.24,9.61,34.84,0,6.7-6.7,12.41-19.79,12.41-30.45Z"/>
        </g>
        <g>
          <path class="cls-9" d="M822.26,813.04c-10.61,10.61-18.74,35.94-8.12,46.56,10.61,10.61,35.94,2.49,46.56-8.12,10.61-10.61,10.61-27.82,0-38.43-10.61-10.61-27.82-10.61-38.43,0Z"/>
          <path class="cls-7" d="M806.61,845.33c0-2.98.38-6.18,1.15-9.58,2.13-9.41,6.99-18.81,12.7-24.51,5.61-5.61,13.07-8.7,21.01-8.7s15.4,3.09,21.01,8.7c5.61,5.61,8.7,13.08,8.7,21.01s-3.09,15.4-8.7,21.01c-5.71,5.71-15.1,10.58-24.51,12.7-11.07,2.5-20.18.88-25.63-4.58-3.78-3.78-5.73-9.32-5.73-16.06ZM866.1,832.25c0-6.31-2.4-12.62-7.2-17.42-9.61-9.61-25.24-9.61-34.84,0s-17.57,33.52-8.12,42.97c9.45,9.45,33.11,1.73,42.97-8.12,4.8-4.8,7.2-11.11,7.2-17.42Z"/>
        </g>
        <g>
          <path class="cls-9" d="M795.23,813.04c10.61,10.61,18.74,35.94,8.12,46.56s-35.94,2.49-46.56-8.12c-10.61-10.61-10.61-27.82,0-38.43,10.61-10.61,27.82-10.61,38.43,0Z"/>
          <path class="cls-7" d="M746.3,832.25c0-7.94,3.09-15.4,8.7-21.01,5.61-5.61,13.07-8.7,21.01-8.7s15.4,3.09,21.01,8.7c5.71,5.71,10.58,15.1,12.7,24.51,2.5,11.07.88,20.18-4.58,25.63-5.46,5.46-14.56,7.08-25.63,4.58-9.41-2.13-18.81-7-24.51-12.7-5.61-5.61-8.7-13.08-8.7-21.01ZM805.85,845.28c0-10.66-5.71-23.75-12.41-30.45-9.61-9.61-25.24-9.61-34.84,0-9.61,9.61-9.61,25.24,0,34.84,9.86,9.85,33.52,17.57,42.97,8.12,3.02-3.02,4.29-7.5,4.29-12.52Z"/>
        </g>
        <g>
          <path class="cls-9" d="M860.69,878.5c-10.61-10.61-35.94-18.74-46.56-8.12s-2.49,35.94,8.12,46.56c10.61,10.61,27.82,10.61,38.43,0,10.61-10.61,10.61-27.82,0-38.43Z"/>
          <path class="cls-7" d="M806.61,884.63c0-6.73,1.94-12.27,5.73-16.06,5.46-5.46,14.56-7.08,25.63-4.58,9.41,2.13,18.81,7,24.51,12.7,5.61,5.61,8.7,13.08,8.7,21.01s-3.09,15.4-8.7,21.01c-11.59,11.59-30.44,11.59-42.02,0-5.71-5.71-10.58-15.1-12.7-24.51-.77-3.39-1.15-6.6-1.15-9.58ZM866.1,897.72c0-6.31-2.4-12.62-7.2-17.42-9.86-9.85-33.52-17.57-42.97-8.12-9.45,9.45-1.73,33.11,8.12,42.97,9.61,9.61,25.24,9.61,34.84,0,4.8-4.8,7.2-11.11,7.2-17.42Z"/>
        </g>
      </g>
      <g>
        <polygon class="cls-5" points="778.03 895.7 798.29 864.98 778.03 834.26 808.74 854.52 839.46 834.26 819.2 864.98 839.46 895.7 808.74 875.44 778.03 895.7"/>
        <path class="cls-7" d="M769.09,825.33l39.65,26.15,39.65-26.15-26.15,39.65,26.15,39.65-39.65-26.15-39.65,26.15,26.15-39.65-26.15-39.65ZM801.33,864.98l-14.37,21.79,21.79-14.37,21.79,14.37-14.37-21.79,14.37-21.79-21.79,14.37-21.79-14.37,14.37,21.79Z"/>
      </g>
      <g>
        <circle class="cls-4" cx="808.74" cy="864.98" r="27.18"/>
        <path class="cls-7" d="M779.4,864.98c0-7.52,2.86-15.03,8.58-20.76,11.44-11.44,30.07-11.44,41.51,0,11.44,11.44,11.44,30.07,0,41.51-11.44,11.44-30.07,11.44-41.51,0-5.72-5.72-8.58-13.24-8.58-20.76ZM833.73,864.98c0-6.4-2.44-12.8-7.31-17.68-9.75-9.75-25.61-9.75-35.36,0-9.75,9.75-9.75,25.61,0,35.36,9.75,9.75,25.61,9.75,35.36,0,4.87-4.87,7.31-11.28,7.31-17.68Z"/>
      </g>
    </g>
    <g>
      <g>
        <g>
          <path class="cls-9" d="M633.25,878.5c10.61-10.61,35.94-18.74,46.56-8.12s2.49,35.94-8.12,46.56c-10.61,10.61-27.82,10.61-38.43,0s-10.61-27.82,0-38.43Z"/>
          <path class="cls-7" d="M622.75,897.72c0-7.94,3.09-15.4,8.7-21.01,5.71-5.71,15.1-10.58,24.51-12.7,11.07-2.5,20.18-.88,25.63,4.58,5.46,5.46,7.08,14.56,4.58,25.63-2.13,9.41-6.99,18.81-12.7,24.51-11.59,11.59-30.44,11.59-42.02,0-5.61-5.61-8.7-13.08-8.7-21.01ZM682.3,884.69c0-5.02-1.27-9.5-4.29-12.52-9.45-9.45-33.11-1.73-42.97,8.12-9.61,9.61-9.61,25.24,0,34.84,9.61,9.61,25.24,9.61,34.84,0,6.7-6.7,12.41-19.79,12.41-30.45Z"/>
        </g>
        <g>
          <path class="cls-9" d="M698.71,813.04c-10.61,10.61-18.74,35.94-8.12,46.56,10.61,10.61,35.94,2.49,46.56-8.12s10.61-27.82,0-38.43c-10.61-10.61-27.82-10.61-38.43,0Z"/>
          <path class="cls-7" d="M683.06,845.33c0-2.98.38-6.18,1.15-9.58,2.13-9.41,6.99-18.81,12.7-24.51,5.61-5.61,13.07-8.7,21.01-8.7s15.4,3.09,21.01,8.7c5.61,5.61,8.7,13.08,8.7,21.01s-3.09,15.4-8.7,21.01c-5.71,5.71-15.1,10.58-24.51,12.7-11.07,2.5-20.18.88-25.63-4.58-3.78-3.78-5.73-9.32-5.73-16.06ZM742.55,832.25c0-6.31-2.4-12.62-7.2-17.42-9.61-9.61-25.24-9.61-34.84,0s-17.57,33.52-8.12,42.97c9.45,9.45,33.11,1.73,42.97-8.12,4.8-4.8,7.2-11.11,7.2-17.42Z"/>
        </g>
        <g>
          <path class="cls-9" d="M671.68,813.04c10.61,10.61,18.74,35.94,8.12,46.56-10.61,10.61-35.94,2.49-46.56-8.12s-10.61-27.82,0-38.43c10.61-10.61,27.82-10.61,38.43,0Z"/>
          <path class="cls-7" d="M622.75,832.25c0-7.94,3.09-15.4,8.7-21.01,5.61-5.61,13.07-8.7,21.01-8.7s15.4,3.09,21.01,8.7c5.71,5.71,10.58,15.1,12.7,24.51,2.5,11.07.88,20.18-4.58,25.63-5.46,5.46-14.56,7.08-25.63,4.58-9.41-2.13-18.81-7-24.51-12.7-5.61-5.61-8.7-13.08-8.7-21.01ZM682.3,845.28c0-10.66-5.71-23.75-12.41-30.45-9.61-9.61-25.24-9.61-34.84,0-9.61,9.61-9.61,25.24,0,34.84,9.86,9.85,33.52,17.57,42.97,8.12,3.02-3.02,4.29-7.5,4.29-12.52Z"/>
        </g>
        <g>
          <path class="cls-9" d="M737.14,878.5c-10.61-10.61-35.94-18.74-46.56-8.12-10.61,10.61-2.49,35.94,8.12,46.56s27.82,10.61,38.43,0c10.61-10.61,10.61-27.82,0-38.43Z"/>
          <path class="cls-7" d="M683.06,884.63c0-6.73,1.94-12.27,5.73-16.06,5.46-5.46,14.56-7.08,25.63-4.58,9.41,2.13,18.81,7,24.51,12.7,5.61,5.61,8.7,13.08,8.7,21.01s-3.09,15.4-8.7,21.01c-11.59,11.59-30.44,11.59-42.02,0-5.71-5.71-10.58-15.1-12.7-24.51-.77-3.39-1.15-6.6-1.15-9.58ZM742.55,897.72c0-6.31-2.4-12.62-7.2-17.42-9.86-9.85-33.52-17.57-42.97-8.12-9.45,9.45-1.73,33.11,8.12,42.97,9.61,9.61,25.24,9.61,34.84,0,4.8-4.8,7.2-11.11,7.2-17.42Z"/>
        </g>
      </g>
      <g>
        <polygon class="cls-5" points="654.48 895.7 674.74 864.98 654.48 834.26 685.2 854.52 715.91 834.26 695.65 864.98 715.91 895.7 685.2 875.44 654.48 895.7"/>
        <path class="cls-7" d="M645.54,825.33l39.65,26.15,39.65-26.15-26.15,39.65,26.15,39.65-39.65-26.15-39.65,26.15,26.15-39.65-26.15-39.65ZM677.78,864.98l-14.37,21.79,21.79-14.37,21.79,14.37-14.37-21.79,14.37-21.79-21.79,14.37-21.79-14.37,14.37,21.79Z"/>
      </g>
      <g>
        <circle class="cls-4" cx="685.2" cy="864.98" r="27.18"/>
        <path class="cls-7" d="M655.86,864.98c0-7.52,2.86-15.03,8.58-20.76,11.44-11.44,30.07-11.44,41.51,0,11.44,11.44,11.44,30.07,0,41.51-11.44,11.44-30.07,11.44-41.51,0-5.72-5.72-8.58-13.24-8.58-20.76ZM710.18,864.98c0-6.4-2.44-12.8-7.31-17.68-9.75-9.75-25.61-9.75-35.36,0-9.75,9.75-9.75,25.61,0,35.36,9.75,9.75,25.61,9.75,35.36,0,4.87-4.87,7.31-11.28,7.31-17.68Z"/>
      </g>
    </g>
    <g>
      <g>
        <g>
          <path class="cls-9" d="M509.7,878.5c10.61-10.61,35.94-18.74,46.56-8.12,10.61,10.61,2.49,35.94-8.12,46.56-10.61,10.61-27.82,10.61-38.43,0s-10.61-27.82,0-38.43Z"/>
          <path class="cls-7" d="M499.2,897.72c0-7.94,3.09-15.4,8.7-21.01,5.71-5.71,15.1-10.58,24.51-12.7,11.07-2.5,20.18-.88,25.63,4.58,5.46,5.46,7.08,14.56,4.58,25.63-2.13,9.41-6.99,18.81-12.7,24.51-11.59,11.59-30.44,11.59-42.02,0-5.61-5.61-8.7-13.08-8.7-21.01ZM558.75,884.69c0-5.02-1.27-9.5-4.29-12.52-9.45-9.45-33.11-1.73-42.97,8.12-9.61,9.61-9.61,25.24,0,34.84,9.61,9.61,25.24,9.61,34.84,0,6.7-6.7,12.41-19.79,12.41-30.45Z"/>
        </g>
        <g>
          <path class="cls-9" d="M575.16,813.04c-10.61,10.61-18.74,35.94-8.12,46.56s35.94,2.49,46.56-8.12c10.61-10.61,10.61-27.82,0-38.43s-27.82-10.61-38.43,0Z"/>
          <path class="cls-7" d="M559.51,845.33c0-2.98.38-6.18,1.15-9.58,2.13-9.41,6.99-18.81,12.7-24.51,5.61-5.61,13.07-8.7,21.01-8.7s15.4,3.09,21.01,8.7c5.61,5.61,8.7,13.08,8.7,21.01s-3.09,15.4-8.7,21.01c-5.71,5.71-15.1,10.58-24.51,12.7-11.07,2.5-20.18.88-25.63-4.58-3.78-3.78-5.73-9.32-5.73-16.06ZM619,832.25c0-6.31-2.4-12.62-7.2-17.42-9.61-9.61-25.24-9.61-34.84,0-9.86,9.85-17.57,33.52-8.12,42.97,9.45,9.45,33.11,1.73,42.97-8.12,4.8-4.8,7.2-11.11,7.2-17.42Z"/>
        </g>
        <g>
          <path class="cls-9" d="M548.13,813.04c10.61,10.61,18.74,35.94,8.12,46.56s-35.94,2.49-46.56-8.12c-10.61-10.61-10.61-27.82,0-38.43s27.82-10.61,38.43,0Z"/>
          <path class="cls-7" d="M499.2,832.25c0-7.94,3.09-15.4,8.7-21.01,5.61-5.61,13.07-8.7,21.01-8.7s15.4,3.09,21.01,8.7c5.71,5.71,10.58,15.1,12.7,24.51,2.5,11.07.88,20.18-4.58,25.63-5.46,5.46-14.56,7.08-25.63,4.58-9.41-2.13-18.81-7-24.51-12.7-5.61-5.61-8.7-13.08-8.7-21.01ZM558.75,845.28c0-10.66-5.71-23.75-12.41-30.45-9.61-9.61-25.24-9.61-34.84,0-9.61,9.61-9.61,25.24,0,34.84,9.86,9.85,33.52,17.57,42.97,8.12,3.02-3.02,4.29-7.5,4.29-12.52Z"/>
        </g>
        <g>
          <path class="cls-9" d="M613.59,878.5c-10.61-10.61-35.94-18.74-46.56-8.12-10.61,10.61-2.49,35.94,8.12,46.56,10.61,10.61,27.82,10.61,38.43,0,10.61-10.61,10.61-27.82,0-38.43Z"/>
          <path class="cls-7" d="M559.51,884.63c0-6.73,1.94-12.27,5.73-16.06,5.46-5.46,14.56-7.08,25.63-4.58,9.41,2.13,18.81,7,24.51,12.7,5.61,5.61,8.7,13.08,8.7,21.01s-3.09,15.4-8.7,21.01c-11.59,11.59-30.44,11.59-42.02,0-5.71-5.71-10.58-15.1-12.7-24.51-.77-3.39-1.15-6.6-1.15-9.58ZM619,897.72c0-6.31-2.4-12.62-7.2-17.42-9.86-9.85-33.52-17.57-42.97-8.12-9.45,9.45-1.73,33.11,8.12,42.97,9.61,9.61,25.24,9.61,34.84,0,4.8-4.8,7.2-11.11,7.2-17.42Z"/>
        </g>
      </g>
      <g>
        <polygon class="cls-5" points="530.93 895.7 551.19 864.98 530.93 834.26 561.65 854.52 592.37 834.26 572.11 864.98 592.37 895.7 561.65 875.44 530.93 895.7"/>
        <path class="cls-7" d="M521.99,825.33l39.65,26.15,39.65-26.15-26.15,39.65,26.15,39.65-39.65-26.15-39.65,26.15,26.15-39.65-26.15-39.65ZM554.23,864.98l-14.37,21.79,21.79-14.37,21.79,14.37-14.37-21.79,14.37-21.79-21.79,14.37-21.79-14.37,14.37,21.79Z"/>
      </g>
      <g>
        <circle class="cls-4" cx="561.65" cy="864.98" r="27.18"/>
        <path class="cls-7" d="M532.31,864.98c0-7.52,2.86-15.03,8.58-20.76,11.44-11.44,30.07-11.44,41.51,0,11.44,11.44,11.44,30.07,0,41.51-11.44,11.44-30.07,11.44-41.51,0-5.72-5.72-8.58-13.24-8.58-20.76ZM586.63,864.98c0-6.4-2.44-12.8-7.31-17.68-9.75-9.75-25.61-9.75-35.36,0-9.75,9.75-9.75,25.61,0,35.36,9.75,9.75,25.61,9.75,35.36,0,4.87-4.87,7.31-11.28,7.31-17.68Z"/>
      </g>
    </g>
    <g>
      <g>
        <g>
          <path class="cls-9" d="M386.15,878.5c10.61-10.61,35.94-18.74,46.56-8.12,10.61,10.61,2.49,35.94-8.12,46.56s-27.82,10.61-38.43,0-10.61-27.82,0-38.43Z"/>
          <path class="cls-7" d="M375.65,897.72c0-7.94,3.09-15.4,8.7-21.01,5.71-5.71,15.1-10.58,24.51-12.7,11.07-2.5,20.18-.88,25.63,4.58,5.46,5.46,7.08,14.56,4.58,25.63-2.13,9.41-6.99,18.81-12.7,24.51-11.59,11.59-30.44,11.59-42.02,0-5.61-5.61-8.7-13.08-8.7-21.01ZM435.2,884.69c0-5.02-1.27-9.5-4.29-12.52-9.45-9.45-33.11-1.73-42.97,8.12-9.61,9.61-9.61,25.24,0,34.84,9.61,9.61,25.24,9.61,34.84,0,6.7-6.7,12.41-19.79,12.41-30.45Z"/>
        </g>
        <g>
          <path class="cls-9" d="M451.61,813.04c-10.61,10.61-18.74,35.94-8.12,46.56,10.61,10.61,35.94,2.49,46.56-8.12,10.61-10.61,10.61-27.82,0-38.43-10.61-10.61-27.82-10.61-38.43,0Z"/>
          <path class="cls-7" d="M435.96,845.33c0-2.98.38-6.18,1.15-9.58,2.13-9.41,6.99-18.81,12.7-24.51,5.61-5.61,13.07-8.7,21.01-8.7s15.4,3.09,21.01,8.7c5.61,5.61,8.7,13.08,8.7,21.01s-3.09,15.4-8.7,21.01c-5.71,5.71-15.1,10.58-24.51,12.7-11.07,2.5-20.18.88-25.63-4.58-3.78-3.78-5.73-9.32-5.73-16.06ZM495.45,832.25c0-6.31-2.4-12.62-7.2-17.42-9.61-9.61-25.24-9.61-34.84,0-9.86,9.85-17.57,33.52-8.12,42.97,9.45,9.45,33.11,1.73,42.97-8.12,4.8-4.8,7.2-11.11,7.2-17.42Z"/>
        </g>
        <g>
          <path class="cls-9" d="M424.58,813.04c10.61,10.61,18.74,35.94,8.12,46.56-10.61,10.61-35.94,2.49-46.56-8.12-10.61-10.61-10.61-27.82,0-38.43s27.82-10.61,38.43,0Z"/>
          <path class="cls-7" d="M375.65,832.25c0-7.94,3.09-15.4,8.7-21.01,5.61-5.61,13.07-8.7,21.01-8.7s15.4,3.09,21.01,8.7c5.71,5.71,10.58,15.1,12.7,24.51,2.5,11.07.88,20.18-4.58,25.63-5.46,5.46-14.56,7.08-25.63,4.58-9.41-2.13-18.81-7-24.51-12.7-5.61-5.61-8.7-13.08-8.7-21.01ZM435.2,845.28c0-10.66-5.71-23.75-12.41-30.45-9.61-9.61-25.24-9.61-34.84,0s-9.61,25.24,0,34.84c9.86,9.85,33.52,17.57,42.97,8.12,3.02-3.02,4.29-7.5,4.29-12.52Z"/>
        </g>
        <g>
          <path class="cls-9" d="M490.04,878.5c-10.61-10.61-35.94-18.74-46.56-8.12s-2.49,35.94,8.12,46.56,27.82,10.61,38.43,0,10.61-27.82,0-38.43Z"/>
          <path class="cls-7" d="M435.96,884.63c0-6.73,1.94-12.27,5.73-16.06,5.46-5.46,14.56-7.08,25.63-4.58,9.41,2.13,18.81,7,24.51,12.7,5.61,5.61,8.7,13.08,8.7,21.01s-3.09,15.4-8.7,21.01c-11.59,11.59-30.44,11.59-42.02,0-5.71-5.71-10.58-15.1-12.7-24.51-.77-3.39-1.15-6.6-1.15-9.58ZM495.45,897.72c0-6.31-2.4-12.62-7.2-17.42-9.86-9.85-33.52-17.57-42.97-8.12-9.45,9.45-1.73,33.11,8.12,42.97,9.61,9.61,25.24,9.61,34.84,0,4.8-4.8,7.2-11.11,7.2-17.42Z"/>
        </g>
      </g>
      <g>
        <polygon class="cls-5" points="407.38 895.7 427.64 864.98 407.38 834.26 438.1 854.52 468.82 834.26 448.56 864.98 468.82 895.7 438.1 875.44 407.38 895.7"/>
        <path class="cls-7" d="M398.44,825.33l39.65,26.15,39.65-26.15-26.15,39.65,26.15,39.65-39.65-26.15-39.65,26.15,26.15-39.65-26.15-39.65ZM430.68,864.98l-14.37,21.79,21.79-14.37,21.79,14.37-14.37-21.79,14.37-21.79-21.79,14.37-21.79-14.37,14.37,21.79Z"/>
      </g>
      <g>
        <circle class="cls-4" cx="438.1" cy="864.98" r="27.18"/>
        <path class="cls-7" d="M408.76,864.98c0-7.52,2.86-15.03,8.58-20.76,11.44-11.44,30.07-11.44,41.51,0,11.44,11.44,11.44,30.07,0,41.51-11.44,11.44-30.07,11.44-41.51,0-5.72-5.72-8.58-13.24-8.58-20.76ZM463.08,864.98c0-6.4-2.44-12.8-7.31-17.68-9.75-9.75-25.61-9.75-35.36,0-9.75,9.75-9.75,25.61,0,35.36,9.75,9.75,25.61,9.75,35.36,0,4.87-4.87,7.31-11.28,7.31-17.68Z"/>
      </g>
    </g>
    <g>
      <g>
        <g>
          <path class="cls-9" d="M262.6,878.5c10.61-10.61,35.94-18.74,46.56-8.12,10.61,10.61,2.49,35.94-8.12,46.56-10.61,10.61-27.82,10.61-38.43,0-10.61-10.61-10.61-27.82,0-38.43Z"/>
          <path class="cls-7" d="M252.1,897.72c0-7.94,3.09-15.4,8.7-21.01,5.71-5.71,15.1-10.58,24.51-12.7,11.07-2.5,20.18-.88,25.63,4.58,5.46,5.46,7.08,14.56,4.58,25.63-2.13,9.41-6.99,18.81-12.7,24.51-11.59,11.59-30.44,11.59-42.02,0-5.61-5.61-8.7-13.08-8.7-21.01ZM311.65,884.69c0-5.02-1.27-9.5-4.29-12.52-9.45-9.45-33.11-1.73-42.97,8.12-9.61,9.61-9.61,25.24,0,34.84,9.61,9.61,25.24,9.61,34.84,0,6.7-6.7,12.41-19.79,12.41-30.45Z"/>
        </g>
        <g>
          <path class="cls-9" d="M328.06,813.04c-10.61,10.61-18.74,35.94-8.12,46.56s35.94,2.49,46.56-8.12c10.61-10.61,10.61-27.82,0-38.43-10.61-10.61-27.82-10.61-38.43,0Z"/>
          <path class="cls-7" d="M312.42,845.33c0-2.98.38-6.18,1.15-9.58,2.13-9.41,6.99-18.81,12.7-24.51,5.61-5.61,13.07-8.7,21.01-8.7s15.4,3.09,21.01,8.7c5.61,5.61,8.7,13.08,8.7,21.01s-3.09,15.4-8.7,21.01c-5.71,5.71-15.1,10.58-24.51,12.7-11.07,2.5-20.18.88-25.63-4.58-3.78-3.78-5.73-9.32-5.73-16.06ZM371.9,832.25c0-6.31-2.4-12.62-7.2-17.42-9.61-9.61-25.24-9.61-34.84,0-9.86,9.85-17.57,33.52-8.12,42.97,9.45,9.45,33.11,1.73,42.97-8.12,4.8-4.8,7.2-11.11,7.2-17.42Z"/>
        </g>
        <g>
          <path class="cls-9" d="M301.03,813.04c10.61,10.61,18.74,35.94,8.12,46.56-10.61,10.61-35.94,2.49-46.56-8.12-10.61-10.61-10.61-27.82,0-38.43,10.61-10.61,27.82-10.61,38.43,0Z"/>
          <path class="cls-7" d="M252.1,832.25c0-7.94,3.09-15.4,8.7-21.01,5.61-5.61,13.07-8.7,21.01-8.7s15.4,3.09,21.01,8.7c5.71,5.71,10.58,15.1,12.7,24.51,2.5,11.07.88,20.18-4.58,25.63-5.46,5.46-14.56,7.08-25.63,4.58-9.41-2.13-18.81-7-24.51-12.7-5.61-5.61-8.7-13.08-8.7-21.01ZM311.65,845.28c0-10.66-5.71-23.75-12.41-30.45-9.61-9.61-25.24-9.61-34.84,0-9.61,9.61-9.61,25.24,0,34.84,9.86,9.85,33.52,17.57,42.97,8.12,3.02-3.02,4.29-7.5,4.29-12.52Z"/>
        </g>
        <g>
          <path class="cls-9" d="M366.49,878.5c-10.61-10.61-35.94-18.74-46.56-8.12-10.61,10.61-2.49,35.94,8.12,46.56s27.82,10.61,38.43,0c10.61-10.61,10.61-27.82,0-38.43Z"/>
          <path class="cls-7" d="M312.42,884.63c0-6.73,1.94-12.27,5.73-16.06,5.46-5.46,14.56-7.08,25.63-4.58,9.41,2.13,18.81,7,24.51,12.7,5.61,5.61,8.7,13.08,8.7,21.01s-3.09,15.4-8.7,21.01c-11.59,11.59-30.44,11.59-42.02,0-5.71-5.71-10.58-15.1-12.7-24.51-.77-3.39-1.15-6.6-1.15-9.58ZM371.9,897.72c0-6.31-2.4-12.62-7.2-17.42-9.86-9.85-33.52-17.57-42.97-8.12-9.45,9.45-1.73,33.11,8.12,42.97,9.61,9.61,25.24,9.61,34.84,0,4.8-4.8,7.2-11.11,7.2-17.42Z"/>
        </g>
      </g>
      <g>
        <polygon class="cls-5" points="283.83 895.7 304.09 864.98 283.83 834.26 314.55 854.52 345.27 834.26 325.01 864.98 345.27 895.7 314.55 875.44 283.83 895.7"/>
        <path class="cls-7" d="M274.89,825.33l39.65,26.15,39.65-26.15-26.15,39.65,26.15,39.65-39.65-26.15-39.65,26.15,26.15-39.65-26.15-39.65ZM307.13,864.98l-14.37,21.79,21.79-14.37,21.79,14.37-14.37-21.79,14.37-21.79-21.79,14.37-21.79-14.37,14.37,21.79Z"/>
      </g>
      <g>
        <circle class="cls-4" cx="314.55" cy="864.98" r="27.18"/>
        <path class="cls-7" d="M285.21,864.98c0-7.52,2.86-15.03,8.58-20.76,5.54-5.54,12.92-8.6,20.76-8.6s15.21,3.05,20.76,8.6c11.44,11.44,11.44,30.07,0,41.51-5.54,5.54-12.91,8.6-20.76,8.6s-15.21-3.05-20.76-8.6c-5.72-5.72-8.58-13.24-8.58-20.76ZM339.53,864.98c0-6.4-2.44-12.8-7.31-17.68-4.72-4.72-11-7.32-17.68-7.32s-12.96,2.6-17.68,7.32c-9.75,9.75-9.75,25.61,0,35.36,4.72,4.72,11,7.32,17.68,7.32s12.96-2.6,17.68-7.32c4.87-4.87,7.31-11.28,7.31-17.68Z"/>
      </g>
    </g>
    <g>
      <g>
        <g>
          <path class="cls-9" d="M139.05,878.5c10.61-10.61,35.94-18.74,46.56-8.12,10.61,10.61,2.49,35.94-8.12,46.56s-27.82,10.61-38.43,0-10.61-27.82,0-38.43Z"/>
          <path class="cls-7" d="M128.55,897.72c0-7.94,3.09-15.4,8.7-21.01,5.71-5.71,15.1-10.58,24.51-12.7,11.07-2.5,20.18-.88,25.63,4.58,5.46,5.46,7.08,14.56,4.58,25.63-2.13,9.41-6.99,18.81-12.7,24.51-11.59,11.59-30.44,11.59-42.02,0-5.61-5.61-8.7-13.08-8.7-21.01ZM188.1,884.69c0-5.02-1.27-9.5-4.29-12.52-9.45-9.45-33.11-1.73-42.97,8.12-9.61,9.61-9.61,25.24,0,34.84,9.61,9.61,25.24,9.61,34.84,0,6.7-6.7,12.41-19.79,12.41-30.45Z"/>
        </g>
        <g>
          <path class="cls-9" d="M204.51,813.04c-10.61,10.61-18.74,35.94-8.12,46.56s35.94,2.49,46.56-8.12c10.61-10.61,10.61-27.82,0-38.43-10.61-10.61-27.82-10.61-38.43,0Z"/>
          <path class="cls-7" d="M188.87,845.33c0-2.98.38-6.18,1.15-9.58,2.13-9.41,6.99-18.81,12.7-24.51,5.61-5.61,13.07-8.7,21.01-8.7s15.4,3.09,21.01,8.7c5.61,5.61,8.7,13.08,8.7,21.01s-3.09,15.4-8.7,21.01c-5.71,5.71-15.1,10.58-24.51,12.7-11.07,2.5-20.18.88-25.63-4.58-3.78-3.78-5.73-9.32-5.73-16.06ZM248.35,832.25c0-6.31-2.4-12.62-7.2-17.42-9.61-9.61-25.24-9.61-34.84,0-9.86,9.85-17.57,33.52-8.12,42.97,9.45,9.45,33.11,1.73,42.97-8.12,4.8-4.8,7.2-11.11,7.2-17.42Z"/>
        </g>
        <g>
          <path class="cls-9" d="M177.48,813.04c10.61,10.61,18.74,35.94,8.12,46.56s-35.94,2.49-46.56-8.12-10.61-27.82,0-38.43c10.61-10.61,27.82-10.61,38.43,0Z"/>
          <path class="cls-7" d="M128.55,832.25c0-7.94,3.09-15.4,8.7-21.01,5.61-5.61,13.07-8.7,21.01-8.7s15.4,3.09,21.01,8.7c5.71,5.71,10.58,15.1,12.7,24.51,2.5,11.07.88,20.18-4.58,25.63-5.46,5.46-14.56,7.08-25.63,4.58-9.41-2.13-18.81-7-24.51-12.7-5.61-5.61-8.7-13.08-8.7-21.01ZM188.1,845.28c0-10.66-5.71-23.75-12.41-30.45-9.61-9.61-25.24-9.61-34.84,0-9.61,9.61-9.61,25.24,0,34.84,9.86,9.85,33.52,17.57,42.97,8.12,3.02-3.02,4.29-7.5,4.29-12.52Z"/>
        </g>
        <g>
          <path class="cls-9" d="M242.94,878.5c-10.61-10.61-35.94-18.74-46.56-8.12-10.61,10.61-2.49,35.94,8.12,46.56,10.61,10.61,27.82,10.61,38.43,0,10.61-10.61,10.61-27.82,0-38.43Z"/>
          <path class="cls-7" d="M188.87,884.63c0-6.73,1.94-12.27,5.73-16.06,5.46-5.46,14.56-7.08,25.63-4.58,9.41,2.13,18.81,7,24.51,12.7,5.61,5.61,8.7,13.08,8.7,21.01s-3.09,15.4-8.7,21.01c-11.59,11.59-30.44,11.59-42.02,0-5.71-5.71-10.58-15.1-12.7-24.51-.77-3.39-1.15-6.6-1.15-9.58ZM248.35,897.72c0-6.31-2.4-12.62-7.2-17.42-9.86-9.85-33.52-17.57-42.97-8.12-9.45,9.45-1.73,33.11,8.12,42.97,9.61,9.61,25.24,9.61,34.84,0,4.8-4.8,7.2-11.11,7.2-17.42Z"/>
        </g>
      </g>
      <g>
        <polygon class="cls-5" points="160.28 895.7 180.54 864.98 160.28 834.26 191 854.52 221.72 834.26 201.46 864.98 221.72 895.7 191 875.44 160.28 895.7"/>
        <path class="cls-7" d="M151.34,825.33l39.65,26.15,39.65-26.15-26.15,39.65,26.15,39.65-39.65-26.15-39.65,26.15,26.15-39.65-26.15-39.65ZM183.58,864.98l-14.37,21.79,21.79-14.37,21.79,14.37-14.37-21.79,14.37-21.79-21.79,14.37-21.79-14.37,14.37,21.79Z"/>
      </g>
      <g>
        <circle class="cls-4" cx="191" cy="864.98" r="27.18"/>
        <path class="cls-7" d="M161.66,864.98c0-7.52,2.86-15.03,8.58-20.76,5.54-5.54,12.92-8.6,20.76-8.6s15.21,3.05,20.76,8.6c11.44,11.44,11.44,30.07,0,41.51-5.54,5.54-12.91,8.6-20.76,8.6s-15.21-3.05-20.76-8.6c-5.72-5.72-8.58-13.24-8.58-20.76ZM215.98,864.98c0-6.4-2.44-12.8-7.31-17.68-4.72-4.72-11-7.32-17.68-7.32s-12.96,2.6-17.68,7.32c-9.75,9.75-9.75,25.61,0,35.36,4.72,4.72,11,7.32,17.68,7.32s12.96-2.6,17.68-7.32c4.87-4.87,7.31-11.28,7.31-17.68Z"/>
      </g>
    </g>
    <g>
      <g>
        <g>
          <path class="cls-9" d="M15.5,878.5c10.61-10.61,35.94-18.74,46.56-8.12s2.49,35.94-8.12,46.56-27.82,10.61-38.43,0c-10.61-10.61-10.61-27.82,0-38.43Z"/>
          <path class="cls-7" d="M5,897.72c0-7.94,3.09-15.4,8.7-21.01,5.71-5.71,15.1-10.58,24.51-12.7,11.07-2.5,20.18-.88,25.63,4.58,5.46,5.46,7.08,14.56,4.58,25.63-2.13,9.41-6.99,18.81-12.7,24.51-11.59,11.59-30.44,11.59-42.02,0-5.61-5.61-8.7-13.08-8.7-21.01ZM64.55,884.69c0-5.02-1.27-9.5-4.29-12.52-9.45-9.45-33.11-1.73-42.97,8.12-9.61,9.61-9.61,25.24,0,34.84,9.61,9.61,25.24,9.61,34.84,0,6.7-6.7,12.41-19.79,12.41-30.45Z"/>
        </g>
        <g>
          <path class="cls-9" d="M80.96,813.04c-10.61,10.61-18.74,35.94-8.12,46.56,10.61,10.61,35.94,2.49,46.56-8.12,10.61-10.61,10.61-27.82,0-38.43-10.61-10.61-27.82-10.61-38.43,0Z"/>
          <path class="cls-7" d="M65.32,845.33c0-2.98.38-6.18,1.15-9.58,2.13-9.41,6.99-18.81,12.7-24.51,5.61-5.61,13.07-8.7,21.01-8.7s15.4,3.09,21.01,8.7c5.61,5.61,8.7,13.08,8.7,21.01s-3.09,15.4-8.7,21.01c-5.71,5.71-15.1,10.58-24.51,12.7-11.07,2.5-20.18.88-25.63-4.58-3.78-3.78-5.73-9.32-5.73-16.06ZM124.8,832.25c0-6.31-2.4-12.62-7.2-17.42-9.61-9.61-25.24-9.61-34.84,0-9.86,9.85-17.57,33.52-8.12,42.97,9.45,9.45,33.11,1.73,42.97-8.12,4.8-4.8,7.2-11.11,7.2-17.42Z"/>
        </g>
        <g>
          <path class="cls-9" d="M53.93,813.04c10.61,10.61,18.74,35.94,8.12,46.56-10.61,10.61-35.94,2.49-46.56-8.12-10.61-10.61-10.61-27.82,0-38.43,10.61-10.61,27.82-10.61,38.43,0Z"/>
          <path class="cls-7" d="M5,832.25c0-7.94,3.09-15.4,8.7-21.01,5.61-5.61,13.07-8.7,21.01-8.7s15.4,3.09,21.01,8.7c5.71,5.71,10.58,15.1,12.7,24.51,2.5,11.07.88,20.18-4.58,25.63-5.46,5.46-14.56,7.08-25.63,4.58-9.41-2.13-18.81-7-24.51-12.7-5.61-5.61-8.7-13.08-8.7-21.01ZM64.55,845.28c0-10.66-5.71-23.75-12.41-30.45-9.61-9.61-25.24-9.61-34.84,0-9.61,9.61-9.61,25.24,0,34.84,9.86,9.85,33.52,17.57,42.97,8.12,3.02-3.02,4.29-7.5,4.29-12.52Z"/>
        </g>
        <g>
          <path class="cls-9" d="M119.4,878.5c-10.61-10.61-35.94-18.74-46.56-8.12s-2.49,35.94,8.12,46.56,27.82,10.61,38.43,0,10.61-27.82,0-38.43Z"/>
          <path class="cls-7" d="M65.32,884.63c0-6.73,1.94-12.27,5.73-16.06,5.46-5.46,14.56-7.08,25.63-4.58,9.41,2.13,18.81,7,24.51,12.7,5.61,5.61,8.7,13.08,8.7,21.01s-3.09,15.4-8.7,21.01c-11.59,11.59-30.44,11.59-42.02,0-5.71-5.71-10.58-15.1-12.7-24.51-.77-3.39-1.15-6.6-1.15-9.58ZM124.8,897.72c0-6.31-2.4-12.62-7.2-17.42-9.86-9.85-33.52-17.57-42.97-8.12-9.45,9.45-1.73,33.11,8.12,42.97,9.61,9.61,25.24,9.61,34.84,0,4.8-4.8,7.2-11.11,7.2-17.42Z"/>
        </g>
      </g>
      <g>
        <polygon class="cls-5" points="36.73 895.7 56.99 864.98 36.73 834.26 67.45 854.52 98.17 834.26 77.91 864.98 98.17 895.7 67.45 875.44 36.73 895.7"/>
        <path class="cls-7" d="M27.79,825.33l39.65,26.15,39.65-26.15-26.15,39.65,26.15,39.65-39.65-26.15-39.65,26.15,26.15-39.65-26.15-39.65ZM60.03,864.98l-14.37,21.79,21.79-14.37,21.79,14.37-14.37-21.79,14.37-21.79-21.79,14.37-21.79-14.37,14.37,21.79Z"/>
      </g>
      <g>
        <circle class="cls-4" cx="67.45" cy="864.98" r="27.18"/>
        <path class="cls-7" d="M38.11,864.98c0-7.52,2.86-15.03,8.58-20.76,11.44-11.44,30.07-11.44,41.51,0,11.44,11.44,11.44,30.07,0,41.51-11.44,11.44-30.07,11.44-41.51,0-5.72-5.72-8.58-13.24-8.58-20.76ZM92.44,864.98c0-6.4-2.44-12.8-7.31-17.68-9.75-9.75-25.61-9.75-35.36,0-9.75,9.75-9.75,25.61,0,35.36,9.75,9.75,25.61,9.75,35.36,0,4.87-4.87,7.31-11.28,7.31-17.68Z"/>
      </g>
    </g>
  </g>
  <g>
    <g>
      <g>
        <g>
          <path class="cls-9" d="M880.35,148.54c10.61-10.61,35.94-18.74,46.56-8.12,10.61,10.61,2.49,35.94-8.12,46.56-10.61,10.61-27.82,10.61-38.43,0-10.61-10.61-10.61-27.82,0-38.43Z"/>
          <path class="cls-7" d="M869.85,167.76c0-7.94,3.09-15.4,8.7-21.01,5.71-5.71,15.1-10.58,24.51-12.7,11.07-2.5,20.18-.88,25.63,4.58,5.46,5.46,7.08,14.56,4.58,25.63-2.13,9.41-6.99,18.81-12.7,24.51-5.61,5.61-13.07,8.7-21.01,8.7s-15.4-3.09-21.01-8.7-8.7-13.07-8.7-21.01ZM929.33,154.76c0-5.38-1.44-9.77-4.22-12.55-9.45-9.45-33.11-1.73-42.97,8.12-9.61,9.61-9.61,25.24,0,34.84,9.61,9.61,25.24,9.61,34.84,0,4.99-4.99,9.44-13.64,11.34-22.04.67-2.98,1-5.79,1-8.37Z"/>
        </g>
        <g>
          <path class="cls-9" d="M945.81,83.08c-10.61,10.61-18.74,35.94-8.12,46.56,10.61,10.61,35.94,2.49,46.56-8.12,10.61-10.61,10.61-27.82,0-38.43-10.61-10.61-27.82-10.61-38.43,0Z"/>
          <path class="cls-7" d="M930.16,115.38c0-2.98.38-6.18,1.15-9.58,2.13-9.41,6.99-18.81,12.7-24.51,5.61-5.61,13.07-8.7,21.01-8.7s15.4,3.09,21.01,8.7c5.61,5.61,8.7,13.07,8.7,21.01s-3.09,15.4-8.7,21.01c-5.71,5.71-15.1,10.58-24.51,12.7-11.07,2.5-20.18.88-25.63-4.58-3.78-3.78-5.73-9.32-5.73-16.05ZM989.65,102.3c0-6.31-2.4-12.62-7.2-17.42-9.61-9.61-25.24-9.61-34.84,0-9.85,9.85-17.57,33.52-8.12,42.97,9.45,9.45,33.11,1.73,42.97-8.12,4.8-4.8,7.2-11.11,7.2-17.42Z"/>
        </g>
        <g>
          <path class="cls-9" d="M918.78,83.08c10.61,10.61,18.74,35.94,8.12,46.56-10.61,10.61-35.94,2.49-46.56-8.12-10.61-10.61-10.61-27.82,0-38.43,10.61-10.61,27.82-10.61,38.43,0Z"/>
          <path class="cls-7" d="M869.85,102.3c0-7.94,3.09-15.4,8.7-21.01s13.07-8.7,21.01-8.7,15.4,3.09,21.01,8.7c5.71,5.71,10.58,15.1,12.7,24.51,2.5,11.07.88,20.18-4.58,25.63-5.46,5.46-14.56,7.08-25.63,4.58-9.41-2.13-18.81-7-24.51-12.7-5.61-5.61-8.7-13.07-8.7-21.01ZM929.4,115.32c0-10.66-5.71-23.74-12.41-30.45-9.61-9.61-25.24-9.61-34.84,0-9.61,9.61-9.61,25.24,0,34.84,9.86,9.85,33.52,17.57,42.97,8.12,3.02-3.02,4.29-7.5,4.29-12.52Z"/>
        </g>
        <g>
          <path class="cls-9" d="M984.24,148.54c-10.61-10.61-35.94-18.74-46.56-8.12-10.61,10.61-2.49,35.94,8.12,46.56,10.61,10.61,27.82,10.61,38.43,0,10.61-10.61,10.61-27.82,0-38.43Z"/>
          <path class="cls-7" d="M930.16,154.68c0-6.73,1.94-12.27,5.73-16.05,5.46-5.46,14.56-7.08,25.63-4.58,9.41,2.13,18.81,7,24.51,12.7,5.61,5.61,8.7,13.07,8.7,21.01s-3.09,15.4-8.7,21.01c-5.61,5.61-13.07,8.7-21.01,8.7s-15.4-3.09-21.01-8.7c-5.71-5.71-10.58-15.1-12.7-24.51-.77-3.39-1.15-6.6-1.15-9.58ZM989.65,167.76c0-6.31-2.4-12.62-7.2-17.42-9.86-9.85-33.52-17.57-42.97-8.12-4.12,4.12-5.29,11.75-3.22,20.92,1.9,8.4,6.35,17.05,11.34,22.04,9.61,9.61,25.24,9.61,34.84,0,4.8-4.8,7.2-11.11,7.2-17.42Z"/>
        </g>
      </g>
      <g>
        <polygon class="cls-5" points="901.57 165.75 921.83 135.03 901.57 104.31 932.29 124.57 963.01 104.31 942.75 135.03 963.01 165.75 932.29 145.49 901.57 165.75"/>
        <path class="cls-7" d="M892.64,95.38l39.65,26.15,39.65-26.15-26.15,39.65,26.15,39.65-39.65-26.15-39.65,26.15,26.15-39.65-26.15-39.65ZM924.88,135.03l-14.37,21.79,21.79-14.37,21.79,14.37-14.37-21.79,14.37-21.79-21.79,14.37-21.79-14.37,14.37,21.79Z"/>
      </g>
      <g>
        <circle class="cls-4" cx="932.29" cy="135.03" r="27.18"/>
        <path class="cls-7" d="M902.95,135.03c0-7.52,2.86-15.03,8.58-20.76,11.44-11.44,30.07-11.44,41.51,0,11.44,11.44,11.44,30.07,0,41.51-11.44,11.44-30.07,11.44-41.51,0-5.72-5.72-8.58-13.24-8.58-20.76ZM957.28,135.03c0-6.4-2.44-12.8-7.31-17.68-9.75-9.75-25.61-9.75-35.36,0-9.75,9.75-9.75,25.61,0,35.36,9.75,9.75,25.61,9.75,35.36,0,4.87-4.87,7.31-11.28,7.31-17.68Z"/>
      </g>
    </g>
    <g>
      <g>
        <g>
          <path class="cls-9" d="M756.8,148.54c10.61-10.61,35.94-18.74,46.56-8.12,10.61,10.61,2.49,35.94-8.12,46.56-10.61,10.61-27.82,10.61-38.43,0-10.61-10.61-10.61-27.82,0-38.43Z"/>
          <path class="cls-7" d="M746.3,167.76c0-7.94,3.09-15.4,8.7-21.01,5.71-5.71,15.1-10.58,24.51-12.7,11.07-2.5,20.18-.88,25.63,4.58,5.46,5.46,7.08,14.56,4.58,25.63-2.13,9.41-6.99,18.81-12.7,24.51-5.61,5.61-13.07,8.7-21.01,8.7s-15.4-3.09-21.01-8.7c-5.61-5.61-8.7-13.07-8.7-21.01ZM805.78,154.76c0-5.38-1.44-9.77-4.22-12.55-9.45-9.45-33.11-1.73-42.97,8.12-9.61,9.61-9.61,25.24,0,34.84,9.61,9.61,25.24,9.61,34.84,0,4.99-4.99,9.44-13.64,11.34-22.04.67-2.98,1-5.79,1-8.37Z"/>
        </g>
        <g>
          <path class="cls-9" d="M822.26,83.08c-10.61,10.61-18.74,35.94-8.12,46.56,10.61,10.61,35.94,2.49,46.56-8.12,10.61-10.61,10.61-27.82,0-38.43-10.61-10.61-27.82-10.61-38.43,0Z"/>
          <path class="cls-7" d="M806.61,115.38c0-2.98.38-6.18,1.15-9.58,2.13-9.41,6.99-18.81,12.7-24.51,5.61-5.61,13.07-8.7,21.01-8.7s15.4,3.09,21.01,8.7,8.7,13.07,8.7,21.01-3.09,15.4-8.7,21.01c-5.71,5.71-15.1,10.58-24.51,12.7-11.07,2.5-20.18.88-25.63-4.58-3.78-3.78-5.73-9.32-5.73-16.05ZM866.1,102.3c0-6.31-2.4-12.62-7.2-17.42-9.61-9.61-25.24-9.61-34.84,0-9.85,9.85-17.57,33.52-8.12,42.97,9.45,9.45,33.11,1.73,42.97-8.12,4.8-4.8,7.2-11.11,7.2-17.42Z"/>
        </g>
        <g>
          <path class="cls-9" d="M795.23,83.08c10.61,10.61,18.74,35.94,8.12,46.56-10.61,10.61-35.94,2.49-46.56-8.12-10.61-10.61-10.61-27.82,0-38.43,10.61-10.61,27.82-10.61,38.43,0Z"/>
          <path class="cls-7" d="M746.3,102.3c0-7.94,3.09-15.4,8.7-21.01,5.61-5.61,13.07-8.7,21.01-8.7s15.4,3.09,21.01,8.7c5.71,5.71,10.58,15.1,12.7,24.51,2.5,11.07.88,20.18-4.58,25.63-5.46,5.46-14.56,7.08-25.63,4.58-9.41-2.13-18.81-7-24.51-12.7-5.61-5.61-8.7-13.07-8.7-21.01ZM805.85,115.32c0-10.66-5.71-23.74-12.41-30.45-9.61-9.61-25.24-9.61-34.84,0-9.61,9.61-9.61,25.24,0,34.84,9.86,9.85,33.52,17.57,42.97,8.12,3.02-3.02,4.29-7.5,4.29-12.52Z"/>
        </g>
        <g>
          <path class="cls-9" d="M860.69,148.54c-10.61-10.61-35.94-18.74-46.56-8.12s-2.49,35.94,8.12,46.56c10.61,10.61,27.82,10.61,38.43,0s10.61-27.82,0-38.43Z"/>
          <path class="cls-7" d="M806.61,154.68c0-6.73,1.94-12.27,5.73-16.05,5.46-5.46,14.56-7.08,25.63-4.58,9.41,2.13,18.81,7,24.51,12.7,5.61,5.61,8.7,13.07,8.7,21.01s-3.09,15.4-8.7,21.01-13.07,8.7-21.01,8.7-15.4-3.09-21.01-8.7c-5.71-5.71-10.58-15.1-12.7-24.51-.77-3.39-1.15-6.6-1.15-9.58ZM866.1,167.76c0-6.31-2.4-12.62-7.2-17.42-9.86-9.85-33.52-17.57-42.97-8.12-4.12,4.12-5.29,11.75-3.22,20.92,1.9,8.4,6.35,17.05,11.34,22.04,9.61,9.61,25.24,9.61,34.84,0,4.8-4.8,7.2-11.11,7.2-17.42Z"/>
        </g>
      </g>
      <g>
        <polygon class="cls-5" points="778.03 165.75 798.29 135.03 778.03 104.31 808.74 124.57 839.46 104.31 819.2 135.03 839.46 165.75 808.74 145.49 778.03 165.75"/>
        <path class="cls-7" d="M769.09,95.38l39.65,26.15,39.65-26.15-26.15,39.65,26.15,39.65-39.65-26.15-39.65,26.15,26.15-39.65-26.15-39.65ZM801.33,135.03l-14.37,21.79,21.79-14.37,21.79,14.37-14.37-21.79,14.37-21.79-21.79,14.37-21.79-14.37,14.37,21.79Z"/>
      </g>
      <g>
        <circle class="cls-4" cx="808.74" cy="135.03" r="27.18"/>
        <path class="cls-7" d="M779.4,135.03c0-7.52,2.86-15.03,8.58-20.76,11.44-11.44,30.07-11.44,41.51,0,11.44,11.44,11.44,30.07,0,41.51-11.44,11.44-30.07,11.44-41.51,0-5.72-5.72-8.58-13.24-8.58-20.76ZM833.73,135.03c0-6.4-2.44-12.8-7.31-17.68-9.75-9.75-25.61-9.75-35.36,0-9.75,9.75-9.75,25.61,0,35.36,9.75,9.75,25.61,9.75,35.36,0,4.87-4.87,7.31-11.28,7.31-17.68Z"/>
      </g>
    </g>
    <g>
      <g>
        <g>
          <path class="cls-9" d="M633.25,148.54c10.61-10.61,35.94-18.74,46.56-8.12s2.49,35.94-8.12,46.56c-10.61,10.61-27.82,10.61-38.43,0-10.61-10.61-10.61-27.82,0-38.43Z"/>
          <path class="cls-7" d="M622.75,167.76c0-7.94,3.09-15.4,8.7-21.01,5.71-5.71,15.1-10.58,24.51-12.7,11.07-2.5,20.18-.88,25.63,4.58,5.46,5.46,7.08,14.56,4.58,25.63-2.13,9.41-6.99,18.81-12.7,24.51-5.61,5.61-13.07,8.7-21.01,8.7s-15.4-3.09-21.01-8.7-8.7-13.07-8.7-21.01ZM682.23,154.76c0-5.38-1.44-9.77-4.22-12.55-9.45-9.45-33.11-1.73-42.97,8.12-9.61,9.61-9.61,25.24,0,34.84,9.61,9.61,25.24,9.61,34.84,0,4.99-4.99,9.44-13.64,11.34-22.04.67-2.98,1-5.79,1-8.37Z"/>
        </g>
        <g>
          <path class="cls-9" d="M698.71,83.08c-10.61,10.61-18.74,35.94-8.12,46.56,10.61,10.61,35.94,2.49,46.56-8.12,10.61-10.61,10.61-27.82,0-38.43-10.61-10.61-27.82-10.61-38.43,0Z"/>
          <path class="cls-7" d="M683.06,115.38c0-2.98.38-6.18,1.15-9.58,2.13-9.41,6.99-18.81,12.7-24.51,5.61-5.61,13.07-8.7,21.01-8.7s15.4,3.09,21.01,8.7,8.7,13.07,8.7,21.01-3.09,15.4-8.7,21.01c-5.71,5.71-15.1,10.58-24.51,12.7-11.07,2.5-20.18.88-25.63-4.58-3.78-3.78-5.73-9.32-5.73-16.05ZM742.55,102.3c0-6.31-2.4-12.62-7.2-17.42-9.61-9.61-25.24-9.61-34.84,0-9.85,9.85-17.57,33.52-8.12,42.97,9.45,9.45,33.11,1.73,42.97-8.12,4.8-4.8,7.2-11.11,7.2-17.42Z"/>
        </g>
        <g>
          <path class="cls-9" d="M671.68,83.08c10.61,10.61,18.74,35.94,8.12,46.56-10.61,10.61-35.94,2.49-46.56-8.12-10.61-10.61-10.61-27.82,0-38.43s27.82-10.61,38.43,0Z"/>
          <path class="cls-7" d="M622.75,102.3c0-7.94,3.09-15.4,8.7-21.01s13.07-8.7,21.01-8.7,15.4,3.09,21.01,8.7c5.71,5.71,10.58,15.1,12.7,24.51,2.5,11.07.88,20.18-4.58,25.63-5.46,5.46-14.56,7.08-25.63,4.58-9.41-2.13-18.81-7-24.51-12.7-5.61-5.61-8.7-13.07-8.7-21.01ZM682.3,115.32c0-10.66-5.71-23.74-12.41-30.45-9.61-9.61-25.24-9.61-34.84,0-9.61,9.61-9.61,25.24,0,34.84,9.86,9.85,33.52,17.57,42.97,8.12,3.02-3.02,4.29-7.5,4.29-12.52Z"/>
        </g>
        <g>
          <path class="cls-9" d="M737.14,148.54c-10.61-10.61-35.94-18.74-46.56-8.12-10.61,10.61-2.49,35.94,8.12,46.56,10.61,10.61,27.82,10.61,38.43,0,10.61-10.61,10.61-27.82,0-38.43Z"/>
          <path class="cls-7" d="M683.06,154.68c0-6.73,1.94-12.27,5.73-16.05,5.46-5.46,14.56-7.08,25.63-4.58,9.41,2.13,18.81,7,24.51,12.7,5.61,5.61,8.7,13.07,8.7,21.01s-3.09,15.4-8.7,21.01-13.07,8.7-21.01,8.7-15.4-3.09-21.01-8.7c-5.71-5.71-10.58-15.1-12.7-24.51-.77-3.39-1.15-6.6-1.15-9.58ZM742.55,167.76c0-6.31-2.4-12.62-7.2-17.42-9.86-9.85-33.52-17.57-42.97-8.12-4.12,4.12-5.29,11.75-3.22,20.92,1.9,8.4,6.35,17.05,11.34,22.04,9.61,9.61,25.24,9.61,34.84,0,4.8-4.8,7.2-11.11,7.2-17.42Z"/>
        </g>
      </g>
      <g>
        <polygon class="cls-5" points="654.48 165.75 674.74 135.03 654.48 104.31 685.2 124.57 715.91 104.31 695.65 135.03 715.91 165.75 685.2 145.49 654.48 165.75"/>
        <path class="cls-7" d="M645.54,95.38l39.65,26.15,39.65-26.15-26.15,39.65,26.15,39.65-39.65-26.15-39.65,26.15,26.15-39.65-26.15-39.65ZM677.78,135.03l-14.37,21.79,21.79-14.37,21.79,14.37-14.37-21.79,14.37-21.79-21.79,14.37-21.79-14.37,14.37,21.79Z"/>
      </g>
      <g>
        <circle class="cls-4" cx="685.2" cy="135.03" r="27.18"/>
        <path class="cls-7" d="M655.86,135.03c0-7.52,2.86-15.03,8.58-20.76,11.44-11.44,30.07-11.44,41.51,0,11.44,11.44,11.44,30.07,0,41.51-11.44,11.44-30.07,11.44-41.51,0-5.72-5.72-8.58-13.24-8.58-20.76ZM710.18,135.03c0-6.4-2.44-12.8-7.31-17.68-9.75-9.75-25.61-9.75-35.36,0-9.75,9.75-9.75,25.61,0,35.36,9.75,9.75,25.61,9.75,35.36,0,4.87-4.87,7.31-11.28,7.31-17.68Z"/>
      </g>
    </g>
    <g>
      <g>
        <g>
          <path class="cls-9" d="M509.7,148.54c10.61-10.61,35.94-18.74,46.56-8.12,10.61,10.61,2.49,35.94-8.12,46.56-10.61,10.61-27.82,10.61-38.43,0-10.61-10.61-10.61-27.82,0-38.43Z"/>
          <path class="cls-7" d="M499.2,167.76c0-7.94,3.09-15.4,8.7-21.01,5.71-5.71,15.1-10.58,24.51-12.7,11.07-2.5,20.18-.88,25.63,4.58,5.46,5.46,7.08,14.56,4.58,25.63-2.13,9.41-6.99,18.81-12.7,24.51-5.61,5.61-13.07,8.7-21.01,8.7s-15.4-3.09-21.01-8.7-8.7-13.07-8.7-21.01ZM558.68,154.76c0-5.38-1.44-9.77-4.22-12.55-9.45-9.45-33.11-1.73-42.97,8.12-9.61,9.61-9.61,25.24,0,34.84,9.61,9.61,25.24,9.61,34.84,0,4.99-4.99,9.44-13.64,11.34-22.04.67-2.98,1-5.79,1-8.37Z"/>
        </g>
        <g>
          <path class="cls-9" d="M575.16,83.08c-10.61,10.61-18.74,35.94-8.12,46.56,10.61,10.61,35.94,2.49,46.56-8.12s10.61-27.82,0-38.43c-10.61-10.61-27.82-10.61-38.43,0Z"/>
          <path class="cls-7" d="M559.51,115.38c0-2.98.38-6.18,1.15-9.58,2.13-9.41,6.99-18.81,12.7-24.51,5.61-5.61,13.07-8.7,21.01-8.7s15.4,3.09,21.01,8.7c5.61,5.61,8.7,13.07,8.7,21.01s-3.09,15.4-8.7,21.01c-5.71,5.71-15.1,10.58-24.51,12.7-11.07,2.5-20.18.88-25.63-4.58-3.78-3.78-5.73-9.32-5.73-16.05ZM619,102.3c0-6.31-2.4-12.62-7.2-17.42-9.61-9.61-25.24-9.61-34.84,0-9.85,9.85-17.57,33.52-8.12,42.97,9.45,9.45,33.11,1.73,42.97-8.12,4.8-4.8,7.2-11.11,7.2-17.42Z"/>
        </g>
        <g>
          <path class="cls-9" d="M548.13,83.08c10.61,10.61,18.74,35.94,8.12,46.56-10.61,10.61-35.94,2.49-46.56-8.12s-10.61-27.82,0-38.43c10.61-10.61,27.82-10.61,38.43,0Z"/>
          <path class="cls-7" d="M499.2,102.3c0-7.94,3.09-15.4,8.7-21.01s13.07-8.7,21.01-8.7,15.4,3.09,21.01,8.7c5.71,5.71,10.58,15.1,12.7,24.51,2.5,11.07.88,20.18-4.58,25.63-5.46,5.46-14.56,7.08-25.63,4.58-9.41-2.13-18.81-7-24.51-12.7-5.61-5.61-8.7-13.07-8.7-21.01ZM558.75,115.32c0-10.66-5.71-23.74-12.41-30.45-9.61-9.61-25.24-9.61-34.84,0-9.61,9.61-9.61,25.24,0,34.84,9.86,9.85,33.52,17.57,42.97,8.12,3.02-3.02,4.29-7.5,4.29-12.52Z"/>
        </g>
        <g>
          <path class="cls-9" d="M613.59,148.54c-10.61-10.61-35.94-18.74-46.56-8.12-10.61,10.61-2.49,35.94,8.12,46.56,10.61,10.61,27.82,10.61,38.43,0,10.61-10.61,10.61-27.82,0-38.43Z"/>
          <path class="cls-7" d="M559.51,154.68c0-6.73,1.94-12.27,5.73-16.05,5.46-5.46,14.56-7.08,25.63-4.58,9.41,2.13,18.81,7,24.51,12.7,5.61,5.61,8.7,13.07,8.7,21.01s-3.09,15.4-8.7,21.01c-5.61,5.61-13.07,8.7-21.01,8.7s-15.4-3.09-21.01-8.7c-5.71-5.71-10.58-15.1-12.7-24.51-.77-3.39-1.15-6.6-1.15-9.58ZM619,167.76c0-6.31-2.4-12.62-7.2-17.42-9.86-9.85-33.52-17.57-42.97-8.12-4.12,4.12-5.29,11.75-3.22,20.92,1.9,8.4,6.35,17.05,11.34,22.04,9.61,9.61,25.24,9.61,34.84,0,4.8-4.8,7.2-11.11,7.2-17.42Z"/>
        </g>
      </g>
      <g>
        <polygon class="cls-5" points="530.93 165.75 551.19 135.03 530.93 104.31 561.65 124.57 592.37 104.31 572.11 135.03 592.37 165.75 561.65 145.49 530.93 165.75"/>
        <path class="cls-7" d="M521.99,95.38l39.65,26.15,39.65-26.15-26.15,39.65,26.15,39.65-39.65-26.15-39.65,26.15,26.15-39.65-26.15-39.65ZM554.23,135.03l-14.37,21.79,21.79-14.37,21.79,14.37-14.37-21.79,14.37-21.79-21.79,14.37-21.79-14.37,14.37,21.79Z"/>
      </g>
      <g>
        <circle class="cls-4" cx="561.65" cy="135.03" r="27.18"/>
        <path class="cls-7" d="M532.31,135.03c0-7.52,2.86-15.03,8.58-20.76,11.44-11.44,30.07-11.44,41.51,0,11.44,11.44,11.44,30.07,0,41.51-11.44,11.44-30.07,11.44-41.51,0-5.72-5.72-8.58-13.24-8.58-20.76ZM586.63,135.03c0-6.4-2.44-12.8-7.31-17.68-9.75-9.75-25.61-9.75-35.36,0-9.75,9.75-9.75,25.61,0,35.36,9.75,9.75,25.61,9.75,35.36,0,4.87-4.87,7.31-11.28,7.31-17.68Z"/>
      </g>
    </g>
    <g>
      <g>
        <g>
          <path class="cls-9" d="M386.15,148.54c10.61-10.61,35.94-18.74,46.56-8.12,10.61,10.61,2.49,35.94-8.12,46.56-10.61,10.61-27.82,10.61-38.43,0-10.61-10.61-10.61-27.82,0-38.43Z"/>
          <path class="cls-7" d="M375.65,167.76c0-7.94,3.09-15.4,8.7-21.01,5.71-5.71,15.1-10.58,24.51-12.7,11.07-2.5,20.18-.88,25.63,4.58,5.46,5.46,7.08,14.56,4.58,25.63-2.13,9.41-6.99,18.81-12.7,24.51-5.61,5.61-13.07,8.7-21.01,8.7s-15.4-3.09-21.01-8.7-8.7-13.07-8.7-21.01ZM435.13,154.76c0-5.38-1.44-9.77-4.22-12.55-9.45-9.45-33.11-1.73-42.97,8.12-9.61,9.61-9.61,25.24,0,34.84,9.61,9.61,25.24,9.61,34.84,0,4.99-4.99,9.44-13.64,11.34-22.04.67-2.98,1-5.79,1-8.37Z"/>
        </g>
        <g>
          <path class="cls-9" d="M451.61,83.08c-10.61,10.61-18.74,35.94-8.12,46.56,10.61,10.61,35.94,2.49,46.56-8.12,10.61-10.61,10.61-27.82,0-38.43s-27.82-10.61-38.43,0Z"/>
          <path class="cls-7" d="M435.96,115.38c0-2.98.38-6.18,1.15-9.58,2.13-9.41,6.99-18.81,12.7-24.51,5.61-5.61,13.07-8.7,21.01-8.7s15.4,3.09,21.01,8.7c5.61,5.61,8.7,13.07,8.7,21.01s-3.09,15.4-8.7,21.01c-5.71,5.71-15.1,10.58-24.51,12.7-11.07,2.5-20.18.88-25.63-4.58-3.78-3.78-5.73-9.32-5.73-16.05ZM495.45,102.3c0-6.31-2.4-12.62-7.2-17.42-9.61-9.61-25.24-9.61-34.84,0-9.85,9.85-17.57,33.52-8.12,42.97,9.45,9.45,33.11,1.73,42.97-8.12,4.8-4.8,7.2-11.11,7.2-17.42Z"/>
        </g>
        <g>
          <path class="cls-9" d="M424.58,83.08c10.61,10.61,18.74,35.94,8.12,46.56s-35.94,2.49-46.56-8.12-10.61-27.82,0-38.43c10.61-10.61,27.82-10.61,38.43,0Z"/>
          <path class="cls-7" d="M375.65,102.3c0-7.94,3.09-15.4,8.7-21.01s13.07-8.7,21.01-8.7,15.4,3.09,21.01,8.7c5.71,5.71,10.58,15.1,12.7,24.51,2.5,11.07.88,20.18-4.58,25.63-5.46,5.46-14.56,7.08-25.63,4.58-9.41-2.13-18.81-7-24.51-12.7-5.61-5.61-8.7-13.07-8.7-21.01ZM435.2,115.32c0-10.66-5.71-23.74-12.41-30.45-9.61-9.61-25.24-9.61-34.84,0-9.61,9.61-9.61,25.24,0,34.84,9.86,9.85,33.52,17.57,42.97,8.12,3.02-3.02,4.29-7.5,4.29-12.52Z"/>
        </g>
        <g>
          <path class="cls-9" d="M490.04,148.54c-10.61-10.61-35.94-18.74-46.56-8.12s-2.49,35.94,8.12,46.56c10.61,10.61,27.82,10.61,38.43,0,10.61-10.61,10.61-27.82,0-38.43Z"/>
          <path class="cls-7" d="M435.96,154.68c0-6.73,1.94-12.27,5.73-16.05,5.46-5.46,14.56-7.08,25.63-4.58,9.41,2.13,18.81,7,24.51,12.7,5.61,5.61,8.7,13.07,8.7,21.01s-3.09,15.4-8.7,21.01c-5.61,5.61-13.07,8.7-21.01,8.7s-15.4-3.09-21.01-8.7c-5.71-5.71-10.58-15.1-12.7-24.51-.77-3.39-1.15-6.6-1.15-9.58ZM495.45,167.76c0-6.31-2.4-12.62-7.2-17.42-9.86-9.85-33.52-17.57-42.97-8.12-4.12,4.12-5.29,11.75-3.22,20.92,1.9,8.4,6.35,17.05,11.34,22.04,9.61,9.61,25.24,9.61,34.84,0,4.8-4.8,7.2-11.11,7.2-17.42Z"/>
        </g>
      </g>
      <g>
        <polygon class="cls-5" points="407.38 165.75 427.64 135.03 407.38 104.31 438.1 124.57 468.82 104.31 448.56 135.03 468.82 165.75 438.1 145.49 407.38 165.75"/>
        <path class="cls-7" d="M398.44,95.38l39.65,26.15,39.65-26.15-26.15,39.65,26.15,39.65-39.65-26.15-39.65,26.15,26.15-39.65-26.15-39.65ZM430.68,135.03l-14.37,21.79,21.79-14.37,21.79,14.37-14.37-21.79,14.37-21.79-21.79,14.37-21.79-14.37,14.37,21.79Z"/>
      </g>
      <g>
        <circle class="cls-4" cx="438.1" cy="135.03" r="27.18"/>
        <path class="cls-7" d="M408.76,135.03c0-7.52,2.86-15.03,8.58-20.76,11.44-11.44,30.07-11.44,41.51,0,11.44,11.44,11.44,30.07,0,41.51-11.44,11.44-30.07,11.44-41.51,0-5.72-5.72-8.58-13.24-8.58-20.76ZM463.08,135.03c0-6.4-2.44-12.8-7.31-17.68-9.75-9.75-25.61-9.75-35.36,0-9.75,9.75-9.75,25.61,0,35.36,9.75,9.75,25.61,9.75,35.36,0,4.87-4.87,7.31-11.28,7.31-17.68Z"/>
      </g>
    </g>
    <g>
      <g>
        <g>
          <path class="cls-9" d="M262.6,148.54c10.61-10.61,35.94-18.74,46.56-8.12,10.61,10.61,2.49,35.94-8.12,46.56s-27.82,10.61-38.43,0-10.61-27.82,0-38.43Z"/>
          <path class="cls-7" d="M252.1,167.76c0-7.94,3.09-15.4,8.7-21.01,5.71-5.71,15.1-10.58,24.51-12.7,11.07-2.5,20.18-.88,25.63,4.58,5.46,5.46,7.08,14.56,4.58,25.63-2.13,9.41-6.99,18.81-12.7,24.51-5.61,5.61-13.07,8.7-21.01,8.7s-15.4-3.09-21.01-8.7-8.7-13.07-8.7-21.01ZM311.58,154.76c0-5.38-1.44-9.77-4.22-12.55-9.45-9.45-33.11-1.73-42.97,8.12-9.61,9.61-9.61,25.24,0,34.84,9.61,9.61,25.24,9.61,34.84,0,4.99-4.99,9.44-13.64,11.34-22.04.67-2.98,1-5.79,1-8.37Z"/>
        </g>
        <g>
          <path class="cls-9" d="M328.06,83.08c-10.61,10.61-18.74,35.94-8.12,46.56,10.61,10.61,35.94,2.49,46.56-8.12,10.61-10.61,10.61-27.82,0-38.43-10.61-10.61-27.82-10.61-38.43,0Z"/>
          <path class="cls-7" d="M312.42,115.38c0-2.98.38-6.18,1.15-9.58,2.13-9.41,6.99-18.81,12.7-24.51,5.61-5.61,13.07-8.7,21.01-8.7s15.4,3.09,21.01,8.7c5.61,5.61,8.7,13.07,8.7,21.01s-3.09,15.4-8.7,21.01c-5.71,5.71-15.1,10.58-24.51,12.7-11.07,2.5-20.18.88-25.63-4.58-3.78-3.78-5.73-9.32-5.73-16.05ZM371.9,102.3c0-6.31-2.4-12.62-7.2-17.42-9.61-9.61-25.24-9.61-34.84,0-9.85,9.85-17.57,33.52-8.12,42.97,9.45,9.45,33.11,1.73,42.97-8.12,4.8-4.8,7.2-11.11,7.2-17.42Z"/>
        </g>
        <g>
          <path class="cls-9" d="M301.03,83.08c10.61,10.61,18.74,35.94,8.12,46.56-10.61,10.61-35.94,2.49-46.56-8.12-10.61-10.61-10.61-27.82,0-38.43,10.61-10.61,27.82-10.61,38.43,0Z"/>
          <path class="cls-7" d="M252.1,102.3c0-7.94,3.09-15.4,8.7-21.01s13.07-8.7,21.01-8.7,15.4,3.09,21.01,8.7c5.71,5.71,10.58,15.1,12.7,24.51,2.5,11.07.88,20.18-4.58,25.63-5.46,5.46-14.56,7.08-25.63,4.58-9.41-2.13-18.81-7-24.51-12.7-5.61-5.61-8.7-13.07-8.7-21.01ZM311.65,115.32c0-10.66-5.71-23.74-12.41-30.45-9.61-9.61-25.24-9.61-34.84,0-9.61,9.61-9.61,25.24,0,34.84,9.86,9.85,33.52,17.57,42.97,8.12,3.02-3.02,4.29-7.5,4.29-12.52Z"/>
        </g>
        <g>
          <path class="cls-9" d="M366.49,148.54c-10.61-10.61-35.94-18.74-46.56-8.12-10.61,10.61-2.49,35.94,8.12,46.56,10.61,10.61,27.82,10.61,38.43,0,10.61-10.61,10.61-27.82,0-38.43Z"/>
          <path class="cls-7" d="M312.42,154.68c0-6.73,1.94-12.27,5.73-16.05,5.46-5.46,14.56-7.08,25.63-4.58,9.41,2.13,18.81,7,24.51,12.7,5.61,5.61,8.7,13.07,8.7,21.01s-3.09,15.4-8.7,21.01c-5.61,5.61-13.07,8.7-21.01,8.7s-15.4-3.09-21.01-8.7c-5.71-5.71-10.58-15.1-12.7-24.51-.77-3.39-1.15-6.6-1.15-9.58ZM371.9,167.76c0-6.31-2.4-12.62-7.2-17.42-9.86-9.85-33.52-17.57-42.97-8.12-4.12,4.12-5.29,11.75-3.22,20.92,1.9,8.4,6.35,17.05,11.34,22.04,9.61,9.61,25.24,9.61,34.84,0,4.8-4.8,7.2-11.11,7.2-17.42Z"/>
        </g>
      </g>
      <g>
        <polygon class="cls-5" points="283.83 165.75 304.09 135.03 283.83 104.31 314.55 124.57 345.27 104.31 325.01 135.03 345.27 165.75 314.55 145.49 283.83 165.75"/>
        <path class="cls-7" d="M274.89,95.38l39.65,26.15,39.65-26.15-26.15,39.65,26.15,39.65-39.65-26.15-39.65,26.15,26.15-39.65-26.15-39.65ZM307.13,135.03l-14.37,21.79,21.79-14.37,21.79,14.37-14.37-21.79,14.37-21.79-21.79,14.37-21.79-14.37,14.37,21.79Z"/>
      </g>
      <g>
        <circle class="cls-4" cx="314.55" cy="135.03" r="27.18"/>
        <path class="cls-7" d="M285.21,135.03c0-7.52,2.86-15.03,8.58-20.76,5.54-5.54,12.92-8.6,20.76-8.6s15.21,3.05,20.76,8.6c11.44,11.45,11.44,30.07,0,41.51-5.54,5.54-12.91,8.6-20.76,8.6s-15.21-3.05-20.76-8.6c-5.72-5.72-8.58-13.24-8.58-20.76ZM339.53,135.03c0-6.4-2.44-12.8-7.31-17.68-4.72-4.72-11-7.32-17.68-7.32s-12.96,2.6-17.68,7.32c-9.75,9.75-9.75,25.61,0,35.36,4.72,4.72,11,7.32,17.68,7.32s12.96-2.6,17.68-7.32c4.87-4.87,7.31-11.28,7.31-17.68Z"/>
      </g>
    </g>
    <g>
      <g>
        <g>
          <path class="cls-9" d="M139.05,148.54c10.61-10.61,35.94-18.74,46.56-8.12,10.61,10.61,2.49,35.94-8.12,46.56-10.61,10.61-27.82,10.61-38.43,0-10.61-10.61-10.61-27.82,0-38.43Z"/>
          <path class="cls-7" d="M128.55,167.76c0-7.94,3.09-15.4,8.7-21.01,5.71-5.71,15.1-10.58,24.51-12.7,11.07-2.5,20.18-.88,25.63,4.58,5.46,5.46,7.08,14.56,4.58,25.63-2.13,9.41-6.99,18.81-12.7,24.51-5.61,5.61-13.07,8.7-21.01,8.7s-15.4-3.09-21.01-8.7c-5.61-5.61-8.7-13.07-8.7-21.01ZM188.03,154.76c0-5.38-1.44-9.77-4.22-12.55-9.45-9.45-33.11-1.73-42.97,8.12-9.61,9.61-9.61,25.24,0,34.84,9.61,9.61,25.24,9.61,34.84,0,4.99-4.99,9.44-13.64,11.34-22.04.67-2.98,1-5.79,1-8.37Z"/>
        </g>
        <g>
          <path class="cls-9" d="M204.51,83.08c-10.61,10.61-18.74,35.94-8.12,46.56,10.61,10.61,35.94,2.49,46.56-8.12,10.61-10.61,10.61-27.82,0-38.43-10.61-10.61-27.82-10.61-38.43,0Z"/>
          <path class="cls-7" d="M188.87,115.38c0-2.98.38-6.18,1.15-9.58,2.13-9.41,6.99-18.81,12.7-24.51,5.61-5.61,13.07-8.7,21.01-8.7s15.4,3.09,21.01,8.7,8.7,13.07,8.7,21.01-3.09,15.4-8.7,21.01c-5.71,5.71-15.1,10.58-24.51,12.7-11.07,2.5-20.18.88-25.63-4.58-3.78-3.78-5.73-9.32-5.73-16.05ZM248.35,102.3c0-6.31-2.4-12.62-7.2-17.42-9.61-9.61-25.24-9.61-34.84,0-9.85,9.85-17.57,33.52-8.12,42.97,9.45,9.45,33.11,1.73,42.97-8.12,4.8-4.8,7.2-11.11,7.2-17.42Z"/>
        </g>
        <g>
          <path class="cls-9" d="M177.48,83.08c10.61,10.61,18.74,35.94,8.12,46.56-10.61,10.61-35.94,2.49-46.56-8.12-10.61-10.61-10.61-27.82,0-38.43,10.61-10.61,27.82-10.61,38.43,0Z"/>
          <path class="cls-7" d="M128.55,102.3c0-7.94,3.09-15.4,8.7-21.01,5.61-5.61,13.07-8.7,21.01-8.7s15.4,3.09,21.01,8.7c5.71,5.71,10.58,15.1,12.7,24.51,2.5,11.07.88,20.18-4.58,25.63-5.46,5.46-14.56,7.08-25.63,4.58-9.41-2.13-18.81-7-24.51-12.7-5.61-5.61-8.7-13.07-8.7-21.01ZM188.1,115.32c0-10.66-5.71-23.74-12.41-30.45-9.61-9.61-25.24-9.61-34.84,0-9.61,9.61-9.61,25.24,0,34.84,9.86,9.85,33.52,17.57,42.97,8.12,3.02-3.02,4.29-7.5,4.29-12.52Z"/>
        </g>
        <g>
          <path class="cls-9" d="M242.94,148.54c-10.61-10.61-35.94-18.74-46.56-8.12-10.61,10.61-2.49,35.94,8.12,46.56,10.61,10.61,27.82,10.61,38.43,0s10.61-27.82,0-38.43Z"/>
          <path class="cls-7" d="M188.87,154.68c0-6.73,1.94-12.27,5.73-16.05,5.46-5.46,14.56-7.08,25.63-4.58,9.41,2.13,18.81,7,24.51,12.7,5.61,5.61,8.7,13.07,8.7,21.01s-3.09,15.4-8.7,21.01-13.07,8.7-21.01,8.7-15.4-3.09-21.01-8.7c-5.71-5.71-10.58-15.1-12.7-24.51-.77-3.39-1.15-6.6-1.15-9.58ZM248.35,167.76c0-6.31-2.4-12.62-7.2-17.42-9.86-9.85-33.52-17.57-42.97-8.12-4.12,4.12-5.29,11.75-3.22,20.92,1.9,8.4,6.35,17.05,11.34,22.04,9.61,9.61,25.24,9.61,34.84,0,4.8-4.8,7.2-11.11,7.2-17.42Z"/>
        </g>
      </g>
      <g>
        <polygon class="cls-5" points="160.28 165.75 180.54 135.03 160.28 104.31 191 124.57 221.72 104.31 201.46 135.03 221.72 165.75 191 145.49 160.28 165.75"/>
        <path class="cls-7" d="M151.34,95.38l39.65,26.15,39.65-26.15-26.15,39.65,26.15,39.65-39.65-26.15-39.65,26.15,26.15-39.65-26.15-39.65ZM183.58,135.03l-14.37,21.79,21.79-14.37,21.79,14.37-14.37-21.79,14.37-21.79-21.79,14.37-21.79-14.37,14.37,21.79Z"/>
      </g>
      <g>
        <circle class="cls-4" cx="191" cy="135.03" r="27.18"/>
        <path class="cls-7" d="M161.66,135.03c0-7.52,2.86-15.03,8.58-20.76,5.54-5.54,12.92-8.6,20.76-8.6s15.21,3.05,20.76,8.6c11.44,11.45,11.44,30.07,0,41.51-5.54,5.54-12.91,8.6-20.76,8.6s-15.21-3.05-20.76-8.6c-5.72-5.72-8.58-13.24-8.58-20.76ZM215.98,135.03c0-6.4-2.44-12.8-7.31-17.68-4.72-4.72-11-7.32-17.68-7.32s-12.96,2.6-17.68,7.32c-9.75,9.75-9.75,25.61,0,35.36,4.72,4.72,11,7.32,17.68,7.32s12.96-2.6,17.68-7.32c4.87-4.87,7.31-11.28,7.31-17.68Z"/>
      </g>
    </g>
    <g>
      <g>
        <g>
          <path class="cls-9" d="M15.5,148.54c10.61-10.61,35.94-18.74,46.56-8.12s2.49,35.94-8.12,46.56c-10.61,10.61-27.82,10.61-38.43,0-10.61-10.61-10.61-27.82,0-38.43Z"/>
          <path class="cls-7" d="M5,167.76c0-7.94,3.09-15.4,8.7-21.01,5.71-5.71,15.1-10.58,24.51-12.7,11.07-2.5,20.18-.88,25.63,4.58,5.46,5.46,7.08,14.56,4.58,25.63-2.13,9.41-6.99,18.81-12.7,24.51-5.61,5.61-13.07,8.7-21.01,8.7s-15.4-3.09-21.01-8.7c-5.61-5.61-8.7-13.07-8.7-21.01ZM64.48,154.76c0-5.38-1.44-9.77-4.22-12.55-9.45-9.45-33.11-1.73-42.97,8.12-9.61,9.61-9.61,25.24,0,34.84,9.61,9.61,25.24,9.61,34.84,0,4.99-4.99,9.44-13.64,11.34-22.04.67-2.98,1-5.79,1-8.37Z"/>
        </g>
        <g>
          <path class="cls-9" d="M80.96,83.08c-10.61,10.61-18.74,35.94-8.12,46.56,10.61,10.61,35.94,2.49,46.56-8.12,10.61-10.61,10.61-27.82,0-38.43-10.61-10.61-27.82-10.61-38.43,0Z"/>
          <path class="cls-7" d="M65.32,115.38c0-2.98.38-6.18,1.15-9.58,2.13-9.41,6.99-18.81,12.7-24.51,5.61-5.61,13.07-8.7,21.01-8.7s15.4,3.09,21.01,8.7c5.61,5.61,8.7,13.07,8.7,21.01s-3.09,15.4-8.7,21.01c-5.71,5.71-15.1,10.58-24.51,12.7-11.07,2.5-20.18.88-25.63-4.58-3.78-3.78-5.73-9.32-5.73-16.05ZM124.8,102.3c0-6.31-2.4-12.62-7.2-17.42-9.61-9.61-25.24-9.61-34.84,0-9.85,9.85-17.57,33.52-8.12,42.97,9.45,9.45,33.11,1.73,42.97-8.12,4.8-4.8,7.2-11.11,7.2-17.42Z"/>
        </g>
        <g>
          <path class="cls-9" d="M53.93,83.08c10.61,10.61,18.74,35.94,8.12,46.56-10.61,10.61-35.94,2.49-46.56-8.12s-10.61-27.82,0-38.43c10.61-10.61,27.82-10.61,38.43,0Z"/>
          <path class="cls-7" d="M5,102.3c0-7.94,3.09-15.4,8.7-21.01,5.61-5.61,13.07-8.7,21.01-8.7s15.4,3.09,21.01,8.7c5.71,5.71,10.58,15.1,12.7,24.51,2.5,11.07.88,20.18-4.58,25.63-5.46,5.46-14.56,7.08-25.63,4.58-9.41-2.13-18.81-7-24.51-12.7-5.61-5.61-8.7-13.07-8.7-21.01ZM64.55,115.32c0-10.66-5.71-23.74-12.41-30.45-9.61-9.61-25.24-9.61-34.84,0-9.61,9.61-9.61,25.24,0,34.84,9.86,9.85,33.52,17.57,42.97,8.12,3.02-3.02,4.29-7.5,4.29-12.52Z"/>
        </g>
        <g>
          <path class="cls-9" d="M119.4,148.54c-10.61-10.61-35.94-18.74-46.56-8.12s-2.49,35.94,8.12,46.56c10.61,10.61,27.82,10.61,38.43,0,10.61-10.61,10.61-27.82,0-38.43Z"/>
          <path class="cls-7" d="M65.32,154.68c0-6.73,1.94-12.27,5.73-16.05,5.46-5.46,14.56-7.08,25.63-4.58,9.41,2.13,18.81,7,24.51,12.7,5.61,5.61,8.7,13.07,8.7,21.01s-3.09,15.4-8.7,21.01c-5.61,5.61-13.07,8.7-21.01,8.7s-15.4-3.09-21.01-8.7c-5.71-5.71-10.58-15.1-12.7-24.51-.77-3.39-1.15-6.6-1.15-9.58ZM124.8,167.76c0-6.31-2.4-12.62-7.2-17.42-9.86-9.85-33.52-17.57-42.97-8.12-4.12,4.12-5.29,11.75-3.22,20.92,1.9,8.4,6.35,17.05,11.34,22.04,9.61,9.61,25.24,9.61,34.84,0,4.8-4.8,7.2-11.11,7.2-17.42Z"/>
        </g>
      </g>
      <g>
        <polygon class="cls-5" points="36.73 165.75 56.99 135.03 36.73 104.31 67.45 124.57 98.17 104.31 77.91 135.03 98.17 165.75 67.45 145.49 36.73 165.75"/>
        <path class="cls-7" d="M27.79,95.38l39.65,26.15,39.65-26.15-26.15,39.65,26.15,39.65-39.65-26.15-39.65,26.15,26.15-39.65-26.15-39.65ZM60.03,135.03l-14.37,21.79,21.79-14.37,21.79,14.37-14.37-21.79,14.37-21.79-21.79,14.37-21.79-14.37,14.37,21.79Z"/>
      </g>
      <g>
        <circle class="cls-4" cx="67.45" cy="135.03" r="27.18"/>
        <path class="cls-7" d="M38.11,135.03c0-7.52,2.86-15.03,8.58-20.76,11.44-11.44,30.07-11.44,41.51,0,11.44,11.44,11.44,30.07,0,41.51-11.44,11.44-30.07,11.44-41.51,0-5.72-5.72-8.58-13.24-8.58-20.76ZM92.43,135.03c0-6.4-2.44-12.8-7.31-17.68-9.75-9.75-25.61-9.75-35.36,0-9.75,9.75-9.75,25.61,0,35.36,9.75,9.75,25.61,9.75,35.36,0,4.87-4.87,7.31-11.28,7.31-17.68Z"/>
      </g>
    </g>
  </g>
  <g>
    <polygon class="cls-2" points="486.41 376.89 486.06 251.78 360.96 251.44 359.78 252.61 359.78 252.61 182.98 429.41 6.18 606.22 6.18 606.22 5 607.39 5.35 732.5 130.46 732.85 308.43 554.87 486.41 376.89"/>
    <polygon class="cls-2" points="5 376.89 5.35 251.78 130.46 251.44 131.63 252.61 131.63 252.61 308.43 429.41 485.24 606.22 485.24 606.22 486.41 607.39 486.06 732.5 360.96 732.85 182.98 554.87 5 376.89"/>
    <g>
      <path class="cls-6" d="M105.03,550.35c-48.21,48.21-46.07,128.53-46.07,128.53,0,0,80.32,2.15,128.53-46.07,48.21-48.21,68.84-105.76,46.07-128.53-22.77-22.77-80.32-2.15-128.53,46.07Z"/>
      <path class="cls-6" d="M304.21,351.17c48.21-48.21,128.53-46.07,128.53-46.07,0,0,2.15,80.32-46.07,128.53-48.21,48.21-105.76,68.84-128.53,46.07-22.77-22.77-2.15-80.32,46.07-128.53Z"/>
      <path class="cls-6" d="M187.5,351.17c-48.21-48.21-128.53-46.07-128.53-46.07,0,0-2.15,80.32,46.07,128.53,48.21,48.21,105.76,68.84,128.53,46.07,22.77-22.77,2.15-80.32-46.07-128.53Z"/>
      <path class="cls-6" d="M386.68,550.35c48.21,48.21,46.07,128.53,46.07,128.53,0,0-80.32,2.15-128.53-46.07s-68.84-105.76-46.07-128.53c22.77-22.77,80.32-2.15,128.53,46.07Z"/>
      <circle class="cls-6" cx="246.24" cy="491.74" r="125.2"/>
      <circle class="cls-8" cx="246.24" cy="491.74" r="61.6"/>
      <circle class="cls-6" cx="246.24" cy="491.74" r="31.97"/>
    </g>
  </g>
</svg>