<?xml version="1.0" encoding="UTF-8"?>
<svg id="Layer_1" data-name="Layer 1" xmlns="http://www.w3.org/2000/svg" viewBox="0 0 1000 1000">
  <defs>
    <style>
      .cls-1 {
        fill: #260e50;
      }

      .cls-2 {
        fill: #3f1970;
      }

      .cls-3 {
        fill: #fbb112;
      }

      .cls-4 {
        fill: #58256c;
      }
    </style>
  </defs>
  <g>
    <path class="cls-1" d="M952.07,185.86l-144.07,313.92,144.52,313.71c39.55,85.86-49.05,174.58-134.96,135.15l-313.92-144.07-313.71,144.52c-85.86,39.55-174.58-49.05-135.15-134.96l144.07-313.92L54.32,186.51C14.77,100.65,103.37,11.92,189.28,51.35l313.92,144.07L816.91,50.9c85.86-39.55,174.58,49.05,135.15,134.96Z"/>
    <path class="cls-3" d="M63.87,940.18c-35.35-35.29-44.72-87.44-23.89-132.83l140.95-307.12L39.54,193.32c-20.9-45.37-11.6-97.52,23.69-132.87,35.3-35.35,87.44-44.72,132.84-23.89l307.12,140.95L810.1,36.12c45.37-20.9,97.53-11.6,132.87,23.7,0,0,0,0,0,0,35.35,35.3,44.72,87.44,23.89,132.84l-140.95,307.12,141.39,306.91c20.9,45.37,11.6,97.52-23.7,132.87-35.29,35.35-87.44,44.72-132.83,23.89l-307.12-140.95-306.91,141.39c-45.37,20.9-97.52,11.6-132.87-23.7ZM919.97,82.85c-20.38-20.35-56.36-35.54-96.25-17.17l-320.51,147.66L182.49,66.15c-39.91-18.32-75.88-3.08-96.22,17.3-20.35,20.38-35.54,56.36-17.16,96.25l147.65,320.51-147.2,320.72c-18.32,39.91-3.07,75.88,17.3,96.22,20.38,20.35,56.36,35.54,96.25,17.16l320.51-147.66,320.72,147.2c39.91,18.32,75.87,3.07,96.22-17.3,20.35-20.38,35.54-56.36,17.16-96.25l-147.66-320.51,147.2-320.72c18.32-39.91,3.07-75.87-17.3-96.22Z"/>
  </g>
  <g>
    <circle class="cls-2" cx="503.42" cy="500" r="225.14"/>
    <path class="cls-3" d="M331.5,672.16c-94.93-94.8-95.04-249.15-.25-344.08,94.8-94.93,249.15-95.04,344.08-.25s95.04,249.15.25,344.08c-94.8,94.93-249.15,95.04-344.08.25ZM649.67,353.54c-80.76-80.64-212.07-80.55-292.71.21-80.64,80.76-80.55,212.07.21,292.71,80.76,80.64,212.07,80.55,292.71-.21s80.55-212.07-.21-292.71Z"/>
  </g>
  <g>
    <circle class="cls-4" cx="503.42" cy="500" r="141.98"/>
    <path class="cls-3" d="M391.77,611.81c-61.65-61.56-61.73-161.81-.16-223.46,61.56-61.65,161.81-61.72,223.46-.16,61.65,61.56,61.73,161.81.16,223.46-61.56,61.65-161.81,61.73-223.46.16ZM592.41,410.88c-49.14-49.07-129.04-49.01-178.11.13-49.07,49.14-49.01,129.04.13,178.11,49.14,49.07,129.04,49.01,178.11-.13,49.07-49.14,49.01-129.04-.13-178.11Z"/>
  </g>
</svg>