<?xml version="1.0" encoding="UTF-8"?>
<svg id="Layer_1" data-name="Layer 1" xmlns="http://www.w3.org/2000/svg" viewBox="0 0 1000 1000">
  <defs>
    <style>
      .cls-1 {
        fill: #fbad19;
        stroke: #db8321;
        stroke-miterlimit: 10;
        stroke-width: 12px;
      }
    </style>
  </defs>
  <path class="cls-1" d="M473.81,144.09s-194.85,45.07-167.57,256.31c23.31,180.44,201.14,194.42,261.47,188.31,49.99-5.07,109.58-54.2,129.39-120.88,15.72-52.91-.54-155.81-52.48-177.11-51.94-21.3-74.04,9.42-74.8,22.87-1.32,23.26,16.43,31.22,26.27,31.22,19.94,0,40.58,5.88,51.74,45.19,8.5,29.94,4.7,88.69-47.3,126.97-37.6,27.68-69.14,25.71-117.14,18.29-44.61-6.9-120.87-61.61-134.29-145.71-9.81-61.49,14.76-191,151.84-230.02,101.87-29,151.89,44.26,166.2,55.99,0,0-1.95-85.75,64.44-68.26,54.74,14.42,32.74,82.71,24.13,93.08,0,0,56.05-53.2,96.27-12.98,45.82,45.82.77,99.62.77,99.62,0,0,43.59-20.51,68.89-1.24,45.31,34.51,54.79,119.01-17.62,148.84,0,0,88.71,9.59,88.71,95.85,0,78.12-83.97,70.36-83.97,70.36,0,0,82.61,125.72-56.35,195.09-92.58,46.22-186.28-11.09-193.38-80.58-4.89-47.83,28.27-85.05,69.73-69.66,21.3,7.91,13.08,29.9,33.35,25,17.11-4.14,35.12-53-14.18-61.8-49.29-8.8-48.49,30-99.4,45.27-47.8,14.34-157.75,10.13-248.17-73.37,0,0-6.33,58.88,59.78,85.66,66.11,26.77,89.07,4.74,119.57,13.87,24.82,7.43,51.22,20.42,51.22,76.42,0,69.78-151.2,55.25-157.12,52.38,0,0,82.55-35.8,42.1-85.58,0,0-.71,75.12-92.48,75.12-80.25,0-91.89-39.21-91.89-39.21,0,0,42-62.76-8.38-113.14,0,0,17.95,156.21-138.01,178.2C29.19,886.44,7.27,757.82,7.27,724.36c0-68.48,82.92-139.84,151.87-112.19,4.24,1.7,8.26,3.93,12.07,6.47,13.72,9.14,40.58,31.86,35.95,67.37,0,0,24.84-42.21-23.06-113.7-16.05-23.95-28.58-50.14-35.53-78.12-12.76-51.4-10.88-120.34,8.11-185.92,30.94-106.88,166.53-180.23,241.73-174.96,0,0-35,18.12-46.28,43.89,0,0,69.82-48.77,121.68-33.09Z"/>
</svg>