<?xml version="1.0" encoding="UTF-8"?>
<svg id="Layer_1" data-name="Layer 1" xmlns="http://www.w3.org/2000/svg" viewBox="0 0 1000 1000">
  <defs>
    <style>
      .cls-1 {
        fill: #4a1d7a;
      }

      .cls-2 {
        fill: #110c19;
      }

      .cls-3 {
        fill: #ffb10a;
      }

      .cls-4 {
        fill: #2b024d;
      }
    </style>
  </defs>
  <g>
    <g>
      <path class="cls-1" d="M922.17,390.17c-86.25,86.25-292.12,152.27-378.37,66.02-86.25-86.25-20.23-292.12,66.02-378.37,86.25-86.25,226.09-86.25,312.34,0,86.25,86.25,86.25,226.09,0,312.34Z"/>
      <path class="cls-3" d="M660.13,504.67c-48.29,0-92.07-12.56-122.15-42.64-89.43-89.43-24.02-299.98,66.02-390.03,89.33-89.33,234.68-89.33,324.01,0,89.33,89.33,89.33,234.68,0,324.01-59.76,59.76-172.6,108.67-267.88,108.67ZM766,21.49c-54.45,0-108.89,20.72-150.34,62.17-42.1,42.1-79.58,114.78-95.49,185.17-10.47,46.32-20.56,131.51,29.46,181.53,50.03,50.03,135.21,39.93,181.53,29.46,70.39-15.91,143.07-53.39,185.17-95.49l5.83,5.83-5.83-5.83c82.9-82.9,82.9-217.78,0-300.68-41.45-41.45-95.89-62.17-150.34-62.17Z"/>
    </g>
    <g>
      <path class="cls-1" d="M390.17,922.17c86.25-86.25,152.27-292.12,66.02-378.37-86.25-86.25-292.12-20.23-378.37,66.02-86.25,86.25-86.25,226.09,0,312.34,86.25,86.25,226.09,86.25,312.34,0Z"/>
      <path class="cls-3" d="M234,995c-58.67,0-117.34-22.33-162-67-89.33-89.33-89.33-234.68,0-324.01,90.05-90.05,300.6-155.45,390.03-66.02,41.22,41.22,53.26,111.13,33.89,196.83-16.8,74.34-55.09,148.37-99.91,193.2l-5.83-5.83,5.83,5.83c-44.66,44.67-103.33,67-162,67ZM340.77,511.6c-27.13,0-52.84,4.25-71.94,8.57-70.39,15.91-143.07,53.39-185.17,95.49-40.16,40.16-62.27,93.55-62.27,150.34s22.12,110.18,62.27,150.34c40.16,40.16,93.55,62.27,150.34,62.27s110.18-22.12,150.34-62.27c42.1-42.1,79.58-114.78,95.49-185.17,10.47-46.32,20.56-131.51-29.46-181.53-29.4-29.39-70.94-38.03-109.59-38.03Z"/>
    </g>
    <g>
      <path class="cls-1" d="M609.83,922.17c-86.25-86.25-152.27-292.12-66.02-378.37,86.25-86.25,292.12-20.23,378.37,66.02,86.25,86.25,86.25,226.09,0,312.34-86.25,86.25-226.09,86.25-312.34,0Z"/>
      <path class="cls-3" d="M766,995c-58.67,0-117.34-22.33-162-67-90.05-90.05-155.45-300.6-66.02-390.03,89.43-89.43,299.98-24.03,390.03,66.02,89.33,89.33,89.33,234.68,0,324.01-44.66,44.67-103.33,67-162,67ZM615.66,916.34c82.9,82.9,217.78,82.9,300.68,0,82.9-82.9,82.9-217.78,0-300.68-42.1-42.1-114.78-79.58-185.17-95.49-46.32-10.47-131.5-20.56-181.53,29.46-50.03,50.03-39.93,135.21-29.46,181.53,15.91,70.39,53.39,143.07,95.49,185.17Z"/>
    </g>
    <g>
      <path class="cls-1" d="M77.83,390.17c86.25,86.25,292.12,152.27,378.37,66.02,86.25-86.25,20.23-292.12-66.02-378.37-86.25-86.25-226.09-86.25-312.34,0-86.25,86.25-86.25,226.09,0,312.34Z"/>
      <path class="cls-3" d="M339.87,504.67c-95.29,0-208.11-48.9-267.88-108.67-89.33-89.33-89.33-234.68,0-324.01,89.33-89.33,234.68-89.33,324.01,0,44.83,44.82,83.11,118.85,99.91,193.2,19.37,85.71,7.34,155.61-33.89,196.83-30.07,30.08-73.87,42.64-122.15,42.64ZM234,21.39c-56.79,0-110.18,22.12-150.34,62.27-40.16,40.16-62.27,93.55-62.27,150.34s22.12,110.18,62.27,150.34c42.1,42.1,114.78,79.58,185.17,95.49,46.32,10.47,131.5,20.56,181.53-29.46,50.03-50.03,39.93-135.21,29.46-181.53-15.91-70.39-53.39-143.07-95.49-185.17-40.16-40.16-93.55-62.27-150.34-62.27Z"/>
    </g>
  </g>
  <g>
    <polygon class="cls-2" points="749.65 250.35 585 500 749.65 749.65 500 585 250.35 749.65 415 500 250.35 250.35 500 415 749.65 250.35"/>
    <path class="cls-3" d="M778.67,778.67l-278.67-183.79-278.67,183.79,183.79-278.67L221.33,221.33l278.67,183.79,278.67-183.79-183.79,278.67,183.79,278.67ZM500,575.12l220.63,145.51-145.51-220.63,145.51-220.63-220.63,145.51-220.63-145.51,145.51,220.63-145.51,220.63,220.63-145.51Z"/>
  </g>
  <g>
    <circle class="cls-4" cx="500" cy="500" r="220.86"/>
    <path class="cls-3" d="M500,727.82c-58.37,0-116.74-22.22-161.17-66.65-88.87-88.87-88.87-233.47,0-322.34,88.87-88.87,233.47-88.87,322.34,0,43.05,43.05,66.76,100.29,66.76,161.17s-23.71,118.12-66.76,161.17l-5-5,5,5c-44.44,44.44-102.8,66.65-161.17,66.65ZM500,286.31c-54.75,0-109.49,20.84-151.17,62.52-83.36,83.36-83.36,218.99,0,302.35,83.36,83.36,218.99,83.36,302.34,0,40.38-40.38,62.62-94.07,62.62-151.17s-22.24-110.79-62.62-151.17c-41.68-41.68-96.42-62.52-151.17-62.52Z"/>
  </g>
</svg>