<?xml version="1.0" encoding="UTF-8"?>
<svg id="Layer_1" data-name="Layer 1" xmlns="http://www.w3.org/2000/svg" viewBox="0 0 1000 1000">
  <defs>
    <style>
      .cls-1 {
        fill: #311463;
      }

      .cls-2 {
        fill: #18003b;
      }

      .cls-3 {
        fill: #110c19;
        stroke: #18003b;
        stroke-miterlimit: 10;
        stroke-width: 7px;
      }

      .cls-4 {
        fill: #ffad14;
      }
    </style>
  </defs>
  <g>
    <g>
      <path class="cls-4" d="M922.4,390.11c-86.3,86.3-292.28,152.36-378.57,66.06-86.3-86.3-20.24-292.28,66.06-378.57,86.3-86.3,226.22-86.3,312.51,0,86.3,86.3,86.3,226.22,0,312.51Z"/>
      <path class="cls-2" d="M659.82,504.42c-11.74,0-23-.74-33.66-2.23-36.61-5.13-66.19-18.74-87.9-40.45-21.71-21.71-35.32-51.29-40.45-87.9-4.49-32.02-2.19-69.61,6.64-108.69,16.8-74.32,55.06-148.32,99.87-193.12,43.23-43.22,100.7-67.03,161.83-67.03s118.6,23.81,161.83,67.03c43.22,43.22,67.03,100.69,67.03,161.82s-23.8,118.6-67.03,161.82h0c-44.8,44.8-118.8,83.07-193.12,99.87-26.08,5.89-51.49,8.88-75.03,8.88ZM766.15,20.75c-56.92,0-110.44,22.17-150.69,62.42-42.17,42.17-79.71,114.96-95.64,185.46-8.42,37.25-10.63,72.88-6.41,103.04,4.64,33.15,16.75,59.71,35.99,78.95,19.24,19.24,45.8,31.35,78.95,35.99,30.16,4.23,65.79,2.01,103.04-6.41,70.49-15.93,143.29-53.48,185.46-95.64h0c40.25-40.25,62.42-93.77,62.42-150.69s-22.17-110.44-62.42-150.69c-40.25-40.25-93.77-62.42-150.69-62.42Z"/>
    </g>
    <g>
      <path class="cls-4" d="M390.11,922.4c86.3-86.3,152.36-292.28,66.06-378.57-86.3-86.3-292.28-20.24-378.57,66.06-86.3,86.3-86.3,226.22,0,312.51,86.3,86.3,226.22,86.3,312.51,0Z"/>
      <path class="cls-2" d="M233.85,995c-61.13,0-118.6-23.81-161.83-67.03-43.22-43.22-67.03-100.69-67.03-161.82s23.8-118.6,67.03-161.82c44.8-44.8,118.8-83.07,193.12-99.87,39.08-8.83,76.67-11.13,108.69-6.64,36.61,5.13,66.19,18.74,87.9,40.45,21.71,21.71,35.32,51.29,40.45,87.9,4.49,32.02,2.19,69.61-6.64,108.69-16.8,74.32-55.06,148.32-99.87,193.12-43.23,43.22-100.7,67.03-161.83,67.03ZM340.15,511.32c-22.35,0-46.57,2.86-71.53,8.5-70.49,15.93-143.29,53.47-185.46,95.64-40.25,40.25-62.42,93.77-62.42,150.69s22.17,110.44,62.42,150.69c40.25,40.25,93.77,62.42,150.69,62.42s110.44-22.17,150.69-62.42c42.17-42.17,79.71-114.96,95.64-185.46,8.42-37.25,10.63-72.88,6.41-103.04-4.64-33.15-16.75-59.71-35.99-78.95-19.24-19.24-45.8-31.35-78.95-35.99-9.95-1.39-20.5-2.09-31.51-2.09Z"/>
    </g>
    <g>
      <path class="cls-4" d="M609.89,922.4c-86.3-86.3-152.36-292.28-66.06-378.57,86.3-86.3,292.28-20.24,378.57,66.06,86.3,86.3,86.3,226.22,0,312.51-86.3,86.3-226.22,86.3-312.51,0Z"/>
      <path class="cls-2" d="M766.15,995c-61.13,0-118.6-23.81-161.83-67.03-44.8-44.8-83.07-118.8-99.87-193.12-8.83-39.08-11.13-76.67-6.64-108.69,5.13-36.61,18.74-66.19,40.45-87.9,21.71-21.71,51.29-35.32,87.9-40.45,32.02-4.49,69.61-2.19,108.69,6.64,74.32,16.8,148.32,55.06,193.12,99.87,43.22,43.22,67.03,100.69,67.03,161.82s-23.8,118.6-67.03,161.82c-43.23,43.22-100.7,67.03-161.83,67.03ZM659.85,511.32c-11.01,0-21.55.69-31.51,2.09-33.15,4.64-59.71,16.75-78.95,35.99-19.24,19.24-31.35,45.8-35.99,78.95-4.23,30.16-2.01,65.79,6.41,103.04,15.93,70.49,53.47,143.29,95.64,185.46,40.25,40.25,93.77,62.42,150.69,62.42s110.44-22.17,150.69-62.42c40.25-40.25,62.42-93.77,62.42-150.69s-22.17-110.44-62.42-150.69c-42.17-42.17-114.96-79.71-185.46-95.64-24.96-5.64-49.19-8.5-71.53-8.5Z"/>
    </g>
    <g>
      <path class="cls-4" d="M77.6,390.11c86.3,86.3,292.28,152.36,378.57,66.06,86.3-86.3,20.24-292.28-66.06-378.57-86.3-86.3-226.22-86.3-312.51,0-86.3,86.3-86.3,226.22,0,312.51Z"/>
      <path class="cls-2" d="M340.18,504.42c-23.54,0-48.95-2.98-75.03-8.88-74.32-16.8-148.32-55.06-193.12-99.87h0C28.8,352.45,5,294.98,5,233.85S28.8,115.25,72.03,72.03C115.25,28.81,172.72,5,233.85,5s118.6,23.81,161.83,67.03c44.8,44.8,83.07,118.8,99.87,193.12,8.83,39.08,11.13,76.67,6.64,108.69-5.13,36.61-18.74,66.19-40.45,87.9-21.71,21.71-51.29,35.32-87.9,40.45-10.65,1.49-21.92,2.23-33.66,2.23ZM83.16,384.54c42.17,42.17,114.96,79.71,185.46,95.64,37.25,8.42,72.88,10.63,103.04,6.41,33.15-4.64,59.71-16.75,78.95-35.99,19.24-19.24,31.35-45.8,35.99-78.95,4.23-30.16,2.01-65.79-6.41-103.04-15.93-70.49-53.47-143.29-95.64-185.46-40.25-40.25-93.77-62.42-150.69-62.42s-110.44,22.17-150.69,62.42c-40.25,40.25-62.42,93.77-62.42,150.69s22.17,110.44,62.42,150.69Z"/>
    </g>
  </g>
  <polygon class="cls-3" points="749.79 250.21 585.05 500 749.79 749.79 500 585.05 250.21 749.79 414.95 500 250.21 250.21 500 414.95 749.79 250.21"/>
  <g>
    <circle class="cls-1" cx="500" cy="500" r="220.98"/>
    <path class="cls-2" d="M500,724.92c-60.08,0-116.56-23.4-159.04-65.88-42.48-42.48-65.88-98.96-65.88-159.04s23.4-116.56,65.88-159.04c42.48-42.48,98.96-65.88,159.04-65.88s116.56,23.4,159.04,65.88c42.48,42.48,65.88,98.96,65.88,159.04s-23.4,116.56-65.88,159.04c-42.48,42.48-98.96,65.88-159.04,65.88ZM500,282.96c-57.98,0-112.48,22.58-153.47,63.57-40.99,40.99-63.57,95.5-63.57,153.47s22.58,112.48,63.57,153.47c40.99,40.99,95.5,63.57,153.47,63.57s112.48-22.58,153.47-63.57c40.99-40.99,63.57-95.5,63.57-153.47s-22.58-112.48-63.57-153.47c-40.99-40.99-95.5-63.57-153.47-63.57Z"/>
  </g>
</svg>