<?xml version="1.0" encoding="UTF-8"?>
<svg id="Layer_1" data-name="Layer 1" xmlns="http://www.w3.org/2000/svg" viewBox="0 0 1000 1000">
  <defs>
    <style>
      .cls-1 {
        stroke-width: 16px;
      }

      .cls-1, .cls-2, .cls-3, .cls-4, .cls-5 {
        stroke: #ffd468;
        stroke-miterlimit: 10;
      }

      .cls-1, .cls-4 {
        fill: #e24b00;
      }

      .cls-2, .cls-3, .cls-4 {
        stroke-width: 12px;
      }

      .cls-2, .cls-5 {
        fill: #ffa62c;
      }

      .cls-3 {
        fill: none;
      }

      .cls-5 {
        stroke-width: 8px;
      }
    </style>
  </defs>
  <circle class="cls-2" cx="500" cy="500" r="491.86"/>
  <circle class="cls-4" cx="500" cy="500" r="366.98"/>
  <g>
    <circle class="cls-3" cx="497.11" cy="498.93" r="132.98"/>
    <path class="cls-2" d="M497.29,371.92c-61.39,0-92.15,28.85-92.15,28.85,0,0-143.85-110.94-61.68-181.06,83.85-71.56,141.46,15.78,150.75,32.08.74,1.3,2.53,1.45,3.45.27,12.28-15.71,85.91-101.52,155.77-31.65,79.31,79.31-59.68,186.59-59.68,186.59,0,0-38.93-35.08-96.47-35.08Z"/>
    <path class="cls-2" d="M498.29,628.08c-61.39,0-92.15-28.85-92.15-28.85,0,0-143.85,110.94-61.68,181.06,83.85,71.56,141.46-15.78,150.75-32.08.74-1.3,2.53-1.45,3.45-.27,12.28,15.71,85.91,101.52,155.77,31.65,79.31-79.31-59.68-186.59-59.68-186.59,0,0-38.93,35.08-96.47,35.08Z"/>
    <path class="cls-2" d="M625.8,497.07c0-61.39-28.85-92.15-28.85-92.15,0,0,110.94-143.85,181.06-61.68,71.56,83.85-15.78,141.46-32.08,150.75-1.3.74-1.45,2.53-.27,3.45,15.71,12.28,101.52,85.91,31.65,155.77-79.31,79.31-186.59-59.68-186.59-59.68,0,0,35.08-38.93,35.08-96.47Z"/>
    <path class="cls-2" d="M374.2,495.57c0-61.39,28.85-92.15,28.85-92.15,0,0-110.94-143.85-181.06-61.68-71.56,83.85,15.78,141.46,32.08,150.75,1.3.74,1.45,2.53.27,3.45-15.71,12.28-101.52,85.91-31.65,155.77,79.31,79.31,186.59-59.68,186.59-59.68,0,0-35.08-38.93-35.08-96.47Z"/>
  </g>
  <circle class="cls-1" cx="500" cy="500" r="132.98"/>
  <circle class="cls-5" cx="500" cy="500" r="61.58"/>
</svg>