<?xml version="1.0" encoding="UTF-8"?>
<svg id="Layer_1" data-name="Layer 1" xmlns="http://www.w3.org/2000/svg" viewBox="0 0 1000 1000">
  <defs>
    <style>
      .cls-1 {
        fill: #fdab34;
        stroke: #f28521;
        stroke-miterlimit: 10;
        stroke-width: 9px;
      }
    </style>
  </defs>
  <g id="_Radial_Repeat_" data-name="&amp;lt;Radial Repeat&amp;gt;">
    <path class="cls-1" d="M487.85,512.17l-241.24.18L5.54,753.76l.17,241.24,241.24-.17,241.07-241.41-.17-241.25ZM102.64,895.4c0-71.07,28.81-135.41,75.38-181.99,46.58-46.57,110.92-75.38,181.99-75.38,0,142.14-115.23,257.37-257.37,257.37Z"/>
  </g>
  <g id="_Radial_Repeat_-2" data-name="&amp;lt;Radial Repeat&amp;gt;">
    <path class="cls-1" d="M487.66,246.61L246.25,5.54l-241.25.17.18,241.24,241.41,241.07,241.24-.17-.17-241.24ZM102.64,103.83c71.07,0,135.42,28.81,182,75.38,46.57,46.58,75.38,110.93,75.38,182-142.15,0-257.38-115.23-257.38-257.38Z"/>
  </g>
  <g id="_Radial_Repeat_-3" data-name="&amp;lt;Radial Repeat&amp;gt;">
    <path class="cls-1" d="M994.3,5l-241.25.17-241.06,241.42.17,241.24,241.24-.17,241.07-241.42-.17-241.24ZM638.41,361.21c0-71.07,28.81-135.42,75.38-182,46.58-46.57,110.92-75.38,182-75.38,0,142.15-115.23,257.38-257.38,257.38Z"/>
  </g>
  <g id="_Radial_Repeat_-4" data-name="&amp;lt;Radial Repeat&amp;gt;">
    <path class="cls-1" d="M994.83,753.05l-241.41-241.07-241.24.18.17,241.24,241.41,241.06,241.24-.17-.17-241.24ZM638.42,638.03c71.07,0,135.41,28.81,181.99,75.38,46.57,46.58,75.38,110.92,75.38,181.99-142.14,0-257.37-115.23-257.37-257.37Z"/>
  </g>
</svg>