<?xml version="1.0" encoding="UTF-8"?>
<svg id="Layer_1" data-name="Layer 1" xmlns="http://www.w3.org/2000/svg" viewBox="0 0 1000 1000">
  <defs>
    <style>
      .cls-1 {
        fill: #ffb700;
      }

      .cls-2 {
        fill: #1a0061;
      }

      .cls-3 {
        fill: #2c007f;
        stroke: #f79800;
        stroke-miterlimit: 10;
        stroke-width: 18px;
      }

      .cls-4 {
        fill: #fa0;
      }

      .cls-5 {
        fill: #fea228;
      }
    </style>
  </defs>
  <path class="cls-3" d="M355.42,275.98c28.98,28.98,93.93,175.72,93.93,175.72,0,0-146.74-64.94-175.72-93.93-28.98-28.98-11.58-93.37-11.58-93.37,0,0,64.39-17.4,93.37,11.58Z"/>
  <path class="cls-3" d="M648.93,275.98c-28.98,28.98-93.93,175.72-93.93,175.72,0,0,146.74-64.94,175.72-93.93,28.98-28.98,11.58-93.37,11.58-93.37,0,0-64.39-17.4-93.37,11.58Z"/>
  <path class="cls-3" d="M355.42,730.72c28.98-28.98,93.93-175.72,93.93-175.72,0,0-146.74,64.94-175.72,93.93-28.98,28.98-11.58,93.37-11.58,93.37,0,0,64.39,17.4,93.37-11.58Z"/>
  <path class="cls-3" d="M648.93,730.72c-28.98-28.98-93.93-175.72-93.93-175.72,0,0,146.74,64.94,175.72,93.93,28.98,28.98,11.58,93.37,11.58,93.37,0,0-64.39,17.4-93.37-11.58Z"/>
  <g>
    <path class="cls-5" d="M651.24,758.01c0-74.4-51.88-153.32-94.88-205.95-4.81,5.2-10.33,9.72-16.41,13.42-11.64,7.1-25.33,11.19-39.95,11.19s-28.31-4.09-39.95-11.19c-6.08-3.71-11.61-8.22-16.41-13.42-43,52.63-94.88,131.55-94.88,205.95,0,127.03,151.24,236.99,151.24,236.99,0,0,151.24-109.96,151.24-236.99Z"/>
    <path class="cls-2" d="M624.97,756.27c0-70-48.45-144.52-85.01-190.79-11.64,7.1-25.33,11.19-39.95,11.19s-28.31-4.09-39.95-11.19c-36.56,46.27-85.01,120.79-85.01,190.79,0,112.42,124.97,209.73,124.97,209.73,0,0,124.97-97.32,124.97-209.73Z"/>
  </g>
  <path class="cls-1" d="M612.73,732.8s-25.72-2.61-49.9-25.83c16.8,32.26,41.25,97.64,24.56,133.61,0,0-36.53-1.27-59.3-34.33,7.8,13.58,12.67,32.75,12.67,54.01,0,41.19-40.76,74.57-40.76,74.57,0,0-40.76-33.39-40.76-74.57,0-21.26,4.87-40.42,12.67-54.01-22.77,33.05-59.3,34.33-59.3,34.33-16.69-35.97,7.76-101.34,24.56-133.61-24.18,23.22-49.9,25.83-49.9,25.83-8.35-54.76,86.22-162.25,86.22-162.25l17.55,2.51c.02-.05.02-.08.02-.08h8.93s0,.36-.02,1.02h.05c-.02-.66-.02-1.02-.02-1.02h8.93s0,.03.02.08l17.55-2.51s94.57,107.49,86.22,162.25Z"/>
  <g>
    <path class="cls-5" d="M651.24,241.99c0,74.4-51.88,153.32-94.88,205.95-4.81-5.2-10.33-9.72-16.41-13.42-11.64-7.1-25.33-11.19-39.95-11.19s-28.31,4.09-39.95,11.19c-6.08,3.71-11.61,8.22-16.41,13.42-43-52.63-94.88-131.55-94.88-205.95,0-127.03,151.24-236.99,151.24-236.99,0,0,151.24,109.96,151.24,236.99Z"/>
    <path class="cls-2" d="M624.97,243.73c0,70-48.45,144.52-85.01,190.79-11.64-7.1-25.33-11.19-39.95-11.19s-28.31,4.09-39.95,11.19c-36.56-46.27-85.01-120.79-85.01-190.79,0-112.42,124.97-209.73,124.97-209.73,0,0,124.97,97.32,124.97,209.73Z"/>
  </g>
  <path class="cls-1" d="M612.73,267.2s-25.72,2.61-49.9,25.83c16.8-32.26,41.25-97.64,24.56-133.61,0,0-36.53,1.27-59.3,34.33,7.8-13.58,12.67-32.75,12.67-54.01,0-41.19-40.76-74.57-40.76-74.57,0,0-40.76,33.39-40.76,74.57,0,21.26,4.87,40.42,12.67,54.01-22.77-33.05-59.3-34.33-59.3-34.33-16.69,35.97,7.76,101.34,24.56,133.61-24.18-23.22-49.9-25.83-49.9-25.83-8.35,54.76,86.22,162.25,86.22,162.25l17.55-2.51c.02.05.02.08.02.08h8.93s0-.36-.02-1.02h.05c-.02.66-.02,1.02-.02,1.02h8.93s0-.03.02-.08l17.55,2.51s94.57-107.49,86.22-162.25Z"/>
  <g>
    <path class="cls-5" d="M241.99,651.24c74.4,0,153.32-51.88,205.95-94.88-5.2-4.81-9.72-10.33-13.42-16.41-7.1-11.64-11.19-25.33-11.19-39.95s4.09-28.31,11.19-39.95c3.71-6.08,8.22-11.61,13.42-16.41-52.63-43-131.55-94.88-205.95-94.88-127.03,0-236.99,151.24-236.99,151.24,0,0,109.96,151.24,236.99,151.24Z"/>
    <path class="cls-2" d="M243.73,624.97c70,0,144.52-48.45,190.79-85.01-7.1-11.64-11.19-25.33-11.19-39.95s4.09-28.31,11.19-39.95c-46.27-36.56-120.79-85.01-190.79-85.01-112.42,0-209.73,124.97-209.73,124.97,0,0,97.32,124.97,209.73,124.97Z"/>
  </g>
  <path class="cls-1" d="M267.2,612.73s2.61-25.72,25.83-49.9c-32.26,16.8-97.64,41.25-133.61,24.56,0,0,1.27-36.53,34.33-59.3-13.58,7.8-32.75,12.67-54.01,12.67-41.19,0-74.57-40.76-74.57-40.76,0,0,33.39-40.76,74.57-40.76,21.26,0,40.42,4.87,54.01,12.67-33.05-22.77-34.33-59.3-34.33-59.3,35.97-16.69,101.34,7.76,133.61,24.56-23.22-24.18-25.83-49.9-25.83-49.9,54.76-8.35,162.25,86.22,162.25,86.22l-2.51,17.55c.05.02.08.02.08.02v8.93s-.36,0-1.02-.02v.05c.66-.02,1.02-.02,1.02-.02v8.93s-.03,0-.08.02l2.51,17.55s-107.49,94.57-162.25,86.22Z"/>
  <g>
    <path class="cls-5" d="M758.01,651.24c-74.4,0-153.32-51.88-205.95-94.88,5.2-4.81,9.72-10.33,13.42-16.41,7.1-11.64,11.19-25.33,11.19-39.95s-4.09-28.31-11.19-39.95c-3.71-6.08-8.22-11.61-13.42-16.41,52.63-43,131.55-94.88,205.95-94.88,127.03,0,236.99,151.24,236.99,151.24,0,0-109.96,151.24-236.99,151.24Z"/>
    <path class="cls-2" d="M756.27,624.97c-70,0-144.52-48.45-190.79-85.01,7.1-11.64,11.19-25.33,11.19-39.95s-4.09-28.31-11.19-39.95c46.27-36.56,120.79-85.01,190.79-85.01,112.42,0,209.73,124.97,209.73,124.97,0,0-97.32,124.97-209.73,124.97Z"/>
  </g>
  <path class="cls-1" d="M732.8,612.73s-2.61-25.72-25.83-49.9c32.26,16.8,97.64,41.25,133.61,24.56,0,0-1.27-36.53-34.33-59.3,13.58,7.8,32.75,12.67,54.01,12.67,41.19,0,74.57-40.76,74.57-40.76,0,0-33.39-40.76-74.57-40.76-21.26,0-40.42,4.87-54.01,12.67,33.05-22.77,34.33-59.3,34.33-59.3-35.97-16.69-101.34,7.76-133.61,24.56,23.22-24.18,25.83-49.9,25.83-49.9-54.76-8.35-162.25,86.22-162.25,86.22l2.51,17.55c-.05.02-.08.02-.08.02v8.93s.36,0,1.02-.02v.05c-.66-.02-1.02-.02-1.02-.02v8.93s.03,0,.08.02l-2.51,17.55s107.49,94.57,162.25,86.22Z"/>
  <path class="cls-4" d="M500,423.33c-42.47,0-76.9,34.43-76.9,76.9s34.43,76.9,76.9,76.9,76.9-34.43,76.9-76.9-34.43-76.9-76.9-76.9ZM500,518.13c-9.88,0-17.9-8.01-17.9-17.9s8.01-17.9,17.9-17.9,17.9,8.01,17.9,17.9-8.01,17.9-17.9,17.9Z"/>
  <circle class="cls-2" cx="499.32" cy="500.73" r="24.47"/>
</svg>