<?xml version="1.0" encoding="UTF-8"?>
<svg id="Layer_1" data-name="Layer 1" xmlns="http://www.w3.org/2000/svg" viewBox="0 0 1000 1000">
  <defs>
    <style>
      .cls-1 {
        fill: #ffb700;
      }

      .cls-2 {
        fill: #1a0061;
      }

      .cls-3 {
        fill: #2c007f;
        stroke: #f79800;
        stroke-miterlimit: 10;
        stroke-width: 18px;
      }

      .cls-4 {
        fill: #fa0;
      }

      .cls-5 {
        fill: #fea228;
      }
    </style>
  </defs>
  <path class="cls-3" d="M578.42,136.11c0,57.22-80.75,266.2-80.75,266.2,0,0-80.75-208.97-80.75-266.2,0-57.22,80.75-103.61,80.75-103.61,0,0,80.75,46.39,80.75,103.61Z"/>
  <path class="cls-3" d="M868.18,425.87c-57.22,0-266.2,80.75-266.2,80.75,0,0,208.97,80.75,266.2,80.75s103.61-80.75,103.61-80.75c0,0-46.39-80.75-103.61-80.75Z"/>
  <path class="cls-3" d="M129.49,585.04c57.22,0,266.2-80.75,266.2-80.75,0,0-208.97-80.75-266.2-80.75s-103.61,80.75-103.61,80.75c0,0,46.39,80.75,103.61,80.75Z"/>
  <path class="cls-3" d="M419.25,874.8c0-57.22,80.75-266.2,80.75-266.2,0,0,80.75,208.97,80.75,266.2s-80.75,103.61-80.75,103.61c0,0-80.75-46.39-80.75-103.61Z"/>
  <g>
    <path class="cls-5" d="M394.6,904.02c73.45-73.45,100.15-202.59,109.65-296.99-9.88.39-19.79-.6-29.45-2.95-18.5-4.49-36.04-13.96-50.49-28.4-14.44-14.44-23.91-31.99-28.4-50.49-2.35-9.66-3.34-19.58-2.95-29.45-94.4,9.51-223.53,36.2-296.99,109.65C-29.43,730.81,11.32,988.68,11.32,988.68c0,0,257.87,40.76,383.28-84.65Z"/>
    <path class="cls-2" d="M370.37,876.37c69.1-69.1,94.84-190.5,104.42-272.28-18.5-4.49-36.04-13.96-50.49-28.4-14.44-14.44-23.91-31.99-28.4-50.49-81.78,9.58-203.17,35.32-272.28,104.42-110.98,110.98-83.68,330.43-83.68,330.43,0,0,219.44,27.3,330.43-83.68Z"/>
  </g>
  <path class="cls-1" d="M381.46,841.12s-22.82-27.97-23.77-74.76c-15.27,48.43-55.67,137.11-107.66,156.14,0,0-34.81-37.32-24.65-92.43-5.71,21.11-19.82,44.84-40.81,65.82-40.66,40.66-113.86,33.38-113.86,33.38,0,0-7.28-73.2,33.38-113.86,20.99-20.99,44.71-35.1,65.82-40.81-55.11,10.15-92.43-24.65-92.43-24.65,19.03-51.98,107.71-92.39,156.14-107.66-46.79-.95-74.76-23.77-74.76-23.77,45.82-62.31,245.3-75.06,245.3-75.06l14.85,19.8c.07-.04.1-.06.1-.06l8.82,8.82s-.36.35-1.03.98l.05.05c.64-.67.99-1.03.99-1.03l8.82,8.82s-.02.04-.06.1l19.8,14.85s-12.75,199.48-75.06,245.3Z"/>
  <g>
    <path class="cls-5" d="M904.02,394.6c-73.45,73.45-202.59,100.15-296.99,109.65.39-9.88-.6-19.79-2.95-29.45-4.49-18.5-13.96-36.04-28.4-50.49-14.44-14.44-31.99-23.91-50.49-28.4-9.66-2.35-19.58-3.34-29.45-2.95,9.51-94.4,36.2-223.53,109.65-296.99C730.81-29.43,988.68,11.32,988.68,11.32c0,0,40.76,257.87-84.65,383.28Z"/>
    <path class="cls-2" d="M876.37,370.37c-69.1,69.1-190.5,94.84-272.28,104.42-4.49-18.5-13.96-36.04-28.4-50.49-14.44-14.44-31.99-23.91-50.49-28.4,9.58-81.78,35.32-203.17,104.42-272.28,110.98-110.98,330.43-83.68,330.43-83.68,0,0,27.3,219.44-83.68,330.43Z"/>
  </g>
  <path class="cls-1" d="M841.12,381.46s-27.97-22.82-74.76-23.77c48.43-15.27,137.11-55.67,156.14-107.66,0,0-37.32-34.81-92.43-24.65,21.11-5.71,44.84-19.82,65.82-40.81,40.66-40.66,33.38-113.86,33.38-113.86,0,0-73.2-7.28-113.86,33.38-20.99,20.99-35.1,44.71-40.81,65.82,10.15-55.11-24.65-92.43-24.65-92.43-51.98,19.03-92.39,107.71-107.66,156.14-.95-46.79-23.77-74.76-23.77-74.76-62.31,45.82-75.06,245.3-75.06,245.3l19.8,14.85c-.04.07-.06.1-.06.1l8.82,8.82s.35-.36.98-1.03l.05.05c-.67.64-1.03.99-1.03.99l8.82,8.82s.04-.02.1-.06l14.85,19.8s199.48-12.75,245.3-75.06Z"/>
  <g>
    <path class="cls-5" d="M95.98,394.6c73.45,73.45,202.59,100.15,296.99,109.65-.39-9.88.6-19.79,2.95-29.45,4.49-18.5,13.96-36.04,28.4-50.49s31.99-23.91,50.49-28.4c9.66-2.35,19.58-3.34,29.45-2.95-9.51-94.4-36.2-223.53-109.65-296.99C269.19-29.43,11.32,11.32,11.32,11.32c0,0-40.76,257.87,84.65,383.28Z"/>
    <path class="cls-2" d="M123.63,370.37c69.1,69.1,190.5,94.84,272.28,104.42,4.49-18.5,13.96-36.04,28.4-50.49s31.99-23.91,50.49-28.4c-9.58-81.78-35.32-203.17-104.42-272.28C259.39,12.65,39.95,39.95,39.95,39.95c0,0-27.3,219.44,83.68,330.43Z"/>
  </g>
  <path class="cls-1" d="M158.88,381.46s27.97-22.82,74.76-23.77c-48.43-15.27-137.11-55.67-156.14-107.66,0,0,37.32-34.81,92.43-24.65-21.11-5.71-44.84-19.82-65.82-40.81-40.66-40.66-33.38-113.86-33.38-113.86,0,0,73.2-7.28,113.86,33.38,20.99,20.99,35.1,44.71,40.81,65.82-10.15-55.11,24.65-92.43,24.65-92.43,51.98,19.03,92.39,107.71,107.66,156.14.95-46.79,23.77-74.76,23.77-74.76,62.31,45.82,75.06,245.3,75.06,245.3l-19.8,14.85c.04.07.06.1.06.1l-8.82,8.82s-.35-.36-.98-1.03l-.05.05c.67.64,1.03.99,1.03.99l-8.82,8.82s-.04-.02-.1-.06l-14.85,19.8s-199.48-12.75-245.3-75.06Z"/>
  <g>
    <path class="cls-5" d="M605.4,904.02c-73.45-73.45-100.15-202.59-109.65-296.99,9.88.39,19.79-.6,29.45-2.95,18.5-4.49,36.04-13.96,50.49-28.4s23.91-31.99,28.4-50.49c2.35-9.66,3.34-19.58,2.95-29.45,94.4,9.51,223.53,36.2,296.99,109.65,125.41,125.41,84.65,383.28,84.65,383.28,0,0-257.87,40.76-383.28-84.65Z"/>
    <path class="cls-2" d="M629.63,876.37c-69.1-69.1-94.84-190.5-104.42-272.28,18.5-4.49,36.04-13.96,50.49-28.4s23.91-31.99,28.4-50.49c81.78,9.58,203.17,35.32,272.28,104.42,110.98,110.98,83.68,330.43,83.68,330.43,0,0-219.44,27.3-330.43-83.68Z"/>
  </g>
  <path class="cls-1" d="M618.54,841.12s22.82-27.97,23.77-74.76c15.27,48.43,55.67,137.11,107.66,156.14,0,0,34.81-37.32,24.65-92.43,5.71,21.11,19.82,44.84,40.81,65.82,40.66,40.66,113.86,33.38,113.86,33.38,0,0,7.28-73.2-33.38-113.86-20.99-20.99-44.71-35.1-65.82-40.81,55.11,10.15,92.43-24.65,92.43-24.65-19.03-51.98-107.71-92.39-156.14-107.66,46.79-.95,74.76-23.77,74.76-23.77-45.82-62.31-245.3-75.06-245.3-75.06l-14.85,19.8c-.07-.04-.1-.06-.1-.06l-8.82,8.82s.36.35,1.03.98l-.05.05c-.64-.67-.99-1.03-.99-1.03l-8.82,8.82s.02.04.06.1l-19.8,14.85s12.75,199.48,75.06,245.3Z"/>
  <path class="cls-4" d="M575.69,424.31c-41.93-41.93-109.91-41.93-151.84,0-41.93,41.93-41.93,109.91,0,151.84,41.93,41.93,109.91,41.93,151.84,0,41.93-41.93,41.93-109.91,0-151.84ZM482.1,517.9c-9.76-9.76-9.76-25.58,0-35.34,9.76-9.76,25.58-9.76,35.34,0,9.76,9.76,9.76,25.58,0,35.34-9.76,9.76-25.58,9.76-35.34,0Z"/>
  <circle class="cls-2" cx="498.6" cy="500.05" r="34.16"/>
</svg>